<svg width="20" height="26" viewBox="0 0 20 26" fill="none" xmlns="http://www.w3.org/2000/svg">
<path d="M14.9028 5.17985C15.2992 4.66454 15.4848 4.10859 15.4848 3.56172C15.4848 2.11385 14.2089 1.06463 12.9288 1.06463C12.246 1.06463 11.543 1.35133 11.0525 2.05932C8.92827 5.00965 4.07261 11.8076 2.30474 14.3121L2.30405 14.313C1.67187 15.2114 1.33026 16.1679 1.33026 17.0519C1.33026 17.9268 1.67699 18.7342 2.37902 19.3062C3.06415 19.8644 4.01093 20.1381 5.12335 20.1381H5.1234C5.39007 20.1381 7.89521 20.1381 10.4867 20.1163C10.4839 20.4371 10.4799 20.7557 10.476 21.0695L10.4751 21.1404C10.468 21.6956 10.4612 22.2362 10.4612 22.7366C10.4612 23.5009 10.7684 24.1226 11.2636 24.5403C11.7394 24.9415 12.3404 25.1159 12.8993 25.1159C13.4489 25.1159 14.0395 24.9539 14.5073 24.5572C14.9948 24.1437 15.2786 23.5333 15.2786 22.7955V22.7954V22.7952V22.795V22.7949V22.7947V22.7945V22.7943V22.7942V22.794V22.7938V22.7937V22.7935V22.7934V22.7932V22.793V22.7929V22.7927V22.7925V22.7924V22.7922V22.7921V22.7919V22.7917V22.7916V22.7914V22.7913V22.7911V22.791V22.7908V22.7907V22.7905V22.7903V22.7902V22.79V22.7899V22.7897V22.7896V22.7894V22.7893V22.7891V22.789V22.7889V22.7887V22.7886V22.7884V22.7883V22.7881V22.788V22.7878V22.7877V22.7876V22.7874V22.7873V22.7871V22.787V22.7869V22.7867V22.7866V22.7864V22.7863V22.7862V22.786V22.7859V22.7858V22.7856V22.7855V22.7854V22.7852V22.7851V22.785V22.7848V22.7847V22.7846V22.7844V22.7843V22.7842V22.784V22.7839V22.7838V22.7837V22.7835V22.7834V22.7833V22.7832V22.783V22.7829V22.7828V22.7827V22.7825V22.7824V22.7823V22.7822V22.7821V22.7819V22.7818V22.7817V22.7816V22.7815V22.7813V22.7812V22.7811V22.781V22.7809V22.7807V22.7806V22.7805V22.7804V22.7803V22.7802V22.7801V22.7799V22.7798V22.7797V22.7796V22.7795V22.7794V22.7793V22.7791V22.779V22.7789V22.7788V22.7787V22.7786V22.7785V22.7784V22.7783V22.7782V22.7781V22.7779V22.7778V22.7777V22.7776V22.7775V22.7774V22.7773V22.7772V22.7771V22.777V22.7769V22.7768V22.7767V22.7766V22.7765V22.7764V22.7763V22.7762V22.7761V22.776V22.7759V22.7758V22.7757V22.7756V22.7755V22.7754V22.7753V22.7752V22.7751V22.775V22.7749V22.7748V22.7747V22.7746V22.7745V22.7744V22.7743V22.7742V22.7741V22.774V22.7739V22.7738V22.7737V22.7736V22.7735V22.7734V22.7733V22.7732V22.7731V22.773V22.7729V22.7728V22.7727V22.7726V22.7726V22.7725V22.7724V22.7723V22.7722V22.7721V22.772V22.7719V22.7718V22.7717V22.7716V22.7715V22.7714V22.7714V22.7713V22.7712V22.7711V22.771V22.7709V22.7708V22.7707V22.7706V22.7705V22.7705V22.7704V22.7703V22.7702V22.7701V22.77V22.7699V22.7698V22.7697V22.7697V22.7696V22.7695V22.7694V22.7693V22.7692V22.7691V22.769V22.7689V22.7689V22.7688V22.7687V22.7686V22.7685V22.7684V22.7683V22.7682V22.7682V22.7681V22.768V22.7679V22.7678V22.7677V22.7676V22.7676V22.7675V22.7674V22.7673V22.7672V22.7671V22.767V22.7669V22.7669V22.7668V22.7667V22.7666V22.7665V22.7664V22.7663V22.7663V22.7662V22.7661V22.766V22.7659V22.7658V22.7657V22.7657V22.7656V22.7655V22.7654V22.7653V22.7652V22.7651V22.765V22.765V22.7649V22.7648V22.7647V22.7646V22.7645V22.7644V22.7644V22.7643V22.7642V22.7641V22.764V22.7639V22.7638V22.7637V22.7637V22.7636V22.7635V22.7634V22.7633V22.7632V22.7631V22.763V22.763V22.7629V22.7628V22.7627V22.7626V22.7625V22.7624V22.7623V22.7623V22.7622V22.7621V22.762V22.7619V22.7618V22.7617V22.7616V22.7615V22.7614V22.7614V22.7613V22.7612V22.7611V22.761V22.7609V22.7608V22.7607V22.7606V22.7605V22.7604V22.7604V22.7603V22.7602V22.7601V22.76V22.7599V22.7598V22.7597V22.7596V22.7595V22.7594V22.7593V22.7592V22.7591V22.7591V22.759V22.7589V22.7588V22.7587V22.7586V22.7585V22.7584V22.7583V22.7582V22.7581V22.758V22.7579V22.7578V22.7577V22.7576V22.7575V22.7574V22.7573V22.7572V22.7571V22.757V22.7569V22.7568V22.7567V22.7566V22.7565V22.7564V22.7563V22.7562V22.7561V22.756V22.7559V22.7558V22.7557V22.7556V22.7555V22.7554V22.7553V22.7552V22.7551V22.755V22.7549V22.7548V22.7547V22.7545V22.7544V22.7543V22.7542V22.7541V22.754V22.7539V22.7538V22.7537V22.7536V22.7535V22.7534V22.7532V22.7531V22.753V22.7529V22.7528V22.7527V22.7526V22.7525V22.7523V22.7522V22.7521V22.752V22.7519V22.7518V22.7517V22.7515V22.7514V22.7513V22.7512V22.7511V22.751V22.7508V22.7507V22.7506V22.7505V22.7504V22.7502V22.7501V22.75V22.7499V22.7498V22.7496V22.7495V22.7494V22.7493V22.7491V22.749V22.7489V22.7488V22.7486V22.7485V22.7484V22.7483V22.7481V22.748V22.7479V22.7477V22.7476V22.7475V22.7473V22.7472V22.7471V22.7469V22.7468V22.7467V22.7465V22.7464V22.7463V22.7461V22.746V22.7459V22.7457V22.7456V22.7455V22.7453V22.7452V22.745V22.7449V22.7448V22.7446V22.7445V22.7443V22.7442V22.744V22.7439V22.7438V22.7436V22.7435V22.7433V22.7432V22.743V22.7429V22.7427V22.7426V22.7424V22.7423V22.7421V22.742V22.7418V22.7417V22.7415V22.7414V22.7412V22.7411V22.7409V22.7407V22.7406V22.7404V22.7403V22.7401V22.74V22.7398V22.7396V22.7395V22.7393V22.7391V22.739V22.7388V22.7387V22.7385V22.7383V22.7382V22.738V22.7378V22.7377V22.7375V22.7373V22.7371V22.737V22.7368V22.7366V22.7275L15.2784 22.7185C15.2663 22.1718 15.2497 21.6624 15.2342 21.1861C15.2213 20.7926 15.2093 20.4218 15.201 20.0711C15.3187 20.069 15.4305 20.0666 15.5355 20.0642C15.6107 20.0626 15.6816 20.0609 15.7481 20.0593C15.9799 20.0539 16.1588 20.0497 16.2866 20.0497H16.2971L16.3076 20.0495C17.8901 20.0089 18.8132 18.8896 18.8132 17.6999C18.8132 16.5557 17.9595 15.4384 16.4928 15.4384H16.4926H16.4925H16.4923H16.4921H16.4919H16.4918H16.4916H16.4914H16.4912H16.4911H16.4909H16.4907H16.4906H16.4904H16.4902H16.49H16.4899H16.4897H16.4895H16.4893H16.4892H16.489H16.4888H16.4887H16.4885H16.4883H16.4881H16.488H16.4878H16.4876H16.4875H16.4873H16.4871H16.4869H16.4868H16.4866H16.4864H16.4862H16.4861H16.4859H16.4857H16.4856H16.4854H16.4852H16.485H16.4849H16.4847H16.4845H16.4843H16.4842H16.484H16.4838H16.4837H16.4835H16.4833H16.4831H16.483H16.4828H16.4826H16.4824H16.4823H16.4821H16.4819H16.4818H16.4816H16.4814H16.4812H16.4811H16.4809H16.4807H16.4805H16.4804H16.4802H16.48H16.4799H16.4797H16.4795H16.4793H16.4792H16.479H16.4788H16.4786H16.4785H16.4783H16.4781H16.478H16.4778H16.4776H16.4774H16.4773H16.4771H16.4769H16.4768H16.4766H16.4764H16.4762H16.4761H16.4759H16.4757H16.4755H16.4754H16.4752H16.475H16.4749H16.4747H16.4745H16.4743H16.4742H16.474H16.4738H16.4736H16.4735H16.4733H16.4731H16.473H16.4728H16.4726H16.4724H16.4723H16.4721H16.4719H16.4717H16.4716H16.4714H16.4712H16.4711H16.4709H16.4707H16.4705H16.4704H16.4702H16.47H16.4698H16.4697H16.4695H16.4693H16.4692H16.469H16.4688H16.4686H16.4685H16.4683H16.4681H16.4679H16.4678H16.4676H16.4674H16.4673H16.4671H16.4669H16.4667H16.4666H16.4664H16.4662H16.4661H16.4659H16.4657H16.4655H16.4654H16.4652H16.465H16.4648H16.4647H16.4645H16.4643H16.4642H16.464H16.4638H16.4636H16.4635H16.4633H16.4631H16.4629H16.4628H16.4626H16.4624H16.4623H16.4621H16.4619H16.4617H16.4616H16.4614H16.4612H16.461H16.4609H16.4607H16.4605H16.4604H16.4602H16.46H16.4598H16.4597H16.4595H16.4593H16.4591H16.459H16.4588H16.4586H16.4585H16.4583H16.4581H16.4579H16.4578H16.4576H16.4574H16.4572H16.4571H16.4569H16.4567H16.4566H16.4564H16.4562H16.456H16.4559H16.4557H16.4555H16.4553H16.4552H16.455H16.4548H16.4547H16.4545H16.4543H16.4541H16.454H16.4538H16.4536H16.4535H16.4533H16.4531H16.4529H16.4528H16.4526H16.4524H16.4522H16.4521H16.4519H16.4517H16.4516H16.4514H16.4512H16.451H16.4509H16.4507H16.4505H16.4503H16.4502H16.45H16.4498H16.4497H16.4495H16.4493H16.4491H16.449H16.4488H16.4486H16.4484H16.4483H16.4481H16.4479H16.4478H16.4476H16.4474H16.4472H16.4471H16.4469H16.4467H16.4465H16.4464H16.4462H16.446H16.4459H16.4457H16.4455H16.4453H16.4452H16.445H16.4448H16.4446H16.4445H16.4443H16.4441H16.444H16.4438H16.4436H16.4434H16.4433H16.4431H16.4429H16.4428H16.4426H16.4424H16.4422H16.4421H16.4419H16.4417H16.4415H16.4414H16.4412H16.441H16.4409H16.4407H16.4405H16.4403H16.4402H16.44H16.4398H16.4396H16.4395H16.4393H16.4391H16.439H16.4388H16.4386H16.4384H16.4383H16.4381H16.4379H16.4377H16.4376H16.4374H16.4372H16.4371H16.4369H16.4367H16.4365H16.4364H16.4362H16.436H16.4358H16.4357H16.4355H16.4353H16.4352H16.435H16.4348H16.4346H16.4345H16.4343H16.4341H16.4339H16.4338H16.4336H16.4334H16.4333H16.4331H16.4329H16.4327H16.4326H16.4324H16.4322H16.4321H16.4319H16.4317H16.4315H16.4314H16.4312H16.431H16.4308H16.4307H16.4305H16.4303H16.4302H16.43H16.4298H16.4296H16.4295H16.4293H16.4291H16.4289H16.4288H16.4286H16.4284H16.4283H16.4281H16.4279H16.4277H16.4276H16.4274H16.4272H16.427H16.4269H16.4267H16.4265H16.4264H16.4262H16.426H16.4258H16.4257H16.4255H16.4253H16.4251H16.425H16.4248H16.4246H16.4245H16.4243H16.4241H16.4239H16.4238H16.4236H16.4234H16.4232H16.4231H16.4229H16.4227H16.4226H16.4224H16.4222H16.422H16.4219H16.4217H16.4215H16.4214H16.4212H16.421H16.4208H16.4207H16.4205H16.4203H16.4201H16.42H16.4198H16.4196H16.4195H16.4193H16.4191H16.4189H16.4188H16.4186H16.4184H16.4182H16.4181H16.4179H16.4177H16.4176H16.4174H16.4172H16.417H16.4169H16.4167H16.4165H16.4163H16.4162H16.416H16.4158H16.4157H16.4155H16.4153H16.4151H16.415H16.4148H16.4146H16.4144H16.4143H16.4141H16.4139H16.4138H16.4136H16.4134H16.4132H16.4131H16.4129H16.4127H16.4125H16.4124H16.4122H16.412H16.4119H16.4117H16.4115H16.4113H16.4112H16.411H16.4108H16.4107H16.4105H16.4103H16.4101H16.41H16.4098H16.4096H16.4094H16.4093H16.4091H16.4089H16.4088H16.4086H16.4084H16.4082H16.4081H16.4079H16.4077H16.4075H16.4074H16.4072H16.407H16.4069H16.4067H16.4065H16.4063H16.4062H16.406H16.4058H16.4056H16.4055H16.4053H16.4051H16.405H16.4048H16.4046H16.4044C16.3209 15.4384 16.0584 15.4466 15.6766 15.4585C15.532 15.463 15.3704 15.468 15.1949 15.4733C15.2024 14.7913 15.2182 14.2216 15.2341 13.7006C15.2365 13.619 15.239 13.5384 15.2415 13.4586C15.2608 12.8346 15.2786 12.2597 15.2786 11.6323C15.2786 10.8659 15.0172 10.2226 14.5489 9.77227C14.0908 9.3318 13.496 9.13518 12.9288 9.13518C12.4463 9.13518 11.9504 9.28061 11.5348 9.56186C12.4779 8.33369 13.5903 6.88645 14.9028 5.17985ZM14.9028 5.17985L14.2543 4.68099L14.9028 5.17985ZM7.35699 15.0323C7.99712 14.1803 9.01953 12.8402 10.6529 10.711C10.5676 10.9607 10.5201 11.2387 10.5201 11.5439V11.5441V11.5443V11.5444V11.5446V11.5448V11.545V11.5451V11.5453V11.5455V11.5457V11.5458V11.546V11.5462V11.5464V11.5466V11.5468V11.5469V11.5471V11.5473V11.5475V11.5477V11.5479V11.548V11.5482V11.5484V11.5486V11.5488V11.549V11.5492V11.5494V11.5496V11.5498V11.55V11.5501V11.5503V11.5505V11.5507V11.5509V11.5511V11.5513V11.5515V11.5517V11.5519V11.5521V11.5523V11.5525V11.5527V11.5529V11.5531V11.5533V11.5535V11.5537V11.5539V11.5541V11.5543V11.5545V11.5548V11.555V11.5552V11.5554V11.5556V11.5558V11.556V11.5562V11.5564V11.5566V11.5568V11.5571V11.5573V11.5575V11.5577V11.5579V11.5581V11.5583V11.5586V11.5588V11.559V11.5592V11.5594V11.5596V11.5599V11.5601V11.5603V11.5605V11.5607V11.561V11.5612V11.5614V11.5616V11.5618V11.5621V11.5623V11.5625V11.5627V11.563V11.5632V11.5634V11.5636V11.5639V11.5641V11.5643V11.5645V11.5648V11.565V11.5652V11.5655V11.5657V11.5659V11.5662V11.5664V11.5666V11.5668V11.5671V11.5673V11.5675V11.5678V11.568V11.5682V11.5685V11.5687V11.5689V11.5692V11.5694V11.5697V11.5699V11.5701V11.5704V11.5706V11.5708V11.5711V11.5713V11.5715V11.5718V11.572V11.5723V11.5725V11.5727V11.573V11.5732V11.5735V11.5737V11.574V11.5742V11.5744V11.5747V11.5749V11.5752V11.5754V11.5757V11.5759V11.5761V11.5764V11.5766V11.5769V11.5771V11.5774V11.5776V11.5779V11.5781V11.5783V11.5786V11.5788V11.5791V11.5793V11.5796V11.5798V11.5801V11.5803V11.5806V11.5808V11.5811V11.5813V11.5816V11.5818V11.5821V11.5823V11.5826V11.5828V11.5831V11.5833V11.5836V11.5838V11.5841V11.5843V11.5846V11.5848V11.5851V11.5853V11.5856V11.5859V11.5861V11.5864V11.5866V11.5869V11.5871V11.5874V11.5876V11.5879V11.5881V11.5884V11.5886V11.5889V11.5892V11.5894V11.5897V11.5899V11.5902V11.5904V11.5907V11.5909V11.5912V11.5915V11.5917V11.592V11.5922V11.5925V11.5927V11.593V11.5933V11.5935V11.5938V11.594V11.5943V11.5945V11.5948V11.5951V11.5953V11.5956V11.5958V11.5961V11.5963V11.5966V11.5969V11.5971V11.5974V11.5976V11.5979V11.5982V11.5984V11.5987V11.5989V11.5992V11.5994V11.5997V11.6V11.6002V11.6005V11.6007V11.601V11.6013V11.6015V11.6018V11.602V11.6023V11.6026V11.6028V11.6031V11.6033V11.6036V11.6038V11.6041V11.6044V11.6046V11.6049V11.6051V11.6054V11.6057V11.6059V11.6062V11.6064V11.6067V11.607V11.6072V11.6075V11.6077V11.608V11.6082V11.6085V11.6088V11.609V11.6093V11.6095V11.6098V11.6101V11.6103V11.6106V11.6108V11.6111V11.6113V11.6116V11.6119V11.6121V11.6124V11.6126V11.6129V11.6131V11.6134V11.6137V11.6139V11.6142V11.6144V11.6147V11.6149V11.6152V11.6154V11.6157V11.616V11.6162V11.6165V11.6167V11.617V11.6172V11.6175V11.6177V11.618V11.6183V11.6185V11.6188V11.619V11.6193V11.6195V11.6198V11.62V11.6203V11.6205V11.6208V11.621V11.6213V11.6215V11.6218V11.622V11.6223V11.6225V11.6228V11.623V11.6233V11.6235V11.6238V11.624V11.6243V11.6245V11.6248V11.625V11.6253V11.6255V11.6258V11.626V11.6263V11.6265V11.6268V11.627V11.6273V11.6275V11.6278V11.628V11.6283V11.6285V11.6288V11.629V11.6292V11.6295V11.6297V11.63V11.6302V11.6305V11.6307V11.6309V11.6312V11.6314V11.6317V11.6319V11.6322V11.6324V11.6326V11.6329V11.6331V11.6334V11.6336V11.6338V11.6341V11.6343V11.6346V11.6348V11.635V11.6353V11.6355V11.6357V11.636V11.6362V11.6364V11.6367V11.6369V11.6371V11.6374V11.6376V11.6379V11.6381V11.6383V11.6385V11.6388V11.639V11.6392V11.6395V11.6397V11.6399V11.6402V11.6404V11.6406V11.6408V11.6411V11.6413V11.6415V11.6418V11.642V11.6422V11.6424V11.6427V11.6429V11.6431V11.6433V11.6436V11.6438V11.644V11.6442V11.6444V11.6447V11.6449V11.6451V11.6453V11.6455V11.6458V11.646V11.6462V11.6464V11.6466V11.6469V11.6471V11.6473V11.6475V11.6477V11.6479V11.6481V11.6484V11.6486V11.6488V11.649V11.6492V11.6494V11.6496V11.6498V11.65V11.6502V11.6505V11.6507V11.6509V11.6511V11.6513V11.6515V11.6517V11.6519V11.6521V11.6523V11.6525V11.6527V11.6529V11.6531V11.6533V11.6535V11.6537V11.6539V11.6541V11.6543V11.6545V11.6547V11.6549V11.6551V11.6553V11.6555V11.6557V11.6559V11.6561V11.6563V11.6564V11.6566V11.6568V11.657V11.6572V11.6574V11.6576V11.6578V11.658V11.6581V11.6583V11.6585V11.6587V11.6589V11.6591V11.6592V11.6594V11.6596V11.6598V11.66V11.6601V11.6603V11.6605V11.6607V11.6608V11.661V11.6612V11.6614V11.6615V11.6617V11.6931L10.5225 11.7245C10.5489 12.0684 10.5495 12.5608 10.5495 13.2228C10.5495 13.9067 10.5495 14.7254 10.536 15.6009C10.0708 15.6107 9.61532 15.6215 9.18319 15.6318C8.26732 15.6537 7.45624 15.673 6.87907 15.674C7.00603 15.5015 7.16298 15.2906 7.35699 15.0323ZM6.10677 15.644C6.10688 15.6439 6.10933 15.6445 6.11377 15.646C6.10887 15.6448 6.10666 15.6441 6.10677 15.644Z" fill="white" stroke="white" stroke-width="1.63636"/>
</svg>
