<svg width="19" height="27" viewBox="0 0 19 27" fill="none" xmlns="http://www.w3.org/2000/svg">
<path d="M6.93866 6.87837L6.94412 6.87291L6.94948 6.86736C7.65974 6.12977 8.40133 5.58637 9.4823 5.58637C10.9246 5.58637 11.7274 6.48985 11.7274 7.4191C11.7274 8.16399 11.5439 8.68232 11.2686 9.00845C11.0095 9.31545 10.5871 9.55005 9.88055 9.57583H9.01103C7.59586 9.57583 6.66121 10.7599 6.66121 11.9256C6.66121 13.0928 7.62659 14.3049 9.04049 14.3049C9.13869 14.3049 9.24257 14.2942 9.30118 14.2881C9.30841 14.2874 9.31495 14.2867 9.32071 14.2861C9.39075 14.2791 9.43741 14.2755 9.4823 14.2755H9.48282H9.48334H9.48386H9.48438H9.48489H9.48541H9.48593H9.48645H9.48696H9.48748H9.488H9.48852H9.48904H9.48955H9.49007H9.49059H9.49111H9.49162H9.49214H9.49266H9.49318H9.49369H9.49421H9.49473H9.49525H9.49577H9.49628H9.4968H9.49732H9.49784H9.49835H9.49887H9.49939H9.49991H9.50043H9.50094H9.50146H9.50198H9.5025H9.50301H9.50353H9.50405H9.50457H9.50509H9.5056H9.50612H9.50664H9.50716H9.50767H9.50819H9.50871H9.50923H9.50975H9.51026H9.51078H9.5113H9.51182H9.51233H9.51285H9.51337H9.51389H9.5144H9.51492H9.51544H9.51596H9.51648H9.51699H9.51751H9.51803H9.51855H9.51906H9.51958H9.5201H9.52062H9.52114H9.52165H9.52217H9.52269H9.52321H9.52372H9.52424H9.52476H9.52528H9.5258H9.52631H9.52683H9.52735H9.52787H9.52838H9.5289H9.52942H9.52994H9.53046H9.53097H9.53149H9.53201H9.53253H9.53304H9.53356H9.53408H9.5346H9.53512H9.53563H9.53615H9.53667H9.53719H9.5377H9.53822H9.53874H9.53926H9.53977H9.54029H9.54081H9.54133H9.54185H9.54236H9.54288H9.5434H9.54392H9.54443H9.54495H9.54547H9.54599H9.54651H9.54702H9.54754H9.54806H9.54858H9.54909H9.54961H9.55013H9.55065H9.55117H9.55168H9.5522H9.55272H9.55324H9.55375H9.55427H9.55479H9.55531H9.55583H9.55634H9.55686H9.55738H9.5579H9.55841H9.55893H9.55945H9.55997H9.56048H9.561H9.56152H9.56204H9.56256H9.56307H9.56359H9.56411H9.56463H9.56514H9.56566H9.56618H9.5667H9.56722H9.56773H9.56825H9.56877H9.56929H9.5698H9.57032H9.57084H9.57136H9.57188H9.57239H9.57291H9.57343H9.57395H9.57446H9.57498H9.5755H9.57602H9.57654H9.57705H9.57757H9.57809H9.57861H9.57912H9.57964H9.58016H9.58068H9.5812H9.58171H9.58223H9.58275H9.58327H9.58378H9.5843H9.58482H9.58534H9.58586H9.58637H9.58689H9.58741H9.58793H9.58844H9.58896H9.58948H9.59H9.59051H9.59103H9.59155H9.59207H9.59259H9.5931H9.59362H9.59414H9.59466H9.59517H9.59569H9.59621H9.59673H9.59725H9.59776H9.59828H9.5988H9.59932H9.59983H9.60035H9.60087H9.60139H9.60191H9.60242H9.60294H9.60346H9.60398H9.60449H9.60501H9.60553H9.60605H9.60656H9.60708H9.6076H9.60812H9.60864H9.60915H9.60967H9.61019H9.61071H9.61123H9.61174H9.61226H9.61278H9.6133H9.61381H9.61433H9.61485H9.61537H9.61588H9.6164H9.61692H9.61744H9.61796H9.61847H9.61899H9.61951H9.62003H9.62054H9.62106H9.62158H9.6221H9.62262H9.62313H9.62365H9.62417H9.62469H9.6252H9.62572H9.62624H9.62676H9.62728H9.62779H9.62831H9.62883H9.62935H9.62986H9.63038H9.6309H9.63142H9.63194H9.63245H9.63297H9.63349H9.63401H9.63452H9.63504H9.63556H9.63608H9.63659H9.63711H9.63763H9.63815H9.63867H9.63918H9.6397H9.64022H9.64074H9.64125H9.64177H9.64229H9.64281H9.64333H9.64384H9.64436H9.64488H9.6454H9.64591H9.64643H9.64695H9.64747H9.64799H9.6485H9.64902H9.64954H9.65006H9.65057H9.65109H9.65161H9.65213H9.65265H9.65316H9.65368H9.6542H9.65472H9.65523H9.65575H9.65627H9.65679H9.65731H9.65782H9.65834H9.65886H9.65938H9.65989H9.66041H9.66093H9.66145H9.66196H9.66248H9.663H9.66352H9.66404H9.66455H9.66507H9.66559H9.66611H9.66663H9.66714H9.66766H9.66818H9.6687H9.66921H9.66973H9.67025H9.67077H9.67128H9.6718H9.67232H9.67284H9.67336H9.67387H9.67439H9.67491H9.67543H9.67594H9.67646H9.67698H9.6775H9.67802H9.67853H9.67905H9.67957H9.68009H9.6806H9.68112H9.68164H9.68216H9.68268H9.68319H9.68371H9.68423H9.68475H9.68526H9.68578H9.6863H9.68682H9.68734H9.68785H9.68837H9.68889H9.68941H9.68992H9.69044H9.69096H9.69148H9.692H9.69251H9.69303H9.69355H9.69407H9.69458H9.6951H9.69562H9.69614H9.69665H9.69717H9.69769H9.69821H9.69873H9.69924H9.69976H9.70028H9.7008H9.70131H9.70183H9.70235H9.70287H9.70339H9.7039H9.70442H9.70494H9.70546H9.70597H9.70649H9.70701H9.70753H9.70805H9.70856H9.70908H9.7096H9.71012H9.71063H9.71115H9.71167H9.71219H9.71271H9.71322H9.71374H9.71426H9.71478H9.71529H9.71581H9.71633H9.71685H9.71737H9.71788H9.7184H9.71892H9.71944H9.71995H9.72047H9.72099H9.72151H9.72202H9.72254H9.72306H9.72358H9.7241H9.72461H9.72513H9.72565H9.72617H9.72668H9.7272H9.72772H9.72824H9.72876H9.72927H9.72979H9.73031H9.73083H9.73134H9.73186H9.73238H9.7329H9.73342H9.73393H9.73445H9.73497H9.73549H9.736H9.73652H9.73704H9.73756H9.73808H9.73859H9.73911H9.73963H9.74015H9.74066H9.74118H9.7417H9.74222H9.74274H9.74325H9.74377H9.74429H9.74481H9.74532H9.74584H9.74636H9.74688H9.7474C10.6922 14.2755 11.4414 14.4842 11.9458 14.9129C12.4251 15.3201 12.8172 16.0409 12.8172 17.3747C12.8172 19.2684 11.1688 20.5624 9.39394 20.5624C8.45397 20.5624 7.84658 20.433 7.34127 20.1832C6.82505 19.928 6.34098 19.5111 5.70173 18.8009L5.70178 18.8008L5.69478 18.7932C5.20983 18.2679 4.58846 17.9704 3.94485 17.9704C3.25132 17.9704 2.61705 18.2892 2.16603 18.7402C1.71273 19.1935 1.38885 19.8357 1.38885 20.5558C1.38885 21.1421 1.65772 21.7312 2.02724 22.2412C2.40839 22.7673 2.95003 23.2849 3.62202 23.7404C4.96992 24.654 6.88997 25.3504 9.24667 25.3504C14.0885 25.3504 17.6936 22.0942 17.6936 17.4336C17.6936 16.9164 17.6561 13.6599 14.8666 11.6719C15.9425 10.6513 16.5743 9.15559 16.5743 7.4191C16.5743 5.56525 15.8996 3.92257 14.6586 2.7459C13.4198 1.57148 11.6759 0.916193 9.62958 0.916193C8.19131 0.916193 6.57081 1.38798 5.30352 2.0756C4.66691 2.42101 4.08161 2.84107 3.64452 3.32035C3.2148 3.79155 2.86158 4.39614 2.86158 5.09219C2.86158 5.7914 3.18527 6.40578 3.62368 6.83375C4.05937 7.25907 4.669 7.55983 5.32921 7.55983C5.90213 7.55983 6.49243 7.32461 6.93866 6.87837Z" fill="white" stroke="white" stroke-width="1.63636"/>
</svg>
