<svg width="19" height="27" viewBox="0 0 19 27" fill="none" xmlns="http://www.w3.org/2000/svg">
<path d="M5.57504 19.1757L5.5671 19.1688L5.55899 19.162C5.11116 18.7888 4.57858 18.5305 4.00429 18.5305C2.61352 18.5305 1.65447 19.7818 1.65447 21.0276C1.65447 21.7933 2.02538 22.4393 2.51169 22.9416C2.99644 23.4422 3.64274 23.8525 4.33481 24.1765C5.71719 24.8238 7.44825 25.2036 8.9232 25.2036C14.1766 25.2036 17.7825 21.5964 17.7825 16.8156C17.7825 15.0652 17.2778 13.164 15.995 11.6878C14.6937 10.1902 12.6719 9.22291 9.83629 9.22291C8.99071 9.22291 8.2059 9.29921 7.61922 9.41333C7.65779 9.19226 7.70413 8.93095 7.75432 8.6479C7.78081 8.4985 7.80838 8.34305 7.83644 8.18427C7.97473 7.40185 8.1236 6.54671 8.20001 6.01431C8.20759 5.97035 8.21549 5.93711 8.22253 5.9126C8.23709 5.91158 8.25455 5.91091 8.2752 5.91091C8.71378 5.91091 9.92511 5.91825 11.1347 5.92562L11.2028 5.92604C12.3853 5.93325 13.5521 5.94036 13.9599 5.94036C14.6879 5.94036 15.2893 5.65366 15.6998 5.18882C16.0964 4.73974 16.2803 4.16513 16.2803 3.62C16.2803 3.04839 16.0909 2.45205 15.6834 1.98719C15.2625 1.50693 14.6457 1.21127 13.901 1.21127C9.06082 1.21127 8.6387 1.21113 7.80267 1.1823L7.78858 1.18182H7.77447H7.77396H7.77344H7.77292H7.77241H7.77189H7.77138H7.77087H7.77035H7.76984H7.76933H7.76882H7.76831H7.7678H7.76729H7.76678H7.76628H7.76577H7.76526H7.76476H7.76425H7.76375H7.76324H7.76274H7.76224H7.76174H7.76124H7.76074H7.76024H7.75974H7.75924H7.75874H7.75824H7.75775H7.75725H7.75676H7.75626H7.75577H7.75527H7.75478H7.75429H7.7538H7.75331H7.75282H7.75233H7.75184H7.75135H7.75086H7.75037H7.74989H7.7494H7.74892H7.74843H7.74795H7.74746H7.74698H7.7465H7.74602H7.74554H7.74505H7.74458H7.7441H7.74362H7.74314H7.74266H7.74218H7.74171H7.74123H7.74076H7.74028H7.73981H7.73933H7.73886H7.73839H7.73792H7.73745H7.73698H7.73651H7.73604H7.73557H7.7351H7.73463H7.73416H7.7337H7.73323H7.73277H7.7323H7.73184H7.73137H7.73091H7.73045H7.72998H7.72952H7.72906H7.7286H7.72814H7.72768H7.72722H7.72677H7.72631H7.72585H7.72539H7.72494H7.72448H7.72403H7.72357H7.72312H7.72266H7.72221H7.72176H7.72131H7.72086H7.72041H7.71996H7.71951H7.71906H7.71861H7.71816H7.71771H7.71727H7.71682H7.71637H7.71593H7.71548H7.71504H7.71459H7.71415H7.71371H7.71326H7.71282H7.71238H7.71194H7.7115H7.71106H7.71062H7.71018H7.70974H7.7093H7.70887H7.70843H7.70799H7.70756H7.70712H7.70669H7.70625H7.70582H7.70538H7.70495H7.70452H7.70409H7.70365H7.70322H7.70279H7.70236H7.70193H7.7015H7.70107H7.70065H7.70022H7.69979H7.69936H7.69894H7.69851H7.69809H7.69766H7.69724H7.69681H7.69639H7.69596H7.69554H7.69512H7.6947H7.69428H7.69385H7.69343H7.69301H7.69259H7.69217H7.69176H7.69134H7.69092H7.6905H7.69009H7.68967H7.68925H7.68884H7.68842H7.68801H7.68759H7.68718H7.68676H7.68635H7.68594H7.68553H7.68511H7.6847H7.68429H7.68388H7.68347H7.68306H7.68265H7.68224H7.68183H7.68143H7.68102H7.68061H7.6802H7.6798H7.67939H7.67898H7.67858H7.67817H7.67777H7.67736H7.67696H7.67656H7.67615H7.67575H7.67535H7.67495H7.67455H7.67415H7.67374H7.67334H7.67294H7.67254H7.67215H7.67175H7.67135H7.67095H7.67055H7.67015H7.66976H7.66936H7.66896H7.66857H7.66817H7.66778H7.66738H7.66699H7.66659H7.6662H7.66581H7.66542H7.66502H7.66463H7.66424H7.66385H7.66346H7.66306H7.66267H7.66228H7.66189H7.6615H7.66112H7.66073H7.66034H7.65995H7.65956H7.65917H7.65879H7.6584H7.65801H7.65763H7.65724H7.65686H7.65647H7.65609H7.6557H7.65532H7.65493H7.65455H7.65417H7.65378H7.6534H7.65302H7.65264H7.65226H7.65187H7.65149H7.65111H7.65073H7.65035H7.64997H7.64959H7.64921H7.64883H7.64846H7.64808H7.6477H7.64732H7.64694H7.64657H7.64619H7.64581H7.64544H7.64506H7.64469H7.64431H7.64393H7.64356H7.64319H7.64281H7.64244H7.64206H7.64169H7.64132H7.64094H7.64057H7.6402H7.63983H7.63945H7.63908H7.63871H7.63834H7.63797H7.6376H7.63723H7.63686H7.63649H7.63612H7.63575H7.63538H7.63501H7.63464H7.63427H7.63391H7.63354H7.63317H7.6328H7.63244H7.63207H7.6317H7.63134H7.63097H7.6306H7.63024H7.62987H7.62951H7.62914H7.62878H7.62841H7.62805H7.62769H7.62732H7.62696H7.6266H7.62623H7.62587H7.62551H7.62514H7.62478H7.62442H7.62406H7.6237H7.62333H7.62297H7.62261H7.62225H7.62189H7.62153H7.62117H7.62081H7.62045H7.62009H7.61973H7.61937H7.61901H7.61865H7.61829H7.61794H7.61758H7.61722H7.61686H7.6165H7.61615H7.61579H7.61543H7.61507H7.61472H7.61436H7.614H7.61365H7.61329H7.61293H7.61258H7.61222H7.61187H7.61151H7.61116H7.6108H7.61045H7.61009H7.60974H7.60938H7.60903H7.60868H7.60832H7.60797H7.60761H7.60726H7.60691H7.60655H7.6062H7.60585H7.60549H7.60514H7.60479H7.60444H7.60408H7.60373H7.60338H7.60303H7.60268H7.60233H7.60197H7.60162H7.60127H7.60092H7.60057H7.60022H7.59987H7.59952H7.59917H7.59882H7.59847H7.59812H7.59777H7.59742H7.59707H7.59672H7.59637H7.59602H7.59567H7.59532H7.59497H7.59462H7.59427H7.59392H7.59358H7.59323H7.59288H7.59253H7.59218H7.59183H7.59149H7.59114H7.59079H7.59044H7.59009H7.58975H7.5894H7.58905H7.5887H7.58836H7.58801H7.58766H7.58731H7.58697H7.58662H7.58627H7.58593H7.58558H7.58523H7.58489H7.58454H7.58419H7.58385H7.5835H7.58315H7.58281H7.58246H7.58211H7.58177H7.58142H7.58108H7.58073H7.58038H7.58004H7.57969H7.57935H7.579H7.57865H7.57831H7.57796H7.57762H7.57727H7.57693H7.57658H7.57623H7.57589H7.57554H7.5752H7.57485H7.57451H7.57416H7.57382H7.57347H7.57313H7.57278H7.57243H7.57209H7.57174H7.5714H7.57105H7.57071H7.57036H7.57002H7.56967H7.56933H7.56898H7.56864H7.56829C6.53555 1.18182 5.66049 1.38096 5.00452 1.95494C4.35484 2.52341 4.06541 3.33444 3.90622 4.21L3.90617 4.20999L3.90465 4.21888C3.68134 5.52896 3.42213 7.32941 3.21929 8.82671C3.11771 9.57652 3.02985 10.2534 2.96726 10.7588C2.93601 11.0112 2.91081 11.2227 2.89331 11.3799C2.87923 11.5064 2.86211 11.6623 2.86211 11.7495C2.86211 12.6178 3.12078 13.3732 3.71414 13.8953C4.28818 14.4005 5.04499 14.5705 5.80102 14.5705C5.91636 14.5705 6.02542 14.5596 6.09318 14.5528L6.10334 14.5518C6.18394 14.5437 6.21686 14.5411 6.24284 14.5411H6.26838L6.29388 14.5395C6.66793 14.5161 6.95489 14.408 7.18019 14.3047C7.28184 14.2581 7.35329 14.2227 7.41268 14.1932C7.50155 14.1491 7.56342 14.1184 7.65905 14.0838C8.30728 13.8686 9.03868 13.7164 9.71847 13.7164C11.1622 13.7164 11.9174 14.2873 12.3439 14.9055C12.8043 15.5728 12.9356 16.3816 12.9356 16.8451C12.9356 18.6814 11.6338 20.504 9.07047 20.504C7.90062 20.504 6.62346 20.0963 5.57504 19.1757Z" fill="white" stroke="white" stroke-width="1.63636"/>
</svg>
