<svg width="11" height="26" viewBox="0 0 11 26" fill="none" xmlns="http://www.w3.org/2000/svg">
<path d="M4.02594 1.21229L4.01039 1.21307L3.99488 1.21444C2.458 1.35005 1.71697 2.67194 1.71697 3.82618C1.71697 4.38734 1.8928 4.97656 2.2906 5.43871C2.70292 5.91773 3.30855 6.20545 4.03734 6.20545H4.03768H4.03803H4.03837H4.03871H4.03906H4.0394H4.03974H4.04008H4.04042H4.04076H4.04109H4.04143H4.04177H4.04211H4.04244H4.04278H4.04311H4.04344H4.04378H4.04411H4.04444H4.04477H4.0451H4.04543H4.04576H4.04609H4.04642H4.04675H4.04708H4.0474H4.04773H4.04805H4.04838H4.0487H4.04902H4.04935H4.04967H4.04999H4.05031H4.05063H4.05095H4.05127H4.05159H4.05191H4.05223H4.05255H4.05286H4.05318H4.05349H4.05381H4.05412H4.05444H4.05475H4.05506H4.05538H4.05569H4.056H4.05631H4.05662H4.05693H4.05724H4.05755H4.05786H4.05816H4.05847H4.05878H4.05908H4.05939H4.05969H4.06H4.0603H4.06061H4.06091H4.06121H4.06151H4.06182H4.06212H4.06242H4.06272H4.06302H4.06332H4.06362H4.06392H4.06421H4.06451H4.06481H4.06511H4.0654H4.0657H4.06599H4.06629H4.06658H4.06688H4.06717H4.06746H4.06776H4.06805H4.06834H4.06863H4.06892H4.06921H4.0695H4.06979H4.07008H4.07037H4.07066H4.07095H4.07124H4.07153H4.07181H4.0721H4.07239H4.07267H4.07296H4.07324H4.07353H4.07381H4.0741H4.07438H4.07466H4.07495H4.07523H4.07551H4.07579H4.07607H4.07636H4.07664H4.07692H4.0772H4.07748H4.07776H4.07804H4.07832H4.07859H4.07887H4.07915H4.07943H4.07971H4.07998H4.08026H4.08054H4.08081H4.08109H4.08136H4.08164H4.08191H4.08219H4.08246H4.08274H4.08301H4.08328H4.08356H4.08383H4.0841H4.08438H4.08465H4.08492H4.08519H4.08546H4.08573H4.086H4.08628H4.08655H4.08682H4.08709H4.08736H4.08762H4.08789H4.08816H4.08843H4.0887H4.08897H4.08924H4.0895H4.08977H4.09004H4.09031H4.09057H4.09084H4.09111H4.09137H4.09164H4.09191H4.09217H4.09244H4.0927H4.09297H4.09323H4.0935H4.09376H4.09403H4.09429H4.09456H4.09482H4.09508H4.09535H4.09561H4.09587H4.09614H4.0964H4.09666H4.09693H4.09719H4.09745H4.09771H4.09798H4.09824H4.0985H4.09876H4.09902H4.09928H4.09955H4.09981H4.10007H4.10033H4.10059H4.10085H4.10111H4.10137H4.10163H4.10189H4.10216H4.10242H4.10268H4.10294H4.1032H4.10346H4.10372H4.10398H4.10424H4.1045H4.10476H4.10501H4.10527H4.10553H4.10579H4.10605H4.10631H4.10657H4.10683H4.10709H4.10735H4.10761H4.10787H4.10813H4.10839H4.10864H4.1089H4.10916H4.10942H4.10968H4.10994H4.1102H4.11046H4.11072H4.11097H4.11123H4.11149H4.11175H4.11201H4.11227H4.11253H4.11279H4.11305H4.1133H4.11356H4.11382H4.11408H4.11434H4.1146H4.11486H4.11512H4.11538H4.11564H4.1159H4.11616H4.11641H4.11667H4.11693H4.11719H4.11745H4.11771H4.11797H4.11823H4.11849H4.11875H4.11901H4.11927H4.11953H4.11979H4.12005H4.12031H4.12057H4.12084H4.1211H4.12136H4.12162H4.12188H4.12214H4.1224H4.12266H4.12293H4.12319H4.12345H4.12371H4.12397H4.12424H4.1245H4.12476H4.12502H4.12529H4.12555H4.12581H4.12607H4.12634H4.1266H4.12687H4.12713H4.12739H4.12766H4.12792H4.12819H4.12845H4.12872H4.12898H4.12925H4.12951H4.12978H4.13004H4.13031H4.13058H4.13084H4.13111H4.13137H4.13164H4.13191H4.13218H4.13244H4.13271H4.13298H4.13325H4.13352H4.13379H4.13405H4.13432H4.13459H4.13486H4.13513H4.1354H4.13567H4.13594H4.13621H4.13649H4.13676H4.13703H4.1373H4.13757H4.13785H4.13812H4.13839H4.13866H4.13894H4.13921H4.13949H4.13976H4.14004H4.14031H4.14059H4.14086H4.14114H4.14141H4.14169H4.14197H4.14224H4.14252H4.1428H4.14308H4.14335H4.14363H4.14391H4.14419H4.14447H4.14475H4.14503H4.14531H4.14559H4.14587H4.14616H4.14644H4.14672H4.147H4.14729H4.14757H4.14785H4.14814H4.14842H4.14871H4.14899H4.14928H4.14956H4.14985H4.15014H4.15042H4.15071H4.151H4.15129H4.15158H4.15187H4.15215H4.15244H4.15273H4.15303H4.15332H4.15361H4.1539H4.15419H4.15449H4.15478H4.15507H4.15537H4.15566H4.15596H4.15625H4.15655H4.15684H4.15714H4.15744H4.15773H4.15803H4.15833H4.15863H4.15893H4.15923H4.15953H4.15983H4.16013H4.16043H4.16074H4.16104H4.16134H4.16165H4.16195H4.16225H4.16256H4.16287H4.16317H4.16348H4.16379H4.16409H4.1644H4.16471H4.16502H4.16533H4.16564H4.16595H4.16626H4.16657H4.16689H4.1672H4.16751H4.16783H4.16814H4.16845H4.16877H4.16909H4.1694H4.16972H4.17004H4.17036H4.17068H4.17099H4.17131H4.17164H4.17196H4.17228H4.1726H4.17292H4.17325H4.17357H4.1739H4.17422H4.17455H4.17487H4.1752H4.17553H4.17586H4.17619H4.17651H4.17684H4.17718H4.17751H4.17784H4.17817H4.1785H4.17884H4.17917H4.17951H4.17984H4.18018H4.18052H4.18085H4.18119H4.18153H4.18187H4.18221H4.18255H4.18289H4.18324H4.18358H4.18392H4.18427H4.18461H4.18513H4.18565H4.18616H4.18668H4.1872H4.18772H4.18823H4.18875H4.18927H4.18979H4.19031H4.19082H4.19134H4.19186H4.19238H4.19289H4.19341H4.19393H4.19445H4.19497H4.19548H4.196H4.19652H4.19704H4.19755H4.19807H4.19859H4.19911H4.19963H4.20014H4.20066H4.20118H4.2017H4.20221H4.20273H4.20325H4.20377H4.20429H4.2048H4.20532H4.20584H4.20636H4.20687H4.20739H4.20791H4.20843H4.20895H4.20946H4.20998H4.2105H4.21102H4.21153H4.21205H4.21257H4.21309H4.2136H4.21412H4.21464H4.21516H4.21568H4.21619H4.21671H4.21723H4.21775H4.21826H4.21878H4.2193H4.21982H4.22034H4.22085H4.22137H4.22189H4.22241H4.22292H4.22344H4.22396H4.22448H4.225H4.22551H4.22603H4.22655H4.22707H4.22758H4.2281H4.22862H4.22914H4.22966H4.23017H4.23069H4.23121H4.23173H4.23224H4.23276H4.23328H4.2338H4.23432H4.23483H4.23535H4.23587H4.23639H4.2369H4.23742H4.23794H4.23846H4.23898H4.23949H4.24001H4.24053H4.24105H4.24156H4.24208H4.2426H4.24312H4.24363H4.24415H4.24467H4.24519H4.24571H4.24622H4.24674H4.24726H4.24778H4.24829H4.24881H4.24933H4.24985H4.25037H4.25088H4.2514H4.25192H4.25244H4.25295H4.25347H4.25399H4.25451H4.25503H4.25554H4.25606H4.25658H4.2571H4.25761H4.25813H4.25865H4.25917H4.25969H4.2602H4.26072H4.26124H4.26176H4.26227H4.26279H4.26331H4.26383H4.26435H4.26486H4.26538H4.2659H4.26642H4.26693H4.26745H4.26797H4.26849H4.269H4.26952H4.27004H4.27056H4.27108H4.27159H4.27211H4.27263H4.27315H4.27366H4.27418H4.2747H4.27522H4.27574H4.27625H4.27677H4.27729H4.27781H4.27832H4.27884H4.27936H4.27988H4.2804H4.28091H4.28143H4.28195H4.28247H4.28298H4.2835H4.28402H4.28454H4.28506H4.28557H4.28609H4.28661H4.28713H4.28764H4.28816H4.28868H4.2892H4.28972H4.29023H4.29075H4.29127H4.29179H4.2923H4.29282H4.29334H4.29386H4.29437H4.29489H4.29541H4.29593H4.29645H4.29696H4.29748H4.298H4.29852H4.29903H4.29955H4.30007H4.30059H4.30111H4.30162H4.30214H4.30266H4.30318H4.30369H4.30421H4.30473H4.30525H4.30577H4.30628H4.3068H4.30732H4.30784H4.30835H4.30887H4.30939H4.30991H4.31043H4.31094H4.31146H4.31198H4.3125H4.31301H4.31353H4.31405H4.31457H4.31509H4.3156H4.31612H4.31664H4.31716H4.31767H4.31819H4.31871H4.31923H4.31974H4.32026H4.32078H4.3213H4.32182H4.32233H4.32285H4.32337H4.32389H4.3244H4.32492H4.32544H4.32596H4.32648H4.32699H4.32751H4.32803H4.32855H4.32906H4.32958H4.3301H4.33062H4.33114H4.33165H4.33217H4.33269H4.33321H4.33372H4.33424H4.33476H4.33528H4.3358H4.33631H4.33683H4.33735H4.33787H4.33838H4.3389H4.33942H4.33994H4.34046H4.34097H4.34149H4.34201H4.34253H4.34304H4.34356H4.34408H4.3446H4.34511H4.34563H4.34615H4.34667H4.34719H4.3477H4.34822H4.34874H4.34926H4.34977H4.35029H4.35081H4.35133H4.35185H4.35236H4.35288H4.3534H4.35392H4.35443H4.35495H4.35547H4.35599H4.35651H4.35702H4.35754H4.35806H4.35858H4.35909H4.35961H4.36013H4.36065H4.36117H4.36168H4.3622H4.36272H4.36324H4.36375H4.36427H4.36479H4.36531H4.36583H4.36634H4.36686H4.36738H4.3679H4.36841H4.36893H4.36945H4.36997H4.37048H4.371H4.37152H4.37204H4.37256H4.37307H4.37359H4.37411H4.37463H4.37514H4.37566H4.37618H4.3767H4.37722H4.37773H4.37825H4.37877H4.37929H4.3798H4.38032H4.38084H4.38136H4.38188H4.38239H4.38291H4.38343H4.38395H4.38446H4.38498H4.3855H4.38602H4.38654H4.38705H4.38757H4.38809H4.38861H4.38912H4.38964H4.39016H4.39068H4.3912H4.39171H4.39223H4.39275H4.39327H4.39378H4.3943H4.39482H4.39534H4.39585H4.39637H4.39689H4.39741H4.39793H4.39844H4.39896H4.39948H4.4H4.40051H4.40103H4.40155H4.40207H4.40259H4.4031H4.40362H4.40414H4.40466H4.40517H4.40569H4.40621H4.40673H4.40725H4.40776H4.40828H4.4088H4.40932H4.40983H4.41035H4.41087H4.41139H4.41191H4.41242H4.41294H4.41346H4.41398H4.41449H4.41501H4.41553H4.41605H4.41657H4.41708H4.4176H4.41812H4.41864H4.41915H4.41967H4.42019H4.42071H4.42122H4.42174H4.42226H4.42278H4.4233H4.42381H4.42433H4.42485H4.42537H4.42588H4.4264H4.42692H4.42744H4.42796H4.42847H4.42899H4.42951H4.43003H4.43054H4.43106H4.43158H4.4321H4.43262H4.43313H4.43365H4.43417H4.43469H4.4352H4.43572H4.43624H4.43676H4.43728H4.43779H4.43831H4.43883H4.43935H4.43986H4.44038H4.4409H4.44142H4.44194H4.44245H4.44297H4.44349H4.44401H4.44452H4.44504H4.44556H4.44608H4.44659H4.44711H4.44763H4.44815H4.44867H4.44918H4.4497C4.51129 6.20545 4.55658 6.20736 4.58894 6.20963C4.59527 6.22812 4.6024 6.25106 4.61003 6.27918C4.66645 6.48688 4.71356 6.83943 4.74254 7.43975C4.77097 8.0287 4.78025 8.80507 4.78025 9.83491C4.78025 11.773 4.75087 14.3082 4.7214 16.7062C4.71882 16.916 4.71624 17.1249 4.71368 17.3322C4.68703 19.4892 4.66243 21.4806 4.66243 22.736C4.66243 24.3831 6.06024 25.1742 7.21843 25.1742C7.80453 25.1742 8.42253 24.9939 8.91024 24.5959C9.41693 24.1824 9.74497 23.5613 9.74497 22.7949V22.7947V22.7946V22.7944V22.7942V22.7941V22.7939V22.7937V22.7935V22.7934V22.7932V22.7931V22.7929V22.7927V22.7926V22.7924V22.7922V22.7921V22.7919V22.7917V22.7916V22.7914V22.7913V22.7911V22.791V22.7908V22.7906V22.7905V22.7903V22.7902V22.79V22.7899V22.7897V22.7896V22.7894V22.7893V22.7891V22.789V22.7888V22.7887V22.7885V22.7884V22.7882V22.7881V22.7879V22.7878V22.7876V22.7875V22.7874V22.7872V22.7871V22.7869V22.7868V22.7866V22.7865V22.7864V22.7862V22.7861V22.7859V22.7858V22.7857V22.7855V22.7854V22.7853V22.7851V22.785V22.7849V22.7847V22.7846V22.7845V22.7843V22.7842V22.7841V22.7839V22.7838V22.7837V22.7835V22.7834V22.7833V22.7832V22.783V22.7829V22.7828V22.7827V22.7825V22.7824V22.7823V22.7822V22.782V22.7819V22.7818V22.7817V22.7815V22.7814V22.7813V22.7812V22.7811V22.7809V22.7808V22.7807V22.7806V22.7805V22.7803V22.7802V22.7801V22.78V22.7799V22.7798V22.7796V22.7795V22.7794V22.7793V22.7792V22.7791V22.779V22.7789V22.7787V22.7786V22.7785V22.7784V22.7783V22.7782V22.7781V22.778V22.7779V22.7777V22.7776V22.7775V22.7774V22.7773V22.7772V22.7771V22.777V22.7769V22.7768V22.7767V22.7766V22.7765V22.7764V22.7763V22.7761V22.776V22.7759V22.7758V22.7757V22.7756V22.7755V22.7754V22.7753V22.7752V22.7751V22.775V22.7749V22.7748V22.7747V22.7746V22.7745V22.7744V22.7743V22.7742V22.7741V22.774V22.7739V22.7738V22.7737V22.7736V22.7735V22.7734V22.7733V22.7733V22.7732V22.7731V22.773V22.7729V22.7728V22.7727V22.7726V22.7725V22.7724V22.7723V22.7722V22.7721V22.772V22.7719V22.7718V22.7717V22.7716V22.7716V22.7715V22.7714V22.7713V22.7712V22.7711V22.771V22.7709V22.7708V22.7707V22.7706V22.7705V22.7705V22.7704V22.7703V22.7702V22.7701V22.77V22.7699V22.7698V22.7697V22.7696V22.7696V22.7695V22.7694V22.7693V22.7692V22.7691V22.769V22.7689V22.7688V22.7688V22.7687V22.7686V22.7685V22.7684V22.7683V22.7682V22.7681V22.7681V22.768V22.7679V22.7678V22.7677V22.7676V22.7675V22.7674V22.7674V22.7673V22.7672V22.7671V22.767V22.7669V22.7668V22.7668V22.7667V22.7666V22.7665V22.7664V22.7663V22.7662V22.7661V22.7661V22.766V22.7659V22.7658V22.7657V22.7656V22.7655V22.7655V22.7654V22.7653V22.7652V22.7651V22.765V22.7649V22.7649V22.7648V22.7647V22.7646V22.7645V22.7644V22.7643V22.7642V22.7642V22.7641V22.764V22.7639V22.7638V22.7637V22.7636V22.7636V22.7635V22.7634V22.7633V22.7632V22.7631V22.763V22.7629V22.7629V22.7628V22.7627V22.7626V22.7625V22.7624V22.7623V22.7622V22.7622V22.7621V22.762V22.7619V22.7618V22.7617V22.7616V22.7615V22.7614V22.7614V22.7613V22.7612V22.7611V22.761V22.7609V22.7608V22.7607V22.7606V22.7605V22.7605V22.7604V22.7603V22.7602V22.7601V22.76V22.7599V22.7598V22.7597V22.7596V22.7595V22.7594V22.7594V22.7593V22.7592V22.7591V22.759V22.7589V22.7588V22.7587V22.7586V22.7585V22.7584V22.7583V22.7582V22.7581V22.758V22.7579V22.7579V22.7578V22.7577V22.7576V22.7575V22.7574V22.7573V22.7572V22.7571V22.757V22.7569V22.7568V22.7567V22.7566V22.7565V22.7564V22.7563V22.7562V22.7561V22.756V22.7559V22.7558V22.7557V22.7556V22.7555V22.7554V22.7553V22.7552V22.7551V22.755V22.7549V22.7548V22.7547V22.7546V22.7544V22.7543V22.7542V22.7541V22.754V22.7539V22.7538V22.7537V22.7536V22.7535V22.7534V22.7533V22.7532V22.7531V22.7529V22.7528V22.7527V22.7526V22.7525V22.7524V22.7523V22.7522V22.7521V22.7519V22.7518V22.7517V22.7516V22.7515V22.7514V22.7513V22.7511V22.751V22.7509V22.7508V22.7507V22.7506V22.7504V22.7503V22.7502V22.7501V22.75V22.7498V22.7497V22.7496V22.7495V22.7494V22.7492V22.7491V22.749V22.7489V22.7488V22.7486V22.7485V22.7484V22.7483V22.7481V22.748V22.7479V22.7477V22.7476V22.7475V22.7474V22.7472V22.7471V22.747V22.7468V22.7467V22.7466V22.7464V22.7463V22.7462V22.746V22.7459V22.7458V22.7456V22.7455V22.7454V22.7452V22.7451V22.745V22.7448V22.7447V22.7445V22.7444V22.7443V22.7441V22.744V22.7438V22.7437V22.7436V22.7434V22.7433V22.7431V22.743V22.7428V22.7427V22.7425V22.7424V22.7422V22.7421V22.7419V22.7418V22.7416V22.7415V22.7413V22.7412V22.741V22.7409V22.7407V22.7406V22.7404V22.7403V22.7401V22.74V22.7398V22.7396V22.7395V22.7393V22.7392V22.739V22.7388V22.7387V22.7385V22.7384V22.7382V22.738V22.7379V22.7377V22.7375V22.7374V22.7372V22.737V22.7369V22.7367V22.7365V22.7363V22.7362V22.736V22.7228L9.74455 22.7096C9.68614 20.8989 9.68607 19.0565 9.68607 17.228C9.68607 15.1273 9.7081 13.0917 9.73019 11.2845C9.73336 11.0244 9.73655 10.7689 9.73966 10.5185C9.75817 9.03225 9.77443 7.72659 9.77443 6.71273V6.67955C9.77444 6.06523 9.77445 5.51471 9.74353 5.1016C9.68872 3.95667 9.27217 2.95767 8.50301 2.24619C7.73369 1.53457 6.68895 1.18182 5.51007 1.18182H5.50978C4.88714 1.18182 4.63544 1.18182 4.02594 1.21229ZM4.56054 6.14271C4.56057 6.14264 4.56125 6.14361 4.5625 6.14583C4.56114 6.14388 4.56052 6.14278 4.56054 6.14271Z" fill="white" stroke="white" stroke-width="1.63636"/>
</svg>
