<svg width="19" height="26" viewBox="0 0 19 26" fill="none" xmlns="http://www.w3.org/2000/svg">
<path d="M10.7101 10.9306L10.71 10.9306L10.7043 10.9376C9.00266 13.026 6.96549 15.23 5.17893 17.1629C4.25455 18.1631 3.39726 19.0906 2.68824 19.8919C1.98327 20.6692 1.62518 21.5651 1.62518 22.4409C1.62518 23.0979 1.83519 23.738 2.27512 24.2236C2.72358 24.7187 3.36144 24.9969 4.09281 24.9969H14.6375C16.3321 24.9969 17.3114 23.7111 17.3114 22.4409C17.3114 21.8604 17.0983 21.2609 16.6372 20.8057C16.1697 20.344 15.5093 20.0911 14.7259 20.0911C13.4975 20.0911 12.0437 20.1509 10.6072 20.2134C10.4965 20.2182 10.3858 20.223 10.2754 20.2278C9.67395 20.2541 9.07834 20.2801 8.50333 20.302C8.99419 19.803 9.49535 19.3049 10.0015 18.8018C10.3258 18.4795 10.6521 18.1552 10.9791 17.8273C12.2901 16.5126 13.5991 15.1524 14.7489 13.7L14.7504 13.6981C16.562 11.3952 17.3703 9.27788 17.3703 7.36019C17.3703 3.22793 13.566 0.916193 9.89536 0.916193C7.36166 0.916193 5.45792 1.8807 4.18805 3.00263C3.5566 3.56051 3.07761 4.16066 2.75157 4.70797C2.44547 5.2218 2.21427 5.78962 2.21427 6.27037C2.21427 7.75311 3.5623 8.64965 4.77027 8.64965C5.59834 8.64965 6.45784 8.25037 6.99758 7.37848L6.99759 7.37849L7.00004 7.37447C7.8371 6.00475 8.96859 5.49801 9.92481 5.49801C11.1814 5.49801 12.1699 6.33722 12.1699 7.68419C12.1699 8.5001 11.8046 9.61713 10.7101 10.9306Z" fill="white" stroke="white" stroke-width="1.63636"/>
</svg>
