<svg width="21" height="22" viewBox="0 0 21 22" fill="none" xmlns="http://www.w3.org/2000/svg">
<rect width="21" height="22" rx="2" fill="#76B870"/>
<path d="M16.35 11.7406H16.335L13.455 11.6806C14.505 12.9106 15.78 13.8556 17.025 14.5756C17.28 14.7256 17.385 14.9506 17.385 15.1756C17.385 15.5656 17.055 15.9556 16.605 15.9556C15.795 15.9556 13.68 13.7356 12.945 12.8206C12.975 13.7056 13.005 14.6806 13.005 15.8356C13.005 16.0156 13.005 16.1956 13.005 16.3906C13.005 16.8256 12.645 17.0506 12.285 17.0506C11.94 17.0506 11.595 16.8256 11.595 16.3906C11.595 16.1956 11.595 16.0156 11.595 15.8356C11.595 14.6956 11.625 13.7356 11.655 12.8506C10.875 14.0056 9.93004 15.0556 8.67004 15.9856C8.50504 16.1056 8.32504 16.1656 8.17504 16.1656C7.77004 16.1656 7.42504 15.8356 7.42504 15.4756C7.42504 15.2956 7.53004 15.0856 7.77004 14.9356C9.10504 14.0656 10.2 13.0306 11.115 11.6806L8.56504 11.7406H8.55004C8.11504 11.7406 7.92004 11.4556 7.92004 11.1556C7.92004 10.8256 8.14504 10.4956 8.56504 10.4956L11.595 10.5106V9.82062C11.595 9.64062 11.67 9.49063 11.775 9.38563C11.355 9.37063 10.95 9.35563 10.62 9.34062C9.09004 9.23562 9.09004 8.20062 9.09004 7.10562C9.09004 5.57562 9.12004 4.46562 10.605 4.39062C11.1 4.37562 11.67 4.36063 12.24 4.36063C12.945 4.36063 13.635 4.37562 14.16 4.39062C15 4.42063 15.645 4.96062 15.705 5.78562C15.735 6.22063 15.75 6.64063 15.75 7.07562C15.75 8.89062 15.54 9.40062 12.825 9.40062C12.93 9.50562 13.005 9.64062 13.005 9.82062V10.5106L16.335 10.4956C16.74 10.4956 16.95 10.8106 16.95 11.1256C16.95 11.4256 16.74 11.7406 16.35 11.7406ZM5.79004 16.4056L6.00004 9.43062C4.98004 10.6606 4.56004 10.8556 4.24504 10.8556C3.84004 10.8556 3.54004 10.5406 3.54004 10.1806C3.54004 10.0006 3.61504 9.80563 3.79504 9.64062C5.26504 8.33562 6.58504 6.53562 7.38004 4.49563C7.51504 4.16562 7.78504 4.01562 8.05504 4.01562C8.46004 4.01562 8.88004 4.33062 8.88004 4.76563C8.88004 5.09562 8.11504 6.49063 7.47004 7.43562L7.30504 16.4056C7.29004 16.8556 6.91504 17.0806 6.52504 17.0806C6.15004 17.0806 5.79004 16.8706 5.79004 16.4356C5.79004 16.4206 5.79004 16.4206 5.79004 16.4056ZM14.295 7.48063C14.295 6.43063 14.295 6.34062 14.28 6.20562C14.235 5.62062 14.055 5.60563 12.36 5.60563C11.895 5.60563 11.445 5.62062 11.1 5.63562C10.47 5.65062 10.47 6.04062 10.47 7.13563C10.47 8.14062 10.515 8.17063 12.39 8.17063C13.875 8.17063 14.295 8.17063 14.295 7.48063Z" fill="white"/>
</svg>
