<svg width="21" height="22" viewBox="0 0 21 22" fill="none" xmlns="http://www.w3.org/2000/svg">
<rect width="21" height="22" rx="2" fill="#71C4E5"/>
<path d="M14.5346 8.21125H13.4846L13.4696 8.43625C13.2896 11.8563 12.4046 14.9163 9.25465 16.8063C9.10465 16.8963 8.93965 16.9413 8.80465 16.9413C8.36965 16.9413 8.03965 16.5663 8.03965 16.1913C8.03965 15.9813 8.14465 15.7563 8.39965 15.6063C11.1896 13.9413 11.8946 11.3763 12.0296 8.40625L12.0446 8.21125C11.5196 8.21125 11.0096 8.22625 10.5296 8.22625H10.5146C10.0946 8.22625 9.86965 7.89625 9.86965 7.56625C9.86965 7.25125 10.0946 6.90625 10.5146 6.90625C11.0096 6.89125 11.5496 6.89125 12.0746 6.89125C12.0746 6.65125 12.0746 6.42625 12.0746 6.18625C12.0746 5.61625 12.0746 5.04625 12.0596 4.56625C12.0596 4.55125 12.0596 4.55125 12.0596 4.53625C12.0596 4.11625 12.4046 3.90625 12.7646 3.90625C13.1396 3.90625 13.5146 4.13125 13.5296 4.56625C13.5446 4.91125 13.5446 5.30125 13.5446 5.69125C13.5446 6.08125 13.5446 6.48625 13.5296 6.89125C14.0096 6.89125 14.4746 6.90625 14.9396 6.90625C15.9446 6.92125 16.5596 7.58125 16.5896 8.60125C16.6046 8.96125 16.6046 9.41125 16.6046 9.89125C16.6046 13.0113 16.4546 16.7313 13.3196 16.7313C12.8846 16.7313 12.4346 16.6563 11.9546 16.5213C11.6096 16.4163 11.4446 16.1163 11.4446 15.8313C11.4446 15.4563 11.6996 15.0813 12.1196 15.0813C12.2096 15.0813 12.2996 15.0963 12.4046 15.1263C12.7196 15.2313 13.0346 15.3063 13.3046 15.3063C14.4446 15.3063 15.1646 14.1663 15.1646 10.2513C15.1646 9.68125 15.1496 9.17125 15.1346 8.79625C15.1196 8.37625 14.8496 8.21125 14.5346 8.21125ZM9.58465 12.4863L9.89965 12.3513C9.98965 12.3063 10.0646 12.2913 10.1396 12.2913C10.4396 12.2913 10.6496 12.5763 10.6496 12.8613C10.6496 13.0863 10.5446 13.3113 10.2896 13.4463C8.48965 14.4213 4.73965 15.4563 4.37965 15.4563C3.98965 15.4563 3.76465 15.1113 3.76465 14.7663C3.76465 14.3013 3.97465 14.1663 4.75465 14.0163C4.73965 13.3563 4.73965 12.1113 4.73965 10.7913C4.73965 8.97625 4.73965 6.98125 4.75465 6.09625C4.78465 4.65625 5.60965 4.61125 7.12465 4.61125C8.47465 4.61125 9.55465 4.62625 9.55465 6.11125C9.56965 7.32625 9.58465 10.7763 9.58465 12.4863ZM6.04465 7.64125H8.32465C8.32465 7.13125 8.30965 6.69625 8.29465 6.39625C8.29465 5.96125 8.12965 5.87125 7.13965 5.87125C6.88465 5.87125 6.62965 5.88625 6.47965 5.90125C6.04465 5.94625 6.04465 6.12625 6.04465 7.64125ZM8.32465 10.4613V8.81125H6.02965V10.4613H8.32465ZM8.32465 12.9813V11.6463H6.02965C6.02965 12.4563 6.04465 13.1763 6.05965 13.7013C6.85465 13.4913 7.61965 13.2363 8.32465 12.9813Z" fill="white"/>
</svg>
