<svg width="21" height="22" viewBox="0 0 21 22" fill="none" xmlns="http://www.w3.org/2000/svg">
<rect width="21" height="22" rx="2" fill="#F3A8B5"/>
<path d="M16.4854 15.2531H16.5004C16.9204 15.2531 17.1304 15.5681 17.1304 15.8831C17.1304 16.2131 16.9204 16.5431 16.4854 16.5431C15.7354 16.5581 14.7754 16.5581 13.7854 16.5581C12.5704 16.5581 11.3254 16.5581 10.3954 16.5281C9.51039 16.5131 8.86539 16.1081 8.85039 15.0281C8.85039 14.7131 8.83539 14.3681 8.83539 14.0081C8.83539 12.4481 8.89539 10.6481 8.94039 9.07312C8.44539 9.52312 8.20539 9.70312 7.92039 9.70312C7.54539 9.70312 7.27539 9.40312 7.27539 9.07312C7.27539 8.87812 7.35039 8.68312 7.56039 8.51813C8.61039 7.67813 9.72039 6.37312 10.4854 4.55813C10.6354 4.21313 10.8754 4.07812 11.1304 4.07812C11.4904 4.07812 11.8654 4.39312 11.8654 4.78312C11.8654 4.88812 11.8354 4.99312 11.7904 5.09812C11.5204 5.66813 11.2204 6.20812 10.8904 6.71812C11.3854 6.71812 11.9704 6.70313 12.5854 6.70313C12.9454 6.05812 13.3954 5.15812 13.5904 4.57312C13.6954 4.25812 13.9504 4.12312 14.2054 4.12312C14.6104 4.12312 15.0454 4.43812 15.0454 4.82812C15.0454 5.09812 14.4904 5.98312 14.0104 6.70313C14.8804 6.70313 15.7054 6.71812 16.3204 6.71812C16.6954 6.71812 16.8904 7.01812 16.8904 7.31812C16.8904 7.63312 16.6954 7.93312 16.3054 7.93312H16.2904C16.2904 7.93312 16.2904 7.93312 13.7104 7.93312V9.61312H15.9004C16.2754 9.61312 16.4554 9.89813 16.4554 10.1831C16.4554 10.4681 16.2754 10.7531 15.9004 10.7531H13.7104V12.2381H15.9004C16.2754 12.2381 16.4554 12.5231 16.4554 12.8081C16.4554 13.0931 16.2754 13.3781 15.9004 13.3781H13.7104V15.2831C14.6704 15.2831 15.6604 15.2681 16.4854 15.2531ZM7.51539 7.24312C7.51539 7.69312 7.09539 8.05312 6.69039 8.05312C6.48039 8.05312 6.27039 7.96312 6.12039 7.70812C5.64039 6.91313 5.13039 6.52312 4.65039 6.13312C4.48539 5.99812 4.42539 5.84812 4.42539 5.69812C4.42539 5.33812 4.80039 5.00812 5.19039 5.00812C5.77539 5.00812 7.51539 6.50813 7.51539 7.24312ZM5.38539 15.2081C5.16039 15.4481 4.92039 15.5531 4.69539 15.5531C4.26039 15.5531 3.90039 15.1931 3.90039 14.7881C3.90039 14.6231 3.96039 14.4431 4.12539 14.2781C5.08539 13.3031 5.91039 11.9231 6.42039 10.7681C6.54039 10.4981 6.78039 10.3781 7.02039 10.3781C7.39539 10.3781 7.78539 10.6481 7.78539 11.0831C7.78539 11.5181 6.55539 13.9181 5.38539 15.2081ZM12.3454 9.61312V7.93312H10.7404C10.5004 7.93312 10.3054 8.11312 10.2904 8.51813L10.2604 9.61312H12.3454ZM12.3454 12.2381V10.7531H10.2454C10.2304 11.2481 10.2154 11.7431 10.2154 12.2381H12.3454ZM12.3454 15.2831V13.3781H10.2004C10.2004 13.7981 10.2004 14.2181 10.2154 14.6231C10.2154 14.9531 10.3954 15.2381 10.8304 15.2531C11.2654 15.2681 11.7904 15.2831 12.3454 15.2831Z" fill="white"/>
</svg>
