<svg width="21" height="22" viewBox="0 0 21 22" fill="none" xmlns="http://www.w3.org/2000/svg">
<rect width="21" height="22" rx="2" fill="#E5B571"/>
<path d="M15.1202 8.88813V8.87313C15.1202 8.66313 15.1202 8.39313 15.1202 8.16813C15.1202 7.47813 15.0752 7.26813 14.3402 7.25313C13.1402 7.23813 11.5652 7.22313 10.0502 7.22313C8.80516 7.22313 7.60516 7.23813 6.69016 7.25313C5.88016 7.26813 5.86516 7.58313 5.85016 7.95813C5.85016 7.95813 5.85016 7.95813 5.85016 8.82813V8.84313C5.85016 9.24813 5.47516 9.45813 5.11516 9.45813C4.77016 9.45813 4.42516 9.26313 4.42516 8.82813C4.42516 8.63313 4.41016 8.39313 4.41016 8.16813C4.41016 7.92813 4.42516 7.70313 4.42516 7.50813C4.45516 6.78813 4.87516 6.12813 6.01516 6.11313C6.49516 6.11313 7.00516 6.09813 7.51516 6.09813C7.23016 5.64813 6.87016 5.31813 6.51016 4.98813C6.39016 4.88313 6.33016 4.76313 6.33016 4.64313C6.33016 4.34313 6.70516 4.04313 7.08016 4.04313C7.65016 4.04313 8.86516 5.31813 8.86516 5.76813C8.86516 5.87313 8.83516 5.97813 8.77516 6.08313H9.79516V4.35813C9.79516 3.83313 10.1552 3.57812 10.5302 3.57812C10.8902 3.57812 11.2652 3.83313 11.2652 4.35813V6.06813C11.5802 6.06813 11.9102 6.08313 12.2252 6.08313C12.5702 5.60313 12.8852 4.89813 13.0802 4.40313C13.2002 4.07313 13.4552 3.93813 13.7252 3.93813C14.1152 3.93813 14.5202 4.23813 14.5202 4.64313C14.5202 5.03313 13.7552 5.97813 13.6652 6.08313C14.1152 6.08313 14.5502 6.09813 14.9702 6.11313C15.8852 6.12813 16.5302 6.63813 16.5752 7.47813C16.5902 7.67313 16.6052 7.92813 16.6052 8.18313C16.6052 8.42313 16.5902 8.67813 16.5752 8.87313C16.5452 9.29313 16.1852 9.50313 15.8252 9.50313C15.4652 9.50313 15.1202 9.29313 15.1202 8.88813ZM9.81016 16.4481L9.82516 13.3281C9.10516 13.3281 8.38516 13.3431 7.75516 13.3431C7.42516 13.3431 7.14016 13.5531 7.12516 13.9131C7.11016 14.1381 7.11016 14.3931 7.11016 14.6781C7.11016 15.0531 7.11016 15.4581 7.12516 15.8331V15.8481C7.12516 16.2981 6.78016 16.5381 6.42016 16.5381C6.06016 16.5381 5.70016 16.2981 5.68516 15.8331C5.68516 15.5331 5.67016 15.1581 5.67016 14.7831C5.67016 14.3931 5.68516 13.9881 5.68516 13.6581C5.71516 12.6381 6.31516 12.2331 7.36516 12.2181C8.13016 12.2031 8.97016 12.1881 9.82516 12.1881V11.3631C7.45516 11.3631 6.81016 11.2731 6.81016 9.74313C6.81016 8.75313 6.94516 8.07813 8.31016 8.06313C9.12016 8.04813 10.0052 8.04813 10.8752 8.04813C11.5052 8.04813 12.1352 8.04813 12.7502 8.06313C14.1152 8.07813 14.1602 8.90313 14.1602 9.68313C14.1602 11.2431 13.6352 11.3631 11.2502 11.3631V12.1881C12.1352 12.1881 13.0202 12.2031 13.8602 12.2181C14.8052 12.2331 15.4052 12.7131 15.4202 13.6881C15.4202 14.0181 15.4352 14.3331 15.4352 14.6931C15.4352 15.9231 14.5952 16.4631 13.3652 16.4631C11.9102 16.4631 11.7602 16.0881 11.7602 15.7281C11.7602 15.3981 11.9702 15.0681 12.3302 15.0681C12.3752 15.0681 12.4352 15.0681 12.4802 15.0831C12.7352 15.1431 12.9752 15.1731 13.1852 15.1731C13.9802 15.1731 14.0252 14.7681 14.0252 14.2881C14.0252 13.6281 13.9502 13.3431 13.4102 13.3431C12.7502 13.3431 12.0152 13.3281 11.2502 13.3281L11.2652 16.4481C11.2652 16.9131 10.9052 17.1531 10.5452 17.1531C10.1702 17.1531 9.81016 16.9131 9.81016 16.4481ZM12.7502 9.68313C12.7502 9.42813 12.7352 9.11313 12.2552 9.11313C11.7002 9.09813 11.1152 9.09813 10.5002 9.09813C9.90016 9.09813 9.30016 9.09813 8.70016 9.11313C8.49016 9.11313 8.22016 9.17313 8.22016 9.66813C8.22016 10.2231 8.35516 10.2381 10.3352 10.2381C12.7502 10.2381 12.7502 10.2231 12.7502 9.68313Z" fill="white"/>
</svg>
