<svg width="21" height="22" viewBox="0 0 21 22" fill="none" xmlns="http://www.w3.org/2000/svg">
<rect width="21" height="22" rx="2" fill="#E56C81"/>
<path d="M16.335 16.4197H4.66496C4.18496 16.4197 3.95996 16.0897 3.95996 15.7597C3.95996 15.4147 4.21496 15.0547 4.66496 15.0547H6.26996V9.15969C6.26996 8.67969 6.64496 8.43969 7.01996 8.43969C7.39496 8.43969 7.78496 8.67969 7.78496 9.15969V15.0547H9.92996V6.29469H5.41496C4.93496 6.29469 4.70996 5.96469 4.70996 5.63469C4.70996 5.28969 4.96496 4.92969 5.41496 4.92969H15.585C16.065 4.92969 16.305 5.27469 16.305 5.61969C16.305 5.94969 16.065 6.29469 15.585 6.29469H11.475V9.63969H14.685C15.135 9.63969 15.36 9.98469 15.36 10.3297C15.36 10.6597 15.135 11.0047 14.685 11.0047H11.475V15.0547H16.335C16.785 15.0547 17.01 15.3997 17.01 15.7447C17.01 16.0897 16.785 16.4197 16.335 16.4197Z" fill="white"/>
</svg>
