<svg width="21" height="19" viewBox="0 0 21 19" fill="none" xmlns="http://www.w3.org/2000/svg">
<path d="M9.54894 18.073C9.8483 18.9943 11.1517 18.9943 11.4511 18.0729L13.0819 13.0537C13.2158 12.6417 13.5997 12.3627 14.033 12.3627H19.3105C20.2792 12.3627 20.682 11.1231 19.8983 10.5537L15.6287 7.45163C15.2782 7.19698 15.1315 6.74562 15.2654 6.33359L16.8963 1.31434C17.1956 0.393026 16.1411 -0.373096 15.3574 0.196304L11.0878 3.29837C10.7373 3.55302 10.2627 3.55302 9.91221 3.29837L5.64258 0.196304C4.85887 -0.373098 3.80439 0.393028 4.10374 1.31434L5.7346 6.33359C5.86847 6.74562 5.72181 7.19698 5.37132 7.45163L1.10169 10.5537C0.317977 11.1231 0.720754 12.3627 1.68948 12.3627H6.96703C7.40026 12.3627 7.78421 12.6417 7.91809 13.0537L9.54894 18.073Z" fill="#FFF064"/>
</svg>
