<?xml version="1.0" standalone="no"?>
<!DOCTYPE svg PUBLIC "-//W3C//DTD SVG 20010904//EN"
 "http://www.w3.org/TR/2001/REC-SVG-20010904/DTD/svg10.dtd">
<svg version="1.0" xmlns="http://www.w3.org/2000/svg"
 width="70.000000pt" height="70.000000pt" viewBox="0 0 70.000000 70.000000"
 preserveAspectRatio="xMidYMid meet">
<metadata>
Created by potrace 1.14, written by Peter Selinger 2001-2017
</metadata>
<g transform="translate(0.000000,70.000000) scale(0.100000,-0.100000)"
fill="#000000" stroke="none">
<path d="M204 680 c-23 -16 -29 -27 -30 -56 0 -22 -7 -40 -17 -45 -32 -19 -44
-38 -41 -68 3 -25 -2 -33 -26 -48 -25 -14 -30 -24 -30 -55 0 -30 -5 -40 -30
-55 -42 -25 -42 -78 0 -115 21 -18 30 -35 30 -57 0 -23 -7 -34 -30 -48 -25
-14 -30 -24 -30 -54 0 -30 6 -42 28 -58 28 -19 29 -19 58 -2 28 18 30 18 59 0
30 -18 32 -18 59 0 28 18 29 18 60 0 30 -17 32 -17 56 1 24 18 25 18 57 -1 32
-20 33 -20 60 -1 27 19 29 19 57 1 28 -17 31 -17 58 -1 27 16 31 16 60 -1 31
-18 32 -18 57 1 19 14 27 30 29 58 2 35 -1 41 -29 56 -27 16 -33 16 -52 3 -42
-30 -88 -6 -92 47 -2 18 -3 36 -4 40 0 4 -13 14 -28 22 -25 13 -31 12 -56 -2
-26 -16 -30 -16 -57 0 -28 16 -32 16 -60 0 -28 -16 -31 -16 -57 0 -23 14 -28
24 -27 53 1 29 -5 40 -27 56 -23 16 -29 28 -29 57 0 30 5 40 28 53 25 14 30
14 56 -2 28 -17 31 -17 58 -1 23 14 28 23 28 57 0 35 -4 43 -30 58 -25 15 -29
23 -25 47 5 29 -8 50 -44 69 -12 7 -26 4 -47 -9z"/>
</g>
</svg>
