<?xml version="1.0" standalone="no"?>
<!DOCTYPE svg PUBLIC "-//W3C//DTD SVG 20010904//EN"
 "http://www.w3.org/TR/2001/REC-SVG-20010904/DTD/svg10.dtd">
<svg version="1.0" xmlns="http://www.w3.org/2000/svg"
 width="70.000000pt" height="70.000000pt" viewBox="0 0 70.000000 70.000000"
 preserveAspectRatio="xMidYMid meet">
<metadata>
Created by potrace 1.14, written by Peter Selinger 2001-2017
</metadata>
<g transform="translate(0.000000,70.000000) scale(0.100000,-0.100000)"
fill="#000000" stroke="none">
<path d="M266 618 c4 -5 0 -9 -7 -7 -34 4 -69 -2 -82 -16 -8 -8 -17 -11 -21
-8 -3 4 -6 1 -6 -6 0 -7 -4 -9 -10 -6 -5 3 -10 1 -10 -5 0 -6 -4 -8 -10 -5 -5
3 -10 -1 -10 -9 0 -9 -7 -16 -16 -16 -8 0 -12 -4 -9 -10 3 -5 3 -10 -2 -10
-11 0 -43 -58 -43 -76 0 -9 -3 -13 -8 -10 -4 2 -9 -24 -10 -59 -2 -37 1 -66 7
-70 6 -3 11 -12 11 -18 0 -7 -4 -6 -10 3 -20 32 -9 -1 16 -46 29 -52 60 -86
87 -97 9 -3 17 -11 17 -17 0 -6 5 -8 10 -5 6 3 10 1 10 -5 0 -6 4 -9 9 -5 5 3
12 1 15 -4 4 -5 19 -10 34 -11 15 0 38 -1 52 -2 47 -1 109 6 105 13 -4 6 9 12
38 17 12 2 77 70 77 80 0 5 7 15 15 22 8 7 15 21 15 31 0 11 6 19 13 19 9 0 8
3 -2 9 -9 6 -10 11 -2 15 12 8 15 82 3 89 -8 6 -53 -28 -46 -35 2 -3 -2 -11
-11 -18 -11 -9 -15 -9 -15 -1 0 7 -4 10 -9 6 -6 -3 -8 -14 -6 -25 2 -11 -1
-19 -8 -17 -7 1 -11 -4 -9 -12 3 -12 1 -12 -13 -1 -13 11 -18 11 -28 0 -10
-10 -9 -12 6 -7 9 4 17 2 17 -4 0 -7 -10 -9 -27 -4 -23 5 -25 4 -13 -10 7 -8
10 -18 7 -22 -8 -7 38 -33 58 -33 7 0 15 -7 18 -14 4 -10 1 -13 -10 -9 -8 3
-19 0 -24 -8 -6 -10 -9 -10 -9 -1 0 6 -7 12 -15 12 -8 0 -15 5 -15 10 0 13
-33 13 -46 0 -7 -7 -11 -6 -11 4 0 8 4 13 9 10 4 -3 8 0 8 7 0 8 -11 9 -33 5
-17 -3 -27 -3 -22 2 15 10 12 38 -4 34 -7 -1 -10 2 -6 8 5 8 11 8 19 1 7 -6
16 -8 19 -4 4 3 7 1 7 -6 0 -7 4 -10 9 -7 5 4 11 0 14 -6 3 -10 8 -10 18 1 12
12 12 13 0 6 -9 -5 -12 -4 -7 3 4 7 1 12 -6 12 -10 0 -11 2 0 8 9 6 5 12 -14
21 -25 11 -25 13 -9 25 15 11 16 15 4 36 -11 18 -11 24 -1 27 6 3 12 9 12 14
0 6 -5 7 -10 4 -6 -3 -10 0 -10 8 0 18 31 31 40 17 4 -7 13 -4 24 8 16 19 16
19 -11 14 -15 -2 -25 -1 -21 3 9 10 -14 34 -26 27 -5 -3 -6 0 -3 6 5 7 21 3
50 -11 46 -23 66 -28 115 -28 17 0 32 -4 32 -10 0 -5 -7 -9 -15 -9 -8 0 -15
-4 -15 -10 0 -16 27 -12 34 5 6 18 -2 45 -15 45 -5 0 -9 7 -9 15 0 21 -77 94
-118 111 -19 8 -44 14 -57 14 -12 0 -25 3 -29 7 -10 10 -46 11 -40 1z m24 -78
c21 -18 22 -20 4 -21 -10 -1 -23 -1 -29 1 -5 1 -5 -4 2 -11 6 -6 9 -17 7 -24
-3 -8 2 -12 12 -12 17 2 20 -10 15 -52 0 -6 -17 -8 -36 -7 -19 2 -38 -1 -42
-7 -11 -18 -7 -75 7 -92 11 -13 11 -16 0 -13 -8 2 -14 -7 -15 -24 -3 -36 5
-45 40 -50 l30 -4 -30 -8 c-16 -4 -39 -11 -50 -16 -38 -16 -75 -18 -75 -4 0 8
7 14 16 14 9 0 23 8 31 18 8 9 11 11 7 3 -5 -9 -3 -12 4 -7 9 5 9 13 2 27 -6
10 -7 19 -3 19 4 0 8 20 8 44 0 25 -2 43 -6 40 -3 -2 -4 13 -2 32 2 23 0 33
-7 29 -6 -4 -10 -3 -9 2 4 21 -3 22 -28 7 l-28 -17 29 27 c29 26 53 30 48 7
-1 -6 1 -10 5 -10 5 1 10 0 13 -1 3 -1 17 -3 31 -4 24 -3 26 0 25 36 -1 38
-12 50 -22 24 -3 -8 -12 -12 -20 -9 -10 4 -12 0 -8 -11 7 -18 -11 -22 -21 -5
-4 6 1 18 11 28 11 10 28 30 39 44 11 15 20 27 21 27 0 0 11 -9 24 -20z m17
-237 c0 -7 -4 -13 -9 -13 -4 0 -8 5 -8 11 0 6 -7 9 -15 6 -8 -4 -17 -3 -19 2
-3 4 8 7 23 7 16 0 28 -5 28 -13z"/>
<path d="M615 561 c-3 -5 -1 -12 5 -16 5 -3 10 1 10 9 0 18 -6 21 -15 7z"/>
<path d="M595 530 c-3 -5 -1 -10 4 -10 6 0 11 5 11 10 0 6 -2 10 -4 10 -3 0
-8 -4 -11 -10z"/>
<path d="M656 524 c-3 -9 -11 -12 -18 -8 -10 5 -10 4 -1 -6 9 -10 15 -10 27 3
18 18 20 27 7 27 -5 0 -12 -7 -15 -16z"/>
<path d="M575 509 c4 -10 0 -19 -9 -22 -9 -4 -16 -14 -16 -23 0 -10 3 -15 6
-11 3 3 4 8 2 11 -1 3 6 12 17 20 16 12 18 17 7 28 -11 11 -12 10 -7 -3z"/>
<path d="M620 490 c0 -5 5 -10 11 -10 5 0 7 5 4 10 -3 6 -8 10 -11 10 -2 0 -4
-4 -4 -10z"/>
<path d="M595 460 c4 -6 11 -8 16 -5 14 9 11 15 -7 15 -8 0 -12 -5 -9 -10z"/>
<path d="M575 440 c3 -5 8 -10 11 -10 2 0 4 5 4 10 0 6 -5 10 -11 10 -5 0 -7
-4 -4 -10z"/>
<path d="M460 423 c0 -8 5 -13 12 -11 18 6 21 25 3 25 -8 0 -15 -7 -15 -14z"/>
<path d="M381 416 c-14 -17 -10 -111 4 -111 6 0 9 3 8 6 -1 3 10 6 25 5 15 -1
27 4 27 9 0 18 15 34 28 31 7 -1 9 -1 5 1 -5 3 -8 9 -8 14 0 6 5 7 12 3 7 -5
8 -3 3 6 -6 10 -4 12 8 7 19 -7 23 8 6 19 -6 3 -15 1 -19 -6 -6 -10 -13 -8
-31 9 -26 24 -52 27 -68 7z m65 -65 c-9 -10 -13 -21 -9 -25 4 -4 -1 -4 -11 0
-18 7 -18 8 0 21 10 8 18 19 16 24 -1 6 2 7 8 4 8 -5 6 -13 -4 -24z"/>
<path d="M545 420 c-3 -5 1 -10 9 -10 9 0 16 5 16 10 0 6 -4 10 -9 10 -6 0
-13 -4 -16 -10z"/>
</g>
</svg>
