<svg width="385" height="436" viewBox="0 0 385 436" fill="none" xmlns="http://www.w3.org/2000/svg">
<path d="M188.854 290.586L189.082 290.598L189.31 290.588C253.264 287.766 293.55 279.847 317.914 262.975C342.919 245.659 350.326 219.606 350.817 183.879C351.835 109.813 280.297 58.8145 193.992 57.6281C107.694 56.4417 34.6149 105.447 33.5966 179.518C33.1021 215.495 41.7131 242.3 66.5796 260.551C90.9385 278.43 130.117 287.446 188.854 290.586Z" fill="#E7D0BD" stroke="#646464" stroke-width="9.33728"/>
<path d="M93.5211 372.21L89.338 370.137L88.9731 370.873L88.8815 371.69L93.5211 372.21ZM93.5211 372.21C89.338 370.137 89.3392 370.135 89.3405 370.132L89.3432 370.127L89.3491 370.115L89.3627 370.088C89.3726 370.069 89.3841 370.046 89.3972 370.021C89.4235 369.97 89.4564 369.909 89.4961 369.836C89.5755 369.691 89.6825 369.502 89.8186 369.278C90.0906 368.829 90.4811 368.231 91.0041 367.539C92.048 366.156 93.6359 364.375 95.881 362.648C100.448 359.134 107.504 356.029 117.621 356.657C129.525 357.396 136.79 360.306 141.214 363.507C143.423 365.106 144.86 366.734 145.777 368.094C146.233 368.77 146.553 369.368 146.774 369.849C146.885 370.089 146.97 370.299 147.035 370.474C147.068 370.561 147.096 370.64 147.119 370.71C147.13 370.744 147.141 370.777 147.15 370.807L147.163 370.85L147.169 370.87L147.172 370.88C147.174 370.884 147.175 370.889 142.697 372.21M93.5211 372.21C88.8815 371.69 88.8815 371.69 88.8815 371.69L88.8814 371.691L88.8811 371.694L88.8799 371.704L88.8757 371.742L88.8599 371.886C88.8461 372.011 88.826 372.195 88.8005 372.432C88.7497 372.906 88.6772 373.592 88.5902 374.447C88.4164 376.156 88.1843 378.545 87.9508 381.265C87.4869 386.671 87.0058 393.52 86.985 398.96C86.9846 399.072 86.9841 399.185 86.9837 399.298C86.9631 404.534 86.9426 409.749 88.283 414.412C89.7586 419.546 92.7844 423.809 98.2457 427.45C99.5803 428.34 101.173 428.888 102.598 429.261C104.092 429.653 105.761 429.942 107.467 430.161C110.882 430.599 114.782 430.799 118.396 430.879C122.029 430.958 125.469 430.918 127.994 430.859C129.259 430.829 130.3 430.794 131.028 430.767C131.392 430.753 131.678 430.741 131.875 430.733C131.973 430.728 132.05 430.725 132.102 430.723L132.163 430.72L132.18 430.719L132.185 430.719L132.186 430.719C132.187 430.719 132.187 430.719 131.96 426.055M142.697 372.21C147.318 371.544 147.318 371.544 147.318 371.545L147.318 371.545L147.319 371.548L147.32 371.555L147.324 371.584L147.339 371.692C147.353 371.786 147.372 371.924 147.397 372.102C147.447 372.458 147.518 372.972 147.605 373.614C147.779 374.896 148.015 376.688 148.264 378.73C148.758 382.784 149.319 387.933 149.538 392.037C149.747 395.949 149.865 400.882 149.931 404.801C149.964 406.768 149.984 408.494 149.996 409.729C149.999 410.09 150.002 410.409 150.004 410.68C150.209 411.143 150.457 411.74 150.699 412.417C151.205 413.834 151.947 416.295 151.7 418.743C151.35 422.211 149.144 424.554 147.131 425.986C145.109 427.425 142.71 428.376 140.651 429.016C138.541 429.672 136.497 430.088 135.007 430.34C134.254 430.467 133.624 430.556 133.175 430.614C132.95 430.642 132.769 430.664 132.639 430.678C132.575 430.685 132.522 430.691 132.484 430.695L132.436 430.7L132.421 430.701L132.415 430.702L132.412 430.702C132.411 430.702 132.41 430.702 131.96 426.055M142.697 372.21L147.318 371.544L147.27 371.212L147.175 370.889L142.697 372.21ZM131.96 426.055L132.187 430.719L132.299 430.713L132.41 430.702L131.96 426.055Z" fill="#E7D0BD" stroke="#646464" stroke-width="9.33728"/>
<path d="M284.955 372.21L289.139 370.137L289.503 370.873L289.595 371.69L284.955 372.21ZM284.955 372.21C289.139 370.137 289.137 370.135 289.136 370.132L289.133 370.127L289.127 370.115L289.114 370.088C289.104 370.069 289.092 370.046 289.079 370.021C289.053 369.97 289.02 369.909 288.98 369.836C288.901 369.691 288.794 369.502 288.658 369.278C288.386 368.829 287.995 368.231 287.472 367.539C286.429 366.156 284.841 364.375 282.596 362.648C278.029 359.134 270.973 356.029 260.856 356.657C248.952 357.396 241.686 360.306 237.263 363.507C235.054 365.106 233.617 366.734 232.699 368.094C232.243 368.77 231.923 369.368 231.702 369.849C231.592 370.089 231.506 370.299 231.441 370.474C231.408 370.561 231.381 370.64 231.358 370.71C231.346 370.744 231.336 370.777 231.326 370.807L231.313 370.85L231.307 370.87L231.304 370.88C231.303 370.884 231.301 370.889 235.779 372.21M284.955 372.21C289.595 371.69 289.595 371.69 289.595 371.69L289.595 371.691L289.595 371.694L289.597 371.704L289.601 371.742L289.617 371.886C289.63 372.011 289.651 372.195 289.676 372.432C289.727 372.906 289.799 373.592 289.886 374.447C290.06 376.156 290.292 378.545 290.526 381.265C290.99 386.671 291.471 393.52 291.492 398.96C291.492 399.072 291.492 399.185 291.493 399.298C291.513 404.534 291.534 409.749 290.194 414.412C288.718 419.546 285.692 423.809 280.231 427.45C278.896 428.34 277.303 428.888 275.879 429.261C274.385 429.653 272.716 429.942 271.009 430.161C267.595 430.599 263.694 430.799 260.081 430.879C256.448 430.958 253.008 430.918 250.482 430.859C249.217 430.829 248.176 430.794 247.448 430.767C247.084 430.753 246.798 430.741 246.602 430.733C246.503 430.728 246.427 430.725 246.375 430.723L246.314 430.72L246.297 430.719L246.292 430.719L246.29 430.719C246.29 430.719 246.289 430.719 246.517 426.055M235.779 372.21C231.158 371.544 231.158 371.544 231.158 371.545L231.158 371.545L231.158 371.548L231.157 371.555L231.153 371.584L231.137 371.692C231.124 371.786 231.104 371.924 231.079 372.102C231.029 372.458 230.958 372.972 230.871 373.614C230.698 374.896 230.462 376.688 230.213 378.73C229.718 382.784 229.157 387.933 228.938 392.037C228.73 395.949 228.612 400.882 228.546 404.801C228.513 406.768 228.493 408.494 228.481 409.729C228.477 410.09 228.474 410.409 228.472 410.68C228.267 411.143 228.02 411.74 227.778 412.417C227.272 413.834 226.529 416.295 226.777 418.743C227.127 422.211 229.333 424.554 231.345 425.986C233.368 427.425 235.766 428.376 237.825 429.016C239.935 429.672 241.979 430.088 243.47 430.34C244.223 430.467 244.852 430.556 245.302 430.614C245.527 430.642 245.708 430.664 245.837 430.678C245.902 430.685 245.954 430.691 245.993 430.695L246.04 430.7L246.056 430.701L246.062 430.702L246.064 430.702C246.065 430.702 246.067 430.702 246.517 426.055M235.779 372.21L231.158 371.544L231.206 371.212L231.301 370.889L235.779 372.21ZM246.517 426.055L246.289 430.719L246.178 430.713L246.067 430.702L246.517 426.055Z" fill="#E7D0BD" stroke="#646464" stroke-width="9.33728"/>
<path d="M101.572 264.627L98.8229 260.853L98.6655 260.968L98.5182 261.095L101.572 264.627ZM101.572 264.627C98.5182 261.095 98.5174 261.096 98.5164 261.097L98.5135 261.1L98.5045 261.107L98.4738 261.134L98.3629 261.231C98.2672 261.315 98.1285 261.437 97.9494 261.595C97.5914 261.913 97.072 262.377 96.4128 262.978C95.0948 264.18 93.2165 265.928 90.9516 268.132C86.4261 272.537 80.3345 278.789 74.0768 286.174C61.7471 300.725 48.0501 320.498 45.3895 339.545C44.7076 344.426 44.5211 348.66 46.1364 352.593C47.747 356.514 50.8502 359.403 54.7242 362.416C59.3693 366.029 65.5079 366.997 71.0951 366.168C76.7162 365.333 82.4106 362.599 86.3336 357.953C88.4672 355.426 89.502 352.224 90.0249 350.064C90.3026 348.917 90.473 347.901 90.5749 347.167C90.9398 346.616 91.4616 345.831 92.1133 344.864C93.4676 342.854 95.379 340.058 97.6051 336.921C102.09 330.601 107.731 323.065 112.63 317.743C115.789 314.31 118.893 311.181 121.873 308.178C122.946 307.097 124.004 306.031 125.041 304.973C128.879 301.063 132.483 297.229 135.186 293.404C135.268 293.288 135.35 293.171 135.433 293.055C137.449 290.204 139.58 287.192 140.797 283.912C142.183 280.179 142.363 276.263 140.943 271.691C139.476 266.961 137.173 262.76 133.764 259.509C130.321 256.224 125.977 254.13 120.824 253.296C115.45 252.426 109.646 254.757 105.895 256.627C103.874 257.635 102.129 258.677 100.891 259.465C100.268 259.86 99.7667 260.196 99.4138 260.439C99.2372 260.56 99.0974 260.658 98.9978 260.728C98.948 260.764 98.9083 260.792 98.879 260.813L98.8429 260.839L98.8309 260.848L98.8264 260.851L98.8245 260.852C98.8237 260.853 98.8229 260.853 101.572 264.627Z" fill="url(#paint0_linear_1584_416)" stroke="#646464" stroke-width="9.33728"/>
<path d="M278.815 265.683L281.564 261.909L281.721 262.024L281.868 262.151L278.815 265.683ZM278.815 265.683C281.868 262.151 281.869 262.152 281.87 262.153L281.873 262.155L281.882 262.163L281.913 262.19L282.024 262.287C282.12 262.37 282.258 262.492 282.437 262.651C282.795 262.968 283.315 263.433 283.974 264.034C285.292 265.236 287.17 266.983 289.435 269.188C293.961 273.593 300.052 279.845 306.31 287.23C318.64 301.78 332.337 321.554 334.997 340.6C335.679 345.482 335.866 349.716 334.25 353.648C332.64 357.57 329.537 360.459 325.663 363.472C321.017 367.085 314.879 368.053 309.292 367.223C303.671 366.389 297.976 363.655 294.053 359.008C291.919 356.481 290.885 353.28 290.362 351.12C290.084 349.973 289.914 348.957 289.812 348.223C289.447 347.671 288.925 346.887 288.273 345.92C286.919 343.909 285.008 341.114 282.782 337.976C278.297 331.657 272.655 324.121 267.757 318.798C264.598 315.366 261.494 312.237 258.514 309.234C257.44 308.152 256.383 307.087 255.345 306.029C251.508 302.119 247.904 298.285 245.201 294.46C245.119 294.344 245.036 294.227 244.954 294.11C242.938 291.26 240.807 288.247 239.589 284.967C238.204 281.234 238.024 277.319 239.443 272.747C240.911 268.017 243.213 263.816 246.623 260.564C250.066 257.28 254.41 255.185 259.563 254.351C264.936 253.482 270.741 255.812 274.492 257.683C276.512 258.691 278.258 259.733 279.496 260.52C280.118 260.916 280.62 261.252 280.973 261.494C281.15 261.615 281.289 261.713 281.389 261.784C281.439 261.819 281.478 261.848 281.508 261.869L281.544 261.895L281.556 261.903L281.56 261.907L281.562 261.908C281.563 261.909 281.564 261.909 278.815 265.683Z" fill="url(#paint1_linear_1584_416)" stroke="#646464" stroke-width="9.33728"/>
<path d="M53.0169 39.9961C53.9572 35.913 57.9831 33.3844 62.0693 34.3112C72.975 36.7848 93.6688 41.7462 107.357 46.686C116.029 49.8154 126.459 54.3309 134.365 57.8926C139.796 60.3391 140.417 67.7087 135.535 71.1203L55.6206 126.959C50.4641 130.562 43.4252 126.884 43.5292 120.594C43.7248 108.759 44.1933 92.4787 45.3152 81.7835C46.7084 68.5006 50.6964 50.0721 53.0169 39.9961Z" fill="#646464"/>
<path d="M59.9273 50.607C60.7817 46.336 65.0117 43.6928 69.23 44.7778C79.4975 47.419 97.8093 52.3861 110.085 57.1828C117.967 60.2629 127.437 64.6374 134.718 68.1304C140.006 70.6676 140.532 77.8995 135.731 81.27L65.3761 130.666C60.2921 134.235 53.3182 130.706 53.2695 124.495C53.183 113.448 53.2487 98.5173 54.0186 88.6728C54.9585 76.6543 58.013 60.1767 59.9273 50.607Z" fill="#E7D0BD"/>
<path d="M331.573 47.3642C330.601 43.5016 326.844 41.0718 322.92 41.7587C312.341 43.6107 291.932 47.4371 278.495 51.5619C270.439 54.0348 260.836 57.6373 253.293 60.602C247.64 62.8242 246.781 70.3564 251.718 73.8957L330.059 130.057C335.256 133.782 342.433 130.002 342.207 123.611C341.812 112.449 341.095 97.6613 339.867 87.7902C338.271 74.9556 334.001 57.01 331.573 47.3642Z" fill="#646464"/>
<path d="M325.402 57.4997C324.719 54.373 321.861 52.2522 318.673 52.5362C309.002 53.3977 288.777 55.5891 275.655 59.7426C267.836 62.217 258.274 66.7378 251.498 70.1668C247.346 72.2679 246.867 77.895 250.51 80.7895L320.667 136.523C324.641 139.681 330.488 137.303 331.002 132.253C332.074 121.704 333.269 106.296 332.318 96.869C331.043 84.234 327.339 66.3565 325.402 57.4997Z" fill="#E7D0BD"/>
<path d="M96.0024 270.292L92.1622 267.637L91.6493 268.379L91.4496 269.258L96.0024 270.292ZM96.0024 270.292C92.1622 267.637 92.1632 267.636 92.1642 267.634L92.1664 267.631L92.1715 267.624L92.1844 267.605L92.2209 267.553C92.25 267.512 92.2885 267.458 92.3363 267.393C92.4318 267.261 92.5646 267.082 92.7326 266.864C93.0681 266.428 93.548 265.831 94.1572 265.139C95.3633 263.77 97.1364 261.964 99.3568 260.318C103.695 257.1 110.736 253.841 118.557 257.505C142.863 268.892 172.688 274.053 199.96 273.748C227.42 273.441 251.311 267.61 264.279 257.984C267.777 255.388 271.72 255.75 274.74 256.837C277.694 257.9 280.444 259.855 282.641 261.706C284.893 263.605 286.859 265.651 288.244 267.194C288.942 267.973 289.507 268.639 289.901 269.116C290.099 269.355 290.254 269.548 290.364 269.684C290.419 269.753 290.462 269.807 290.493 269.847L290.53 269.895L290.542 269.91L290.546 269.915L290.548 269.917C290.549 269.918 290.549 269.919 286.861 272.782M96.0024 270.292C91.4496 269.258 91.4495 269.259 91.4494 269.259L91.449 269.261L91.4478 269.266L91.4435 269.285L91.4275 269.356C91.4136 269.418 91.3932 269.509 91.3668 269.628C91.314 269.865 91.237 270.213 91.139 270.662C90.9429 271.561 90.6624 272.867 90.3226 274.504C89.643 277.777 88.7248 282.382 87.7679 287.717C85.8614 298.346 83.7723 312.033 83.1467 323.889L83.1407 324.003C82.0412 344.842 80.9675 365.191 91.9327 384.698C94.7842 389.771 100.861 393.152 107.353 395.574C114.11 398.095 122.485 399.99 131.364 401.408C149.152 404.25 169.686 405.287 185.018 405.287H185.243C205.047 405.287 227.175 405.287 245.843 402.355C255.228 400.881 263.997 398.631 271.286 395.121C278.595 391.601 284.69 386.675 288.223 379.736C298.967 358.633 298.019 344.28 296.56 322.167C296.528 321.688 296.496 321.205 296.464 320.718C295.709 309.23 294.464 297.087 293.411 287.838C292.884 283.208 292.404 279.293 292.055 276.533C291.881 275.153 291.74 274.062 291.642 273.314C291.592 272.94 291.554 272.652 291.528 272.457L291.498 272.234L291.491 272.177L291.489 272.162L291.488 272.158L291.488 272.156C291.488 272.156 291.488 272.156 286.861 272.782M286.861 272.782L290.549 269.919L291.32 270.911L291.488 272.156L286.861 272.782Z" fill="#E7D0BD" stroke="#646464" stroke-width="9.33728"/>
<path d="M346.147 183.818C345.177 254.402 317.079 280.585 189.098 286.257C71.8191 279.972 37.1742 249.839 38.1445 179.255C93.6993 227.491 124.864 243.773 189.1 246.377C257.164 249.136 298.497 239.503 346.147 183.818Z" fill="#E7D0BD"/>
<path d="M148.114 263.777C148.114 263.777 189.166 258.522 229.223 263.777C237.816 264.905 246.601 265.801 250.247 270.879C257.207 280.575 246.07 291.618 235.9 297.865C225.956 303.972 210.257 309.203 192.859 309.369C174.818 309.541 160.188 304.398 148.114 297.865C137.523 292.134 126.187 280.668 133.199 270.879C136.956 265.635 148.114 263.777 148.114 263.777Z" fill="#E1C8B4"/>
<path d="M232.266 247.089C232.266 247.089 194.686 254.959 157.994 247.194C150.124 245.529 142.077 244.207 138.728 236.658C132.334 222.244 142.508 205.803 151.809 196.497C160.901 187.399 175.266 179.597 191.197 179.328C207.717 179.048 221.124 186.68 232.194 196.383C241.904 204.894 252.309 221.935 245.909 236.505C242.48 244.311 232.266 247.089 232.266 247.089Z" fill="#F4E6DB"/>
<path d="M191.223 196.801C190.627 196.84 188.4 196.841 188.959 195.615C189.352 194.751 191.847 195.062 191.654 196.127C191.446 197.267 189.401 196.913 188.662 196.855C187.522 196.765 186.704 196.939 186.627 195.561C186.481 192.934 189.568 193.964 191.29 194.348C191.996 194.505 194.731 194.91 194.888 196.154C194.96 196.721 194.033 197.302 193.594 197.421C192.653 197.675 191.939 196.986 191.061 196.855C190.644 196.792 187.58 197.069 188.029 196.086C188.667 194.689 190.665 193.568 192.072 194.254C192.612 194.517 193.241 194.567 192.786 195.022C192.145 195.663 191.856 196.618 191.344 197.353C190.222 198.963 188.013 196.708 187.18 195.75C185.884 194.26 186.635 193.367 188.312 193.459C189.413 193.519 193.249 193.193 193.837 194.321C194.031 194.693 194.725 197.309 194.39 197.528C193.614 198.036 191.829 197.043 191.25 196.72C190.62 196.369 189.711 195.726 189.255 195.103C187.973 193.35 189.642 195.455 189.282 194.375" stroke="#F5BEA8" stroke-width="2.48994" stroke-linecap="round"/>
<path d="M131.372 181.985C127.365 181.985 124.025 179.59 124.025 184.515C124.025 186.487 128.91 191.727 130.229 188.148C132.606 181.695 123.372 180.095 123.372 184.189C123.372 186.814 128.077 188.801 129.862 186.719C132.771 183.324 124.709 180.634 124.025 182.311C122.698 185.57 131.053 192.182 131.943 184.842C132.317 181.758 128.082 182.691 126.148 182.72C114.559 182.89 130.637 195.544 130.637 186.393" stroke="#646464" stroke-width="3.76962" stroke-linecap="round"/>
<path d="M258.52 181.985C254.513 181.985 251.174 179.59 251.174 184.515C251.174 186.487 256.059 191.727 257.377 188.148C259.755 181.695 250.521 180.095 250.521 184.189C250.521 186.814 255.225 188.801 257.01 186.719C259.92 183.324 251.857 180.634 251.174 182.311C249.846 185.57 258.202 192.182 259.092 184.842C259.465 181.758 255.23 182.691 253.296 182.72C241.707 182.89 257.786 195.544 257.786 186.393" stroke="#646464" stroke-width="3.76962" stroke-linecap="round"/>
<ellipse cx="158.022" cy="100.346" rx="6.93609" ry="18.7727" fill="#C5A78D"/>
<ellipse cx="226.628" cy="100.346" rx="6.93609" ry="18.7727" fill="#C5A78D"/>
<ellipse cx="6.49176" cy="18.7724" rx="6.49176" ry="18.7724" transform="matrix(-0.0178599 -0.99984 0.999878 -0.0156449 89.5859 371.997)" fill="#C5A78D"/>
<ellipse cx="6.49176" cy="18.7724" rx="6.49176" ry="18.7724" transform="matrix(-0.0178599 -0.99984 0.999878 -0.0156449 87.0859 352.532)" fill="#C5A78D"/>
<ellipse cx="6.49176" cy="18.7724" rx="6.49176" ry="18.7724" transform="matrix(-0.0178599 -0.99984 0.999878 -0.0156449 251.832 371.997)" fill="#C5A78D"/>
<ellipse cx="6.49176" cy="18.7724" rx="6.49176" ry="18.7724" transform="matrix(-0.0178599 -0.99984 0.999878 -0.0156449 255.512 352.528)" fill="#C5A78D"/>
<ellipse cx="189.987" cy="98.3104" rx="6.93609" ry="25.181" fill="#C5A78D"/>
<path d="M172.047 207.521C173.706 208.457 173.781 209.286 177.927 209.286C179.511 209.286 182.944 208.558 183.959 208.155C185.211 207.658 186.507 206.776 187.352 206.226C188.127 205.722 188.71 205.181 189.312 204.763C189.899 204.355 191.016 204.418 191.498 204.763C192.383 205.395 193.383 206.377 194.137 206.949C196.061 207.775 196.146 208.727 198.359 209.286C200.33 209.784 203.368 209.757 205.37 209.286C207.372 208.816 207.914 207.999 209.441 207.521" stroke="#676564" stroke-width="5.43277" stroke-linecap="round"/>
<defs>
<linearGradient id="paint0_linear_1584_416" x1="131.063" y1="263.31" x2="52.3095" y2="354.276" gradientUnits="userSpaceOnUse">
<stop offset="0.725" stop-color="#E7D0BD"/>
<stop offset="0.845" stop-color="#F4E6DB"/>
</linearGradient>
<linearGradient id="paint1_linear_1584_416" x1="249.324" y1="264.366" x2="328.077" y2="355.332" gradientUnits="userSpaceOnUse">
<stop offset="0.77" stop-color="#E7D0BD"/>
<stop offset="0.85" stop-color="#F4E6DB"/>
</linearGradient>
</defs>
</svg>
