<svg width="116" height="104" viewBox="0 0 116 104" fill="none" xmlns="http://www.w3.org/2000/svg">
<mask id="mask0_631_7795" style="mask-type:luminance" maskUnits="userSpaceOnUse" x="1" y="41" width="115" height="62">
<path d="M112.725 80.2299C110.692 70.5719 109.866 66.6324 110.247 56.9743C110.755 43.3132 103.004 41.3434 99.064 42.1059C94.4891 42.9955 83.4332 56.2753 76.6979 64.8533C71.4876 63.1377 63.8628 59.8336 58.4619 53.7973C58.3984 53.8608 58.3348 53.9244 58.2078 54.0514C58.1442 53.9879 58.0171 53.8608 57.9536 53.7973C52.5527 59.8336 44.9279 63.1377 39.7176 64.8533C32.9824 56.2118 21.9264 42.9319 17.3515 42.1059C13.412 41.3434 5.72369 43.3767 6.16847 56.9743C6.54971 66.6324 5.72369 70.5719 3.69041 80.2299C0.322787 96.3691 0.640476 102.405 10.1715 102.405C19.7025 102.405 46.5164 102.405 58.0807 102.405H58.2078C69.772 102.405 94.4891 102.405 106.117 102.405C117.745 102.405 115.966 96.3691 112.598 80.2299H112.725Z" fill="white"/>
</mask>
<g mask="url(#mask0_631_7795)">
<path d="M116.092 101.832H0.449219V102.404H116.092V101.832Z" fill="white"/>
<path d="M116.092 101.262H0.449219V101.834H116.092V101.262Z" fill="white"/>
<path d="M116.092 100.688H0.449219V101.259H116.092V100.688Z" fill="white"/>
<path d="M116.092 100.117H0.449219V100.689H116.092V100.117Z" fill="white"/>
<path d="M116.092 99.5469H0.449219V100.119H116.092V99.5469Z" fill="white"/>
<path d="M116.092 98.9727H0.449219V99.5445H116.092V98.9727Z" fill="white"/>
<path d="M116.092 98.4023H0.449219V98.9742H116.092V98.4023Z" fill="white"/>
<path d="M116.092 97.8281H0.449219V98.4H116.092V97.8281Z" fill="white"/>
<path d="M116.092 97.1953H0.449219V97.7672H116.092V97.1953Z" fill="white"/>
<path d="M116.092 96.625H0.449219V97.1969H116.092V96.625Z" fill="white"/>
<path d="M116.092 96.0508H0.449219V96.6226H116.092V96.0508Z" fill="white"/>
<path d="M116.092 95.4805H0.449219V96.0523H116.092V95.4805Z" fill="white"/>
<path d="M116.092 94.9062H0.449219V95.4781H116.092V94.9062Z" fill="white"/>
<path d="M116.092 94.3359H0.449219V94.9078H116.092V94.3359Z" fill="white"/>
<path d="M116.092 93.7656H0.449219V94.3375H116.092V93.7656Z" fill="white"/>
<path d="M116.092 93.1953H0.449219V93.7672H116.092V93.1953Z" fill="white"/>
<path d="M116.092 92.6211H0.449219V93.193H116.092V92.6211Z" fill="white"/>
<path d="M116.092 92.0469H0.449219V92.6187H116.092V92.0469Z" fill="white"/>
<path d="M116.092 91.4766H0.449219V92.0484H116.092V91.4766Z" fill="white"/>
<path d="M116.092 90.9062H0.449219V91.4781H116.092V90.9062Z" fill="white"/>
<path d="M116.092 90.3359H0.449219V90.9078H116.092V90.3359Z" fill="white"/>
<path d="M116.092 89.6953H0.449219V90.2672H116.092V89.6953Z" fill="white"/>
<path d="M116.092 89.125H0.449219V89.6969H116.092V89.125Z" fill="white"/>
<path d="M116.092 88.5547H0.449219V89.1265H116.092V88.5547Z" fill="white"/>
<path d="M116.092 87.9844H0.449219V88.5562H116.092V87.9844Z" fill="white"/>
<path d="M116.092 87.4102H0.449219V87.982H116.092V87.4102Z" fill="white"/>
<path d="M116.092 86.8359H0.449219V87.4078H116.092V86.8359Z" fill="white"/>
<path d="M116.092 86.2656H0.449219V86.8375H116.092V86.2656Z" fill="white"/>
<path d="M116.092 85.6953H0.449219V86.2672H116.092V85.6953Z" fill="white"/>
<path d="M116.092 85.1211H0.449219V85.693H116.092V85.1211Z" fill="white"/>
<path d="M116.092 84.5508H0.449219V85.1226H116.092V84.5508Z" fill="white"/>
<path d="M116.092 83.9766H0.449219V84.5484H116.092V83.9766Z" fill="white"/>
<path d="M116.092 83.4062H0.449219V83.9781H116.092V83.4062Z" fill="white"/>
<path d="M116.092 82.8359H0.449219V83.4078H116.092V82.8359Z" fill="white"/>
<path d="M116.092 82.2617H0.449219V82.8336H116.092V82.2617Z" fill="white"/>
<path d="M116.092 81.6289H0.449219V82.2008H116.092V81.6289Z" fill="white"/>
<path d="M116.092 81.0547H0.449219V81.6266H116.092V81.0547Z" fill="white"/>
<path d="M116.092 80.4844H0.449219V81.0562H116.092V80.4844Z" fill="#FFFFFD"/>
<path d="M116.092 79.9141H0.449219V80.4859H116.092V79.9141Z" fill="#FFFFFD"/>
<path d="M116.092 79.3398H0.449219V79.9117H116.092V79.3398Z" fill="#FFFFFD"/>
<path d="M116.092 78.7695H0.449219V79.3414H116.092V78.7695Z" fill="#FFFFFD"/>
<path d="M116.092 78.1953H0.449219V78.7672H116.092V78.1953Z" fill="#FFFDFD"/>
<path d="M116.092 77.625H0.449219V78.1969H116.092V77.625Z" fill="#FFFDFD"/>
<path d="M116.092 77.0547H0.449219V77.6265H116.092V77.0547Z" fill="#FFFDFD"/>
<path d="M116.092 76.4805H0.449219V77.0523H116.092V76.4805Z" fill="#FFFDFD"/>
<path d="M116.092 75.9102H0.449219V76.482H116.092V75.9102Z" fill="#FFFDFD"/>
<path d="M116.092 75.3359H0.449219V75.9078H116.092V75.3359Z" fill="#FFFDFC"/>
<path d="M116.092 74.7656H0.449219V75.3375H116.092V74.7656Z" fill="#FDFDFC"/>
<path d="M116.092 74.1953H0.449219V74.7672H116.092V74.1953Z" fill="#FDFDFC"/>
<path d="M116.092 73.5586H0.449219V74.1305H116.092V73.5586Z" fill="#FDFDFC"/>
<path d="M116.092 72.9844H0.449219V73.5562H116.092V72.9844Z" fill="#FDFCFC"/>
<path d="M116.092 72.4141H0.449219V72.9859H116.092V72.4141Z" fill="#FDFCFB"/>
<path d="M116.092 71.8438H0.449219V72.4156H116.092V71.8438Z" fill="#FDFCFB"/>
<path d="M116.092 71.2734H0.449219V71.8453H116.092V71.2734Z" fill="#FDFCFB"/>
<path d="M116.092 70.6992H0.449219V71.2711H116.092V70.6992Z" fill="#FDFCFB"/>
<path d="M116.092 70.125H0.449219V70.6969H116.092V70.125Z" fill="#FDFCFA"/>
<path d="M116.092 69.5547H0.449219V70.1265H116.092V69.5547Z" fill="#FFFBFA"/>
<path d="M116.092 68.9844H0.449219V69.5562H116.092V68.9844Z" fill="#FFFBF9"/>
<path d="M116.092 68.4141H0.449219V68.9859H116.092V68.4141Z" fill="#FCFBF9"/>
<path d="M116.092 67.8398H0.449219V68.4117H116.092V67.8398Z" fill="#FCFBF9"/>
<path d="M116.092 67.2656H0.449219V67.8375H116.092V67.2656Z" fill="#FDFAF8"/>
<path d="M116.092 66.6953H0.449219V67.2672H116.092V66.6953Z" fill="#FDFAF8"/>
<path d="M116.092 66.125H0.449219V66.6969H116.092V66.125Z" fill="#FDFAF7"/>
<path d="M116.092 65.4883H0.449219V66.0601H116.092V65.4883Z" fill="#FDF9F7"/>
<path d="M116.092 64.918H0.449219V65.4898H116.092V64.918Z" fill="#FCF9F6"/>
<path d="M116.092 64.3438H0.449219V64.9156H116.092V64.3438Z" fill="#FCF8F5"/>
<path d="M116.092 63.7734H0.449219V64.3453H116.092V63.7734Z" fill="#FCF8F5"/>
<path d="M116.092 63.2031H0.449219V63.775H116.092V63.2031Z" fill="#FDF7F4"/>
<path d="M116.092 62.6289H0.449219V63.2008H116.092V62.6289Z" fill="#FDF7F3"/>
<path d="M116.092 62.0586H0.449219V62.6305H116.092V62.0586Z" fill="#FCF6F2"/>
<path d="M116.092 61.4844H0.449219V62.0562H116.092V61.4844Z" fill="#FCF6F1"/>
<path d="M116.092 60.9141H0.449219V61.4859H116.092V60.9141Z" fill="#FCF5F0"/>
<path d="M116.092 60.3438H0.449219V60.9156H116.092V60.3438Z" fill="#FBF5F0"/>
<path d="M116.092 59.7695H0.449219V60.3414H116.092V59.7695Z" fill="#FBF4EE"/>
<path d="M116.092 59.1992H0.449219V59.7711H116.092V59.1992Z" fill="#FBF3ED"/>
<path d="M116.092 58.625H0.449219V59.1969H116.092V58.625Z" fill="#FAF3EC"/>
<path d="M116.092 57.9922H0.449219V58.564H116.092V57.9922Z" fill="#FAF2EB"/>
<path d="M116.092 57.4219H0.449219V57.9937H116.092V57.4219Z" fill="#FBF1EA"/>
<path d="M116.092 56.8477H0.449219V57.4195H116.092V56.8477Z" fill="#FAF0E8"/>
<path d="M116.092 56.2773H0.449219V56.8492H116.092V56.2773Z" fill="#FAEFE7"/>
<path d="M116.092 55.7031H0.449219V56.275H116.092V55.7031Z" fill="#F9EEE6"/>
<path d="M116.092 55.1328H0.449219V55.7047H116.092V55.1328Z" fill="#FAEEE4"/>
<path d="M116.092 54.5625H0.449219V55.1344H116.092V54.5625Z" fill="#F9EDE2"/>
<path d="M116.092 53.9883H0.449219V54.5601H116.092V53.9883Z" fill="#F9ECE1"/>
<path d="M116.092 53.4141H0.449219V53.9859H116.092V53.4141Z" fill="#F8EBDF"/>
<path d="M116.092 52.8438H0.449219V53.4156H116.092V52.8438Z" fill="#F8EADD"/>
<path d="M116.092 52.2734H0.449219V52.8453H116.092V52.2734Z" fill="#F8E8DB"/>
<path d="M116.092 51.7031H0.449219V52.275H116.092V51.7031Z" fill="#F7E7D9"/>
<path d="M116.092 51.1289H0.449219V51.7008H116.092V51.1289Z" fill="#F7E6D7"/>
<path d="M116.092 50.5547H0.449219V51.1265H116.092V50.5547Z" fill="#F7E4D4"/>
<path d="M116.092 49.9219H0.449219V50.4937H116.092V49.9219Z" fill="#F6E3D2"/>
<path d="M116.092 49.3516H0.449219V49.9234H116.092V49.3516Z" fill="#F6E1D0"/>
<path d="M116.092 48.7773H0.449219V49.3492H116.092V48.7773Z" fill="#F6DFCD"/>
<path d="M116.092 48.207H0.449219V48.7789H116.092V48.207Z" fill="#F5DECA"/>
<path d="M116.092 47.6328H0.449219V48.2047H116.092V47.6328Z" fill="#F4DCC7"/>
<path d="M116.092 47.0625H0.449219V47.6344H116.092V47.0625Z" fill="#F3DAC4"/>
<path d="M116.092 46.4922H0.449219V47.064H116.092V46.4922Z" fill="#F3D8C1"/>
<path d="M116.092 45.918H0.449219V46.4898H116.092V45.918Z" fill="#F2D6BE"/>
<path d="M116.092 45.3477H0.449219V45.9195H116.092V45.3477Z" fill="#F2D4BB"/>
<path d="M116.092 44.7734H0.449219V45.3453H116.092V44.7734Z" fill="#F1D2B7"/>
<path d="M116.092 44.2031H0.449219V44.775H116.092V44.2031Z" fill="#F1CFB4"/>
<path d="M116.092 43.6328H0.449219V44.2047H116.092V43.6328Z" fill="#F0CDB0"/>
<path d="M116.092 43.0586H0.449219V43.6305H116.092V43.0586Z" fill="#EECAAC"/>
<path d="M116.092 42.4883H0.449219V43.0601H116.092V42.4883Z" fill="#EEC8A8"/>
<path d="M116.092 41.8516H0.449219V42.4234H116.092V41.8516Z" fill="#EDC5A4"/>
</g>
<path d="M58.3975 103.359H58.2704C52.5518 103.359 43.7197 103.359 34.7606 103.359C25.5473 103.359 16.2704 103.359 10.3612 103.359C4.45198 103.359 4.3249 102.533 2.79994 100.69C0.00417643 97.2592 0.703119 90.8417 2.99056 80.1034C4.9603 70.5724 5.78632 66.6329 5.46862 57.1019C5.21446 50.6844 6.73941 46.1095 9.85288 43.3773C13.0934 40.5815 16.7152 41.0263 17.7954 41.2169C22.4338 42.1064 32.5367 53.8614 40.2886 63.8371C45.4989 62.058 52.4883 58.8175 57.4444 53.2895L58.1433 52.527L58.3975 52.7812L58.6516 52.527L59.3506 53.2895C64.3067 58.8175 71.2961 62.058 76.5064 63.8371C84.3218 53.8614 94.3611 42.1064 98.9996 41.2169C100.016 41.0263 103.702 40.5815 106.942 43.3773C110.056 46.0459 111.58 50.6844 111.326 57.1019C111.009 66.6329 111.835 70.5724 113.804 80.1034C116.028 90.8417 116.727 97.3227 113.995 100.69C112.47 102.533 110.119 103.359 106.434 103.359C100.525 103.359 91.2477 103.359 82.0344 103.359C73.0752 103.359 64.2431 103.359 58.5245 103.359H58.3975ZM16.0798 42.9325C14.4913 42.9325 12.6487 43.4408 11.0602 44.7751C8.39147 47.0626 7.12066 51.2562 7.37482 56.9748C7.75606 66.76 6.8665 70.763 4.83322 80.4846C2.79994 90.1427 2.03746 96.6873 4.26136 99.4831C5.34154 100.817 7.31129 101.453 10.3612 101.453C16.2704 101.453 25.5473 101.453 34.7606 101.453C43.7197 101.453 52.5518 101.453 58.2704 101.453H58.3975C64.1161 101.453 72.9481 101.453 81.9073 101.453C91.1206 101.453 100.397 101.453 106.307 101.453C112.216 101.453 111.263 100.817 112.407 99.4831C114.694 96.6873 113.868 90.1427 111.835 80.4846C109.801 70.8266 108.975 66.8235 109.293 56.9748C109.484 51.2562 108.213 47.0626 105.608 44.7751C103.574 42.996 101.033 42.7419 99.3173 43.0596C96.1403 43.695 88.1977 51.8281 77.523 65.4892L77.1418 65.9975L76.5064 65.8069C71.2326 64.0913 63.989 60.8508 58.5881 55.2592L58.3339 55.5134L58.0798 55.2592C52.6789 60.8508 45.4353 64.0913 40.1615 65.8069L39.5261 65.9975L39.1448 65.4892C28.4701 51.8281 20.5912 43.695 17.3506 43.0596C16.9694 42.996 16.5246 42.9325 16.0798 42.9325Z" fill="#BAA69A"/>
<path d="M107.706 72.8606C105.672 64.0285 106.625 56.2131 102.686 52.909C97.3485 48.3977 90.931 53.2903 87.4998 57.4839C82.7979 63.3296 78.6042 69.4294 75.2366 77.372C73.0763 82.4552 66.0233 87.1571 62.2109 79.0875C60.7495 76.1011 59.5422 66.8878 58.2714 66.8878C57.0006 66.8878 55.6027 76.1011 54.2049 79.0875C50.3289 87.1571 43.3395 82.4552 41.1792 77.372C37.8115 69.4294 33.6179 63.3296 28.9159 57.4839C25.5483 53.2903 19.0672 48.3977 13.7298 52.909C9.79037 56.2131 10.7435 64.0285 8.71019 72.8606C6.99461 80.2313 4.77071 88.6821 4.89779 94.2101C4.89779 97.4506 5.59673 102.343 10.2987 102.343C25.04 102.343 54.2049 102.343 58.2079 102.343C62.2744 102.343 91.4393 102.343 106.117 102.343C120.795 102.343 111.454 97.4506 111.518 94.2101C111.645 88.6821 109.358 80.2313 107.706 72.8606Z" fill="white"/>
<path d="M68.6916 103.296C63.4813 103.296 59.5418 103.296 58.2075 103.296C55.4753 103.296 41.6235 103.296 28.1531 103.296C21.5449 103.296 15.1273 103.296 10.2348 103.296C5.34217 103.296 4.07137 101.707 3.88075 94.2094C3.81721 89.4439 5.40572 82.7086 6.93068 76.164C7.18484 74.9568 7.50254 73.813 7.7567 72.6058C8.45564 69.6194 8.77334 66.6965 9.09104 64.0914C9.6629 59.0082 10.2348 54.5604 13.0941 52.1459C14.8732 50.6209 16.97 49.922 19.1939 50.1761C24.2136 50.6845 28.4072 55.3864 29.6145 56.8478C33.681 61.8675 38.3194 68.158 42.0048 76.9265C43.1485 79.5952 45.8807 82.3274 48.6129 82.3909C48.6129 82.3909 48.6129 82.3909 48.6765 82.3909C50.5191 82.3909 52.1077 81.1201 53.3149 78.5785C53.8868 77.3713 54.4586 75.0203 55.0305 72.7329C56.3013 67.7767 56.8096 65.807 58.2075 65.807C59.6054 65.807 60.1772 67.7767 61.3209 72.7329C61.8928 75.0203 62.4011 77.3713 62.973 78.5785C64.1802 81.1201 65.7052 82.3909 67.6114 82.3909C69.5176 82.3909 67.6114 82.3909 67.6749 82.3909C70.4072 82.3909 73.1394 79.5316 74.2831 76.9265C77.9684 68.158 82.6069 61.8675 86.6734 56.8478C87.8171 55.3864 92.0108 50.6209 97.094 50.1761C99.3179 49.9855 101.415 50.6209 103.194 52.1459C106.053 54.5604 106.561 59.0082 107.197 64.0914C107.515 66.6965 107.832 69.6194 108.531 72.6058C108.785 73.7495 109.103 74.9568 109.357 76.164C110.882 82.7086 112.471 89.4439 112.407 94.2094C112.28 101.707 108.912 103.296 106.053 103.296C101.161 103.296 94.743 103.296 88.1348 103.296C81.209 103.296 74.156 103.296 68.5645 103.296H68.6916ZM58.2075 101.389C60.9397 101.389 74.7914 101.389 88.2619 101.389C94.8701 101.389 101.288 101.389 106.18 101.389C111.073 101.389 110.437 101.389 110.628 94.2094C110.692 89.698 109.167 83.0263 107.642 76.6088C107.387 75.4015 107.07 74.1943 106.816 73.0506C106.117 69.9371 105.735 66.9507 105.418 64.3456C104.846 59.453 104.401 55.577 102.114 53.6073C100.716 52.4 99.1273 51.8917 97.4117 52.0823C93.091 52.4636 89.3421 56.7843 88.3255 58.0551C84.386 62.9477 79.8111 69.1111 76.1893 77.689C74.855 80.9295 71.5509 84.2336 67.8656 84.2971C66.0229 84.2971 63.3542 83.5347 61.3845 79.4046C60.7491 78.0067 60.1772 75.5922 59.6054 73.1776C59.2241 71.6527 58.7794 69.5559 58.3346 68.4121C57.8898 69.5559 57.3815 71.7162 57.0002 73.2412C56.4284 75.5922 55.793 78.0702 55.1576 79.4046C53.1878 83.5347 50.5827 84.3607 48.6765 84.2971C45.0547 84.2336 41.7506 80.9295 40.3527 77.689C36.7309 69.1111 32.2196 62.9477 28.2166 58.0551C27.1364 56.7843 23.3875 52.4636 19.1304 52.0823C17.4148 51.8917 15.8263 52.4636 14.4284 53.6073C12.141 55.577 11.6962 59.453 11.1243 64.3456C10.8066 67.0142 10.4889 70.0006 9.72644 73.0506C9.47228 74.1943 9.15457 75.4015 8.90041 76.6088C7.37545 83.0263 5.8505 89.6345 5.91404 94.2094C6.04112 101.389 9.28166 101.389 10.3618 101.389C15.2544 101.389 21.672 101.389 28.2801 101.389C41.6871 101.389 55.6023 101.389 58.3346 101.389H58.2075Z" fill="#BAA69A"/>
<path d="M92.9631 17.5778C92.0736 13.3842 90.4851 9.2541 87.5622 6.14064C82.3519 0.676194 74.2188 -0.213367 67.293 1.94699C64.4337 2.83655 61.6379 4.10736 58.588 4.23444C55.538 4.10736 52.7423 2.90009 49.883 1.94699C42.9571 -0.213367 34.7604 0.676194 29.6137 6.14064C26.6909 9.2541 25.1024 13.3842 24.2128 17.5778C21.9889 27.9349 23.6409 39.0544 28.5335 48.4583C31.9647 55.0665 36.7937 60.7851 40.6061 67.2026C42.2582 69.9984 46.706 85.0574 52.0433 78.7034C52.9329 77.6867 53.3141 76.4159 53.6954 75.1451C54.4578 72.4129 55.2839 69.8078 56.0464 67.0755C56.4276 65.7412 57.1265 63.6444 58.5244 63.6444C59.9223 63.6444 60.4942 65.6141 60.8754 66.9485C61.6379 69.6807 62.4639 72.3494 63.2264 75.0816C63.6076 76.3524 63.9889 77.6867 64.8784 78.7034C70.2158 85.0574 75.0448 70.0619 76.6969 67.2026C80.4457 60.7851 85.3383 55.0665 88.7695 48.4583C93.6621 39.0544 95.3141 27.9349 93.0902 17.5778H92.9631Z" fill="white"/>
<path d="M49.2477 81.1837C49.0571 81.1837 48.93 81.1837 48.7394 81.1837C45.4989 80.6754 43.1479 75.7828 40.8605 70.3184C40.3521 69.1747 39.9709 68.158 39.6532 67.7133C38.0647 64.981 36.1585 62.2488 34.3794 59.6437C32.0284 56.2125 29.5503 52.7178 27.5806 48.9689C22.4974 39.1838 20.9089 27.9372 23.1963 17.4531C24.2765 12.3063 26.1192 8.4304 28.8514 5.5711C34.8242 -0.719365 43.7833 -0.846445 50.1373 1.1233C50.8362 1.31392 51.5352 1.56808 52.2341 1.82224C54.3945 2.58472 56.4278 3.28366 58.5881 3.3472C60.7485 3.28366 62.7818 2.58472 64.9421 1.82224C65.6411 1.56808 66.34 1.37746 67.0389 1.1233C73.3929 -0.846445 82.2886 -0.719365 88.3249 5.5711C90.9935 8.4304 92.8362 12.3063 93.9799 17.4531C96.2038 27.9372 94.6789 39.1202 89.5957 48.9689C87.6259 52.7178 85.2114 56.276 82.7969 59.6437C81.0178 62.2488 79.1116 64.9175 77.523 67.7133C77.2689 68.158 76.8241 69.1111 76.3793 70.1913C74.5367 74.385 71.7409 80.6754 68.0556 81.2473C66.6577 81.4379 65.3234 80.8025 64.1161 79.4046C63.0995 78.1974 62.6547 76.7359 62.2734 75.4016L59.9225 67.2685C59.6683 66.3789 59.16 64.6633 58.5246 64.6633C57.8892 64.6633 57.6986 65.0446 56.9996 67.3956L55.8559 71.335C55.4747 72.7329 55.0299 74.0673 54.6486 75.4651C54.2674 76.863 53.7591 78.2609 52.806 79.4046C51.7258 80.6754 50.5821 81.3108 49.4384 81.3108L49.2477 81.1837ZM42.7031 1.82224C38.3189 1.82224 33.6804 3.15658 30.1857 6.8419C27.7712 9.3835 26.0556 13.0053 25.039 17.8343C22.9422 27.7466 24.4671 38.8025 29.2326 48.0794C31.1388 51.7647 33.5533 55.1959 35.9043 58.5635C37.747 61.1686 39.6532 63.9009 41.3052 66.7602C41.6229 67.332 42.0677 68.3487 42.6396 69.6195C44.0375 72.86 46.5791 78.9598 49.0571 79.3411C49.3113 79.3411 50.0738 79.4682 51.2175 78.1338C51.98 77.2443 52.3612 76.1005 52.6789 74.8933C53.0601 73.4954 53.5049 72.1611 53.8862 70.7632L55.0299 66.8237C55.4111 65.6164 56.2372 62.6936 58.3975 62.6936C60.5579 62.6936 61.1933 65.1717 61.638 66.6966L63.989 74.8297C64.3067 76.037 64.688 77.2443 65.4504 78.1338C66.5942 79.4682 67.4202 79.4046 67.6743 79.3411C70.2795 78.9598 73.0117 72.7329 74.4731 69.4288C74.9815 68.2851 75.4262 67.332 75.7439 66.7602C77.396 63.9009 79.3022 61.2322 81.1448 58.5635C83.4958 55.1959 85.9103 51.7647 87.8165 48.0794C92.6456 38.8025 94.1706 27.7466 92.0102 17.8343C90.9936 13.0053 89.278 9.44704 86.8634 6.8419C81.4625 1.18684 73.3294 1.05976 67.5473 2.90242C66.8483 3.09304 66.2129 3.3472 65.514 3.60136C63.2901 4.36384 61.0662 5.12632 58.5881 5.2534C56.1101 5.12632 53.8862 4.36384 51.6623 3.60136C50.9633 3.3472 50.3279 3.15658 49.629 2.90242C47.5957 2.26702 45.2447 1.88578 42.8302 1.88578L42.7031 1.82224Z" fill="#BAA69A"/>
<g opacity="0.4">
<path d="M94.2321 31.0497C93.7873 30.8591 92.1988 31.8122 90.928 32.3841C89.9114 32.8289 88.9583 33.4643 87.751 33.4007C85.1459 33.2737 83.6209 31.0497 81.4605 30.0966C76.568 27.9998 70.9764 33.2101 66.1474 33.7184C63.8599 33.9726 61.7631 34.1632 59.6663 34.7986C57.3153 35.4976 55.4727 36.133 53.1217 34.9892C50.1988 33.5914 46.0687 29.7789 42.8282 32.8924C41.3032 34.4174 41.4303 36.7048 38.5075 37.1496C35.8388 37.5308 35.0128 35.3705 33.2972 33.9091C31.0098 32.0029 25.4818 28.5717 22.7496 30.0966C20.2715 31.4945 22.9402 40.5808 23.512 41.9786C25.1005 45.791 26.3713 48.2056 28.7223 50.1753C29.6119 50.8107 35.6482 47.4431 36.919 46.4264C37.3002 46.1087 39.2064 44.8379 39.0793 44.7109C41.3032 46.2358 44.8615 45.664 47.5302 45.7275C50.453 45.791 53.6935 46.7441 56.2351 45.0286C57.1247 44.4567 57.5059 43.6307 58.2049 42.9317C59.4757 41.4068 62.2714 41.9151 63.6693 43.0588C65.512 44.5838 66.5922 43.8848 68.6254 43.2494C71.04 42.5505 71.04 43.2494 73.4545 43.3765C73.518 44.3296 75.043 46.9348 76.1867 47.3795C77.394 47.8879 81.9689 45.9817 83.3667 45.8546C85.2729 45.664 88.7041 47.1889 90.4197 46.3629C92.2624 45.4733 93.3425 43.0588 94.0415 41.4068C95.757 37.2767 96.2654 31.8122 94.4227 30.9862L94.2321 31.0497Z" fill="#E4C759"/>
</g>
</svg>
