<svg width="114" height="103" viewBox="0 0 114 103" fill="none" xmlns="http://www.w3.org/2000/svg">
<path d="M111.011 79.7222C108.992 70.1334 108.046 68.2409 105.522 58.9675C102.621 48.3063 99.2771 40.3578 95.429 39.2853C85.5248 36.5096 81.929 55.8764 75.2421 64.4559C70.0692 62.7526 62.4991 59.4722 57.1369 53.4792C57.0738 53.5423 57.0108 53.6054 56.8846 53.7316C56.8215 53.6685 56.6953 53.5423 56.6323 53.4792C51.2701 59.4722 43.7 62.7526 38.5271 64.4559C31.8402 55.8764 28.2444 36.5096 18.3402 39.2853C14.5552 40.3578 11.1487 48.3063 8.24678 58.9675C5.72342 68.2409 4.77716 70.1334 2.75847 79.7222C-0.584985 95.7456 -0.269564 101.739 9.19304 101.739C18.6557 101.739 45.2771 101.739 56.7584 101.739H56.8846C68.3659 101.739 92.9056 101.739 104.45 101.739C115.994 101.739 114.228 95.7456 110.885 79.7222H111.011Z" fill="white"/>
<path d="M57.0108 102.683H56.8846C51.144 102.683 42.1229 102.683 33.165 102.683C24.144 102.683 15.123 102.683 9.31923 102.683C3.5155 102.683 3.32625 101.863 1.81223 100.034C-0.963468 96.6274 -0.269543 90.2559 2.00148 79.5947C3.32625 73.2232 4.20942 70.2582 5.40802 66.2208C5.97578 64.2021 6.6697 61.9311 7.48979 58.84C10.9594 46.0339 14.366 39.5994 18.2141 38.5269C25.658 36.4452 29.6954 45.0877 33.6066 53.4148C35.3099 57.0106 37.0762 60.7956 39.0318 63.4451C44.2047 61.6788 51.144 58.4615 56.0645 52.9732L56.7584 52.2162L57.0108 52.4685L57.2 52.2162L57.957 52.9732C62.8776 58.4615 69.8168 61.6788 74.9897 63.4451C76.9453 60.7325 78.7117 57.0106 80.415 53.4148C84.3262 45.0246 88.3635 36.3821 95.8075 38.5269C99.6556 39.5994 103.062 46.097 106.532 58.84C107.352 61.9311 108.046 64.2652 108.614 66.2839C109.812 70.3213 110.695 73.2862 112.02 79.6577C114.228 90.3189 114.922 96.7535 112.209 100.097C110.695 101.926 108.361 102.746 104.702 102.746C98.8986 102.746 89.8776 102.746 80.8565 102.746C71.8355 102.746 62.8776 102.746 57.1369 102.746L57.0108 102.683ZM20.2959 39.9779C19.7912 39.9779 19.2234 40.0409 18.7188 40.2302C16.637 40.798 13.2935 44.583 9.31923 59.2185C8.49914 62.3727 7.80522 64.6437 7.17437 66.6624C5.97578 70.6998 5.15569 73.6017 3.83092 79.9101C1.81223 89.4988 1.05522 95.9965 3.26316 98.7722C4.33559 100.097 6.2912 100.728 9.31923 100.728C15.123 100.728 24.144 100.728 33.165 100.728C42.186 100.728 51.144 100.728 56.8846 100.728H57.0108C62.7514 100.728 71.7724 100.728 80.7304 100.728C89.7514 100.728 98.7724 100.728 104.576 100.728C110.38 100.728 109.497 100.097 110.632 98.7722C112.903 95.9965 112.083 89.4988 110.064 79.9101C108.74 73.6017 107.92 70.6998 106.721 66.6624C106.153 64.6437 105.459 62.3727 104.576 59.2185C100.602 44.583 97.2584 40.798 95.1766 40.2302C89.3098 38.59 85.7771 46.1601 81.9921 54.1087C80.1626 58.083 78.207 62.1835 75.936 65.0222L75.5575 65.5269L74.9267 65.3377C69.6907 63.6344 62.4991 60.4171 57.1369 54.8657L56.8846 55.118L56.6323 54.8657C51.2701 60.4171 44.0785 63.6344 38.8426 65.3377L38.2117 65.5269L37.8332 65.0222C35.5622 62.1204 33.6697 58.0199 31.7772 54.1087C28.3706 46.854 25.1533 39.9779 20.2328 39.9779H20.2959Z" fill="#BAA69A"/>
<path d="M106.279 72.4011C104.26 63.6324 102.494 54.296 98.0147 47.2306C93.0941 39.4712 90.0661 48.1768 87.9212 51.5203C85.7133 54.9268 82.3698 59.7843 80.4773 62.4969C77.1338 67.1651 74.4212 72.6535 73.475 74.8614C71.2039 80.2235 65.211 87.0997 61.1105 78.5203C59.5965 75.303 57.8932 66.0296 57.01 66.345C56.1269 66.0296 54.4236 75.3661 52.9096 78.5203C48.8091 87.0997 42.8161 80.2235 40.5451 74.8614C39.5988 72.7165 36.8862 67.1651 33.5428 62.4969C31.5872 59.7843 28.2437 54.9268 26.0988 51.5203C23.954 48.1768 20.926 39.5343 16.0054 47.2306C11.5264 54.2329 9.76008 63.6324 7.74139 72.4011C6.03812 79.7189 3.83018 88.109 3.95634 93.5974C3.95634 96.8146 4.65027 101.672 9.31849 101.672C24.0802 101.672 53.6035 101.672 57.0731 101.672C60.5427 101.672 90.003 101.672 104.828 101.672C119.653 101.672 110.127 96.8146 110.19 93.5974C110.316 88.109 108.045 79.7189 106.405 72.4011H106.279Z" fill="white"/>
<path d="M67.6083 102.621C62.1831 102.621 58.1457 102.621 57.0102 102.621C54.6761 102.621 40.6083 102.621 26.9822 102.621C20.4845 102.621 14.113 102.621 9.25555 102.621C4.39808 102.621 3.1364 101.044 2.94714 93.6001C2.88406 88.8688 4.46116 82.1818 5.97518 75.6842C6.22752 74.4856 6.54294 73.3501 6.79527 72.1515C6.98452 71.2683 7.23686 70.322 7.42611 69.4389C9.25555 61.4272 11.085 53.1632 15.1855 46.7286C16.7626 44.2683 18.2766 43.1328 19.9168 43.1328C22.5663 43.1959 24.3326 46.5394 25.7836 49.1258C26.1621 49.8197 26.4775 50.4506 26.7929 50.9552C28.9378 54.2987 32.2181 59.0931 34.2368 61.8688C37.6434 66.6001 40.356 72.1515 41.3653 74.4225C42.8163 77.829 45.7181 81.4879 48.1784 81.551C49.5663 81.551 50.891 80.4155 52.0265 78.0183C52.6574 76.6304 53.4144 73.9809 54.0452 71.5837C55.2438 67.0417 55.6854 65.8431 56.4424 65.4015C56.6317 65.2753 56.8209 65.2753 57.0102 65.2753C57.1994 65.2753 57.3887 65.2753 57.5779 65.4015C58.3349 65.8431 58.7135 67.0417 59.9751 71.5837C60.606 73.9809 61.363 76.6304 61.9938 78.0183C63.1293 80.3524 64.391 81.551 65.842 81.551C68.3022 81.551 71.2041 77.829 72.655 74.4225C73.6013 72.1515 76.377 66.6001 79.7835 61.8688C81.8022 59.0931 85.0826 54.2987 87.2274 50.9552C87.5429 50.4506 87.9214 49.8197 88.2368 49.1258C89.6877 46.4763 91.4541 43.1959 94.1036 43.1328C95.7438 43.1328 97.3209 44.2683 98.8349 46.7286C102.935 53.1632 104.765 61.4272 106.594 69.4389C106.784 70.3851 107.036 71.2683 107.225 72.1515C107.477 73.287 107.793 74.4856 108.045 75.6842C109.559 82.1818 111.136 88.8688 111.073 93.6001C110.947 101.044 107.604 102.621 104.765 102.621C99.9704 102.621 93.5989 102.621 87.0382 102.621C80.162 102.621 73.1597 102.621 67.6083 102.621ZM57.0102 100.729C59.3443 100.729 73.412 100.729 87.0382 100.729C93.5359 100.729 99.9073 100.729 104.765 100.729C109.622 100.729 108.991 100.729 109.181 93.6001C109.244 89.1211 107.73 82.4973 106.216 76.1258C105.963 74.9272 105.648 73.7286 105.396 72.5931C105.206 71.7099 104.954 70.7636 104.765 69.8805C102.998 62.058 101.169 53.9202 97.2578 47.7379C96.1223 45.9716 95.0499 45.0253 94.1667 45.0253C92.5896 45.0253 91.0125 47.9272 89.877 50.0721C89.4985 50.766 89.12 51.4599 88.8046 52.0277C86.6597 55.4342 83.3162 60.2286 81.2975 63.0674C77.9541 67.6725 75.3046 73.0347 74.3583 75.2426C73.0335 78.2706 69.8162 83.4435 65.842 83.5066C63.634 83.5066 61.7415 81.9926 60.2906 78.9015C59.5966 77.3875 58.8396 74.7379 58.1457 72.1515C57.7672 70.8267 57.3887 69.2496 57.0102 68.1772C56.6317 69.2496 56.2532 70.8898 55.8747 72.1515C55.1807 74.7379 54.4868 77.3875 53.7298 78.9015C52.2789 81.9926 50.3864 83.5066 48.1784 83.5066C44.2041 83.4435 40.9868 78.2706 39.6621 75.2426C38.7158 73.0347 36.0663 67.6725 32.7228 63.0674C30.7041 60.2286 27.3607 55.4342 25.2158 52.0277C24.8373 51.4599 24.5219 50.8291 24.1434 50.0721C23.0079 47.9903 21.4308 45.0884 19.8537 45.0253C18.9705 45.0253 17.8981 45.9085 16.7626 47.7379C12.8513 53.9202 11.0219 61.9949 9.25555 69.8805C9.0663 70.8267 8.81396 71.7099 8.62471 72.5931C8.37237 73.7286 8.05695 74.9272 7.80462 76.1258C6.2906 82.4973 4.77658 89.058 4.83967 93.6001C4.96583 100.729 8.18312 100.729 9.25555 100.729C14.0499 100.729 20.4214 100.729 26.9822 100.729C40.6083 100.729 54.6761 100.729 57.0102 100.729Z" fill="#BAA69A"/>
<path d="M91.3286 17.5165C90.4454 13.3529 88.8683 9.25245 85.9664 6.16133C80.7936 0.736102 72.6557 -0.147075 65.7795 1.99778C62.9408 2.88096 60.1651 4.14264 57.137 4.26881C54.109 4.14264 51.3333 2.94404 48.4945 1.99778C41.6184 -0.147075 33.4805 0.736102 28.3707 6.16133C25.4688 9.25245 23.8917 13.3529 23.0086 17.5165C20.8006 27.7992 22.4408 38.8389 27.2983 48.1753C30.7048 54.7361 35.4992 60.4136 39.2842 66.7851C40.9244 69.5608 45.3403 84.5117 50.6394 78.2033C51.5226 77.194 51.9011 75.9323 52.2796 74.6706C53.0366 71.958 53.8567 69.3716 54.6137 66.6589C54.9922 65.3342 55.6861 63.2524 57.0739 63.2524C58.4618 63.2524 59.0295 65.208 59.4081 66.5328C60.1651 69.2454 60.9852 71.8949 61.7422 74.6075C62.1207 75.8692 62.4992 77.194 63.3824 78.2033C68.6814 84.5117 73.4758 69.6239 75.116 66.7851C78.8379 60.4136 83.6954 54.7361 87.102 48.1753C91.9594 38.8389 93.5996 27.7992 91.3917 17.5165H91.3286Z" fill="white"/>
<path d="M47.989 80.6642C47.7997 80.6642 47.6736 80.6642 47.4843 80.6642C44.267 80.1596 41.9329 75.3021 39.6619 69.8769C39.1572 68.7414 38.7787 67.732 38.4633 67.2904C36.8862 64.5778 34.9937 61.8652 33.2273 59.2787C30.8932 55.8722 28.4329 52.4026 26.4773 48.6806C21.4306 38.9657 19.8535 27.7998 22.1245 17.3909C23.197 12.2811 25.0264 8.43299 27.739 5.5942C33.6058 -0.714204 42.5007 -0.840371 48.8091 1.11523C49.503 1.30449 50.1969 1.55682 50.8909 1.80916C53.0357 2.56617 55.0544 3.26009 57.1993 3.32318C59.3441 3.26009 61.3628 2.56617 63.5077 1.80916C64.2016 1.55682 64.8955 1.36757 65.5894 1.11523C71.8979 -0.840371 80.7296 -0.714203 86.7226 5.53112C89.3721 8.3699 91.2016 12.218 92.3371 17.3278C94.545 27.7367 93.031 38.9026 87.9843 48.6175C86.0287 52.3395 83.6315 55.8722 81.2343 59.2157C79.4679 61.8021 77.5754 64.4516 75.9983 67.2273C75.746 67.6689 75.3044 68.6152 74.8628 69.6876C73.0334 73.8512 70.2577 80.0965 66.5988 80.6642C65.2109 80.8535 63.8862 80.2226 62.6876 78.8348C61.6782 77.6362 61.2366 76.1853 60.8581 74.8605L58.524 66.7857C58.2717 65.9026 57.767 64.1993 57.1362 64.1993C56.5053 64.1993 56.3161 64.5778 55.6222 66.9119C55.2437 68.2367 54.8652 69.5614 54.4236 70.8862C54.0451 72.211 53.6666 73.5357 53.225 74.8605C52.8465 76.1853 52.3418 77.6362 51.3955 78.7717C50.3231 80.0334 49.1876 80.6642 48.0521 80.6642H47.989ZM41.4282 1.87224C37.0754 1.87224 32.4703 3.19701 29.0007 6.85588C26.6035 9.37925 24.9002 12.975 23.8909 17.7694C21.8091 27.6105 23.3231 38.5872 28.0544 47.7974C29.947 51.4563 32.3441 54.8629 34.6783 58.2063C36.5077 60.7928 38.4002 63.5054 40.0404 66.3442C40.3558 66.9119 40.7974 67.9213 41.3652 69.1829C42.753 72.4002 45.2764 78.4563 47.7367 78.8348C47.989 78.8348 48.746 78.961 49.8815 77.6362C50.6385 76.753 51.017 75.6175 51.3324 74.4189C51.711 73.0941 52.0895 71.7694 52.531 70.4446C52.9095 69.1199 53.2881 67.7951 53.7296 66.4703C54.1081 65.2717 54.9282 62.3699 57.0731 62.3699C59.218 62.3699 59.8488 64.8301 60.2904 66.3442L62.6245 74.4189C62.9399 75.6175 63.3184 76.8161 64.0754 77.6993C65.2109 79.024 66.031 78.961 66.2834 78.8979C68.8698 78.5194 71.5824 72.3371 73.0334 69.0568C73.538 67.9213 73.9796 66.975 74.295 66.4072C75.9352 63.5685 77.8278 60.9189 79.6572 58.2694C81.9913 54.9259 84.3885 51.5194 86.281 47.8605C91.0754 38.6503 92.5894 27.6736 90.4446 17.8325C89.4352 13.0381 87.732 9.50541 85.3348 6.91897C79.9726 1.30449 71.8979 1.17832 66.1572 3.00776C65.4633 3.19701 64.8324 3.44934 64.1385 3.70168C61.9306 4.45869 59.7226 5.2157 57.2624 5.34187C54.8021 5.2157 52.5941 4.45869 50.3862 3.70168C49.6923 3.44934 49.0614 3.26009 48.3675 3.00776C46.3488 2.37692 44.0147 1.99841 41.6175 1.99841L41.4282 1.87224Z" fill="#BAA69A"/>
</svg>
