<svg width="131" height="107" viewBox="0 0 131 107" fill="none" xmlns="http://www.w3.org/2000/svg">
<mask id="mask0_631_7489" style="mask-type:luminance" maskUnits="userSpaceOnUse" x="1" y="52" width="119" height="54">
<path d="M116.507 82.4678C114.414 72.5303 114.218 68.4768 115.33 65.3386C120.56 50.563 115.853 52.1975 108.923 53.7012C105.392 54.4857 95.6508 63.1157 79.5676 75.0147C71.5914 80.8988 72.1144 83.5139 66.5572 77.3029C66.5572 77.3029 60.4116 75.2762 54.5929 76.7145C51.7817 77.4337 48.7742 77.1068 45.5053 76.9107C35.0447 76.453 26.3493 64.2926 22.8188 60.6967C16.7386 54.6165 2.4207 47.4248 8.17403 63.508C11.5083 72.8572 6.67031 75.9953 4.44743 82.4678C-0.979001 98.551 1.30926 105.285 11.1161 105.285C20.9229 105.285 48.5127 105.285 60.4116 105.285H60.5424C72.4413 105.285 97.8737 105.285 109.838 105.285C121.802 105.285 119.972 99.074 116.507 82.4678Z" fill="white"/>
</mask>
<g mask="url(#mask0_631_7489)">
<path d="M120.559 104.766H-0.980469V105.289H120.559V104.766Z" fill="white"/>
<path d="M120.559 104.242H-0.980469V104.765H120.559V104.242Z" fill="white"/>
<path d="M120.559 103.652H-0.980469V104.175H120.559V103.652Z" fill="white"/>
<path d="M120.559 103.129H-0.980469V103.652H120.559V103.129Z" fill="#FFFDFD"/>
<path d="M120.559 102.605H-0.980469V103.129H120.559V102.605Z" fill="#FFFDFD"/>
<path d="M120.559 102.082H-0.980469V102.605H120.559V102.082Z" fill="#FDFDFC"/>
<path d="M120.559 101.559H-0.980469V102.082H120.559V101.559Z" fill="#FDFDFC"/>
<path d="M120.559 101.039H-0.980469V101.562H120.559V101.039Z" fill="#FDFCFB"/>
<path d="M120.559 100.516H-0.980469V101.039H120.559V100.516Z" fill="#FDFCFB"/>
<path d="M120.559 99.9258H-0.980469V100.449H120.559V99.9258Z" fill="#FDFCFA"/>
<path d="M120.559 99.4023H-0.980469V99.9254H120.559V99.4023Z" fill="#FFFBFA"/>
<path d="M120.559 98.8789H-0.980469V99.4019H120.559V98.8789Z" fill="#FCFBF9"/>
<path d="M120.559 98.3555H-0.980469V98.8785H120.559V98.3555Z" fill="#FDFAF9"/>
<path d="M120.559 97.832H-0.980469V98.3551H120.559V97.832Z" fill="#FDFAF8"/>
<path d="M120.559 97.3125H-0.980469V97.8355H120.559V97.3125Z" fill="#FDFAF7"/>
<path d="M120.559 96.7891H-0.980469V97.3121H120.559V96.7891Z" fill="#FDF9F7"/>
<path d="M120.559 96.1992H-0.980469V96.7222H120.559V96.1992Z" fill="#FCF9F6"/>
<path d="M120.559 95.6758H-0.980469V96.1988H120.559V95.6758Z" fill="#FCF8F5"/>
<path d="M120.559 95.1523H-0.980469V95.6754H120.559V95.1523Z" fill="#FCF8F5"/>
<path d="M120.559 94.6289H-0.980469V95.1519H120.559V94.6289Z" fill="#FDF7F4"/>
<path d="M120.559 94.1055H-0.980469V94.6285H120.559V94.1055Z" fill="#FDF7F3"/>
<path d="M120.559 93.5859H-0.980469V94.109H120.559V93.5859Z" fill="#FCF6F2"/>
<path d="M120.559 93.0625H-0.980469V93.5855H120.559V93.0625Z" fill="#FCF6F2"/>
<path d="M120.559 92.4727H-0.980469V92.9957H120.559V92.4727Z" fill="#FCF5F1"/>
<path d="M120.559 91.9492H-0.980469V92.4722H120.559V91.9492Z" fill="#FCF5F0"/>
<path d="M120.559 91.4258H-0.980469V91.9488H120.559V91.4258Z" fill="#FBF4EF"/>
<path d="M120.559 90.9023H-0.980469V91.4254H120.559V90.9023Z" fill="#FBF4EE"/>
<path d="M120.559 90.3789H-0.980469V90.9019H120.559V90.3789Z" fill="#FBF3EE"/>
<path d="M120.559 89.8594H-0.980469V90.3824H120.559V89.8594Z" fill="#FBF3ED"/>
<path d="M120.559 89.3359H-0.980469V89.859H120.559V89.3359Z" fill="#FAF2EC"/>
<path d="M120.559 88.7461H-0.980469V89.2691H120.559V88.7461Z" fill="#FAF2EB"/>
<path d="M120.559 88.2227H-0.980469V88.7457H120.559V88.2227Z" fill="#FBF1EA"/>
<path d="M120.559 87.6992H-0.980469V88.2222H120.559V87.6992Z" fill="#FBF1E9"/>
<path d="M120.559 87.1758H-0.980469V87.6988H120.559V87.1758Z" fill="#FAF0E8"/>
<path d="M120.559 86.6523H-0.980469V87.1754H120.559V86.6523Z" fill="#FAF0E7"/>
<path d="M120.559 86.1328H-0.980469V86.6558H120.559V86.1328Z" fill="#FAEFE7"/>
<path d="M120.559 85.6094H-0.980469V86.1324H120.559V85.6094Z" fill="#F9EEE6"/>
<path d="M120.559 85.0195H-0.980469V85.5426H120.559V85.0195Z" fill="#F9EEE5"/>
<path d="M120.559 84.4961H-0.980469V85.0191H120.559V84.4961Z" fill="#FAEEE4"/>
<path d="M120.559 83.9727H-0.980469V84.4957H120.559V83.9727Z" fill="#FAEEE3"/>
<path d="M120.559 83.4492H-0.980469V83.9722H120.559V83.4492Z" fill="#F9EDE2"/>
<path d="M120.559 82.9258H-0.980469V83.4488H120.559V82.9258Z" fill="#F9ECE1"/>
<path d="M120.559 82.4062H-0.980469V82.9293H120.559V82.4062Z" fill="#F9ECE0"/>
<path d="M120.559 81.8828H-0.980469V82.4058H120.559V81.8828Z" fill="#F8EBDF"/>
<path d="M120.559 81.3555H-0.980469V81.8785H120.559V81.3555Z" fill="#F8EADE"/>
<path d="M120.559 80.7695H-0.980469V81.2926H120.559V80.7695Z" fill="#F8EADD"/>
<path d="M120.559 80.2461H-0.980469V80.7691H120.559V80.2461Z" fill="#F7E9DC"/>
<path d="M120.559 79.7227H-0.980469V80.2457H120.559V79.7227Z" fill="#F8E8DB"/>
<path d="M120.559 79.1992H-0.980469V79.7223H120.559V79.1992Z" fill="#F8E8DA"/>
<path d="M120.559 78.6797H-0.980469V79.2027H120.559V78.6797Z" fill="#F7E7D9"/>
<path d="M120.559 78.1562H-0.980469V78.6793H120.559V78.1562Z" fill="#F7E6D8"/>
<path d="M120.559 77.6289H-0.980469V78.1519H120.559V77.6289Z" fill="#F7E6D7"/>
<path d="M120.559 77.043H-0.980469V77.566H120.559V77.043Z" fill="#F6E5D6"/>
<path d="M120.559 76.5195H-0.980469V77.0426H120.559V76.5195Z" fill="#F7E4D5"/>
<path d="M120.559 75.9961H-0.980469V76.5191H120.559V75.9961Z" fill="#F7E4D4"/>
<path d="M120.559 75.4727H-0.980469V75.9957H120.559V75.4727Z" fill="#F6E3D3"/>
<path d="M120.559 74.9531H-0.980469V75.4762H120.559V74.9531Z" fill="#F6E2D1"/>
<path d="M120.559 74.4297H-0.980469V74.9527H120.559V74.4297Z" fill="#F6E2D0"/>
<path d="M120.559 73.9023H-0.980469V74.4254H120.559V73.9023Z" fill="#F5E1CF"/>
<path d="M120.559 73.3164H-0.980469V73.8394H120.559V73.3164Z" fill="#F5E0CE"/>
<path d="M120.559 72.793H-0.980469V73.316H120.559V72.793Z" fill="#F5E0CD"/>
<path d="M120.559 72.2695H-0.980469V72.7926H120.559V72.2695Z" fill="#F4DFCC"/>
<path d="M120.559 71.7461H-0.980469V72.2691H120.559V71.7461Z" fill="#F5DECB"/>
<path d="M120.559 71.2266H-0.980469V71.7496H120.559V71.2266Z" fill="#F5DDCA"/>
<path d="M120.559 70.7031H-0.980469V71.2262H120.559V70.7031Z" fill="#F4DDC9"/>
<path d="M120.559 70.1758H-0.980469V70.6988H120.559V70.1758Z" fill="#F4DCC7"/>
<path d="M120.559 69.5898H-0.980469V70.1129H120.559V69.5898Z" fill="#F4DBC6"/>
<path d="M120.559 69.0664H-0.980469V69.5894H120.559V69.0664Z" fill="#F3DAC5"/>
<path d="M120.559 68.543H-0.980469V69.066H120.559V68.543Z" fill="#F3DAC4"/>
<path d="M120.559 68.0195H-0.980469V68.5426H120.559V68.0195Z" fill="#F4D9C3"/>
<path d="M120.559 67.4961H-0.980469V68.0191H120.559V67.4961Z" fill="#F3D8C2"/>
<path d="M120.559 66.9766H-0.980469V67.4996H120.559V66.9766Z" fill="#F3D7C0"/>
<path d="M120.559 66.4492H-0.980469V66.9723H120.559V66.4492Z" fill="#F2D7BF"/>
<path d="M120.559 65.8633H-0.980469V66.3863H120.559V65.8633Z" fill="#F2D6BE"/>
<path d="M120.559 65.3398H-0.980469V65.8629H120.559V65.3398Z" fill="#F2D5BD"/>
<path d="M120.559 64.8164H-0.980469V65.3394H120.559V64.8164Z" fill="#F2D4BC"/>
<path d="M120.559 64.293H-0.980469V64.816H120.559V64.293Z" fill="#F2D4BA"/>
<path d="M120.559 63.7695H-0.980469V64.2926H120.559V63.7695Z" fill="#F2D3B9"/>
<path d="M120.559 63.25H-0.980469V63.773H120.559V63.25Z" fill="#F1D2B8"/>
<path d="M120.559 62.7227H-0.980469V63.2457H120.559V62.7227Z" fill="#F1D1B7"/>
<path d="M120.559 62.1367H-0.980469V62.6598H120.559V62.1367Z" fill="#F0D0B6"/>
<path d="M120.559 61.6133H-0.980469V62.1363H120.559V61.6133Z" fill="#F0D0B4"/>
<path d="M120.559 61.0898H-0.980469V61.6129H120.559V61.0898Z" fill="#F1CFB3"/>
<path d="M120.559 60.5664H-0.980469V61.0894H120.559V60.5664Z" fill="#F0CEB2"/>
<path d="M120.559 60.043H-0.980469V60.566H120.559V60.043Z" fill="#F0CDB1"/>
<path d="M120.559 59.5234H-0.980469V60.0465H120.559V59.5234Z" fill="#EFCCAF"/>
<path d="M120.559 58.9961H-0.980469V59.5191H120.559V58.9961Z" fill="#EFCCAE"/>
<path d="M120.559 58.4102H-0.980469V58.9332H120.559V58.4102Z" fill="#EFCBAD"/>
<path d="M120.559 57.8867H-0.980469V58.4098H120.559V57.8867Z" fill="#EECAAC"/>
<path d="M120.559 57.3633H-0.980469V57.8863H120.559V57.3633Z" fill="#EFC9AA"/>
<path d="M120.559 56.8398H-0.980469V57.3629H120.559V56.8398Z" fill="#EEC8A9"/>
<path d="M120.559 56.3164H-0.980469V56.8394H120.559V56.3164Z" fill="#EEC8A8"/>
<path d="M120.559 55.7969H-0.980469V56.3199H120.559V55.7969Z" fill="#EEC7A6"/>
<path d="M120.559 55.2734H-0.980469V55.7965H120.559V55.2734Z" fill="#EDC6A5"/>
<path d="M120.559 54.6836H-0.980469V55.2066H120.559V54.6836Z" fill="#EDC5A4"/>
<path d="M120.559 54.1602H-0.980469V54.6832H120.559V54.1602Z" fill="#ECC4A2"/>
<path d="M120.559 53.6367H-0.980469V54.1598H120.559V53.6367Z" fill="#EDC3A1"/>
<path d="M120.559 53.1133H-0.980469V53.6363H120.559V53.1133Z" fill="#EDC3A0"/>
<path d="M120.559 52.5898H-0.980469V53.1129H120.559V52.5898Z" fill="#ECC29F"/>
</g>
<path d="M60.6068 106.264H60.4761C54.592 106.264 45.5044 106.264 36.286 106.264C26.8061 106.264 17.2607 106.264 11.1805 106.264C5.1003 106.264 4.1196 105.088 2.41975 102.734C-0.260776 99.0074 0.131528 92.4695 3.5966 82.2051C4.25039 80.3091 5.03493 78.74 5.88486 77.2363C7.84622 73.5097 9.61141 70.2408 7.32316 63.899C5.3618 58.4072 5.49256 54.8768 7.78082 53.4384C11.7689 50.8887 20.072 56.5112 23.6025 60.0417C24.2563 60.6955 24.9754 61.5454 25.8907 62.5261C30.2057 67.4295 37.3974 75.5365 45.7005 75.9287C46.2235 75.9287 46.6812 75.9287 47.2042 75.9941C49.8193 76.1249 52.3037 76.2556 54.5266 75.7326C60.2799 74.2943 66.3602 76.1249 67.014 76.3864C67.2101 76.3864 67.3408 76.5171 67.4716 76.6479C69.2368 78.6093 70.479 79.8514 71.3943 79.9168C72.1789 79.9168 73.2903 79.0015 74.9248 77.6286C76.0362 76.7133 77.4092 75.5365 79.1744 74.2289C84.9277 69.9793 89.9619 66.0565 94.0154 62.9184C101.73 56.9035 106.437 53.3077 108.856 52.7193L109.706 52.5231C113.171 51.7386 116.113 51.0848 117.683 52.85C119.317 54.6806 118.925 58.3418 116.375 65.5989C115.329 68.6063 115.59 72.8559 117.552 82.2051C119.84 93.2541 120.559 99.9227 117.748 103.388C116.179 105.284 113.76 106.134 109.968 106.134C103.888 106.134 94.3423 106.134 84.8624 106.134C75.644 106.134 66.5563 106.134 60.6722 106.134L60.6068 106.264ZM10.1345 54.6806C9.61145 54.6806 9.15377 54.8114 8.7615 55.0075C7.45392 55.8574 7.58471 58.7995 9.1538 63.1799C11.7036 70.3715 9.74219 74.0981 7.58469 78.0862C6.80014 79.5246 6.01561 81.0283 5.4272 82.7935C2.22364 92.2734 1.76598 98.419 3.98886 101.557C5.29643 103.388 7.65008 104.303 11.1152 104.303C17.1954 104.303 26.7407 104.303 36.2206 104.303C45.439 104.303 54.5266 104.303 60.4107 104.303H60.5415C66.4256 104.303 75.5132 104.303 84.7316 104.303C94.2115 104.303 103.757 104.303 109.837 104.303C115.917 104.303 114.937 103.649 116.113 102.276C118.467 99.3997 117.617 92.6657 115.525 82.7281C113.433 72.7905 113.171 68.5409 114.414 65.0105C116.571 58.9956 117.094 55.3344 116.113 54.223C115.263 53.3077 112.714 53.8961 110.033 54.4845L109.183 54.6806C107.157 55.1383 102.122 59.061 95.1268 64.4874C91.0734 67.6256 86.0392 71.5484 80.2205 75.798C78.5206 77.0402 77.1477 78.217 76.1016 79.1323C71.7866 82.7935 70.5444 83.1204 66.0987 78.217C64.8565 77.8247 59.7569 76.5171 54.9189 77.694C52.3691 78.3477 49.754 78.1516 47.0081 78.0208C46.5504 78.0208 46.0274 78.0208 45.5697 77.9555C36.4821 77.5632 28.8982 68.9986 24.387 63.899C23.5371 62.9184 22.7525 62.0684 22.1641 61.48C18.6991 58.0149 13.1419 54.8114 10.1345 54.8114V54.6806Z" fill="#BAA69A"/>
<path d="M112.519 82.924C111.603 80.8319 110.557 78.7397 109.381 76.7784C108.008 74.4248 106.112 70.8943 103.104 70.2405C100.293 69.6521 98.3315 72.2673 96.8278 74.294C92.2513 80.5704 88.0017 82.8586 82.0522 86.7813C77.345 89.9195 73.2261 93.0577 71.5916 92.5347C69.0419 91.7501 63.2885 90.5079 62.0463 90.5079C60.8041 90.5079 60.3464 90.1157 57.9928 91.4232C55.1815 92.9269 48.9706 96.0651 44.1979 92.9269C37.9216 88.8735 40.3406 90.5733 34.3911 86.1929C29.4223 82.4663 26.7418 82.924 20.9885 80.5704C17.2619 79.0666 12.2931 74.5555 9.35105 80.3088C5.8206 87.239 5.4937 91.0963 5.62445 96.7843C5.62445 100.119 6.34362 105.153 11.1816 105.153C26.3495 105.153 56.3584 105.153 60.4772 105.153C64.6615 105.153 94.6703 105.153 109.773 105.153C124.875 105.153 115.265 100.119 115.33 96.7843C115.395 92.0116 114.284 87.3044 112.453 82.8586L112.519 82.924Z" fill="white"/>
<path d="M71.3283 106.198C65.9672 106.198 61.9137 106.198 60.5408 106.198L60.41 105.218V106.198C57.5987 106.198 43.3462 106.198 29.4859 106.198C22.6865 106.198 16.0832 106.198 11.0491 106.198C6.01491 106.198 4.70734 104.564 4.5112 96.8492C4.38044 91.3574 4.64198 87.2386 8.36856 79.9161C9.21849 78.2163 10.3299 77.1702 11.7029 76.778C14.1219 75.9934 16.6717 77.4317 18.9599 78.6086C19.7445 79.0662 20.529 79.4585 21.1828 79.72C23.2095 80.5699 24.7786 81.0276 26.2823 81.4852C29.0282 82.2698 31.4472 82.9889 34.7816 85.4733L35.4353 85.9964C37.8761 87.827 39.7504 89.1563 41.0579 89.9845C41.8425 90.4421 42.8885 91.1613 44.523 92.2727C49.0341 95.2148 55.2451 91.8151 57.2719 90.7036C59.2332 89.5922 60.1485 89.5922 61.1946 89.6576C61.3907 89.6576 61.5869 89.6576 61.783 89.6576C63.2867 89.6576 69.3015 91.0305 71.6552 91.7497C72.5705 92.0112 75.9702 89.723 78.7161 87.827C79.566 87.2386 80.4159 86.7155 81.2659 86.1271C81.985 85.6695 82.6388 85.2118 83.358 84.7542C88.3268 81.5506 91.9226 79.197 95.8453 73.8359C97.349 71.8092 99.6373 68.671 103.102 69.3902C106.241 70.0439 108.202 73.3783 109.706 75.7973L110.033 76.3857C111.275 78.4778 112.386 80.5699 113.236 82.662C115.328 87.5655 116.309 92.3381 116.243 96.98C116.113 104.695 112.648 106.329 109.706 106.329C104.671 106.329 98.0682 106.329 91.2688 106.329C84.1425 106.329 76.8855 106.329 71.1322 106.329L71.3283 106.198ZM60.4754 104.237H60.5408C63.3521 104.237 77.6046 104.237 91.4649 104.237C98.2643 104.237 104.868 104.237 109.902 104.237C114.936 104.237 114.282 104.237 114.478 96.8492C114.544 92.5342 113.628 88.0231 111.667 83.3812C110.817 81.4198 109.771 79.3931 108.594 77.3664L108.267 76.778C107.025 74.6858 105.325 71.7438 102.972 71.2861C100.749 70.8285 99.0489 73.1167 97.7413 74.9473C93.5571 80.6353 89.6997 83.1197 84.7309 86.3233C84.0771 86.7809 83.358 87.1732 82.7042 87.6308C81.8543 88.2192 81.0043 88.8076 80.1544 89.3307C75.5779 92.4035 73.1589 94.0379 71.3936 93.4495C68.7785 92.665 63.2213 91.4228 62.1099 91.4228C60.9985 91.4228 61.5869 91.4228 61.3253 91.4228C60.6062 91.4228 60.0831 91.3574 58.4487 92.2073C56.1604 93.4495 49.1649 97.3069 43.6731 93.7111C42.0386 92.5996 40.9272 91.9458 40.208 91.4882C38.8569 90.6165 36.9391 89.2653 34.4547 87.4347L33.8009 86.9117C30.7281 84.6234 28.636 84.035 25.9554 83.2505C24.4517 82.7928 22.7519 82.3351 20.6598 81.4198C19.8752 81.093 19.0907 80.7007 18.2407 80.243C16.214 79.1316 14.0565 78.0202 12.4874 78.5432C11.6375 78.8047 10.9183 79.5239 10.3299 80.7007C6.79947 87.6308 6.60331 91.4228 6.66869 96.7185C6.79945 104.106 10.1338 104.106 11.2452 104.106C16.2794 104.106 22.8826 104.106 29.682 104.106C43.4769 104.106 57.7949 104.106 60.6062 104.106H60.6716L60.4754 104.237Z" fill="#BAA69A"/>
<path d="M104.605 27.2212C104.475 22.8408 103.559 18.3297 101.14 14.6685C96.8252 8.19598 88.7183 5.84234 81.3305 6.82302C78.2577 7.2153 75.2503 7.99984 72.1121 7.54219C69.0393 6.8884 66.4241 5.12318 63.6782 3.68484C57.075 0.28515 48.5757 -0.303259 42.3648 4.33863C38.8343 6.95378 36.4807 10.8765 34.8462 14.93C30.7273 25.0637 30.4658 36.5704 33.7347 46.9656C36.023 54.288 39.9457 60.8912 42.6262 68.0829C43.8031 71.2211 45.6337 87.3043 52.1716 81.7471C53.2176 80.8318 53.8714 79.6549 54.4598 78.4127C55.7674 75.7976 57.0096 73.2478 58.2518 70.6327C58.9056 69.3251 59.9516 67.3637 61.3899 67.5599C62.7629 67.8214 63.0244 69.9135 63.1552 71.3518C63.4821 74.2285 63.809 77.1052 64.1359 80.0472C64.2666 81.4202 64.4628 82.8585 65.1165 84.0353C69.4315 91.4231 76.9501 77.0398 79.173 74.49C84.1418 68.6713 90.0912 63.7679 94.7331 57.6877C101.336 48.9923 104.998 38.0741 104.605 27.1558V27.2212Z" fill="white"/>
<path d="M68.0603 87.2383C68.0603 87.2383 67.9949 87.2383 67.9295 87.2383C66.4912 87.2383 65.249 86.323 64.2683 84.6232C63.4838 83.2502 63.2877 81.6811 63.1569 80.2428L62.1762 71.5474C62.0455 70.6321 61.8493 68.7361 61.1955 68.6054C60.934 68.6054 60.2803 68.8015 59.1688 71.1552L57.3382 74.8817C56.6844 76.1893 56.0306 77.5623 55.3768 78.8698C54.723 80.1774 54.0039 81.5504 52.8271 82.531C51.3234 83.7732 49.885 84.1655 48.512 83.7079C45.3085 82.5964 43.8048 77.2354 42.4318 71.2859C42.1703 70.0437 41.9088 68.9323 41.7127 68.4092C40.5359 65.3364 39.1629 62.2636 37.79 59.3216C36.0247 55.4642 34.1287 51.4761 32.8211 47.2919C29.4214 36.439 29.8138 24.8016 33.998 14.6025C36.0247 9.56837 38.5745 5.97254 41.8434 3.55352C49.0351 -1.80753 58.1227 -0.303823 64.2029 2.83436C64.8567 3.16125 65.5105 3.55352 66.1643 3.88042C68.191 4.99186 70.1524 6.10329 72.3099 6.56095C74.5328 6.82246 76.6903 6.56095 78.9786 6.16867C79.6977 6.03792 80.4823 5.90716 81.2014 5.84178C88.0008 4.99186 97.0231 6.6917 101.992 14.1449C104.215 17.4792 105.392 21.7942 105.588 27.1553C105.98 38.2043 102.45 49.2533 95.5194 58.3409C92.8389 61.806 89.766 64.9442 86.7586 68.017C84.4704 70.3052 82.1167 72.7242 79.9592 75.2086C79.6324 75.6009 79.0439 76.5162 78.3248 77.4969C75.7096 81.3542 71.8523 87.1729 68.0603 87.1729V87.2383ZM61.1302 66.7094C61.2609 66.7094 61.3917 66.7094 61.5224 66.7094C63.6146 67.1017 63.9414 69.7168 64.1376 71.3513L65.1183 80.0467C65.249 81.2889 65.3798 82.5964 65.9682 83.6425C66.8835 85.2116 67.7334 85.277 67.9949 85.277C70.7409 85.277 74.5328 79.5236 76.6249 76.4508C77.3441 75.3394 77.9325 74.4895 78.3901 73.9664C80.5476 71.4167 82.9667 68.9977 85.3203 66.644C88.2624 63.6366 91.3351 60.5638 93.9503 57.1641C100.488 48.5995 104.019 37.6812 103.626 27.286C103.43 22.2518 102.384 18.3291 100.357 15.2563C95.9117 8.52231 87.6739 7.0186 81.4629 7.80314C80.7438 7.86852 80.0246 7.99928 79.3055 8.13004C76.9518 8.52231 74.5328 8.91458 71.983 8.52231H71.9177C69.4333 7.99928 67.2757 6.75708 65.1836 5.64564C64.5298 5.31875 63.8761 4.92648 63.2223 4.59958C57.6651 1.72292 49.4273 0.349965 42.9549 5.18799C40.0128 7.34549 37.6592 10.6798 35.7632 15.3871C31.8405 25.0631 31.4482 36.5044 34.6518 46.7689C35.894 50.8224 37.7246 54.7451 39.4898 58.6024C40.8627 61.6099 42.3011 64.6827 43.4779 67.8208C43.7394 68.4746 44.0009 69.5861 44.2624 70.959C45.1123 74.4895 46.6161 81.0927 49.0351 81.9426C49.2966 82.008 50.0158 82.2695 51.4541 81.0927C52.3694 80.3082 52.9578 79.2621 53.5462 78.0853C54.2 76.7123 54.8538 75.4048 55.5076 74.0972L57.3382 70.3706C57.8612 69.2592 59.1034 66.7748 61.0648 66.7748L61.1302 66.7094Z" fill="#BAA69A"/>
<g opacity="0.6">
<path d="M103.366 42.1288C101.078 41.8019 98.6585 44.2863 96.3702 43.8941C94.0166 43.4364 92.8398 40.2982 90.8784 38.7291C88.1325 36.5063 84.3406 37.7485 80.9409 38.7291C76.7566 39.9713 73.2915 37.2254 69.1073 37.4216C66.1652 37.5523 65.8384 43.6979 60.0197 38.9906C58.7121 37.9446 57.666 36.4409 56.3584 35.3294C55.0509 34.218 53.351 33.5642 51.7819 34.4141C49.8859 35.4602 49.036 38.4022 47.14 39.3829C45.5056 40.2328 43.675 39.1868 42.4982 37.6831C41.3213 36.1794 40.6675 34.218 39.6215 32.5835C36.3525 27.4186 29.4878 25.2611 29.0301 34.4141C28.3763 48.8628 41.1252 67.7573 44.3288 76.9103C47.4016 75.5374 52.3703 73.8375 52.3703 73.8375L54.9201 65.7959L59.6274 69.7187C61.5233 67.0381 64.5308 64.1615 64.5962 65.1421C64.5962 65.1421 69.8918 67.9534 71.8532 68.6072C71.8532 68.6072 73.2261 73.8375 74.0107 75.5374L77.7373 71.157C77.7373 71.157 77.2143 76.2565 76.822 78.9371C84.4713 69.6533 103.627 56.6429 103.627 42.0635C103.497 42.0635 103.431 42.0635 103.3 42.0635L103.366 42.1288Z" fill="#E4C759"/>
</g>
<path d="M36.7441 39.9013L33.0176 38.6591L35.9596 36.1094L36.7441 39.9013Z" fill="#BAA69A"/>
<path d="M54.4622 39.3146L51.0625 40.4914L51.7163 36.9609L54.4622 39.3146Z" fill="#BAA69A"/>
<path d="M59.8221 42.3234L55.834 42.1927L57.9915 38.793L59.8221 42.3234Z" fill="#BAA69A"/>
<path d="M55.9654 48.404L54.004 51.4768L51.6504 46.7695L55.9654 48.404Z" fill="#BAA69A"/>
<path d="M72.8324 46.243L67.0137 47.4198L70.4787 43.5625L72.8324 46.243Z" fill="#BAA69A"/>
<path d="M78.521 46.835L75.3828 41.3431L78.3902 40.5586L78.521 46.835Z" fill="#BAA69A"/>
<path d="M85.2553 42.9129L85.9091 39.1209L83.3594 38.8594L85.2553 42.9129Z" fill="#BAA69A"/>
<path d="M73.5521 42.5841H69.237L68.9102 38.9883L73.5521 42.5841Z" fill="#BAA69A"/>
<path d="M64.2011 45.5905L60.3438 46.375L61.5859 42.6484L64.2011 45.5905Z" fill="#BAA69A"/>
<path d="M97.6767 49.449L92.6426 47.8146L94.6039 44.2188L97.6767 49.449Z" fill="#BAA69A"/>
<path d="M90.5494 53.7644L87.4766 53.3721L89.3725 50.9531L90.5494 53.7644Z" fill="#BAA69A"/>
<path d="M88.3923 46.1789L85.5156 46.5712L86.6271 43.8906L88.3923 46.1789Z" fill="#BAA69A"/>
<path d="M49.1007 41.9334L45.0472 44.3524L44.1973 40.4297L49.1007 41.9334Z" fill="#BAA69A"/>
<path d="M38.5744 34.4096L33.7363 34.5403L35.1747 31.1406L38.5744 34.4096Z" fill="#BAA69A"/>
<path d="M38.2472 44.6764L34.5859 45.3956V40.4922L38.2472 44.6764Z" fill="#BAA69A"/>
<path d="M59.1698 48.0781L53.9395 47.2282L57.7968 44.3516L59.1698 48.0781Z" fill="#BAA69A"/>
<path d="M100.163 44.3516L99.0512 48.0781L97.0898 45.1361L100.163 44.3516Z" fill="#BAA69A"/>
<path d="M46.747 50.5603L41.582 51.3448L43.4126 46.4414L46.747 50.5603Z" fill="#BAA69A"/>
<path d="M75.1847 47.9466L72.8965 45.4622L75.1193 42.0625L75.1847 47.9466Z" fill="#BAA69A"/>
<path d="M80.3519 49.4523L76.1023 52.329L75.7754 47.1641L80.3519 49.4523Z" fill="#BAA69A"/>
<path d="M83.6194 46.8345L78.9121 43.9579L83.8155 41.2773L83.6194 46.8345Z" fill="#BAA69A"/>
<path d="M90.5494 44.0224L86.2344 41.4073L90.6801 38.9883L90.5494 44.0224Z" fill="#BAA69A"/>
<path d="M83.4903 51.6088L78.6523 52.1318L82.052 49.582L83.4903 51.6088Z" fill="#BAA69A"/>
<path d="M41.8438 40.4277L36.875 38.7278L39.9478 36.5703L41.8438 40.4277Z" fill="#BAA69A"/>
<path d="M82.1805 55.3984L83.1612 61.021L80.7422 58.9943L82.1805 55.3984Z" fill="#BAA69A"/>
<path d="M88.6543 49.5161L91.531 47.8816L89.9619 45.0703L88.6543 49.5161Z" fill="#BAA69A"/>
<path d="M73.1602 62.9155L78.3251 62.654L75.6445 61.0195L73.1602 62.9155Z" fill="#BAA69A"/>
<path d="M61.9141 60.1725L64.66 60.6955L64.5946 58.4727L61.9141 60.1725Z" fill="#BAA69A"/>
<path d="M54.332 55.2675L57.9279 56.3789L55.9011 53.8945L54.332 55.2675Z" fill="#BAA69A"/>
<path d="M50.3418 44.808L54.526 45.6579L52.3032 41.5391L50.3418 44.808Z" fill="#BAA69A"/>
<path d="M40.0765 56.7052L40.338 51.8672L37.9844 53.1094L40.0765 56.7052Z" fill="#BAA69A"/>
<path d="M61.7188 50.7566L64.8569 53.4371L64.2685 50.4297L61.7188 50.7566Z" fill="#BAA69A"/>
<path d="M50.2773 60.8234L51.781 62.3271L52.4348 58.5352L50.2773 60.8234Z" fill="#BAA69A"/>
<path d="M47.0094 57.2297L50.1475 56.249L46.4863 54.9414L47.0094 57.2297Z" fill="#BAA69A"/>
<path d="M36.1543 49.9718L40.1424 50.168L37.9849 47.6836L36.1543 49.9718Z" fill="#BAA69A"/>
<path d="M42.0395 44.3471L42.6279 41.6012L40.0781 41.0781L42.0395 44.3471Z" fill="#BAA69A"/>
<path d="M68.0605 58.8627L70.0873 58.5358L69.3028 55.5938L68.0605 58.8627Z" fill="#BAA69A"/>
<path d="M82.248 63.8962L84.144 66.3806L85.3862 63.5039L82.248 63.8962Z" fill="#BAA69A"/>
<path d="M49.1662 43.1094L45.7012 47.2936L49.0355 46.5091L49.1662 43.1094Z" fill="#BAA69A"/>
<path d="M39.9475 48.4026L37.7246 45.9836L39.9475 43.6953V48.4026Z" fill="#BAA69A"/>
<path d="M51.4541 53.0446L49.0352 51.9986L50.0158 47.6836L51.4541 53.0446Z" fill="#BAA69A"/>
<path d="M68.2546 49.6427L65.4434 49.4466L66.0971 47.2891L68.2546 49.6427Z" fill="#BAA69A"/>
<path d="M74.8604 50.234L71.0684 50.2994L73.6835 48.4688L74.8604 50.234Z" fill="#BAA69A"/>
<path d="M86.8227 51.0167L79.8926 48.2708L85.8421 47.3555L86.8227 51.0167Z" fill="#BAA69A"/>
<path d="M88.7852 57.292L89.4389 54.7422L91.3349 56.5728L88.7852 57.292Z" fill="#BAA69A"/>
<path d="M68.9766 43.8898L65.25 45.5243L66.6229 42.8438L68.9766 43.8898Z" fill="#BAA69A"/>
<path d="M77.2788 56.6394L75.3828 57.6855L75.7751 53.8281L77.2788 56.6394Z" fill="#BAA69A"/>
<path d="M84.8622 54.4176L80.9395 53.8945L83.7507 52.6523L84.8622 54.4176Z" fill="#BAA69A"/>
<path d="M94.4716 51.4102L90.5488 50.4949L93.5562 48.9258L94.4716 51.4102Z" fill="#BAA69A"/>
<path d="M88.1309 62.4607L88.2616 59.7148L90.8768 59.911L88.1309 62.4607Z" fill="#BAA69A"/>
<path d="M60.6714 49.9749L58.7754 49.0596L60.4753 47.8828L60.6714 49.9749Z" fill="#BAA69A"/>
<path d="M44.1315 54.6143L41.6471 56.5103L41.1895 53.4375L44.1315 54.6143Z" fill="#BAA69A"/>
<path d="M7.6498 12.771C1.5042 20.4203 0.850408 31.2732 4.38086 40.23C4.83851 41.4069 6.73451 40.8838 6.27686 39.707C3.0733 31.4693 3.40019 21.2702 9.08814 14.1439C9.87268 13.1632 8.49975 11.7903 7.7152 12.771H7.6498Z" fill="#BAA69A"/>
<path d="M18.8942 13.8178C16.4752 16.7599 14.5792 20.0942 13.9254 23.8862C13.0755 28.5934 13.86 33.3661 14.9715 37.9426C15.233 39.1848 17.129 38.6618 16.8675 37.4196C15.8868 33.2353 15.1022 28.7242 15.8214 24.4092C16.4098 20.9441 18.0443 17.8713 20.3326 15.1908C21.1171 14.2101 19.7442 12.8372 18.9596 13.8178H18.8942Z" fill="#BAA69A"/>
<path d="M123.894 14.1439C129.581 21.2702 129.908 31.4693 126.705 39.707C126.247 40.8838 128.143 41.4069 128.601 40.23C132.066 31.2732 131.412 20.4203 125.332 12.771C124.547 11.7903 123.174 13.1632 123.959 14.1439H123.894Z" fill="#BAA69A"/>
<path d="M112.714 15.1908C114.937 17.8713 116.572 20.9441 117.225 24.4092C118.01 28.7242 117.225 33.17 116.179 37.4196C115.918 38.6618 117.748 39.1848 118.075 37.9426C119.187 33.3661 119.906 28.5934 119.121 23.8862C118.468 20.0942 116.572 16.7599 114.153 13.8178C113.368 12.8372 111.93 14.2101 112.78 15.1908H112.714Z" fill="#BAA69A"/>
</svg>
