<svg width="114" height="102" viewBox="0 0 114 102" fill="none" xmlns="http://www.w3.org/2000/svg">
<mask id="mask0_631_7666" style="mask-type:luminance" maskUnits="userSpaceOnUse" x="1" y="44" width="113" height="57">
<path d="M110.913 79.1347C108.909 69.6159 108.095 65.7333 108.471 56.2144C108.972 42.7503 99.4531 43.6271 96.2593 46.5704C93.316 49.2632 88.1808 55.3377 79.0378 60.8486C70.8967 65.7333 62.7556 64.8565 57.4326 58.9073C57.4326 58.9073 57.4326 58.9073 57.3074 58.9073C57.1821 58.9073 57.1821 58.9073 57.1821 58.9073C51.8591 64.8565 43.718 65.7333 35.5769 60.8486C26.4338 55.3377 21.2987 49.2632 18.3554 46.5704C15.1616 43.6271 5.64275 42.813 6.14374 56.2144C6.51948 65.7333 5.70536 69.6159 3.7014 79.1347C0.382341 95.0412 0.695468 100.99 10.089 100.99C19.4826 100.99 45.9098 100.99 57.3074 100.99H57.4326C68.8301 100.99 93.1908 100.99 104.651 100.99C116.111 100.99 114.358 95.0412 111.039 79.1347H110.913Z" fill="white"/>
</mask>
<g mask="url(#mask0_631_7666)">
<path d="M114.231 100.426H0.255859V100.989H114.231V100.426Z" fill="white"/>
<path d="M114.231 99.8633H0.255859V100.427H114.231V99.8633Z" fill="white"/>
<path d="M114.231 99.2969H0.255859V99.8605H114.231V99.2969Z" fill="white"/>
<path d="M114.231 98.7344H0.255859V99.298H114.231V98.7344Z" fill="#FFFDFD"/>
<path d="M114.231 98.1719H0.255859V98.7355H114.231V98.1719Z" fill="#FFFDFD"/>
<path d="M114.231 97.6094H0.255859V98.173H114.231V97.6094Z" fill="#FDFDFC"/>
<path d="M114.231 97.0469H0.255859V97.6105H114.231V97.0469Z" fill="#FDFDFC"/>
<path d="M114.231 96.4805H0.255859V97.0441H114.231V96.4805Z" fill="#FDFCFB"/>
<path d="M114.231 95.918H0.255859V96.4816H114.231V95.918Z" fill="#FDFCFB"/>
<path d="M114.231 95.3516H0.255859V95.9152H114.231V95.3516Z" fill="#FDFCFA"/>
<path d="M114.231 94.7266H0.255859V95.2902H114.231V94.7266Z" fill="#FFFBFA"/>
<path d="M114.231 94.1641H0.255859V94.7277H114.231V94.1641Z" fill="#FCFBF9"/>
<path d="M114.231 93.6016H0.255859V94.1652H114.231V93.6016Z" fill="#FDFAF9"/>
<path d="M114.231 93.0391H0.255859V93.6027H114.231V93.0391Z" fill="#FDFAF8"/>
<path d="M114.231 92.4727H0.255859V93.0363H114.231V92.4727Z" fill="#FDFAF7"/>
<path d="M114.231 91.9102H0.255859V92.4738H114.231V91.9102Z" fill="#FDF9F7"/>
<path d="M114.231 91.3477H0.255859V91.9113H114.231V91.3477Z" fill="#FCF9F6"/>
<path d="M114.231 90.7812H0.255859V91.3449H114.231V90.7812Z" fill="#FCF8F5"/>
<path d="M114.231 90.2188H0.255859V90.7824H114.231V90.2188Z" fill="#FCF8F5"/>
<path d="M114.231 89.6562H0.255859V90.2199H114.231V89.6562Z" fill="#FDF7F4"/>
<path d="M114.231 89.0938H0.255859V89.6574H114.231V89.0938Z" fill="#FDF7F3"/>
<path d="M114.231 88.4648H0.255859V89.0285H114.231V88.4648Z" fill="#FCF6F2"/>
<path d="M114.231 87.9023H0.255859V88.466H114.231V87.9023Z" fill="#FCF6F2"/>
<path d="M114.231 87.3398H0.255859V87.9035H114.231V87.3398Z" fill="#FCF5F1"/>
<path d="M114.231 86.7734H0.255859V87.3371H114.231V86.7734Z" fill="#FCF5F0"/>
<path d="M114.231 86.2109H0.255859V86.7745H114.231V86.2109Z" fill="#FBF4EF"/>
<path d="M114.231 85.6484H0.255859V86.212H114.231V85.6484Z" fill="#FBF4EE"/>
<path d="M114.231 85.0859H0.255859V85.6496H114.231V85.0859Z" fill="#FBF3EE"/>
<path d="M114.231 84.5195H0.255859V85.0831H114.231V84.5195Z" fill="#FBF3ED"/>
<path d="M114.231 83.957H0.255859V84.5207H114.231V83.957Z" fill="#FAF2EC"/>
<path d="M114.231 83.3945H0.255859V83.9581H114.231V83.3945Z" fill="#FAF2EB"/>
<path d="M114.231 82.8281H0.255859V83.3917H114.231V82.8281Z" fill="#FBF1EA"/>
<path d="M114.231 82.2031H0.255859V82.7667H114.231V82.2031Z" fill="#FBF1E9"/>
<path d="M114.231 81.6406H0.255859V82.2042H114.231V81.6406Z" fill="#FAF0E8"/>
<path d="M114.231 81.0781H0.255859V81.6417H114.231V81.0781Z" fill="#FAF0E7"/>
<path d="M114.231 80.5117H0.255859V81.0753H114.231V80.5117Z" fill="#FAEFE7"/>
<path d="M114.231 79.9492H0.255859V80.5128H114.231V79.9492Z" fill="#F9EEE6"/>
<path d="M114.231 79.3828H0.255859V79.9464H114.231V79.3828Z" fill="#F9EEE5"/>
<path d="M114.231 78.8203H0.255859V79.3839H114.231V78.8203Z" fill="#FAEEE4"/>
<path d="M114.231 78.2578H0.255859V78.8214H114.231V78.2578Z" fill="#FAEEE3"/>
<path d="M114.231 77.6953H0.255859V78.2589H114.231V77.6953Z" fill="#F9EDE2"/>
<path d="M114.231 77.1328H0.255859V77.6964H114.231V77.1328Z" fill="#F9ECE1"/>
<path d="M114.231 76.5664H0.255859V77.13H114.231V76.5664Z" fill="#F9ECE0"/>
<path d="M114.231 75.9414H0.255859V76.505H114.231V75.9414Z" fill="#F8EBDF"/>
<path d="M114.231 75.375H0.255859V75.9386H114.231V75.375Z" fill="#F8EADE"/>
<path d="M114.231 74.8125H0.255859V75.3761H114.231V74.8125Z" fill="#F8EADD"/>
<path d="M114.231 74.25H0.255859V74.8136H114.231V74.25Z" fill="#F7E9DC"/>
<path d="M114.231 73.6875H0.255859V74.2511H114.231V73.6875Z" fill="#F8E8DB"/>
<path d="M114.231 73.125H0.255859V73.6886H114.231V73.125Z" fill="#F8E8DA"/>
<path d="M114.231 72.5586H0.255859V73.1222H114.231V72.5586Z" fill="#F7E7D9"/>
<path d="M114.231 71.9961H0.255859V72.5597H114.231V71.9961Z" fill="#F7E6D8"/>
<path d="M114.231 71.4297H0.255859V71.9933H114.231V71.4297Z" fill="#F7E6D7"/>
<path d="M114.231 70.8672H0.255859V71.4308H114.231V70.8672Z" fill="#F6E5D6"/>
<path d="M114.231 70.3047H0.255859V70.8683H114.231V70.3047Z" fill="#F7E4D5"/>
<path d="M114.231 69.6797H0.255859V70.2433H114.231V69.6797Z" fill="#F7E4D4"/>
<path d="M114.231 69.1172H0.255859V69.6808H114.231V69.1172Z" fill="#F6E3D3"/>
<path d="M114.231 68.5508H0.255859V69.1144H114.231V68.5508Z" fill="#F6E2D1"/>
<path d="M114.231 67.9844H0.255859V68.548H114.231V67.9844Z" fill="#F6E2D0"/>
<path d="M114.231 67.4219H0.255859V67.9855H114.231V67.4219Z" fill="#F5E1CF"/>
<path d="M114.231 66.8594H0.255859V67.423H114.231V66.8594Z" fill="#F5E0CE"/>
<path d="M114.231 66.2969H0.255859V66.8605H114.231V66.2969Z" fill="#F5E0CD"/>
<path d="M114.231 65.7344H0.255859V66.298H114.231V65.7344Z" fill="#F4DFCC"/>
<path d="M114.231 65.1719H0.255859V65.7355H114.231V65.1719Z" fill="#F5DECB"/>
<path d="M114.231 64.6055H0.255859V65.1691H114.231V64.6055Z" fill="#F5DDCA"/>
<path d="M114.231 64.0391H0.255859V64.6027H114.231V64.0391Z" fill="#F4DDC9"/>
<path d="M114.231 63.4141H0.255859V63.9777H114.231V63.4141Z" fill="#F4DCC7"/>
<path d="M114.231 62.8516H0.255859V63.4152H114.231V62.8516Z" fill="#F4DBC6"/>
<path d="M114.231 62.2891H0.255859V62.8527H114.231V62.2891Z" fill="#F3DAC5"/>
<path d="M114.231 61.7266H0.255859V62.2902H114.231V61.7266Z" fill="#F3DAC4"/>
<path d="M114.231 61.1641H0.255859V61.7277H114.231V61.1641Z" fill="#F4D9C3"/>
<path d="M114.231 60.5977H0.255859V61.1613H114.231V60.5977Z" fill="#F3D8C2"/>
<path d="M114.231 60.0312H0.255859V60.5949H114.231V60.0312Z" fill="#F3D7C0"/>
<path d="M114.231 59.4688H0.255859V60.0324H114.231V59.4688Z" fill="#F2D7BF"/>
<path d="M114.231 58.9062H0.255859V59.4699H114.231V58.9062Z" fill="#F2D6BE"/>
<path d="M114.231 58.3438H0.255859V58.9074H114.231V58.3438Z" fill="#F2D5BD"/>
<path d="M114.231 57.7812H0.255859V58.3449H114.231V57.7812Z" fill="#F2D4BC"/>
<path d="M114.231 57.1523H0.255859V57.716H114.231V57.1523Z" fill="#F2D4BA"/>
<path d="M114.231 56.5898H0.255859V57.1535H114.231V56.5898Z" fill="#F2D3B9"/>
<path d="M114.231 56.0234H0.255859V56.587H114.231V56.0234Z" fill="#F1D2B8"/>
<path d="M114.231 55.4609H0.255859V56.0246H114.231V55.4609Z" fill="#F1D1B7"/>
<path d="M114.231 54.8984H0.255859V55.4621H114.231V54.8984Z" fill="#F0D0B6"/>
<path d="M114.231 54.3359H0.255859V54.8996H114.231V54.3359Z" fill="#F0D0B4"/>
<path d="M114.231 53.7734H0.255859V54.3371H114.231V53.7734Z" fill="#F1CFB3"/>
<path d="M114.231 53.2109H0.255859V53.7745H114.231V53.2109Z" fill="#F0CEB2"/>
<path d="M114.231 52.6445H0.255859V53.2081H114.231V52.6445Z" fill="#F0CDB1"/>
<path d="M114.231 52.0781H0.255859V52.6417H114.231V52.0781Z" fill="#EFCCAF"/>
<path d="M114.231 51.5156H0.255859V52.0792H114.231V51.5156Z" fill="#EFCCAE"/>
<path d="M114.231 50.8906H0.255859V51.4542H114.231V50.8906Z" fill="#EFCBAD"/>
<path d="M114.231 50.3281H0.255859V50.8917H114.231V50.3281Z" fill="#EECAAC"/>
<path d="M114.231 49.7656H0.255859V50.3292H114.231V49.7656Z" fill="#EFC9AA"/>
<path d="M114.231 49.1992H0.255859V49.7628H114.231V49.1992Z" fill="#EEC8A9"/>
<path d="M114.231 48.6367H0.255859V49.2003H114.231V48.6367Z" fill="#EEC8A8"/>
<path d="M114.231 48.0703H0.255859V48.6339H114.231V48.0703Z" fill="#EEC7A6"/>
<path d="M114.231 47.5078H0.255859V48.0714H114.231V47.5078Z" fill="#EDC6A5"/>
<path d="M114.231 46.9453H0.255859V47.5089H114.231V46.9453Z" fill="#EDC5A4"/>
<path d="M114.231 46.3828H0.255859V46.9464H114.231V46.3828Z" fill="#ECC4A2"/>
<path d="M114.231 45.8203H0.255859V46.3839H114.231V45.8203Z" fill="#EDC3A1"/>
<path d="M114.231 45.2539H0.255859V45.8175H114.231V45.2539Z" fill="#EDC3A0"/>
<path d="M114.231 44.6289H0.255859V45.1925H114.231V44.6289Z" fill="#ECC29F"/>
</g>
<path d="M57.243 101.931C51.5442 101.931 42.589 101.931 33.6965 101.931C24.7413 101.931 15.7861 101.931 10.0247 101.931C4.26329 101.931 4.07542 101.117 2.57245 99.3005C-0.182997 95.9188 0.505857 89.5938 2.76031 79.0104C4.70165 69.6168 5.51577 65.7342 5.20265 56.3406C4.95216 48.7005 7.77023 45.6946 10.2126 44.63C13.3437 43.1896 17.1012 44.2542 18.9799 46.0077C19.6061 46.5713 20.295 47.2602 21.1091 48.1369C24.1776 51.2055 28.8744 55.9022 36.0135 60.2233C43.7163 64.8574 51.3563 64.1686 56.4915 58.4698C56.6794 58.2819 56.9299 58.1567 57.1804 58.1567C57.1804 58.1567 57.1803 58.1567 57.243 58.1567C57.243 58.1567 57.243 58.1567 57.3056 58.1567C57.5561 58.1567 57.8066 58.2819 57.9945 58.4698C63.1296 64.1686 70.7697 64.8574 78.4724 60.2233C85.6115 55.9022 90.3083 51.2681 93.3769 48.1369C94.191 47.3228 94.8799 46.5713 95.5061 46.0077C97.3848 44.2542 101.142 43.1896 104.273 44.63C106.716 45.7572 109.534 48.7005 109.283 56.3406C108.97 65.7342 109.784 69.6168 111.726 79.0104C113.917 89.5938 114.606 95.9814 111.914 99.3005C110.411 101.117 108.093 101.931 104.461 101.931C98.6999 101.931 89.7447 101.931 80.7895 101.931C71.8343 101.931 62.9417 101.931 57.243 101.931ZM13.3437 45.6946C12.5296 45.6946 11.7155 45.8198 10.9014 46.1956C8.14595 47.448 6.83087 50.8923 7.01874 56.1527C7.39448 65.7968 6.51775 69.7421 4.51379 79.3235C2.50983 88.8423 1.75835 95.2926 3.95018 98.048C5.01478 99.3631 6.9561 99.9894 9.96204 99.9894C15.7234 99.9894 24.6786 99.9894 33.6338 99.9894C42.589 99.9894 51.4816 99.9894 57.1804 99.9894H57.3056C63.0044 99.9894 71.9596 99.9894 80.8521 99.9894C89.8073 99.9894 98.7625 99.9894 104.524 99.9894C110.285 99.9894 109.409 99.3631 110.536 98.048C112.79 95.2926 111.976 88.8423 109.972 79.3235C107.968 69.8047 107.154 65.8594 107.467 56.1527C107.655 50.8923 106.277 47.448 103.585 46.1956C101.267 45.131 98.3242 45.8824 96.8212 47.2602C96.2576 47.8238 95.5061 48.5126 94.7546 49.3267C91.6234 52.5206 86.8014 57.28 79.4744 61.6636C71.3959 66.5483 62.9417 65.922 57.243 60.1607C51.5442 65.922 43.09 66.5483 35.0115 61.6636C27.6219 57.2173 22.8626 52.4579 19.7314 49.3267C18.9173 48.5126 18.2284 47.8238 17.6648 47.2602C16.6628 46.3208 15.0346 45.6946 13.3437 45.6946Z" fill="#BAA69A"/>
<path d="M106.091 71.8738C105.151 68.179 103.461 63.5448 101.143 60.9773C96.5093 55.9047 93.4407 57.2825 88.9318 59.9753C82.7947 63.6701 77.2211 71.2476 74.1526 76.2575C71.3345 80.8916 64.3833 83.8349 60.8137 78.5745C59.3734 76.4453 58.4966 71.2476 57.2441 71.2476C55.9917 71.2476 55.1149 76.4453 53.6746 78.5745C50.105 83.8349 43.2164 80.8916 40.3357 76.2575C37.2672 71.2476 31.631 63.6701 25.5565 59.9753C20.985 57.2198 17.9164 55.8421 13.3449 60.9773C11.0278 63.5448 9.33697 68.179 8.39762 71.8738C6.58153 79.1381 4.51494 87.4671 4.64019 92.9154C4.64019 96.1092 5.32905 100.931 9.96321 100.931C24.4919 100.931 53.2362 100.931 57.1815 100.931C61.1895 100.931 89.9337 100.931 104.4 100.931C118.866 100.931 109.66 96.1092 109.723 92.9154C109.848 87.4671 107.719 79.1381 105.965 71.8738H106.091Z" fill="white"/>
<path d="M67.89 101.868C62.6296 101.868 58.6843 101.868 57.3692 101.868H57.2439C54.6137 101.868 40.8365 101.868 27.4976 101.868C21.0474 101.868 14.785 101.868 10.0256 101.868C5.26621 101.868 3.95111 100.303 3.76324 92.9132C3.63799 87.4023 5.70457 79.1359 7.52066 71.8716V71.6211C8.1469 69.304 9.77513 63.6052 12.7184 60.3488C17.7283 54.7753 21.2979 56.2783 26.1199 59.2216C33.4469 63.6053 39.5214 72.9988 41.2123 75.8169C42.8405 78.5097 45.8464 80.451 48.5392 80.5137C50.3553 80.5137 51.8583 79.7622 52.9229 78.134C53.4865 77.3199 53.9875 75.8795 54.4259 74.5644C55.24 72.1221 55.8662 70.3686 57.2439 70.3686C58.6216 70.3686 59.1853 72.1221 60.062 74.5644C60.5004 75.8795 61.0014 77.3199 61.565 78.134C62.6296 79.6996 64.0699 80.5137 65.8234 80.5137C67.5768 80.5137 65.886 80.5137 65.9486 80.5137C68.6415 80.5137 71.6474 78.5097 73.2756 75.8169C74.9665 73.0614 81.041 63.6679 88.3679 59.2216C93.19 56.3409 96.7595 54.8379 101.769 60.3488C104.713 63.6052 106.341 69.304 106.905 71.6211V71.8716C108.783 79.1359 110.85 87.4023 110.725 92.9132C110.599 100.303 107.28 101.868 104.462 101.868C99.7028 101.868 93.4404 101.868 86.9902 101.868C80.1642 101.868 73.2756 101.868 67.7647 101.868H67.89ZM57.3692 99.9897C60.062 99.9897 73.8392 99.9897 87.1781 99.9897C93.6283 99.9897 99.8907 99.9897 104.65 99.9897C109.41 99.9897 108.846 99.9897 109.034 92.9132C109.159 87.6528 107.092 79.5117 105.339 72.3726V72.1221C104.212 67.6132 102.458 63.6679 100.58 61.6639C96.4464 57.0924 93.9415 58.2196 89.5578 60.8498C82.6066 65.0456 76.7199 74.126 75.0917 76.7562C73.0877 80.0127 69.5182 82.2671 66.1991 82.3298C63.6942 82.3298 61.6276 81.2651 60.1872 79.1359C59.4984 78.134 58.9974 76.5684 58.4338 75.128C58.1207 74.2513 57.7449 73.0614 57.3692 72.4978C57.0561 73.1241 56.6177 74.3139 56.3046 75.128C55.8036 76.631 55.24 78.134 54.5511 79.1359C53.1108 81.2651 50.9816 82.455 48.5392 82.3298C45.2202 82.2671 41.6506 80.0127 39.6467 76.7562C38.0184 74.0634 32.1318 64.983 25.1805 60.8498C20.7969 58.2196 18.292 57.0298 14.1588 61.6639C12.3427 63.6679 10.5266 67.6132 9.39938 72.1221V72.3726C7.58329 79.5743 5.5167 87.6528 5.64195 92.9132C5.7672 99.9897 8.96101 99.9897 10.0256 99.9897C14.785 99.9897 21.0474 99.9897 27.4976 99.9897C40.8365 99.9897 54.6137 99.9897 57.3066 99.9897H57.4318H57.3692Z" fill="#BAA69A"/>
<path d="M91.3737 17.3875C90.497 13.2544 88.9314 9.18382 86.0507 6.11526C80.9155 0.729616 72.8997 -0.147116 66.0737 1.98209C63.2557 2.85882 60.5002 4.1113 57.4943 4.23655C54.4883 4.1113 51.7329 2.92145 48.9148 1.98209C42.0888 -0.147116 34.0103 0.729616 28.9378 6.11526C26.0571 9.18382 24.4915 13.2544 23.6148 17.3875C21.423 27.5952 23.0512 38.5544 27.8732 47.8227C31.2549 54.3355 36.0143 59.9717 39.7717 66.2967C41.4 69.0521 45.7836 83.894 51.044 77.6316C51.9208 76.6296 52.2965 75.3771 52.6722 74.1247C53.4237 71.4318 54.2378 68.8643 54.9893 66.1714C55.3651 64.8563 56.0539 62.7898 57.4316 62.7898C58.8093 62.7898 59.373 64.7311 59.7487 66.0462C60.5002 68.739 61.3143 71.3692 62.0658 74.062C62.4415 75.3145 62.8173 76.6296 63.694 77.6316C68.9544 83.894 73.7138 69.1148 75.342 66.2967C79.0368 59.9717 83.8589 54.3355 87.2405 47.8227C92.0626 38.5544 93.6908 27.5952 91.499 17.3875H91.3737Z" fill="white"/>
<path d="M48.3515 80.0757C48.1636 80.0757 48.0383 80.0757 47.8505 80.0757C44.6567 79.5747 42.3396 74.7526 40.0851 69.367C39.5842 68.2398 39.2084 67.2378 38.8953 66.7994C37.3297 64.1066 35.451 61.4138 33.6975 58.8462C31.3804 55.4645 28.9381 52.0202 26.9968 48.2628C21.9869 38.6187 20.4213 27.5343 22.6757 17.2014C23.7403 12.1289 25.5564 8.30883 28.2492 5.49076C34.1359 -0.708992 42.9658 -0.834239 49.2282 1.1071C49.9171 1.29497 50.6059 1.54546 51.2948 1.79596C53.424 2.54744 55.4279 3.2363 57.5572 3.29893C59.6864 3.2363 61.6903 2.54744 63.8195 1.79596C64.5084 1.54546 65.1972 1.35759 65.8861 1.1071C72.1485 -0.834239 80.9158 -0.708992 86.8651 5.49076C89.4953 8.30883 91.3114 12.1289 92.4386 17.2014C94.6304 27.5343 93.1274 38.6187 88.1175 48.2628C86.1762 51.9576 83.7965 55.4645 81.4168 58.7836C79.6634 61.3511 77.7846 63.9813 76.219 66.7368C75.9685 67.1752 75.5302 68.1145 75.0918 69.1791C73.2757 73.3123 70.5203 79.512 66.8881 80.0757C65.5104 80.2635 64.1953 79.6373 63.0054 78.2596C62.0034 77.0697 61.5651 75.6294 61.1893 74.3143L58.8723 66.2984C58.6218 65.4217 58.1208 63.7309 57.4945 63.7309C56.8683 63.7309 56.6804 64.1066 55.9916 66.4237C55.6158 67.7388 55.2401 69.0539 54.8017 70.369C54.426 71.6841 54.0502 72.9992 53.6119 74.3143C53.2361 75.6294 52.7351 77.0697 51.7958 78.1969C50.7312 79.4494 49.6039 80.0757 48.4767 80.0757H48.3515ZM41.9012 1.85858C37.5802 1.85858 33.0086 3.17368 29.5643 6.80586C27.1846 9.31081 25.4938 12.8804 24.4918 17.6398C22.4252 27.4091 23.9282 38.3056 28.625 47.4487C30.5037 51.0809 32.8834 54.4625 35.2005 57.7816C37.0166 60.3492 38.8953 63.042 40.5235 65.8601C40.8366 66.4237 41.275 67.4257 41.8386 68.6781C43.2163 71.8719 45.7213 77.8838 48.1636 78.2596C48.4141 78.2596 49.1656 78.3848 50.2928 77.0697C51.0443 76.193 51.42 75.0658 51.7331 73.8759C52.1089 72.5608 52.4846 71.2457 52.923 69.9306C53.2988 68.6155 53.6745 67.3004 54.1128 65.9853C54.4886 64.7955 55.3027 61.9148 57.4319 61.9148C59.5611 61.9148 60.1874 64.3571 60.6257 65.8601L62.9428 73.8759C63.2559 75.0658 63.6317 76.2556 64.3832 77.1323C65.5104 78.4474 66.3245 78.3848 66.575 78.3222C69.1426 77.9464 71.8354 71.8093 73.2757 68.5529C73.7767 67.4257 74.2151 66.4863 74.5282 65.9227C76.1564 63.1046 78.0351 60.4744 79.8512 57.8442C82.1683 54.5252 84.548 51.1435 86.4267 47.5113C91.1861 38.3682 92.6891 27.4717 90.5599 17.7024C89.5579 12.943 87.8671 9.43606 85.4874 6.86848C80.1643 1.29497 72.1485 1.16972 66.4497 2.98581C65.7609 3.17368 65.1346 3.42418 64.4458 3.67467C62.2539 4.42616 60.0621 5.17764 57.6198 5.30289C55.1775 5.17764 52.9856 4.42616 50.7938 3.67467C50.1049 3.42418 49.4787 3.2363 48.7898 2.98581C46.7859 2.35957 44.4688 1.98383 42.0891 1.98383L41.9012 1.85858Z" fill="#BAA69A"/>
<g opacity="0.5">
<path d="M92.6869 31.0441C90.4951 31.0441 88.6164 32.9229 86.3619 32.9229C84.0448 32.9229 82.4166 31.0441 80.3501 30.2927C77.3441 29.228 74.0251 30.4179 70.9565 31.4199C67.2617 32.6097 63.5043 31.2946 59.559 31.9209C56.8035 32.3592 57.4924 36.1793 51.23 33.9248C49.7897 33.4238 48.5998 32.6097 47.1595 32.0461C45.7817 31.4825 44.0283 31.2946 42.7132 31.9835C41.1476 32.8602 40.7719 34.8016 39.1436 35.6157C37.7033 36.3045 35.8246 35.8662 34.5095 35.0521C33.1944 34.2379 32.1924 33.1107 30.9399 32.1714C26.9946 29.2907 20.1686 28.7271 21.2959 34.4884C23.0493 43.5689 28.3097 54.9664 33.9458 58.7238C34.8226 54.0271 41.3981 57.5966 41.0223 53.5261C42.3374 54.4654 43.0889 56.5946 44.7798 56.7825C45.9696 56.9077 48.9756 51.4595 50.2907 51.3342C53.1087 51.0211 54.2359 50.8959 55.1753 50.1444C56.052 49.4555 59.1206 53.1503 60.0599 53.0877C62.6275 52.9625 63.379 50.1444 65.3204 50.3323C68.201 50.6454 67.4495 54.528 70.5807 55.2169C70.5807 55.2169 73.3988 52.0857 74.4008 49.0798C77.9077 51.0837 81.7904 54.1523 83.0429 55.9684C89.3679 48.6414 92.6243 43.2558 93.0001 31.1068C92.8748 31.1068 92.8122 31.1068 92.6869 31.1068V31.0441Z" fill="#E4C759"/>
</g>
<path d="M40.6475 41.4375L39.1445 46.6979L41.6495 45.0071L40.6475 41.4375Z" fill="#BAA69A"/>
<path d="M31.88 49.7665L29.375 47.8878L31.1285 45.3828L31.88 49.7665Z" fill="#BAA69A"/>
<path d="M48.4764 49.4532L43.5918 48.7017L46.2846 47.4492L48.4764 49.4532Z" fill="#BAA69A"/>
<path d="M59.435 47.949L56.7422 48.1369L57.0553 46.0703L59.435 47.949Z" fill="#BAA69A"/>
<path d="M67.1358 44.0028L63.6289 44.7543L65.7581 42.5625L67.1358 44.0028Z" fill="#BAA69A"/>
<path d="M78.5979 42.8152L71.584 41.3122L77.0323 39.4961L78.5979 42.8152Z" fill="#BAA69A"/>
<path d="M81.4785 48.3878L81.6664 45.8828L83.733 47.3232L81.4785 48.3878Z" fill="#BAA69A"/>
<path d="M60.5611 38.9933L57.3047 41.1851L58.1188 38.4297L60.5611 38.9933Z" fill="#BAA69A"/>
<path d="M70.5193 49.704L68.8911 50.9565L68.6406 47.2617L70.5193 49.704Z" fill="#BAA69A"/>
<path d="M75.0908 45.8857L73.5879 45.5725L74.6525 44.4453L75.0908 45.8857Z" fill="#BAA69A"/>
<path d="M86.1131 42.0633L82.2305 41.8128L84.5476 39.6836L86.1131 42.0633Z" fill="#BAA69A"/>
<path d="M81.7291 53.3337L81.416 50.7035L83.921 50.5156L81.7291 53.3337Z" fill="#BAA69A"/>
<path d="M53.7363 46.1327L51.7949 45.5691L53.2353 44.1914L53.7363 46.1327Z" fill="#BAA69A"/>
<path d="M37.1424 50.4544L35.1385 52.6462L34.2617 49.8281L37.1424 50.4544Z" fill="#BAA69A"/>
</svg>
