<svg width="116" height="106" viewBox="0 0 116 106" fill="none" xmlns="http://www.w3.org/2000/svg">
<path d="M112.881 82.3555C110.799 72.5685 109.803 70.6655 107.268 61.1504C104.28 50.276 100.93 42.1202 97.0367 41.0327C86.9869 38.2235 83.2748 57.9787 76.4844 66.7688C71.2332 65.047 63.5374 61.6941 58.0145 55.5319C58.0145 55.5319 57.8334 55.7132 57.7429 55.8038C57.7429 55.7132 57.5618 55.6226 57.4713 55.5319C52.039 61.6035 44.3432 64.9564 39.0014 66.7688C32.211 57.9787 28.4989 38.2235 18.4491 41.0327C14.556 42.1202 11.1155 50.1854 8.21829 61.1504C5.68321 70.5749 4.68727 72.5685 2.60489 82.3555C-0.835581 98.6671 -0.473416 104.829 9.12368 104.829C18.7208 104.829 45.8823 104.829 57.6524 104.829H57.8334C69.6035 104.829 94.5921 104.829 106.362 104.829C118.132 104.829 116.321 98.7577 112.881 82.3555Z" fill="white"/>
<path d="M57.8337 105.282H57.6526C51.9487 105.282 42.9854 105.282 34.0221 105.282C24.6061 105.282 15.19 105.282 9.12395 105.282C3.05786 105.282 3.23894 104.466 1.88086 102.745C-0.835301 99.4823 -0.111003 93.0482 2.15246 82.2644C3.51054 75.7398 4.41592 72.7493 5.59292 68.6714C6.22669 66.5872 6.86048 64.231 7.76587 61.0593C11.2063 48.3725 14.6468 41.6666 18.3589 40.6698C25.5114 38.6762 29.5857 47.2851 33.4788 55.6221C35.2896 59.5188 37.1004 63.4155 39.2733 66.3153C44.6151 64.5029 52.0392 61.15 57.1999 55.3503L57.5621 54.9878L57.8337 55.2597L58.1053 54.9878L58.4675 55.3503C63.6282 61.15 71.0523 64.5029 76.3941 66.3153C78.4765 63.5061 80.3778 59.5188 82.1886 55.6221C86.0818 47.2851 90.156 38.6762 97.3086 40.6698C101.021 41.6666 104.461 48.3725 107.902 61.0593C108.807 64.231 109.441 66.5872 110.075 68.6714C111.252 72.84 112.157 75.8304 113.515 82.2644C115.778 92.9576 116.503 99.3916 113.787 102.745C112.338 104.466 110.074 105.282 106.543 105.282C100.568 105.282 91.0614 105.282 81.6454 105.282C72.682 105.282 63.7187 105.282 58.0148 105.282H57.8337ZM20.4413 41.2135C19.898 41.2135 19.2643 41.2135 18.6305 41.4854C15.3711 42.3916 12.0212 49.0975 8.67125 61.2406C7.76587 64.4123 7.13208 66.7684 6.49831 68.8527C5.3213 72.9306 4.41593 75.921 3.05785 82.4457C0.884922 92.6857 0.160613 99.1198 2.60516 102.11C3.8727 103.651 5.86456 104.285 9.12395 104.285C15.0995 104.285 24.6061 104.285 34.0221 104.285C42.9854 104.285 51.9487 104.285 57.6526 104.285L57.8337 104.738V104.285C63.5376 104.285 72.501 104.285 81.4643 104.285C90.8803 104.285 100.296 104.285 106.362 104.285C112.429 104.285 111.704 103.56 112.881 102.11C115.326 99.1198 114.601 92.5951 112.428 82.4457C111.07 76.0117 110.165 73.0212 108.988 68.8527C108.354 66.7684 107.72 64.4123 106.815 61.2406C103.465 49.0069 100.206 42.3916 96.8559 41.4854C90.4276 39.673 86.7155 47.5569 82.8224 55.9846C80.9211 59.9719 79.0197 64.1404 76.7563 67.0403L76.5752 67.3121H76.3036C70.8713 65.4091 63.4471 62.0562 58.0148 56.2565L57.8337 56.4377L57.5621 56.2565C52.1298 62.1468 44.6151 65.4997 39.2733 67.2215H39.0017C39.0017 67.3121 38.8206 67.0403 38.8206 67.0403C36.5571 64.1404 34.6558 59.9719 32.7545 55.9846C29.2235 48.4632 25.8736 41.3042 20.5318 41.3042L20.4413 41.2135Z" fill="#BAA69A"/>
<path d="M108.084 74.835C106.001 65.8636 104.191 56.3485 99.6636 49.1895C94.684 41.3056 91.6057 50.0957 89.4327 53.5393C87.1693 57.0735 83.8193 61.967 81.8275 64.7762C78.387 69.579 75.5803 75.1975 74.6749 77.3724C72.3209 82.8096 66.2549 89.8779 62.0901 81.0878C60.5509 77.8255 58.8307 68.3104 57.9253 68.6729C57.0199 68.401 55.2997 77.8255 53.7605 81.0878C49.5957 89.8779 43.5297 82.8096 41.1757 77.3724C40.2703 75.1975 37.4636 69.579 34.0231 64.7762C32.0313 62.0576 28.5908 57.0735 26.4178 53.5393C24.2449 50.0957 21.1666 41.3056 16.187 49.1895C11.6601 56.3485 9.84929 65.9542 7.7669 74.835C6.04667 82.2659 3.78319 90.8748 3.87373 96.4932C3.87373 99.7555 4.59804 104.74 9.30604 104.74C24.426 104.74 54.4848 104.74 58.0158 104.74C61.5468 104.74 91.6057 104.74 106.726 104.74C121.846 104.74 112.067 99.7555 112.158 96.4932C112.248 90.8748 109.985 82.3565 108.265 74.835H108.084Z" fill="white"/>
<path d="M68.6084 105.645C63.0855 105.645 58.9207 105.645 57.7437 105.645C55.3897 105.645 40.9941 105.645 27.1417 105.645H9.12451C6.31782 105.645 2.87735 104.014 2.78681 96.4925C2.69627 91.6897 4.32596 84.8025 5.86512 78.1873C6.13673 77.0092 6.40834 75.7405 6.67996 74.5625C6.86104 73.6563 7.13266 72.7501 7.31374 71.7532C9.12451 63.5974 11.0258 55.1698 15.1906 48.5545C16.7297 46.1077 18.3595 44.9297 19.9891 44.9297C22.6148 44.9297 24.5161 48.3733 25.9647 51.0012C26.3268 51.7262 26.689 52.3605 27.0511 52.9043C29.1335 56.1666 32.574 61.1507 34.6564 64.0505C38.0969 68.8534 40.9036 74.5625 41.8995 76.828C43.4386 80.4528 46.3359 84.0776 48.871 84.1682C50.3196 84.1682 51.6777 82.9901 52.8547 80.5434C53.4884 79.1841 54.2127 76.3749 54.937 73.9281C56.114 69.5783 56.5667 68.1284 57.3816 67.6753C57.5627 67.5847 57.7437 67.5847 57.9248 67.5847C58.1059 67.5847 58.287 67.5847 58.4681 67.6753C59.2829 68.1284 59.7356 69.5783 60.9126 73.9281C61.5464 76.3749 62.2707 79.0935 62.995 80.5434C64.172 82.9901 65.4395 84.1682 66.9787 84.1682C69.5138 84.1682 72.411 80.4528 73.9501 76.828C74.9461 74.5625 77.7528 68.8534 81.1932 64.0505C83.2756 61.1507 86.7161 56.1666 88.7985 52.9043C89.1606 52.3605 89.5228 51.7262 89.8849 51.0012C91.3336 48.2826 93.1443 45.0203 95.8605 44.9297C97.4902 44.9297 99.1199 46.0171 100.659 48.5545C104.824 55.1698 106.725 63.5974 108.536 71.7532C108.717 72.6594 108.989 73.6563 109.17 74.5625C109.441 75.7405 109.713 76.9186 109.985 78.1873C111.524 84.8025 113.153 91.599 113.063 96.4925C112.882 104.014 109.532 105.645 106.725 105.645H88.7079C81.6459 105.645 74.5839 105.645 68.88 105.645H68.6084ZM57.7437 103.833C60.0977 103.833 74.4934 103.833 88.3458 103.833H106.363C109.351 103.833 110.799 101.386 110.89 96.4925C110.89 91.8709 109.351 85.165 107.902 78.6404C107.631 77.4623 107.359 76.1936 107.087 75.0156C106.906 74.1094 106.635 73.1125 106.454 72.2063C104.643 64.2318 102.832 55.8947 98.8483 49.6419C97.6713 47.8295 96.5848 46.8327 95.6794 46.8327C94.0497 46.8327 92.42 49.8232 91.243 51.9981C90.8809 52.723 90.5187 53.448 90.1566 53.9917C87.9836 57.4353 84.5432 62.3287 82.5513 65.2286C79.2014 69.9408 76.4852 75.378 75.4893 77.6435C74.1312 80.7246 70.8718 85.9806 66.8881 86.0712C66.8881 86.0712 66.8881 86.0712 66.7976 86.0712C64.6247 86.0712 62.7233 84.5307 61.2747 81.4496C60.5504 79.909 59.8261 77.1904 59.1018 74.5625C58.7397 73.2032 58.287 71.3908 57.9248 70.3033C57.5627 71.3908 57.11 73.1125 56.7478 74.5625C56.0235 77.1904 55.2992 79.909 54.5749 81.4496C53.1263 84.5307 51.2249 86.0712 49.052 86.0712C46.8791 86.0712 49.052 86.0712 48.9615 86.0712C44.9778 86.0712 41.6279 80.7246 40.3603 77.6435C39.3644 75.378 36.6482 69.9408 33.2983 65.2286C31.2159 62.3287 27.866 57.4353 25.6931 53.9917C25.3309 53.448 24.9687 52.723 24.6066 51.9981C23.4296 49.8232 21.7999 46.9233 20.1702 46.8327C19.2648 46.8327 18.0878 47.7389 17.0014 49.6419C13.0177 55.9853 11.1164 64.2318 9.39612 72.2063C9.21504 73.1125 8.94341 74.1094 8.76234 75.0156C8.49072 76.1936 8.21911 77.3717 7.9475 78.6404C6.40834 85.165 4.86919 91.8709 4.95973 96.4925C5.05027 101.477 6.49889 103.833 9.48666 103.833H27.5038C41.3562 103.833 55.7519 103.833 58.1059 103.833H57.7437Z" fill="#BAA69A"/>
<path d="M92.7795 18.8326C91.8741 14.5735 90.2444 10.405 87.3472 7.23328C82.0959 1.70546 73.7664 0.799257 66.7949 2.97414C63.8977 3.88034 61.091 5.14902 58.0127 5.23964C54.9344 5.14902 52.1276 3.88034 49.2304 2.97414C42.2589 0.799257 33.9294 1.70546 28.6781 7.23328C25.6904 10.405 24.1512 14.5735 23.2458 18.8326C20.9823 29.3446 22.7026 40.5815 27.5917 50.0966C31.0321 56.8025 36.0118 62.6021 39.8144 69.0362C41.4441 71.936 46.3332 87.1602 51.7655 80.7262C52.6709 79.7293 53.033 78.37 53.3952 77.0107C54.21 74.2921 55.0249 71.4829 55.8397 68.7643C56.2019 67.405 56.7451 65.8645 58.1032 65.4114C59.3707 65.8645 60.0045 67.405 60.3666 68.7643C61.1815 71.4829 61.9964 74.2921 62.8112 77.0107C63.1734 78.2794 63.626 79.6387 64.4409 80.7262C69.8732 87.1602 74.7623 71.936 76.392 69.0362C80.1946 62.5115 85.0837 56.8025 88.6147 50.0966C93.5943 40.5815 95.224 29.3446 92.9606 18.8326H92.7795Z" fill="white"/>
<path d="M66.9758 83.2622C65.7988 83.2622 64.6217 82.6279 63.5353 81.3592C62.5393 80.1812 62.0867 78.6406 61.7245 77.3719L59.28 69.1255C59.0084 68.0381 58.5557 67.0412 57.9219 66.4975C57.2881 66.9506 56.8354 68.0381 56.5638 69.1255L54.1193 77.3719C53.7571 78.7312 53.3044 80.1812 52.3085 81.3592C51.1315 82.8091 49.7734 83.4435 48.4153 83.2622C44.7033 82.7185 41.8965 76.3751 40.0858 72.116C39.6331 71.0285 39.1804 70.1223 38.9088 69.5786C37.2791 66.7694 35.3778 64.0508 33.567 61.4228C31.213 57.9792 28.6779 54.4451 26.6861 50.5484C21.5254 40.5802 19.9862 29.2527 22.2497 18.6501C23.3361 13.3942 25.2374 9.4975 27.9536 6.59766C34.0197 0.254255 42.983 0.0730151 49.4113 2.06666C50.1356 2.2479 50.8599 2.51976 51.4936 2.79162C53.6666 3.51658 55.749 4.24154 58.0124 4.33216C60.1854 4.33216 62.2677 3.51658 64.4407 2.79162C65.165 2.51976 65.7988 2.33852 66.5231 2.06666C72.9513 0.0730151 81.9146 0.163635 87.9807 6.59766C90.6969 9.4975 92.5982 13.3942 93.6846 18.6501C95.9481 29.2527 94.409 40.5802 89.2483 50.5484C87.2564 54.3544 84.8119 57.9792 82.3673 61.4228C80.5565 64.0508 78.6552 66.7694 77.0255 69.5786C76.7539 70.0317 76.3012 71.0285 75.8485 72.116C73.9472 76.3751 71.1405 82.7185 67.519 83.2622C67.3379 83.2622 67.1568 83.2622 66.9758 83.2622ZM41.8965 2.79162C37.4602 2.79162 32.7521 4.15092 29.2211 7.86634C26.7766 10.4943 25.0564 14.1191 23.9699 19.0126C21.797 29.0714 23.3361 40.3083 28.2252 49.7328C30.1265 53.4482 32.5711 56.9824 34.9251 60.3354C36.7359 62.9633 38.7277 65.7726 40.3574 68.5818C40.7196 69.1255 41.0817 70.1223 41.6249 71.3004C43.1641 74.6533 45.8802 80.9967 48.5964 81.3592C49.3207 81.4498 50.1356 81.0874 50.8599 80.0905C51.5842 79.1843 51.9463 77.9156 52.3085 76.7376L54.753 68.4912C55.1152 67.3131 55.6584 65.2288 57.5597 64.5039C57.7408 64.5039 58.0124 64.5039 58.1935 64.5039C60.0043 65.2288 60.638 67.3131 61.0002 68.4912L63.4448 76.7376C63.8069 77.9156 64.169 79.1843 64.8933 80.0905C65.7082 80.9967 66.4325 81.4498 67.1568 81.3592C69.873 80.9967 72.5891 74.6533 74.1283 71.3004C74.6715 70.1223 75.0337 69.2161 75.3958 68.5818C77.1161 65.6819 79.0174 62.9633 80.8281 60.3354C83.1822 56.8918 85.6267 53.4482 87.528 49.7328C92.4171 40.3083 93.9563 29.1621 91.7833 19.0126C90.6969 14.1191 89.0672 10.4943 86.5321 7.86634C81.0092 2.06666 72.7702 1.97604 66.8852 3.87906C66.1609 4.0603 65.5271 4.33216 64.8028 4.60402C62.6299 5.32898 60.2759 6.14456 57.8313 6.23518C55.2963 6.14456 52.9423 5.32898 50.7693 4.60402C50.045 4.33216 49.4112 4.15092 48.6869 3.87906C46.6046 3.24472 44.2506 2.79162 41.7155 2.79162H41.8965Z" fill="#BAA69A"/>
<path d="M85.6263 29.615C84.902 26.4433 82.7291 21.9122 80.0129 20.0092C75.7576 17.0188 69.8726 16.2938 64.5308 17.925C62.3579 18.6499 61.0903 18.9218 57.831 20.0092C54.5716 18.9218 53.304 18.6499 51.1311 17.925C45.7893 16.2938 39.9948 17.0188 35.649 20.0092C32.9328 21.9122 30.7599 26.3526 30.0356 29.615C29.3113 32.6054 28.3154 40.9425 32.118 48.2827C34.7436 53.3574 36.9165 56.3479 39.3611 61.6038C40.9002 64.8662 45.7893 82.3558 48.8676 82.3558C51.9459 82.3558 52.3081 73.8375 52.5797 71.9345C53.123 67.5848 53.2135 62.1476 57.7404 62.1476C62.2673 62.1476 62.3579 67.5848 62.9011 71.9345C63.1727 73.8375 64.4403 82.3558 66.6132 82.3558C69.6915 82.3558 74.5806 64.8662 76.1198 61.6038C78.5643 56.4385 80.7372 53.448 83.3629 48.2827C87.1655 41.0331 86.079 32.696 85.4452 29.615H85.6263Z" fill="white"/>
<path d="M66.7952 83.2625C64.2601 83.2625 62.902 77.1909 62.1777 72.1162C62.1777 71.6631 62.0872 71.21 61.9967 70.6663C61.4534 66.0447 60.8196 63.0542 57.9224 63.0542C55.0252 63.0542 54.3914 66.0447 53.8482 70.4851C53.8482 71.0288 53.7576 71.5725 53.6671 72.0256C52.9428 77.1003 51.5847 83.1719 49.0496 83.1719C46.5145 83.1719 44.3416 77.9159 40.539 66.9509C39.7241 64.6854 39.0904 62.6917 38.6377 61.8762C37.2796 58.9763 36.0121 56.8014 34.654 54.5359C33.6581 52.7235 32.5716 50.9111 31.3946 48.6456C26.9582 40.0367 29.0406 30.431 29.3122 29.3435C30.1271 25.9 32.3905 21.2784 35.2878 19.1941C39.8147 16.0224 45.8808 15.2068 51.4942 17.0192C52.309 17.2911 53.0333 17.4723 53.6671 17.6536C54.8441 18.016 56.0211 18.3785 57.9224 18.9222C59.8237 18.2879 61.0007 17.9254 62.1777 17.6536C62.902 17.4723 63.5358 17.2005 64.3507 17.0192C69.9641 15.2974 76.0301 16.113 80.5571 19.1941C83.4543 21.1877 85.7178 25.9 86.5326 29.3435C86.8042 30.431 88.8866 39.9461 84.4502 48.6456C83.2732 50.9111 82.1867 52.7235 81.1908 54.5359C79.8327 56.8014 78.5652 59.0669 77.2071 61.8762C76.845 62.6917 76.1207 64.6854 75.3058 66.9509C71.5032 77.9159 69.3303 83.1719 66.7952 83.1719V83.2625ZM57.9224 61.2418C62.721 61.2418 63.3547 66.3165 63.8074 70.3944C63.8074 70.8475 63.8979 71.3913 63.9885 71.8444C64.7128 77.2816 66.0709 81.1782 66.7952 81.4501C68.4249 81.1782 72.137 70.4851 73.495 66.4072C74.3099 63.9604 75.0342 62.0574 75.3964 61.1512C76.845 58.1607 78.1125 55.9858 79.4706 53.6297C80.4665 51.9079 81.553 50.0049 82.73 47.83C86.0799 41.3054 85.5367 33.4215 84.7218 29.7966C83.9975 26.6249 81.9151 22.3658 79.4706 20.7346C75.3964 17.9254 69.8735 17.2005 64.8034 18.741C63.9885 19.0129 63.2642 19.1941 62.5399 19.3753C61.3629 19.7378 60.0953 20.1003 58.1035 20.7346C57.9224 20.7346 57.7413 20.7346 57.5603 20.7346C55.5684 20.1003 54.3009 19.7378 53.1239 19.3753C52.3995 19.1941 51.6752 18.9222 50.8604 18.741C45.7902 17.1098 40.2674 17.9254 36.1931 20.7346C33.7486 22.3658 31.6662 26.6249 30.9419 29.7966C30.127 33.4215 29.4933 41.3054 32.9337 47.83C34.1108 50.0049 35.1067 51.9079 36.1931 53.6297C37.5512 55.9858 38.8188 58.1607 40.2674 61.1512C40.7201 62.0574 41.3539 63.9604 42.1687 66.4072C43.5268 70.3944 47.2389 81.1782 48.9591 81.4501C49.6834 81.1782 51.0415 77.2816 51.7658 71.8444C51.7658 71.3006 51.8563 70.8475 51.9469 70.3038C52.3996 66.3165 53.0333 61.2418 57.8319 61.2418H57.9224Z" fill="#BAA69A"/>
<path d="M77.4785 41.3039C77.2974 38.6759 76.3015 36.3198 75.034 34.5074C73.2232 31.97 69.149 30.9732 66.1612 31.6076C63.0829 32.2419 61.1815 32.7856 58.1032 33.8731C55.0249 32.7856 53.1236 32.2419 50.0453 31.6076C47.0575 31.0638 42.9833 32.0607 41.1725 34.5074C39.8144 36.3198 38.8185 38.6759 38.728 41.3039C38.4564 45.9255 39.8144 48.3723 41.7158 54.172C43.0738 58.2499 43.7076 61.1497 44.9751 65.3182C45.79 67.9462 47.4197 82.2642 49.0494 82.2642C50.6791 82.2642 50.8601 75.377 50.9507 73.9271C51.2223 70.3929 50.8602 58.1592 58.4654 58.1592C66.0706 58.1592 65.2558 70.3929 65.618 73.9271C65.7085 75.4677 66.4328 82.2642 67.5193 82.2642C69.0584 82.2642 70.7787 67.9462 71.5935 65.3182C72.861 61.1497 73.4948 58.3405 74.8529 54.172C76.7542 48.2817 78.1123 45.9255 77.8407 41.3039H77.4785Z" fill="white"/>
<path d="M67.1564 83.2604C66.4321 83.2604 65.1646 83.2604 64.3497 74.0172C64.3497 73.6547 64.3497 73.2016 64.2592 72.6579C63.9876 68.2175 63.4443 59.1555 58.1025 59.1555C52.7608 59.1555 51.8554 68.1269 51.5838 72.4766C51.5838 73.111 51.5838 73.6547 51.4932 74.1078C50.6784 83.3511 49.4108 83.3511 48.6865 83.3511C47.1474 83.3511 46.5136 81.1762 44.7934 70.9361C44.4312 68.6706 44.0691 66.5863 43.7975 65.7708C43.2542 64.049 42.8921 62.5084 42.4394 61.0585C41.8961 58.9743 41.3529 57.0712 40.5381 54.6245C40.1759 53.3558 39.7232 52.2684 39.4516 51.3622C38.1841 47.6467 37.2787 45.2906 37.5503 41.4846C37.7314 38.2223 39.0894 35.6849 40.1759 34.235C42.3488 31.2445 46.8758 30.3383 49.9541 30.9726C53.0324 31.607 54.9337 32.1507 57.8309 33.1475C60.7282 32.1507 62.6295 31.5164 65.7078 30.9726C68.8767 30.3383 73.313 31.3351 75.486 34.235C76.5724 35.7755 77.9305 38.2223 78.1116 41.4846C78.2927 45.2906 77.4778 47.7374 76.2103 51.3622C75.8481 52.359 75.486 53.4464 75.1238 54.6245C74.309 56.9806 73.7657 58.9743 73.2225 61.0585C72.8604 62.5084 72.4077 64.049 71.8644 65.7708C71.5928 66.5863 71.2307 68.6706 70.8685 70.9361C69.1483 81.1762 68.424 83.3511 66.9753 83.3511L67.1564 83.2604ZM48.1433 32.4226C45.7893 32.4226 43.0732 33.3288 41.7151 35.1412C40.7192 36.5005 39.5421 38.5847 39.3611 41.4846C39.18 44.9281 39.9043 47.103 41.1718 50.7278C41.534 51.7246 41.8961 52.8121 42.3488 54.0808C43.1637 56.5275 43.7069 58.5212 44.2501 60.6054C44.6123 62.0553 45.065 63.5959 45.6082 65.3177C45.8798 66.2239 46.242 68.2175 46.6042 70.6642C47.1474 73.6547 47.9622 78.8201 48.6865 80.9043C49.0487 79.545 49.5014 76.917 49.6825 74.0172C49.6825 73.6547 49.6825 73.111 49.6825 72.4766C49.9541 67.5832 50.4068 57.4337 58.012 57.4337C65.6173 57.4337 65.6173 67.7644 65.9794 72.6579C65.9794 73.2016 65.9794 73.6547 65.9794 74.0172C66.251 76.8264 66.6132 79.545 66.9753 80.8137C67.6997 78.7294 68.605 73.5641 69.0577 70.5736C69.5104 68.0363 69.782 66.1332 70.0537 65.227C70.5969 63.5053 70.959 61.9647 71.4117 60.5148C71.955 58.4305 72.4982 56.4369 73.3131 53.9901C73.7657 52.7215 74.1279 51.634 74.49 50.6372C75.7576 47.0124 76.4819 44.8375 76.3008 41.394C76.1197 38.5847 74.9427 36.4099 73.9468 35.0505C72.2266 32.785 68.5145 31.9695 65.8889 32.4226C62.8106 33.0569 60.9093 33.6006 57.9215 34.6881C57.7404 34.6881 57.5593 34.6881 57.2877 34.6881C54.2999 33.6006 52.4892 33.0569 49.3203 32.4226C48.8676 32.3319 48.3244 32.2413 47.6906 32.2413L48.1433 32.4226Z" fill="#BAA69A"/>
<mask id="mask0_631_7398" style="mask-type:luminance" maskUnits="userSpaceOnUse" x="22" y="1" width="72" height="82">
<path d="M92.7814 18.8326C91.8761 14.5735 90.2464 10.405 87.3491 7.23328C82.0979 1.70546 73.7683 0.799257 66.7968 2.97414C63.8996 3.88034 61.0929 5.14902 58.0146 5.23964C54.9363 5.14902 52.1296 3.88034 49.2324 2.97414C42.2609 0.799257 33.9313 1.70546 28.6801 7.23328C25.6923 10.405 24.1531 14.5735 23.2478 18.8326C20.9843 29.3446 22.7045 40.5815 27.5936 50.0966C31.0341 56.8025 36.0137 62.6021 39.8163 69.0362C41.446 71.936 46.3351 87.1602 51.7674 80.7262C52.6728 79.7293 53.035 78.37 53.3971 77.0107C54.212 74.2921 55.0268 71.4829 55.8417 68.7643C56.2038 67.405 56.7471 65.8645 58.1051 65.4114C59.3727 65.8645 60.0064 67.405 60.3686 68.7643C61.1834 71.4829 61.9983 74.2921 62.8132 77.0107C63.1753 78.2794 63.628 79.6387 64.4428 80.7262C69.8752 87.1602 74.7643 71.936 76.3939 69.0362C80.1966 62.5115 85.0857 56.8025 88.6167 50.0966C93.5963 40.5815 95.226 29.3446 92.9625 18.8326H92.7814Z" fill="white"/>
</mask>
<g mask="url(#mask0_631_7398)">
<path d="M62.9031 10.0399C62.3598 5.59955 64.7138 4.87459 68.2449 2.6997C69.0597 2.33722 69.6935 1.97474 70.2367 1.7935C70.2367 1.7935 70.2367 1.7935 70.0556 1.7935C70.4178 1.52164 70.0556 1.52164 69.1502 1.61226C67.43 1.3404 63.9895 1.15916 61.7261 1.97474C59.2815 2.88094 58.9194 3.06218 57.7424 3.06218C56.5654 3.06218 56.2032 2.88094 53.7587 1.97474C51.5857 1.15916 48.0547 1.43102 46.3345 1.61226C45.5196 1.52164 45.067 1.52164 45.4291 1.7935C45.3386 1.7935 45.248 1.7935 45.248 1.7935C45.7913 2.06536 46.5156 2.33722 47.2399 2.6997C50.7709 4.87459 53.2155 5.69017 52.5817 10.0399C51.8574 16.2021 46.9683 17.1989 46.9683 17.1989C46.8777 18.2864 54.7546 23.9048 57.6518 24.086C60.5491 23.9048 68.5165 18.2864 68.3354 17.1989C68.3354 17.1989 63.4463 16.2021 62.722 10.0399H62.9031Z" fill="#8C6E5E"/>
</g>
</svg>
