<svg width="115" height="76" viewBox="0 0 115 76" fill="none" xmlns="http://www.w3.org/2000/svg">
<path d="M112.041 53.0664C109.987 43.4146 109.005 41.5378 106.505 32.1541C103.558 21.4298 100.255 13.3866 96.4151 12.3141C86.5041 9.54371 82.8433 29.0262 76.1466 37.695C72.3965 36.4438 67.3963 34.3883 62.8426 31.0816C62.7533 31.0816 62.664 31.0816 62.5747 31.0816C62.5747 31.3497 62.3962 31.6179 62.3069 31.7966C62.3069 31.886 62.1283 32.0647 62.039 32.1541C62.039 32.1541 62.039 32.2434 61.9497 32.3328C61.8604 32.5115 61.6818 32.6009 61.5033 32.7797C60.6104 33.4946 59.3603 33.6733 58.1996 33.7627C56.3245 33.8521 53.8244 33.7627 52.128 32.6903C51.7708 32.5115 51.5029 32.2434 51.3243 31.9753C47.1278 34.8351 42.6633 36.6225 39.2704 37.7843C32.5737 29.1155 28.9129 9.63308 19.0019 12.4035C15.1625 13.4759 11.7694 21.4298 8.9122 32.2434C6.41212 41.5378 5.42998 43.5039 3.37634 53.1558C-0.0166273 69.2422 0.340484 75.3193 9.80509 75.3193C19.2697 75.3193 46.0563 75.3193 57.6639 75.3193H57.8425C69.45 75.3193 94.0936 75.3193 105.701 75.3193C117.309 75.3193 115.523 69.3316 112.13 53.1558L112.041 53.0664Z" fill="white"/>
<path d="M57.7541 76.1224H57.5756C51.9504 76.1224 43.1108 76.1224 34.2712 76.1224C24.9852 76.1224 15.6992 76.1224 9.71684 76.1224C3.73449 76.1224 3.73447 75.2287 2.21656 73.4413C-0.551387 70.0453 0.162933 63.6107 2.39515 52.8865C3.73448 46.4519 4.62736 43.5027 5.78811 39.3917C6.41313 37.3362 7.03817 35.102 7.93106 31.8847C11.4133 19.0156 14.8063 12.4917 18.6457 11.4192C26.0567 9.36374 30.1639 18.0325 34.0926 26.4332C35.7891 30.0974 37.5749 33.8508 39.5393 36.6213C43.8251 35.1914 47.5752 33.3146 50.7896 31.1698L51.5039 30.7229L52.0397 31.3485C52.2183 31.5273 52.3968 31.706 52.5754 31.8847C53.8255 32.5997 55.7898 32.9572 58.1113 32.8678C59.3614 32.8678 60.2542 32.5103 60.8793 32.0635C60.9685 32.0635 61.0578 31.8847 61.1471 31.7954C61.1471 31.6166 61.2364 31.5273 61.3257 31.4379C61.3257 31.2591 61.5043 31.0804 61.5043 30.991L61.6829 30.2761H63.0222L63.2901 30.4548C66.7723 33.0465 70.9689 35.102 75.7012 36.8C77.6656 34.119 79.4513 30.2761 81.1478 26.612C85.0765 18.2113 89.0945 9.54248 96.5947 11.598C100.434 12.6704 103.827 19.1943 107.309 32.0635C108.202 35.1914 108.827 37.515 109.452 39.5705C110.613 43.6814 111.506 46.6306 112.845 53.0652C115.078 63.7895 115.792 70.224 113.024 73.6201C111.506 75.4074 109.184 76.3011 105.524 76.3011C99.6305 76.3011 90.2552 76.3011 80.9692 76.3011C72.1296 76.3011 63.2901 76.3011 57.6649 76.3011L57.7541 76.1224ZM20.7887 12.9385C20.2529 12.9385 19.7171 12.9385 19.1814 13.2066C17.0385 13.8322 13.6455 17.5857 9.71684 32.4209C8.82395 35.5489 8.19891 37.8725 7.57388 39.9279C6.41313 43.9495 5.52026 46.8987 4.18092 53.2439C2.12728 63.1639 1.32371 69.5091 3.64521 72.2795C4.71668 73.6201 6.68102 74.335 9.71684 74.335C15.6099 74.335 24.9852 74.335 34.2712 74.335C43.1108 74.335 51.9504 74.335 57.5756 74.335L57.7541 75.2287V74.335C63.3793 74.335 72.2189 74.335 81.0585 74.335C90.3446 74.335 99.6306 74.335 105.613 74.335C111.595 74.335 110.613 73.7094 111.685 72.2795C114.006 69.4197 113.202 63.1639 111.149 53.2439C109.809 46.8987 108.917 43.9495 107.756 39.9279C107.131 37.8725 106.506 35.5489 105.613 32.4209C101.595 17.6751 98.2019 13.8322 96.1483 13.2066C90.1659 11.5086 86.5944 19.1943 82.8443 27.2375C80.9692 31.2591 79.0941 35.3701 76.7726 38.2299L76.4155 38.7661L75.7905 38.5874C70.8796 36.9788 66.5937 34.8339 62.9329 32.3316C62.9329 32.5103 62.7543 32.5997 62.665 32.6891C62.665 32.7784 62.5757 32.8678 62.4864 32.8678C62.3079 33.1359 62.1293 33.3146 61.8615 33.404C60.7007 34.2977 59.1828 34.4764 58.1113 34.5658C56.5934 34.6552 53.6469 34.5658 51.5039 33.404C51.3254 33.3146 51.1468 33.2253 51.0575 33.0465C47.6645 35.2807 43.7358 37.0681 39.3607 38.498L38.7357 38.6768L38.3785 38.1406C36.1463 35.1914 34.1819 31.0804 32.3069 27.1482C28.9139 19.8199 25.6102 12.8491 20.6101 12.8491L20.7887 12.9385Z" fill="#BAA69A"/>
<path d="M107.219 45.7377C105.166 36.8902 103.38 27.5064 98.9154 20.4463C94.0045 12.6712 90.9686 21.34 88.8257 24.736C86.5935 28.2214 83.2899 33.0473 81.3255 35.8178C77.9325 40.5543 75.1646 46.0952 74.2717 48.24C71.9502 53.6022 65.9679 60.573 61.8606 51.9042C60.3427 48.6869 58.6462 39.3031 57.7533 39.6606C56.8604 39.3925 55.1639 48.6869 53.646 51.9042C49.5387 60.573 43.5564 53.6022 41.2349 48.24C40.342 46.0952 37.5741 40.5543 34.1811 35.8178C32.2167 33.1367 28.8237 28.2214 26.6808 24.736C24.5379 21.34 21.5021 12.6712 16.5912 20.4463C12.1268 27.5064 10.341 36.9795 8.28737 45.7377C6.59088 53.066 4.35862 61.556 4.44791 67.0969C4.44791 70.3142 5.16222 75.2295 9.80523 75.2295C24.7164 75.2295 54.3603 75.2295 57.8426 75.2295C61.3248 75.2295 90.9687 75.2295 105.88 75.2295C120.791 75.2295 111.148 70.3142 111.237 67.0969C111.326 61.556 109.094 53.1553 107.398 45.7377H107.219Z" fill="white"/>
<path d="M68.3793 76.1229C62.9327 76.1229 58.8255 76.1229 57.6647 76.1229C55.3432 76.1229 41.1463 76.1229 27.4851 76.1229H9.71666C6.94871 76.1229 3.55574 74.5142 3.46645 67.0966C3.37716 62.36 4.98438 55.568 6.50229 49.044C6.77015 47.8822 7.03799 46.6311 7.30585 45.4693C7.48443 44.5756 7.75231 43.6819 7.93088 42.6988C9.71666 34.6556 11.5917 26.3443 15.699 19.8204C17.2169 17.4074 18.8241 16.2456 20.4313 16.2456C23.0207 16.2456 24.8957 19.6416 26.3243 22.2333C26.6815 22.9483 27.0387 23.5739 27.3958 24.0207C29.5387 27.4167 32.8424 32.2427 34.8961 35.0131C38.2891 39.7497 41.057 45.3799 42.0392 47.6141C43.5571 51.1889 46.4143 54.7637 48.9144 54.853C50.343 54.853 51.5931 53.6912 52.7538 51.2783C53.3788 49.9377 54.0931 47.1673 54.8074 44.7543C55.9682 40.4646 56.4147 38.9453 57.2183 38.5879C57.3968 38.4985 57.5754 38.4985 57.754 38.4985C57.9325 38.4985 58.1112 38.4985 58.2897 38.5879C59.004 38.9453 59.4504 40.1965 60.7005 44.7543C61.3255 47.1673 62.0399 49.8484 62.7542 51.2783C63.9149 53.6912 65.1649 54.853 66.5936 54.853C69.0936 54.853 71.9509 51.1889 73.4688 47.6141C74.451 45.3799 77.2189 39.7497 80.6119 35.0131C82.6655 32.1533 85.9692 27.3274 88.1121 24.0207C88.4693 23.4845 88.8264 22.8589 89.1836 22.144C90.6122 19.4629 92.398 16.2456 95.0766 16.1562C96.6838 16.1562 98.2911 17.2287 99.809 19.731C103.916 26.2549 105.791 34.5663 107.577 42.6095C107.756 43.5032 108.023 44.4862 108.202 45.3799C108.47 46.5417 108.738 47.7035 109.006 48.9547C110.524 55.4786 112.131 62.1813 112.041 67.0072C111.863 74.4248 108.559 76.0335 105.791 76.0335H88.0229C81.0583 76.0335 74.0938 76.0335 68.4686 76.0335L68.3793 76.1229ZM57.6647 74.3355C59.9862 74.3355 74.1831 74.3355 87.8443 74.3355H105.613C108.559 74.3355 109.988 71.9225 110.077 67.0966C110.077 62.5388 108.559 55.9255 107.131 49.4909C106.863 48.3291 106.595 47.0779 106.327 45.9161C106.148 45.0224 105.881 44.0394 105.702 43.1457C103.916 35.2812 102.13 27.0593 98.2017 20.8928C97.041 19.1054 95.9695 18.1224 95.0766 18.1224C93.4694 18.1224 91.8623 21.0715 90.7015 23.2164C90.3444 23.9314 89.9872 24.6463 89.63 25.1825C87.4871 28.5785 84.0941 33.4045 82.1298 36.2643C78.8261 40.9115 76.1474 46.2736 75.1653 48.5078C73.8259 51.5464 70.6115 56.7298 66.6828 56.8192C66.6828 56.8192 66.6829 56.8192 66.5936 56.8192C64.4506 56.8192 62.5755 55.2999 61.1469 52.2613C60.4326 50.7421 59.7183 48.061 59.004 45.4693C58.6469 44.1287 58.2004 42.3414 57.8433 41.2689C57.4861 42.3414 57.0396 44.0394 56.6825 45.4693C55.9682 48.061 55.2539 50.7421 54.5396 52.2613C53.111 55.2999 51.2359 56.8192 49.093 56.8192C46.95 56.8192 49.093 56.8192 49.0037 56.8192C45.075 56.8192 41.7713 51.5464 40.5213 48.5078C39.5391 46.2736 36.8604 40.9115 33.5568 36.2643C31.5031 33.4045 28.1994 28.5785 25.9672 25.1825C25.6101 24.6463 25.2529 23.9314 24.8957 23.2164C23.735 21.0715 22.1278 18.2117 20.5206 18.1224C19.6277 18.1224 18.4669 19.0161 17.3955 20.8928C13.4668 27.1486 11.5917 35.2812 9.89525 43.1457C9.71667 44.0394 9.44879 45.0224 9.27021 45.9161C9.00235 47.0779 8.73446 48.2397 8.46659 49.4909C6.94869 55.9255 5.43079 62.5388 5.52008 67.0966C5.60937 72.0119 7.03799 74.3355 9.98451 74.3355H27.753C41.4142 74.3355 55.611 74.3355 57.9326 74.3355H57.6647Z" fill="#BAA69A"/>
<path d="M87.7572 3.64201C86.15 4.26759 84.4535 4.44633 82.9356 4.98254C82.8463 5.16128 82.6677 5.42939 82.5784 5.60813C81.9534 6.59119 81.4177 7.66362 80.882 8.64667C80.0784 10.0766 79.0069 11.864 77.3997 12.5789C76.9532 15.26 74.9889 17.5836 72.846 19.1922C73.1139 19.9072 72.6674 20.6221 72.0424 20.8902C71.5959 21.069 71.0602 20.8902 70.703 20.5328C69.6316 21.1583 68.3815 21.6052 67.1315 21.6946C66.3279 21.7839 65.435 21.6946 64.6314 21.4264C63.9171 21.4264 63.2028 21.4264 62.5778 21.4264C62.4885 22.052 62.1313 22.6776 61.5063 23.1245C60.6134 23.8394 59.3634 24.0181 58.2026 24.1075C56.3276 24.1969 53.8275 24.1075 52.131 23.0351C51.506 22.5882 51.0595 22.052 50.7917 21.3371C50.5238 20.6221 50.4345 19.8178 49.9881 19.1922C49.5416 18.5666 48.6488 18.4773 48.0237 18.3879C47.1309 18.2092 46.3272 18.0304 45.4344 17.8517C44.4522 17.6729 43.47 17.3155 42.7557 16.6899C42.1307 16.0643 41.7735 15.1706 41.595 14.3663C41.595 14.0982 41.4164 13.6513 41.3271 13.4726C41.3271 13.4726 41.3271 13.4726 41.2378 13.3832C41.0592 13.3832 40.9699 13.2939 40.7913 13.2939C39.9877 13.2045 39.0949 13.2939 38.202 13.2939C37.0412 13.1151 35.9698 12.6683 35.1662 11.864C34.8983 11.864 34.6304 11.6852 34.4519 11.5065C33.1125 10.7022 32.6661 8.82541 32.4875 7.39551C32.4875 6.85929 32.4875 6.32308 32.3982 5.69749C32.3982 5.69749 32.3982 5.51876 32.3982 5.42939C32.3982 5.42939 32.3982 5.42939 32.3982 5.34002C32.3982 5.34002 32.3982 5.34002 32.3982 5.25065C32.3982 5.25065 32.3982 5.16128 32.3089 5.07191C31.9518 5.07191 31.5946 4.89317 31.2374 4.8038C30.2553 4.8038 29.2731 4.80381 28.4695 4.26759C27.5766 3.82075 26.9516 2.92706 26.4159 2.12273C25.2551 1.76526 24.0943 1.49715 22.9336 1.22904C23.1122 8.2892 24.898 15.3494 28.2016 21.6052C31.5946 28.2185 36.5055 33.9381 40.2556 40.2833C41.8628 43.1431 46.6844 58.1571 52.0417 51.8119C52.9346 50.8288 53.2918 49.4883 53.6489 48.1478C54.4525 45.4667 55.2561 42.6963 56.0597 40.0152C56.4169 38.6747 56.9526 37.1554 58.2919 36.7085C59.542 37.1554 60.167 38.6747 60.5242 40.0152C61.3278 42.6963 62.1313 45.4667 62.9349 48.1478C63.2921 49.3989 63.7386 50.7395 64.5422 51.8119C69.8995 58.1571 74.721 43.1431 76.3282 40.2833C80.0783 33.8487 84.8999 28.2185 88.3822 21.6052C91.6859 15.26 93.4717 8.11046 93.6502 0.960938C91.9538 1.85463 90.168 2.74832 88.3822 3.46327L87.7572 3.64201Z" fill="white"/>
<path d="M66.6845 54.405C65.5238 54.405 64.363 53.7794 63.2916 52.5282C62.3094 51.3664 61.863 49.8471 61.5058 48.596L59.095 40.4634C58.8271 39.391 58.3807 38.4079 57.7557 37.8717C57.1307 38.3185 56.6842 39.391 56.4163 40.4634L54.0055 48.596C53.6484 49.9365 53.2019 51.3664 52.2198 52.5282C51.059 53.9581 49.7197 54.5837 48.3804 54.405C44.7195 53.8687 41.9516 47.6129 40.1658 43.4126C39.7193 42.3401 39.2729 41.4465 39.005 40.9102C37.3978 38.1398 35.5228 35.4587 33.737 32.867C31.4155 29.471 28.9154 25.9856 26.9511 22.1427C23.6474 15.7082 21.7723 8.55865 21.5938 1.40913C21.5938 1.14102 21.683 0.872918 21.8616 0.69418C22.0402 0.515442 22.3081 0.426072 22.576 0.515441C23.826 0.694179 24.9867 1.05166 26.2368 1.40913C26.4154 1.40913 26.5939 1.58787 26.6832 1.76661C27.1297 2.48156 27.6654 3.19651 28.3797 3.64336C29.094 4.00083 29.9869 4.0902 30.7012 4.00083C30.7905 4.00083 30.8798 4.00083 30.9691 4.00083C31.3262 4.0902 31.6834 4.17957 32.0405 4.26894C32.2191 4.26894 32.3084 4.35831 32.487 4.53705C32.487 4.53705 32.5763 4.62642 32.6656 4.71579V4.89452C32.7549 4.89452 32.7548 4.89452 32.7548 4.89452C32.7548 4.89452 32.7549 5.07326 32.8442 5.16263C32.8442 5.252 32.8442 5.34137 32.8442 5.43074C32.8442 5.60948 32.8442 5.69885 32.8442 5.78821C32.8442 6.05632 32.8442 6.23506 32.8442 6.50317C32.8442 6.77127 32.8442 7.12875 32.8442 7.39686C33.0227 8.55865 33.2906 10.2567 34.362 10.8822C34.5406 10.9716 34.7192 11.061 34.8978 11.1504C34.9871 11.1504 35.1656 11.2397 35.2549 11.3291C35.9692 12.044 36.8621 12.4015 37.8443 12.4909C38.2015 12.4909 38.5586 12.4909 39.005 12.4909C39.4515 12.4909 39.898 12.4909 40.4337 12.4909C40.7016 12.4909 40.9694 12.5803 41.148 12.6696C41.3266 12.759 41.5051 12.9377 41.6837 13.1165C41.773 13.2952 41.8623 13.5633 41.9516 14.0102C42.1301 14.8145 42.398 15.6188 42.8444 16.0657C43.4695 16.6019 44.4517 16.87 45.166 17.0487C46.0589 17.2274 46.8624 17.4062 47.7553 17.5849H47.9339C48.6482 17.7637 49.7197 17.9424 50.3447 18.7467C50.7019 19.1936 50.8805 19.8192 50.9698 20.266C50.9698 20.5341 51.1483 20.8022 51.2376 20.9809C51.5055 21.6065 51.8626 21.964 52.3091 22.2321C53.5591 22.9471 55.5235 23.3045 57.845 23.2152C59.095 23.2152 59.9879 22.8577 60.6129 22.4108C60.9701 22.1427 61.2379 21.6959 61.3272 21.2491C61.3272 20.8022 61.7737 20.5341 62.2201 20.5341H62.5773C63.113 20.5341 63.6487 20.5341 64.1845 20.5341C64.2738 20.5341 64.4524 20.5341 64.5416 20.5341C65.256 20.7128 65.881 20.8022 66.5953 20.7128C67.6667 20.6235 68.6489 20.266 69.8096 19.6404C70.1668 19.4617 70.524 19.551 70.8811 19.8192C70.9704 19.9085 71.149 19.9979 71.3276 19.9085C71.4169 19.9085 71.5061 19.8191 71.5954 19.6404C71.5954 19.6404 71.5954 19.4617 71.5954 19.3723C71.5061 19.0148 71.5954 18.568 71.8633 18.2999C74.1848 16.6019 75.7027 14.3676 76.0599 12.2228C76.0599 11.9547 76.3278 11.6866 76.5956 11.5972C77.9349 11.061 78.9171 9.27361 79.7207 8.02244C80.0779 7.48623 80.3457 6.95001 80.6136 6.4138C80.8815 5.96695 81.1493 5.43074 81.4172 4.98389C81.5065 4.80515 81.6851 4.53705 81.7744 4.35831C81.7744 4.17957 81.9529 4.0902 82.1315 4.00083C82.1315 4.00083 82.1315 4.00083 82.2208 4.00083C83.0244 3.73273 83.9173 3.46462 84.7209 3.28588C85.5245 3.10714 86.328 2.92841 87.0424 2.6603C88.9174 1.94535 90.6139 1.05166 92.2211 0.247335C92.489 0.0685967 92.8462 0.0685967 93.114 0.247335C93.3819 0.426073 93.5605 0.694181 93.5605 1.05166C93.3819 8.29055 91.5961 15.6188 88.2031 22.0534C86.2388 25.8069 83.828 29.3816 81.4172 32.7777C79.6314 35.3694 77.7564 38.0504 76.1492 40.8209C75.8813 41.2677 75.4348 42.2508 74.9884 43.3232C73.1133 47.5235 70.3454 53.7794 66.7739 54.3156C66.5953 54.3156 66.4167 54.3156 66.2381 54.3156L66.6845 54.405ZM57.7557 35.9949C57.845 35.9949 57.9343 35.9949 58.1128 35.9949C59.8986 36.7099 60.5236 38.7654 60.8808 39.9272L63.2916 48.0598C63.6487 49.2216 64.0059 50.4727 64.7202 51.3664C65.5238 52.2601 66.2381 52.7069 66.9524 52.6176C69.6311 52.2601 72.3097 46.0043 73.8276 42.6976C74.3634 41.5358 74.7205 40.6421 75.0777 40.0165C76.7742 37.1567 78.6492 34.4757 80.435 31.884C82.7565 28.4879 85.1673 25.0919 87.0424 21.4278C90.0782 15.6188 91.7747 9.18424 92.1318 2.74967C90.8818 3.37525 89.5424 4.00083 88.1138 4.53705C87.3102 4.89452 86.4174 5.07326 85.6138 5.252C84.8994 5.43074 84.2744 5.60948 83.5601 5.78821C83.5601 5.87758 83.3815 6.05632 83.3815 6.14569C83.1137 6.59253 82.8458 7.03938 82.5779 7.57559C82.3101 8.11181 81.9529 8.64802 81.685 9.2736C80.8814 10.6141 79.81 12.4909 78.2028 13.3846C77.6671 15.6188 76.0599 17.9424 73.8276 19.8192C73.8276 20.1766 73.8276 20.5341 73.5598 20.8022C73.2919 21.3384 72.8455 21.7853 72.2205 21.964C71.6847 22.1427 71.0597 22.1427 70.5239 21.8746C69.3632 22.4109 68.2024 22.7683 67.131 22.9471C66.2381 23.0364 65.3452 22.9471 64.4523 22.679C64.0059 22.679 63.5594 22.679 63.113 22.679C62.8451 23.3045 62.488 23.7514 61.9523 24.1982C60.7915 25.0919 59.2736 25.2707 58.2021 25.36C56.6842 25.4494 53.7377 25.36 51.5948 24.1982C50.6126 23.5726 50.1661 22.7683 49.8983 22.1427C49.7197 21.7853 49.6304 21.5172 49.5411 21.1597C49.4518 20.8022 49.2732 20.4447 49.0947 20.1766C48.9161 19.9085 48.2911 19.8191 47.8446 19.7298H47.6661C46.7732 19.551 45.8803 19.3723 45.0767 19.1936C44.1838 19.0148 42.9337 18.6574 41.9516 17.7637C41.148 17.0487 40.7908 15.9763 40.523 14.9932C40.523 14.7251 40.523 14.6357 40.523 14.5464C40.1658 14.5464 39.8086 14.5464 39.4515 14.5464C39.005 14.5464 38.4693 14.5464 38.0229 14.5464C36.7728 14.3676 35.6121 13.9208 34.6299 13.0271C34.3621 12.9377 34.0942 12.8484 33.8263 12.6696C32.1298 11.5972 31.6834 9.45234 31.4155 7.8437C31.4155 7.48622 31.4155 7.12875 31.4155 6.77127C31.4155 6.59253 31.4155 6.32443 31.4155 6.14569C31.2369 6.14569 31.0583 6.05632 30.7905 5.96695C29.8976 5.96695 28.7368 5.96695 27.6654 5.34137C26.6832 4.80516 25.9689 3.91147 25.4332 3.10714C24.8081 2.92841 24.0939 2.74967 23.4688 2.57093C23.826 9.09487 25.5224 15.6188 28.5583 21.4278C30.4333 25.0919 32.8441 28.5773 35.1656 31.884C36.9514 34.4757 38.9158 37.2461 40.523 40.0165C40.8801 40.5528 41.2373 41.5358 41.773 42.6976C43.2909 46.0043 45.9696 52.2601 48.6482 52.6176C49.3625 52.7069 50.1661 52.3495 50.8804 51.3664C51.5947 50.4727 51.9519 49.2216 52.3091 48.0598L54.7199 39.9272C55.077 38.7654 55.6128 36.7099 57.4878 35.9949C57.5771 35.9949 57.6664 35.9949 57.845 35.9949H57.7557Z" fill="#BAA69A"/>
<path d="M85.5236 4.26906C84.6307 4.44779 83.8271 4.7159 83.0235 4.98401C82.9342 5.16274 82.7557 5.43085 82.6664 5.60959C82.0413 6.59265 81.5056 7.66508 80.9699 8.64814C80.1663 10.078 79.0948 11.8654 77.4876 12.5804C77.0412 15.2614 75.0768 17.585 72.9339 19.1937C73.2017 19.9086 72.7553 20.6236 72.1303 20.8917C71.6839 21.0704 71.1481 20.8917 70.791 20.5342C69.7195 21.1598 68.4695 21.6066 67.2194 21.696C66.4158 21.7854 65.5229 21.696 64.7193 21.4279C64.005 21.4279 63.2907 21.4279 62.6657 21.4279C62.6657 21.8748 62.3978 22.2322 62.13 22.5897C61.9514 22.7684 61.8621 22.9472 61.5942 23.0365C60.7013 23.7515 59.4513 23.9302 58.2906 24.0196C58.0227 24.0196 57.6655 24.0196 57.3084 24.0196C57.3084 24.0196 57.1298 24.0196 57.0405 24.0196C56.6833 24.0196 56.4155 24.0196 56.0583 24.0196C55.7012 24.0196 55.344 24.0196 54.9869 23.9302H54.8083C54.4511 23.9302 54.1833 23.7515 53.8261 23.6621C53.2904 23.4834 52.7546 23.3047 52.3082 23.0365C51.6832 22.5897 51.2367 22.0535 50.9689 21.3385C50.701 20.6236 50.6117 19.8193 50.1653 19.1937C49.7188 18.5681 48.8259 18.4787 48.2009 18.3894C47.308 18.2106 46.5044 18.0319 45.6116 17.8531C44.6294 17.6744 43.6472 17.3169 42.9329 16.6913C42.3079 16.0658 41.9507 15.1721 41.7722 14.3678C41.7722 14.0996 41.5935 13.6528 41.5042 13.4741C41.5042 13.4741 41.5043 13.4741 41.415 13.3847C41.2364 13.3847 41.1471 13.2953 40.9685 13.2953C40.1649 13.206 39.272 13.2953 38.3791 13.2953C37.2184 13.1166 36.147 12.6697 35.3434 11.8654C35.0755 11.8654 34.8076 11.6867 34.6291 11.5079C33.2897 10.7036 32.8433 8.82687 32.6647 7.39697C32.6647 6.86076 32.6647 6.32454 32.5754 5.69896C32.5754 5.69896 32.5754 5.52022 32.5754 5.43085C32.5754 5.43085 32.5754 5.43085 32.5754 5.34148C32.5754 5.34148 32.5754 5.34148 32.5754 5.25211C32.5754 5.25211 32.5754 5.16275 32.4861 5.07338C32.1289 5.07338 31.7718 4.89464 31.4146 4.80527C31.0575 4.80527 30.7003 4.80527 30.4325 4.80527C30.0753 8.7375 30.2539 14.5465 32.9325 19.8193C35.5219 24.8239 37.6648 27.7731 40.0756 32.9565C41.5936 36.1738 46.4151 53.422 49.451 53.422C52.4868 53.422 52.8439 45.0213 53.1118 43.1446C53.6475 38.8549 54.8976 33.4927 58.2012 33.4927C61.5049 33.4927 62.755 38.8549 63.2907 43.1446C63.5586 45.0213 64.8086 53.422 66.9515 53.422C69.9873 53.422 74.8089 36.1738 76.3268 32.9565C78.7376 27.8625 80.8806 24.9133 83.4699 19.8193C86.3272 14.2784 86.4165 8.11192 85.9701 4.17969L85.5236 4.26906Z" fill="white"/>
<path d="M66.417 54.4027C63.9169 54.4027 62.5776 48.4149 61.8633 43.4103C61.2383 38.495 60.4347 34.4734 57.6667 34.4734C54.8988 34.4734 54.2737 37.5119 53.4701 43.4103C52.7558 48.4149 51.4165 54.4027 48.9164 54.4027C46.4164 54.4027 44.2734 49.2193 40.5233 38.4056C39.7197 36.1714 39.0947 34.2053 38.6482 33.4009C37.3089 30.5411 36.0588 28.3963 34.7195 26.1621C33.7373 24.3747 32.6659 22.5873 31.5051 20.3531C28.4693 14.5441 28.5586 8.10951 28.8265 4.80286C28.8265 4.35601 29.2729 3.99854 29.8086 3.99854C30.0765 3.99854 30.4337 3.99854 30.7015 3.99854C30.7908 3.99854 30.8801 3.99854 30.9694 3.99854C31.3265 4.08791 31.6837 4.17728 32.0409 4.26665C32.2194 4.26665 32.3087 4.35601 32.4873 4.53475C32.4873 4.53475 32.5766 4.62412 32.6659 4.71349V4.89223C32.7552 4.89223 32.7551 4.89223 32.7551 4.89223C32.7551 4.89223 32.7551 4.89223 32.7551 4.9816C32.7551 4.9816 32.7552 5.07097 32.8445 5.16034C32.8445 5.24971 32.8445 5.33907 32.8445 5.42844C32.8445 5.60718 32.8445 5.69655 32.8445 5.78592C32.8445 6.05403 32.8445 6.23276 32.8445 6.50087C32.8445 6.76898 32.8445 7.12645 32.8445 7.39456C33.023 8.55636 33.2909 10.2544 34.3623 10.88C34.5409 10.9693 34.7195 11.0587 34.8981 11.1481C34.9874 11.1481 35.1659 11.2374 35.2552 11.3268C35.9695 12.0418 36.8624 12.3992 37.8446 12.4886C38.2018 12.4886 38.5589 12.4886 39.0054 12.4886C39.4518 12.4886 39.8983 12.4886 40.434 12.4886C40.7019 12.4886 40.9697 12.578 41.1483 12.6673C41.3269 12.6673 41.5055 12.9354 41.5948 13.1142C41.684 13.2929 41.7733 13.561 41.9519 14.0972C42.1305 14.9016 42.3983 15.7059 42.8448 16.1527C43.4698 16.6889 44.452 16.957 45.1663 17.1358C46.0592 17.3145 46.8627 17.4933 47.7556 17.672H47.9342C48.6485 17.8507 49.72 18.0295 50.345 18.8338C50.7022 19.2806 50.8808 19.9062 50.9701 20.3531C50.9701 20.6212 51.1486 20.8893 51.2379 21.068C51.5058 21.6936 51.8629 22.0511 52.3094 22.3192C52.6665 22.4979 53.113 22.766 53.6487 22.8554C53.9166 22.8554 54.1845 23.0341 54.5416 23.0341H54.7202C55.0774 23.1235 55.3452 23.1235 55.7024 23.2129C56.0595 23.2129 56.4166 23.2129 56.6845 23.2129H56.9524C57.3096 23.2129 57.5774 23.2129 57.8453 23.2129C59.0953 23.2129 59.9882 22.8554 60.6132 22.4086C60.7025 22.4086 60.7918 22.2298 60.9704 22.0511C61.149 21.783 61.3275 21.5149 61.3275 21.2468C61.3275 20.7999 61.774 20.5318 62.2204 20.5318H62.5776C63.1133 20.5318 63.649 20.5318 64.1848 20.5318C64.2741 20.5318 64.4527 20.5318 64.542 20.5318C65.2563 20.7105 65.8813 20.7999 66.5956 20.7105C67.667 20.6212 68.6492 20.2637 69.81 19.6381C70.1671 19.4594 70.5243 19.5488 70.8814 19.8169C70.9707 19.9062 71.1493 19.9956 71.3279 19.9062C71.4172 19.9062 71.5064 19.8169 71.5957 19.6381C71.5957 19.6381 71.5957 19.4594 71.5957 19.37C71.5064 19.0125 71.5957 18.5657 71.8636 18.2976C74.1851 16.5996 75.703 14.3653 76.0602 12.2205C76.0602 11.9524 76.3281 11.6843 76.5959 11.5949C77.9353 11.0587 78.9174 9.27131 79.721 8.02015C79.9889 7.48393 80.3461 6.94772 80.6139 6.4115C80.8818 5.96466 81.1496 5.42844 81.4175 4.9816C81.5068 4.80286 81.6854 4.53475 81.7747 4.35601C81.7747 4.26664 81.9532 4.08791 82.1318 4.08791C82.1318 4.08791 82.2211 4.08791 82.3104 4.08791C83.114 3.8198 84.0068 3.55169 84.8104 3.37296H84.989C85.2569 3.28359 85.5248 3.37295 85.7033 3.46232C85.8819 3.64106 86.0605 3.8198 86.0605 4.08791C86.4177 7.48393 86.6855 14.0972 83.4711 20.2637C82.3104 22.4979 81.2389 24.2853 80.2567 26.0727C78.9174 28.3069 77.6673 30.5411 76.328 33.3116C75.9709 34.1159 75.2566 36.082 74.453 38.3162C70.7029 49.1299 68.5599 54.3133 66.0598 54.3133L66.417 54.4027ZM57.6667 32.686C62.2204 32.686 63.1133 38.6737 63.6491 43.1422C64.3634 48.5043 65.7027 52.4365 66.417 52.6153C68.0242 52.3472 71.685 41.8016 73.0244 37.78C73.828 35.3671 74.5423 33.4903 74.8994 32.5966C76.328 29.6474 77.5781 27.5026 78.9174 25.179C79.8996 23.481 80.971 21.6042 82.1318 19.4594C84.8104 14.3653 84.8998 8.7351 84.6319 5.33907C84.2748 5.42844 83.8283 5.51781 83.4711 5.69655C83.4711 5.78592 83.2926 5.96466 83.2926 6.05403C83.0247 6.50087 82.7568 6.94772 82.489 7.48393C82.2211 8.02014 81.8639 8.55636 81.5961 9.09257C80.7925 10.4331 79.721 12.3099 78.1138 13.2035C77.5781 15.4378 75.9709 17.7614 73.7387 19.6381C73.7387 19.9956 73.7387 20.3531 73.4708 20.6212C73.203 21.1574 72.7565 21.6042 72.1315 21.783C71.5958 21.9617 70.9707 21.9617 70.435 21.6936C69.2742 22.2298 68.1135 22.5873 67.042 22.766C66.1491 22.8554 65.2563 22.766 64.3634 22.4979C63.9169 22.4979 63.4705 22.4979 63.024 22.4979C62.9347 22.766 62.7561 23.1235 62.4883 23.3916C62.3097 23.6597 62.0419 23.8385 61.8633 24.0172C60.7025 24.9109 59.1846 25.0896 58.1132 25.179C57.756 25.179 57.3988 25.179 57.1309 25.179H56.8631C56.5059 25.179 56.1488 25.179 55.7916 25.179C55.3452 25.179 54.988 25.179 54.6309 25.0003H54.4523C54.0058 24.9109 53.6487 24.8215 53.3809 24.7322C52.6666 24.5534 52.1308 24.2853 51.5951 24.0172C50.6129 23.3916 50.1665 22.5873 49.8986 21.9617C49.72 21.6042 49.6307 21.3361 49.5414 20.9787C49.4521 20.6212 49.2735 20.2637 49.095 19.9956C48.9164 19.7275 48.2914 19.6381 47.845 19.5487H47.6664C46.7735 19.37 45.8806 19.1913 45.077 19.0125C44.1841 18.8338 42.934 18.4763 41.9519 17.5826C41.1483 16.8677 40.7911 15.7952 40.5233 14.8122C40.5233 14.5441 40.5233 14.4547 40.5233 14.3653C40.1661 14.3653 39.809 14.3653 39.4518 14.3653C39.0054 14.3653 38.4696 14.3653 38.0232 14.3653C36.7732 14.1866 35.6124 13.7398 34.6302 12.8461C34.3624 12.7567 34.0945 12.6673 33.8266 12.4886C32.1301 11.4162 31.6837 9.27131 31.4158 7.66267C31.4158 7.30519 31.4158 6.94772 31.4158 6.59024C31.4158 6.4115 31.4158 6.1434 31.4158 5.96466C31.2372 5.96466 31.0587 5.87529 30.7908 5.78592C30.7908 5.78592 30.7908 5.78592 30.7015 5.78592C30.5229 9.0032 30.7015 14.4547 33.2016 19.4594C34.3623 21.6042 35.3446 23.481 36.416 25.179C37.7553 27.5026 39.0054 29.6474 40.434 32.5966C40.8805 33.4903 41.5055 35.3671 42.309 37.78C43.6484 41.7123 47.3092 52.3472 49.0057 52.5259C49.72 52.2578 51.0593 48.4149 51.7736 43.0528C52.3986 38.5844 53.6487 32.5966 57.756 32.5966L57.6667 32.686Z" fill="#BAA69A"/>
<path d="M72.7562 19.1952C73.0241 19.9102 72.5777 20.6251 71.9527 20.8932C71.5062 21.072 70.9705 20.8932 70.6133 20.5358C69.5419 21.1614 68.2918 21.6082 67.0418 21.6976C66.2382 21.7869 65.3453 21.6976 64.5417 21.4295C63.8274 21.4295 63.1131 21.4295 62.488 21.4295C62.3987 22.055 62.0416 22.6806 61.4166 23.1275C60.9702 23.4849 60.4344 23.6637 59.988 23.8424C59.8094 23.8424 59.5415 23.9318 59.3629 24.0212C59.3629 24.0212 59.1844 24.0212 59.0951 24.0212C58.8272 24.0212 58.4701 24.0212 58.2022 24.1105C57.845 24.1105 57.4879 24.1105 57.1307 24.1105C57.1307 24.1105 57.0415 24.1105 56.9522 24.1105C56.595 24.1105 56.1485 24.1105 55.7914 24.1105C54.5413 24.0212 53.202 23.6637 52.2198 23.0381C51.5948 22.5913 51.1484 22.055 50.8805 21.3401C50.6126 20.6251 50.5234 19.8208 50.0769 19.1952C49.6305 18.5696 48.7376 18.4803 48.1126 18.3909C47.2197 18.2122 46.4161 18.0334 45.5232 17.8547C44.541 17.676 43.5588 17.3185 42.8445 16.6929C42.2195 16.0673 41.8624 15.1736 41.6838 14.3693C41.6838 14.1012 41.5052 13.6544 41.4159 13.4756C41.4159 13.4756 41.4159 13.4756 41.3267 13.3862C41.1481 13.3862 41.0588 13.2969 40.8802 13.2969C40.2552 13.2969 39.5408 13.2969 38.8265 13.2969C38.648 17.5866 39.9873 19.9996 41.7731 25.6298C43.1124 29.6514 43.7374 32.5112 44.9875 36.6222C45.7911 39.2139 47.3983 53.3342 49.0055 53.3342C50.6127 53.3342 50.7912 46.5422 50.8805 45.1122C51.1484 41.6269 50.1662 29.562 58.2915 29.562C66.4168 29.562 64.9881 41.6269 65.3453 45.1122C65.4346 46.6315 66.1489 53.3342 67.2204 53.3342C68.7383 53.3342 70.4348 39.2139 71.2384 36.6222C72.4884 32.5112 73.1134 29.7408 74.4527 25.6298C76.2385 20.1783 77.4885 17.7653 77.3993 13.565C76.5957 15.7098 74.9885 17.676 73.1134 19.0165L72.7562 19.1952Z" fill="white"/>
<path d="M66.8639 54.4028C66.1496 54.4028 64.8996 54.4028 64.096 45.2872C64.096 44.751 64.096 44.036 64.096 43.1423C64.096 37.0652 63.4709 30.5413 58.0243 30.5413C52.5777 30.5413 51.7741 38.8526 51.5956 43.3211C51.5956 44.1254 51.5956 44.751 51.5956 45.2872C50.792 54.4028 49.5419 54.4028 48.8276 54.4028C47.3097 54.4028 46.6847 52.258 44.9882 42.1593C44.631 39.925 44.2739 37.8696 44.006 37.0652C43.4703 35.3672 43.1131 33.848 42.6667 32.418C42.131 30.3626 41.5952 28.4858 40.7916 26.0728C40.4344 24.8217 39.988 23.7493 39.7201 22.8556C38.4701 19.3702 37.6665 17.0466 37.8451 13.4718C37.8451 13.025 38.2915 12.5781 38.738 12.5781C38.738 12.5781 38.7379 12.5781 38.8272 12.5781C39.0058 12.5781 39.1844 12.5781 39.4523 12.5781C39.8987 12.5781 40.3452 12.5781 40.8809 12.5781C41.1488 12.5781 41.4166 12.6675 41.5952 12.7569C41.7738 12.7569 41.9524 13.025 42.0417 13.2037C42.131 13.3824 42.2202 13.6506 42.3988 14.1868C42.5774 14.9911 42.8452 15.7954 43.2917 16.2423C43.9167 16.7785 44.8989 17.0466 45.6132 17.2253C46.5061 17.4041 47.3097 17.5828 48.2025 17.7615H48.3811C49.0954 17.9403 50.1669 18.119 50.7919 18.9233C51.1491 19.3702 51.3277 19.9958 51.417 20.4426C51.417 20.7107 51.5955 20.9788 51.6848 21.1576C51.9527 21.7831 52.3099 22.1406 52.7563 22.4087C53.5599 22.8556 54.6313 23.213 55.9707 23.3024C56.3278 23.3024 56.685 23.3024 57.0422 23.3024H57.2207C57.5779 23.3024 57.9351 23.3024 58.2922 23.3024C58.5601 23.3024 58.8279 23.3024 59.0958 23.3024H59.3636C59.5422 23.3024 59.7208 23.213 59.8994 23.1237C60.3458 22.9449 60.7923 22.8556 61.0601 22.5875C61.4173 22.3193 61.6852 21.8725 61.7744 21.4257C61.7744 20.9788 62.2209 20.7107 62.6673 20.7107H63.0245C63.5602 20.7107 64.096 20.7107 64.6317 20.7107C64.721 20.7107 64.8996 20.7107 64.9889 20.7107C65.7032 20.8894 66.3282 20.9788 67.0425 20.8894C68.114 20.8001 69.0961 20.4426 70.2569 19.817C70.614 19.6383 70.9712 19.7276 71.3283 19.9958C71.4176 20.0851 71.5962 20.1745 71.7748 20.0851C71.8641 20.0851 71.9534 19.9958 72.0426 19.817C72.0426 19.817 72.0426 19.6383 72.0426 19.5489C71.9534 19.1914 72.0426 18.7446 72.3105 18.4765C74.1856 17.0466 75.6142 15.2592 76.2392 13.4718C76.4178 13.025 76.7749 12.8462 77.2214 12.8462C77.6678 12.8462 77.9357 13.2931 77.9357 13.7399C77.9357 17.1359 77.2214 19.3702 75.9714 22.7662C75.6142 23.7493 75.257 24.8217 74.8999 25.9835C74.0963 28.3071 73.5606 30.2732 73.0248 32.3287C72.6677 33.7586 72.2213 35.2779 71.6855 36.9759C71.4177 37.7802 71.0605 39.8357 70.7033 42.0699C69.0068 52.1686 68.2925 54.3135 66.8639 54.3135V54.4028ZM39.4523 14.3655C39.4523 17.1359 40.1666 19.1021 41.238 22.23C41.5952 23.213 41.9523 24.2855 42.3988 25.5366C43.2024 27.9496 43.7381 29.9157 44.2739 31.9712C44.631 33.4011 45.0775 34.9204 45.6132 36.6184C45.8811 37.5121 46.2382 39.4782 46.5954 41.8912C47.1311 44.8403 47.9347 49.9344 48.649 51.9899C49.0061 50.6493 49.4526 48.0576 49.6312 45.1978C49.6312 44.751 49.6312 44.1254 49.6312 43.3211C49.7205 38.5845 49.9884 28.8433 57.8458 28.8433C65.7032 28.8433 65.6139 38.4951 65.7032 43.1423C65.7032 43.9467 65.7032 44.6616 65.7032 45.1978C65.971 48.0576 66.3282 50.6493 66.6853 51.9899C67.3996 49.9344 68.2925 44.8403 68.7389 41.8912C69.1854 39.3888 69.4533 37.5121 69.7212 36.6184C70.2569 34.9204 70.614 33.4905 71.0605 32.0606C71.5962 30.0051 72.1319 28.039 72.9355 25.626C73.382 24.3748 73.7391 23.3024 74.0963 22.3193C74.7213 20.532 75.1678 19.1021 75.5249 17.7615C74.8999 18.4765 74.2749 19.1021 73.5606 19.7276C73.5606 20.0851 73.5606 20.4426 73.2927 20.7107C73.0248 21.2469 72.5784 21.6938 71.9534 21.8725C71.4176 22.0512 70.7926 22.0512 70.2569 21.7831C69.0961 22.3193 67.9354 22.6768 66.8639 22.8556C65.971 22.9449 65.0781 22.8556 64.1852 22.5875C63.7388 22.5875 63.2924 22.5875 62.8459 22.5875C62.5781 23.213 62.2209 23.6599 61.6852 24.1067C61.2387 24.4642 60.6137 24.7323 59.8994 24.911C59.6315 24.911 59.453 25.0004 59.1851 25.0898C59.0065 25.0898 59.0065 25.0898 58.9172 25.0898C58.56 25.0898 58.2922 25.0898 57.935 25.1792C57.5779 25.1792 57.2207 25.1792 56.7743 25.1792H56.5957C56.1493 25.1792 55.7921 25.1792 55.3456 25.1792C53.7384 25.0004 52.3991 24.6429 51.3277 24.0174C50.3455 23.3918 49.8991 22.5875 49.6312 21.9619C49.4526 21.6044 49.3633 21.3363 49.274 20.9788C49.1847 20.6213 49.0062 20.2639 48.8276 19.9958C48.649 19.7276 48.024 19.6383 47.5776 19.5489H47.399C46.5061 19.3702 45.6132 19.1914 44.8096 19.0127C43.9167 18.834 42.6667 18.4765 41.6845 17.5828C40.8809 16.8678 40.5238 15.7954 40.2559 14.8124C40.2559 14.5442 40.2559 14.4549 40.2559 14.3655C39.988 14.3655 39.6308 14.3655 39.2737 14.3655H39.4523Z" fill="#BAA69A"/>
<mask id="mask0_631_7436" style="mask-type:luminance" maskUnits="userSpaceOnUse" x="23" y="0" width="72" height="53">
<path d="M87.7574 3.64354C87.0431 3.91165 86.2395 4.09039 85.4359 4.26912C85.3466 4.26912 85.168 4.26912 85.0788 4.35849C85.0788 4.35849 85.0787 4.35849 84.9894 4.35849H84.8108C84.8108 4.35849 84.8109 4.35849 84.7216 4.35849C84.7216 4.35849 84.6323 4.35849 84.543 4.35849C84.543 4.35849 84.4537 4.35849 84.3644 4.35849C84.3644 4.35849 84.2752 4.35849 84.1859 4.35849C84.1859 4.35849 84.0966 4.35849 84.0073 4.35849C84.0073 4.35849 83.918 4.35849 83.8287 4.35849C83.8287 4.35849 83.7394 4.35849 83.6501 4.35849C83.6501 4.35849 83.5608 4.35849 83.4715 4.35849C83.4715 4.35849 83.3823 4.35849 83.293 4.35849C83.293 4.35849 83.293 4.35849 83.2037 4.35849C83.1144 4.35849 83.0251 4.35849 82.9358 4.44786C82.3108 4.6266 81.8644 4.89471 81.3286 5.43092C80.7036 5.96714 80.1679 6.59272 79.5428 7.12893C79.5428 7.12893 79.5428 7.2183 79.5428 7.30767C79.8107 8.02262 79.3643 8.73758 78.7392 9.00568C78.2035 9.18442 77.6678 9.36316 77.132 9.5419C76.7749 9.89937 76.4177 10.1675 76.0606 10.525C76.0606 10.525 75.9713 10.6143 75.882 10.7037C75.7927 10.7931 75.6141 10.8824 75.5249 10.9718C75.3463 11.1505 75.0784 11.3293 74.8998 11.508C74.8998 11.8655 74.8105 12.223 74.632 12.5804C74.0962 14.0997 72.6676 14.8147 71.239 15.4403C71.0604 15.7084 70.8818 16.0658 70.7032 16.3339C69.5425 18.2107 68.2032 19.9087 66.0602 20.8024C64.8995 21.2492 63.7387 21.2492 62.4887 21.2492C62.4887 21.6961 62.2208 22.0536 61.953 22.411C61.953 22.411 61.953 22.411 61.8637 22.5004C61.8637 22.5004 61.8637 22.5004 61.7744 22.5898C61.7744 22.5898 61.6851 22.6791 61.5958 22.7685C61.1493 23.0366 60.7029 23.3047 60.1672 23.3941C60.1672 23.3941 59.9886 23.3941 59.8993 23.3941H59.7208C59.7208 23.3941 59.6315 23.3941 59.5422 23.3941C59.5422 23.3941 59.4529 23.3941 59.3636 23.3941C59.3636 23.3941 59.2743 23.3941 59.185 23.3941C59.185 23.3941 59.0957 23.3941 59.0065 23.3941C59.0065 23.3941 58.9172 23.3941 58.8279 23.3941H58.6493C58.56 23.3941 58.4707 23.3941 58.2922 23.3941C58.2922 23.3941 58.2921 23.3941 58.2028 23.3941C58.2028 23.3941 58.1135 23.3941 58.0242 23.3941C58.0242 23.3941 57.935 23.3941 57.8457 23.3941C57.8457 23.3941 57.8457 23.3941 57.7564 23.3941C57.7564 23.3941 57.5778 23.3941 57.4885 23.3941C57.3992 23.3941 57.31 23.3941 57.2207 23.3941C56.8635 23.3941 56.5956 23.3941 56.2385 23.3941C56.2385 23.3941 56.0599 23.3941 55.9706 23.3941C55.7028 23.3941 55.4349 23.3941 55.1671 23.3047C55.1671 23.3047 54.9884 23.3047 54.8991 23.3047C54.7206 23.3047 54.542 23.2154 54.3634 23.126C53.8277 22.9472 53.292 22.7685 52.8455 22.5004C52.2205 22.0536 51.774 21.5173 51.5062 20.8024C51.2383 20.0874 51.1491 19.2831 50.7026 18.6575C50.2562 18.032 49.3633 17.9426 48.7383 17.8532C47.8454 17.6745 47.0417 17.4957 46.1489 17.317C45.1667 17.1383 44.1845 16.7808 43.4702 16.1552C42.8452 15.5296 42.488 14.6359 42.3095 13.8316C42.3095 13.5635 42.1309 13.1167 42.0416 12.9379C42.0416 12.9379 42.0416 12.9379 41.9523 12.8485C41.7737 12.8485 41.6844 12.7592 41.5058 12.7592C41.4166 12.7592 41.3273 12.7592 41.238 12.7592C41.238 12.7592 41.0594 12.7592 40.9701 12.7592C40.5237 12.7592 40.0772 12.7592 39.6308 12.7592C39.4522 12.7592 39.2737 12.7592 39.0951 12.7592C37.9343 12.5804 36.8629 12.1336 36.0593 11.3293C35.7914 11.3293 35.5235 11.1505 35.345 10.9718C34.0056 10.1675 33.5592 8.29073 33.3806 6.86083C33.3806 6.32461 33.3806 5.7884 33.2913 5.16281C33.2913 5.16281 33.2913 4.98408 33.2913 4.89471C33.2913 4.89471 33.2913 4.89471 33.2913 4.80534C33.2913 4.80534 33.2913 4.80534 33.2913 4.71597C33.2913 4.71597 33.2913 4.6266 33.202 4.53723C32.8449 4.53723 32.4877 4.35849 32.1305 4.26912C32.1305 4.26912 31.952 4.26912 31.8627 4.26912C31.8627 4.26912 31.7734 4.26912 31.6841 4.26912C31.6841 4.26912 31.5055 4.26912 31.4162 4.26912C31.4162 4.26912 31.3269 4.26912 31.2376 4.26912C30.6126 4.26912 29.9876 4.09039 29.4519 3.82228C28.559 3.37543 27.934 2.48174 27.3982 1.67742C26.2375 1.31995 25.0768 1.05184 23.916 0.783731C24.0946 7.84388 25.8803 14.904 29.184 21.1599C32.577 27.7732 37.4879 33.4928 41.238 39.838C42.5773 42.1616 46.0596 52.6178 50.1669 52.8859C50.1669 52.8859 50.1669 52.8859 50.2562 52.8859C51.1491 52.8859 52.0419 52.439 52.9348 51.3666C53.8277 50.3835 54.1849 49.043 54.542 47.7025C55.3456 45.0214 56.1492 42.251 56.9528 39.5699C57.31 38.2294 57.8457 36.7101 59.185 36.2632C60.4351 36.7101 61.0601 38.2294 61.4173 39.5699C62.2209 42.251 63.0244 45.0214 63.828 47.7025C64.1852 48.9536 64.6317 50.2942 65.4352 51.3666C66.1496 52.2603 66.8638 52.7071 67.5781 52.8859C67.6674 52.8859 67.7567 52.8859 67.846 52.8859C67.9353 52.8859 68.0246 52.8859 68.1139 52.8859C72.2212 52.5284 75.6141 42.1616 76.9535 39.838C80.7036 33.4034 85.5252 27.7732 89.0074 21.1599C92.3111 14.8147 94.0969 7.66515 94.2755 0.515625C92.579 1.40932 90.7932 2.303 89.0074 3.01796L87.7574 3.64354Z" fill="white"/>
</mask>
<g mask="url(#mask0_631_7436)">
<path d="M91.5985 -2.87949C88.9198 -2.07517 86.2411 -0.555898 83.4731 1.23148C83.6517 1.23148 83.8303 1.41022 84.0982 1.49959C85.4375 2.66139 83.2053 4.53814 82.5803 5.61057C81.9552 6.59362 81.4195 7.66605 80.8838 8.64911C80.0802 10.079 79.0087 11.8664 77.4015 12.5813C76.9551 15.2624 74.9908 17.586 72.8478 19.1947C73.1157 19.9096 72.6692 20.6246 72.0442 20.8927C71.5978 21.0714 71.062 20.8927 70.7049 20.5352C69.6334 21.1608 68.3834 21.6076 67.1333 21.697C64.4547 21.9651 60.0795 19.1947 57.758 17.7648C55.9722 16.603 53.3829 14.19 51.4185 13.6538C48.9185 12.9388 45.6147 13.8325 42.8468 13.2963C36.9537 12.0451 32.5786 10.079 31.9536 3.64445C31.5965 -0.555897 30.4357 1.32085 27.6677 -0.734633C26.9534 -1.27085 26.4177 -2.16454 25.8819 -3.1476C25.0783 -3.4157 24.1855 -3.50507 23.3819 -3.41571C21.1496 -3.1476 19.2746 -0.645264 19.4532 2.39328C21.7747 4.44877 24.4533 6.23615 26.6856 8.47037C27.3999 8.47037 27.9356 9.00659 28.0249 9.72154C28.2035 11.5983 30.4357 11.6877 30.7036 13.475C31.5964 13.8325 32.5786 14.1006 33.5608 14.4581C34.9894 14.9943 36.3288 15.7093 37.3109 16.8711C37.8467 17.4966 38.3824 18.1222 38.8288 18.7478C40.3467 19.4628 42.1325 19.7309 43.2932 21.1608C43.9183 21.9651 44.0968 22.8588 44.1861 23.8418C44.9004 23.8418 45.6148 23.4844 46.2398 23.3056C46.8648 23.1269 47.4898 23.0375 48.0256 22.9482C48.9185 22.9482 49.3649 23.1269 49.9006 23.8418C51.0614 25.2718 52.3114 26.6123 53.5614 28.0422C54.365 27.5953 55.0794 27.0591 55.4365 26.791C56.1508 26.2548 58.7402 27.2379 58.7402 27.2379C58.7402 27.2379 60.3474 29.0252 60.4367 28.9359C61.5081 27.5953 61.776 24.9143 63.2047 24.6462C63.5618 26.5229 65.3476 24.9143 65.3476 24.9143C65.3476 24.9143 67.4012 26.791 68.2941 26.5229C68.9191 26.3442 71.7763 25.9867 71.7763 25.9867C71.7763 25.9867 72.4014 24.3781 74.0086 22.1438C74.9015 21.5183 75.4372 21.2501 75.8836 21.1608C76.0622 20.6246 76.2408 20.0883 76.5086 19.6415C76.7765 19.0159 76.9551 18.301 77.3123 17.7648C77.6694 17.1392 78.7409 16.9604 79.3659 16.7817C79.5445 15.9774 79.6338 15.1731 79.7231 14.3687C79.7231 13.7431 80.4373 13.3857 80.9731 13.2963C82.2231 13.1176 83.4731 12.6707 84.8125 12.492C84.9018 12.0451 85.0803 11.5983 85.2589 11.1514C85.2589 10.2578 85.3482 9.36406 85.3482 8.47037C85.3482 7.93416 85.7054 7.30858 86.2411 7.12984C87.4019 6.77236 88.4733 6.50425 89.6341 6.32552C90.8841 5.61056 92.2235 5.07435 93.5628 4.53814C94.3664 1.05274 92.3127 -3.1476 91.5091 -2.87949H91.5985Z" fill="#8C6E5E"/>
</g>
<path d="M48.6495 67.8101C53.2356 67.8101 56.9534 64.089 56.9534 59.4988C56.9534 54.9086 53.2356 51.1875 48.6495 51.1875C44.0635 51.1875 40.3457 54.9086 40.3457 59.4988C40.3457 64.089 44.0635 67.8101 48.6495 67.8101Z" fill="#8C6E5E"/>
</svg>
