<svg width="117" height="107" viewBox="0 0 117 107" fill="none" xmlns="http://www.w3.org/2000/svg">
<path d="M113.508 83.6548C111.429 73.8865 110.435 71.9872 107.905 62.4903C104.923 51.6367 101.58 43.4965 97.6939 42.4111C87.6633 39.6073 83.9584 59.3246 77.181 68.098C71.9398 66.3795 64.2587 63.0329 58.7464 56.8826C58.7464 56.8826 58.5657 57.0635 58.4753 57.1539C58.4753 57.0635 58.2946 56.973 58.2043 56.8826C52.7823 62.9425 45.1013 66.289 39.7697 68.098C32.9923 59.3246 29.2874 39.6073 19.2568 42.4111C15.3711 43.4965 11.9372 51.5462 9.04554 62.4903C6.51532 71.8967 5.52129 73.8865 3.44289 83.6548C0.00900436 99.9351 0.370476 106.086 9.9492 106.086C19.5279 106.086 46.6375 106.086 58.385 106.086H58.5657C70.3132 106.086 95.254 106.086 107.002 106.086C118.749 106.086 116.942 100.026 113.508 83.6548Z" fill="white"/>
<path d="M58.5666 106.988H58.3859C52.5121 106.988 43.3852 106.988 34.168 106.988C24.9507 106.988 15.8238 106.988 9.95006 106.988C4.07631 106.988 3.89559 106.083 2.35938 104.274C-0.441946 100.837 0.28096 94.3251 2.54009 83.4715C3.89557 76.9594 4.79924 73.9747 5.97399 69.8141C6.60655 67.7338 7.2391 65.4727 8.14275 62.307C11.667 49.2827 15.1009 42.6801 18.9866 41.5948C26.4869 39.5145 30.6437 48.2878 34.6198 56.7898C36.3367 60.4981 38.144 64.2969 40.1321 67.1007C45.3732 65.2918 52.5121 62.0357 57.5725 56.3376L58.2051 55.614L58.4762 55.8853L58.7473 55.614L59.3798 56.3376C64.4403 61.9453 71.4888 65.2918 76.8203 67.1007C78.8084 64.3873 80.6157 60.4981 82.3327 56.7898C86.3087 48.2878 90.4655 39.5145 97.9658 41.5948C101.852 42.6801 105.285 49.2827 108.81 62.307C109.713 65.4727 110.346 67.8243 110.978 69.8141C112.153 73.9747 113.057 76.9594 114.412 83.4715C116.671 94.3251 117.394 100.837 114.593 104.274C113.057 106.083 110.707 106.988 107.002 106.988C101.129 106.988 91.9114 106.988 82.7845 106.988C73.6576 106.988 64.4403 106.988 58.5666 106.988ZM21.1553 43.0419C20.6132 43.0419 20.071 43.0419 19.5288 43.3133C17.36 43.9464 13.9261 47.7452 9.95006 62.7593C9.0464 65.9249 8.41385 68.2765 7.7813 70.3568C6.60655 74.4269 5.70288 77.4116 4.3474 83.8333C2.269 93.8729 1.4557 100.295 3.8052 103.098C4.88958 104.455 6.87764 105.179 9.95006 105.179C15.8238 105.179 25.0411 105.179 34.168 105.179C43.2949 105.179 52.5121 105.179 58.3859 105.179H58.5666C64.4403 105.179 73.5672 105.179 82.7845 105.179C92.0017 105.179 101.129 105.179 107.002 105.179C112.876 105.179 112.063 104.546 113.147 103.098C115.497 100.204 114.683 93.8729 112.605 83.8333C111.25 77.4116 110.346 74.4269 109.171 70.3568C108.539 68.2765 107.906 65.9249 107.002 62.7593C102.936 47.8356 99.5021 43.9464 97.4237 43.3133C91.3692 41.5948 87.7546 49.3732 83.9592 57.5134C82.0615 61.5835 80.1639 65.744 77.8144 68.6383L77.4529 69.181L76.8203 69.0001C71.4888 67.2816 64.1692 63.9351 58.6569 58.237L58.3859 58.5083L58.1148 58.237C52.6929 63.9351 45.2829 67.1912 39.9513 68.9097L39.3187 69.0905L38.9573 68.5479C36.6982 65.5631 34.7102 61.4026 32.8125 57.4229C29.3786 50.0063 26.0351 42.9515 20.9746 42.9515L21.1553 43.0419Z" fill="#BAA69A"/>
<path d="M108.718 76.147C106.64 67.1928 104.832 57.6959 100.314 50.5506C95.3441 42.6818 92.2716 51.4551 90.1029 54.892C87.8438 58.4195 84.5003 63.3036 82.5122 66.1074C79.0784 70.9011 76.277 76.5088 75.3734 78.6795C73.0239 84.1063 66.9694 91.1611 62.8126 82.3878C61.2764 79.1317 59.5594 69.6348 58.6558 69.9966C57.7521 69.7253 56.0352 79.1317 54.499 82.3878C50.3422 91.1611 44.2877 84.1063 41.9382 78.6795C41.0346 76.5088 38.2332 70.9011 34.7993 66.1074C32.8113 63.394 29.3774 58.4195 27.2087 54.892C25.0399 51.4551 21.9675 42.6818 16.9974 50.5506C12.4791 57.6959 10.6718 67.2832 8.59343 76.147C6.87649 83.5636 4.61734 92.156 4.70771 97.7637C4.70771 101.02 5.43063 105.994 10.1296 105.994C25.2206 105.994 55.2219 105.994 58.7461 105.994C62.2704 105.994 92.2717 105.994 107.363 105.994C122.454 105.994 112.694 101.02 112.785 97.7637C112.875 92.156 110.616 83.6541 108.899 76.147H108.718Z" fill="white"/>
<path d="M69.3202 106.896C63.808 106.896 59.6512 106.896 58.4764 106.896C56.1269 106.896 41.7588 106.896 27.933 106.896H9.95026C7.14894 106.896 3.71506 105.268 3.62469 97.761C3.53433 92.9673 5.1609 86.0934 6.69711 79.4908C6.9682 78.315 7.23929 77.0487 7.51039 75.8729C7.69112 74.9684 7.96223 74.064 8.14296 73.0691C9.95026 64.9289 11.8479 56.5173 16.0047 49.9147C17.5409 47.4727 19.0772 46.2969 20.7941 46.2969C23.4147 46.2969 25.3124 49.7338 26.7582 52.3568C27.1197 53.0804 27.4811 53.7135 27.8426 54.2562C29.921 57.5123 33.3549 62.4868 35.4333 65.3811C38.8671 70.1748 41.6685 75.8729 42.6625 78.1341C44.1987 81.7519 47.0904 85.3698 49.6206 85.4602C51.0665 85.4602 52.3316 84.2844 53.5063 81.8424C54.1389 80.4857 54.8618 77.6818 55.5847 75.2398C56.8498 70.627 57.2113 69.3608 58.0246 68.999C58.2053 68.9085 58.3861 68.9085 58.5668 68.9085C58.7475 68.9085 58.9282 68.9085 59.109 68.999C59.9223 69.4512 60.3741 70.8983 61.5488 75.2398C62.1814 77.6818 62.9043 80.3952 63.6272 81.8424C64.802 84.2844 66.0671 85.4602 67.5129 85.4602C70.0432 85.4602 72.9349 81.7519 74.4711 78.1341C75.4651 75.8729 78.2664 70.1748 81.7003 65.3811C83.7787 62.4868 87.2126 57.5123 89.291 54.2562C89.6525 53.7135 89.9235 53.0804 90.3753 52.4472C91.8212 49.7338 93.6285 46.4778 96.3395 46.3873C97.9661 46.3873 99.5926 47.4727 101.129 50.0052C105.286 56.6078 107.183 65.0193 108.991 73.1595C109.171 74.064 109.442 75.0589 109.623 75.9633C109.894 77.1392 110.165 78.315 110.436 79.5812C111.973 86.1838 113.599 92.9673 113.509 97.8514C113.328 105.358 109.985 106.987 107.183 106.987H89.2006C82.1521 106.987 75.1036 106.987 69.4106 106.987L69.3202 106.896ZM58.4764 105.087C60.8259 105.087 75.194 105.087 89.0199 105.087H107.003C109.985 105.087 111.43 102.645 111.521 97.761C111.521 93.1482 109.985 86.4552 108.539 79.943C108.268 78.7672 107.997 77.5009 107.725 76.3251C107.545 75.4207 107.274 74.5162 107.093 73.5213C105.286 65.562 103.478 57.2409 99.5023 50.9096C98.3275 49.1007 97.2431 48.1058 96.3395 48.1058C94.7129 48.1058 93.0863 51.0905 91.9116 53.2613C91.5501 53.9848 91.1886 54.7084 90.8272 55.2511C88.6584 58.6881 85.2245 63.5722 83.1461 66.4665C79.8026 71.1697 77.0917 76.5965 76.0976 78.8576C74.7422 81.9328 71.489 87.1787 67.5129 87.2692C67.5129 87.2692 67.513 87.2692 67.4226 87.2692C65.2538 87.2692 63.3561 85.7316 61.9103 82.6564C61.1874 81.1188 60.4645 78.4054 59.7415 75.7825C59.3801 74.4258 58.9283 72.6168 58.5668 71.5315C58.2053 72.6168 57.7535 74.3353 57.392 75.7825C56.6691 78.4054 55.9462 81.1188 55.2233 82.6564C53.7774 85.7316 51.8797 87.2692 49.711 87.2692C47.5422 87.2692 49.711 87.2692 49.6206 87.2692C45.6445 87.2692 42.301 81.9328 41.0359 78.8576C40.0419 76.5965 37.331 71.1697 33.9874 66.4665C31.909 63.5722 28.5655 58.6881 26.3967 55.2511C26.0353 54.7084 25.6738 53.9848 25.3124 53.2613C24.1376 51.0905 22.511 48.1963 20.8845 48.1058C19.9808 48.1058 18.8061 49.0103 17.7217 50.9096C13.7456 57.2409 11.8479 65.4715 10.131 73.5213C9.95025 74.4258 9.67917 75.4207 9.49844 76.3251C9.22734 77.5009 8.95625 78.6767 8.68516 79.943C7.14895 86.4552 5.61272 93.1482 5.70309 97.761C5.79345 102.736 7.23929 105.087 10.2213 105.087H28.204C42.0299 105.087 56.398 105.087 58.7475 105.087H58.4764Z" fill="#BAA69A"/>
<path d="M93.4463 20.4265C92.5426 16.1755 90.9161 12.015 88.0244 8.84935C85.4038 6.13595 82.0603 4.50791 78.4457 3.87479C78.0842 3.87479 77.2709 4.23657 76.548 4.50791C76.9094 5.77417 77.2709 7.04042 77.542 8.30667C77.9035 10.1156 78.0842 12.3768 76.4576 13.643C76.0962 13.9144 75.7347 14.0048 75.4636 14.2761C75.4636 14.2761 75.4636 14.2761 75.3732 14.2761C75.7347 15.4519 75.3732 16.3564 75.0117 17.4418C74.3792 18.9794 73.3852 20.1552 72.2104 21.331C72.2104 21.4214 72.1201 21.6023 72.0297 21.6928C71.6682 22.5068 70.7646 23.4112 70.6742 24.2253C70.5839 25.1297 71.1261 25.9438 70.7646 26.9387C70.4935 27.8431 69.861 28.2954 69.2284 28.9285C67.6018 30.5565 68.6862 32.0941 68.3248 34.0839C68.0537 35.5311 66.8789 36.6164 66.7885 38.0636C66.7885 38.6967 66.3367 39.3298 65.6138 39.3298C62.3606 39.3298 58.1134 41.591 55.1314 39.6916C53.7759 38.7872 52.6012 37.4305 52.059 35.8024C51.5168 34.2648 51.6975 32.9081 52.059 31.461C51.8783 31.0088 51.7879 30.647 51.6072 30.1947C51.4264 29.833 51.4264 29.7425 51.2457 29.4712C51.2457 29.3807 51.065 29.1998 51.065 29.1094C51.065 29.1094 50.8842 28.838 50.9746 28.9285C50.6131 28.4763 50.3421 28.3858 49.7999 28.2954C49.1673 28.2049 48.8962 27.7527 48.8058 27.3005C48.6251 27.1196 48.4444 26.9387 48.354 26.6673C47.36 24.1348 45.643 22.2354 44.0165 20.0647C43.2032 18.9794 42.4803 17.6227 43.0225 16.266C43.3839 15.2711 44.0165 14.0953 42.8417 13.2812C41.9381 12.6481 41.3055 11.5627 41.1248 10.4774C40.944 9.21114 42.5706 7.85444 42.5706 7.85444C42.5706 7.85444 41.3959 5.41238 40.8537 4.77925C40.5826 4.50791 39.4982 3.513 38.956 3.60345C35.3414 4.23657 31.9075 5.86461 29.2869 8.66846C26.3049 11.8341 24.7687 15.9946 23.865 20.2456C21.6059 30.7374 23.3228 41.9528 28.2025 51.4497C31.6364 58.1427 36.6065 63.9313 40.4019 70.353C42.0284 73.2473 46.9082 88.4423 52.3301 82.0206C53.2337 81.0257 53.5952 79.669 53.9566 78.3123C54.7699 75.5989 55.5832 72.7951 56.3965 70.0817C56.758 68.725 57.3002 67.1874 58.6557 66.7352C59.9208 67.1874 60.5533 68.725 60.9148 70.0817C61.7281 72.7951 62.5414 75.5989 63.3547 78.3123C63.7161 79.5786 64.1679 80.9353 64.9812 82.0206C70.4031 88.4423 75.2829 73.2473 76.9095 70.353C80.7048 63.8409 85.5845 58.1427 89.1088 51.4497C94.0789 41.9528 95.7054 30.7374 93.4463 20.2456V20.4265Z" fill="white"/>
<path d="M49.7101 84.6426C49.5294 84.6426 49.3487 84.6426 49.168 84.6426C45.463 84.1 42.6617 77.7687 40.8544 73.5177C40.4025 72.4323 39.9507 71.5279 39.6796 70.9852C38.0531 68.1814 36.1554 65.468 34.3481 62.845C31.9986 59.408 29.4683 55.8806 27.4803 51.9914C22.3295 42.0423 20.7933 30.7365 23.0524 20.1542C24.1368 14.9083 26.0345 11.0191 28.7454 8.12483C31.366 5.41143 34.8902 3.51205 38.8663 2.78848C39.8603 2.60759 41.2158 3.87384 41.5773 4.23562C42.2098 4.86875 43.2039 6.85858 43.475 7.4917C43.6557 7.85349 43.475 8.30572 43.2942 8.57706C42.752 9.02929 42.0291 9.93376 42.1195 10.4764C42.2099 11.2905 42.7521 12.1045 43.475 12.5567C45.1016 13.6421 44.469 15.2701 44.1075 16.265V16.5364C43.7461 17.3504 44.0171 18.2548 44.9208 19.5211C45.2823 19.9733 45.5534 20.4256 45.9149 20.8778C47.18 22.5058 48.5354 24.2243 49.3487 26.3046C49.3487 26.395 49.4391 26.4855 49.5295 26.5759C49.7102 26.7568 49.8005 26.9377 49.8909 27.1186C49.8909 27.2091 49.8909 27.2995 50.162 27.3899C50.8849 27.4804 51.3367 27.6613 51.8789 28.2944C51.8789 28.2944 51.8789 28.3849 51.9693 28.4753C52.0596 28.6562 52.1501 28.7466 52.2404 28.9275C52.4212 29.1989 52.4211 29.2893 52.6018 29.7416C52.7826 30.1938 52.9633 30.646 53.0537 31.0078C53.0537 31.1887 53.0537 31.3696 53.0537 31.5505C52.6922 32.9072 52.6018 34.083 53.0537 35.3492C53.5055 36.7059 54.4995 37.9722 55.7646 38.7862C57.3912 39.7811 59.7407 39.3289 61.9999 38.7862C63.265 38.5149 64.5301 38.2435 65.7952 38.2435C65.8856 38.2435 66.0663 38.0626 66.0663 37.8818C66.0663 36.8868 66.5181 35.9824 66.9699 35.2588C67.241 34.7161 67.5122 34.2639 67.6025 33.7212C67.6929 33.1785 67.6025 32.5454 67.6025 32.0027C67.5122 30.8269 67.3314 29.4702 68.6869 28.1135L68.958 27.8422C69.4098 27.3899 69.7713 27.0282 69.952 26.4855C70.0424 26.2141 69.952 25.8524 69.952 25.4001C69.952 24.9479 69.7713 24.4957 69.8616 23.953C69.8616 23.2294 70.4038 22.5058 70.7653 21.9632C70.946 21.6918 71.1268 21.4205 71.2171 21.1491C71.2171 21.0587 71.3074 20.8778 71.3978 20.7873C71.3978 20.6969 71.4882 20.516 71.669 20.4256C72.9341 19.2498 73.7473 18.074 74.2895 16.8981C74.7413 15.8128 74.9221 15.1797 74.651 14.3656C74.5606 14.0039 74.651 13.4612 75.0124 13.2803L75.5547 14.0039L75.1028 13.1898C75.1932 13.1898 75.3739 13.0089 75.4643 12.9185C75.645 12.8281 75.8257 12.7376 76.0065 12.5567C77.0005 11.8331 77.1812 10.4764 76.7294 8.12483C76.5487 7.31081 76.3679 6.49679 76.0968 5.68277C76.0065 5.23054 75.8258 4.7783 75.7354 4.32607C75.645 3.87384 75.8258 3.42161 76.1872 3.24071C77.362 2.69803 77.9945 2.42669 78.627 2.51714C82.6031 3.24071 86.1274 5.04964 88.6576 7.76304C91.3686 10.6573 93.2662 14.5465 94.3506 19.7924C96.6097 30.3747 95.0735 41.6805 89.9227 51.6296C87.9347 55.4284 85.4948 59.0463 83.055 62.4832C81.2476 65.1062 79.35 67.8196 77.7234 70.6234C77.4523 71.0757 77.0005 72.0706 76.5486 73.1559C74.651 77.4069 71.8496 83.7382 68.235 84.2809C66.8796 84.4617 65.5241 83.8286 64.3493 82.3815C63.3553 81.2057 62.9035 79.6681 62.542 78.4018L60.1022 70.1712C59.8311 69.0858 59.3792 68.0909 58.7467 67.5482C58.1141 68.0005 57.6623 69.0858 57.3912 70.1712L54.9514 78.4018C54.5899 79.7585 54.1381 81.2057 53.1441 82.3815C52.0597 83.6477 50.9753 84.2809 49.7101 84.2809V84.6426ZM39.0471 4.68786C35.4324 5.32098 32.36 6.94902 30.0105 9.39108C27.5707 12.014 25.8537 15.6319 24.7694 20.516C22.6006 30.5556 24.1368 41.771 29.0165 51.1774C30.9142 54.8857 33.354 58.4131 35.7035 61.8501C37.5108 64.473 39.4989 67.2769 41.1254 70.0807C41.4869 70.6234 41.8484 71.6183 42.3906 72.7941C43.9268 76.1407 46.6378 82.4719 49.3487 82.8337C50.0716 82.9242 50.8849 82.5624 51.6079 81.5675C52.3308 80.663 52.6922 79.3967 53.0537 78.2209L55.4935 69.9903C55.855 68.8145 56.3972 66.7342 58.2948 66.0106C58.4756 66.0106 58.7467 66.0106 58.9274 66.0106C60.7347 66.7342 61.3673 68.8145 61.7288 69.9903L64.1686 78.2209C64.5301 79.3967 64.8915 80.663 65.6145 81.5675C66.4278 82.4719 67.1507 82.9242 67.8736 82.8337C70.5846 82.4719 73.2955 76.1407 74.8317 72.7941C75.3739 71.6183 75.7354 70.7139 76.0968 70.0807C77.8138 67.1864 79.7114 64.473 81.5187 61.8501C83.8682 58.4131 86.3081 54.9762 88.2058 51.2678C93.0855 41.8614 94.6217 30.7365 92.453 20.6065C91.3686 15.7223 89.742 12.1045 87.2117 9.48153C84.8622 7.03947 81.7898 5.41143 78.1752 4.7783C78.1752 4.7783 77.8138 4.86875 77.5427 5.04964C77.5427 5.23054 77.633 5.41143 77.7234 5.59232C77.9945 6.40634 78.2656 7.31081 78.356 8.21527C78.627 9.48153 79.2596 12.7376 76.9101 14.4561C76.7294 14.637 76.4583 14.7274 76.2776 14.9083C76.4583 16.0841 76.0969 17.079 75.7354 17.9835C75.1028 19.4306 74.1992 20.6969 72.8437 22.0536C72.8437 22.0536 72.8437 22.2345 72.7533 22.3249C72.5726 22.6867 72.3015 23.0485 72.1208 23.4103C71.8497 23.8625 71.5786 24.3148 71.4882 24.5861C71.4882 24.8574 71.4882 25.1288 71.5786 25.4906C71.6689 26.0332 71.8497 26.7568 71.5786 27.4804C71.2171 28.3849 70.6749 29.018 70.1327 29.5607L69.8616 29.832C69.1387 30.5556 69.1387 31.2792 69.2291 32.2741C69.2291 32.9072 69.3194 33.6308 69.2291 34.4448C69.0484 35.2588 68.7772 35.8919 68.4158 36.5251C68.0543 37.1582 67.7832 37.7009 67.7832 38.334C67.7832 39.3289 66.9699 40.5047 65.7048 40.5047C64.7108 40.5047 63.536 40.776 62.3613 41.0474C59.8311 41.5901 57.0298 42.2232 54.7706 40.776C53.1441 39.7811 51.879 38.1531 51.3368 36.3442C50.7946 34.7161 50.9753 33.1785 51.3368 31.8218C51.2464 31.46 51.0657 31.1887 50.9753 30.8269C50.8849 30.5556 50.7946 30.4651 50.7042 30.2842C50.7042 30.1938 50.6138 30.1033 50.5235 30.0129C50.5235 30.0129 50.4331 29.9225 50.3427 29.832C50.162 29.6511 50.162 29.6511 49.8005 29.5607C48.9873 29.3798 48.3547 28.9275 48.0836 28.204C47.9029 28.0231 47.7221 27.7517 47.6318 27.3899C46.9088 25.4906 45.7341 23.953 44.469 22.4154C44.1075 21.9632 43.746 21.5109 43.3846 21.0587C42.9328 20.4256 41.4869 18.5262 42.2098 16.3555V16.0841C42.752 14.9083 42.752 14.7274 42.3906 14.5465C41.3062 13.823 40.4026 12.4663 40.3122 11.1096C40.1315 9.93376 41.0351 8.8484 41.5773 8.21527C41.1254 7.22036 40.4929 6.22545 40.3122 5.95411C40.0411 5.59232 39.4086 5.14009 39.1375 5.04964L39.0471 4.68786Z" fill="#BAA69A"/>
<path d="M86.3071 31.1893C85.5842 28.0236 83.4155 23.5013 80.7045 21.6019C78.8068 20.2452 76.5477 19.4312 74.1982 18.979C73.656 19.8834 72.9331 20.6975 72.1198 21.421C71.8487 22.0542 71.4872 22.7777 71.1257 23.3204C70.945 23.5917 70.7643 23.8631 70.5836 24.2249C70.4932 24.4058 70.5836 24.2249 70.5836 24.4058C70.7643 25.3102 71.0354 26.1243 70.7643 27.0287C70.4932 27.9332 69.8607 28.3854 69.2281 29.0185C68.7763 29.4708 68.4148 30.1039 68.1437 30.6466C68.0533 30.8275 68.1437 30.6466 68.1437 30.9179C68.2341 31.1893 68.3244 31.4606 68.3244 31.7319C68.5052 32.546 68.5052 33.36 68.3244 34.0836C68.0533 35.5307 66.8786 36.6161 66.7882 38.0632C66.7882 38.6963 66.3364 39.3295 65.6135 39.3295C64.8906 39.3295 64.258 39.4199 63.5351 39.5103C63.4447 39.5103 63.264 39.5103 63.1736 39.5103C62.8122 39.5103 62.3603 39.6912 61.9989 39.7817C61.3663 39.8721 60.7337 40.053 60.1012 40.1435C58.4746 40.4148 56.6673 40.6862 55.1311 39.6912C54.86 39.5103 54.5889 39.3295 54.4082 39.1486C54.4082 39.1486 54.3178 39.0581 54.2274 38.9677C54.0467 38.7868 53.866 38.6059 53.6853 38.425C52.7816 37.4301 52.1491 36.2543 51.7876 34.988C51.4261 33.7218 51.7876 32.546 52.0587 31.3702C51.878 30.9179 51.7876 30.5561 51.6069 30.1039C51.4261 29.7421 51.4261 29.6517 51.2454 29.3803C51.2454 29.2899 51.0646 29.109 51.0646 29.0185C51.0646 29.0185 50.8839 28.7472 50.9743 28.8376C50.6128 28.3854 50.3418 28.295 49.7996 28.2045C49.167 28.1141 48.8055 27.6618 48.8055 27.1192C48.6248 26.9383 48.444 26.7574 48.3537 26.5765C47.3597 24.044 45.6427 22.1446 44.0162 19.9739C43.6547 19.5217 43.3836 19.0694 43.2029 18.6172C40.763 19.0694 38.5039 19.9739 36.5159 21.3306C33.8049 23.23 31.6361 27.6618 30.9132 30.9179C30.1903 33.9027 29.1962 42.2237 32.9916 49.5499C35.6122 54.6149 37.7809 57.5997 40.2208 62.8456C41.757 66.1016 46.6367 83.5578 49.7092 83.5578C52.7816 83.5578 53.1431 75.0558 53.4142 73.1565C53.9564 68.815 55.4926 63.2978 58.565 63.3882C62.7218 63.3882 63.1736 68.815 63.7158 73.1565C63.9869 75.0558 65.252 83.5578 67.4208 83.5578C70.4932 83.5578 75.3729 66.1016 76.9091 62.8456C79.349 57.6901 81.5178 54.7054 84.1384 49.5499C87.9337 42.3142 86.8493 33.9931 86.2168 30.9179L86.3071 31.1893Z" fill="white"/>
<path d="M67.5111 84.6429C64.9809 84.6429 63.6254 78.583 62.9025 73.518V72.7944C62.1796 67.9103 61.4566 64.5638 58.6553 64.5638C56.7576 64.5638 55.131 68.0007 54.4081 73.6084C53.6852 78.6734 52.3297 84.7333 49.7995 84.7333C47.2693 84.7333 45.1005 79.4874 41.3052 68.5434C40.4919 66.2822 39.8593 64.2924 39.4075 63.4784C38.052 60.5841 36.7869 58.4134 35.4314 56.1522C34.4374 54.3433 33.353 52.5344 32.1783 50.2732C27.7504 41.6808 29.8288 32.0934 30.0999 31.0081C30.9132 27.5711 33.1723 22.9583 36.064 20.8781C38.1424 19.4309 40.5822 18.5265 43.1125 18.0742C43.4739 18.0742 43.9258 18.1647 44.1065 18.6169C44.2872 18.9787 44.5583 19.3405 44.8294 19.7927C45.1909 20.2449 45.462 20.6972 45.8234 21.1494C47.0885 22.7774 48.444 24.4959 49.2573 26.6666C49.2573 26.6666 49.2573 26.7571 49.438 26.8475C49.6188 27.0284 49.7092 27.2093 49.7995 27.4807C49.7995 27.5711 49.7995 27.6616 50.0706 27.752C50.7935 27.8424 51.2454 28.0233 51.7876 28.6565C51.7876 28.6565 51.7875 28.7469 51.8779 28.8374C51.9683 29.0183 52.0586 29.1087 52.149 29.2896C52.3297 29.5609 52.3297 29.6514 52.5105 30.1036C52.6912 30.5558 52.8719 30.9176 52.9623 31.3699C52.9623 31.5508 52.9623 31.7317 52.9623 31.9125C52.6912 32.9075 52.4201 33.9928 52.6912 35.0782C52.9623 36.1635 53.5949 37.2489 54.3178 38.1534C54.4985 38.3343 54.6792 38.5151 54.86 38.6056H55.0407C55.3118 38.9674 55.4925 39.0578 55.6733 39.2387C56.9384 39.9623 58.4746 39.7814 60.0108 39.5101C60.553 39.4196 61.0952 39.3292 61.6373 39.1483H61.8181C62.2699 39.0578 62.6314 38.9674 63.0832 38.8769H63.1736C63.1736 38.8769 63.3543 38.8769 63.4447 38.8769C63.4447 38.8769 63.535 38.8769 63.6254 38.8769C64.1676 38.7865 64.9809 38.696 65.7038 38.696C65.8845 38.696 65.9749 38.4247 65.9749 38.3342C65.9749 37.3393 66.4267 36.4349 66.8785 35.7113C67.1496 35.1686 67.4207 34.7164 67.5111 34.1737C67.6015 33.5406 67.6015 32.9075 67.5111 32.1839C67.5111 31.9125 67.4207 31.7317 67.3303 31.4603C67.3303 31.3699 67.3303 31.189 67.3303 31.0081C67.3303 31.0081 67.3303 30.8272 67.3303 30.7367C67.3303 30.6463 67.3304 30.4654 67.4207 30.375C67.8726 29.5609 68.234 28.9278 68.6858 28.4756L68.957 28.2042C69.4088 27.752 69.7702 27.3902 69.951 26.8475C70.1317 26.3049 69.951 25.8526 69.951 25.2195C69.951 25.0386 69.951 24.8577 69.8606 24.6768C69.8606 24.5864 69.8606 24.4959 69.8606 24.4055C69.8606 24.2246 69.8606 24.0437 70.0413 23.8628C70.222 23.5915 70.4028 23.2297 70.5835 22.9583C70.945 22.4157 71.2161 21.7825 71.4872 21.2398C71.4872 21.1494 71.5775 20.9685 71.7583 20.8781C72.5716 20.1545 73.2041 19.3405 73.6559 18.6169C73.8366 18.3456 74.1981 18.1647 74.5596 18.2551C77.0898 18.7073 79.349 19.6118 81.4274 21.059C84.3191 23.0488 86.5782 27.6616 87.3914 31.189C87.6625 32.2743 89.741 41.7712 85.3131 50.4541C84.1383 52.7153 83.054 54.5242 82.0599 56.3331C80.7045 58.5943 79.4393 60.8554 78.0838 63.6593C77.7224 64.4733 76.9995 66.4631 76.1862 68.7243C72.3908 79.6683 70.2221 84.9142 67.6918 84.9142L67.5111 84.6429ZM58.565 62.6644C63.264 62.6644 63.9869 68.0912 64.529 72.5231V73.2466C65.3423 78.6734 66.6978 82.5626 67.5111 82.834C69.1377 82.5626 72.8427 71.8899 74.1981 67.9103C75.0114 65.4682 75.7343 63.5688 76.0958 62.6644C77.4513 59.6796 78.8068 57.5089 80.1622 55.1573C81.1562 53.4388 82.2407 51.5394 83.4154 49.3687C86.7589 42.8566 86.2167 34.9877 85.4034 31.3699C84.6805 28.2042 82.6021 23.9532 80.1622 22.3252C78.5357 21.2398 76.638 20.4258 74.65 19.9736C74.1981 20.6067 73.6559 21.2398 72.933 21.873C72.6619 22.5965 72.3005 23.2297 71.939 23.7724C71.7583 24.0437 71.6679 24.2246 71.5775 24.4959C71.5775 24.4959 71.5775 24.6768 71.5775 24.7673C71.7583 25.4908 71.939 26.3953 71.5775 27.3902C71.2161 28.2947 70.6739 28.9278 70.1317 29.4705L69.8606 29.7418C69.5895 30.0132 69.3184 30.4654 68.957 31.0985C68.957 31.2794 69.0473 31.4603 69.1377 31.7316C69.3184 32.6361 69.4088 33.5406 69.1377 34.445C68.9569 35.2591 68.5955 35.8922 68.3244 36.5253C67.9629 37.1584 67.6918 37.7011 67.6918 38.3342C67.6918 39.5101 66.7882 40.505 65.6134 40.505C64.8905 40.505 64.1676 40.5954 63.6254 40.6859C63.6254 40.6859 63.6254 40.6859 63.5351 40.6859H63.2639C62.9024 40.7763 62.4506 40.8668 62.0892 40.9572H61.9084C61.3662 41.1381 60.7337 41.2285 60.1915 41.319C58.3842 41.5903 56.3962 41.8617 54.5889 40.7763C54.3178 40.5954 54.0467 40.4145 53.7756 40.1432H53.5949C53.3238 39.7814 53.143 39.6005 52.8719 39.3292C51.8779 38.2438 51.155 36.8871 50.7935 35.5304C50.4321 34.1737 50.7032 32.817 50.9743 31.7316C50.8839 31.4603 50.7031 31.0985 50.6128 30.8272C50.5224 30.5558 50.4321 30.4654 50.3417 30.2845C50.3417 30.1941 50.2513 30.1036 50.1609 30.0132C50.1609 30.0132 50.0706 29.9227 49.9803 29.8323C49.7995 29.6514 49.7995 29.6514 49.438 29.5609C48.6247 29.38 47.9922 28.8374 47.7211 28.1138C47.5404 27.9329 47.3597 27.6616 47.2693 27.3902C46.5464 25.4908 45.3716 23.9532 44.1065 22.3252C43.7451 21.873 43.3836 21.4207 43.1125 20.9685C42.8414 20.6972 42.6606 20.3354 42.4799 20.064C40.4015 20.5163 38.4135 21.3303 36.7869 22.5061C34.347 24.1341 32.2686 28.3851 31.5457 31.5508C30.7324 35.1686 30.0999 43.0375 33.5338 49.5496C34.7085 51.7203 35.7025 53.6197 36.7869 55.3382C38.1424 57.6898 39.4075 59.8605 40.8533 62.8453C41.3052 63.7497 41.9377 65.6491 42.751 68.0912C44.1065 72.0708 47.8115 82.834 49.5284 83.0149C50.2514 82.7435 51.6068 78.8543 52.3297 73.4275C52.8719 69.4479 54.3178 62.8453 58.3842 62.8453L58.565 62.6644Z" fill="#BAA69A"/>
<path d="M78.1752 42.8587C77.9944 40.2357 77.0005 37.8841 75.7353 36.0752C74.1991 33.9949 71.2171 33 68.5061 33C68.5061 33.3618 68.5061 33.814 68.5061 34.1758C68.235 35.623 67.0603 36.7083 66.9699 38.1555C66.9699 38.7886 66.5181 39.4217 65.7952 39.4217C64.9819 39.4217 64.1686 39.5122 63.3553 39.693C63.3553 39.693 63.2649 39.693 63.1745 39.693C62.8131 39.693 62.3613 39.8739 61.9998 39.9644C61.4576 40.0548 60.9154 40.2357 60.3732 40.3262C58.7467 40.5975 56.9394 40.8689 55.4032 39.8739C55.1321 39.693 54.8609 39.5122 54.5898 39.3313C53.3247 38.2459 52.4211 36.7988 52.0596 35.2612C51.8789 34.628 51.8789 33.9949 51.9692 33.4522C51.6078 33.4522 51.2464 33.2713 50.8849 33.2713C47.9028 32.7287 43.8364 33.7236 42.029 36.1656C40.6736 37.9746 39.6796 40.3262 39.5892 42.9491C39.3181 47.5619 40.6736 50.004 42.5713 55.7925C43.9268 59.8626 44.5593 62.7569 45.8244 66.9175C46.6377 69.5404 48.2643 83.831 49.8908 83.831C51.5174 83.831 51.6982 76.957 51.7885 75.5099C52.0596 71.9825 51.3367 59.7722 59.2888 59.7722C67.241 59.7722 66.0662 71.9825 66.4277 75.5099C66.518 77.0475 67.241 83.831 68.3254 83.831C69.8616 83.831 71.5785 69.5404 72.3918 66.9175C73.6569 62.7569 74.2895 59.9531 75.6449 55.7925C77.5426 49.9135 78.8981 47.5619 78.627 42.9491L78.1752 42.8587Z" fill="white"/>
<path d="M67.8726 84.6399C67.1497 84.6399 65.8845 84.6399 65.0712 75.4144C65.0712 74.9621 65.0713 74.329 64.9809 73.6054C64.8002 68.9927 64.4387 60.4907 58.8361 60.4907C53.2334 60.4907 52.5105 68.9927 52.3298 73.515C52.3298 74.2386 52.3298 74.8717 52.3298 75.3239C51.5165 84.5495 50.2514 84.5495 49.5285 84.5495C47.9922 84.5495 47.3596 82.3787 45.6427 72.1583C45.2812 69.8971 44.9198 67.8169 44.6487 67.0028C44.1065 65.2843 43.7451 63.7468 43.2932 62.2996C42.751 60.2193 42.2089 58.32 41.3956 55.8779C41.0341 54.6116 40.5823 53.5263 40.3112 52.6218C39.0461 48.9135 38.1424 46.5619 38.4135 42.7631C38.5942 39.5071 39.9497 36.9746 41.0341 35.5274C43.2029 32.5427 47.7211 31.6382 50.7935 32.2713C51.155 32.2713 51.5165 32.4522 51.8779 32.4522C52.3298 32.5427 52.6008 32.9949 52.6008 33.4471C52.6008 33.9898 52.6009 34.5325 52.6912 34.9847C53.0527 36.3414 53.866 37.6981 54.9504 38.6026C55.2215 38.7835 55.4022 38.9644 55.5829 39.0548C56.848 39.7784 58.3843 39.5975 59.9205 39.3262C60.4627 39.2357 61.0048 39.1453 61.547 38.9644C61.9085 38.9644 62.3603 38.7835 62.7218 38.693H62.9025C62.9025 38.693 62.9025 38.693 62.9929 38.693C63.7158 38.6026 64.6194 38.4217 65.5231 38.4217C65.7038 38.4217 65.7942 38.1504 65.7942 38.0599C65.7942 37.065 66.246 36.1605 66.6979 35.437C66.969 34.8943 67.24 34.4421 67.3304 33.8994C67.3304 33.5376 67.3304 33.2663 67.3304 32.9045C67.3304 32.6331 67.3304 32.4522 67.6015 32.2713C67.7822 32.0904 67.9629 32 68.234 32C71.4872 32 74.65 33.3567 76.1862 35.437C77.2706 36.9746 78.626 39.4166 78.8068 42.6727C78.9875 46.4715 78.1742 48.9135 76.9091 52.5314C76.5477 53.5263 76.1862 54.6116 75.8247 55.7875C75.0114 58.1391 74.4693 60.1289 73.9271 62.2092C73.5656 63.6563 73.1138 65.1939 72.5716 66.9124C72.3005 67.7264 71.939 69.8067 71.5776 72.0678C69.8606 82.2883 69.1377 84.459 67.6919 84.459L67.8726 84.6399ZM48.8959 33.8994C46.5464 33.8994 43.8354 34.8038 42.4799 36.6128C41.4859 37.879 40.3112 40.0497 40.1304 42.944C39.9497 46.381 40.6726 48.5517 41.9378 52.1696C42.2992 53.1645 42.6607 54.2499 43.1125 55.5161C43.9258 57.9582 44.468 59.948 45.0102 62.0283C45.3717 63.4754 45.8235 65.013 46.3657 66.7315C46.6368 67.636 46.9982 69.6258 47.3597 72.0678C47.9019 75.0526 48.7151 80.208 49.4381 82.2883C49.7995 80.9316 50.2514 78.3087 50.4321 75.4144C50.4321 74.9621 50.4321 74.4194 50.4321 73.6959C50.6128 68.9022 50.9743 58.8626 58.7457 58.8626C66.5171 58.8626 66.5171 68.9022 66.6979 73.6959C66.6979 74.4194 66.6979 74.9621 66.6979 75.4144C66.969 78.3087 67.3304 80.9316 67.6919 82.2883C68.4148 80.208 69.3184 75.0526 69.7703 72.0678C70.2221 69.5353 70.4932 67.636 70.7643 66.7315C71.3065 65.013 71.668 63.4754 72.1198 62.0283C72.662 59.948 73.2041 57.9582 74.0174 55.5161C74.4693 54.2499 74.8307 53.1645 75.1922 52.1696C76.4573 48.5517 77.1802 46.381 76.9995 42.944C76.8187 40.1402 75.644 37.9695 74.65 36.6128C73.5656 35.1656 71.3968 34.0803 69.0473 33.8994C69.0473 33.9898 69.0473 34.1707 69.0473 34.2612C68.8666 35.0752 68.5051 35.7083 68.234 36.3414C67.8726 36.9746 67.6015 37.5172 67.6015 38.1504C67.6015 39.3262 66.6978 40.3211 65.5231 40.3211C64.7098 40.3211 63.8965 40.502 63.1736 40.5924C63.1736 40.5924 63.1736 40.5924 63.0833 40.5924C62.7218 40.5924 62.2699 40.7733 61.9085 40.8638C61.3663 40.9542 60.7337 41.1351 60.1916 41.2256C58.3842 41.4969 56.3962 41.7682 54.5889 40.6829C54.3178 40.502 54.0467 40.3211 53.6852 40.0497C52.3298 38.8739 51.2454 37.2459 50.7935 35.437C50.7032 34.9847 50.6128 34.5325 50.6128 34.0803C50.5224 34.0803 50.4321 34.0803 50.2514 34.0803C49.7995 33.9898 49.2574 33.8994 48.6248 33.8994H48.8959Z" fill="#BAA69A"/>
<mask id="mask0_631_7417" style="mask-type:luminance" maskUnits="userSpaceOnUse" x="25" y="0" width="72" height="81">
<path d="M93.4438 20.4284C92.5401 16.1774 90.9136 12.0168 88.0219 8.8512C85.4013 6.13781 82.0578 4.50977 78.4432 3.87664C78.0817 3.87664 77.2684 4.23843 76.5455 4.50977C76.9069 5.77602 77.2684 7.04227 77.5395 8.30853C77.901 10.1175 78.0817 12.3786 76.4551 13.6449C76.0937 13.9162 75.7322 14.0067 75.4611 14.278C75.4611 14.278 75.4611 14.278 75.3707 14.278C75.7322 15.4538 75.3707 16.3583 75.0092 17.4436C74.8285 17.9863 74.5575 18.4385 74.196 18.9812C74.196 18.9812 74.1056 19.1621 74.0153 19.2526C74.0153 19.343 73.8345 19.4335 73.8345 19.5239C73.8345 19.5239 73.7441 19.7048 73.6538 19.7952C73.6538 19.7952 73.5634 19.8857 73.4731 19.9761C73.4731 19.9761 73.2923 20.157 73.2019 20.2475C73.2019 20.2475 73.0212 20.4284 72.9309 20.5188C72.9309 20.5188 72.8405 20.6093 72.7501 20.6997C72.7501 20.6997 72.5694 20.8806 72.479 20.971C72.479 21.0615 72.3887 21.2424 72.2983 21.3328C71.9368 22.0564 71.2139 22.8704 71.0332 23.594C70.9428 23.7749 71.0332 23.594 71.0332 23.7749V23.9558C71.0332 24.7698 71.485 25.4934 71.1236 26.3978C71.1236 26.3978 71.1236 26.4883 71.1236 26.5787C71.1236 26.5787 71.1236 26.5787 71.1236 26.6692C71.1236 26.6692 71.1236 26.6692 71.0332 26.7596C71.0332 26.7596 70.8525 26.9405 70.7621 27.031C70.491 27.3023 70.4006 27.4832 70.2199 27.7545C70.0392 28.0259 69.8585 28.3877 69.6777 28.659C69.5874 28.8399 69.6777 28.659 69.6777 28.9303C69.7681 29.2017 69.8585 29.473 69.8585 29.7444C69.8585 29.9253 69.8584 30.1061 69.9488 30.287C69.9488 30.8297 69.9488 31.3724 69.9488 31.9151V32.096C69.9488 32.2769 69.9488 32.4578 69.7681 32.6387C69.7681 32.6387 69.7681 32.7291 69.7681 32.8195C69.7681 32.8195 69.7681 32.8195 69.7681 32.91C69.7681 33.0909 69.5874 33.3622 69.497 33.5431C69.497 33.6336 69.3162 33.8145 69.3162 33.9049C69.3162 33.9049 69.2259 34.0858 69.1355 34.1762C69.1355 34.2667 69.0452 34.3571 68.9548 34.538C68.9548 34.538 68.9548 34.7189 68.8644 34.7189C68.8644 34.7189 68.8644 34.8998 68.7741 34.9903V35.1712V35.352C68.7741 35.352 68.7741 35.352 68.7741 35.4425C68.7741 35.4425 68.7741 35.5329 68.7741 35.6234C68.7741 35.6234 68.7741 35.7138 68.7741 35.8043C68.7741 36.4374 68.3223 37.0705 67.5993 37.0705C66.8764 37.0705 66.2438 37.0705 65.5209 37.2514C65.4305 37.2514 65.2498 37.2514 65.1595 37.2514C65.1595 37.2514 65.1594 37.2514 65.0691 37.2514C64.9787 37.2514 64.8883 37.2514 64.798 37.2514C64.798 37.2514 64.798 37.2514 64.7076 37.2514H64.5269C64.3462 37.2514 64.1655 37.2514 63.9847 37.3419C63.804 37.3419 63.5329 37.4323 63.3522 37.4323C63.0811 37.4323 62.9003 37.5228 62.6292 37.5228C61.6352 37.7037 60.5508 37.8846 59.5568 37.7037C58.9242 37.6132 58.2013 37.4323 57.6592 37.0705C57.117 36.7087 56.6651 36.347 56.2133 35.8947C56.2133 35.8947 56.2133 35.8043 56.1229 35.7138C55.4904 34.9903 55.0385 34.1762 54.6771 33.3622C54.6771 33.3622 54.6771 33.2718 54.6771 33.1813C54.0445 31.282 54.4964 29.5635 55.0385 27.6641C55.0385 27.6641 55.0385 27.6641 55.0385 27.4832C55.0385 26.5787 55.0386 25.4934 55.4 24.5889C55.4 24.3176 54.7675 23.9558 54.4964 23.8653C53.9542 23.8653 53.3216 24.3176 52.8698 24.6794C52.2372 25.222 51.3335 24.6794 51.0625 24.0462C50.0684 21.5137 48.3515 19.6143 46.8153 17.5341C46.8153 17.5341 46.7249 17.3532 46.6346 17.2627C45.9117 16.1774 45.2791 14.9111 45.8213 13.6449C46.1827 12.65 46.8153 11.4742 45.6405 10.6601C44.7369 10.027 44.1044 8.94165 43.9236 7.85629C43.7429 6.59004 45.3694 5.23334 45.3694 5.23334C45.3694 5.23334 44.1947 2.79128 43.6525 2.15816C43.3814 1.88682 42.297 0.891907 41.7548 0.982354C38.1402 1.61548 34.7063 3.24352 32.0857 6.04736C29.1037 9.21299 27.5675 13.3735 26.6639 17.6245C24.4047 28.1163 26.1216 39.3317 31.0014 48.8286C34.4353 55.5216 39.4054 61.3102 43.2007 67.7319C44.5562 70.0835 48.0804 80.6658 52.2372 80.9371C52.2372 80.9371 52.2372 80.9371 52.3276 80.9371C53.2312 80.9371 54.1349 80.4849 55.0385 79.3995C55.9422 78.4046 56.3036 77.0479 56.6651 75.6912C57.4784 72.9778 58.2917 70.174 59.105 67.4606C59.4664 66.1039 60.0086 64.5663 61.3641 64.1141C62.6292 64.5663 63.2618 66.1039 63.6232 67.4606C64.4365 70.174 65.2498 72.9778 66.0631 75.6912C66.4246 76.9575 66.8764 78.3142 67.6897 79.3995C68.4126 80.304 69.1355 80.7562 69.8585 80.9371C69.9488 80.9371 70.0392 80.9371 70.1296 80.9371C70.2199 80.9371 70.3103 80.9371 70.4006 80.9371C74.5574 80.5753 77.9913 70.0835 79.3468 67.7319C83.1422 61.2198 88.0219 55.5216 91.5461 48.8286C96.5162 39.3317 98.1428 28.1163 95.8837 17.6245L93.4438 20.4284Z" fill="white"/>
</mask>
<g mask="url(#mask0_631_7417)">
<path d="M84.3174 1.88884C84.2271 1.79839 80.0703 1.52705 78.8955 1.70795C76.6364 2.16018 74.558 3.15509 72.9314 4.69268C70.2204 7.22519 68.6842 11.1144 69.136 14.8227C69.4071 16.8125 70.2205 18.7119 70.3108 20.7922C70.4915 23.4151 69.4975 25.9476 68.5939 28.2992C67.6902 30.6509 66.6962 33.0025 65.0696 34.9923C64.1659 36.1681 62.9912 37.2535 61.5454 37.3439C59.467 37.4343 57.8404 35.535 56.9367 33.5451C55.9427 31.3744 55.4909 28.9324 54.4065 26.7616C52.8703 23.7769 50.3401 21.5157 48.4424 18.8024C46.8158 16.3603 45.7314 13.5564 44.4663 10.8431C43.2012 8.12965 41.7554 5.41626 39.5866 3.51688C37.96 2.06973 35.7009 0.984375 33.5321 0.984375C31.9056 0.984375 25.8511 3.06465 28.8331 4.42134C29.5561 4.78313 31.7248 3.60733 33.8032 4.78313C35.1587 5.5067 34.978 7.67742 34.7069 9.03412C34.4358 10.6622 33.984 12.4711 34.8876 13.8278C35.4298 14.6418 36.2431 15.5463 36.6949 16.4507C37.2371 17.6265 36.966 18.9832 37.2371 20.159C38.0504 23.3247 42.3879 24.5005 43.3819 27.5757C43.653 28.4801 43.6531 29.5655 43.9241 30.47C44.4663 32.5502 47.358 32.0076 47.4484 33.726C47.6291 35.0827 47.7195 36.5299 47.9002 37.8866C48.352 42.4089 53.051 45.5745 56.3945 48.2879C57.2078 48.9211 58.1115 49.6446 59.1055 49.916C60.6417 50.2778 62.6298 49.2828 64.2563 49.2828C65.8829 49.2828 67.2384 48.107 68.2324 46.8408C69.4975 45.1223 70.5819 43.1325 71.0337 41.0522C71.3952 39.6955 71.2145 38.3388 71.2145 36.8917C71.2145 35.8968 71.3952 34.8114 72.0277 33.9974C72.5699 33.2738 73.4736 32.912 74.2869 32.4598C77.3593 30.8317 76.0038 28.7515 76.0038 26.0381C76.0038 24.1387 77.7207 23.3247 77.9015 21.4253C78.0822 18.9832 84.8596 15.1845 83.6849 13.466C81.6065 10.3908 81.8775 10.3908 85.1307 9.12457C86.5765 8.58189 84.1367 3.51688 89.1068 5.41626C90.1912 5.77804 85.6729 2.88375 84.5885 1.70795L84.3174 1.88884ZM55.0391 34.4496C54.4969 34.8114 53.5029 34.7209 53.1414 34.0878C52.5089 32.912 52.1474 31.6458 51.6052 30.3795C51.4245 30.0177 51.4244 29.9273 51.2437 29.6559C51.2437 29.5655 51.063 29.3846 51.063 29.2942C51.063 29.2942 50.8823 29.0228 50.9726 29.1133C50.6112 28.661 50.3401 28.5706 49.7979 28.4801C48.8942 28.2992 48.6231 27.4852 48.8038 26.7616C48.5327 25.8572 49.1653 24.6814 50.3401 25.0432C52.4185 25.5858 54.6776 27.1234 54.768 29.475C54.768 29.8368 54.6776 30.1082 54.4969 30.3795C54.4969 30.5604 54.5872 30.7413 54.6776 30.8317C54.7679 31.1935 54.9487 31.4649 55.0391 31.8267C55.0391 32.0076 55.1294 32.098 55.2198 32.2789C55.3102 32.5502 55.2198 32.4598 55.4005 32.6407C55.762 33.2738 55.6716 34.0878 55.0391 34.5401V34.4496Z" fill="#8C6E5E"/>
</g>
</svg>
