<svg width="115" height="104" viewBox="0 0 115 104" fill="none" xmlns="http://www.w3.org/2000/svg">
<path d="M111.284 80.5805C109.248 71.0099 108.274 69.1489 105.795 59.8442C102.873 49.2102 99.597 41.2347 95.7899 40.1713C85.9623 37.4242 82.3323 56.7426 75.692 65.3384C70.5568 63.6547 63.0312 60.3759 57.6304 54.3499C57.6304 54.3499 57.4534 54.5272 57.3648 54.6158C57.3648 54.5272 57.1877 54.4386 57.0992 54.3499C51.787 60.2872 44.2614 63.5661 39.0377 65.3384C32.3974 56.7426 28.7674 37.4242 18.9398 40.1713C15.1327 41.2347 11.7683 49.1216 8.93509 59.8442C6.45605 69.0603 5.48215 71.0099 3.4458 80.5805C0.0813924 96.5315 0.435537 102.557 9.82046 102.557C19.2054 102.557 45.7665 102.557 57.2763 102.557H57.4534C68.9632 102.557 93.3994 102.557 104.909 102.557C116.419 102.557 114.648 96.6201 111.284 80.5805Z" fill="white"/>
<path d="M57.4531 103.442H57.276C51.5211 103.442 42.5789 103.442 33.5481 103.442C24.5173 103.442 15.5751 103.442 9.82016 103.442C4.06526 103.442 3.88817 102.556 2.38304 100.784C-0.361602 97.4164 0.346705 91.036 2.56013 80.402C3.88818 74.0216 4.77354 71.0972 5.92452 67.0208C6.54428 64.9827 7.16405 62.7672 8.04942 59.577C11.5024 46.8162 14.8668 40.3472 18.6739 39.2838C26.0224 37.2457 30.0951 45.8415 33.9908 54.1714C35.673 57.8047 37.4437 61.5266 39.3915 64.2737C44.5267 62.5014 51.5211 59.3112 56.4792 53.7283L57.0989 53.0194L57.3645 53.2853L57.6301 53.0194L58.2499 53.7283C63.208 59.2226 70.1139 62.5014 75.3375 64.2737C77.2854 61.6152 79.0561 57.8047 80.7383 54.1714C84.6339 45.8415 88.7066 37.2457 96.0552 39.2838C99.8623 40.3472 103.227 46.8162 106.68 59.577C107.565 62.6786 108.185 64.9827 108.805 67.0208C109.956 71.0972 110.841 74.0216 112.169 80.402C114.382 91.036 115.091 97.4164 112.346 100.784C110.841 102.556 108.539 103.442 104.909 103.442C99.154 103.442 90.1232 103.442 81.181 103.442C72.2387 103.442 63.208 103.442 57.4531 103.442ZM20.7987 40.7903C20.2675 40.7903 19.7363 40.7903 19.2051 41.0562C17.0802 41.6765 13.7158 45.3984 9.82016 60.1088C8.93479 63.2103 8.31502 65.5144 7.69526 67.5525C6.54428 71.5403 5.65892 74.4646 4.33087 80.7564C2.29452 90.5929 1.49768 96.8847 3.79964 99.6318C4.86209 100.961 6.8099 101.67 9.82016 101.67C15.5751 101.67 24.6058 101.67 33.5481 101.67C42.4903 101.67 51.5211 101.67 57.276 101.67H57.4531C63.208 101.67 72.1502 101.67 81.181 101.67C90.2117 101.67 99.154 101.67 104.909 101.67C110.664 101.67 109.867 101.05 110.929 99.6318C113.231 96.796 112.435 90.5929 110.398 80.7564C109.07 74.4646 108.185 71.5403 107.034 67.5525C106.414 65.5144 105.794 63.2103 104.909 60.1088C100.925 45.487 97.5603 41.6765 95.524 41.0562C89.592 39.3725 86.0505 46.9935 82.332 54.969C80.4727 58.9567 78.6134 63.0331 76.3114 65.8688L75.9573 66.4005L75.3375 66.2233C70.1139 64.5396 62.9424 61.2608 57.5416 55.6779L57.276 55.9438L57.0104 55.6779C51.6982 61.2608 44.4381 64.451 39.2144 66.2233L38.5947 66.4005L38.2405 65.8688C36.0271 62.9445 34.0793 58.8681 32.22 54.969C28.8556 47.7024 25.5797 40.7903 20.6217 40.7903H20.7987Z" fill="#BAA69A"/>
<path d="M106.59 73.3108C104.554 64.5378 102.783 55.233 98.3563 48.2323C93.4868 40.5226 90.4766 49.1185 88.3517 52.4859C86.1382 55.9419 82.8624 60.7272 80.9146 63.4744C77.5502 68.171 74.8055 73.6653 73.9201 75.7921C71.6182 81.1091 65.6862 88.0212 61.6135 79.4254C60.1084 76.2352 58.4262 66.9304 57.5408 67.2849C56.6554 67.019 54.9732 76.2352 53.4681 79.4254C49.3954 88.0212 43.4634 81.1091 41.1615 75.7921C38.8595 70.4751 37.5314 68.171 34.167 63.4744C32.2192 60.8159 28.8548 55.9419 26.7299 52.4859C24.605 49.1185 21.5948 40.5226 16.7253 48.2323C12.2984 55.233 10.5277 64.6264 8.49131 73.3108C6.80911 80.5774 4.59568 88.996 4.68422 94.4902C4.68422 97.6804 5.39251 102.554 9.99643 102.554C24.7821 102.554 54.1764 102.554 57.6293 102.554C61.0823 102.554 90.4766 102.554 105.262 102.554C120.048 102.554 110.486 97.6804 110.574 94.4902C110.663 88.996 108.45 80.666 106.767 73.3108H106.59Z" fill="white"/>
<path d="M67.9891 103.354C62.5883 103.354 58.5156 103.354 57.3646 103.354C55.0627 103.354 40.9853 103.354 27.4391 103.354H9.82026C7.07561 103.354 3.71121 101.759 3.62267 94.4033C3.53413 89.7067 5.12779 82.9718 6.63292 76.5028C6.89853 75.3508 7.16415 74.1101 7.42976 72.9581C7.60684 72.0719 7.87244 71.1858 8.04952 70.211C9.82026 62.2355 11.6795 53.9941 15.7522 47.5251C17.2574 45.1325 18.851 43.9805 20.4447 43.9805C23.0123 43.9805 24.8715 47.3479 26.2881 49.9178C26.6423 50.6267 26.9964 51.247 27.3506 51.7787C29.3869 54.9689 32.7513 59.8428 34.7877 62.6786C38.1521 67.3753 40.8967 72.9581 41.8706 75.1735C43.3758 78.7182 46.209 82.2629 48.688 82.3515C50.1046 82.3515 51.3441 81.1995 52.4951 78.8068C53.1148 77.4776 53.8231 74.7304 54.5314 72.3378C55.771 67.8183 56.1251 66.5777 56.9219 66.2232C57.099 66.1346 57.2761 66.1346 57.4532 66.1346C57.6302 66.1346 57.8073 66.1346 57.9844 66.2232C58.7812 66.6663 59.2239 68.0842 60.3749 72.3378C60.9946 74.7304 61.7029 77.3889 62.4112 78.8068C63.5622 81.1995 64.8017 82.3515 66.2183 82.3515C68.6974 82.3515 71.5305 78.7182 73.0357 75.1735C74.0096 72.9581 76.7542 67.3753 80.1186 62.6786C82.155 59.8428 85.5194 54.9689 87.5557 51.7787C87.9099 51.247 88.264 50.6267 88.6182 49.9178C90.0348 47.2593 91.8055 44.0691 94.4616 43.9805C96.0553 43.9805 97.649 45.0439 99.1541 47.5251C103.227 53.9941 105.086 62.2355 106.857 70.211C107.034 71.0972 107.299 72.0719 107.477 72.9581C107.742 74.1101 108.008 75.2621 108.273 76.5028C109.779 82.9718 111.372 89.618 111.284 94.4033C111.107 101.759 107.831 103.354 105.086 103.354H87.4672C80.5613 103.354 73.6554 103.354 68.0776 103.354H67.9891ZM57.3646 101.581C59.6666 101.581 73.744 101.581 87.2901 101.581H104.909C107.831 101.581 109.247 99.1886 109.336 94.4033C109.336 89.8839 107.831 83.3263 106.414 76.9459C106.148 75.7938 105.883 74.5532 105.617 73.4012C105.44 72.515 105.175 71.5402 104.998 70.6541C103.227 62.8558 101.456 54.7031 97.5604 48.5885C96.4094 46.8162 95.347 45.8414 94.4616 45.8414C92.868 45.8414 91.2743 48.7658 90.1233 50.8926C89.7692 51.6015 89.415 52.3104 89.0609 52.8421C86.936 56.2096 83.5716 60.9949 81.6238 63.8306C78.3479 68.4387 75.6918 73.7557 74.7179 75.9711C73.3898 78.984 70.2025 84.1238 66.3069 84.2124C64.182 84.2124 62.2341 82.7059 60.8176 79.693C60.1093 78.1865 59.401 75.528 58.6927 72.9581C58.3385 71.6289 57.8958 69.8565 57.5417 68.7931C57.1875 69.8565 56.7449 71.5402 56.3907 72.9581C55.6824 75.528 54.9741 78.1865 54.2658 79.693C52.8492 82.7059 50.99 84.2124 48.8651 84.2124C48.8651 84.2124 48.8651 84.2124 48.7765 84.2124C44.8809 84.2124 41.605 78.984 40.3655 75.9711C39.3916 73.7557 36.7355 68.4387 33.4596 63.8306C31.4233 60.9949 28.1474 56.2096 26.0225 52.8421C25.6684 52.3104 25.3142 51.6015 24.9601 50.8926C23.8091 48.7658 22.2154 45.93 20.6218 45.8414C19.7364 45.8414 18.5854 46.7276 17.523 48.5885C13.6273 54.7917 11.7681 62.8558 10.0859 70.6541C9.9088 71.5402 9.64318 72.515 9.4661 73.4012C9.20049 74.5532 8.93489 75.7052 8.66927 76.9459C7.16415 83.3263 5.65901 89.8839 5.74755 94.4033C5.83609 99.2773 7.25268 101.581 10.1744 101.581H27.7933C41.3394 101.581 55.4168 101.581 57.7188 101.581H57.3646Z" fill="#BAA69A"/>
<path d="M91.6287 18.4579C90.7433 14.2929 89.1496 10.2166 86.3165 7.11499C81.1813 1.70938 73.0359 0.823213 66.2186 2.95001C63.3854 3.83618 60.6407 5.07681 57.6305 5.16543C54.6202 5.07681 51.8756 3.83618 49.0424 2.95001C42.225 0.823213 34.0796 1.70938 28.9445 7.11499C26.0228 10.2166 24.5176 14.2929 23.6323 18.4579C21.4188 28.7375 23.101 39.7259 27.882 49.0307C31.2464 55.5883 36.116 61.2598 39.8345 67.5515C41.4282 70.3873 46.2092 85.2749 51.5214 78.9831C52.4068 78.0083 52.7609 76.6791 53.1151 75.3498C53.9119 72.6913 54.7087 69.9442 55.5056 67.2857C55.8597 65.9564 56.3909 64.45 57.719 64.0069C58.9585 64.45 59.5783 65.9564 59.9324 67.2857C60.7293 69.9442 61.5261 72.6913 62.3229 75.3498C62.6771 76.5904 63.1198 77.9197 63.9166 78.9831C69.2288 85.2749 74.0098 70.3873 75.6035 67.5515C79.322 61.1711 84.103 55.5883 87.556 49.0307C92.4255 39.7259 94.0192 28.7375 91.8057 18.4579H91.6287Z" fill="white"/>
<path d="M66.3955 81.4653C65.2445 81.4653 64.0935 80.845 63.0311 79.6044C62.0572 78.4523 61.6145 76.9459 61.2603 75.7052L58.8699 67.6411C58.6042 66.5777 58.1616 65.6029 57.5418 65.0712C56.922 65.5143 56.4794 66.5777 56.2137 67.6411L53.9118 75.7052C53.5576 77.0345 53.115 78.4523 52.1411 79.6044C50.9901 81.0222 49.662 81.6425 48.334 81.4653C44.7039 80.9336 41.9593 74.7304 40.1886 70.5655C39.7459 69.5021 39.3032 68.6159 39.0376 68.0842C37.4439 65.3371 35.5846 62.6786 33.8139 60.1087C31.5119 56.7413 29.0329 53.2852 27.0851 49.4747C22.0385 39.7269 20.5333 28.6498 22.7468 18.2816C23.8092 13.1419 25.6685 9.33135 28.3246 6.49562C34.2566 0.292452 43.0217 0.115219 49.3079 2.06479C50.0162 2.24202 50.7245 2.50787 51.3442 2.77372C53.4691 3.48265 55.5054 4.19159 57.7189 4.2802C59.8438 4.2802 61.8801 3.48265 64.005 2.77372C64.7133 2.50787 65.3331 2.33064 66.0414 2.06479C72.3275 0.115219 81.0926 0.203836 87.0246 6.49562C89.6807 9.33135 91.54 13.1419 92.6024 18.2816C94.8159 28.6498 93.3107 39.7269 88.2641 49.4747C86.3163 53.1966 83.9258 56.7413 81.5353 60.1087C79.7646 62.6786 77.9053 65.3371 76.3116 68.0842C76.046 68.5273 75.6034 69.5021 75.1607 70.5655C73.3014 74.7304 70.5567 80.9336 67.0153 81.4653C66.8382 81.4653 66.6611 81.4653 66.484 81.4653H66.3955ZM57.5418 63.2103C57.6303 63.2103 57.7189 63.2103 57.896 63.2103C59.6667 63.9192 60.2864 65.9574 60.6406 67.1094L63.0311 75.1735C63.3852 76.3255 63.7394 77.5662 64.4477 78.4523C65.2445 79.3385 65.9528 79.7816 66.6611 79.693C69.3172 79.3385 71.9733 73.1353 73.4785 69.8565C74.0097 68.7045 74.3638 67.8183 74.718 67.198C76.4002 64.3623 78.2595 61.7038 80.0302 59.1339C82.3322 55.7665 84.7227 52.399 86.5819 48.7658C91.3629 39.5496 92.8681 28.6498 90.7432 18.7247C89.6807 13.9394 88.0871 10.3948 85.608 7.82487C80.2073 2.1534 72.1504 2.06479 66.3955 3.92574C65.6872 4.10297 65.0674 4.36882 64.3591 4.63467C62.2343 5.3436 59.9323 6.14115 57.5418 6.22977C55.0628 6.14115 52.7608 5.3436 50.6359 4.63467C49.9276 4.36882 49.3079 4.19159 48.5996 3.92574C42.8447 2.1534 34.7878 2.24202 29.387 7.82487C26.9965 10.3948 25.3143 13.9394 24.2519 18.7247C22.127 28.5612 23.6321 39.5496 28.4131 48.7658C30.2724 52.399 32.6629 55.8551 34.9649 59.1339C36.7356 61.7038 38.6834 64.4509 40.2771 67.198C40.6312 67.7297 40.9854 68.7045 41.5166 69.8565C43.0217 73.1353 45.6778 79.3385 48.334 79.693C49.0423 79.7816 49.8391 79.4271 50.5474 78.4523C51.2557 77.5662 51.6098 76.3255 51.964 75.1735L54.2659 67.1094C54.6201 65.9574 55.1513 63.9192 57.0106 63.2103C57.0991 63.2103 57.1877 63.2103 57.3647 63.2103H57.5418Z" fill="#BAA69A"/>
<path d="M84.6322 29.0057C83.9239 25.9041 81.799 21.4733 79.1429 19.6123C74.9817 16.688 69.2268 15.979 64.0031 17.5741C61.8782 18.2831 60.6387 18.5489 57.4514 19.6123C54.264 18.5489 53.0245 18.2831 50.8996 17.5741C45.6759 15.979 40.0096 16.688 35.7598 19.6123C33.1037 21.4733 30.9788 25.8155 30.2705 29.0057C29.5622 31.93 28.5883 40.0828 32.3069 47.2607C34.8744 52.2232 36.9993 55.1476 39.3898 60.2873C40.8949 63.4775 45.6759 80.5806 48.6862 80.5806C51.6965 80.5806 52.0506 72.2506 52.3162 70.3896C52.8474 66.136 53.2901 60.819 57.3628 60.819C61.4355 60.819 61.8782 66.136 62.4094 70.3896C62.675 72.2506 63.9146 80.5806 66.0395 80.5806C69.0497 80.5806 73.8307 63.4775 75.3358 60.2873C77.7263 55.2362 79.8512 52.3118 82.4188 47.2607C86.1374 40.1714 85.0749 32.0186 84.4552 29.0057H84.6322Z" fill="white"/>
<path d="M66.22 81.4645C63.741 81.4645 62.4129 75.5272 61.7046 70.5647V70.2988C60.9963 65.6021 60.2881 61.703 57.5434 61.703C54.7988 61.703 54.0905 64.9818 53.4707 69.5899V70.476C52.6739 75.4386 51.3458 81.3759 48.8668 81.3759C46.3877 81.3759 44.2629 76.2361 40.5443 65.5135C39.7475 63.2981 39.1277 61.3485 38.685 60.551C37.357 57.7152 36.1175 55.5884 34.7894 53.373C33.8155 51.6007 32.753 49.8284 31.6021 47.6129C27.2638 39.1944 29.3001 29.801 29.5657 28.7376C30.3626 25.3702 32.576 20.8507 35.4092 18.8125C39.836 15.711 45.768 14.9134 51.2573 16.6857C52.0541 16.9516 52.7624 17.1288 53.3822 17.3061C54.5331 17.6605 55.6841 18.015 57.5434 18.5467C59.4027 17.9264 60.5537 17.5719 61.7046 17.3061C62.4129 17.1288 63.0327 16.863 63.8295 16.6857C69.3188 15.002 75.2508 15.7996 79.6777 18.8125C82.5108 20.7621 84.7243 25.2816 85.5211 28.7376C85.7867 29.801 87.8231 39.1057 83.4847 47.6129C82.3338 49.8284 81.2713 51.6007 80.2974 53.373C78.9694 55.5884 77.7298 57.8039 76.4018 60.551C76.0476 61.3485 75.3393 63.2981 74.5425 65.5135C70.824 76.2361 68.6991 81.3759 66.22 81.3759V81.4645ZM57.5434 59.9307C62.0588 59.9307 62.8556 65.7794 63.4754 70.033V70.2988C64.1837 75.6158 65.5117 79.4263 66.3086 79.6922C67.9022 79.4263 71.5323 68.9696 72.8603 64.9818C73.6571 62.5892 74.3654 60.7282 74.7196 59.842C76.0476 56.9177 77.3757 54.7909 78.7038 52.4869C79.6777 50.8031 80.7401 48.9422 81.8911 46.8154C85.1669 40.435 84.6357 32.7254 83.8389 29.1807C83.1306 26.0791 81.0943 21.9141 78.7038 20.319C74.7196 17.5719 69.3188 16.863 64.3608 18.3695C63.5639 18.6353 62.8556 18.8125 62.1473 18.9898C60.9963 19.3442 59.7568 19.6987 57.809 20.319C57.6319 20.319 57.4549 20.319 57.2778 20.319C55.33 19.6987 54.0905 19.3442 52.9395 18.9898C52.2312 18.8125 51.5229 18.5467 50.7261 18.3695C45.768 16.7744 40.3672 17.5719 36.3831 20.319C33.9926 21.9141 31.9562 26.0791 31.2479 29.1807C30.4511 32.7254 29.8313 40.435 33.1957 46.8154C34.3467 48.9422 35.3206 50.8031 36.3831 52.4869C37.7111 54.7909 38.9506 56.9177 40.3672 59.842C40.8099 60.7282 41.4297 62.5892 42.2265 64.9818C43.5546 68.8809 47.1846 79.4263 48.8668 79.6036C49.5751 79.3377 50.9031 75.5272 51.6114 70.2102V69.324C52.3197 65.0704 52.9395 59.842 57.5434 59.842V59.9307Z" fill="#BAA69A"/>
<path d="M76.666 40.5229C76.4889 37.9531 75.515 35.649 74.2755 33.8767C72.5047 31.3954 68.5206 30.4206 65.5988 31.041C62.5886 31.6613 60.7293 32.193 57.719 33.2564C54.7088 32.193 52.8495 31.6613 49.8392 31.041C46.9175 30.5093 42.9334 31.484 41.1626 33.8767C39.8346 35.649 38.8607 37.9531 38.7721 40.5229C38.5065 45.0424 39.8346 47.435 41.6938 53.1065C43.0219 57.0943 43.6417 59.93 44.8812 64.0063C45.678 66.5762 47.2717 80.5777 48.8653 80.5777C50.459 80.5777 50.6361 73.8428 50.7246 72.4249C50.9902 68.9689 50.9902 56.7398 58.0732 56.7398C65.1562 56.7398 64.7135 68.9689 64.9791 72.4249C65.0676 73.9314 65.7759 80.5777 66.8383 80.5777C68.3435 80.5777 70.0257 66.5762 70.8225 64.0063C72.062 59.93 72.6818 57.1829 74.0098 53.1065C75.8691 47.3464 77.1972 45.0424 76.9316 40.5229H76.666Z" fill="white"/>
<path d="M66.5718 81.4662C65.8635 81.4662 64.624 81.4662 63.8272 72.4273C63.8272 71.9842 63.8272 71.4525 63.7386 70.7436C63.5615 66.49 63.1189 57.5397 57.8066 57.5397C52.4944 57.5397 51.6976 66.6672 51.432 71.098C51.432 71.6297 51.432 72.0728 51.432 72.4273C50.6351 81.4662 49.3956 81.4662 48.6873 81.4662C47.1822 81.4662 46.5624 79.3394 44.8802 69.3257C44.5261 67.1103 44.1719 65.0721 43.9063 64.2745C43.3751 62.5908 43.021 61.0844 42.5783 59.6665C42.0471 57.6283 41.5158 55.7674 40.719 53.3747C40.3649 52.1341 39.9222 51.0707 39.6566 50.1845C38.417 46.5512 37.5317 44.2472 37.7973 40.5253C37.9743 37.3351 39.3024 34.8538 40.3649 33.436C42.4897 30.5116 46.9166 29.6254 49.9269 30.2458C52.9371 30.8661 54.7964 31.3978 57.6296 32.3726C60.4628 31.3978 62.322 30.8661 65.3323 30.2458C68.4311 29.6254 72.7694 30.6002 74.8943 33.436C75.9567 34.9424 77.2848 37.3351 77.4618 40.5253C77.6389 44.2472 76.8421 46.6398 75.6026 50.1845C75.2484 51.1593 74.8943 52.2227 74.5401 53.3747C73.7433 55.6787 73.2121 57.6283 72.6809 59.6665C72.3267 61.0844 71.884 62.5908 71.3528 64.2745C71.0872 65.0721 70.733 67.1103 70.3789 69.3257C68.6967 79.3394 67.9884 81.4662 66.5718 81.4662ZM47.979 31.7522C45.6771 31.7522 43.021 32.6384 41.6929 34.4107C40.719 35.74 39.568 37.7782 39.3909 40.6139C39.2139 43.9813 39.9222 46.1081 41.1617 49.6528C41.5158 50.6276 41.87 51.691 42.3127 52.9316C43.1095 55.3243 43.6407 57.2738 44.1719 59.312C44.5261 60.7299 44.9688 62.2364 45.5 63.9201C45.7656 64.8062 46.1198 66.7558 46.4739 69.1485C47.0051 72.0728 47.802 77.124 48.5103 79.1621C48.8644 77.8329 49.3071 75.263 49.4842 72.4273C49.4842 72.0728 49.4842 71.6297 49.4842 71.1867C49.7498 66.6672 50.3695 55.9446 57.6296 55.9446C64.8896 55.9446 65.1552 65.9583 65.3323 70.8322C65.3323 71.4525 65.3323 71.9842 65.3323 72.4273C65.5979 75.263 65.952 77.8329 66.3062 79.1621C67.0145 77.124 67.8999 72.0728 68.3425 69.1485C68.7852 66.6672 69.0508 64.8062 69.3164 63.9201C69.8477 62.2364 70.2018 60.7299 70.6445 59.312C71.1757 57.2738 71.707 55.3243 72.5038 52.9316C72.9465 51.691 73.3006 50.6276 73.6548 49.6528C74.8943 46.1081 75.6026 43.9813 75.4255 40.6139C75.2484 37.8668 74.0974 35.74 73.1235 34.4107C71.5299 32.1953 67.8113 31.3978 65.2437 31.8409C62.2335 32.4612 60.3742 32.9929 57.4525 34.0563C57.2754 34.0563 57.0983 34.0563 56.8327 34.0563C53.911 32.9929 52.1403 32.4612 49.0415 31.8409C48.5988 31.7522 48.0676 31.6636 47.4478 31.6636L47.979 31.7522Z" fill="#BAA69A"/>
<mask id="mask0_631_7379" style="mask-type:luminance" maskUnits="userSpaceOnUse" x="22" y="1" width="71" height="80">
<path d="M91.6228 18.4579C90.7375 14.2929 89.1438 10.2166 86.3106 7.11499C81.1755 1.70938 73.03 0.823213 66.2127 2.95001C63.3795 3.83618 60.6349 5.07681 57.6246 5.16543C54.6144 5.07681 51.8697 3.83618 49.0365 2.95001C42.2192 0.823213 34.0738 1.70938 28.9386 7.11499C26.0169 10.2166 24.5118 14.2929 23.6264 18.4579C21.413 28.7375 23.0952 39.7259 27.8762 49.0307C31.2406 55.5883 36.1101 61.2598 39.8287 67.5515C41.4223 70.3873 46.2033 85.2749 51.5156 78.9831C52.4009 78.0083 52.7551 76.6791 53.1092 75.3498C53.9061 72.6913 54.7029 69.9442 55.4997 67.2857C55.8539 65.9564 56.3851 64.45 57.7131 64.0069C58.9527 64.45 59.5724 65.9564 59.9266 67.2857C60.7234 69.9442 61.5202 72.6913 62.3171 75.3498C62.6712 76.5904 63.1139 77.9197 63.9107 78.9831C69.2229 85.2749 74.004 70.3873 75.5976 67.5515C79.3162 61.1711 84.0972 55.5883 87.5501 49.0307C92.4197 39.7259 94.0133 28.7375 91.7999 18.4579H91.6228Z" fill="white"/>
</mask>
<g mask="url(#mask0_631_7379)">
<path d="M61.4333 1.88614C57.9804 3.21539 58.7772 2.86092 55.0586 2.94954C52.4911 2.94954 42.9291 0.645509 45.6737 1.88614C56.1211 6.84867 54.616 10.482 57.3606 10.482C60.1053 10.482 58.6001 6.84867 69.5787 1.70891C69.7558 1.70891 64.355 0.734125 61.3448 1.79753L61.4333 1.88614Z" fill="#8C6E5E"/>
</g>
</svg>
