<svg width="115" height="105" viewBox="0 0 115 105" fill="none" xmlns="http://www.w3.org/2000/svg">
<path d="M111.721 81.3679C109.666 71.7076 108.683 69.8292 106.18 60.4373C103.231 49.7036 99.9246 41.6534 96.0818 40.58C86.1621 37.8071 82.498 57.3066 75.7955 65.983C70.6122 64.2835 63.0161 60.974 57.5647 54.8916C57.5647 54.8916 57.3859 55.0705 57.2966 55.1599C57.2966 55.0705 57.1178 54.981 57.0285 54.8916C51.6665 60.8845 44.0703 64.1941 38.7976 65.983C32.0951 57.3066 28.4311 37.8071 18.5114 40.58C14.6686 41.6534 11.2727 49.6142 8.41293 60.4373C5.91065 69.7398 4.92762 71.7076 2.87218 81.3679C-0.523756 97.4684 -0.16629 103.551 9.30659 103.551C18.7795 103.551 45.5895 103.551 57.2072 103.551H57.3859C69.0036 103.551 93.6689 103.551 105.287 103.551C116.904 103.551 115.117 97.5579 111.721 81.3679Z" fill="white"/>
<path d="M57.3883 104.445H57.2096C51.4007 104.445 42.3747 104.445 33.2593 104.445C24.1438 104.445 15.1178 104.445 9.30894 104.445C3.5001 104.445 3.32136 103.55 1.80213 101.761C-0.968244 98.3625 -0.25331 91.9223 1.98086 81.1886C3.32136 74.7484 4.21503 71.7967 5.3768 67.6821C6.00237 65.6248 6.62793 63.3886 7.5216 60.1685C11.0069 47.2881 14.4028 40.7585 18.2456 39.6851C25.6631 37.6278 29.7739 46.3042 33.7061 54.7122C35.4041 58.3796 37.1914 62.1364 39.1575 64.9092C44.3407 63.1203 51.4007 59.9002 56.4053 54.265L57.0308 53.5494L57.2989 53.8178L57.567 53.5494L58.1926 54.265C63.1971 59.8107 70.1677 63.1203 75.4404 64.9092C77.4065 62.2258 79.1938 58.3796 80.8918 54.7122C84.8239 46.3042 88.9348 37.6278 96.3522 39.6851C100.195 40.7585 103.591 47.2881 107.076 60.1685C107.97 63.2992 108.595 65.6248 109.221 67.6821C110.383 71.7967 111.276 74.7484 112.617 81.1886C114.851 91.9223 115.566 98.3625 112.796 101.761C111.276 103.55 108.953 104.445 105.289 104.445C99.4801 104.445 90.3646 104.445 81.3386 104.445C72.3125 104.445 63.1971 104.445 57.3883 104.445ZM20.3904 41.2952C19.8542 41.2952 19.318 41.2952 18.7818 41.5635C16.637 42.1896 13.2411 45.9464 9.30894 60.7947C8.41527 63.9253 7.7897 66.2509 7.16414 68.3082C6.00237 72.3334 5.1087 75.2851 3.7682 81.6359C1.71276 91.5645 0.908459 97.9153 3.232 100.688C4.3044 102.03 6.27047 102.745 9.30894 102.745C15.1178 102.745 24.2332 102.745 33.2593 102.745C42.2853 102.745 51.4007 102.745 57.2096 102.745H57.3883C63.1971 102.745 72.2232 102.745 81.3386 102.745C90.454 102.745 99.4801 102.745 105.289 102.745C111.098 102.745 110.293 102.119 111.366 100.688C113.689 97.8258 112.885 91.5645 110.83 81.6359C109.489 75.2851 108.595 72.3334 107.434 68.3082C106.808 66.2509 106.183 63.9253 105.289 60.7947C101.267 46.0359 97.8715 42.1896 95.816 41.5635C89.8284 39.864 86.2538 47.5565 82.5004 55.6067C80.6237 59.6318 78.747 63.7464 76.4234 66.6087L76.066 67.1454L75.4404 66.9665C70.1677 65.267 62.929 61.9575 57.4777 56.3223L57.2096 56.5906L56.9415 56.3223C51.5794 61.9575 44.2514 65.1776 38.9787 66.9665L38.3532 67.1454L37.9957 66.6087C35.7615 63.657 33.7955 59.5424 31.9187 55.6067C28.5228 48.272 25.2162 41.2952 20.2117 41.2952H20.3904Z" fill="#BAA69A"/>
<path d="M106.987 74.0321C104.931 65.1768 103.144 55.7849 98.6758 48.7186C93.7606 40.9367 90.7221 49.613 88.5773 53.012C86.3431 56.5005 83.0366 61.3306 81.0705 64.1035C77.6745 68.8442 74.9042 74.3899 74.0105 76.5366C71.687 81.9035 65.6994 88.8804 61.5885 80.204C60.0693 76.9839 58.3713 67.5919 57.4776 67.9497C56.584 67.6814 54.886 76.9839 53.3668 80.204C49.2559 88.8804 43.2683 81.9035 40.9448 76.5366C40.0511 74.3899 37.2807 68.8442 33.8848 64.1035C31.9187 61.4201 28.5228 56.5005 26.378 53.012C24.2332 49.613 21.1947 40.9367 16.2795 48.7186C11.8112 55.7849 10.0239 65.2663 7.96842 74.0321C6.27045 81.3668 4.03628 89.8643 4.12565 95.41C4.12565 98.6301 4.84058 103.55 9.48766 103.55C24.4119 103.55 54.0817 103.55 57.567 103.55C61.0523 103.55 90.7221 103.55 105.646 103.55C120.571 103.55 110.919 98.6301 111.008 95.41C111.098 89.8643 108.864 81.4562 107.166 74.0321H106.987Z" fill="white"/>
<path d="M68.0221 104.356C62.5707 104.356 58.4598 104.356 57.298 104.356C54.9745 104.356 40.7652 104.356 27.0921 104.356H9.30807C6.53769 104.356 3.14176 102.746 3.05239 95.3216C2.96302 90.5809 4.57163 83.783 6.09086 77.2533C6.35896 76.0905 6.62706 74.8382 6.89516 73.7649C7.0739 72.8704 7.342 71.9759 7.52073 70.992C9.30807 62.9418 11.1848 54.6232 15.2956 48.0935C16.8149 45.6784 18.4235 44.5156 20.0321 44.5156C22.6237 44.5156 24.5004 47.9146 25.9303 50.5086C26.2878 51.2242 26.6452 51.8503 27.0027 52.387C29.0581 55.6071 32.4541 60.5267 34.5095 63.389C37.9054 68.1297 40.6758 73.7649 41.6589 76.001C43.1781 79.5789 46.0378 83.1568 48.5401 83.2463C49.97 83.2463 51.2211 82.0835 52.3829 79.6684C53.0084 78.3267 53.7234 75.5538 54.4383 73.1387C55.6894 68.5769 56.0469 67.3247 56.8512 66.9669C57.0299 66.8774 57.2087 66.8774 57.3874 66.8774C57.5661 66.8774 57.7449 66.8774 57.9236 66.9669C58.7279 67.4141 59.1747 68.8453 60.3365 73.1387C60.9621 75.5538 61.677 78.2372 62.392 79.6684C63.5537 82.0835 64.8942 83.2463 66.3241 83.2463C68.8264 83.2463 71.6861 79.5789 73.2053 76.001C74.1884 73.7649 76.9587 68.1297 80.3547 63.389C82.4101 60.5267 85.7167 55.786 87.8615 52.387C88.219 51.8503 88.5764 51.2242 88.9339 50.5086C90.3638 47.8252 92.1511 44.6051 94.8321 44.5156C96.4407 44.5156 98.0493 45.589 99.5686 48.0935C103.679 54.6232 105.556 62.9418 107.343 70.992C107.522 71.8865 107.79 72.8704 107.969 73.7649C108.237 74.9277 108.505 76.0905 108.773 77.2533C110.293 83.783 111.901 90.4915 111.812 95.3216C111.633 102.746 108.326 104.356 105.556 104.356H87.7721C80.8015 104.356 73.8309 104.356 68.2008 104.356H68.0221ZM57.298 102.567C59.6216 102.567 73.8309 102.567 87.504 102.567H105.288C108.237 102.567 109.667 100.152 109.756 95.3216C109.756 90.7598 108.237 84.1407 106.807 77.7005C106.539 76.5377 106.271 75.2855 106.003 74.1227C105.824 73.2282 105.556 72.2443 105.377 71.3498C103.59 63.4784 101.803 55.2493 97.8706 49.0774C96.7088 47.2885 95.6364 46.394 94.7427 46.3046C93.1341 46.3046 91.5255 49.2563 90.3638 51.4031C90.0063 52.1186 89.6488 52.8342 89.2914 53.3709C87.1466 56.7699 83.7506 61.6 81.7846 64.4624C78.478 69.1136 75.797 74.4804 74.8139 76.7166C73.4734 79.7578 70.2562 84.9458 66.3241 85.0352C64.1793 85.0352 62.2132 83.5146 60.7833 80.4734C60.0684 78.9528 59.3535 76.2694 58.6385 73.6754C58.2811 72.3337 57.8343 70.5448 57.4768 69.4714C57.1193 70.5448 56.6725 72.2443 56.315 73.6754C55.6001 76.2694 54.8851 78.9528 54.1702 80.4734C52.7403 83.5146 50.8636 85.0352 48.7188 85.0352C48.7188 85.0352 48.7188 85.0352 48.6295 85.0352C44.6973 85.0352 41.3908 79.7578 40.1396 76.7166C39.1566 74.4804 36.4756 69.1136 33.169 64.4624C31.1136 61.6 27.807 56.7699 25.6622 53.3709C25.3047 52.8342 24.9473 52.1186 24.5898 51.4031C23.428 49.2563 21.8194 46.394 20.2108 46.3046C19.3172 46.3046 18.1554 47.199 17.083 49.0774C13.1508 55.3387 11.2741 63.4784 9.57617 71.3498C9.39743 72.2443 9.12933 73.2282 8.9506 74.1227C8.6825 75.2855 8.4144 76.4483 8.1463 77.7005C6.62706 84.1407 5.10783 90.7598 5.19719 95.3216C5.28656 100.241 6.71643 102.567 9.66553 102.567H27.4495C41.1227 102.567 55.332 102.567 57.6555 102.567H57.298Z" fill="#BAA69A"/>
<path d="M91.8824 18.6602C90.9888 14.4561 89.3802 10.3416 86.5204 7.21091C81.3371 1.75463 73.1154 0.860156 66.2341 3.00689C63.3744 3.90136 60.604 5.15362 57.5656 5.24307C54.5271 5.15362 51.7567 3.90136 48.897 3.00689C42.0157 0.860156 33.794 1.75463 28.6107 7.21091C25.6616 10.3416 24.1424 14.4561 23.2487 18.6602C21.0145 29.036 22.7125 40.1275 27.5383 49.5194C30.9342 56.1385 35.8494 61.8632 39.6028 68.2139C41.2114 71.0762 46.0372 86.1034 51.3993 79.7526C52.2929 78.7687 52.6504 77.427 53.0079 76.0853C53.8122 73.4019 54.6165 70.629 55.4208 67.9456C55.7782 66.6039 56.3144 65.0833 57.6549 64.636C58.9061 65.0833 59.5316 66.6039 59.8891 67.9456C60.6934 70.629 61.4977 73.4019 62.302 76.0853C62.6595 77.3375 63.1063 78.6792 63.9106 79.7526C69.2726 86.1034 74.0984 71.0762 75.707 68.2139C79.4604 61.7737 84.2862 56.1385 87.7715 49.5194C92.6867 40.1275 94.2953 29.036 92.0612 18.6602H91.8824Z" fill="white"/>
<path d="M48.629 82.2595C48.4503 82.2595 48.2716 82.2595 48.0928 82.2595C44.4288 81.7228 41.6584 75.4615 39.8711 71.2575C39.4243 70.1841 38.9774 69.2896 38.7093 68.7529C37.1007 65.9801 35.224 63.2967 33.4367 60.7027C31.1131 57.3037 28.6109 53.8152 26.6448 49.969C21.5509 40.1298 20.0317 28.9489 22.2658 18.4836C23.3382 13.2957 25.2149 9.44942 27.8959 6.58711C33.8835 0.325807 42.7308 0.23636 49.0759 2.2042C49.7908 2.38309 50.5057 2.65143 51.1313 2.91978C53.2761 3.63535 55.3316 4.35093 57.5657 4.44038C59.7105 4.44038 61.766 3.63535 63.9108 2.91978C64.6257 2.65143 65.2513 2.47254 65.9662 2.2042C72.3113 0.23636 81.1586 0.325807 87.1461 6.67656C89.8271 9.53887 91.7039 13.3851 92.7763 18.573C95.0104 29.0384 93.4912 40.2193 88.3973 50.0585C86.4312 53.8152 84.0183 57.3931 81.6054 60.7921C79.8181 63.3861 77.9414 66.0695 76.3328 68.8424C76.0647 69.2896 75.6178 70.2735 75.171 71.3469C73.2943 75.5509 70.5239 81.8122 66.9492 82.3489C65.6087 82.5278 64.2682 81.9017 63.1065 80.4705C62.1234 79.3077 61.6766 77.7871 61.3191 76.5348L58.9062 68.3951C58.6381 67.3218 58.1913 66.3379 57.5657 65.8012C56.9402 66.2484 56.4933 67.3218 56.2252 68.3951L53.8123 76.5348C53.4549 77.8765 53.008 79.3077 52.025 80.4705C50.9526 81.7228 49.8802 82.3489 48.629 82.3489V82.2595ZM57.5657 63.7439H57.9232C59.7105 64.5489 60.3361 66.6062 60.6936 67.769L63.1065 75.9087C63.4639 77.0715 63.8214 78.3238 64.5363 79.2183C65.3406 80.1127 66.0556 80.56 66.7705 80.4705C69.4515 80.1127 72.1325 73.8514 73.6518 70.5419C74.188 69.3791 74.5454 68.4846 74.9029 67.8585C76.6009 64.9961 78.4776 62.3127 80.2649 59.7188C82.5884 56.3198 85.0013 52.9208 86.878 49.2534C91.7038 39.9509 93.2231 28.9489 91.0783 18.9308C90.0059 14.1007 88.3973 10.5228 85.895 7.92882C80.4436 2.2042 72.3113 2.11475 66.5024 3.99314C65.7875 4.17204 65.1619 4.44038 64.447 4.70872C62.3022 5.4243 59.9786 6.22932 57.5657 6.31877C55.0635 6.22932 52.7399 5.4243 50.5951 4.70872C49.8802 4.44038 49.2546 4.26148 48.5397 3.99314C42.7308 2.2042 34.5985 2.29365 29.1471 7.92882C26.7342 10.5228 25.0362 14.1007 23.9638 18.9308C21.819 28.8595 23.3382 39.9509 28.164 49.2534C30.0407 52.9208 32.4537 56.4092 34.7772 59.7188C36.5645 62.3127 38.5306 65.0856 40.1392 67.8585C40.4967 68.3951 40.8541 69.3791 41.3903 70.5419C42.9096 73.8514 45.5906 80.1127 48.2716 80.4705C48.9865 80.56 49.7908 80.2022 50.5057 79.2183C51.2207 78.3238 51.5781 77.0715 51.9356 75.9087L54.3485 67.769C54.706 66.6062 55.2422 64.5489 57.1189 63.8333H57.4764L57.5657 63.7439Z" fill="#BAA69A"/>
<path d="M84.8218 29.3081C84.1069 26.1775 81.9621 21.7051 79.2811 19.8267C75.0808 16.875 69.272 16.1594 63.9994 17.7694C61.8545 18.485 60.6034 18.7533 57.3862 19.8267C54.169 18.7533 52.9179 18.485 50.7731 17.7694C45.5004 16.1594 39.7809 16.875 35.4913 19.8267C32.8103 21.7051 30.6655 26.088 29.9506 29.3081C29.2357 32.2599 28.2526 40.489 32.006 47.7342C34.5977 52.7433 36.7425 55.695 39.1554 60.883C40.6746 64.1031 45.5004 81.3664 48.5389 81.3664C51.5774 81.3664 51.9348 72.9584 52.2029 71.08C52.7391 66.7865 53.5434 61.4197 57.2968 61.4197C61.0502 61.4197 61.8546 66.7865 62.3908 71.08C62.6589 72.9584 63.91 81.3664 66.0548 81.3664C69.0933 81.3664 73.9191 64.1031 75.4383 60.883C77.8512 55.7845 79.996 52.8327 82.5877 47.7342C86.3411 40.5785 85.2687 32.3493 84.6431 29.3081H84.8218Z" fill="white"/>
<path d="M66.2358 82.2608C63.7335 82.2608 62.393 76.2679 61.6781 71.2588L61.4993 70.1855C60.8738 65.6237 60.2482 62.4035 57.3884 62.4035C54.5287 62.4035 53.8138 66.4287 53.1882 71.3483C52.4733 76.3573 51.1328 82.3503 48.6305 82.3503C46.1282 82.3503 43.9834 77.1623 40.23 66.3392C39.4257 64.103 38.8001 62.1352 38.3533 61.3302C37.0128 58.4679 35.7617 56.3211 34.4212 54.085C33.4381 52.296 32.3657 50.5071 31.204 48.2709C26.825 39.7734 28.8804 30.292 29.1485 29.2186C29.9528 25.8196 32.187 21.2578 35.0467 19.2005C39.5151 16.0699 45.5027 15.2649 51.0434 17.0538C51.8477 17.3222 52.5626 17.501 53.1882 17.6799C54.35 18.0377 55.5117 18.3955 57.3884 18.9322C59.2651 18.3061 60.4269 17.9483 61.5887 17.6799C62.3036 17.501 62.9292 17.2327 63.7335 17.0538C69.2742 15.3543 75.2618 16.1593 79.7301 19.2005C82.5899 21.1684 84.8241 25.7302 85.6284 29.2186C85.8965 30.292 87.9519 39.684 83.5729 48.2709C82.4112 50.5071 81.3388 52.296 80.3557 54.085C79.0152 56.3211 77.7641 58.5573 76.4236 61.3302C76.0661 62.1352 75.3512 64.103 74.5469 66.3392C70.7935 77.1623 68.6487 82.3503 66.1464 82.3503L66.2358 82.2608ZM57.4778 60.5252C62.1249 60.5252 62.8398 65.7131 63.376 69.9171L63.5548 70.9905C64.2697 76.3573 65.6102 80.2036 66.3251 80.4719C67.9337 80.2036 71.5978 69.6488 72.9383 65.6237C73.7426 63.2086 74.4575 61.3302 74.815 60.4357C76.1555 57.484 77.496 55.3372 78.8365 53.0116C79.8195 51.2226 80.8919 49.4337 82.0537 47.287C85.3603 40.8468 84.8241 33.0649 84.0198 29.487C83.3048 26.3563 81.2494 22.1523 78.8365 20.5423C74.815 17.7694 69.3636 17.0538 64.3591 18.5744C63.5548 18.8428 62.8398 19.0217 62.1249 19.2005C60.9631 19.5583 59.712 19.9161 57.7459 20.5423H57.4778C57.4778 20.6317 57.2097 20.5423 57.2097 20.5423C55.2436 19.9161 53.9925 19.5583 52.8307 19.2005C52.1158 19.0217 51.4009 18.7533 50.5966 18.5744C45.592 16.9644 40.1406 17.7694 36.1191 20.5423C33.7062 22.1523 31.6508 26.3563 30.9359 29.487C30.1316 33.0649 29.506 40.8468 32.9019 47.287C34.0637 49.4337 35.0467 51.3121 36.1191 53.0116C37.4596 55.3372 38.7108 57.484 40.1406 60.4357C40.5875 61.3302 41.213 63.2086 42.0173 65.6237C43.3579 69.5593 47.0219 80.2036 48.7199 80.3824C49.4348 80.1141 50.7753 76.2679 51.4902 70.901C52.1158 66.5181 52.9201 60.4357 57.4778 60.4357V60.5252Z" fill="#BAA69A"/>
<path d="M76.7812 40.9338C76.6025 38.3399 75.6194 36.0142 74.3683 34.2253C72.581 31.7208 68.5595 30.7368 65.6104 31.363C62.5719 31.9891 60.6952 32.5258 57.6567 33.5992C54.6182 32.5258 52.7415 31.9891 49.7031 31.363C46.754 30.8263 42.7324 31.8102 40.9451 34.2253C39.6046 36.0142 38.6216 38.3399 38.5322 40.9338C38.2641 45.4956 39.6046 47.9107 41.4813 53.6353C42.8218 57.6605 43.4474 60.5228 44.6985 64.6373C45.5028 67.2313 47.1114 81.364 48.72 81.364C50.3286 81.364 50.5074 74.566 50.5967 73.1348C50.8648 69.6464 50.3286 57.571 58.0142 57.571C65.6997 57.571 64.7167 69.6464 65.0742 73.1348C65.1635 74.6554 65.8785 81.364 66.9509 81.364C68.4701 81.364 70.1681 67.2313 70.9724 64.6373C72.2235 60.5228 72.8491 57.7499 74.1896 53.6353C76.0663 47.8213 77.4068 45.4956 77.1387 40.9338H76.7812Z" fill="white"/>
<path d="M66.59 82.2566C65.875 82.2566 64.6239 82.2566 63.8196 73.133C63.8196 72.6857 63.8196 71.9702 63.8196 71.2546C63.6409 66.7822 63.3728 58.3742 57.7427 58.3742C52.1126 58.3742 51.6657 64.6355 51.3083 71.4335C51.3083 72.1491 51.3083 72.6857 51.3083 73.133C50.504 82.2566 49.2528 82.2566 48.5379 82.2566C47.0186 82.2566 46.3931 80.1099 44.6951 70.0023C44.3376 67.7661 43.9802 65.7089 43.7121 64.9038C43.1759 63.2043 42.8184 61.6837 42.3716 60.2526C41.8354 58.1953 41.2992 56.3169 40.4949 53.9018C40.1374 52.6496 39.6906 51.5762 39.4225 50.6817C38.1713 47.0144 37.2777 44.6888 37.5458 40.932C37.7245 37.7119 39.065 35.2074 40.1374 33.7762C42.2822 30.8244 46.7505 29.93 49.789 30.5561C52.8275 31.1822 54.7042 31.7189 57.5639 32.7028C60.4237 31.7189 62.3004 31.1822 65.3388 30.5561C68.4667 29.93 72.8457 30.9139 74.9905 33.7762C76.0629 35.2968 77.4034 37.7119 77.5821 40.932C77.7608 44.6888 76.9565 47.1038 75.7054 50.6817C75.3479 51.6657 74.9905 52.739 74.633 53.9018C73.8287 56.2275 73.2925 58.1953 72.7563 60.2526C72.3988 61.6837 71.952 63.2043 71.4158 64.9038C71.1477 65.7089 70.7902 67.7661 70.4328 70.0023C68.7348 80.1099 68.0198 82.2566 66.59 82.2566ZM57.6533 56.6747C64.9814 56.6747 65.3388 66.5139 65.5176 71.2546C65.5176 71.9702 65.5176 72.5963 65.5176 73.0435C65.7857 75.9058 66.1431 78.4998 66.5006 79.8415C67.2155 77.7842 68.1092 72.6857 68.556 69.734C69.0029 67.2295 69.271 65.3511 69.5391 64.4566C70.0753 62.7571 70.4328 61.2365 70.8796 59.8054C71.4158 57.7481 71.952 55.7802 72.7563 53.3651C73.2031 52.1129 73.5606 51.0395 73.9181 50.0556C75.1692 46.4777 75.8841 44.331 75.7054 40.932C75.5267 38.1591 74.3649 36.0124 73.3819 34.6707C71.7733 32.4345 68.0198 31.6295 65.4282 32.0767C62.3897 32.7028 60.513 33.2395 57.5639 34.3129H57.2958C57.2958 34.4023 57.0277 34.3129 57.0277 34.3129C54.0786 33.2395 52.2913 32.7028 49.1635 32.0767C46.5718 31.54 42.9078 32.4345 41.2098 34.6707C40.2268 36.0124 39.065 38.0697 38.8863 40.932C38.7075 44.331 39.4225 46.4777 40.6736 50.0556C41.0311 51.0395 41.3885 52.1129 41.8354 53.3651C42.6397 55.7802 43.1759 57.7481 43.7121 59.8054C44.0695 61.2365 44.5164 62.7571 45.0526 64.4566C45.3207 65.3511 45.6781 67.3189 46.0356 69.734C46.5718 72.6857 47.3761 77.7842 48.091 79.8415C48.4485 78.4998 48.8954 75.9058 49.0741 73.0435C49.0741 72.5963 49.0741 72.0596 49.0741 71.4335C49.2528 66.6033 49.6997 56.6747 57.2958 56.6747H57.6533Z" fill="#BAA69A"/>
<mask id="mask0_631_7360" style="mask-type:luminance" maskUnits="userSpaceOnUse" x="21" y="0" width="73" height="82">
<path d="M92.7779 17.1442C91.8842 12.8508 90.2756 8.64675 87.2371 5.42665C81.9645 -0.208528 73.564 -1.103 66.4147 1.13318C63.4656 2.02765 60.6058 3.36936 57.478 3.45881C54.3502 3.36936 51.4904 2.02765 48.5413 1.13318C41.4813 -1.103 33.0809 -0.119081 27.7189 5.42665C24.6804 8.5573 23.0718 12.8508 22.1781 17.1442C19.9439 27.7885 21.6419 39.1482 26.5571 48.8085C30.0424 55.6065 35.0469 61.4206 38.8897 67.9503C40.5877 70.8126 45.5028 86.2869 51.0436 79.7573C51.9373 78.6839 52.2947 77.3422 52.7416 76.0005C53.5459 73.2276 54.3502 70.4548 55.1545 67.6819C55.5119 66.3402 56.1375 64.8196 57.3886 64.2829C58.7291 64.8196 59.2653 66.3402 59.6228 67.6819C60.4271 70.4548 61.2314 73.2276 62.0357 76.0005C62.3932 77.3422 62.84 78.6839 63.7337 79.7573C69.1851 86.2869 74.1896 70.902 75.8876 67.9503C79.7303 61.4206 84.7349 55.5171 88.2202 48.8085C93.2247 39.1482 94.9227 27.7885 92.5992 17.1442H92.7779Z" fill="white"/>
</mask>
<g mask="url(#mask0_631_7360)">
<path d="M61.4098 1.9385C57.9245 3.28021 58.7288 2.92242 54.9754 3.01187C52.3838 3.01187 42.7322 0.686242 45.5025 1.9385C56.0478 6.94755 54.5286 10.6149 57.299 10.6149C60.0693 10.6149 58.5501 6.94755 69.6316 1.75961C69.8103 1.75961 64.3589 0.775689 61.3205 1.84906L61.4098 1.9385Z" fill="#FFCD8C"/>
</g>
</svg>
