<svg width="77" height="77" viewBox="0 0 77 77" fill="none" xmlns="http://www.w3.org/2000/svg">
<circle cx="38.5" cy="38.5" r="38.5" fill="white"/>
<path d="M20 32L38 19L56 32" stroke="#141414" stroke-width="2"/>
<path d="M21.424 44.608L20.384 44.624C20.24 44.624 20.224 44.608 20.224 44.464C20.224 44.336 20.24 44.304 20.4 44.272C21.04 44.176 21.648 43.904 22.064 43.568C22.528 43.2 22.88 42.704 23.072 42.288C23.136 42.16 23.168 42.128 23.328 42.128C23.52 42.128 23.552 42.16 23.552 42.288L23.504 44.176C24.096 44.176 24.688 44.16 25.456 44.112C25.536 44.112 25.568 44.144 25.568 44.224L25.456 44.592C25.424 44.672 25.392 44.704 25.312 44.704C24.64 44.64 24.096 44.608 23.488 44.608L23.456 49.552C23.456 50.416 23.52 50.896 23.712 51.168C23.888 51.408 24.176 51.488 24.464 51.488C24.768 51.488 25.12 51.36 25.424 50.976C25.456 50.944 25.488 50.928 25.536 50.928C25.616 50.928 25.696 51.008 25.696 51.104C25.152 51.744 24.544 52.064 23.696 52.064C22.864 52.064 22.32 51.888 21.904 51.472C21.52 51.088 21.36 50.544 21.36 49.616C21.36 48.816 21.376 48.048 21.392 47.248L21.424 44.608ZM36.4689 43.856C38.7089 43.856 40.4209 45.664 40.4209 47.904C40.4209 50.144 38.6929 52.064 36.4369 52.064C34.1809 52.064 32.5009 50.24 32.5009 48C32.5009 45.76 34.2289 43.856 36.4689 43.856ZM36.4529 44.176C35.3329 44.176 34.8689 45.328 34.8689 47.952C34.8689 50.576 35.3169 51.744 36.4529 51.744C37.5889 51.744 38.0529 50.576 38.0529 47.952C38.0529 45.328 37.5729 44.176 36.4529 44.176ZM50.5687 50.944V54.048C50.5687 55.104 50.5847 55.264 51.8008 55.328C51.9128 55.344 51.9288 55.36 51.9288 55.472C51.9288 55.584 51.9128 55.6 51.8008 55.6C51.1128 55.568 50.2487 55.552 49.4488 55.552C48.7447 55.552 48.1047 55.568 47.4167 55.6C47.3047 55.6 47.2887 55.584 47.2887 55.472C47.2887 55.36 47.3047 55.328 47.4167 55.328C48.5047 55.264 48.5527 55.104 48.5527 54.048V45.28C48.5527 44.864 48.3287 44.64 48.0247 44.64L47.3207 44.656C47.1927 44.656 47.1767 44.64 47.1767 44.528C47.1767 44.416 47.1927 44.4 47.3207 44.384C48.2327 44.272 49.5768 44.032 50.3928 43.856C50.5208 43.856 50.5847 43.904 50.5847 44.016L50.5687 45.168C51.0487 44.256 51.7688 43.856 52.6648 43.856C54.6648 43.856 56.1368 45.456 56.1368 47.904C56.1368 50.368 54.5368 52.064 52.5368 52.064C51.6568 52.064 51.0168 51.76 50.5687 50.944ZM52.1688 44.4C51.5448 44.4 51.0487 44.848 50.7928 45.648C50.6168 46.224 50.5368 46.912 50.5368 47.952C50.5368 49.04 50.6007 49.808 50.7928 50.4C51.0487 51.232 51.5128 51.632 52.1368 51.632C53.1607 51.632 53.7688 50.416 53.7688 47.952C53.7688 45.552 53.1927 44.4 52.1688 44.4Z" fill="black"/>
</svg>
