<svg width="134" height="34" viewBox="0 0 134 34" fill="none" xmlns="http://www.w3.org/2000/svg">
<path d="M14.54 18.4607C14.64 18.5207 14.72 18.6607 14.78 18.8207C14.96 19.4207 15.06 19.6007 15.32 19.8607C15.64 20.1607 15.78 20.2207 16.5 20.3807C17.06 20.5007 17.38 20.8607 17.38 21.3407C17.38 22.1407 16.38 22.8807 14.46 23.5207C14.72 24.9007 14.96 26.3007 15.22 27.6807C17.34 28.5007 18.62 29.6007 18.62 30.6407C18.62 31.2207 18.24 31.6607 17.74 31.6607C17.4 31.6607 17.38 31.6607 16.54 30.7607C16.06 30.2407 15.88 30.1007 15.3 29.7407C15.26 31.4607 14.02 32.5407 12.06 32.5407C10.68 32.5407 9.48 31.8807 9.36 31.0607C9.3 30.7007 9.28 30.6607 9 30.4407C8.78 30.2607 8.66 30.0007 8.66 29.6807C8.66 28.3607 10.3 27.2807 12.28 27.2807C12.6 27.2807 12.86 27.3007 13.32 27.3807C13.26 26.4207 13.1 25.0807 12.9 23.9007C12.16 24.0607 11.88 24.0807 11.44 24.0807C9.88 24.0807 8.96 23.2807 8.96 21.9007C8.96 21.6607 8.98 21.5007 9.06 21.1407C9.08 21.1007 9.12 21.1007 9.14 21.1407C9.42 22.0407 9.74 22.2807 10.62 22.2807C11.24 22.2807 11.96 22.1807 12.66 22.0007C12.58 21.2607 12.56 20.9607 12.56 20.5007C12.56 19.8207 12.76 19.2407 13.08 18.8607C12.7 18.9207 12.36 18.9607 12.04 18.9607C10.72 18.9607 9.88 18.2407 9.7 16.9407C9.7 16.9007 9.74 16.8807 9.78 16.9207C10.06 17.3007 10.4 17.4607 10.94 17.4607C11.66 17.4607 13.18 16.9607 14.1 16.4007C14.62 16.1007 14.68 16.0807 15.02 16.0807C15.82 16.0807 16.38 16.5007 16.38 17.1007C16.38 17.5607 16.04 17.8607 15.14 18.2407C14.94 18.3207 14.72 18.4007 14.54 18.4607ZM14.16 21.6407C15.1 21.3207 15.52 21.0807 15.52 20.9007C15.52 20.6407 14.58 19.5407 14.36 19.5407C14.18 19.5407 14.06 19.8207 14.06 20.2607C14.06 20.6407 14.08 20.9807 14.16 21.6407ZM13.34 29.0007C12.78 28.8407 12.48 28.8007 11.98 28.8007C10.62 28.8007 9.74 29.2207 9.74 29.8807C9.74 30.4607 10.38 30.8607 11.34 30.8607C12.36 30.8607 13.04 30.4807 13.24 29.8407C13.32 29.5207 13.36 29.1807 13.34 29.0007ZM3.84 15.5207C5.38 16.3207 6.28 17.5607 6.28 18.9007C6.28 19.5407 6.2 19.8407 5.64 21.0807C4.5 23.6807 4.06 25.2407 4.06 26.7007C4.06 27.6407 4.22 28.3007 4.6 29.0607C5.12 28.3807 5.44 27.9207 5.92 27.0407C6.3 26.3607 6.66 25.7207 7.04 25.0807C7.06 25.0407 7.16 25.0607 7.14 25.1207C5.92 29.3607 5.92 29.4007 5.92 30.0407C5.92 30.3407 5.98 30.6007 6.12 30.9807C6.32 31.4607 6.34 31.5807 6.34 31.8407C6.34 32.4407 5.92 32.8607 5.3 32.8607C3.76 32.8607 2.56 30.3007 2.56 27.0607C2.56 25.2807 2.86 23.4407 3.58 20.7007C4.08 18.8207 4.2 18.1807 4.2 17.4007C4.2 16.6407 4.08 16.1207 3.78 15.5807C3.76 15.5407 3.8 15.5007 3.84 15.5207ZM36.54 18.4607C36.64 18.5207 36.72 18.6607 36.78 18.8207C36.96 19.4207 37.06 19.6007 37.32 19.8607C37.64 20.1607 37.78 20.2207 38.5 20.3807C39.06 20.5007 39.38 20.8607 39.38 21.3407C39.38 22.1407 38.38 22.8807 36.46 23.5207C36.72 24.9007 36.96 26.3007 37.22 27.6807C39.34 28.5007 40.62 29.6007 40.62 30.6407C40.62 31.2207 40.24 31.6607 39.74 31.6607C39.4 31.6607 39.38 31.6607 38.54 30.7607C38.06 30.2407 37.88 30.1007 37.3 29.7407C37.26 31.4607 36.02 32.5407 34.06 32.5407C32.68 32.5407 31.48 31.8807 31.36 31.0607C31.3 30.7007 31.28 30.6607 31 30.4407C30.78 30.2607 30.66 30.0007 30.66 29.6807C30.66 28.3607 32.3 27.2807 34.28 27.2807C34.6 27.2807 34.86 27.3007 35.32 27.3807C35.26 26.4207 35.1 25.0807 34.9 23.9007C34.16 24.0607 33.88 24.0807 33.44 24.0807C31.88 24.0807 30.96 23.2807 30.96 21.9007C30.96 21.6607 30.98 21.5007 31.06 21.1407C31.08 21.1007 31.12 21.1007 31.14 21.1407C31.42 22.0407 31.74 22.2807 32.62 22.2807C33.24 22.2807 33.96 22.1807 34.66 22.0007C34.58 21.2607 34.56 20.9607 34.56 20.5007C34.56 19.8207 34.76 19.2407 35.08 18.8607C34.7 18.9207 34.36 18.9607 34.04 18.9607C32.72 18.9607 31.88 18.2407 31.7 16.9407C31.7 16.9007 31.74 16.8807 31.78 16.9207C32.06 17.3007 32.4 17.4607 32.94 17.4607C33.66 17.4607 35.18 16.9607 36.1 16.4007C36.62 16.1007 36.68 16.0807 37.02 16.0807C37.82 16.0807 38.38 16.5007 38.38 17.1007C38.38 17.5607 38.04 17.8607 37.14 18.2407C36.94 18.3207 36.72 18.4007 36.54 18.4607ZM36.16 21.6407C37.1 21.3207 37.52 21.0807 37.52 20.9007C37.52 20.6407 36.58 19.5407 36.36 19.5407C36.18 19.5407 36.06 19.8207 36.06 20.2607C36.06 20.6407 36.08 20.9807 36.16 21.6407ZM35.34 29.0007C34.78 28.8407 34.48 28.8007 33.98 28.8007C32.62 28.8007 31.74 29.2207 31.74 29.8807C31.74 30.4607 32.38 30.8607 33.34 30.8607C34.36 30.8607 35.04 30.4807 35.24 29.8407C35.32 29.5207 35.36 29.1807 35.34 29.0007ZM25.84 15.5207C27.38 16.3207 28.28 17.5607 28.28 18.9007C28.28 19.5407 28.2 19.8407 27.64 21.0807C26.5 23.6807 26.06 25.2407 26.06 26.7007C26.06 27.6407 26.22 28.3007 26.6 29.0607C27.12 28.3807 27.44 27.9207 27.92 27.0407C28.3 26.3607 28.66 25.7207 29.04 25.0807C29.06 25.0407 29.16 25.0607 29.14 25.1207C27.92 29.3607 27.92 29.4007 27.92 30.0407C27.92 30.3407 27.98 30.6007 28.12 30.9807C28.32 31.4607 28.34 31.5807 28.34 31.8407C28.34 32.4407 27.92 32.8607 27.3 32.8607C25.76 32.8607 24.56 30.3007 24.56 27.0607C24.56 25.2807 24.86 23.4407 25.58 20.7007C26.08 18.8207 26.2 18.1807 26.2 17.4007C26.2 16.6407 26.08 16.1207 25.78 15.5807C25.76 15.5407 25.8 15.5007 25.84 15.5207ZM52.56 15.1207C52.56 15.0607 52.62 15.0407 52.66 15.0807C53.14 15.5807 53.28 15.6207 55.04 15.7807C55.64 15.8407 56.02 15.9807 56.34 16.2407C56.74 16.6007 57 17.1407 57 17.6607C57 18.1607 56.66 18.4807 56.14 18.4807C55.88 18.4807 55.48 18.4207 55.24 18.4207C54.86 18.4207 54.64 18.4807 52.58 19.0607C52.52 19.0807 52.48 19.0407 52.52 19.0007C53.24 18.5207 53.74 18.1407 54.44 17.5407C53.22 16.9607 52.64 16.2207 52.56 15.1207ZM48.88 21.4207C48.9 21.3807 48.96 21.3807 48.96 21.4207C49.04 21.7807 49.26 21.9607 49.6 21.9607C49.96 21.9607 50.66 21.7407 52.16 21.2007C53.72 20.6207 54.26 20.4807 54.8 20.4807C55.96 20.4807 56.92 21.3007 56.92 22.2807C56.92 22.8807 56.62 23.3007 55.62 24.1607C53.7 25.8207 52.84 26.6007 52.14 27.4007C53.1 26.8407 53.76 26.6407 54.56 26.6407C55.46 26.6407 56.2 27.0807 56.58 27.8407C56.78 28.2407 56.82 28.4407 57.02 29.9007C57.12 30.7007 57.38 30.9207 58.2 30.9207C58.64 30.9207 59.26 30.8207 59.8 30.6807C60.3 30.5207 60.38 30.5207 60.58 30.5207C61.28 30.5207 61.94 31.1007 61.94 31.7207C61.94 32.5007 60.82 32.9607 58.88 32.9607C57.24 32.9607 56.32 32.6807 55.7 31.9807C55.26 31.4807 55.06 30.9007 54.88 29.5607C54.7 28.1407 54.36 27.6607 53.54 27.6607C52.22 27.6607 51.02 28.9807 49.72 31.8407C49.32 32.7007 48.98 33.0207 48.4 33.0207C47.76 33.0207 47.34 32.4007 47.34 31.4607C47.34 30.7207 47.38 30.6407 48.5 29.3407C50.28 27.2607 51.68 25.7007 53.84 23.4007C54.64 22.5407 54.82 22.3007 54.82 22.0407C54.82 21.9207 54.7 21.8407 54.56 21.8407C54.26 21.8407 53.92 22.0207 51.96 23.2607C51.18 23.7407 50.7 23.9407 50.24 23.9407C49.46 23.9407 48.66 23.0607 48.66 22.2007C48.66 21.9207 48.7 21.7607 48.88 21.4207ZM81.66 23.8207V24.0007C82.92 26.2607 83.62 27.2007 84.52 27.8807C85.1 28.3207 85.24 28.5207 85.24 28.9207C85.24 29.6607 84.8 30.2207 84.2 30.2207C83.84 30.2207 83.76 30.1807 83.14 29.6607C82.54 29.1607 81.8 28.6207 81.12 28.1607C80.62 29.9207 79.62 31.1807 77.98 32.1407C76.88 32.8007 75.82 33.1407 74.14 33.4207C74.06 33.4207 74.02 33.3207 74.1 33.2807C75.38 32.7407 76.3 32.1607 77.18 31.2607C78.36 30.0607 78.96 28.8807 79.28 27.0407C77.5 25.9807 75.38 25.1407 73.9 24.9607C73.66 25.5807 73.54 26.0007 73.06 27.6207C72.48 29.5807 72.1 30.2807 71.28 30.9007C70.8 31.2407 70.24 31.4207 69.66 31.4207C69.32 31.4207 69.06 31.3207 68.86 31.1007C68.72 30.9607 68.72 30.9007 68.68 30.3607C68.66 30.0607 68.54 29.8607 68.26 29.6407C67.58 29.1407 67.44 28.9007 67.44 28.2607C67.44 27.2807 68.02 26.1407 68.98 25.2807C70.04 24.3207 71.18 23.8607 72.72 23.7607C73.7 21.6407 73.94 21.2007 75.62 18.6207C76.02 18.0007 76.14 17.7207 76.14 17.4607C76.14 17.2807 76.04 17.1607 75.86 17.1607C75.5 17.1607 75.14 17.4607 74.08 18.5807C73.56 19.1207 73.14 19.3407 72.62 19.3407C71.68 19.3407 70.84 18.4807 70.84 17.5407C70.84 17.3607 70.86 17.2407 70.96 16.9807C70.98 16.9407 71.02 16.9407 71.06 16.9807C71.32 17.3207 71.5 17.4407 71.74 17.4407C72.06 17.4407 72.22 17.3807 74.4 16.2207C75.08 15.8607 75.58 15.7207 76.1 15.7207C77.26 15.7207 78.22 16.6207 78.22 17.7007C78.22 18.3607 78.02 18.7607 76.98 19.9607C75.54 21.6207 75.08 22.3007 74.28 23.9007C76.02 24.1207 77.54 24.5807 79.5 25.4807C79.58 24.6607 79.6 24.2407 79.6 23.5007C79.6 22.1807 79.58 22.0607 79.2 21.9807C79 21.9407 78.92 21.8807 78.92 21.7807C78.92 21.4007 79.5 21.0007 80.06 21.0007C80.96 21.0007 81.94 21.7607 81.94 22.4607C81.94 22.6207 81.94 22.6207 81.78 22.9807C81.72 23.1007 81.66 23.5407 81.66 23.8207ZM72.26 24.9207C70.64 25.2407 69.12 26.9607 69.12 28.4807C69.12 28.9807 69.34 29.2807 69.68 29.2807C70.1 29.2807 70.46 28.9007 70.96 27.9007C71.06 27.6807 71.5 26.7007 72.26 24.9207ZM81.5 26.3607C81.96 26.6207 82.4 26.9007 82.84 27.2007C82.2 25.7407 81.92 25.1007 81.64 24.3407C81.62 24.9207 81.58 25.7807 81.5 26.3607ZM103.06 31.9607V25.4207C103.06 22.9807 103.04 22.0207 102.9 20.8407C105.5 21.1407 106.22 21.3807 106.22 21.6407C106.22 21.9007 106.04 22.1007 105.5 22.3207V25.3607C105.5 29.4607 105.6 31.5207 105.6 32.5007C105.6 33.0807 105.26 33.4607 104 33.4607C103.22 33.4607 103.06 33.3407 103.06 32.6807V32.3607H92.7V32.8207C92.7 33.5007 92.18 33.7407 91.1 33.7407C90.38 33.7407 90.24 33.5407 90.24 33.0207C90.24 32.4607 90.42 29.9607 90.42 25.9007C90.42 23.3807 90.4 22.3407 90.26 20.9207C92.8 21.2607 93.36 21.5207 93.36 21.7807C93.36 22.0807 93.18 22.2007 92.7 22.4807V30.7807C93.74 29.8407 95.08 27.6007 95.48 25.7207H95.44C94.84 25.7207 94.38 25.7607 93.22 25.8607L93.04 25.1807C94.3 25.3007 94.82 25.3207 95.46 25.3207H96.98C96.98 22.4407 96.98 21.9007 96.86 20.9207C99.54 21.1207 99.76 21.2607 99.76 21.5807C99.76 21.8207 99.5 21.9607 99.04 22.1607V24.5207C99.36 23.9407 99.64 23.3807 99.98 22.5207C100.16 22.0807 100.26 21.7807 100.36 21.4207C102.54 22.5007 102.62 22.5807 102.62 22.8207C102.62 23.0607 102.48 23.1007 101.86 23.1407C100.84 23.8607 99.96 24.4207 99.04 24.9807V25.3207H100.12C101.04 24.0807 101.08 24.0607 101.22 24.0607C101.38 24.0607 101.46 24.0807 102.14 24.7607C102.7 25.3207 102.76 25.3607 102.76 25.5207C102.76 25.6407 102.7 25.7207 102.54 25.7207H99.04V26.6807C101.48 26.8807 102.6 27.8607 102.6 28.9607C102.6 29.7207 102.06 30.2207 101.38 30.2207C100.78 30.2207 100.42 29.8007 100.28 29.0807C100.1 28.1607 99.78 27.5207 99.06 27.0207C99.08 28.8607 99.16 30.5607 99.16 30.8007C99.16 31.3407 98.68 31.6007 97.74 31.6007C97.04 31.6007 96.88 31.4407 96.88 30.9807C96.88 30.6607 96.88 28.9207 96.94 27.5007C96.12 28.8207 94.3 30.3207 92.7 31.0407V31.9607H103.06ZM95.12 24.9407C94.54 24.9407 94.14 24.5607 94.18 23.8607C94.24 22.6807 94.04 22.1607 93.58 21.8007C93.48 21.7207 93.54 21.6207 93.66 21.6407C95.46 21.8407 96.36 22.6007 96.36 23.7007C96.36 24.4207 95.82 24.9407 95.12 24.9407ZM99.14 20.2207H103.74C105.1 18.5207 105.16 18.5007 105.34 18.5007C105.52 18.5007 105.62 18.5207 106.4 19.2607C107.34 20.1607 107.42 20.2407 107.42 20.4007C107.42 20.5407 107.36 20.6207 107.2 20.6207H91.86C90.84 20.6207 89.96 20.6407 88.8 20.7607L88.62 20.0807C89.88 20.2007 90.8 20.2207 91.86 20.2207H92.02V18.7607C92.02 17.9007 92 17.1407 91.9 16.0407C94.88 16.3007 95.1 16.5007 95.1 16.8007C95.1 17.0207 95 17.1807 94.38 17.5007V20.2207H96.64V17.9207C96.64 16.4007 96.62 15.6407 96.52 14.5407C99.76 14.7407 99.98 14.9407 99.98 15.3007C99.98 15.5207 99.88 15.6807 99.14 16.0007V17.4407H101.58C102.82 15.8607 102.9 15.8207 103.08 15.8207C103.24 15.8207 103.34 15.8607 104.24 16.7207C104.94 17.3807 105.02 17.4607 105.02 17.6607C105.02 17.7807 104.94 17.8407 104.8 17.8407H99.14V20.2207ZM119.8 17.2207C119.7 17.1607 119.74 17.0407 119.86 17.0407C122.2 16.9807 123.3 18.1007 123.3 19.2007C123.3 20.0607 122.76 20.6407 121.9 20.6407C121.22 20.6407 120.9 20.2207 120.82 19.3807C120.72 18.2407 120.32 17.5607 119.8 17.2207ZM119.88 21.8407C122.22 21.7807 123.3 22.9007 123.3 24.0007C123.3 24.8607 122.76 25.4607 121.9 25.4607C121.22 25.4607 120.86 24.9607 120.82 24.1207C120.76 22.9807 120.34 22.3607 119.82 22.0207C119.72 21.9607 119.76 21.8407 119.88 21.8407ZM116.56 21.2807V22.8607C118.58 23.0207 119.66 24.1607 119.66 25.3207C119.66 26.1607 119.16 26.7207 118.38 26.7207C117.7 26.7207 117.42 26.3407 117.36 25.5207C117.28 24.3007 117.02 23.6207 116.56 23.2007C116.56 30.6807 116.64 32.1407 116.64 32.6807C116.64 33.2207 116.24 33.5207 115.08 33.5207C114.32 33.5207 114.18 33.3207 114.18 32.8207C114.18 32.2607 114.28 30.7607 114.32 27.9407L114.36 25.4807C113.38 27.1807 112.14 28.7207 110.7 29.7807C110.6 29.8607 110.42 29.7407 110.5 29.6407C111.84 27.8407 113.12 24.5407 113.74 21.2807H112.9C112.36 21.2807 111.88 21.3007 110.94 21.4207L110.74 20.7407C111.76 20.8607 112.28 20.8807 112.9 20.8807H114.32V17.7807C113.14 17.9007 111.94 17.9807 110.88 18.0407C110.76 18.0407 110.7 17.8607 110.82 17.8207C112.98 17.1607 114.86 16.2807 116.48 15.2407C116.72 15.1007 116.96 14.9207 117.18 14.7207C119.38 16.4807 119.46 16.6207 119.46 16.9007C119.46 17.1607 119.26 17.2607 118.34 17.2207C117.92 17.3007 117.44 17.3807 116.94 17.4607C116.94 17.6207 116.8 17.7607 116.56 17.8407V20.8807H116.88C117.96 19.3407 118 19.2807 118.16 19.2807C118.32 19.2807 118.4 19.3207 119.16 20.1407C119.76 20.8007 119.82 20.8807 119.82 21.0407C119.82 21.1607 119.74 21.2807 119.6 21.2807H116.56ZM126.38 25.7207L126.44 25.7007C127.32 23.5207 127.38 23.4807 127.56 23.4807C127.74 23.4807 127.82 23.5207 128.76 24.3007C129.48 24.9007 129.64 25.0407 129.64 25.1807C129.64 25.3407 129.62 25.4007 129.44 25.4407L126.4 26.1207C126.42 30.3607 126.48 32.2807 126.48 32.6807C126.48 33.2607 125.98 33.5207 124.88 33.5207C124.02 33.5207 123.84 33.4407 123.84 32.8007C123.84 32.3807 123.92 30.5007 123.96 26.6607L119.62 27.6407C119.16 27.7407 118.44 27.9807 117.62 28.2807L117.24 27.6407C118.14 27.5207 118.96 27.3607 119.54 27.2407L123.96 26.2607C123.98 25.0007 123.98 23.5607 123.98 21.9007C123.98 16.5607 123.96 15.8207 123.86 14.7407C126.88 15.0207 127.12 15.2207 127.12 15.5007C127.12 15.7207 126.92 15.8607 126.38 16.1607V25.7207Z" fill="url(#paint0_linear_869_6)"/>
<path d="M3.08789 10.89H8.64789C9.33789 9.99 9.37789 9.97 9.46789 9.97C9.55789 9.97 9.62789 10.01 10.1779 10.51C10.5379 10.84 10.5879 10.89 10.5879 10.98C10.5879 11.05 10.5579 11.09 10.4779 11.09H3.08789V11.46C3.08789 11.76 2.75789 11.89 2.17789 11.89C1.82789 11.89 1.76789 11.83 1.76789 11.52C1.76789 11.09 1.86789 9.56 1.86789 6.59C1.86789 5.41 1.87789 3.88 1.81789 2.85C3.05789 3.13 3.30789 3.23 3.35789 3.34H8.50789C9.17789 2.52 9.21789 2.5 9.29789 2.5C9.38789 2.5 9.43789 2.52 9.91789 2.95C10.2879 3.29 10.3479 3.34 10.3479 3.43C10.3479 3.5 10.3179 3.54 10.2379 3.54H3.28789C3.24789 3.58 3.17789 3.61 3.08789 3.65V10.89ZM9.80789 7.19H6.95789C6.90789 7.5 6.83789 7.76 6.75789 7.99C8.39789 8.11 9.26789 8.92 9.26789 9.63C9.26789 10.07 8.98789 10.39 8.58789 10.39C8.24789 10.39 8.05789 10.2 7.92789 9.81C7.71789 9.17 7.24789 8.51 6.67789 8.19C6.06789 9.58 4.78789 10.43 3.37789 10.63C3.31789 10.64 3.28789 10.54 3.34789 10.52C4.46789 10.18 5.37789 8.96 5.68789 7.19H4.40789C4.10789 7.19 3.85789 7.2 3.38789 7.26L3.28789 6.92C3.81789 6.97 4.07789 6.99 4.40789 6.99H5.71789C5.75789 6.72 5.77789 6.43 5.78789 6.14C5.79789 5.83 5.78789 5.57 5.76789 5.26H4.94789C4.55789 5.87 4.01789 6.48 3.49789 6.81C3.44789 6.84 3.38789 6.79 3.41789 6.74C3.74789 6.25 4.06789 5.22 4.20789 4.25C4.22789 4.13 4.24789 3.94 4.26789 3.7C5.60789 4.03 5.68789 4.08 5.68789 4.21C5.68789 4.33 5.61789 4.39 5.34789 4.48C5.27789 4.66 5.17789 4.86 5.06789 5.06H7.58789C8.19789 4.29 8.22789 4.27 8.30789 4.27C8.39789 4.27 8.43789 4.29 8.90789 4.73C9.23789 5.03 9.26789 5.09 9.26789 5.17C9.26789 5.23 9.23789 5.26 9.16789 5.26H7.30789C7.30789 5.36 7.25789 5.43 7.06789 5.53C7.06789 6.12 7.03789 6.6 6.98789 6.99H8.20789C8.84789 6.18 8.86789 6.16 8.95789 6.16C9.04789 6.16 9.07789 6.16 9.55789 6.59C9.93789 6.93 9.97789 6.97 9.97789 7.06C9.97789 7.15 9.93789 7.19 9.80789 7.19ZM19.0679 9.69C20.7279 9.6 21.5479 10.29 21.5479 10.94C21.5479 11.32 21.2379 11.59 20.8979 11.59C20.6379 11.59 20.4579 11.46 20.2879 11.08C19.9979 10.43 19.4979 9.97 19.0479 9.8C18.9879 9.78 19.0079 9.69 19.0679 9.69ZM21.4679 5.36H20.6179C21.4879 5.86 21.5379 5.92 21.5379 6.05C21.5379 6.16 21.4279 6.2 21.0379 6.19C20.7479 6.3 20.4579 6.42 20.1679 6.54C20.6979 6.8 21.3479 7.01 22.1079 7.15C22.1679 7.16 22.1479 7.22 22.0979 7.25C21.7879 7.4 21.5379 7.84 21.4379 8.09C21.3979 8.19 21.3479 8.24 21.2779 8.24C21.2279 8.24 21.1179 8.22 21.0579 8.19C20.8579 8.1 20.6779 8 20.4979 7.89C20.4979 8.55 20.5279 8.9 20.5279 8.98C20.5279 9.27 20.2179 9.42 19.7979 9.42C19.4679 9.42 19.3879 9.34 19.3879 9.08V9.06H19.1079C19.0979 9.13 19.0279 9.17 18.8779 9.23V9.7C18.8779 10 18.9179 10.6 18.9179 10.89C18.9179 11.35 18.6579 11.62 18.3479 11.77C18.0879 11.9 17.8779 11.94 17.6779 11.94C17.5179 11.94 17.4579 11.9 17.3879 11.71C17.2579 11.37 17.0479 11.15 16.5079 10.99C16.4479 10.97 16.4479 10.89 16.5079 10.89C16.9179 10.91 17.1879 10.9 17.5379 10.86C17.6979 10.84 17.7879 10.77 17.7879 10.5V9.56C17.7879 9.4 17.7779 9.22 17.7779 9.06H17.2579C17.2579 9.33 17.0379 9.47 16.5779 9.47H16.5379C17.4879 10 17.5279 10.05 17.5279 10.17C17.5279 10.28 17.4379 10.33 17.1079 10.34C16.5279 10.9 15.0679 11.57 13.9679 11.75C13.9079 11.76 13.8779 11.68 13.9379 11.66C14.6179 11.41 15.5079 10.66 16.0179 9.91C16.1779 9.68 16.2379 9.56 16.3079 9.42C16.2179 9.38 16.1979 9.29 16.1979 9.15C16.1979 9.04 16.2279 8.47 16.2279 8.08V7.7C15.8579 7.95 15.4779 8.15 15.1279 8.28C15.0079 8.86 14.8379 9.35 14.6079 9.79C14.2179 10.54 13.5379 11.27 12.6979 11.73C12.6479 11.76 12.5879 11.69 12.6379 11.65C13.0979 11.26 13.5179 10.56 13.7679 9.8C13.9979 9.09 14.1279 8.14 14.1579 7.02C13.9279 7.35 13.6979 7.65 13.4479 7.96C13.3279 8.26 13.2679 8.33 13.1579 8.33C13.0379 8.33 12.9779 8.28 12.4879 7.01C12.6479 6.98 12.7679 6.95 13.0479 6.87C13.4079 6.77 13.7679 6.66 14.1679 6.51V5.49C14.1079 5.88 13.8579 6.06 13.5279 6.06C13.2679 6.06 13.0179 5.81 13.0479 5.48C13.0979 4.86 12.9979 4.42 12.7279 4.14C12.6879 4.1 12.7279 4.05 12.7879 4.06C13.5679 4.2 14.0779 4.68 14.1679 5.17C14.1579 4.1 14.1279 3.69 14.0779 3.25C15.2779 3.51 15.5279 3.61 15.5679 3.71H17.1879V3.48C17.1879 3.12 17.1879 2.99 17.1279 2.5C18.6879 2.6 18.8779 2.71 18.8779 2.86C18.8779 2.98 18.8279 3.03 18.4679 3.19V3.71H20.0579C20.7579 2.91 20.7879 2.88 20.8879 2.88C20.9879 2.88 21.0379 2.9 21.5279 3.36C21.8679 3.68 21.8879 3.72 21.8879 3.81C21.8879 3.87 21.8579 3.91 21.7779 3.91H17.6779C18.9679 4.26 19.0879 4.34 19.0879 4.48C19.0879 4.61 18.9379 4.7 18.6079 4.74C18.5579 4.88 18.4879 5.02 18.4279 5.16H19.8879C20.5079 4.4 20.5479 4.37 20.6379 4.37C20.7279 4.37 20.7679 4.38 21.2079 4.79C21.5779 5.13 21.6079 5.17 21.6079 5.26C21.6079 5.32 21.5779 5.36 21.4679 5.36ZM17.2579 8.86H19.3879V8.1H17.2579V8.86ZM15.3179 5.72V5.96C15.3179 6.8 15.2679 7.5 15.1579 8.1C15.5779 7.82 16.0179 7.36 16.3979 6.79C16.3079 6.87 16.1879 6.92 16.0579 6.92C15.8079 6.92 15.5979 6.76 15.5979 6.52C15.5979 6.08 15.5379 5.86 15.3179 5.72ZM16.6379 5.16H17.1979C17.2679 4.96 17.3379 4.74 17.3879 4.53C17.4579 4.28 17.4879 4.1 17.5179 3.91H15.4879C15.4379 3.95 15.3879 3.98 15.3179 4V5.61C16.2279 5.61 16.5979 5.94 16.5979 6.36C16.5979 6.41 16.5879 6.45 16.5779 6.5C16.7879 6.15 16.9679 5.77 17.1279 5.36H16.6379C16.4079 5.36 15.9779 5.38 15.5079 5.43L15.4079 5.09C15.8979 5.14 16.3479 5.16 16.6379 5.16ZM18.6279 5.36H18.3279C18.0279 5.91 17.6479 6.42 17.2279 6.85C17.3179 6.9 17.3779 6.93 17.4079 6.96H19.2879L19.3379 6.89C19.0379 6.47 18.7879 5.96 18.6279 5.36ZM20.3979 5.36H18.7779C18.9979 5.73 19.3579 6.07 19.8379 6.36C20.0079 6.09 20.1479 5.85 20.2679 5.62C20.2879 5.57 20.3379 5.49 20.3979 5.36ZM19.3879 7.16H17.4379C17.4079 7.19 17.3479 7.22 17.2579 7.24V7.9H19.3879V7.16ZM24.8879 2.79C24.8379 2.75 24.8579 2.71 24.9179 2.71C25.9879 2.74 26.6479 3.18 26.6479 3.84C26.6479 4.32 26.3479 4.61 25.9479 4.61C25.5979 4.61 25.3779 4.4 25.3479 4.04C25.2979 3.36 25.2179 3.07 24.8879 2.79ZM25.1279 7.08C24.7779 7.08 24.5779 6.86 24.5679 6.46C24.5479 5.91 24.4379 5.64 24.1579 5.36C24.1179 5.32 24.1279 5.28 24.1879 5.28C25.2579 5.27 25.8279 5.76 25.8279 6.3C25.8279 6.77 25.5479 7.08 25.1279 7.08ZM26.2479 8.67C26.2079 8.88 26.1979 9.1 26.1979 9.34C26.1979 9.96 26.7279 10.49 26.7279 11C26.7279 11.47 26.3879 11.85 25.8579 11.85C25.3379 11.85 25.1379 11.51 25.1379 11.13C25.1379 10.9 25.1979 10.45 25.1979 10.16C25.1979 9.77 25.0579 9.45 24.4079 9.21C24.3479 9.19 24.3579 9.09 24.4179 9.09C24.5479 9.1 24.6579 9.11 24.7779 9.11C25.0079 9.11 25.1279 8.93 25.2679 8.59C25.7679 7.34 26.3579 5.66 27.0779 3.45C27.0979 3.39 27.1979 3.42 27.1879 3.48C26.7779 5.78 26.4379 7.66 26.2479 8.67ZM30.3379 7.49H31.5579C32.2479 6.57 32.2879 6.54 32.3779 6.54C32.4679 6.54 32.5079 6.56 33.0379 7.06C33.4379 7.43 33.4679 7.49 33.4679 7.57C33.4679 7.66 33.4379 7.69 33.3579 7.69H30.7179C30.6979 7.81 30.6179 7.88 30.4279 7.98C29.8079 8.89 29.3679 9.51 28.8679 10.15C29.7479 10.15 30.6279 10.15 31.5379 10.13C31.3779 9.65 31.1279 9.26 30.7679 8.96C30.7179 8.92 30.7679 8.85 30.8279 8.86C32.4079 9.13 33.1979 10 33.1979 10.79C33.1979 11.35 32.8779 11.7 32.4179 11.7C31.9979 11.7 31.7779 11.4 31.7279 10.99C31.7079 10.84 31.6879 10.69 31.6579 10.55C30.3079 10.9 29.0179 11.19 27.6079 11.46C27.5279 11.63 27.4579 11.69 27.3579 11.69C27.1979 11.69 27.1779 11.62 26.7479 10.12C27.0779 10.14 27.2779 10.14 27.5079 10.14H28.1779C28.4679 9.42 28.6279 8.96 28.8279 8.28C28.8879 8.06 28.9279 7.89 28.9579 7.69H27.9079C27.6079 7.69 27.3679 7.71 26.7879 7.76L26.6979 7.42C27.3279 7.48 27.5879 7.49 27.9079 7.49H29.0579V5.36H28.2979C27.9979 5.36 27.7579 5.38 27.1779 5.43L27.0879 5.09C27.7179 5.15 27.9779 5.16 28.2979 5.16H29.0579V4.13C29.0579 3.57 29.0579 3.23 28.9979 2.69C30.5479 2.79 30.7279 2.88 30.7279 3.08C30.7279 3.22 30.6779 3.28 30.3379 3.42V5.16H31.1979C31.8579 4.29 31.8979 4.24 31.9879 4.24C32.0779 4.24 32.1179 4.27 32.6179 4.73C33.0079 5.1 33.0379 5.15 33.0379 5.23C33.0379 5.32 33.0079 5.36 32.9279 5.36H30.3379V7.49ZM40.9079 3.46V3.66C40.9579 5.37 41.2979 6.69 41.8979 7.79C42.4679 8.84 43.9579 10.14 45.1079 10.59C45.1679 10.61 45.1679 10.68 45.1079 10.69C44.5979 10.78 44.1379 11.1 43.8279 11.49C43.7079 11.65 43.6479 11.68 43.5679 11.68C43.4679 11.68 43.3979 11.64 43.2479 11.54C42.1979 10.85 41.3479 9.52 41.0879 8.31C40.8679 7.27 40.8079 6.77 40.7979 4.54L40.7479 4.57C40.6179 7.24 40.0379 8.55 39.0879 9.71C38.2979 10.69 37.0179 11.49 35.8079 11.84C35.7479 11.86 35.6979 11.77 35.7479 11.74C36.7579 11.24 37.5279 10.43 38.1979 9.34C38.9279 8.15 39.4379 6.21 39.4379 3.92C39.4379 3.14 39.4279 2.86 39.3879 2.57C41.0579 2.78 41.2879 2.93 41.2879 3.05C41.2879 3.2 41.2179 3.27 40.9079 3.46ZM55.9679 4.8H49.1079C48.7479 4.8 48.2879 4.82 47.7379 4.87L47.6479 4.53C48.2079 4.6 48.6979 4.6 49.1079 4.6H51.0879V3.33C51.0879 3.11 51.0779 2.98 51.0279 2.57C52.7179 2.69 52.8379 2.77 52.8379 2.95C52.8379 3.05 52.7879 3.13 52.4279 3.27V4.6H54.0179C54.7179 3.75 54.8079 3.66 54.9079 3.66C55.0279 3.66 55.0879 3.67 55.6979 4.23C56.0179 4.52 56.0879 4.61 56.0879 4.69C56.0879 4.75 56.0379 4.8 55.9679 4.8ZM50.5179 10.69C50.1279 10.69 49.8879 10.35 49.9179 9.76C49.9979 8.24 49.7179 6.72 49.0879 5.69C49.0579 5.64 49.1279 5.6 49.1779 5.63C50.6779 6.69 51.4179 8.25 51.4179 9.42C51.4179 10.21 51.0279 10.69 50.5179 10.69ZM52.3879 11.2H54.4079C55.1679 10.22 55.2179 10.17 55.3079 10.17C55.4179 10.17 55.4879 10.21 56.0879 10.78C56.4179 11.1 56.5379 11.22 56.5379 11.29C56.5379 11.36 56.4879 11.4 56.4079 11.4H48.7479C48.3979 11.4 48.0079 11.42 47.4379 11.47L47.3379 11.13C47.9979 11.18 48.3979 11.2 48.7479 11.2H51.7979C52.3079 9.17 52.6179 7.56 52.8279 6.03C52.9079 5.45 52.9279 5.28 52.9379 4.99C54.7979 5.55 54.8979 5.65 54.8979 5.81C54.8979 5.94 54.7879 6.03 54.4679 6.11C53.7379 8.02 53.1779 9.37 52.3879 11.2ZM63.9079 3.46V3.66C63.9579 5.37 64.2979 6.69 64.8979 7.79C65.4679 8.84 66.9579 10.14 68.1079 10.59C68.1679 10.61 68.1679 10.68 68.1079 10.69C67.5979 10.78 67.1379 11.1 66.8279 11.49C66.7079 11.65 66.6479 11.68 66.5679 11.68C66.4679 11.68 66.3979 11.64 66.2479 11.54C65.1979 10.85 64.3479 9.52 64.0879 8.31C63.8679 7.27 63.8079 6.77 63.7979 4.54L63.7479 4.57C63.6179 7.24 63.0379 8.55 62.0879 9.71C61.2979 10.69 60.0179 11.49 58.8079 11.84C58.7479 11.86 58.6979 11.77 58.7479 11.74C59.7579 11.24 60.5279 10.43 61.1979 9.34C61.9279 8.15 62.4379 6.21 62.4379 3.92C62.4379 3.14 62.4279 2.86 62.3879 2.57C64.0579 2.78 64.2879 2.93 64.2879 3.05C64.2879 3.2 64.2179 3.27 63.9079 3.46ZM72.4079 8.09H76.7179C77.3279 7.26 77.3579 7.24 77.4479 7.24C77.5379 7.24 77.5779 7.25 78.1079 7.74C78.4679 8.07 78.4979 8.1 78.4979 8.19C78.4979 8.25 78.4579 8.29 78.3879 8.29H75.3779C75.3679 8.43 75.3079 8.52 75.0079 8.63C74.6379 9.21 74.2679 9.76 73.8879 10.31C74.7879 10.3 75.6679 10.27 76.4579 10.22C76.2379 9.85 75.9279 9.5 75.5079 9.25C75.4579 9.22 75.4979 9.15 75.5579 9.15C77.5079 9.29 78.3179 10.3 78.3179 11C78.3179 11.49 78.0179 11.81 77.5379 11.81C77.2379 11.81 76.9779 11.59 76.8779 11.23C76.8179 11.03 76.7479 10.81 76.6479 10.6C75.5779 10.88 74.0279 11.23 72.0679 11.66C71.9479 11.85 71.9179 11.88 71.8179 11.88C71.6779 11.88 71.6279 11.82 71.2279 10.28C71.5579 10.3 71.9379 10.32 72.2579 10.32H73.0579C73.2279 9.69 73.3879 8.99 73.5379 8.29H72.4079C72.0479 8.29 71.5879 8.31 71.0379 8.36L70.9479 8.02C71.5079 8.09 71.9979 8.09 72.4079 8.09ZM76.7579 6.74H73.7479C73.4779 6.74 73.1479 6.75 72.6679 6.81L72.5779 6.47C73.0879 6.53 73.4379 6.54 73.7479 6.54H75.3079C75.8779 5.82 75.8979 5.8 75.9779 5.8C76.0579 5.8 76.0879 5.81 76.4979 6.19C76.8679 6.53 76.8779 6.56 76.8779 6.64C76.8779 6.71 76.8279 6.74 76.7579 6.74ZM79.6179 5.98C79.6779 5.99 79.6679 6.05 79.6179 6.08C79.1779 6.32 78.9079 6.79 78.7979 7.08C78.7379 7.24 78.6779 7.29 78.5979 7.29C78.5079 7.29 78.4079 7.26 78.3079 7.22C77.6879 6.95 76.9679 6.45 76.4679 5.92C75.7679 5.18 75.2879 4.34 75.0079 3.37C74.1079 5.18 71.7779 7.26 70.2279 7.85C70.1679 7.87 70.1179 7.77 70.1679 7.74C71.1579 7.12 72.7779 4.96 73.5079 3.15C73.5779 2.98 73.6479 2.79 73.7079 2.48C75.2479 2.78 75.4679 2.92 75.4679 3.06C75.4679 3.16 75.3879 3.23 75.1579 3.31C75.6479 4.03 76.3479 4.56 77.1379 5.01C77.8579 5.43 78.7379 5.77 79.6179 5.98Z" fill="url(#paint1_linear_869_6)"/>
<defs>
<linearGradient id="paint0_linear_869_6" x1="84.1503" y1="5.68582" x2="81.7574" y2="35.8143" gradientUnits="userSpaceOnUse">
<stop stop-color="#8B761F"/>
<stop offset="0.53" stop-color="#CEBF81"/>
<stop offset="1" stop-color="#8B761F"/>
</linearGradient>
<linearGradient id="paint1_linear_869_6" x1="0.837891" y1="7.11628" x2="5.02394" y2="-11.3023" gradientUnits="userSpaceOnUse">
<stop stop-color="#8B761F"/>
<stop offset="0.545" stop-color="#CEBF81"/>
<stop offset="1" stop-color="#8B761F"/>
</linearGradient>
</defs>
</svg>
