<svg width="385" height="436" viewBox="0 0 385 436" fill="none" xmlns="http://www.w3.org/2000/svg">
<path d="M188.921 290.586L189.148 290.598L189.376 290.588C253.33 287.766 293.617 279.847 317.98 262.975C342.986 245.659 350.392 219.606 350.883 183.879C351.901 109.813 280.363 58.8145 194.059 57.6281C107.76 56.4417 34.6813 105.447 33.663 179.518C33.1685 215.495 41.7795 242.3 66.646 260.551C91.005 278.43 130.183 287.446 188.921 290.586Z" fill="#CDC2BD" stroke="#646464" stroke-width="9.33728"/>
<path d="M93.5875 372.21L89.4044 370.137L89.0396 370.873L88.948 371.69L93.5875 372.21ZM93.5875 372.21C89.4044 370.137 89.4056 370.135 89.4069 370.132L89.4097 370.127L89.4155 370.115L89.4291 370.088C89.439 370.069 89.4505 370.046 89.4636 370.021C89.4899 369.97 89.5228 369.909 89.5625 369.836C89.642 369.691 89.7489 369.502 89.885 369.278C90.157 368.829 90.5475 368.231 91.0705 367.539C92.1144 366.156 93.7023 364.375 95.9474 362.648C100.514 359.134 107.57 356.029 117.687 356.657C129.591 357.396 136.857 360.306 141.28 363.507C143.489 365.106 144.926 366.734 145.844 368.094C146.3 368.77 146.62 369.368 146.841 369.849C146.951 370.089 147.037 370.299 147.102 370.474C147.134 370.561 147.162 370.64 147.185 370.71C147.197 370.744 147.207 370.777 147.216 370.807L147.23 370.85L147.236 370.87L147.239 370.88C147.24 370.884 147.242 370.889 142.764 372.21M93.5875 372.21C88.948 371.69 88.9479 371.69 88.9479 371.69L88.9478 371.691L88.9475 371.694L88.9463 371.704L88.9421 371.742L88.9263 371.886C88.9125 372.011 88.8924 372.195 88.867 372.432C88.8161 372.906 88.7436 373.592 88.6566 374.447C88.4828 376.156 88.2507 378.545 88.0172 381.265C87.5533 386.671 87.0722 393.52 87.0514 398.96C87.051 399.072 87.0505 399.185 87.0501 399.298C87.0295 404.534 87.009 409.749 88.3494 414.412C89.825 419.546 92.8508 423.809 98.3121 427.45C99.6467 428.34 101.24 428.888 102.664 429.261C104.158 429.653 105.827 429.942 107.534 430.161C110.948 430.599 114.849 430.799 118.462 430.879C122.095 430.958 125.535 430.918 128.061 430.859C129.326 430.829 130.367 430.794 131.095 430.767C131.459 430.753 131.745 430.741 131.941 430.733C132.04 430.728 132.116 430.725 132.168 430.723L132.229 430.72L132.246 430.719L132.251 430.719L132.253 430.719C132.253 430.719 132.254 430.719 132.026 426.055M142.764 372.21C147.385 371.544 147.385 371.544 147.385 371.545L147.385 371.545L147.385 371.548L147.386 371.555L147.39 371.584L147.406 371.692C147.419 371.786 147.439 371.924 147.464 372.102C147.514 372.458 147.585 372.972 147.672 373.614C147.845 374.896 148.081 376.688 148.33 378.73C148.825 382.784 149.386 387.933 149.605 392.037C149.813 395.949 149.931 400.882 149.997 404.801C150.03 406.768 150.05 408.494 150.062 409.729C150.066 410.09 150.069 410.409 150.071 410.68C150.276 411.143 150.523 411.74 150.765 412.417C151.271 413.834 152.014 416.295 151.766 418.743C151.416 422.211 149.21 424.554 147.198 425.986C145.175 427.425 142.777 428.376 140.718 429.016C138.608 429.672 136.564 430.088 135.073 430.34C134.32 430.467 133.691 430.556 133.241 430.614C133.016 430.642 132.835 430.664 132.706 430.678C132.641 430.685 132.589 430.691 132.55 430.695L132.503 430.7L132.487 430.701L132.481 430.702L132.479 430.702C132.478 430.702 132.476 430.702 132.026 426.055M142.764 372.21L147.385 371.544L147.337 371.212L147.242 370.889L142.764 372.21ZM132.026 426.055L132.254 430.719L132.365 430.713L132.476 430.702L132.026 426.055Z" fill="#CDC2BD" stroke="#646464" stroke-width="9.33728"/>
<path d="M285.022 372.21L289.205 370.137L289.57 370.873L289.661 371.69L285.022 372.21ZM285.022 372.21C289.205 370.137 289.204 370.135 289.202 370.132L289.2 370.127L289.194 370.115L289.18 370.088C289.17 370.069 289.159 370.046 289.146 370.021C289.119 369.97 289.087 369.909 289.047 369.836C288.967 369.691 288.86 369.502 288.724 369.278C288.452 368.829 288.062 368.231 287.539 367.539C286.495 366.156 284.907 364.375 282.662 362.648C278.095 359.134 271.039 356.029 260.922 356.657C249.018 357.396 241.752 360.306 237.329 363.507C235.12 365.106 233.683 366.734 232.766 368.094C232.31 368.77 231.99 369.368 231.769 369.849C231.658 370.089 231.573 370.299 231.507 370.474C231.475 370.561 231.447 370.64 231.424 370.71C231.413 370.744 231.402 370.777 231.393 370.807L231.38 370.85L231.373 370.87L231.371 370.88C231.369 370.884 231.368 370.889 235.846 372.21M285.022 372.21C289.661 371.69 289.661 371.69 289.661 371.69L289.662 371.691L289.662 371.694L289.663 371.704L289.667 371.742L289.683 371.886C289.697 372.011 289.717 372.195 289.742 372.432C289.793 372.906 289.866 373.592 289.953 374.447C290.127 376.156 290.359 378.545 290.592 381.265C291.056 386.671 291.537 393.52 291.558 398.96C291.558 399.072 291.559 399.185 291.559 399.298C291.58 404.534 291.6 409.749 290.26 414.412C288.784 419.546 285.759 423.809 280.297 427.45C278.963 428.34 277.37 428.888 275.945 429.261C274.451 429.653 272.782 429.942 271.076 430.161C267.661 430.599 263.76 430.799 260.147 430.879C256.514 430.958 253.074 430.918 250.549 430.859C249.284 430.829 248.243 430.794 247.515 430.767C247.151 430.753 246.865 430.741 246.668 430.733C246.57 430.728 246.493 430.725 246.441 430.723L246.38 430.72L246.363 430.719L246.358 430.719L246.357 430.719C246.356 430.719 246.356 430.719 246.583 426.055M235.846 372.21C231.225 371.544 231.225 371.544 231.225 371.545L231.225 371.545L231.224 371.548L231.223 371.555L231.219 371.584L231.204 371.692C231.19 371.786 231.171 371.924 231.146 372.102C231.096 372.458 231.024 372.972 230.938 373.614C230.764 374.896 230.528 376.688 230.279 378.73C229.785 382.784 229.223 387.933 229.005 392.037C228.796 395.949 228.678 400.882 228.612 404.801C228.579 406.768 228.559 408.494 228.547 409.729C228.544 410.09 228.541 410.409 228.539 410.68C228.334 411.143 228.086 411.74 227.844 412.417C227.338 413.834 226.596 416.295 226.843 418.743C227.193 422.211 229.399 424.554 231.412 425.986C233.434 427.425 235.833 428.376 237.892 429.016C240.002 429.672 242.046 430.088 243.536 430.34C244.289 430.467 244.919 430.556 245.368 430.614C245.593 430.642 245.774 430.664 245.904 430.678C245.968 430.685 246.021 430.691 246.059 430.695L246.106 430.7L246.122 430.701L246.128 430.702L246.131 430.702C246.132 430.702 246.133 430.702 246.583 426.055M235.846 372.21L231.225 371.544L231.273 371.212L231.368 370.889L235.846 372.21ZM246.583 426.055L246.356 430.719L246.244 430.713L246.133 430.702L246.583 426.055Z" fill="#CDC2BD" stroke="#646464" stroke-width="9.33728"/>
<path d="M101.638 264.627L98.8893 260.853L98.7319 260.968L98.5846 261.095L101.638 264.627ZM101.638 264.627C98.5846 261.095 98.5838 261.096 98.5828 261.097L98.5799 261.1L98.5709 261.107L98.5402 261.134L98.4293 261.231C98.3336 261.315 98.1949 261.437 98.0158 261.595C97.6578 261.913 97.1384 262.377 96.4792 262.978C95.1612 264.18 93.2829 265.928 91.018 268.132C86.4925 272.537 80.4009 278.789 74.1432 286.174C61.8135 300.725 48.1165 320.498 45.4559 339.545C44.774 344.426 44.5875 348.66 46.2028 352.593C47.8134 356.514 50.9166 359.403 54.7906 362.416C59.4357 366.029 65.5743 366.997 71.1615 366.168C76.7826 365.333 82.477 362.599 86.4 357.953C88.5337 355.426 89.5685 352.224 90.0913 350.064C90.369 348.917 90.5394 347.901 90.6414 347.167C91.0062 346.616 91.528 345.831 92.1797 344.864C93.534 342.854 95.4454 340.058 97.6715 336.921C102.156 330.601 107.798 323.065 112.696 317.743C115.855 314.31 118.959 311.181 121.939 308.178C123.013 307.097 124.07 306.031 125.108 304.973C128.945 301.063 132.549 297.229 135.252 293.404C135.334 293.288 135.417 293.171 135.5 293.055C137.516 290.204 139.646 287.192 140.864 283.912C142.249 280.179 142.429 276.263 141.01 271.691C139.542 266.961 137.24 262.76 133.83 259.509C130.387 256.224 126.043 254.13 120.891 253.296C115.517 252.426 109.712 254.757 105.961 256.627C103.941 257.635 102.195 258.677 100.957 259.465C100.335 259.86 99.8331 260.196 99.4802 260.439C99.3036 260.56 99.1638 260.658 99.0642 260.728C99.0144 260.764 98.9747 260.792 98.9454 260.813L98.9094 260.839L98.8973 260.848L98.8928 260.851L98.8909 260.852C98.8901 260.853 98.8893 260.853 101.638 264.627Z" fill="url(#paint0_linear_1584_444)" stroke="#646464" stroke-width="9.33728"/>
<path d="M278.881 265.832L281.63 262.058L281.788 262.173L281.935 262.3L278.881 265.832ZM278.881 265.832C281.935 262.3 281.936 262.301 281.937 262.302L281.94 262.304L281.949 262.312L281.979 262.339L282.09 262.435C282.186 262.519 282.325 262.641 282.504 262.8C282.862 263.117 283.381 263.582 284.04 264.183C285.358 265.385 287.237 267.132 289.502 269.337C294.027 273.742 300.119 279.994 306.376 287.379C318.706 301.929 332.403 321.703 335.064 340.749C335.746 345.631 335.932 349.865 334.317 353.797C332.706 357.719 329.603 360.608 325.729 363.621C321.084 367.234 314.945 368.202 309.358 367.372C303.737 366.538 298.043 363.804 294.12 359.157C291.986 356.63 290.951 353.428 290.428 351.269C290.151 350.121 289.98 349.106 289.878 348.372C289.513 347.82 288.991 347.036 288.34 346.069C286.986 344.058 285.074 341.263 282.848 338.125C278.364 331.805 272.722 324.27 267.823 318.947C264.664 315.515 261.56 312.386 258.58 309.383C257.507 308.301 256.45 307.236 255.412 306.178C251.574 302.267 247.97 298.434 245.267 294.609C245.185 294.493 245.103 294.376 245.02 294.259C243.004 291.409 240.873 288.396 239.656 285.116C238.27 281.383 238.091 277.468 239.51 272.895C240.978 268.166 243.28 263.965 246.689 260.713C250.133 257.429 254.476 255.334 259.629 254.5C265.003 253.631 270.807 255.961 274.558 257.832C276.579 258.84 278.324 259.882 279.563 260.669C280.185 261.065 280.686 261.401 281.039 261.643C281.216 261.764 281.356 261.862 281.455 261.933C281.505 261.968 281.545 261.997 281.574 262.018L281.61 262.044L281.622 262.052L281.627 262.056L281.629 262.057C281.629 262.058 281.63 262.058 278.881 265.832Z" fill="url(#paint1_linear_1584_444)" stroke="#646464" stroke-width="9.33728"/>
<path d="M53.0833 39.9961C54.0236 35.913 58.0495 33.3844 62.1357 34.3112C73.0414 36.7848 93.7352 41.7462 107.424 46.686C116.095 49.8154 126.525 54.3309 134.432 57.8926C139.862 60.3391 140.484 67.7087 135.601 71.1203L55.687 126.959C50.5305 130.562 43.4917 126.884 43.5956 120.594C43.7912 108.759 44.2597 92.4787 45.3816 81.7835C46.7749 68.5006 50.7628 50.0721 53.0833 39.9961Z" fill="#646464"/>
<path d="M59.9937 50.607C60.8481 46.336 65.0781 43.6928 69.2964 44.7779C79.5639 47.419 97.8756 52.3861 110.151 57.1829C118.033 60.2629 127.503 64.6374 134.784 68.1304C140.073 70.6676 140.598 77.8995 135.798 81.27L65.4424 130.666C60.3584 134.235 53.3846 130.706 53.3359 124.495C53.2494 113.448 53.315 98.5174 54.0849 88.6728C55.0249 76.6543 58.0794 60.1767 59.9937 50.607Z" fill="#CDC2BD"/>
<path d="M331.639 47.3642C330.667 43.5016 326.91 41.0718 322.987 41.7587C312.407 43.6107 291.999 47.4371 278.561 51.5619C270.505 54.0348 260.902 57.6373 253.36 60.602C247.706 62.8242 246.848 70.3564 251.785 73.8957L330.126 130.057C335.323 133.782 342.5 130.002 342.274 123.611C341.879 112.449 341.161 97.6613 339.934 87.7902C338.337 74.9556 334.067 57.01 331.639 47.3642Z" fill="#646464"/>
<path d="M325.469 57.4997C324.785 54.373 321.927 52.2522 318.739 52.5362C309.069 53.3977 288.844 55.5891 275.721 59.7426C267.903 62.217 258.34 66.7378 251.564 70.1668C247.413 72.2679 246.933 77.895 250.577 80.7895L320.733 136.523C324.707 139.681 330.555 137.303 331.068 132.253C332.14 121.704 333.336 106.296 332.384 96.869C331.11 84.234 327.405 66.3565 325.469 57.4997Z" fill="#CDC2BD"/>
<path d="M96.0688 270.292L92.2286 267.637L91.7157 268.379L91.516 269.258L96.0688 270.292ZM96.0688 270.292C92.2286 267.637 92.2296 267.636 92.2306 267.634L92.2328 267.631L92.2379 267.624L92.2508 267.605L92.2873 267.553C92.3164 267.512 92.3549 267.458 92.4027 267.393C92.4982 267.261 92.631 267.082 92.799 266.864C93.1345 266.428 93.6144 265.831 94.2236 265.139C95.4297 263.77 97.2028 261.964 99.4232 260.318C103.762 257.1 110.803 253.841 118.623 257.505C142.93 268.892 172.755 274.053 200.027 273.748C227.486 273.441 251.377 267.61 264.346 257.984C267.843 255.388 271.786 255.75 274.806 256.837C277.76 257.9 280.511 259.855 282.707 261.706C284.959 263.605 286.926 265.651 288.31 267.194C289.008 267.973 289.573 268.639 289.968 269.116C290.165 269.355 290.321 269.548 290.43 269.684C290.485 269.753 290.528 269.807 290.559 269.847L290.597 269.895L290.609 269.91L290.613 269.915L290.614 269.917C290.615 269.918 290.616 269.919 286.928 272.782M96.0688 270.292C91.516 269.258 91.5159 269.259 91.5158 269.259L91.5154 269.261L91.5142 269.266L91.5099 269.285L91.4939 269.356C91.48 269.418 91.4596 269.509 91.4332 269.628C91.3804 269.865 91.3034 270.213 91.2054 270.662C91.0093 271.561 90.7288 272.867 90.389 274.504C89.7094 277.777 88.7912 282.382 87.8343 287.717C85.9278 298.346 83.8387 312.033 83.2131 323.889L83.2072 324.003C82.1076 344.842 81.0339 365.191 91.9991 384.698C94.8506 389.771 100.928 393.152 107.42 395.574C114.177 398.095 122.552 399.99 131.43 401.408C149.218 404.25 169.752 405.287 185.084 405.287H185.309C205.113 405.287 227.241 405.287 245.909 402.355C255.295 400.881 264.064 398.631 271.352 395.121C278.661 391.601 284.756 386.675 288.289 379.736C299.033 358.633 298.086 344.28 296.626 322.167C296.594 321.688 296.563 321.205 296.531 320.718C295.775 309.23 294.53 297.087 293.477 287.838C292.95 283.208 292.47 279.293 292.122 276.533C291.947 275.153 291.806 274.062 291.708 273.314C291.659 272.94 291.621 272.652 291.595 272.457L291.565 272.234L291.557 272.177L291.555 272.162L291.555 272.158L291.554 272.156C291.554 272.156 291.554 272.156 286.928 272.782M286.928 272.782L290.616 269.919L291.386 270.911L291.554 272.156L286.928 272.782Z" fill="#CDC2BD" stroke="#646464" stroke-width="9.33728"/>
<path d="M346.214 183.818C345.243 254.402 317.145 280.585 189.164 286.257C71.8856 279.972 37.2406 249.839 38.2109 179.255C93.7657 227.491 124.93 243.773 189.166 246.377C257.23 249.136 298.563 239.503 346.214 183.818Z" fill="#CDC2BD"/>
<path d="M148.181 263.779C148.181 263.779 189.232 258.524 229.29 263.779C237.882 264.906 246.668 265.802 250.313 270.88C257.273 280.577 246.137 291.619 235.966 297.866C226.023 303.973 210.323 309.205 192.926 309.371C174.884 309.542 160.255 304.399 148.181 297.866C137.59 292.135 126.254 280.67 133.266 270.88C137.022 265.636 148.181 263.779 148.181 263.779Z" fill="#C3B8B3"/>
<path d="M232.333 247.09C232.333 247.09 194.752 254.961 158.061 247.196C150.19 245.53 142.144 244.209 138.795 236.659C132.401 222.245 142.575 205.804 151.875 196.498C160.967 187.401 175.332 179.598 191.263 179.329C207.783 179.05 221.19 186.681 232.26 196.384C241.971 204.895 252.375 221.936 245.975 236.507C242.547 244.313 232.333 247.09 232.333 247.09Z" fill="#F0EEED"/>
<path d="M191.289 196.802C190.694 196.842 188.466 196.842 189.025 195.616C189.419 194.752 191.914 195.064 191.72 196.128C191.513 197.269 189.468 196.914 188.728 196.856C187.588 196.766 186.77 196.94 186.694 195.562C186.548 192.936 189.634 193.966 191.356 194.349C192.063 194.507 194.797 194.912 194.955 196.155C195.026 196.722 194.099 197.304 193.661 197.422C192.72 197.676 192.006 196.987 191.127 196.856C190.711 196.794 187.646 197.07 188.095 196.088C188.734 194.691 190.731 193.57 192.138 194.255C192.678 194.518 193.307 194.568 192.852 195.023C192.211 195.664 191.923 196.62 191.41 197.355C190.289 198.964 188.079 196.709 187.246 195.751C185.951 194.261 186.702 193.369 188.378 193.46C189.479 193.52 193.315 193.195 193.903 194.323C194.097 194.694 194.792 197.31 194.456 197.53C193.68 198.037 191.895 197.045 191.316 196.721C190.687 196.37 189.777 195.728 189.321 195.104C188.04 193.351 189.709 195.457 189.348 194.376" stroke="#F5BEA8" stroke-width="2.48994" stroke-linecap="round"/>
<path d="M131.438 181.983C127.431 181.983 124.092 179.588 124.092 184.513C124.092 186.485 128.977 191.725 130.295 188.146C132.673 181.693 123.439 180.093 123.439 184.187C123.439 186.812 128.143 188.8 129.928 186.717C132.838 183.323 124.775 180.632 124.092 182.309C122.764 185.568 131.12 192.18 132.01 184.84C132.383 181.756 128.148 182.689 126.214 182.718C114.625 182.888 130.704 195.542 130.704 186.391" stroke="#646464" stroke-width="3.76962" stroke-linecap="round"/>
<path d="M258.583 181.983C254.576 181.983 251.236 179.588 251.236 184.513C251.236 186.485 256.121 191.725 257.44 188.146C259.817 181.693 250.583 180.093 250.583 184.187C250.583 186.812 255.288 188.8 257.073 186.717C259.982 183.323 251.92 180.632 251.236 182.309C249.909 185.568 258.264 192.18 259.154 184.84C259.528 181.756 255.293 182.689 253.359 182.718C241.77 182.888 257.848 195.542 257.848 186.391" stroke="#646464" stroke-width="3.76962" stroke-linecap="round"/>
<path d="M209.504 207.521C207.845 208.457 207.77 209.286 203.623 209.286C202.04 209.286 198.607 208.558 197.592 208.155C196.34 207.658 195.044 206.776 194.199 206.226C193.424 205.722 192.841 205.181 192.239 204.763C191.652 204.355 190.534 204.418 190.053 204.763C189.168 205.395 188.168 206.377 187.414 206.949C185.49 207.775 185.405 208.727 183.192 209.286C181.221 209.784 178.182 209.757 176.181 209.286C174.179 208.816 173.637 207.999 172.109 207.521" stroke="#676564" stroke-width="5.43277" stroke-linecap="round"/>
<ellipse cx="158.088" cy="100.345" rx="6.93609" ry="18.7727" fill="#BFB2AB"/>
<ellipse cx="226.694" cy="100.345" rx="6.93609" ry="18.7727" fill="#BFB2AB"/>
<ellipse cx="6.49176" cy="18.7724" rx="6.49176" ry="18.7724" transform="matrix(-0.0178599 -0.99984 0.999878 -0.0156449 89.6523 371.996)" fill="#BFB2AB"/>
<ellipse cx="6.49176" cy="18.7724" rx="6.49176" ry="18.7724" transform="matrix(-0.0178599 -0.99984 0.999878 -0.0156449 87.1484 352.53)" fill="#BFB2AB"/>
<ellipse cx="6.49176" cy="18.7724" rx="6.49176" ry="18.7724" transform="matrix(-0.0178599 -0.99984 0.999878 -0.0156449 251.898 371.996)" fill="#BFB2AB"/>
<ellipse cx="6.49176" cy="18.7724" rx="6.49176" ry="18.7724" transform="matrix(-0.0178599 -0.99984 0.999878 -0.0156449 255.574 352.53)" fill="#BFB2AB"/>
<ellipse cx="190.053" cy="98.3102" rx="6.93609" ry="25.181" fill="#BFB2AB"/>
<defs>
<linearGradient id="paint0_linear_1584_444" x1="131.129" y1="263.31" x2="52.3759" y2="354.276" gradientUnits="userSpaceOnUse">
<stop offset="0.725" stop-color="#CDC2BD"/>
<stop offset="0.845" stop-color="#F0EEED"/>
</linearGradient>
<linearGradient id="paint1_linear_1584_444" x1="249.39" y1="264.515" x2="328.144" y2="355.481" gradientUnits="userSpaceOnUse">
<stop offset="0.77" stop-color="#CDC2BD"/>
<stop offset="0.85" stop-color="#F0EEED"/>
</linearGradient>
</defs>
</svg>
