<svg width="328" height="397" viewBox="0 0 328 397" fill="none" xmlns="http://www.w3.org/2000/svg">
<path d="M160.694 251.106L160.922 251.118L161.149 251.108C225.103 248.286 265.39 240.367 289.754 223.495C314.759 206.179 322.166 180.126 322.657 144.399C323.675 70.3327 252.137 19.3345 165.832 18.1481C79.5338 16.9618 6.45472 65.9668 5.43648 140.038C4.94191 176.015 13.5529 202.82 38.4194 221.071C62.7784 238.95 101.956 247.966 160.694 251.106Z" fill="#F7FBF8" stroke="#646464" stroke-width="9.33728"/>
<path d="M65.3609 332.73L61.1778 330.657L60.813 331.394L60.7214 332.21L65.3609 332.73ZM65.3609 332.73C61.1778 330.657 61.1791 330.655 61.1804 330.652L61.1831 330.647L61.189 330.635L61.2026 330.608C61.2124 330.589 61.2239 330.566 61.2371 330.541C61.2633 330.491 61.2962 330.429 61.336 330.356C61.4154 330.211 61.5223 330.022 61.6585 329.798C61.9305 329.349 62.321 328.751 62.8439 328.059C63.8879 326.677 65.4757 324.895 67.7209 323.168C72.2878 319.654 79.3435 316.549 89.4603 317.177C101.365 317.916 108.63 320.826 113.053 324.027C115.263 325.626 116.7 327.254 117.617 328.614C118.073 329.29 118.393 329.888 118.614 330.369C118.725 330.609 118.81 330.819 118.875 330.994C118.908 331.082 118.935 331.16 118.959 331.23C118.97 331.264 118.981 331.297 118.99 331.327L119.003 331.37L119.009 331.39L119.012 331.4C119.014 331.404 119.015 331.409 114.537 332.73M65.3609 332.73C60.7214 332.21 60.7214 332.21 60.7213 332.21L60.7212 332.211L60.7209 332.214L60.7198 332.224L60.7156 332.262L60.6997 332.406C60.6859 332.531 60.6658 332.715 60.6404 332.952C60.5895 333.426 60.517 334.112 60.4301 334.967C60.2562 336.676 60.0241 339.065 59.7906 341.785C59.3268 347.191 58.8456 354.04 58.8249 359.48C58.8244 359.592 58.824 359.705 58.8235 359.818C58.8029 365.054 58.7824 370.269 60.1228 374.932C61.5984 380.066 64.6242 384.329 70.0855 387.97C71.4201 388.86 73.0133 389.408 74.4375 389.781C75.9317 390.173 77.6008 390.462 79.3072 390.681C82.7219 391.119 86.6223 391.319 90.2357 391.399C93.8686 391.478 97.3087 391.438 99.834 391.379C101.099 391.349 102.14 391.314 102.868 391.287C103.232 391.273 103.518 391.261 103.715 391.253C103.813 391.248 103.889 391.245 103.942 391.243L104.003 391.24L104.019 391.239L104.024 391.239L104.026 391.239C104.027 391.239 104.027 391.239 103.8 386.575M114.537 332.73C119.158 332.064 119.158 332.064 119.158 332.065L119.158 332.065L119.159 332.068L119.16 332.075L119.164 332.104L119.179 332.212C119.193 332.306 119.212 332.444 119.237 332.622C119.287 332.978 119.358 333.492 119.445 334.134C119.619 335.416 119.854 337.208 120.104 339.25C120.598 343.304 121.159 348.453 121.378 352.557C121.587 356.469 121.704 361.402 121.77 365.321C121.803 367.288 121.824 369.014 121.836 370.249C121.839 370.61 121.842 370.929 121.844 371.2C122.049 371.663 122.296 372.26 122.538 372.937C123.044 374.354 123.787 376.815 123.54 379.263C123.19 382.731 120.984 385.074 118.971 386.506C116.949 387.945 114.55 388.896 112.491 389.536C110.381 390.192 108.337 390.608 106.847 390.86C106.094 390.988 105.464 391.076 105.015 391.134C104.79 391.162 104.609 391.184 104.479 391.198C104.414 391.205 104.362 391.211 104.324 391.215L104.276 391.22L104.26 391.221L104.255 391.222L104.252 391.222C104.251 391.222 104.25 391.222 103.8 386.575M114.537 332.73L119.158 332.064L119.11 331.732L119.015 331.409L114.537 332.73ZM103.8 386.575L104.027 391.239L104.139 391.233L104.25 391.222L103.8 386.575Z" fill="#E7D88A" stroke="#646464" stroke-width="9.33728"/>
<path d="M256.795 332.73L260.978 330.657L261.343 331.394L261.435 332.21L256.795 332.73ZM256.795 332.73C260.978 330.657 260.977 330.655 260.976 330.652L260.973 330.647L260.967 330.635L260.954 330.608C260.944 330.589 260.932 330.566 260.919 330.541C260.893 330.491 260.86 330.429 260.82 330.356C260.741 330.211 260.634 330.022 260.498 329.798C260.226 329.349 259.835 328.751 259.312 328.059C258.268 326.677 256.681 324.895 254.435 323.168C249.868 319.654 242.813 316.549 232.696 317.177C220.791 317.916 213.526 320.826 209.103 324.027C206.894 325.626 205.456 327.254 204.539 328.614C204.083 329.29 203.763 329.888 203.542 330.369C203.432 330.609 203.346 330.819 203.281 330.994C203.248 331.082 203.221 331.16 203.198 331.23C203.186 331.264 203.176 331.297 203.166 331.327L203.153 331.37L203.147 331.39L203.144 331.4C203.143 331.404 203.141 331.409 207.619 332.73M256.795 332.73C261.435 332.21 261.435 332.21 261.435 332.21L261.435 332.211L261.435 332.214L261.436 332.224L261.441 332.262L261.457 332.406C261.47 332.531 261.49 332.715 261.516 332.952C261.567 333.426 261.639 334.112 261.726 334.967C261.9 336.676 262.132 339.065 262.366 341.785C262.829 347.191 263.311 354.04 263.331 359.48C263.332 359.592 263.332 359.705 263.333 359.818C263.353 365.054 263.374 370.269 262.033 374.932C260.558 380.066 257.532 384.329 252.071 387.97C250.736 388.86 249.143 389.408 247.719 389.781C246.225 390.173 244.555 390.462 242.849 390.681C239.434 391.119 235.534 391.319 231.921 391.399C228.288 391.478 224.848 391.438 222.322 391.379C221.057 391.349 220.016 391.314 219.288 391.287C218.924 391.273 218.638 391.261 218.441 391.253C218.343 391.248 218.267 391.245 218.214 391.243L218.154 391.24L218.137 391.239L218.132 391.239L218.13 391.239C218.13 391.239 218.129 391.239 218.357 386.575M207.619 332.73C202.998 332.064 202.998 332.064 202.998 332.065L202.998 332.065L202.998 332.068L202.997 332.075L202.992 332.104L202.977 332.212C202.964 332.306 202.944 332.444 202.919 332.622C202.869 332.978 202.798 333.492 202.711 334.134C202.538 335.416 202.302 337.208 202.053 339.25C201.558 343.304 200.997 348.453 200.778 352.557C200.57 356.469 200.452 361.402 200.386 365.321C200.353 367.288 200.332 369.014 200.32 370.249C200.317 370.61 200.314 370.929 200.312 371.2C200.107 371.663 199.86 372.26 199.618 372.937C199.112 374.354 198.369 376.815 198.616 379.263C198.966 382.731 201.173 385.074 203.185 386.506C205.207 387.945 207.606 388.896 209.665 389.536C211.775 390.192 213.819 390.608 215.31 390.86C216.062 390.988 216.692 391.076 217.142 391.134C217.367 391.162 217.547 391.184 217.677 391.198C217.742 391.205 217.794 391.211 217.832 391.215L217.88 391.22L217.896 391.221L217.902 391.222L217.904 391.222C217.905 391.222 217.906 391.222 218.357 386.575M207.619 332.73L202.998 332.064L203.046 331.732L203.141 331.409L207.619 332.73ZM218.357 386.575L218.129 391.239L218.018 391.233L217.906 391.222L218.357 386.575Z" fill="#E7D88A" stroke="#646464" stroke-width="9.33728"/>
<path d="M73.4115 225.146L70.6628 221.372L70.5054 221.487L70.3581 221.614L73.4115 225.146ZM73.4115 225.146C70.3581 221.614 70.3573 221.615 70.3562 221.616L70.3533 221.618L70.3443 221.626L70.3137 221.653L70.2027 221.749C70.107 221.833 69.9683 221.955 69.7893 222.114C69.4312 222.431 68.9118 222.896 68.2527 223.497C66.9347 224.699 65.0564 226.446 62.7914 228.651C58.266 233.056 52.1744 239.308 45.9167 246.693C33.5869 261.243 19.8899 281.017 17.2294 300.063C16.999 301.713 16.6942 303.285 16.3757 304.928C16.2618 305.516 16.1461 306.113 16.0315 306.726C15.6226 308.911 15.2201 311.334 15.2297 313.645C15.2395 315.993 15.6706 318.653 17.3089 321.035C18.9831 323.47 21.5041 325.02 24.5403 325.916C33.4531 328.546 41.9187 329.743 49.1553 329.217C56.3193 328.697 62.9118 326.425 67.1253 321.434C67.7379 320.709 68.5297 319.831 69.4411 318.822C72.246 315.714 76.1839 311.352 79.5194 306.289C82.3844 301.941 84.2 299.531 85.7898 297.421C86.3889 296.626 86.9559 295.873 87.5349 295.075C89.7077 292.081 91.6528 288.957 95.1012 282.06C98.9026 274.457 100.825 268.841 102.345 264.399C102.376 264.308 102.407 264.219 102.437 264.129C103.98 259.623 105.002 256.786 107.026 253.923C107.108 253.807 107.19 253.69 107.273 253.573C109.289 250.723 111.42 247.71 112.637 244.43C114.022 240.697 114.202 236.782 112.783 232.209C111.315 227.48 109.013 223.279 105.604 220.027C102.16 216.743 97.8169 214.648 92.664 213.814C87.2902 212.945 81.4859 215.275 77.7347 217.146C75.7143 218.153 73.9688 219.196 72.7304 219.983C72.1083 220.379 71.6066 220.715 71.2537 220.957C71.077 221.078 70.9372 221.176 70.8377 221.247C70.7879 221.282 70.7481 221.311 70.7188 221.332L70.6828 221.358L70.6708 221.366L70.6663 221.37L70.6644 221.371C70.6636 221.371 70.6628 221.372 73.4115 225.146Z" fill="#F7FBF8" stroke="#646464" stroke-width="9.33728"/>
<path d="M252.1 237.767L254.849 233.994L255.006 234.108L255.154 234.236L252.1 237.767ZM252.1 237.767C255.154 234.236 255.154 234.236 255.155 234.237L255.158 234.24L255.167 234.248L255.198 234.274L255.309 234.371C255.405 234.455 255.543 234.577 255.722 234.735C256.08 235.053 256.6 235.518 257.259 236.119C258.577 237.32 260.455 239.068 262.72 241.272C267.246 245.677 273.337 251.929 279.595 259.314C291.925 273.865 305.622 293.638 308.282 312.685C308.513 314.334 308.818 315.907 309.136 317.55C309.25 318.138 309.366 318.735 309.48 319.347C309.889 321.532 310.292 323.956 310.282 326.266C310.272 328.615 309.841 331.275 308.203 333.657C306.529 336.091 304.008 337.641 300.971 338.537C292.059 341.168 283.593 342.365 276.356 341.839C269.192 341.319 262.6 339.046 258.386 334.056C257.774 333.33 256.982 332.453 256.071 331.443C253.266 328.336 249.328 323.974 245.992 318.911C243.127 314.562 241.312 312.152 239.722 310.042C239.123 309.247 238.556 308.494 237.977 307.697C235.804 304.703 233.859 301.579 230.41 294.682C226.609 287.079 224.687 281.463 223.166 277.02C223.136 276.93 223.105 276.84 223.074 276.751C221.531 272.245 220.509 269.408 218.486 266.545C218.404 266.428 218.321 266.312 218.239 266.195C216.223 263.345 214.092 260.332 212.875 257.052C211.489 253.319 211.309 249.403 212.728 244.831C214.196 240.101 216.498 235.901 219.908 232.649C223.351 229.365 227.695 227.27 232.848 226.436C238.222 225.566 244.026 227.897 247.777 229.767C249.797 230.775 251.543 231.817 252.781 232.605C253.403 233 253.905 233.337 254.258 233.579C254.435 233.7 254.575 233.798 254.674 233.868C254.724 233.904 254.764 233.932 254.793 233.953L254.829 233.979L254.841 233.988L254.845 233.991L254.847 233.992C254.848 233.993 254.849 233.994 252.1 237.767Z" fill="#F7FBF8" stroke="#646464" stroke-width="9.33728"/>
<path d="M67.8461 230.81L64.0059 228.155L63.493 228.897L63.2933 229.777L67.8461 230.81ZM67.8461 230.81C64.0059 228.155 64.0069 228.154 64.0079 228.152L64.0101 228.149L64.0152 228.142L64.0281 228.123L64.0646 228.072C64.0937 228.031 64.1323 227.977 64.18 227.911C64.2756 227.78 64.4083 227.601 64.5764 227.382C64.9118 226.946 65.3918 226.349 66.0009 225.657C67.207 224.288 68.9802 222.483 71.2006 220.836C75.5392 217.618 82.5799 214.36 90.4003 218.023C114.707 229.41 144.532 234.571 171.804 234.266C199.264 233.959 223.154 228.128 236.123 218.502C239.621 215.906 243.564 216.268 246.584 217.355C249.538 218.419 252.288 220.373 254.484 222.225C256.737 224.123 258.703 226.17 260.087 227.713C260.786 228.491 261.35 229.157 261.745 229.634C261.943 229.873 262.098 230.066 262.208 230.203C262.262 230.271 262.305 230.326 262.337 230.365L262.374 230.413L262.386 230.428L262.39 230.433L262.392 230.436C262.392 230.436 262.393 230.437 258.705 233.3M67.8461 230.81C63.2933 229.777 63.2932 229.777 63.2931 229.778L63.2928 229.779L63.2916 229.785L63.2873 229.804L63.2712 229.875C63.2573 229.937 63.237 230.027 63.2106 230.146C63.1578 230.383 63.0808 230.731 62.9827 231.18C62.7866 232.079 62.5062 233.385 62.1663 235.022C61.4868 238.296 60.5685 242.901 59.6116 248.235C57.7052 258.865 55.616 272.552 54.9905 284.408L54.9845 284.521C53.885 305.36 52.8112 325.71 63.7764 345.216C66.6279 350.289 72.7052 353.67 79.1969 356.092C85.9539 358.613 94.329 360.508 103.208 361.927C120.996 364.768 141.53 365.805 156.862 365.805H157.087C176.891 365.805 199.018 365.805 217.687 362.873C227.072 361.4 235.841 359.15 243.13 355.639C250.439 352.119 256.534 347.194 260.067 340.254C270.81 319.151 269.863 304.798 268.403 282.685C268.372 282.206 268.34 281.723 268.308 281.237C267.553 269.749 266.308 257.606 265.255 248.356C264.728 243.727 264.248 239.811 263.899 237.052C263.725 235.672 263.583 234.58 263.485 233.832C263.436 233.458 263.398 233.17 263.372 232.975L263.342 232.753L263.335 232.695L263.332 232.68L263.332 232.676L263.332 232.675C263.332 232.674 263.332 232.674 258.705 233.3M258.705 233.3L262.393 230.437L263.163 231.429L263.332 232.674L258.705 233.3Z" fill="#F7FBF8" stroke="#646464" stroke-width="9.33728"/>
<path d="M317.987 144.336C317.017 214.92 288.918 241.104 160.938 246.775C43.659 240.49 9.01407 210.357 9.98438 139.773C65.5391 188.01 96.7035 204.291 160.939 206.895C229.003 209.655 270.336 200.022 317.987 144.336Z" fill="#F7FBF8"/>
<path d="M119.958 224.298C119.958 224.298 161.01 219.043 201.067 224.298C209.659 225.425 218.445 226.321 222.09 231.4C229.05 241.096 217.914 252.138 207.743 258.385C197.8 264.493 182.101 269.724 164.703 269.89C146.661 270.062 132.032 264.919 119.958 258.385C109.367 252.655 98.0312 241.189 105.043 231.4C108.799 226.155 119.958 224.298 119.958 224.298Z" fill="#F0F6F2"/>
<path d="M83.3125 153.391C83.7409 153.477 83.7404 153.453 84.2803 153.466C84.3844 153.468 84.7023 153.531 84.8116 153.531C84.931 153.531 85.1234 153.487 85.2366 153.512C85.3319 153.532 85.4958 153.452 85.5897 153.466C85.6576 153.475 85.9405 153.521 86.0071 153.531C86.0552 153.538 86.0936 153.515 86.14 153.512C86.3037 153.5 86.3957 153.57 86.5574 153.584C86.7075 153.598 87.126 153.564 87.2596 153.627C87.3348 153.663 86.9611 153.671 87.0465 153.649C87.1654 153.618 87.4211 153.674 87.5442 153.68C87.6945 153.687 87.7435 153.639 87.8929 153.627C87.9527 153.622 88.0143 153.609 88.0627 153.643C88.1142 153.679 88.1291 153.712 88.1945 153.68C88.2353 153.66 88.8915 153.624 88.8915 153.68" stroke="#676564" stroke-width="5.91361" stroke-linecap="round"/>
<path d="M246.613 153.769C246.658 153.769 246.694 153.769 246.738 153.787C246.772 153.802 246.87 153.87 246.906 153.833C246.937 153.801 246.921 153.76 246.973 153.748C247.048 153.731 247.17 153.763 247.245 153.775C247.371 153.796 247.486 153.793 247.613 153.784C247.775 153.774 247.925 153.809 248.085 153.768C248.217 153.734 248.418 153.61 248.553 153.656C248.631 153.683 248.711 153.781 248.793 153.781C248.918 153.781 249.064 153.675 249.192 153.656C249.256 153.647 249.537 153.714 249.467 153.606C249.465 153.603 249.739 153.523 249.77 153.515C249.871 153.489 249.971 153.53 250.072 153.54C250.197 153.552 250.309 153.536 250.43 153.509C250.571 153.479 250.723 153.501 250.86 153.546C250.956 153.578 250.979 153.572 250.993 153.437C250.997 153.394 250.994 153.443 250.996 153.453C251.001 153.485 251.069 153.458 251.081 153.455C251.143 153.441 251.278 153.381 251.336 153.393C251.412 153.409 251.457 153.471 251.543 153.484C251.609 153.493 251.674 153.497 251.74 153.497" stroke="#676564" stroke-width="5.91361" stroke-linecap="round"/>
<path d="M109.384 171.356C116.314 169.783 119.187 169.088 124.723 168.227C130.135 166.628 125.642 168.208 129.397 166.874C132.295 165.844 135.279 163.594 138.131 162.445C141.372 161.139 145.04 159.543 148.588 158.509C152.387 157.4 157.088 156.936 161.504 156.91C166.111 156.882 172.768 157.494 178.235 158.509C184.399 159.653 187.574 159.544 192.627 162.445C196.758 164.817 201.144 166.309 206.036 169.703C208.084 171.124 210.009 172.722 212.556 173.517C216.344 174.699 218.853 175.199 222.765 175.833C225.533 176.281 228.615 176.369 231.183 177.562C234.707 179.198 237.529 180.162 237.563 184.583C237.584 187.245 236.086 189.783 234.059 191.432C228.549 195.914 224.938 194.879 219.199 195.29C211.838 195.818 208.665 193.957 201.73 191.432C196.626 189.574 194.05 186.752 189.06 185.695C181.027 183.993 175.802 183.101 168.27 182.552C158.178 181.816 148.711 185.695 142.922 187.931C134.085 188.841 126.814 192.806 116.853 192.806C113.941 193.488 112.345 193.176 109.384 192.806C103.732 192.098 91.4833 190.089 91.5384 182.552C91.6052 173.414 102.886 172.831 109.384 171.356Z" fill="#EE8E7E" stroke="#646464" stroke-width="6.63452" stroke-linecap="round"/>
<path d="M141.648 4.12891C142.314 8.45314 144.967 16.5934 148.847 19.1802" stroke="#646464" stroke-width="6.63452" stroke-linecap="round"/>
<path d="M167.172 6.09229V17.2172" stroke="#646464" stroke-width="6.63452" stroke-linecap="round"/>
<path d="M192.036 7.39893C192.036 12.7995 190.004 14.9072 186.801 19.1782" stroke="#646464" stroke-width="6.63452" stroke-linecap="round"/>
</svg>
