<svg width="328" height="405" viewBox="0 0 328 405" fill="none" xmlns="http://www.w3.org/2000/svg">
<path d="M71.5404 233.433L68.7917 229.659L68.6343 229.774L68.487 229.901L71.5404 233.433ZM71.5404 233.433C68.487 229.901 68.4862 229.902 68.4851 229.903L68.4822 229.905L68.4732 229.913L68.4426 229.94L68.3316 230.037C68.2359 230.12 68.0972 230.242 67.9182 230.401C67.5601 230.718 67.0407 231.183 66.3816 231.784C65.0636 232.986 63.1853 234.733 60.9203 236.938C56.3949 241.343 50.3033 247.595 44.0456 254.98C31.7159 269.53 18.0188 289.304 15.3583 308.35C15.1279 310 14.8231 311.572 14.5047 313.215C14.3907 313.803 14.275 314.4 14.1604 315.013C13.7515 317.198 13.349 319.621 13.3586 321.932C13.3684 324.28 13.7995 326.94 15.4378 329.323C17.112 331.757 19.633 333.307 22.6692 334.203C31.582 336.833 40.0476 338.03 47.2842 337.505C54.4482 336.984 61.0407 334.712 65.2542 329.721C65.8668 328.996 66.6586 328.119 67.57 327.109C70.3749 324.002 74.3128 319.639 77.6483 314.576C80.5134 310.228 82.3289 307.818 83.9187 305.708C84.5178 304.913 85.0848 304.16 85.6638 303.362C87.8366 300.369 89.7817 297.244 93.2301 290.347C97.0315 282.744 98.9537 277.128 100.474 272.686C100.505 272.595 100.536 272.506 100.566 272.416C102.109 267.91 103.131 265.073 105.154 262.21C105.237 262.094 105.319 261.977 105.402 261.86C107.418 259.01 109.549 255.997 110.766 252.717C112.151 248.984 112.331 245.069 110.912 240.497C109.444 235.767 107.142 231.566 103.733 228.314C100.289 225.03 95.9458 222.935 90.7929 222.101C85.4191 221.232 79.6148 223.562 75.8636 225.433C73.8432 226.441 72.0977 227.483 70.8594 228.27C70.2372 228.666 69.7355 229.002 69.3826 229.244C69.206 229.365 69.0661 229.463 68.9666 229.534C68.9168 229.569 68.877 229.598 68.8477 229.619L68.8117 229.645L68.7997 229.653L68.7952 229.657L68.7933 229.658C68.7925 229.659 68.7917 229.659 71.5404 233.433Z" fill="#79A383" stroke="#646464" stroke-width="9.33728"/>
<path d="M250.983 235.949L253.732 232.176L253.889 232.29L254.036 232.418L250.983 235.949ZM250.983 235.949C254.036 232.418 254.037 232.418 254.038 232.419L254.041 232.422L254.05 232.43L254.081 232.456L254.192 232.553C254.288 232.637 254.426 232.759 254.605 232.918C254.963 233.235 255.483 233.7 256.142 234.301C257.46 235.502 259.338 237.25 261.603 239.455C266.129 243.86 272.22 250.111 278.478 257.496C290.808 272.047 304.505 291.821 307.165 310.867C307.396 312.516 307.7 314.089 308.019 315.732C308.133 316.32 308.248 316.917 308.363 317.53C308.772 319.715 309.174 322.138 309.165 324.448C309.155 326.797 308.724 329.457 307.086 331.839C305.411 334.274 302.89 335.823 299.854 336.719C290.941 339.35 282.476 340.547 275.239 340.021C268.075 339.501 261.483 337.228 257.269 332.238C256.657 331.512 255.865 330.635 254.953 329.625C252.149 326.518 248.211 322.156 244.875 317.093C242.01 312.744 240.195 310.335 238.605 308.224C238.006 307.429 237.439 306.677 236.86 305.879C234.687 302.885 232.742 299.761 229.293 292.864C225.492 285.261 223.57 279.645 222.049 275.202C222.018 275.112 221.988 275.022 221.957 274.933C220.414 270.427 219.392 267.59 217.369 264.727C217.287 264.61 217.204 264.494 217.122 264.377C215.106 261.527 212.975 258.514 211.757 255.234C210.372 251.501 210.192 247.586 211.611 243.013C213.079 238.283 215.381 234.083 218.791 230.831C222.234 227.547 226.578 225.452 231.731 224.618C237.104 223.748 242.909 226.079 246.66 227.95C248.68 228.957 250.426 229.999 251.664 230.787C252.286 231.182 252.788 231.519 253.141 231.761C253.317 231.882 253.457 231.98 253.557 232.051C253.607 232.086 253.646 232.114 253.676 232.135L253.712 232.161L253.724 232.17L253.728 232.173L253.73 232.175C253.731 232.175 253.732 232.176 250.983 235.949Z" fill="#79A383" stroke="#646464" stroke-width="9.33728"/>
<path d="M160.495 259.758L160.723 259.77L160.95 259.76C224.904 256.938 265.191 249.019 289.555 232.147C314.56 214.831 321.966 188.779 322.457 153.051C323.476 78.9848 251.938 27.9866 165.633 26.8002C79.3346 25.6139 6.2555 74.6189 5.23726 148.69C4.74269 184.667 13.3537 211.472 38.2202 229.723C62.5792 247.602 101.757 256.618 160.495 259.758Z" fill="#79A383" stroke="#646464" stroke-width="9.33728"/>
<path d="M65.1617 341.382L60.9786 339.309L60.6138 340.045L60.5222 340.862L65.1617 341.382ZM65.1617 341.382C60.9786 339.309 60.9799 339.307 60.9812 339.304L60.9839 339.299L60.9898 339.287L61.0033 339.26C61.0132 339.24 61.0247 339.218 61.0378 339.193C61.0641 339.142 61.097 339.08 61.1367 339.008C61.2162 338.862 61.3231 338.674 61.4593 338.45C61.7312 338.001 62.1218 337.403 62.6447 336.711C63.6886 335.328 65.2765 333.547 67.5216 331.82C72.0885 328.306 79.1443 325.201 89.2611 325.829C101.166 326.568 108.431 329.478 112.854 332.679C115.064 334.278 116.501 335.906 117.418 337.266C117.874 337.942 118.194 338.54 118.415 339.021C118.525 339.261 118.611 339.471 118.676 339.646C118.709 339.733 118.736 339.812 118.759 339.882C118.771 339.916 118.781 339.949 118.791 339.979L118.804 340.022L118.81 340.042L118.813 340.052C118.814 340.056 118.816 340.061 114.338 341.382M65.1617 341.382C60.5222 340.862 60.5221 340.862 60.5221 340.862L60.522 340.863L60.5217 340.866L60.5206 340.876L60.5164 340.914L60.5005 341.058C60.4867 341.183 60.4666 341.367 60.4412 341.604C60.3903 342.078 60.3178 342.764 60.2309 343.619C60.057 345.328 59.8249 347.717 59.5914 350.437C59.1275 355.843 58.6464 362.692 58.6256 368.131C58.6252 368.244 58.6248 368.357 58.6243 368.47C58.6037 373.706 58.5832 378.921 59.9236 383.584C61.3992 388.717 64.425 392.981 69.8863 396.622C71.2209 397.512 72.8141 398.06 74.2383 398.433C75.7325 398.824 77.4016 399.114 79.1079 399.333C82.5226 399.771 86.4231 399.971 90.0365 400.05C93.6694 400.13 97.1094 400.09 99.6348 400.031C100.9 400.001 101.941 399.966 102.669 399.939C103.033 399.925 103.319 399.913 103.516 399.905C103.614 399.9 103.69 399.897 103.743 399.894L103.803 399.892L103.82 399.891L103.825 399.891L103.827 399.89C103.827 399.89 103.828 399.89 103.6 395.227M114.338 341.382C118.959 340.716 118.959 340.716 118.959 340.717L118.959 340.717L118.959 340.719L118.961 340.727L118.965 340.756L118.98 340.864C118.993 340.958 119.013 341.096 119.038 341.274C119.088 341.629 119.159 342.144 119.246 342.786C119.419 344.068 119.655 345.86 119.904 347.901C120.399 351.955 120.96 357.105 121.179 361.209C121.387 365.121 121.505 370.054 121.571 373.973C121.604 375.94 121.625 377.666 121.637 378.901C121.64 379.262 121.643 379.581 121.645 379.852C121.85 380.315 122.097 380.911 122.339 381.589C122.845 383.006 123.588 385.467 123.341 387.915C122.991 391.383 120.784 393.726 118.772 395.158C116.75 396.597 114.351 397.548 112.292 398.188C110.182 398.843 108.138 399.26 106.647 399.512C105.895 399.639 105.265 399.728 104.815 399.785C104.59 399.814 104.41 399.835 104.28 399.85C104.215 399.857 104.163 399.863 104.125 399.867L104.077 399.872L104.061 399.873L104.055 399.874L104.053 399.874C104.052 399.874 104.051 399.874 103.6 395.227M114.338 341.382L118.959 340.716L118.911 340.383L118.816 340.061L114.338 341.382ZM103.6 395.227L103.828 399.89L103.939 399.885L104.051 399.874L103.6 395.227Z" fill="#79A383" stroke="#646464" stroke-width="9.33728"/>
<path d="M256.596 341.382L260.779 339.309L261.144 340.045L261.236 340.862L256.596 341.382ZM256.596 341.382C260.779 339.309 260.778 339.307 260.777 339.304L260.774 339.299L260.768 339.287L260.754 339.26C260.745 339.24 260.733 339.218 260.72 339.193C260.694 339.142 260.661 339.08 260.621 339.008C260.542 338.862 260.435 338.674 260.299 338.45C260.027 338.001 259.636 337.403 259.113 336.711C258.069 335.328 256.481 333.547 254.236 331.82C249.669 328.306 242.614 325.201 232.497 325.829C220.592 326.568 213.327 329.478 208.904 332.679C206.694 334.278 205.257 335.906 204.34 337.266C203.884 337.942 203.564 338.54 203.343 339.021C203.232 339.261 203.147 339.471 203.082 339.646C203.049 339.733 203.022 339.812 202.998 339.882C202.987 339.916 202.976 339.949 202.967 339.979L202.954 340.022L202.948 340.042L202.945 340.052C202.943 340.056 202.942 340.061 207.42 341.382M256.596 341.382C261.236 340.862 261.236 340.862 261.236 340.862L261.236 340.863L261.236 340.866L261.237 340.876L261.241 340.914L261.257 341.058C261.271 341.183 261.291 341.367 261.317 341.604C261.368 342.078 261.44 342.764 261.527 343.619C261.701 345.328 261.933 347.717 262.166 350.437C262.63 355.843 263.111 362.692 263.132 368.131C263.133 368.244 263.133 368.357 263.133 368.47C263.154 373.706 263.175 378.921 261.834 383.584C260.359 388.717 257.333 392.981 251.872 396.622C250.537 397.512 248.944 398.06 247.519 398.433C246.025 398.824 244.356 399.114 242.65 399.333C239.235 399.771 235.335 399.971 231.721 400.05C228.088 400.13 224.648 400.09 222.123 400.031C220.858 400.001 219.817 399.966 219.089 399.939C218.725 399.925 218.439 399.913 218.242 399.905C218.144 399.9 218.068 399.897 218.015 399.894L217.954 399.892L217.938 399.891L217.933 399.891L217.931 399.89C217.93 399.89 217.93 399.89 218.158 395.227M207.42 341.382C202.799 340.716 202.799 340.716 202.799 340.717L202.799 340.717L202.798 340.719L202.797 340.727L202.793 340.756L202.778 340.864C202.764 340.958 202.745 341.096 202.72 341.274C202.67 341.629 202.599 342.144 202.512 342.786C202.338 344.068 202.103 345.86 201.853 347.901C201.359 351.955 200.798 357.105 200.579 361.209C200.37 365.121 200.253 370.054 200.187 373.973C200.154 375.94 200.133 377.666 200.121 378.901C200.118 379.262 200.115 379.581 200.113 379.852C199.908 380.315 199.661 380.911 199.419 381.589C198.913 383.006 198.17 385.467 198.417 387.915C198.767 391.383 200.973 393.726 202.986 395.158C205.008 396.597 207.407 397.548 209.466 398.188C211.576 398.843 213.62 399.26 215.11 399.512C215.863 399.639 216.493 399.728 216.942 399.785C217.167 399.814 217.348 399.835 217.478 399.85C217.543 399.857 217.595 399.863 217.633 399.867L217.681 399.872L217.697 399.873L217.703 399.874L217.705 399.874C217.706 399.874 217.707 399.874 218.158 395.227M207.42 341.382L202.799 340.716L202.847 340.383L202.942 340.061L207.42 341.382ZM218.158 395.227L217.93 399.89L217.818 399.885L217.707 399.874L218.158 395.227Z" fill="#79A383" stroke="#646464" stroke-width="9.33728"/>
<path d="M67.6469 239.462L63.8067 236.807L63.2938 237.549L63.0941 238.429L67.6469 239.462ZM67.6469 239.462C63.8067 236.807 63.8077 236.806 63.8087 236.805L63.8109 236.801L63.816 236.794L63.8289 236.776L63.8654 236.724C63.8945 236.683 63.933 236.629 63.9808 236.563C64.0763 236.432 64.2091 236.253 64.3771 236.034C64.7126 235.599 65.1926 235.001 65.8017 234.31C67.0078 232.941 68.7809 231.135 71.0014 229.488C75.3399 226.271 82.3807 223.012 90.201 226.675C114.508 238.062 144.333 243.223 171.605 242.918C199.064 242.611 222.955 236.78 235.924 227.154C239.421 224.558 243.364 224.921 246.384 226.007C249.339 227.071 252.089 229.025 254.285 230.877C256.537 232.776 258.504 234.822 259.888 236.365C260.587 237.143 261.151 237.809 261.546 238.286C261.743 238.525 261.899 238.718 262.008 238.855C262.063 238.923 262.106 238.978 262.137 239.017L262.175 239.065L262.187 239.08L262.191 239.086L262.192 239.088C262.193 239.089 262.194 239.089 258.506 241.952M67.6469 239.462C63.0941 238.429 63.094 238.429 63.0939 238.43L63.0935 238.431L63.0923 238.437L63.088 238.456L63.072 238.527C63.0581 238.589 63.0377 238.679 63.0113 238.798C62.9585 239.035 62.8816 239.383 62.7835 239.833C62.5874 240.732 62.307 242.037 61.9671 243.674C61.2876 246.948 60.3693 251.553 59.4124 256.888C57.506 267.517 55.4168 281.204 54.7913 293.06L54.7853 293.173C53.6857 314.012 52.612 334.362 63.5772 353.868C66.4287 358.941 72.506 362.322 78.9977 364.744C85.7547 367.265 94.1297 369.161 103.009 370.579C120.796 373.42 141.331 374.457 156.662 374.457H156.887C176.691 374.457 198.819 374.457 217.487 371.526C226.873 370.052 235.642 367.802 242.931 364.291C250.239 360.771 256.335 355.846 259.867 348.906C270.611 327.803 269.664 313.45 268.204 291.338C268.173 290.858 268.141 290.375 268.109 289.889C267.353 278.401 266.108 266.258 265.055 257.008C264.528 252.379 264.048 248.464 263.7 245.704C263.526 244.324 263.384 243.232 263.286 242.484C263.237 242.111 263.199 241.822 263.173 241.627L263.143 241.405L263.135 241.347L263.133 241.332L263.133 241.328L263.133 241.327C263.133 241.327 263.132 241.326 258.506 241.952M258.506 241.952L262.194 239.089L262.964 240.082L263.132 241.326L258.506 241.952Z" fill="#79A383" stroke="#646464" stroke-width="9.33728"/>
<path d="M317.792 152.988C316.821 223.572 288.723 249.756 160.742 255.427C43.4637 249.142 8.81876 219.009 9.78906 148.425C65.3438 196.662 96.5082 212.943 160.744 215.547C228.808 218.307 270.141 208.673 317.792 152.988Z" fill="#79A383"/>
<path d="M119.759 232.95C119.759 232.95 160.811 227.695 200.868 232.95C209.46 234.078 218.246 234.973 221.891 240.052C228.851 249.748 217.715 260.79 207.544 267.038C197.601 273.145 181.902 278.376 164.504 278.542C146.462 278.714 131.833 273.571 119.759 267.038C109.168 261.307 97.832 249.841 104.844 240.052C108.6 234.808 119.759 232.95 119.759 232.95Z" fill="#6E9578"/>
<path d="M110.409 161.511C104.619 161.511 99.7932 158.035 99.7932 165.184C99.7932 168.047 106.852 175.653 108.758 170.457C112.193 161.089 98.8496 158.767 98.8496 164.71C98.8496 168.521 105.648 171.407 108.227 168.384C112.432 163.456 100.781 159.549 99.7932 161.985C97.8748 166.715 109.949 176.314 111.235 165.658C111.775 161.182 105.655 162.536 102.86 162.578C86.1134 162.825 109.347 181.195 109.347 167.91" stroke="#646464" stroke-width="3.76962" stroke-linecap="round"/>
<path d="M236.91 161.511C231.06 161.511 226.184 158.035 226.184 165.184C226.184 168.047 233.316 175.653 235.242 170.457C238.713 161.089 225.23 158.767 225.23 164.71C225.23 168.521 232.099 171.407 234.705 168.384C238.954 163.456 227.182 159.549 226.184 161.985C224.245 166.715 236.446 176.314 237.745 165.658C238.29 161.182 232.106 162.536 229.283 162.578C212.362 162.825 235.838 181.195 235.838 167.91" stroke="#646464" stroke-width="3.76962" stroke-linecap="round"/>
<path d="M151.522 184.021C154.964 189.654 162.267 189.548 167.759 189.548C171.378 189.548 175.184 188.953 176.957 187.814C177.854 187.237 181.799 184.136 180.792 182.177C179.83 180.306 175.547 180.062 173.818 179.763C169.721 179.055 165.827 179.176 161.714 179.763C158.453 180.229 154.665 180.855 151.656 182.244C150.792 182.643 151.16 183.429 151.522 184.021Z" fill="#E7D88A" stroke="#646464" stroke-width="6.63452" stroke-linecap="round"/>
<path d="M168.389 180.635C159.899 181.258 154.307 178.99 145.8 178.99C145.264 178.99 144.895 178.472 144.895 177.934C144.895 176.844 147.592 175.18 148.214 174.632C151.796 171.473 155.471 168.408 159.446 165.747C163.647 162.934 169.244 162.773 173.561 165.412C177.408 167.763 180.85 170.79 184.156 173.827C184.727 174.352 188.937 177.236 186.302 178.068C184.907 178.509 183.206 178.419 181.759 178.538C178.474 178.807 171.677 180.393 168.389 180.635Z" fill="#E7D88A" stroke="#646464" stroke-width="6.63452" stroke-linecap="round"/>
<path d="M105.67 16.3676L106.02 26.7659L90.9861 30.591L94.5913 41.3323L83.4153 52.1939L99.9597 59.6332L98.1473 70.7831L114.046 70.2481L119.485 81.682L136.633 75.6736L148.578 83.1922L163.457 74.7708L179.999 82.1347L188.775 73.9187L207.418 78.7226L212.488 67.9911L231.816 68.4721L229.399 52.7121L243.269 43.4194L231.942 31.8819L231.564 20.6548L213.721 19.4449L207.931 8.77711L193.173 11.8386L180.999 4.25219L167.769 10.1288L153.421 5.18033L142.5 12.4125L127.22 8.92865L120.946 17.5131L105.67 16.3676Z" fill="#96CAA2" stroke="#646464" stroke-width="7.53923"/>
<path d="M188.352 62.9024C189.013 62.8801 199.556 61.1598 205.378 57.7922C210.467 54.8482 215.517 53.1905 217.643 47.939C219.911 42.3351 219.132 37.2275 214.203 33.1546C203.264 24.1155 186.237 21.0941 171.111 20.7967C156.534 20.5102 142.837 22.1474 129.308 27.4884C125.332 29.0576 117.232 32.5438 115.039 38.323C113.188 43.2023 112.608 45.4534 115.479 51.3774C117.941 56.4579 128.681 59.3947 133.933 60.1967C145.516 61.9656 154.253 63.3921 166.051 63.6529C175.868 63.8699 178.54 63.2326 188.352 62.9024Z" fill="#F3EED7" stroke="#646464" stroke-width="6.63452" stroke-linecap="round"/>
</svg>
