<svg width="328" height="394" viewBox="0 0 328 394" fill="none" xmlns="http://www.w3.org/2000/svg">
<path d="M160.476 248.837L160.703 248.849L160.931 248.839C224.885 246.017 265.172 238.098 289.535 221.226C314.541 203.91 321.947 177.857 322.438 142.13C323.456 68.0637 251.918 17.0655 165.613 15.879C79.3151 14.6927 6.23597 63.6977 5.21773 137.769C4.72316 173.746 13.3342 200.551 38.2007 218.802C62.5596 236.681 101.738 245.697 160.476 248.837Z" fill="#868686" stroke="#646464" stroke-width="9.33728"/>
<path d="M65.1422 330.461L60.9591 328.388L60.5942 329.124L60.5026 329.941L65.1422 330.461ZM65.1422 330.461C60.9591 328.388 60.9603 328.386 60.9616 328.383L60.9643 328.378L60.9702 328.366L60.9838 328.339C60.9937 328.32 61.0052 328.297 61.0183 328.272C61.0446 328.221 61.0775 328.159 61.1172 328.087C61.1966 327.942 61.3036 327.753 61.4397 327.529C61.7117 327.08 62.1022 326.482 62.6252 325.79C63.6691 324.407 65.257 322.626 67.5021 320.899C72.069 317.385 79.1247 314.28 89.2416 314.908C101.146 315.647 108.412 318.557 112.835 321.758C115.044 323.357 116.481 324.985 117.399 326.345C117.854 327.021 118.174 327.619 118.396 328.1C118.506 328.34 118.591 328.55 118.657 328.725C118.689 328.812 118.717 328.891 118.74 328.961C118.751 328.995 118.762 329.028 118.771 329.058L118.784 329.101L118.791 329.121L118.793 329.131C118.795 329.135 118.796 329.14 114.319 330.461M65.1422 330.461C60.5026 329.941 60.5026 329.941 60.5026 329.941L60.5025 329.942L60.5022 329.945L60.501 329.955L60.4968 329.993L60.481 330.137C60.4672 330.262 60.4471 330.446 60.4216 330.683C60.3707 331.157 60.2983 331.843 60.2113 332.698C60.0375 334.407 59.8054 336.796 59.5719 339.516C59.108 344.922 58.6269 351.771 58.6061 357.21C58.6057 357.323 58.6052 357.436 58.6048 357.549C58.5842 362.785 58.5637 368 59.904 372.663C61.3797 377.797 64.4055 382.06 69.8668 385.701C71.2014 386.591 72.7945 387.139 74.2188 387.512C75.7129 387.903 77.382 388.193 79.0884 388.412C82.5031 388.85 86.4036 389.05 90.017 389.13C93.6498 389.209 97.0899 389.169 99.6153 389.11C100.88 389.08 101.921 389.045 102.649 389.018C103.013 389.004 103.299 388.992 103.496 388.984C103.594 388.979 103.671 388.976 103.723 388.974L103.784 388.971L103.801 388.97L103.806 388.97L103.807 388.97C103.808 388.97 103.808 388.97 103.581 384.306M114.319 330.461C118.939 329.795 118.939 329.795 118.939 329.796L118.94 329.796L118.94 329.798L118.941 329.806L118.945 329.835L118.96 329.943C118.974 330.037 118.993 330.175 119.018 330.353C119.068 330.709 119.14 331.223 119.226 331.865C119.4 333.147 119.636 334.939 119.885 336.981C120.379 341.035 120.941 346.184 121.159 350.288C121.368 354.2 121.486 359.133 121.552 363.052C121.585 365.019 121.605 366.745 121.617 367.98C121.621 368.341 121.623 368.66 121.626 368.931C121.83 369.394 122.078 369.99 122.32 370.668C122.826 372.085 123.568 374.546 123.321 376.994C122.971 380.462 120.765 382.805 118.753 384.237C116.73 385.676 114.332 386.627 112.272 387.267C110.163 387.923 108.118 388.339 106.628 388.591C105.875 388.718 105.245 388.807 104.796 388.865C104.571 388.893 104.39 388.915 104.26 388.929C104.196 388.936 104.144 388.942 104.105 388.946L104.058 388.951L104.042 388.952L104.036 388.953L104.033 388.953C104.032 388.953 104.031 388.953 103.581 384.306M114.319 330.461L118.939 329.795L118.891 329.463L118.796 329.14L114.319 330.461ZM103.581 384.306L103.808 388.97L103.92 388.964L104.031 388.953L103.581 384.306Z" fill="#E7D88A" stroke="#646464" stroke-width="9.33728"/>
<path d="M256.577 330.461L260.76 328.388L261.125 329.124L261.216 329.941L256.577 330.461ZM256.577 330.461C260.76 328.388 260.758 328.386 260.757 328.383L260.754 328.378L260.749 328.366L260.735 328.339C260.725 328.32 260.714 328.297 260.7 328.272C260.674 328.221 260.641 328.159 260.602 328.087C260.522 327.942 260.415 327.753 260.279 327.529C260.007 327.08 259.617 326.482 259.094 325.79C258.05 324.407 256.462 322.626 254.217 320.899C249.65 317.385 242.594 314.28 232.477 314.908C220.573 315.647 213.307 318.557 208.884 321.758C206.675 323.357 205.238 324.985 204.32 326.345C203.864 327.021 203.544 327.619 203.323 328.1C203.213 328.34 203.127 328.55 203.062 328.725C203.03 328.812 203.002 328.891 202.979 328.961C202.967 328.995 202.957 329.028 202.948 329.058L202.934 329.101L202.928 329.121L202.925 329.131C202.924 329.135 202.922 329.14 207.4 330.461M256.577 330.461C261.216 329.941 261.216 329.941 261.216 329.941L261.216 329.942L261.217 329.945L261.218 329.955L261.222 329.993L261.238 330.137C261.252 330.262 261.272 330.446 261.297 330.683C261.348 331.157 261.42 331.843 261.507 332.698C261.681 334.407 261.913 336.796 262.147 339.516C262.611 344.922 263.092 351.771 263.113 357.21C263.113 357.323 263.114 357.436 263.114 357.549C263.135 362.785 263.155 368 261.815 372.663C260.339 377.797 257.313 382.06 251.852 385.701C250.517 386.591 248.924 387.139 247.5 387.512C246.006 387.903 244.337 388.193 242.63 388.412C239.216 388.85 235.315 389.05 231.702 389.13C228.069 389.209 224.629 389.169 222.103 389.11C220.838 389.08 219.797 389.045 219.07 389.018C218.705 389.004 218.419 388.992 218.223 388.984C218.124 388.979 218.048 388.976 217.996 388.974L217.935 388.971L217.918 388.97L217.913 388.97L217.912 388.97C217.911 388.97 217.91 388.97 218.138 384.306M207.4 330.461C202.779 329.795 202.779 329.795 202.779 329.796L202.779 329.796L202.779 329.798L202.778 329.806L202.774 329.835L202.758 329.943C202.745 330.037 202.725 330.175 202.7 330.353C202.651 330.709 202.579 331.223 202.492 331.865C202.319 333.147 202.083 334.939 201.834 336.981C201.339 341.035 200.778 346.184 200.559 350.288C200.351 354.2 200.233 359.133 200.167 363.052C200.134 365.019 200.114 366.745 200.102 367.98C200.098 368.341 200.095 368.66 200.093 368.931C199.888 369.394 199.641 369.99 199.399 370.668C198.893 372.085 198.151 374.546 198.398 376.994C198.748 380.462 200.954 382.805 202.966 384.237C204.989 385.676 207.387 386.627 209.446 387.267C211.556 387.923 213.6 388.339 215.091 388.591C215.844 388.718 216.473 388.807 216.923 388.865C217.148 388.893 217.329 388.915 217.458 388.929C217.523 388.936 217.575 388.942 217.614 388.946L217.661 388.951L217.677 388.952L217.683 388.953L217.685 388.953C217.687 388.953 217.688 388.953 218.138 384.306M207.4 330.461L202.779 329.795L202.827 329.463L202.922 329.14L207.4 330.461ZM218.138 384.306L217.91 388.97L217.799 388.964L217.688 388.953L218.138 384.306Z" fill="#E7D88A" stroke="#646464" stroke-width="9.33728"/>
<path d="M73.1927 222.877L70.444 219.103L70.2866 219.218L70.1393 219.345L73.1927 222.877ZM73.1927 222.877C70.1393 219.345 70.1385 219.346 70.1375 219.347L70.1346 219.349L70.1256 219.357L70.0949 219.384L69.984 219.48C69.8883 219.564 69.7495 219.686 69.5705 219.845C69.2125 220.162 68.6931 220.627 68.0339 221.228C66.7159 222.429 64.8376 224.177 62.5726 226.382C58.0472 230.787 51.9556 237.039 45.6979 244.423C33.3682 258.974 19.6712 278.748 17.0106 297.794C16.7802 299.444 16.4754 301.016 16.157 302.659C16.0431 303.247 15.9274 303.844 15.8127 304.457C15.4038 306.642 15.0013 309.065 15.0109 311.376C15.0207 313.724 15.4518 316.384 17.0902 318.766C18.7643 321.201 21.2853 322.75 24.3216 323.647C33.2343 326.277 41.7 327.474 48.9366 326.948C56.1006 326.428 62.693 324.156 66.9065 319.165C67.5191 318.44 68.3109 317.562 69.2224 316.553C72.0273 313.445 75.9652 309.083 79.3007 304.02C82.1657 299.672 83.9812 297.262 85.571 295.152C86.1701 294.356 86.7371 293.604 87.3162 292.806C89.489 289.812 91.4341 286.688 94.8825 279.791C98.6839 272.188 100.606 266.572 102.127 262.13C102.157 262.039 102.188 261.95 102.219 261.86C103.761 257.354 104.784 254.517 106.807 251.654C106.889 251.538 106.972 251.421 107.054 251.304C109.07 248.454 111.201 245.441 112.418 242.161C113.804 238.428 113.984 234.513 112.565 229.94C111.097 225.211 108.795 221.01 105.385 217.758C101.942 214.474 97.5981 212.379 92.4452 211.545C87.0715 210.676 81.2671 213.006 77.516 214.877C75.4955 215.884 73.7501 216.927 72.5117 217.714C71.8895 218.11 71.3878 218.446 71.0349 218.688C70.8583 218.809 70.7184 218.907 70.6189 218.978C70.5691 219.013 70.5294 219.041 70.5001 219.062L70.464 219.088L70.452 219.097L70.4475 219.1L70.4456 219.102C70.4448 219.102 70.444 219.103 73.1927 222.877Z" fill="#868686" stroke="#646464" stroke-width="9.33728"/>
<path d="M251.881 235.498L254.63 231.725L254.788 231.839L254.935 231.967L251.881 235.498ZM251.881 235.498C254.935 231.967 254.936 231.967 254.937 231.968L254.94 231.971L254.949 231.978L254.979 232.005L255.09 232.102C255.186 232.186 255.325 232.308 255.504 232.466C255.862 232.784 256.381 233.249 257.04 233.849C258.358 235.051 260.237 236.799 262.502 239.003C267.027 243.408 273.119 249.66 279.376 257.045C291.706 271.596 305.403 291.369 308.064 310.416C308.294 312.065 308.599 313.638 308.917 315.281C309.031 315.869 309.147 316.466 309.262 317.078C309.67 319.263 310.073 321.687 310.063 323.997C310.054 326.346 309.622 329.006 307.984 331.388C306.31 333.822 303.789 335.372 300.753 336.268C291.84 338.899 283.374 340.095 276.138 339.57C268.974 339.05 262.381 336.777 258.168 331.787C257.555 331.061 256.763 330.184 255.852 329.174C253.047 326.067 249.109 321.705 245.774 316.642C242.909 312.293 241.093 309.883 239.503 307.773C238.904 306.978 238.337 306.225 237.758 305.428C235.585 302.434 233.64 299.309 230.192 292.413C226.39 284.81 224.468 279.194 222.948 274.751C222.917 274.661 222.886 274.571 222.855 274.482C221.313 269.976 220.291 267.139 218.267 264.276C218.185 264.159 218.103 264.043 218.02 263.926C216.004 261.075 213.873 258.063 212.656 254.783C211.27 251.05 211.091 247.134 212.51 242.562C213.978 237.832 216.28 233.631 219.689 230.38C223.133 227.095 227.476 225.001 232.629 224.167C238.003 223.297 243.807 225.628 247.558 227.498C249.579 228.506 251.324 229.548 252.563 230.336C253.185 230.731 253.686 231.067 254.039 231.31C254.216 231.431 254.356 231.529 254.455 231.599C254.505 231.635 254.545 231.663 254.574 231.684L254.61 231.71L254.622 231.719L254.627 231.722L254.629 231.723C254.629 231.724 254.63 231.725 251.881 235.498Z" fill="#868686" stroke="#646464" stroke-width="9.33728"/>
<path d="M67.6274 228.541L63.7872 225.886L63.2743 226.628L63.0746 227.508L67.6274 228.541ZM67.6274 228.541C63.7872 225.886 63.7882 225.885 63.7892 225.883L63.7914 225.88L63.7965 225.873L63.8094 225.854L63.8459 225.803C63.875 225.762 63.9135 225.708 63.9613 225.642C64.0568 225.511 64.1896 225.332 64.3576 225.113C64.6931 224.677 65.173 224.08 65.7822 223.388C66.9883 222.019 68.7614 220.214 70.9818 218.567C75.3204 215.349 82.3611 212.091 90.1815 215.754C114.488 227.141 144.313 232.302 171.585 231.997C199.045 231.69 222.936 225.859 235.904 216.233C239.402 213.637 243.345 213.999 246.365 215.086C249.319 216.15 252.069 218.104 254.266 219.956C256.518 221.854 258.484 223.901 259.869 225.444C260.567 226.222 261.132 226.888 261.526 227.365C261.724 227.604 261.879 227.797 261.989 227.934C262.044 228.002 262.087 228.057 262.118 228.096L262.155 228.144L262.167 228.159L262.171 228.164L262.173 228.167C262.174 228.167 262.174 228.168 258.486 231.031M67.6274 228.541C63.0746 227.508 63.0745 227.508 63.0744 227.509L63.074 227.51L63.0728 227.516L63.0685 227.535L63.0525 227.606C63.0386 227.667 63.0182 227.758 62.9918 227.877C62.939 228.114 62.862 228.462 62.764 228.911C62.5679 229.81 62.2874 231.116 61.9476 232.753C61.268 236.027 60.3498 240.631 59.3929 245.966C57.4864 256.596 55.3973 270.283 54.7717 282.139L54.7657 282.252C53.6662 303.091 52.5925 323.441 63.5577 342.947C66.4092 348.02 72.4865 351.401 78.9782 353.823C85.7351 356.344 94.1102 358.239 102.989 359.658C120.777 362.499 141.311 363.536 156.643 363.536H156.868C176.672 363.536 198.8 363.536 217.468 360.604C226.853 359.131 235.622 356.881 242.911 353.37C250.22 349.85 256.315 344.925 259.848 337.985C270.592 316.882 269.644 302.529 268.185 280.416C268.153 279.937 268.121 279.454 268.089 278.968C267.334 267.479 266.089 255.337 265.036 246.087C264.509 241.458 264.029 237.542 263.68 234.783C263.506 233.403 263.365 232.311 263.267 231.563C263.217 231.189 263.179 230.901 263.153 230.706L263.123 230.483L263.116 230.426L263.114 230.411L263.113 230.407L263.113 230.406C263.113 230.405 263.113 230.405 258.486 231.031M258.486 231.031L262.174 228.168L262.945 229.16L263.113 230.405L258.486 231.031Z" fill="#868686" stroke="#646464" stroke-width="9.33728"/>
<path d="M317.768 142.067C316.798 212.651 288.7 238.835 160.719 244.506C43.4402 238.221 8.79532 208.088 9.76562 137.504C65.3204 185.741 96.4848 202.022 160.721 204.626C228.785 207.386 270.118 197.753 317.768 142.067Z" fill="#868686"/>
<path d="M119.739 222.03C119.739 222.03 160.791 216.775 200.848 222.03C209.441 223.157 218.226 224.053 221.872 229.131C228.832 238.827 217.695 249.87 207.525 256.117C197.581 262.224 181.882 267.456 164.484 267.621C146.443 267.793 131.813 262.65 119.739 256.117C109.148 250.386 97.8124 238.92 104.824 229.131C108.581 223.887 119.739 222.03 119.739 222.03Z" fill="#827D7D"/>
<path d="M83.0938 151.125C83.5222 151.211 83.5217 151.187 84.0615 151.199C84.1657 151.202 84.4836 151.265 84.5929 151.265C84.7123 151.265 84.9046 151.221 85.0178 151.245C85.1131 151.266 85.277 151.186 85.3709 151.199C85.4389 151.209 85.7217 151.255 85.7884 151.265C85.8365 151.272 85.8748 151.248 85.9212 151.245C86.085 151.234 86.1769 151.303 86.3387 151.318C86.4887 151.331 86.9073 151.297 87.0408 151.361C87.116 151.397 86.7424 151.405 86.8277 151.383C86.9467 151.352 87.2023 151.408 87.3255 151.413C87.4757 151.421 87.5248 151.373 87.6741 151.361C87.7339 151.356 87.7956 151.343 87.844 151.377C87.8955 151.413 87.9104 151.446 87.9757 151.413C88.0165 151.393 88.6728 151.358 88.6728 151.413" stroke="#676564" stroke-width="5.91361" stroke-linecap="round"/>
<path d="M246.395 151.503C246.433 151.503 246.464 151.503 246.501 151.521C246.53 151.536 246.613 151.604 246.644 151.566C246.67 151.535 246.657 151.494 246.702 151.482C246.765 151.464 246.869 151.496 246.933 151.509C247.041 151.53 247.139 151.526 247.247 151.518C247.385 151.507 247.514 151.543 247.65 151.501C247.763 151.467 247.934 151.343 248.049 151.39C248.115 151.417 248.184 151.515 248.254 151.515C248.36 151.515 248.485 151.408 248.594 151.39C248.649 151.38 248.888 151.448 248.828 151.34C248.827 151.337 249.061 151.257 249.087 151.249C249.173 151.223 249.259 151.263 249.345 151.273C249.451 151.285 249.547 151.269 249.65 151.243C249.77 151.212 249.9 151.234 250.016 151.279C250.099 151.311 250.119 151.306 250.13 151.17C250.134 151.128 250.131 151.177 250.132 151.187C250.137 151.218 250.195 151.191 250.205 151.189C250.258 151.175 250.373 151.114 250.423 151.127C250.488 151.143 250.526 151.205 250.599 151.217C250.656 151.227 250.711 151.231 250.767 151.231" stroke="#676564" stroke-width="5.91361" stroke-linecap="round"/>
<path d="M109.165 169.088C116.095 167.514 118.968 166.82 124.504 165.959C129.917 164.36 125.423 165.94 129.179 164.606C132.076 163.576 135.06 161.326 137.913 160.177C141.154 158.871 144.821 157.275 148.369 156.241C152.169 155.132 156.87 154.668 161.286 154.642C165.892 154.614 172.549 155.226 178.016 156.241C184.18 157.385 187.355 157.275 192.409 160.177C196.54 162.549 200.925 164.041 205.817 167.435C207.865 168.856 209.79 170.454 212.337 171.249C216.126 172.431 218.634 172.931 222.546 173.565C225.315 174.013 228.396 174.101 230.964 175.294C234.488 176.93 237.31 177.894 237.345 182.315C237.365 184.977 235.867 187.515 233.84 189.164C228.331 193.646 224.719 192.611 218.98 193.022C211.619 193.55 208.446 191.689 201.512 189.164C196.408 187.306 193.831 184.484 188.841 183.427C180.808 181.725 175.584 180.833 168.051 180.284C157.959 179.548 148.492 183.427 142.703 185.663C133.866 186.573 126.595 190.537 116.635 190.537C113.722 191.22 112.126 190.908 109.165 190.537C103.513 189.83 91.2646 187.821 91.3197 180.284C91.3865 171.146 102.667 170.563 109.165 169.088Z" fill="#E7D88A" stroke="#646464" stroke-width="6.63452" stroke-linecap="round"/>
<path d="M166.953 3.82422V14.9491" stroke="#646464" stroke-width="6.63452" stroke-linecap="round"/>
<path d="M157.73 132.39C157.577 131.932 157.426 131.887 157.426 131.332C157.173 130.838 156.923 131.489 156.758 130.933C156.905 130.243 156.449 129.162 156.758 129.02C156.911 128.949 156.924 128.815 156.905 128.661C156.886 128.511 156.791 128.423 156.88 128.271C156.925 128.194 157.004 127.753 156.905 127.753" stroke="#676564" stroke-width="2.80118" stroke-linecap="round"/>
<path d="M162.982 131.372C162.897 131.104 162.813 131.077 162.813 130.752C162.671 130.463 162.532 130.844 162.44 130.519C162.522 130.115 162.268 129.483 162.44 129.399C162.526 129.358 162.533 129.279 162.522 129.189C162.512 129.101 162.458 129.05 162.508 128.961C162.533 128.916 162.577 128.657 162.522 128.657" stroke="#676564" stroke-width="2.80118" stroke-linecap="round"/>
</svg>
