<svg width="440" height="446" viewBox="0 0 440 446" fill="none" xmlns="http://www.w3.org/2000/svg">
<path d="M124.47 288.1L121.721 284.327L121.564 284.441L121.417 284.569L124.47 288.1ZM124.47 288.1C121.417 284.569 121.416 284.569 121.415 284.57L121.412 284.573L121.403 284.581L121.372 284.607L121.261 284.704C121.166 284.788 121.027 284.91 120.848 285.068C120.49 285.386 119.97 285.851 119.311 286.452C117.993 287.653 116.115 289.401 113.85 291.605C109.325 296.01 103.233 302.262 96.9753 309.647C84.6455 324.198 70.9485 343.971 68.288 363.018C67.606 367.9 67.4196 372.133 69.0349 376.066C70.6455 379.987 73.7486 382.876 77.6226 385.89C82.2677 389.502 88.4063 390.47 93.9935 389.641C99.6146 388.806 105.309 386.072 109.232 381.426C111.366 378.899 112.4 375.697 112.923 373.537C113.201 372.39 113.371 371.375 113.473 370.64C113.838 370.089 114.36 369.305 115.012 368.337C116.366 366.327 118.277 363.531 120.503 360.394C124.988 354.074 130.63 346.538 135.528 341.216C138.687 337.783 141.791 334.655 144.771 331.651C145.845 330.57 146.902 329.504 147.94 328.447C151.778 324.536 155.381 320.703 158.084 316.878C158.166 316.761 158.249 316.645 158.332 316.528C160.348 313.678 162.478 310.665 163.696 307.385C165.081 303.652 165.261 299.737 163.842 295.164C162.374 290.434 160.072 286.234 156.662 282.982C153.219 279.698 148.875 277.603 143.723 276.769C138.349 275.899 132.544 278.23 128.793 280.1C126.773 281.108 125.027 282.15 123.789 282.938C123.167 283.333 122.665 283.67 122.312 283.912C122.136 284.033 121.996 284.131 121.896 284.201C121.846 284.237 121.807 284.265 121.777 284.286L121.741 284.312L121.729 284.321L121.725 284.324L121.723 284.325C121.722 284.326 121.721 284.327 124.47 288.1Z" fill="#F7FBF8" stroke="#646464" stroke-width="9.33728"/>
<path d="M301.714 288.1L304.462 284.327L304.62 284.441L304.767 284.569L301.714 288.1ZM301.714 288.1C304.767 284.569 304.768 284.569 304.769 284.57L304.772 284.573L304.781 284.581L304.811 284.607L304.922 284.704C305.018 284.788 305.157 284.91 305.336 285.068C305.694 285.386 306.213 285.851 306.872 286.452C308.19 287.653 310.069 289.401 312.334 291.605C316.859 296.01 322.951 302.262 329.208 309.647C341.538 324.198 355.235 343.971 357.896 363.018C358.578 367.9 358.764 372.133 357.149 376.066C355.538 379.987 352.435 382.876 348.561 385.89C343.916 389.502 337.777 390.47 332.19 389.641C326.569 388.806 320.875 386.072 316.952 381.426C314.818 378.899 313.783 375.697 313.26 373.537C312.983 372.39 312.812 371.375 312.71 370.64C312.345 370.089 311.824 369.305 311.172 368.337C309.818 366.327 307.906 363.531 305.68 360.394C301.196 354.074 295.554 346.538 290.655 341.216C287.497 337.783 284.392 334.655 281.412 331.651C280.339 330.57 279.282 329.504 278.244 328.447C274.406 324.536 270.802 320.703 268.099 316.878C268.017 316.761 267.935 316.645 267.852 316.528C265.836 313.678 263.705 310.665 262.488 307.385C261.102 303.652 260.923 299.737 262.342 295.164C263.81 290.434 266.112 286.234 269.521 282.982C272.965 279.698 277.308 277.603 282.461 276.769C287.835 275.899 293.639 278.23 297.39 280.1C299.411 281.108 301.156 282.15 302.395 282.938C303.017 283.333 303.518 283.67 303.871 283.912C304.048 284.033 304.188 284.131 304.287 284.201C304.337 284.237 304.377 284.265 304.406 284.286L304.442 284.312L304.454 284.321L304.459 284.324L304.461 284.325C304.461 284.326 304.462 284.327 301.714 288.1Z" fill="#F7FBF8" stroke="#646464" stroke-width="9.33728"/>
<path d="M35.8253 224.324C33.9984 225.213 31.4209 226.784 28.7075 227.639C20.5188 231.247 12.9855 238.269 8.80936 250.182C7.14491 254.93 7.28462 256.263 7.47175 260.883C7.62853 264.754 9.33186 267.96 11.1299 270.399C16.8714 278.185 24.5866 280.68 33.7044 280.831C43.8196 277.681 53.2283 272.592 59.5707 264.225C66.996 254.43 75.376 244.512 81.1008 233.128C86.6787 222.037 93.5267 207.177 91.9379 195.847C91.2596 191.009 89.0821 187.843 84.6888 189.248C82.9168 189.815 80.7195 191.719 79.02 192.9C75.2106 195.547 71.7449 199.281 68.1385 202.532C64.1383 206.139 59.955 209.31 55.7745 212.299C49.2357 216.974 42.5619 221.044 35.8253 224.324Z" fill="#C5BC9E" stroke="#646464" stroke-width="7.53923" stroke-linecap="round"/>
<path d="M401.901 225.352C403.926 226.15 406.762 227.602 409.799 228.307C418.898 231.494 427.03 238.239 431.02 250.239C432.611 255.021 432.365 256.402 431.854 261.172C431.426 265.169 429.278 268.58 427.072 271.208C420.026 279.597 411.073 282.664 400.673 283.408C389.349 280.816 378.956 276.182 372.268 267.975C364.438 258.366 355.528 248.693 349.739 237.34C344.098 226.278 337.252 211.416 339.794 199.646C340.879 194.62 343.564 191.219 348.48 192.383C350.463 192.852 352.844 194.671 354.705 195.778C358.875 198.258 362.584 201.88 366.484 204.996C370.81 208.451 375.372 211.448 379.943 214.256C387.093 218.649 394.436 222.409 401.901 225.352Z" fill="#C5BC9E" stroke="#646464" stroke-width="7.53923" stroke-linecap="round"/>
<path d="M116.642 382.181L112.459 380.108L112.094 380.844L112.003 381.66L116.642 382.181ZM116.642 382.181C112.459 380.108 112.46 380.105 112.462 380.102L112.464 380.097L112.47 380.085L112.484 380.058C112.494 380.039 112.505 380.016 112.518 379.991C112.545 379.941 112.577 379.879 112.617 379.806C112.697 379.661 112.804 379.473 112.94 379.248C113.212 378.799 113.602 378.201 114.125 377.509C115.169 376.127 116.757 374.345 119.002 372.618C123.569 369.104 130.625 366 140.742 366.628C152.646 367.366 159.912 370.276 164.335 373.477C166.544 375.076 167.981 376.705 168.899 378.064C169.354 378.74 169.674 379.338 169.896 379.819C170.006 380.059 170.091 380.269 170.157 380.444C170.189 380.532 170.217 380.61 170.24 380.68C170.251 380.715 170.262 380.747 170.271 380.777L170.284 380.82L170.291 380.84L170.293 380.85C170.295 380.855 170.296 380.859 165.819 382.181M116.642 382.181C112.003 381.66 112.003 381.66 112.003 381.661L112.002 381.662L112.002 381.664L112.001 381.675L111.997 381.712L111.981 381.856C111.967 381.982 111.947 382.165 111.922 382.402C111.871 382.876 111.798 383.562 111.711 384.417C111.537 386.126 111.305 388.515 111.072 391.236C110.608 396.641 110.127 403.49 110.106 408.93C110.106 409.043 110.105 409.155 110.105 409.268C110.084 414.504 110.064 419.72 111.404 424.383C112.88 429.516 115.905 433.78 121.367 437.42C122.701 438.31 124.295 438.858 125.719 439.231C127.213 439.623 128.882 439.912 130.588 440.131C134.003 440.57 137.904 440.769 141.517 440.849C145.15 440.929 148.59 440.889 151.115 440.829C152.38 440.799 153.421 440.765 154.149 440.737C154.513 440.723 154.799 440.712 154.996 440.703C155.094 440.699 155.171 440.695 155.223 440.693L155.284 440.69L155.301 440.689L155.306 440.689L155.307 440.689C155.308 440.689 155.308 440.689 155.081 436.026M165.819 382.181C170.439 381.514 170.439 381.515 170.439 381.515L170.44 381.516L170.44 381.518L170.441 381.525L170.445 381.554L170.46 381.662C170.474 381.756 170.493 381.894 170.518 382.072C170.568 382.428 170.64 382.942 170.726 383.584C170.9 384.866 171.136 386.658 171.385 388.7C171.879 392.754 172.441 397.903 172.659 402.007C172.868 405.919 172.986 410.853 173.052 414.771C173.085 416.738 173.105 418.464 173.117 419.699C173.121 420.06 173.123 420.379 173.126 420.65C173.33 421.113 173.578 421.71 173.82 422.387C174.326 423.804 175.068 426.266 174.821 428.714C174.471 432.181 172.265 434.524 170.253 435.956C168.23 437.395 165.832 438.346 163.772 438.986C161.663 439.642 159.618 440.058 158.128 440.31C157.375 440.438 156.745 440.526 156.296 440.584C156.071 440.613 155.89 440.634 155.76 440.648C155.696 440.655 155.644 440.661 155.605 440.665L155.558 440.67L155.542 440.671L155.536 440.672L155.533 440.672C155.532 440.672 155.531 440.673 155.081 436.026M165.819 382.181L170.439 381.514L170.391 381.182L170.296 380.859L165.819 382.181ZM155.081 436.026L155.308 440.689L155.42 440.683L155.531 440.673L155.081 436.026Z" fill="#F7FBF8" stroke="#646464" stroke-width="9.33728"/>
<path d="M308.077 382.181L312.26 380.108L312.625 380.844L312.716 381.66L308.077 382.181ZM308.077 382.181C312.26 380.108 312.258 380.105 312.257 380.102L312.254 380.097L312.249 380.085L312.235 380.058C312.225 380.039 312.214 380.016 312.2 379.991C312.174 379.941 312.141 379.879 312.102 379.806C312.022 379.661 311.915 379.473 311.779 379.248C311.507 378.799 311.117 378.201 310.594 377.509C309.55 376.127 307.962 374.345 305.717 372.618C301.15 369.104 294.094 366 283.977 366.628C272.073 367.366 264.807 370.276 260.384 373.477C258.175 375.076 256.738 376.705 255.82 378.064C255.364 378.74 255.044 379.338 254.823 379.819C254.713 380.059 254.627 380.269 254.562 380.444C254.53 380.532 254.502 380.61 254.479 380.68C254.467 380.715 254.457 380.747 254.448 380.777L254.434 380.82L254.428 380.84L254.425 380.85C254.424 380.855 254.422 380.859 258.9 382.181M308.077 382.181C312.716 381.66 312.716 381.66 312.716 381.661L312.716 381.662L312.717 381.664L312.718 381.675L312.722 381.712L312.738 381.856C312.752 381.982 312.772 382.165 312.797 382.402C312.848 382.876 312.92 383.562 313.007 384.417C313.181 386.126 313.413 388.515 313.647 391.236C314.111 396.641 314.592 403.49 314.613 408.93C314.613 409.043 314.614 409.155 314.614 409.268C314.635 414.504 314.655 419.72 313.315 424.383C311.839 429.516 308.813 433.78 303.352 437.42C302.017 438.31 300.424 438.858 299 439.231C297.506 439.623 295.837 439.912 294.13 440.131C290.716 440.57 286.815 440.769 283.202 440.849C279.569 440.929 276.129 440.889 273.603 440.829C272.338 440.799 271.297 440.765 270.57 440.737C270.205 440.723 269.919 440.712 269.723 440.703C269.624 440.699 269.548 440.695 269.496 440.693L269.435 440.69L269.418 440.689L269.413 440.689L269.412 440.689C269.411 440.689 269.41 440.689 269.638 436.026M258.9 382.181C254.279 381.514 254.279 381.515 254.279 381.515L254.279 381.516L254.279 381.518L254.278 381.525L254.274 381.554L254.258 381.662C254.245 381.756 254.225 381.894 254.2 382.072C254.151 382.428 254.079 382.942 253.992 383.584C253.819 384.866 253.583 386.658 253.334 388.7C252.839 392.754 252.278 397.903 252.059 402.007C251.851 405.919 251.733 410.853 251.667 414.771C251.634 416.738 251.614 418.464 251.602 419.699C251.598 420.06 251.595 420.379 251.593 420.65C251.388 421.113 251.141 421.71 250.899 422.387C250.393 423.804 249.651 426.266 249.898 428.714C250.248 432.181 252.454 434.524 254.466 435.956C256.489 437.395 258.887 438.346 260.946 438.986C263.056 439.642 265.1 440.058 266.591 440.31C267.344 440.438 267.973 440.526 268.423 440.584C268.648 440.613 268.829 440.634 268.958 440.648C269.023 440.655 269.075 440.661 269.114 440.665L269.161 440.67L269.177 440.671L269.183 440.672L269.185 440.672C269.187 440.672 269.188 440.673 269.638 436.026M258.9 382.181L254.279 381.514L254.327 381.182L254.422 380.859L258.9 382.181ZM269.638 436.026L269.41 440.689L269.299 440.683L269.188 440.673L269.638 436.026Z" fill="#F7FBF8" stroke="#646464" stroke-width="9.33728"/>
<path d="M119.127 280.259L115.287 277.604L114.774 278.346L114.575 279.226L119.127 280.259ZM119.127 280.259C115.287 277.604 115.288 277.603 115.289 277.601L115.291 277.598L115.296 277.591L115.309 277.572L115.346 277.521C115.375 277.48 115.414 277.426 115.461 277.36C115.557 277.229 115.69 277.05 115.858 276.831C116.193 276.395 116.673 275.798 117.282 275.106C118.488 273.737 120.261 271.932 122.482 270.285C126.82 267.067 133.861 263.809 141.682 267.472C165.988 278.859 195.813 284.02 223.085 283.715C250.545 283.408 274.436 277.577 287.404 267.951C290.902 265.355 294.845 265.717 297.865 266.804C300.819 267.868 303.569 269.822 305.766 271.674C308.018 273.572 309.984 275.619 311.369 277.162C312.067 277.94 312.632 278.606 313.026 279.083C313.224 279.322 313.379 279.515 313.489 279.652C313.544 279.72 313.587 279.775 313.618 279.814L313.655 279.862L313.667 279.877L313.671 279.882L313.673 279.885C313.674 279.885 313.674 279.886 309.986 282.749M119.127 280.259C114.575 279.226 114.574 279.226 114.574 279.227L114.574 279.228L114.573 279.234L114.569 279.253L114.552 279.324C114.539 279.386 114.518 279.476 114.492 279.595C114.439 279.832 114.362 280.18 114.264 280.629C114.068 281.528 113.787 282.834 113.448 284.471C112.768 287.745 111.85 292.349 110.893 297.684C108.986 308.314 106.897 322.001 106.272 333.857L106.266 333.97C105.166 354.809 104.092 375.159 115.058 394.665C117.909 399.738 123.986 403.119 130.478 405.541C137.235 408.062 145.61 409.957 154.489 411.376C172.277 414.217 192.811 415.254 208.143 415.254H208.368C228.172 415.254 250.3 415.254 268.968 412.322C278.353 410.849 287.122 408.599 294.411 405.088C301.72 401.568 307.815 396.643 311.348 389.703C322.092 368.6 321.144 354.247 319.685 332.134C319.653 331.655 319.621 331.172 319.589 330.686C318.834 319.197 317.589 307.055 316.536 297.805C316.009 293.176 315.529 289.26 315.18 286.501C315.006 285.121 314.865 284.029 314.767 283.281C314.717 282.907 314.679 282.619 314.653 282.424L314.623 282.201L314.616 282.144L314.614 282.129L314.613 282.125L314.613 282.124C314.613 282.123 314.613 282.123 309.986 282.749M309.986 282.749L313.674 279.886L314.445 280.878L314.613 282.123L309.986 282.749Z" fill="#F7FBF8" stroke="#646464" stroke-width="9.33728"/>
<path d="M72.0718 105.805C74.0506 90.0541 72.3759 81.2533 85.6657 76.5739C90.3779 74.9148 102.081 72.2502 105.792 76.5739C106.718 77.6537 106.899 79.1852 107.571 76.6164C107.571 63.0445 103.609 58.4456 117.406 47.5891C131.203 36.7326 149.025 51.3048 149.259 49.4477C150.667 38.2371 162.452 31.4245 170.066 30.632C176.264 29.9868 181.106 33.2716 186.344 36.8255L186.483 36.9202C189.771 39.1502 190.335 40.6946 192.608 44.6317C193.301 45.832 195.53 42.8153 195.557 41.9236C195.633 39.4207 196.813 37.0804 198.053 35.1743C207.011 21.4018 235.607 23.4291 240.281 40.0817C241.681 45.0693 241.542 40.1211 244.575 37.965C250.37 30.7483 258.228 22.4 278.118 31.7962C284.015 36.5448 288.412 43.2952 291.294 51.501C291.894 53.2112 289.952 57.7974 290.719 56.0769C291.269 54.8418 293.185 53.6173 293.532 52.2651C294.119 49.9722 298.578 49.0761 299.919 48.7815C314.717 45.5306 326.123 57.4462 322.154 76.5181C322.442 79.1225 327.059 75.4099 328.858 73.7868C335.559 67.7421 347.841 67.9978 354.581 72.3099C365.296 80.234 364.192 86.0147 362.784 97.2213C362.485 99.6057 361.541 101.819 360.958 102.908C361.047 103.151 361.245 103.311 361.646 103.139C372.372 98.5372 393.372 108.042 393.643 122.454C396.039 131.952 395.153 136.181 394.127 137.856C399.442 137.145 417.834 153.991 415.313 170.85C412.709 188.267 415.313 190.231 393.643 202.671C390.795 210.573 405.071 206.718 402.087 232.526C401.53 261.944 383.243 258.494 381.177 258.989C379.723 259.338 385.114 259.119 385.199 272.183C385.213 274.294 386.17 273.088 385.199 278.139C384.229 283.19 381.177 286.966 380.299 287.864C374.849 293.443 365.371 294.197 355.646 290.126C353.996 287.355 353.634 287.075 352.931 290.955C352.931 297.138 352.233 306.562 346.805 309.862C340.078 313.952 335.27 315.14 324.715 312.953C321.467 312.281 312.757 307.655 311.849 303.33C310.942 299.006 306.84 316.501 305.945 318.67C302.235 327.659 294.78 326.9 287.147 325.168C283.093 324.248 276.516 317.446 273.639 313.933C272.526 312.575 268.717 305.041 269.974 302.668C270.22 302.203 268.915 302.545 268.736 303.055C268.303 304.285 268.317 306.026 268.153 307.328C267.381 313.478 264.477 324.187 256.664 325.926C248.569 327.127 244.498 325.926 237.063 320.204C234.45 318.444 232.226 316.025 230.465 312.976C230.086 312.32 226.248 303.626 225.939 303.836C224.684 304.687 223.054 315.148 222.204 317.009C219.772 322.333 217.809 325.544 211.939 329.543C205.013 332.872 193.13 334.582 183.053 315.668C182.419 315.003 180.828 309.685 179.585 311.295C178.126 313.183 177.835 315.639 177.398 318.231C174.911 333.008 163.471 338.898 156.289 337.079C146.444 334.586 139.702 325.926 142.643 297.59C132.766 323.131 106.706 320.708 99.8198 313.09C93.3918 305.978 96.378 292.265 95.2405 292.463C88.9162 298.052 83.4203 298.277 81.6306 298.026C69.794 296.367 68.532 293.125 66.6472 288.241C62.9122 278.563 75.0354 262.231 69.4028 265.917C61.9844 270.77 50.6083 263.06 47.2156 258.16C42.9766 250.771 43.5977 251.717 42.9766 246.016C42.5523 242.122 41.8849 233.493 45.2199 226.921C55.9338 205.808 34.4337 210.761 33.4703 210.64C25.5983 209.651 15.4194 185.195 25.2252 170.327C33.3178 152.88 41.7355 157.045 46.0094 153.433C50.2292 149.866 50.6538 147.15 47.1415 144.421C43.0289 141.225 39.4077 136.354 39.978 129.465C40.9141 118.157 45.0587 109.852 55.1989 106.757C60.0378 105.281 65.9883 105.805 72.0718 105.805Z" fill="#F7FBF8"/>
<path d="M72.0718 105.805C74.0506 90.0541 72.3759 81.2533 85.6657 76.5739C90.3779 74.9148 102.081 72.2502 105.792 76.5739C106.718 77.6537 106.899 79.1852 107.571 76.6164C107.571 63.0445 103.609 58.4456 117.406 47.5891C131.203 36.7326 149.025 51.3048 149.259 49.4477C150.667 38.2371 162.452 31.4245 170.066 30.632C176.319 29.9811 181.191 33.3302 186.483 36.9202C189.771 39.1502 190.335 40.6946 192.608 44.6317C193.301 45.832 195.53 42.8153 195.557 41.9236C195.633 39.4207 196.813 37.0804 198.053 35.1743C207.011 21.4018 235.607 23.4291 240.281 40.0817C241.681 45.0693 241.542 40.1211 244.575 37.965C250.37 30.7483 258.228 22.4 278.118 31.7962C284.015 36.5448 288.412 43.2952 291.294 51.501C291.894 53.2112 289.952 57.7974 290.719 56.0769C291.269 54.8418 293.185 53.6173 293.532 52.2651C294.119 49.9722 298.578 49.0761 299.919 48.7815C314.717 45.5306 326.123 57.4462 322.154 76.5181C322.442 79.1225 327.059 75.4099 328.858 73.7868C335.559 67.7421 347.841 67.9978 354.581 72.3099C365.296 80.234 364.192 86.0147 362.784 97.2213C362.223 101.69 359.399 105.557 360.923 102.55C361.114 101.031 360.406 103.671 361.646 103.139C372.372 98.5372 393.372 108.042 393.643 122.454C398.376 141.215 390.302 139.418 393.643 137.985C398.2 136.029 417.917 153.433 415.313 170.85C412.709 188.267 415.313 190.231 393.643 202.671C390.795 210.573 405.071 206.718 402.087 232.526C401.53 261.944 383.243 258.494 381.177 258.989C379.723 259.338 385.114 259.119 385.199 272.183C385.213 274.294 386.17 273.088 385.199 278.139C384.229 283.19 381.177 286.966 380.299 287.864C374.849 293.443 365.371 294.197 355.646 290.126C353.996 287.355 353.634 287.075 352.931 290.955C352.931 297.138 352.233 306.562 346.805 309.862C340.078 313.952 335.27 315.14 324.715 312.953C321.467 312.281 312.757 307.655 311.849 303.33C310.942 299.006 306.84 316.501 305.945 318.67C302.235 327.659 294.78 326.9 287.147 325.168C283.093 324.248 276.516 317.446 273.639 313.933C272.526 312.575 268.717 305.041 269.974 302.668C270.22 302.203 268.915 302.545 268.736 303.055C268.303 304.285 268.317 306.026 268.153 307.328C267.381 313.478 264.477 324.187 256.664 325.926C248.569 327.127 244.498 325.926 237.063 320.204C234.45 318.444 232.226 316.025 230.465 312.976C230.086 312.32 226.248 303.626 225.939 303.836C224.684 304.687 223.054 315.148 222.204 317.009C219.772 322.333 217.809 325.544 211.939 329.543C205.012 332.872 193.13 334.582 183.053 315.668C182.419 315.003 180.828 309.685 179.585 311.295C178.126 313.183 177.835 315.639 177.398 318.231C174.911 333.008 163.471 338.898 156.289 337.079C146.444 334.586 139.702 325.926 142.643 297.59C132.766 323.131 106.706 320.708 99.8198 313.09C93.3918 305.978 96.378 292.265 95.2405 292.463C88.9162 298.052 83.4203 298.277 81.6306 298.026C69.794 296.367 68.532 293.125 66.6472 288.241C62.9122 278.563 75.0354 262.231 69.4028 265.917C61.9844 270.77 50.6083 263.06 47.2156 258.16C42.9766 250.771 43.5977 251.717 42.9766 246.016C42.5523 242.122 41.8849 233.493 45.2199 226.921C55.9338 205.808 34.4337 210.761 33.4703 210.64C25.5983 209.651 15.4194 185.195 25.2252 170.327C33.3178 152.88 41.7355 157.045 46.0094 153.433C50.2292 149.866 50.6538 147.15 47.1415 144.421C43.0289 141.225 39.4077 136.354 39.978 129.465C40.9141 118.157 45.0587 109.852 55.1989 106.757C60.0378 105.281 65.9883 105.805 72.0718 105.805Z" stroke="#646464" stroke-width="9.46385" stroke-linecap="round"/>
<path d="M217.114 300.34L217.341 300.352L217.569 300.342C245.554 299.107 267.636 297.528 284.99 294.864C302.295 292.207 315.334 288.413 324.967 282.482C344.975 270.161 348.674 249.694 349.096 218.983C349.551 185.858 327.711 161.575 301.352 145.506C274.956 129.416 243.017 120.87 220.772 119.426C188.813 117.351 155.856 125.926 130.669 143.075C105.422 160.266 87.7541 186.277 87.3063 218.855C87.092 234.443 88.4145 247.284 92.4393 257.758C96.5378 268.423 103.351 276.407 113.575 282.34C123.626 288.174 136.837 291.947 153.68 294.63C170.56 297.32 191.466 298.969 217.114 300.34Z" fill="#F7FBF8" stroke="#646464" stroke-width="9.33728"/>
<path d="M158.823 223.87C153.033 223.87 148.207 220.393 148.207 227.543C148.207 230.405 155.266 238.012 157.172 232.816C160.607 223.448 147.264 221.126 147.264 227.069C147.264 230.88 154.062 233.765 156.641 230.743C160.846 225.815 149.195 221.908 148.207 224.344C146.289 229.074 158.363 238.672 159.649 228.017C160.189 223.541 154.069 224.895 151.274 224.936C134.527 225.184 157.762 243.554 157.762 230.269" stroke="#646464" stroke-width="3.76962" stroke-linecap="round"/>
<path d="M285.32 223.87C279.47 223.87 274.594 220.393 274.594 227.543C274.594 230.405 281.727 238.012 283.652 232.816C287.123 223.448 273.641 221.126 273.641 227.069C273.641 230.88 280.51 233.765 283.116 230.743C287.364 225.815 275.592 221.908 274.594 224.344C272.656 229.074 284.856 238.672 286.155 228.017C286.7 223.541 280.516 224.895 277.693 224.936C260.772 225.184 284.248 243.554 284.248 230.269" stroke="#646464" stroke-width="3.76962" stroke-linecap="round"/>
<path d="M89.7229 182.807C88.6097 188.523 84.1921 196.784 82.1802 202.187C82.717 207.674 81.8767 213.533 78.7727 218.16C73.9934 225.285 65.4046 229.573 57.2273 231.399C44.8277 234.169 31.8488 229.673 22.0518 222.029C13.1924 215.116 10.5739 201.425 10.4272 190.864C10.254 178.39 14.2638 166.638 23.9508 158.351C35.1195 148.796 49.0614 144.089 63.6519 146.957C74.9375 149.176 85.4076 156.543 89.8116 167.509C91.7089 172.233 90.6528 178.032 89.7229 182.807Z" fill="#E3DCB8"/>
<path d="M82.1802 202.187C84.1921 196.784 88.6097 188.523 89.7229 182.807C90.6528 178.032 91.7089 172.233 89.8116 167.509C85.4076 156.543 74.9375 149.176 63.6519 146.957C49.0614 144.089 35.1195 148.796 23.9508 158.351C14.2638 166.638 10.254 178.39 10.4272 190.864C10.5739 201.425 13.1924 215.116 22.0518 222.029C31.8488 229.673 44.8277 234.169 57.2273 231.399C65.4046 229.573 73.9934 225.285 78.7727 218.16C81.8767 213.533 82.717 207.674 82.1802 202.187ZM82.1802 202.187C81.3803 194.01 73.8557 187.049 66.598 184.156C62.8417 182.658 56.6638 182.204 53.3229 184.724C50.4722 186.873 48.5099 188.763 48.0341 192.213C47.6079 195.303 46.6038 200.617 50.785 201.903C52.1351 202.319 53.0399 203.181 54.5297 203.181C55.9968 203.181 57.4639 203.181 58.931 203.181" stroke="#646464" stroke-width="8.29315" stroke-linecap="round"/>
<path d="M341.336 182.807C342.449 188.523 346.867 196.784 348.878 202.187C348.342 207.674 349.182 213.533 352.286 218.16C357.065 225.285 365.654 229.573 373.831 231.399C386.231 234.169 399.21 229.673 409.007 222.029C417.866 215.116 420.485 201.425 420.631 190.864C420.805 178.39 416.795 166.638 407.108 158.351C395.939 148.796 381.997 144.089 367.407 146.957C356.121 149.176 345.651 156.543 341.247 167.509C339.35 172.233 340.406 178.032 341.336 182.807Z" fill="#E3DCB8"/>
<path d="M348.878 202.187C346.867 196.784 342.449 188.523 341.336 182.807C340.406 178.032 339.35 172.233 341.247 167.509C345.651 156.543 356.121 149.176 367.407 146.957C381.997 144.089 395.939 148.796 407.108 158.351C416.795 166.638 420.805 178.39 420.631 190.864C420.485 201.425 417.866 215.116 409.007 222.029C399.21 229.673 386.231 234.169 373.831 231.399C365.654 229.573 357.065 225.285 352.286 218.16C349.182 213.533 348.342 207.674 348.878 202.187ZM348.878 202.187C349.678 194.01 357.203 187.049 364.461 184.156C368.217 182.658 374.395 182.204 377.736 184.724C380.586 186.873 382.549 188.763 383.024 192.213C383.451 195.303 384.455 200.617 380.274 201.903C378.923 202.319 378.019 203.181 376.529 203.181C375.062 203.181 373.595 203.181 372.128 203.181" stroke="#646464" stroke-width="8.29315" stroke-linecap="round"/>
<path d="M228.032 98.9294C215.579 101.318 205.153 106.355 199.69 119.103C195.139 129.723 192.749 142.232 195.135 153.363C196.38 159.173 201.329 167.396 207.362 169.821C216.169 173.36 221.515 171.015 226.121 168.366C229.172 166.611 231.076 163.058 232.303 159.771C233.355 156.952 234.596 155.097 232.303 149.292C230.01 143.486 222.869 144.603 219.562 145.673C214.404 147.341 212.575 154.046 217.164 157.106" stroke="#646464" stroke-width="6.03139" stroke-linecap="round"/>
<path d="M206.727 249.292C208.049 249.292 211.847 251.221 212.683 250.157C213.158 249.552 213.86 249.156 214.496 248.752C215.281 248.254 215.324 247.849 215.853 247.299C216.339 246.793 216.461 246.205 216.838 245.786C217.206 245.377 217.521 245.945 217.822 246.29C218.377 246.924 219.078 247.09 219.768 247.563C220.974 248.39 222.476 249.033 223.863 249.592C225.098 250.091 225.976 250.204 227.309 250.157C228.437 250.117 229.114 249.339 230.071 248.86" stroke="#676564" stroke-width="4.97988" stroke-linecap="round"/>
<path d="M217.309 241.163C216.713 241.203 214.485 241.203 215.044 239.977C215.438 239.113 217.933 239.425 217.74 240.489C217.532 241.63 215.487 241.275 214.748 241.217C213.608 241.127 212.79 241.301 212.713 239.923C212.567 237.297 215.654 238.326 217.376 238.71C218.082 238.868 220.817 239.272 220.974 240.516C221.046 241.083 220.119 241.665 219.68 241.783C218.739 242.037 218.025 241.348 217.147 241.217C216.73 241.155 213.665 241.431 214.115 240.449C214.753 239.051 216.751 237.931 218.158 238.616C218.698 238.879 219.327 238.929 218.872 239.384C218.231 240.025 217.942 240.981 217.43 241.716C216.308 243.325 214.099 241.07 213.266 240.112C211.97 238.622 212.721 237.729 214.398 237.821C215.499 237.881 219.335 237.556 219.923 238.683C220.117 239.055 220.811 241.671 220.475 241.891C219.7 242.398 217.914 241.405 217.335 241.082C216.706 240.731 215.797 240.088 215.341 239.465C214.059 237.712 215.728 239.818 215.368 238.737" stroke="#EE8E7E" stroke-width="2.48994" stroke-linecap="round"/>
</svg>
