<svg width="537" height="405" viewBox="0 0 537 405" fill="none" xmlns="http://www.w3.org/2000/svg">
<path d="M418.263 278.795C446.418 311.588 502.532 281.564 503.579 218.517C505.08 128.11 417.41 34.288 371.188 27.3199C354.107 24.745 331.135 47.8896 337.38 67.3538C367.281 160.546 387.293 242.723 418.263 278.795Z" fill="#F3F3F3" stroke="#676564" stroke-width="9.04708"/>
<path d="M118.139 278.795C89.9843 311.588 33.8704 281.564 32.8236 218.517C31.3225 128.11 118.992 34.288 165.214 27.3199C182.295 24.745 202.416 45.1755 196.171 64.6396C166.27 157.832 149.109 242.723 118.139 278.795Z" fill="#CEBBAD" stroke="#676564" stroke-width="9.04708"/>
<path d="M266.96 259.402L267.187 259.414L267.415 259.404C331.369 256.582 371.656 248.663 396.02 231.791C421.025 214.475 428.431 188.423 428.922 152.695C429.94 78.6289 358.403 27.6306 272.098 26.4442C185.799 25.2579 112.72 74.2629 111.702 148.334C111.208 184.311 119.819 211.116 144.685 229.367C169.044 247.246 208.222 256.262 266.96 259.402Z" fill="#F3F3F3" stroke="#646464" stroke-width="9.33728"/>
<path d="M171.623 341.027L167.44 338.954L167.075 339.69L166.983 340.506L171.623 341.027ZM171.623 341.027C167.44 338.954 167.441 338.951 167.442 338.948L167.445 338.943L167.451 338.931L167.464 338.904C167.474 338.885 167.486 338.862 167.499 338.837C167.525 338.787 167.558 338.725 167.598 338.652C167.677 338.507 167.784 338.319 167.92 338.094C168.192 337.645 168.583 337.047 169.106 336.355C170.15 334.973 171.737 333.191 173.983 331.464C178.549 327.95 185.605 324.846 195.722 325.473C207.626 326.212 214.892 329.122 219.315 332.323C221.524 333.922 222.962 335.551 223.879 336.91C224.335 337.586 224.655 338.184 224.876 338.665C224.986 338.905 225.072 339.115 225.137 339.29C225.17 339.378 225.197 339.456 225.22 339.526C225.232 339.561 225.242 339.593 225.252 339.623L225.265 339.666L225.271 339.686L225.274 339.696C225.275 339.701 225.277 339.705 220.799 341.027M171.623 341.027C166.983 340.506 166.983 340.506 166.983 340.507L166.983 340.507L166.983 340.51L166.982 340.52L166.977 340.558L166.961 340.702C166.948 340.827 166.928 341.011 166.902 341.248C166.851 341.722 166.779 342.408 166.692 343.263C166.518 344.972 166.286 347.361 166.052 350.081C165.588 355.487 165.107 362.336 165.087 367.776C165.086 367.889 165.086 368.001 165.085 368.114C165.065 373.35 165.044 378.566 166.385 383.228C167.86 388.362 170.886 392.626 176.347 396.266C177.682 397.156 179.275 397.704 180.699 398.077C182.193 398.469 183.863 398.758 185.569 398.977C188.984 399.416 192.884 399.615 196.497 399.695C200.13 399.775 203.57 399.735 206.096 399.675C207.361 399.645 208.402 399.611 209.13 399.583C209.494 399.569 209.78 399.557 209.977 399.549C210.075 399.545 210.151 399.541 210.204 399.539L210.264 399.536L210.281 399.535L210.286 399.535L210.288 399.535C210.288 399.535 210.289 399.535 210.061 394.872M220.799 341.027C225.42 340.36 225.42 340.361 225.42 340.361L225.42 340.361L225.42 340.364L225.421 340.371L225.426 340.4L225.441 340.508C225.454 340.602 225.474 340.74 225.499 340.918C225.549 341.274 225.62 341.788 225.707 342.43C225.88 343.712 226.116 345.504 226.365 347.546C226.86 351.6 227.421 356.749 227.64 360.853C227.848 364.765 227.966 369.698 228.032 373.617C228.065 375.584 228.085 377.31 228.097 378.545C228.101 378.906 228.104 379.225 228.106 379.496C228.311 379.959 228.558 380.556 228.8 381.233C229.306 382.65 230.049 385.112 229.802 387.559C229.451 391.027 227.245 393.37 225.233 394.802C223.211 396.241 220.812 397.192 218.753 397.832C216.643 398.488 214.599 398.904 213.108 399.156C212.356 399.284 211.726 399.372 211.276 399.43C211.051 399.459 210.871 399.48 210.741 399.494C210.676 399.501 210.624 399.507 210.585 399.511L210.538 399.516L210.522 399.517L210.516 399.518L210.514 399.518C210.513 399.518 210.512 399.518 210.061 394.872M220.799 341.027L225.42 340.36L225.372 340.028L225.277 339.705L220.799 341.027ZM210.061 394.872L210.289 399.535L210.4 399.529L210.512 399.518L210.061 394.872Z" fill="#F3F3F3" stroke="#646464" stroke-width="9.33728"/>
<path d="M363.061 341.027L367.244 338.954L367.609 339.69L367.7 340.506L363.061 341.027ZM363.061 341.027C367.244 338.954 367.243 338.951 367.242 338.948L367.239 338.943L367.233 338.931L367.219 338.904C367.209 338.885 367.198 338.862 367.185 338.837C367.159 338.787 367.126 338.725 367.086 338.652C367.006 338.507 366.9 338.319 366.763 338.094C366.491 337.645 366.101 337.047 365.578 336.355C364.534 334.973 362.946 333.191 360.701 331.464C356.134 327.95 349.078 324.846 338.962 325.473C327.057 326.212 319.792 329.122 315.368 332.323C313.159 333.922 311.722 335.551 310.805 336.91C310.349 337.586 310.029 338.184 309.808 338.665C309.697 338.905 309.612 339.115 309.547 339.29C309.514 339.378 309.486 339.456 309.463 339.526C309.452 339.561 309.441 339.593 309.432 339.623L309.419 339.666L309.413 339.686L309.41 339.696C309.408 339.701 309.407 339.705 313.885 341.027M363.061 341.027C367.7 340.506 367.701 340.506 367.701 340.507L367.701 340.507L367.701 340.51L367.702 340.52L367.706 340.558L367.722 340.702C367.736 340.827 367.756 341.011 367.781 341.248C367.832 341.722 367.905 342.408 367.992 343.263C368.166 344.972 368.398 347.361 368.631 350.081C369.095 355.487 369.576 362.336 369.597 367.776C369.597 367.889 369.598 368.001 369.598 368.114C369.619 373.35 369.639 378.566 368.299 383.228C366.823 388.362 363.798 392.626 358.336 396.266C357.002 397.156 355.409 397.704 353.984 398.077C352.49 398.469 350.821 398.758 349.115 398.977C345.7 399.416 341.8 399.615 338.186 399.695C334.553 399.775 331.113 399.735 328.588 399.675C327.323 399.645 326.282 399.611 325.554 399.583C325.19 399.569 324.904 399.557 324.707 399.549C324.609 399.545 324.532 399.541 324.48 399.539L324.419 399.536L324.402 399.535L324.397 399.535L324.396 399.535C324.395 399.535 324.395 399.535 324.622 394.872M313.885 341.027C309.264 340.36 309.264 340.361 309.264 340.361L309.264 340.361L309.263 340.364L309.262 340.371L309.258 340.4L309.243 340.508C309.229 340.602 309.21 340.74 309.185 340.918C309.135 341.274 309.064 341.788 308.977 342.43C308.803 343.712 308.567 345.504 308.318 347.546C307.824 351.6 307.263 356.749 307.044 360.853C306.835 364.765 306.717 369.698 306.651 373.617C306.618 375.584 306.598 377.31 306.586 378.545C306.583 378.906 306.58 379.225 306.578 379.496C306.373 379.959 306.125 380.556 305.883 381.233C305.378 382.65 304.635 385.112 304.882 387.559C305.232 391.027 307.438 393.37 309.451 394.802C311.473 396.241 313.872 397.192 315.931 397.832C318.041 398.488 320.085 398.904 321.575 399.156C322.328 399.284 322.958 399.372 323.407 399.43C323.632 399.459 323.813 399.48 323.943 399.494C324.008 399.501 324.06 399.507 324.098 399.511L324.146 399.516L324.161 399.517L324.167 399.518L324.17 399.518C324.171 399.518 324.172 399.518 324.622 394.872M313.885 341.027L309.264 340.36L309.312 340.028L309.407 339.705L313.885 341.027ZM324.622 394.872L324.395 399.535L324.283 399.529L324.172 399.518L324.622 394.872Z" fill="#F3F3F3" stroke="#646464" stroke-width="9.33728"/>
<path d="M179.677 233.442L176.928 229.668L176.771 229.783L176.624 229.91L179.677 233.442ZM179.677 233.442C176.624 229.91 176.623 229.911 176.622 229.912L176.619 229.914L176.61 229.922L176.579 229.949L176.468 230.046C176.373 230.129 176.234 230.251 176.055 230.41C175.697 230.727 175.177 231.192 174.518 231.793C173.2 232.995 171.322 234.742 169.057 236.947C164.532 241.352 158.44 247.604 152.182 254.989C139.853 269.539 126.156 289.313 123.495 308.359C122.813 313.241 122.627 317.475 124.242 321.407C125.853 325.329 128.956 328.218 132.83 331.231C137.475 334.844 143.613 335.812 149.201 334.982C154.822 334.148 160.516 331.414 164.439 326.767C166.573 324.24 167.608 321.039 168.13 318.879C168.408 317.732 168.578 316.716 168.68 315.982C169.045 315.43 169.567 314.646 170.219 313.679C171.573 311.668 173.484 308.873 175.711 305.736C180.195 299.416 185.837 291.88 190.735 286.557C193.894 283.125 196.998 279.996 199.978 276.993C201.052 275.911 202.109 274.846 203.147 273.788C206.985 269.878 210.588 266.044 213.291 262.219C213.373 262.103 213.456 261.986 213.539 261.869C215.555 259.019 217.686 256.006 218.903 252.726C220.288 248.993 220.468 245.078 219.049 240.506C217.581 235.776 215.279 231.575 211.869 228.323C208.426 225.039 204.082 222.944 198.93 222.11C193.556 221.241 187.752 223.571 184 225.442C181.98 226.45 180.234 227.492 178.996 228.279C178.374 228.675 177.872 229.011 177.519 229.253C177.343 229.374 177.203 229.472 177.103 229.543C177.053 229.578 177.014 229.607 176.984 229.628L176.948 229.654L176.936 229.662L176.932 229.666L176.93 229.667C176.929 229.668 176.928 229.668 179.677 233.442Z" fill="#F3F3F3" stroke="#646464" stroke-width="9.33728"/>
<path d="M356.921 233.442L359.669 229.668L359.827 229.783L359.974 229.91L356.921 233.442ZM356.921 233.442C359.974 229.91 359.975 229.911 359.976 229.912L359.979 229.914L359.988 229.922L360.018 229.949L360.129 230.046C360.225 230.129 360.364 230.251 360.543 230.41C360.901 230.727 361.42 231.192 362.079 231.793C363.397 232.995 365.276 234.742 367.541 236.947C372.066 241.352 378.158 247.604 384.415 254.989C396.745 269.539 410.442 289.313 413.103 308.359C413.785 313.241 413.971 317.475 412.356 321.407C410.745 325.329 407.642 328.218 403.768 331.231C399.123 334.844 392.984 335.812 387.397 334.982C381.776 334.148 376.082 331.414 372.159 326.767C370.025 324.24 368.99 321.039 368.467 318.879C368.19 317.732 368.019 316.716 367.917 315.982C367.552 315.43 367.031 314.646 366.379 313.679C365.025 311.668 363.113 308.873 360.887 305.736C356.403 299.416 350.761 291.88 345.863 286.557C342.704 283.125 339.599 279.996 336.619 276.993C335.546 275.911 334.489 274.846 333.451 273.788C329.613 269.878 326.009 266.044 323.306 262.219C323.224 262.103 323.142 261.986 323.059 261.869C321.043 259.019 318.912 256.006 317.695 252.726C316.31 248.993 316.13 245.078 317.549 240.506C319.017 235.776 321.319 231.575 324.728 228.323C328.172 225.039 332.515 222.944 337.668 222.11C343.042 221.241 348.846 223.571 352.597 225.442C354.618 226.45 356.363 227.492 357.602 228.279C358.224 228.675 358.725 229.011 359.078 229.253C359.255 229.374 359.395 229.472 359.494 229.543C359.544 229.578 359.584 229.607 359.613 229.628L359.649 229.654L359.661 229.662L359.666 229.666L359.668 229.667C359.668 229.668 359.669 229.668 356.921 233.442Z" fill="#CEBBAD" stroke="#646464" stroke-width="9.33728"/>
<path d="M174.108 239.107L170.268 236.452L169.755 237.193L169.555 238.073L174.108 239.107ZM174.108 239.107C170.268 236.452 170.269 236.45 170.27 236.449L170.272 236.445L170.277 236.438L170.29 236.42L170.326 236.368C170.355 236.327 170.394 236.273 170.442 236.207C170.537 236.076 170.67 235.897 170.838 235.679C171.174 235.243 171.653 234.645 172.263 233.954C173.469 232.585 175.242 230.779 177.462 229.132C181.801 225.915 188.842 222.656 196.662 226.32C220.969 237.706 250.794 242.868 278.066 242.562C305.525 242.255 329.416 236.425 342.385 226.799C345.882 224.203 349.825 224.565 352.845 225.652C355.8 226.715 358.55 228.669 360.746 230.521C362.998 232.42 364.965 234.466 366.349 236.009C367.047 236.787 367.612 237.453 368.007 237.931C368.204 238.17 368.36 238.362 368.469 238.499C368.524 238.567 368.567 238.622 368.598 238.661L368.636 238.709L368.648 238.724L368.652 238.73L368.653 238.732C368.654 238.733 368.655 238.734 364.967 241.597M174.108 239.107C169.555 238.073 169.555 238.073 169.555 238.074L169.554 238.076L169.553 238.081L169.549 238.1L169.533 238.171C169.519 238.233 169.499 238.324 169.472 238.442C169.419 238.679 169.342 239.027 169.244 239.477C169.048 240.376 168.768 241.681 168.428 243.319C167.748 246.592 166.83 251.197 165.873 256.532C163.967 267.161 161.878 280.848 161.252 292.704L161.246 292.817C160.147 313.656 159.073 334.006 170.038 353.513C172.89 358.585 178.967 361.967 185.459 364.388C192.216 366.909 200.591 368.805 209.469 370.223C227.257 373.064 247.792 374.101 263.123 374.101H263.348C283.152 374.101 305.28 374.101 323.948 371.17C333.334 369.696 342.103 367.446 349.392 363.936C356.7 360.416 362.796 355.49 366.328 348.551C377.072 327.447 376.125 313.094 374.665 290.982C374.634 290.502 374.602 290.02 374.57 289.533C373.814 278.045 372.569 265.902 371.516 256.653C370.989 252.023 370.509 248.108 370.161 245.348C369.987 243.968 369.845 242.877 369.747 242.129C369.698 241.755 369.66 241.467 369.634 241.271L369.604 241.049L369.596 240.991L369.594 240.976L369.594 240.972L369.593 240.971C369.593 240.971 369.593 240.971 364.967 241.597M364.967 241.597L368.655 238.734L369.425 239.726L369.593 240.971L364.967 241.597Z" fill="#F3F3F3" stroke="#646464" stroke-width="9.33728"/>
<path d="M424.253 152.632C423.282 223.216 395.184 249.4 267.203 255.071C149.925 248.786 115.28 218.653 116.25 148.07C171.805 196.306 202.969 212.587 267.205 215.191C335.269 217.951 376.602 208.318 424.253 152.632Z" fill="#F3F3F3"/>
<path d="M226.224 232.595C226.224 232.595 267.275 227.34 307.333 232.595C315.925 233.722 324.711 234.618 328.356 239.696C335.316 249.392 324.18 260.435 314.009 266.682C304.066 272.789 288.366 278.02 270.969 278.186C252.927 278.358 238.298 273.215 226.224 266.682C215.633 260.951 204.297 249.485 211.309 239.696C215.065 234.452 226.224 232.595 226.224 232.595Z" fill="#E9E5E5"/>
<path d="M272.074 169.805C271.479 169.844 269.251 169.845 269.81 168.619C270.204 167.755 272.699 168.066 272.505 169.131C272.298 170.272 270.253 169.917 269.514 169.859C268.373 169.769 267.555 169.943 267.479 168.565C267.333 165.938 270.419 166.968 272.142 167.352C272.848 167.509 275.582 167.914 275.74 169.158C275.811 169.725 274.884 170.306 274.446 170.425C273.505 170.679 272.791 169.99 271.912 169.859C271.496 169.796 268.431 170.073 268.88 169.09C269.519 167.693 271.517 166.572 272.923 167.258C273.463 167.521 274.092 167.571 273.637 168.026C272.996 168.667 272.708 169.622 272.195 170.357C271.074 171.967 268.864 169.712 268.031 168.754C266.736 167.264 267.487 166.371 269.163 166.463C270.264 166.523 274.1 166.197 274.689 167.325C274.882 167.697 275.577 170.313 275.241 170.532C274.466 171.04 272.68 170.047 272.101 169.724C271.472 169.373 270.562 168.73 270.107 168.107C268.825 166.354 270.494 168.459 270.134 167.379" stroke="#EE8E7E" stroke-width="2.48994" stroke-linecap="round"/>
<path d="M129.43 206.528C251.686 220.882 257.54 96.3796 245.553 32.5223C179.66 39.5338 140.463 76.3001 129.43 96.5304C103.269 132.719 119.177 198.762 129.43 206.528Z" fill="#CEBBAD" stroke="#CEBBAD" stroke-width="0.150785"/>
<path d="M314.387 164.836C321.762 166.959 328.704 168.35 336.436 168.541C341.861 168.675 347.791 169.244 353.108 168.063" stroke="#646464" stroke-width="7.53923" stroke-linecap="round"/>
<path d="M228.488 165.431C221.184 167.786 214.289 169.395 206.567 169.83C201.149 170.136 195.24 170.892 189.889 169.879" stroke="#646464" stroke-width="7.53923" stroke-linecap="round"/>
<path d="M268.938 188.111C269.15 185.989 274.19 184.66 275.85 185.408C277.07 185.956 278.39 186.391 279.168 187.558" stroke="#646464" stroke-width="6.03139" stroke-linecap="round"/>
</svg>
