<svg width="385" height="434" viewBox="0 0 385 434" fill="none" xmlns="http://www.w3.org/2000/svg">
<path d="M191.229 288.89L191.457 288.902L191.685 288.892C255.639 286.069 295.925 278.15 320.289 261.279C345.294 243.963 352.701 217.91 353.192 182.182C354.21 108.116 282.672 57.118 196.367 55.9315C110.069 54.7452 36.9899 103.75 35.9716 177.821C35.4771 213.798 44.0881 240.603 68.9546 258.854C93.3135 276.733 132.492 285.749 191.229 288.89Z" fill="#B0B0B0" stroke="#676564" stroke-width="9.33728"/>
<path d="M95.8961 370.514L91.713 368.441L91.3481 369.177L91.2565 369.993L95.8961 370.514ZM95.8961 370.514C91.713 368.441 91.7142 368.438 91.7155 368.436L91.7182 368.43L91.7241 368.418L91.7377 368.392C91.7476 368.372 91.7591 368.35 91.7722 368.324C91.7985 368.274 91.8314 368.212 91.8711 368.139C91.9505 367.994 92.0575 367.806 92.1936 367.581C92.4656 367.132 92.8561 366.535 93.3791 365.842C94.423 364.46 96.0109 362.679 98.256 360.951C102.823 357.438 109.879 354.333 119.996 354.961C131.9 355.7 139.165 358.609 143.589 361.81C145.798 363.409 147.235 365.038 148.152 366.398C148.608 367.073 148.928 367.672 149.149 368.152C149.26 368.392 149.345 368.602 149.41 368.777C149.443 368.865 149.471 368.944 149.494 369.013C149.505 369.048 149.516 369.08 149.525 369.11L149.538 369.153L149.544 369.173L149.547 369.183C149.549 369.188 149.55 369.193 145.072 370.514M95.8961 370.514C91.2565 369.993 91.2565 369.994 91.2565 369.994L91.2564 369.995L91.2561 369.998L91.2549 370.008L91.2507 370.046L91.2349 370.189C91.2211 370.315 91.201 370.499 91.1755 370.736C91.1247 371.209 91.0522 371.895 90.9652 372.75C90.7914 374.46 90.5593 376.848 90.3258 379.569C89.8619 384.974 89.3808 391.823 89.36 397.263C89.3596 397.376 89.3591 397.489 89.3587 397.601C89.3381 402.838 89.3176 408.053 90.658 412.716C92.1336 417.849 95.1594 422.113 100.621 425.754C101.955 426.643 103.548 427.191 104.973 427.564C106.467 427.956 108.136 428.245 109.842 428.464C113.257 428.903 117.157 429.103 120.771 429.182C124.404 429.262 127.844 429.222 130.369 429.162C131.634 429.133 132.675 429.098 133.403 429.07C133.767 429.057 134.053 429.045 134.25 429.036C134.348 429.032 134.425 429.028 134.477 429.026L134.538 429.023L134.555 429.022L134.56 429.022L134.561 429.022C134.562 429.022 134.562 429.022 134.335 424.359M145.072 370.514C149.693 369.848 149.693 369.848 149.693 369.848L149.693 369.849L149.694 369.851L149.695 369.859L149.699 369.887L149.714 369.995C149.728 370.09 149.747 370.228 149.772 370.405C149.822 370.761 149.893 371.276 149.98 371.917C150.154 373.199 150.39 374.991 150.639 377.033C151.133 381.087 151.694 386.237 151.913 390.341C152.122 394.253 152.24 399.186 152.306 403.104C152.339 405.071 152.359 406.797 152.371 408.032C152.374 408.393 152.377 408.712 152.379 408.983C152.584 409.447 152.832 410.043 153.074 410.72C153.58 412.137 154.322 414.599 154.075 417.047C153.725 420.515 151.519 422.857 149.506 424.289C147.484 425.728 145.085 426.679 143.026 427.319C140.916 427.975 138.872 428.391 137.382 428.644C136.629 428.771 135.999 428.86 135.55 428.917C135.325 428.946 135.144 428.967 135.014 428.982C134.95 428.989 134.897 428.994 134.859 428.998L134.811 429.003L134.796 429.005L134.79 429.005L134.787 429.006C134.786 429.006 134.785 429.006 134.335 424.359M145.072 370.514L149.693 369.848L149.645 369.515L149.55 369.193L145.072 370.514ZM134.335 424.359L134.562 429.022L134.674 429.017L134.785 429.006L134.335 424.359Z" fill="#B0B0B0" stroke="#676564" stroke-width="9.33728"/>
<path d="M287.33 370.514L291.514 368.441L291.878 369.177L291.97 369.993L287.33 370.514ZM287.33 370.514C291.514 368.441 291.512 368.438 291.511 368.436L291.508 368.43L291.502 368.418L291.489 368.392C291.479 368.372 291.467 368.35 291.454 368.324C291.428 368.274 291.395 368.212 291.355 368.139C291.276 367.994 291.169 367.806 291.033 367.581C290.761 367.132 290.37 366.535 289.847 365.842C288.804 364.46 287.216 362.679 284.971 360.951C280.404 357.438 273.348 354.333 263.231 354.961C251.327 355.7 244.061 358.609 239.638 361.81C237.429 363.409 235.992 365.038 235.074 366.398C234.618 367.073 234.298 367.672 234.077 368.152C233.967 368.392 233.881 368.602 233.816 368.777C233.783 368.865 233.756 368.944 233.733 369.013C233.721 369.048 233.711 369.08 233.701 369.11L233.688 369.153L233.682 369.173L233.679 369.183C233.678 369.188 233.676 369.193 238.154 370.514M287.33 370.514C291.97 369.993 291.97 369.994 291.97 369.994L291.97 369.995L291.97 369.998L291.972 370.008L291.976 370.046L291.992 370.189C292.005 370.315 292.026 370.499 292.051 370.736C292.102 371.209 292.174 371.895 292.261 372.75C292.435 374.46 292.667 376.848 292.901 379.569C293.365 384.974 293.846 391.823 293.867 397.263C293.867 397.376 293.867 397.489 293.868 397.601C293.888 402.838 293.909 408.053 292.569 412.716C291.093 417.849 288.067 422.113 282.606 425.754C281.271 426.643 279.678 427.191 278.254 427.564C276.76 427.956 275.091 428.245 273.384 428.464C269.97 428.903 266.069 429.103 262.456 429.182C258.823 429.262 255.383 429.222 252.857 429.162C251.592 429.133 250.551 429.098 249.823 429.07C249.459 429.057 249.173 429.045 248.977 429.036C248.878 429.032 248.802 429.028 248.75 429.026L248.689 429.023L248.672 429.022L248.667 429.022L248.665 429.022C248.665 429.022 248.664 429.022 248.892 424.359M238.154 370.514C233.533 369.848 233.533 369.848 233.533 369.848L233.533 369.849L233.533 369.851L233.532 369.859L233.528 369.887L233.512 369.995C233.499 370.09 233.479 370.228 233.454 370.405C233.404 370.761 233.333 371.276 233.246 371.917C233.073 373.199 232.837 374.991 232.588 377.033C232.093 381.087 231.532 386.237 231.313 390.341C231.105 394.253 230.987 399.186 230.921 403.104C230.888 405.071 230.868 406.797 230.856 408.032C230.852 408.393 230.849 408.712 230.847 408.983C230.642 409.447 230.395 410.043 230.153 410.72C229.647 412.137 228.904 414.599 229.152 417.047C229.502 420.515 231.708 422.857 233.72 424.289C235.743 425.728 238.141 426.679 240.2 427.319C242.31 427.975 244.354 428.391 245.845 428.644C246.598 428.771 247.227 428.86 247.677 428.917C247.902 428.946 248.083 428.967 248.212 428.982C248.277 428.989 248.329 428.994 248.368 428.998L248.415 429.003L248.431 429.005L248.437 429.005L248.439 429.006C248.44 429.006 248.442 429.006 248.892 424.359M238.154 370.514L233.533 369.848L233.581 369.515L233.676 369.193L238.154 370.514ZM248.892 424.359L248.664 429.022L248.553 429.017L248.442 429.006L248.892 424.359Z" fill="#B0B0B0" stroke="#676564" stroke-width="9.33728"/>
<path d="M103.947 262.929L101.198 259.155L101.041 259.27L100.893 259.397L103.947 262.929ZM103.947 262.929C100.893 259.397 100.892 259.398 100.891 259.399L100.888 259.402L100.879 259.409L100.849 259.436L100.738 259.533C100.642 259.617 100.503 259.739 100.324 259.897C99.9664 260.215 99.447 260.679 98.7878 261.28C97.4698 262.482 95.5915 264.23 93.3266 266.434C88.8011 270.839 82.7095 277.091 76.4518 284.476C64.1221 299.027 50.4251 318.8 47.7645 337.847C47.0826 342.728 46.8961 346.962 48.5114 350.895C50.122 354.816 53.2252 357.705 57.0992 360.718C61.7443 364.331 67.8829 365.299 73.4701 364.47C79.0912 363.635 84.7856 360.901 88.7086 356.255C90.8423 353.728 91.8771 350.526 92.3999 348.366C92.6776 347.219 92.848 346.203 92.9499 345.469C93.3148 344.918 93.8366 344.133 94.4883 343.166C95.8426 341.156 97.754 338.36 99.9801 335.223C104.465 328.903 110.106 321.367 115.005 316.045C118.164 312.612 121.268 309.483 124.248 306.48C125.321 305.399 126.379 304.333 127.416 303.275C131.254 299.365 134.858 295.531 137.561 291.706C137.643 291.59 137.725 291.473 137.808 291.357C139.824 288.506 141.955 285.494 143.172 282.214C144.558 278.481 144.738 274.565 143.318 269.993C141.851 265.263 139.548 261.062 136.139 257.811C132.696 254.526 128.352 252.432 123.199 251.598C117.825 250.728 112.021 253.059 108.27 254.929C106.249 255.937 104.504 256.979 103.266 257.767C102.643 258.162 102.142 258.498 101.789 258.741C101.612 258.862 101.472 258.96 101.373 259.03C101.323 259.066 101.283 259.094 101.254 259.115L101.218 259.141L101.206 259.15L101.201 259.153L101.2 259.154C101.199 259.155 101.198 259.155 103.947 262.929Z" fill="#B0B0B0" stroke="#676564" stroke-width="9.33728"/>
<path d="M281.194 262.929L283.943 259.155L284.1 259.27L284.247 259.397L281.194 262.929ZM281.194 262.929C284.247 259.397 284.248 259.398 284.249 259.399L284.252 259.402L284.261 259.409L284.292 259.436L284.403 259.533C284.498 259.617 284.637 259.739 284.816 259.897C285.174 260.215 285.694 260.679 286.353 261.28C287.671 262.482 289.549 264.23 291.814 266.434C296.34 270.839 302.431 277.091 308.689 284.476C321.019 299.027 334.716 318.8 337.376 337.847C338.058 342.728 338.245 346.962 336.629 350.895C335.019 354.816 331.915 357.705 328.041 360.718C323.396 364.331 317.258 365.299 311.671 364.47C306.049 363.635 300.355 360.901 296.432 356.255C294.298 353.728 293.264 350.526 292.741 348.366C292.463 347.219 292.293 346.203 292.191 345.469C291.826 344.918 291.304 344.133 290.652 343.166C289.298 341.156 287.387 338.36 285.161 335.223C280.676 328.903 275.034 321.367 270.136 316.045C266.977 312.612 263.873 309.483 260.893 306.48C259.819 305.399 258.762 304.333 257.724 303.275C253.887 299.365 250.283 295.531 247.58 291.706C247.498 291.59 247.415 291.473 247.332 291.357C245.317 288.506 243.186 285.494 241.968 282.214C240.583 278.481 240.403 274.565 241.822 269.993C243.29 265.263 245.592 261.062 249.002 257.811C252.445 254.526 256.789 252.432 261.941 251.598C267.315 250.728 273.12 253.059 276.871 254.929C278.891 255.937 280.637 256.979 281.875 257.767C282.497 258.162 282.999 258.498 283.352 258.741C283.528 258.862 283.668 258.96 283.768 259.03C283.818 259.066 283.857 259.094 283.887 259.115L283.923 259.141L283.935 259.15L283.939 259.153L283.941 259.154C283.942 259.155 283.943 259.155 281.194 262.929Z" fill="#B0B0B0" stroke="#676564" stroke-width="9.33728"/>
<path d="M98.3774 268.594L94.5372 265.939L94.0243 266.681L93.8246 267.56L98.3774 268.594ZM98.3774 268.594C94.5372 265.939 94.5382 265.937 94.5392 265.936L94.5414 265.933L94.5465 265.925L94.5594 265.907L94.5959 265.855C94.625 265.814 94.6635 265.76 94.7113 265.694C94.8068 265.563 94.9396 265.384 95.1076 265.166C95.4431 264.73 95.923 264.132 96.5322 263.441C97.7383 262.072 99.5114 260.266 101.732 258.619C106.07 255.402 113.111 252.143 120.932 255.807C145.238 267.194 175.063 272.355 202.335 272.05C229.795 271.742 253.686 265.912 266.654 256.286C270.152 253.69 274.095 254.052 277.115 255.139C280.069 256.202 282.819 258.156 285.016 260.008C287.268 261.907 289.234 263.953 290.619 265.496C291.317 266.274 291.882 266.94 292.276 267.418C292.474 267.657 292.629 267.849 292.739 267.986C292.794 268.055 292.837 268.109 292.868 268.149L292.905 268.196L292.917 268.212L292.921 268.217L292.923 268.219C292.924 268.22 292.924 268.221 289.236 271.084M98.3774 268.594C93.8246 267.56 93.8245 267.561 93.8244 267.561L93.824 267.563L93.8228 267.568L93.8185 267.587L93.8025 267.658C93.7886 267.72 93.7682 267.811 93.7418 267.929C93.689 268.166 93.612 268.514 93.514 268.964C93.3179 269.863 93.0374 271.168 92.6976 272.806C92.018 276.079 91.0998 280.684 90.1429 286.019C88.2364 296.648 86.1473 310.335 85.5217 322.191L85.5157 322.305C84.4162 343.143 83.3425 363.493 94.3077 383C97.1592 388.073 103.236 391.454 109.728 393.876C116.485 396.397 124.86 398.292 133.739 399.71C151.527 402.551 172.061 403.588 187.393 403.588H187.618C207.422 403.588 229.55 403.589 248.218 400.657C257.603 399.183 266.372 396.933 273.661 393.423C280.97 389.903 287.065 384.977 290.598 378.038C301.342 356.934 300.394 342.581 298.935 320.469C298.903 319.99 298.871 319.507 298.839 319.02C298.084 307.532 296.839 295.389 295.786 286.14C295.259 281.51 294.779 277.595 294.43 274.835C294.256 273.455 294.115 272.364 294.017 271.616C293.967 271.242 293.929 270.954 293.903 270.759L293.873 270.536L293.866 270.478L293.864 270.463L293.863 270.459L293.863 270.458C293.863 270.458 293.863 270.458 289.236 271.084M289.236 271.084L292.924 268.221L293.695 269.213L293.863 270.458L289.236 271.084Z" fill="#B0B0B0" stroke="#676564" stroke-width="9.33728"/>
<path d="M348.522 182.12C347.552 252.704 319.454 278.887 191.473 284.559C74.1941 278.274 39.5492 248.141 40.5195 177.557C96.0743 225.793 127.239 242.075 191.475 244.679C259.539 247.438 300.872 237.805 348.522 182.12Z" fill="#B0B0B0"/>
<path d="M150.493 262.084C150.493 262.084 191.545 256.829 231.602 262.084C240.195 263.211 248.98 264.107 252.625 269.186C259.585 278.882 248.449 289.924 238.279 296.171C228.335 302.279 212.636 307.51 195.238 307.676C177.196 307.848 162.567 302.705 150.493 296.171C139.902 290.441 128.566 278.975 135.578 269.186C139.335 263.941 150.493 262.084 150.493 262.084Z" fill="#F0F6F2"/>
<path d="M150.023 178.926C158.188 185.064 163.455 182.649 172.594 189.533C174.715 190.722 175.89 195.763 172.594 198.072C169.752 200.064 156.083 201.706 152.683 203.613C140.698 208.003 139.149 207.446 127.98 218.797C124.944 222.769 125.39 228.872 127.98 233.103C133.578 242.245 140.39 249.497 156.729 253.597C175.15 258.22 194.273 258.745 214.561 256.563C233.536 254.523 248.76 247.733 257.058 237.911C268.308 224.595 262.942 218.578 244.83 208.932C237.11 204.82 223.875 202.492 216.208 198.501C210.069 195.305 213.448 190.236 217.266 186.934C227.085 178.44 247.777 175.659 244.83 165.273C241.225 152.567 222.417 137.209 207.215 127.945C201.295 124.337 188.169 125.528 181.823 128.538C176.647 130.993 173.911 134.477 169.42 137.238C160.27 142.865 157.043 150.654 149.318 156.813C145.22 160.081 139.642 164.402 139.149 168.545C138.582 173.316 144.097 176.303 150.023 178.926Z" fill="#F0F6F2" stroke="#F0F6F2" stroke-width="7.53923" stroke-linecap="round"/>
<path d="M186.633 230.995C188.145 232.287 190.186 233.123 192.202 232.287C193.039 231.94 193.472 231.664 194.29 230.887C194.794 230.408 195.069 229.988 195.567 229.44C196.024 228.936 196.498 228.169 196.853 227.751C197.199 227.344 197.602 228.235 197.887 228.579C198.408 229.21 198.602 229.231 199.252 229.703C200.387 230.527 201.452 231.798 202.895 232.287C204.238 232.742 204.938 232.629 206.242 232.287C207.305 232.009 208.048 231.472 208.949 230.995" stroke="#676564" stroke-width="4.97988" stroke-linecap="round"/>
<path d="M146.007 223.903C138.618 226.008 124.561 226.707 119.168 219.545C116.156 215.545 113.474 208.702 115 203.569C117.08 196.573 129.154 191.76 136.345 191.76C142.298 192.501 143.766 192.829 148.469 196.697C149.225 197.319 151.986 200.153 153.097 203.569C154.088 206.618 152.861 210.118 151.986 210.643C150.567 212.41 149.888 213.111 147.79 213.975C145.692 214.839 143.22 215.392 140.508 215.641C136.093 216.047 131.905 215.318 128.388 212.41C122.7 207.706 128.724 201.552 134.64 201.358C138.243 201.24 138.618 202.142 138.618 205.116C138.618 206.206 136.874 207.343 136.345 206.284" stroke="#646464" stroke-width="6.17078" stroke-linecap="round"/>
<path d="M267.233 223.903C259.845 226.008 245.787 226.707 240.395 219.545C237.383 215.545 234.701 208.702 236.227 203.569C238.307 196.573 250.381 191.76 257.571 191.76C263.524 192.501 264.992 192.829 269.695 196.697C270.451 197.319 273.212 200.153 274.323 203.569C275.315 206.618 274.087 210.118 273.212 210.643C271.793 212.41 271.114 213.111 269.016 213.975C266.918 214.839 264.446 215.392 261.735 215.641C257.32 216.047 253.131 215.318 249.614 212.41C243.926 207.706 249.951 201.552 255.866 201.358C259.47 201.24 259.845 202.142 259.845 205.116C259.845 206.206 258.101 207.343 257.571 206.284" stroke="#646464" stroke-width="6.17078" stroke-linecap="round"/>
<path d="M196.945 219.235C196.35 219.274 194.122 219.275 194.681 218.049C195.075 217.185 197.57 217.496 197.376 218.561C197.169 219.701 195.124 219.347 194.385 219.288C193.244 219.199 192.426 219.373 192.35 217.995C192.204 215.368 195.291 216.398 197.013 216.782C197.719 216.939 200.453 217.344 200.611 218.588C200.683 219.154 199.756 219.736 199.317 219.854C198.376 220.108 197.662 219.42 196.784 219.288C196.367 219.226 193.302 219.503 193.751 218.52C194.39 217.123 196.388 216.002 197.794 216.688C198.334 216.951 198.964 217.001 198.508 217.456C197.867 218.097 197.579 219.052 197.067 219.787C195.945 221.396 193.735 219.141 192.902 218.183C191.607 216.694 192.358 215.801 194.034 215.892C195.135 215.952 198.971 215.627 199.56 216.755C199.754 217.126 200.448 219.743 200.112 219.962C199.337 220.469 197.551 219.477 196.972 219.154C196.343 218.802 195.434 218.16 194.978 217.537C193.696 215.784 195.365 217.889 195.005 216.809" stroke="#EE8E7E" stroke-width="2.48994" stroke-linecap="round"/>
<path d="M53.3216 40.5781C54.2619 36.495 58.2878 33.9664 62.3739 34.8932C73.2797 37.3669 93.9734 42.3282 107.662 47.2681C116.333 50.3974 126.764 54.9129 134.67 58.4747C140.101 60.9212 140.722 68.2907 135.839 71.7024L55.9253 127.541C50.7688 131.144 43.7299 127.466 43.8339 121.176C44.0295 109.341 44.498 93.0607 45.6198 82.3655C47.0131 69.0827 51.0011 50.6541 53.3216 40.5781Z" fill="#646464"/>
<path d="M60.232 51.1876C61.0863 46.9166 65.3164 44.2734 69.5346 45.3584C79.8021 47.9996 98.1139 52.9666 110.389 57.7634C118.272 60.8435 127.741 65.218 135.022 68.711C140.311 71.2482 140.837 78.48 136.036 81.8506L65.6807 131.247C60.5967 134.816 53.6228 131.287 53.5742 125.075C53.4876 114.029 53.5533 99.0979 54.3232 89.2533C55.2632 77.2349 58.3177 60.7572 60.232 51.1876Z" fill="#B0B0B0"/>
<path d="M331.878 47.9475C330.905 44.0848 327.149 41.6551 323.225 42.3419C312.646 44.194 292.237 48.0204 278.799 52.1452C270.744 54.6181 261.141 58.2206 253.598 61.1853C247.944 63.4075 247.086 70.9396 252.023 74.479L330.364 130.64C335.561 134.366 342.738 130.585 342.512 124.195C342.117 113.032 341.4 98.2446 340.172 88.3735C338.576 75.5388 334.305 57.5933 331.878 47.9475Z" fill="#646464"/>
<path d="M325.707 58.0847C325.024 54.9579 322.165 52.8372 318.977 53.1212C309.307 53.9826 289.082 56.1741 275.959 60.3276C268.141 62.802 258.579 67.3227 251.803 70.7518C247.651 72.8529 247.172 78.48 250.815 81.3744L320.971 137.108C324.946 140.266 330.793 137.888 331.306 132.838C332.379 122.289 333.574 106.881 332.623 97.454C331.348 84.819 327.643 66.9415 325.707 58.0847Z" fill="#B0B0B0"/>
</svg>
