<svg width="364" height="389" viewBox="0 0 364 389" fill="none" xmlns="http://www.w3.org/2000/svg">
<path d="M178.772 243.694L179 243.706L179.228 243.696C243.182 240.874 283.468 232.955 307.832 216.083C332.837 198.767 340.244 172.714 340.735 136.986C341.753 62.9206 270.215 11.9224 183.91 10.736C97.612 9.54965 24.5328 58.5547 23.5146 132.626C23.02 168.603 31.6311 195.408 56.4976 213.659C80.8565 231.538 120.035 240.554 178.772 243.694Z" fill="#E8E5CA" stroke="#646464" stroke-width="9.33728"/>
<path d="M83.439 325.318L79.2559 323.245L78.8911 323.981L78.7995 324.798L83.439 325.318ZM83.439 325.318C79.2559 323.245 79.2572 323.243 79.2585 323.24L79.2612 323.235L79.2671 323.223L79.2807 323.196C79.2906 323.176 79.302 323.154 79.3152 323.129C79.3415 323.078 79.3744 323.016 79.4141 322.944C79.4935 322.798 79.6005 322.61 79.7366 322.385C80.0086 321.937 80.3991 321.339 80.922 320.647C81.966 319.264 83.5539 317.483 85.799 315.756C90.3659 312.242 97.4216 309.137 107.538 309.765C119.443 310.504 126.708 313.413 131.132 316.615C133.341 318.214 134.778 319.842 135.695 321.202C136.151 321.878 136.471 322.476 136.692 322.957C136.803 323.197 136.888 323.407 136.953 323.582C136.986 323.669 137.014 323.748 137.037 323.817C137.048 323.852 137.059 323.885 137.068 323.914L137.081 323.958L137.087 323.978L137.09 323.987C137.092 323.992 137.093 323.997 132.615 325.318M83.439 325.318C78.7995 324.798 78.7995 324.798 78.7995 324.798L78.7994 324.799L78.799 324.802L78.7979 324.812L78.7937 324.85L78.7778 324.994C78.764 325.119 78.744 325.303 78.7185 325.54C78.6676 326.014 78.5952 326.7 78.5082 327.555C78.3344 329.264 78.1023 331.652 77.8688 334.373C77.4049 339.778 76.9237 346.628 76.903 352.067C76.9026 352.18 76.9021 352.293 76.9017 352.406C76.8811 357.642 76.8605 362.857 78.2009 367.52C79.6765 372.653 82.7024 376.917 88.1636 380.558C89.4982 381.448 91.0914 381.995 92.5157 382.369C94.0098 382.76 95.6789 383.049 97.3853 383.269C100.8 383.707 104.7 383.907 108.314 383.986C111.947 384.066 115.387 384.026 117.912 383.967C119.177 383.937 120.218 383.902 120.946 383.875C121.31 383.861 121.596 383.849 121.793 383.841C121.891 383.836 121.968 383.833 122.02 383.83L122.081 383.827L122.098 383.827L122.103 383.826L122.104 383.826C122.105 383.826 122.105 383.826 121.878 379.163M132.615 325.318C137.236 324.652 137.236 324.652 137.236 324.652L137.236 324.653L137.237 324.655L137.238 324.663L137.242 324.692L137.257 324.8C137.271 324.894 137.29 325.032 137.315 325.21C137.365 325.565 137.436 326.08 137.523 326.721C137.697 328.004 137.933 329.796 138.182 331.837C138.676 335.891 139.237 341.041 139.456 345.145C139.665 349.057 139.783 353.99 139.849 357.909C139.882 359.876 139.902 361.602 139.914 362.837C139.917 363.198 139.92 363.517 139.922 363.788C140.127 364.251 140.375 364.847 140.617 365.525C141.122 366.941 141.865 369.403 141.618 371.851C141.268 375.319 139.062 377.662 137.049 379.094C135.027 380.533 132.628 381.484 130.569 382.124C128.459 382.779 126.415 383.196 124.925 383.448C124.172 383.575 123.542 383.664 123.093 383.721C122.868 383.75 122.687 383.771 122.557 383.786C122.492 383.793 122.44 383.799 122.402 383.803L122.354 383.807L122.339 383.809L122.333 383.81L122.33 383.81C122.329 383.81 122.328 383.81 121.878 379.163M132.615 325.318L137.236 324.652L137.188 324.319L137.093 323.997L132.615 325.318ZM121.878 379.163L122.105 383.826L122.217 383.821L122.328 383.81L121.878 379.163Z" fill="#E8E5CA" stroke="#646464" stroke-width="9.33728"/>
<path d="M274.873 325.318L279.057 323.245L279.421 323.981L279.513 324.798L274.873 325.318ZM274.873 325.318C279.057 323.245 279.055 323.243 279.054 323.24L279.051 323.235L279.045 323.223L279.032 323.196C279.022 323.176 279.01 323.154 278.997 323.129C278.971 323.078 278.938 323.016 278.898 322.944C278.819 322.798 278.712 322.61 278.576 322.385C278.304 321.937 277.913 321.339 277.39 320.647C276.347 319.264 274.759 317.483 272.514 315.756C267.947 312.242 260.891 309.137 250.774 309.765C238.87 310.504 231.604 313.413 227.181 316.615C224.972 318.214 223.535 319.842 222.617 321.202C222.161 321.878 221.841 322.476 221.62 322.957C221.51 323.197 221.424 323.407 221.359 323.582C221.326 323.669 221.299 323.748 221.276 323.817C221.264 323.852 221.254 323.885 221.244 323.914L221.231 323.958L221.225 323.978L221.222 323.987C221.221 323.992 221.219 323.997 225.697 325.318M274.873 325.318C279.513 324.798 279.513 324.798 279.513 324.798L279.513 324.799L279.513 324.802L279.515 324.812L279.519 324.85L279.535 324.994C279.548 325.119 279.569 325.303 279.594 325.54C279.645 326.014 279.717 326.7 279.804 327.555C279.978 329.264 280.21 331.652 280.444 334.373C280.908 339.778 281.389 346.628 281.41 352.067C281.41 352.18 281.41 352.293 281.411 352.406C281.431 357.642 281.452 362.857 280.112 367.52C278.636 372.653 275.61 376.917 270.149 380.558C268.814 381.448 267.221 381.995 265.797 382.369C264.303 382.76 262.634 383.049 260.927 383.269C257.513 383.707 253.612 383.907 249.999 383.986C246.366 384.066 242.926 384.026 240.4 383.967C239.135 383.937 238.094 383.902 237.366 383.875C237.002 383.861 236.716 383.849 236.52 383.841C236.421 383.836 236.345 383.833 236.293 383.83L236.232 383.827L236.215 383.827L236.21 383.826L236.208 383.826C236.208 383.826 236.207 383.826 236.435 379.163M225.697 325.318C221.076 324.652 221.076 324.652 221.076 324.652L221.076 324.653L221.076 324.655L221.075 324.663L221.071 324.692L221.055 324.8C221.042 324.894 221.022 325.032 220.997 325.21C220.947 325.565 220.876 326.08 220.789 326.721C220.616 328.004 220.38 329.796 220.131 331.837C219.636 335.891 219.075 341.041 218.856 345.145C218.648 349.057 218.53 353.99 218.464 357.909C218.431 359.876 218.411 361.602 218.399 362.837C218.395 363.198 218.392 363.517 218.39 363.788C218.185 364.251 217.938 364.847 217.696 365.525C217.19 366.941 216.447 369.403 216.695 371.851C217.045 375.319 219.251 377.662 221.263 379.094C223.285 380.533 225.684 381.484 227.743 382.124C229.853 382.779 231.897 383.196 233.388 383.448C234.141 383.575 234.77 383.664 235.22 383.721C235.445 383.75 235.626 383.771 235.755 383.786C235.82 383.793 235.872 383.799 235.911 383.803L235.958 383.807L235.974 383.809L235.98 383.81L235.982 383.81C235.983 383.81 235.984 383.81 236.435 379.163M225.697 325.318L221.076 324.652L221.124 324.319L221.219 323.997L225.697 325.318ZM236.435 379.163L236.207 383.826L236.096 383.821L235.984 383.81L236.435 379.163Z" fill="#E8E5CA" stroke="#646464" stroke-width="9.33728"/>
<path d="M91.4896 217.734L88.7409 213.96L88.5835 214.075L88.4362 214.202L91.4896 217.734ZM91.4896 217.734C88.4362 214.202 88.4354 214.203 88.4344 214.204L88.4315 214.206L88.4224 214.214L88.3918 214.24L88.2808 214.337C88.1851 214.421 88.0464 214.543 87.8674 214.702C87.5094 215.019 86.9899 215.484 86.3308 216.085C85.0128 217.286 83.1345 219.034 80.8695 221.239C76.3441 225.644 70.2525 231.895 63.9948 239.28C51.6651 253.831 37.9681 273.605 35.3075 292.651C34.6255 297.533 34.4391 301.766 36.0544 305.699C37.665 309.62 40.7682 312.51 44.6421 315.523C49.2873 319.136 55.4258 320.103 61.013 319.274C66.6341 318.439 72.3286 315.706 76.2515 311.059C78.3852 308.532 79.42 305.33 79.9428 303.171C80.2205 302.023 80.3909 301.008 80.4929 300.274C80.8578 299.722 81.3796 298.938 82.0313 297.97C83.3855 295.96 85.297 293.164 87.523 290.027C92.0075 283.707 97.6494 276.172 102.548 270.849C105.707 267.416 108.811 264.288 111.791 261.285C112.864 260.203 113.921 259.137 114.959 258.08C118.797 254.169 122.401 250.336 125.104 246.511C125.186 246.395 125.268 246.278 125.351 246.161C127.367 243.311 129.498 240.298 130.715 237.018C132.101 233.285 132.281 229.37 130.861 224.797C129.394 220.068 127.091 215.867 123.682 212.615C120.238 209.331 115.895 207.236 110.742 206.402C105.368 205.533 99.564 207.863 95.8128 209.734C93.7924 210.741 92.0469 211.783 90.8086 212.571C90.1864 212.967 89.6847 213.303 89.3318 213.545C89.1552 213.666 89.0153 213.764 88.9158 213.835C88.866 213.87 88.8262 213.898 88.797 213.919L88.7609 213.945L88.7489 213.954L88.7444 213.957L88.7425 213.959C88.7417 213.959 88.7409 213.96 91.4896 217.734Z" fill="#E8E5CA" stroke="#646464" stroke-width="9.33728"/>
<path d="M268.733 217.734L271.482 213.96L271.639 214.075L271.786 214.202L268.733 217.734ZM268.733 217.734C271.786 214.202 271.787 214.203 271.788 214.204L271.791 214.206L271.8 214.214L271.831 214.24L271.942 214.337C272.038 214.421 272.176 214.543 272.355 214.702C272.713 215.019 273.233 215.484 273.892 216.085C275.21 217.286 277.088 219.034 279.353 221.239C283.879 225.644 289.97 231.895 296.228 239.28C308.558 253.831 322.255 273.605 324.915 292.651C325.597 297.533 325.784 301.766 324.168 305.699C322.558 309.62 319.455 312.51 315.581 315.523C310.935 319.136 304.797 320.103 299.21 319.274C293.589 318.439 287.894 315.706 283.971 311.059C281.837 308.532 280.803 305.33 280.28 303.171C280.002 302.023 279.832 301.008 279.73 300.274C279.365 299.722 278.843 298.938 278.191 297.97C276.837 295.96 274.926 293.164 272.7 290.027C268.215 283.707 262.573 276.172 257.675 270.849C254.516 267.416 251.412 264.288 248.432 261.285C247.358 260.203 246.301 259.137 245.263 258.08C241.426 254.169 237.822 250.336 235.119 246.511C235.037 246.395 234.954 246.278 234.872 246.161C232.856 243.311 230.725 240.298 229.507 237.018C228.122 233.285 227.942 229.37 229.361 224.797C230.829 220.068 233.131 215.867 236.541 212.615C239.984 209.331 244.328 207.236 249.481 206.402C254.854 205.533 260.659 207.863 264.41 209.734C266.43 210.741 268.176 211.783 269.414 212.571C270.036 212.967 270.538 213.303 270.891 213.545C271.067 213.666 271.207 213.764 271.307 213.835C271.357 213.87 271.396 213.898 271.426 213.919L271.462 213.945L271.474 213.954L271.478 213.957L271.48 213.959C271.481 213.959 271.482 213.96 268.733 217.734Z" fill="#E8E5CA" stroke="#646464" stroke-width="9.33728"/>
<path d="M85.9204 223.398L82.0802 220.743L81.5672 221.485L81.3676 222.365L85.9204 223.398ZM85.9204 223.398C82.0802 220.743 82.0811 220.742 82.0821 220.74L82.0844 220.737L82.0894 220.73L82.1023 220.711L82.1388 220.66C82.1679 220.619 82.2065 220.565 82.2543 220.499C82.3498 220.368 82.4825 220.189 82.6506 219.97C82.986 219.534 83.466 218.937 84.0751 218.245C85.2813 216.876 87.0544 215.071 89.2748 213.424C93.6134 210.206 100.654 206.948 108.474 210.611C132.781 221.998 162.606 227.159 189.878 226.854C217.338 226.547 241.229 220.716 254.197 211.09C257.695 208.494 261.638 208.856 264.658 209.943C267.612 211.007 270.362 212.961 272.559 214.813C274.811 216.711 276.777 218.758 278.162 220.301C278.86 221.079 279.425 221.745 279.819 222.222C280.017 222.461 280.172 222.654 280.282 222.791C280.337 222.859 280.38 222.914 280.411 222.953L280.448 223.001L280.46 223.016L280.464 223.021L280.466 223.024C280.467 223.024 280.467 223.025 276.779 225.888M85.9204 223.398C81.3676 222.365 81.3675 222.365 81.3673 222.366L81.367 222.367L81.3658 222.373L81.3615 222.392L81.3455 222.463C81.3315 222.525 81.3112 222.615 81.2848 222.734C81.232 222.971 81.155 223.319 81.0569 223.768C80.8609 224.667 80.5804 225.973 80.2405 227.61C79.561 230.884 78.6427 235.489 77.6859 240.823C75.7794 251.453 73.6903 265.14 73.0647 276.996L73.0587 277.109C71.9592 297.948 70.8854 318.298 81.8506 337.804C84.7021 342.877 90.7794 346.258 97.2711 348.68C104.028 351.201 112.403 353.096 121.282 354.515C139.07 357.356 159.604 358.393 174.936 358.393H175.16C194.965 358.393 217.093 358.393 235.761 355.461C245.146 353.988 253.915 351.738 261.204 348.227C268.513 344.707 274.608 339.782 278.141 332.842C288.885 311.739 287.937 297.386 286.478 275.274C286.446 274.794 286.414 274.311 286.382 273.825C285.627 262.337 284.382 250.194 283.329 240.944C282.802 236.315 282.322 232.399 281.973 229.64C281.799 228.26 281.658 227.168 281.559 226.42C281.51 226.046 281.472 225.758 281.446 225.563L281.416 225.341L281.409 225.283L281.407 225.268L281.406 225.264L281.406 225.263C281.406 225.262 281.406 225.262 276.779 225.888M276.779 225.888L280.467 223.025L281.237 224.017L281.406 225.262L276.779 225.888Z" fill="#E8E5CA" stroke="#646464" stroke-width="9.33728"/>
<path d="M336.065 136.924C335.095 207.508 306.996 233.692 179.016 239.363C61.7371 233.078 27.0922 202.945 28.0625 132.361C83.6173 180.598 114.782 196.879 179.017 199.483C247.082 202.243 288.415 192.61 336.065 136.924Z" fill="#E8E5CA"/>
<path d="M138.036 216.885C138.036 216.885 179.088 211.63 219.145 216.885C227.738 218.012 236.523 218.908 240.168 223.987C247.128 233.683 235.992 244.725 225.822 250.972C215.878 257.08 200.179 262.311 182.781 262.477C164.739 262.649 150.11 257.506 138.036 250.972C127.445 245.242 116.109 233.776 123.121 223.987C126.878 218.743 138.036 216.885 138.036 216.885Z" fill="#F0F6F2"/>
<path d="M174.18 185.8C175.692 187.092 177.733 187.927 179.749 187.092C180.586 186.745 181.019 186.469 181.837 185.692C182.341 185.213 182.616 184.793 183.114 184.244C183.571 183.741 184.045 182.973 184.4 182.556C184.746 182.149 185.149 183.04 185.433 183.383C185.955 184.015 186.149 184.036 186.798 184.508C187.934 185.331 188.998 186.603 190.442 187.092C191.785 187.547 192.485 187.433 193.789 187.092C194.852 186.813 195.595 186.277 196.496 185.8" stroke="#676564" stroke-width="4.97988" stroke-linecap="round"/>
<path d="M184.492 174.036C183.897 174.076 181.669 174.076 182.228 172.85C182.622 171.986 185.117 172.297 184.923 173.362C184.716 174.503 182.671 174.148 181.932 174.09C180.791 174 179.973 174.174 179.897 172.796C179.751 170.169 182.837 171.199 184.559 171.583C185.266 171.741 188 172.145 188.158 173.389C188.229 173.956 187.302 174.537 186.864 174.656C185.923 174.91 185.209 174.221 184.33 174.09C183.914 174.028 180.849 174.304 181.298 173.322C181.937 171.924 183.935 170.804 185.341 171.489C185.881 171.752 186.51 171.802 186.055 172.257C185.414 172.898 185.126 173.853 184.613 174.588C183.492 176.198 181.282 173.943 180.449 172.985C179.154 171.495 179.905 170.602 181.581 170.694C182.682 170.754 186.518 170.428 187.107 171.556C187.3 171.928 187.995 174.544 187.659 174.764C186.884 175.271 185.098 174.278 184.519 173.955C183.89 173.604 182.98 172.961 182.525 172.338C181.243 170.585 182.912 172.691 182.551 171.61" stroke="#646464" stroke-width="2.48994" stroke-linecap="round"/>
<path d="M127.03 147.709C121.24 147.709 116.414 144.233 116.414 151.383C116.414 154.245 123.473 161.851 125.379 156.656C128.814 147.288 115.471 144.966 115.471 150.909C115.471 154.719 122.269 157.605 124.848 154.582C129.053 149.654 117.402 145.748 116.414 148.183C114.496 152.914 126.57 162.512 127.856 151.857C128.396 147.38 122.276 148.734 119.481 148.776C102.734 149.023 125.969 167.393 125.969 154.108" stroke="#646464" stroke-width="3.76962" stroke-linecap="round"/>
<path d="M253.527 147.709C247.677 147.709 242.801 144.233 242.801 151.383C242.801 154.245 249.934 161.851 251.859 156.656C255.33 147.288 241.848 144.966 241.848 150.909C241.848 154.719 248.717 157.605 251.323 154.582C255.571 149.654 243.799 145.748 242.801 148.183C240.863 152.914 253.063 162.512 254.362 151.857C254.908 147.38 248.723 148.734 245.9 148.776C228.979 149.023 252.455 167.393 252.455 154.108" stroke="#646464" stroke-width="3.76962" stroke-linecap="round"/>
<path d="M77.8315 11.389C84.8974 15.1137 95.7265 27.2987 97.4294 35.8132L69.0065 63.5576C73.2276 71.9998 66.1778 80.3192 59.0615 86.1176C54.9317 89.4826 50.5368 89.927 45.3867 89.8657C39.8914 89.8003 34.0574 89.4604 28.7543 88.0209C22.5307 86.3317 14.9112 84.9435 10.5699 79.734C3.96317 71.8059 3.61954 59.9669 6.7925 50.5102C9.65547 41.9775 14.7327 33.7623 20.1745 26.7037C27.5769 17.1021 36.1078 8.50493 48.432 5.94247C58.2553 3.90002 69.158 6.81693 77.8315 11.389Z" fill="#E8E5CA"/>
<path d="M95.6352 30.3054C93.9323 21.7909 84.8974 15.1137 77.8315 11.389C69.158 6.81693 58.2553 3.90002 48.432 5.94247C36.1078 8.50493 27.5769 17.1021 20.1745 26.7037C14.7327 33.7623 9.65547 41.9775 6.7925 50.5102C3.61954 59.9669 3.96317 71.8059 10.5699 79.734C14.9112 84.9435 22.5307 86.3317 28.7543 88.0209C34.0574 89.4604 39.8914 89.8003 45.3867 89.8657C50.5368 89.927 54.9317 89.4826 59.0615 86.1176C66.1778 80.3192 70.8668 70.8997 66.6457 62.4574" stroke="#646464" stroke-width="9.04708" stroke-linecap="round"/>
<path d="M286.36 11.389C279.294 15.1137 268.465 27.2987 266.762 35.8132L295.185 63.5576C290.964 71.9998 298.014 80.3192 305.13 86.1176C309.26 89.4826 313.655 89.927 318.805 89.8657C324.3 89.8003 330.134 89.4604 335.437 88.0209C341.661 86.3317 349.28 84.9435 353.621 79.734C360.228 71.8059 360.572 59.9669 357.399 50.5102C354.536 41.9775 349.459 33.7623 344.017 26.7037C336.615 17.1021 328.084 8.50493 315.759 5.94247C305.936 3.90002 295.033 6.81693 286.36 11.389Z" fill="#E8E5CA"/>
<path d="M268.556 30.3054C270.259 21.7909 279.294 15.1137 286.36 11.389C295.033 6.81693 305.936 3.90002 315.759 5.94247C328.084 8.50493 336.615 17.1021 344.017 26.7037C349.459 33.7623 354.536 41.9775 357.399 50.5102C360.572 59.9669 360.228 71.8059 353.621 79.734C349.28 84.9435 341.661 86.3317 335.437 88.0209C330.134 89.4604 324.3 89.8003 318.805 89.8657C313.655 89.927 309.26 89.4826 305.13 86.1176C298.014 80.3192 293.325 70.8997 297.546 62.4574" stroke="#646464" stroke-width="9.04708" stroke-linecap="round"/>
<path d="M139.061 132.239C139.061 135.487 134.96 139.401 128.339 139.401C121.719 139.401 116.578 135.487 116.578 132.239C116.578 128.991 121.719 125.303 128.339 125.303C134.96 125.303 139.061 128.991 139.061 132.239Z" fill="#F0F6F2"/>
<path d="M248.983 132.239C248.983 135.487 244.882 139.401 238.261 139.401C231.641 139.401 226.5 135.487 226.5 132.239C226.5 128.991 231.641 125.303 238.261 125.303C244.882 125.303 248.983 128.991 248.983 132.239Z" fill="#F0F6F2"/>
</svg>
