<svg width="336" height="397" viewBox="0 0 336 397" fill="none" xmlns="http://www.w3.org/2000/svg">
<path d="M59.4343 27.8667C50.8654 25.0286 37.3162 25.434 29.5789 30.5808C21.4732 35.9727 11.3525 47.9033 10.8816 58.2498C10.5424 65.7008 17.248 75.8949 20.9663 80.9436C22.3791 82.862 24.833 83.6189 27.1111 82.9215C31.6192 81.5415 39.2397 79.0813 44.554 76.6941C58.1679 70.5787 74.8693 56.7565 81.5272 50.9997C83.3309 49.4401 83.963 46.944 82.7238 44.9067C79.9638 40.3695 73.401 32.4926 59.4343 27.8667Z" fill="#A79C96" stroke="#676564" stroke-width="9.04708"/>
<path d="M266.409 17.6704C274.978 14.8323 288.528 15.2378 296.265 20.3845C304.371 25.7764 314.491 37.7071 314.962 48.0535C315.301 55.5045 308.596 65.6986 304.877 70.7473C303.465 72.6657 301.011 73.4226 298.733 72.7252C294.225 71.3452 286.604 68.8851 281.29 66.4978C267.676 60.3824 250.974 46.5602 244.317 40.8034C242.513 39.2438 241.881 36.7477 243.12 34.7104C245.88 30.1732 252.443 22.2963 266.409 17.6704Z" fill="#A79C96" stroke="#676564" stroke-width="9.04708"/>
<path d="M168.558 251.262L168.785 251.274L169.013 251.264C232.967 248.442 273.254 240.523 297.617 223.651C322.623 206.335 330.029 180.283 330.52 144.555C331.538 70.4887 260 19.4905 173.695 18.3041C87.3971 17.1178 14.318 66.1228 13.2998 140.194C12.8052 176.171 21.4162 202.976 46.2827 221.227C70.6417 239.106 109.82 248.122 168.558 251.262Z" fill="#A79C96" stroke="#676564" stroke-width="9.33728"/>
<path d="M73.2242 332.886L69.0411 330.813L68.6763 331.55L68.5847 332.366L73.2242 332.886ZM73.2242 332.886C69.0411 330.813 69.0424 330.811 69.0437 330.808L69.0464 330.803L69.0523 330.791L69.0658 330.764C69.0757 330.745 69.0872 330.722 69.1003 330.697C69.1266 330.647 69.1595 330.585 69.1992 330.512C69.2787 330.367 69.3856 330.178 69.5218 329.954C69.7937 329.505 70.1843 328.907 70.7072 328.215C71.7511 326.833 73.339 325.051 75.5841 323.324C80.151 319.81 87.2068 316.705 97.3236 317.333C109.228 318.072 116.494 320.982 120.917 324.183C123.126 325.782 124.563 327.41 125.481 328.77C125.936 329.446 126.256 330.044 126.478 330.525C126.588 330.765 126.673 330.975 126.739 331.15C126.771 331.238 126.799 331.316 126.822 331.386C126.833 331.42 126.844 331.453 126.853 331.483L126.867 331.526L126.873 331.546L126.876 331.556C126.877 331.56 126.878 331.565 122.401 332.886M73.2242 332.886C68.5847 332.366 68.5846 332.366 68.5846 332.366L68.5845 332.367L68.5842 332.37L68.5831 332.38L68.5789 332.418L68.563 332.562C68.5492 332.687 68.5291 332.871 68.5037 333.108C68.4528 333.582 68.3803 334.268 68.2934 335.123C68.1195 336.832 67.8874 339.221 67.6539 341.941C67.19 347.347 66.7089 354.196 66.6881 359.636C66.6877 359.748 66.6873 359.861 66.6868 359.974C66.6662 365.21 66.6457 370.425 67.9861 375.088C69.4617 380.222 72.4875 384.485 77.9488 388.126C79.2834 389.016 80.8766 389.564 82.3008 389.937C83.795 390.329 85.4641 390.618 87.1704 390.837C90.5851 391.275 94.4856 391.475 98.099 391.555C101.732 391.634 105.172 391.594 107.697 391.535C108.962 391.505 110.003 391.47 110.731 391.443C111.095 391.429 111.381 391.417 111.578 391.409C111.677 391.404 111.753 391.401 111.805 391.399L111.866 391.396L111.883 391.395L111.888 391.395L111.889 391.395C111.89 391.395 111.89 391.395 111.663 386.731M122.401 332.886C127.021 332.22 127.021 332.22 127.021 332.221L127.022 332.221L127.022 332.224L127.023 332.231L127.027 332.26L127.043 332.368C127.056 332.462 127.075 332.6 127.1 332.778C127.15 333.134 127.222 333.648 127.308 334.29C127.482 335.572 127.718 337.364 127.967 339.406C128.461 343.46 129.023 348.609 129.241 352.713C129.45 356.625 129.568 361.558 129.634 365.477C129.667 367.444 129.687 369.17 129.699 370.405C129.703 370.766 129.705 371.085 129.708 371.356C129.912 371.819 130.16 372.416 130.402 373.093C130.908 374.51 131.65 376.971 131.403 379.419C131.053 382.887 128.847 385.23 126.835 386.662C124.812 388.101 122.414 389.052 120.354 389.692C118.245 390.348 116.2 390.764 114.71 391.016C113.957 391.144 113.327 391.232 112.878 391.29C112.653 391.318 112.472 391.34 112.342 391.354C112.278 391.361 112.226 391.367 112.187 391.371L112.14 391.376L112.124 391.377L112.118 391.378L112.115 391.378C112.114 391.378 112.113 391.378 111.663 386.731M122.401 332.886L127.021 332.22L126.973 331.888L126.878 331.565L122.401 332.886ZM111.663 386.731L111.89 391.395L112.002 391.389L112.113 391.378L111.663 386.731Z" fill="#A79C96" stroke="#676564" stroke-width="9.33728"/>
<path d="M264.659 332.886L268.842 330.813L269.207 331.55L269.298 332.366L264.659 332.886ZM264.659 332.886C268.842 330.813 268.84 330.811 268.839 330.808L268.836 330.803L268.831 330.791L268.817 330.764C268.807 330.745 268.796 330.722 268.782 330.697C268.756 330.647 268.723 330.585 268.684 330.512C268.604 330.367 268.497 330.178 268.361 329.954C268.089 329.505 267.699 328.907 267.176 328.215C266.132 326.833 264.544 325.051 262.299 323.324C257.732 319.81 250.676 316.705 240.559 317.333C228.655 318.072 221.389 320.982 216.966 324.183C214.757 325.782 213.32 327.41 212.402 328.77C211.946 329.446 211.626 330.044 211.405 330.525C211.295 330.765 211.209 330.975 211.144 331.15C211.112 331.238 211.084 331.316 211.061 331.386C211.049 331.42 211.039 331.453 211.03 331.483L211.016 331.526L211.01 331.546L211.007 331.556C211.006 331.56 211.004 331.565 215.482 332.886M264.659 332.886C269.298 332.366 269.298 332.366 269.298 332.366L269.298 332.367L269.299 332.37L269.3 332.38L269.304 332.418L269.32 332.562C269.334 332.687 269.354 332.871 269.379 333.108C269.43 333.582 269.503 334.268 269.589 335.123C269.763 336.832 269.995 339.221 270.229 341.941C270.693 347.347 271.174 354.196 271.195 359.636C271.195 359.748 271.196 359.861 271.196 359.974C271.217 365.21 271.237 370.425 269.897 375.088C268.421 380.222 265.395 384.485 259.934 388.126C258.599 389.016 257.006 389.564 255.582 389.937C254.088 390.329 252.419 390.618 250.712 390.837C247.298 391.275 243.397 391.475 239.784 391.555C236.151 391.634 232.711 391.594 230.186 391.535C228.92 391.505 227.879 391.47 227.152 391.443C226.788 391.429 226.502 391.417 226.305 391.409C226.206 391.404 226.13 391.401 226.078 391.399L226.017 391.396L226 391.395L225.995 391.395L225.994 391.395C225.993 391.395 225.993 391.395 226.22 386.731M215.482 332.886C210.861 332.22 210.861 332.22 210.861 332.221L210.861 332.221L210.861 332.224L210.86 332.231L210.856 332.26L210.84 332.368C210.827 332.462 210.807 332.6 210.782 332.778C210.733 333.134 210.661 333.648 210.574 334.29C210.401 335.572 210.165 337.364 209.916 339.406C209.421 343.46 208.86 348.609 208.641 352.713C208.433 356.625 208.315 361.558 208.249 365.477C208.216 367.444 208.196 369.17 208.184 370.405C208.18 370.766 208.177 371.085 208.175 371.356C207.97 371.819 207.723 372.416 207.481 373.093C206.975 374.51 206.233 376.971 206.48 379.419C206.83 382.887 209.036 385.23 211.048 386.662C213.071 388.101 215.469 389.052 217.528 389.692C219.638 390.348 221.682 390.764 223.173 391.016C223.926 391.144 224.555 391.232 225.005 391.29C225.23 391.318 225.411 391.34 225.54 391.354C225.605 391.361 225.657 391.367 225.696 391.371L225.743 391.376L225.759 391.377L225.765 391.378L225.767 391.378C225.769 391.378 225.77 391.378 226.22 386.731M215.482 332.886L210.861 332.22L210.909 331.888L211.004 331.565L215.482 332.886ZM226.22 386.731L225.993 391.395L225.881 391.389L225.77 391.378L226.22 386.731Z" fill="#A79C96" stroke="#676564" stroke-width="9.33728"/>
<path d="M81.2748 225.302L78.526 221.528L78.3687 221.643L78.2214 221.77L81.2748 225.302ZM81.2748 225.302C78.2214 221.77 78.2205 221.771 78.2195 221.772L78.2166 221.774L78.2076 221.782L78.1769 221.809L78.066 221.905C77.9703 221.989 77.8316 222.111 77.6525 222.27C77.2945 222.587 76.7751 223.052 76.116 223.653C74.7979 224.855 72.9196 226.602 70.6547 228.807C66.1292 233.212 60.0376 239.464 53.7799 246.849C41.4502 261.399 27.7532 281.173 25.0926 300.219C24.4107 305.101 24.2242 309.335 25.8396 313.267C27.4502 317.189 30.5533 320.078 34.4273 323.091C39.0724 326.704 45.211 327.672 50.7982 326.842C56.4193 326.008 62.1137 323.274 66.0367 318.627C68.1704 316.1 69.2052 312.898 69.728 310.739C70.0057 309.591 70.1761 308.576 70.2781 307.842C70.6429 307.29 71.1648 306.506 71.8165 305.538C73.1707 303.528 75.0821 300.733 77.3082 297.595C81.7927 291.275 87.4345 283.74 92.3328 278.417C95.4918 274.984 98.596 271.856 101.576 268.853C102.649 267.771 103.707 266.706 104.744 265.648C108.582 261.737 112.186 257.904 114.889 254.079C114.971 253.963 115.054 253.846 115.136 253.729C117.152 250.879 119.283 247.866 120.5 244.586C121.886 240.853 122.066 236.938 120.647 232.365C119.179 227.636 116.877 223.435 113.467 220.183C110.024 216.899 105.68 214.804 100.527 213.97C95.1535 213.101 89.3492 215.431 85.598 217.302C83.5776 218.31 81.8321 219.352 80.5937 220.139C79.9716 220.535 79.4698 220.871 79.1169 221.113C78.9403 221.234 78.8005 221.332 78.7009 221.403C78.6511 221.438 78.6114 221.467 78.5821 221.488L78.5461 221.514L78.534 221.522L78.5295 221.526L78.5277 221.527C78.5268 221.527 78.526 221.528 81.2748 225.302Z" fill="#A79C96" stroke="#676564" stroke-width="9.33728"/>
<path d="M258.518 225.302L261.267 221.528L261.424 221.643L261.572 221.77L258.518 225.302ZM258.518 225.302C261.572 221.77 261.572 221.771 261.573 221.772L261.576 221.774L261.585 221.782L261.616 221.809L261.727 221.905C261.823 221.989 261.961 222.111 262.14 222.27C262.498 222.587 263.018 223.052 263.677 223.653C264.995 224.855 266.873 226.602 269.138 228.807C273.664 233.212 279.755 239.464 286.013 246.849C298.343 261.399 312.04 281.173 314.7 300.219C315.382 305.101 315.569 309.335 313.953 313.267C312.343 317.189 309.24 320.078 305.366 323.091C300.721 326.704 294.582 327.672 288.995 326.842C283.374 326.008 277.679 323.274 273.756 318.627C271.623 316.1 270.588 312.898 270.065 310.739C269.787 309.591 269.617 308.576 269.515 307.842C269.15 307.29 268.628 306.506 267.977 305.538C266.622 303.528 264.711 300.733 262.485 297.595C258 291.275 252.358 283.74 247.46 278.417C244.301 274.984 241.197 271.856 238.217 268.853C237.144 267.771 236.086 266.706 235.048 265.648C231.211 261.737 227.607 257.904 224.904 254.079C224.822 253.963 224.739 253.846 224.657 253.729C222.641 250.879 220.51 247.866 219.292 244.586C217.907 240.853 217.727 236.938 219.146 232.365C220.614 227.636 222.916 223.435 226.326 220.183C229.769 216.899 234.113 214.804 239.266 213.97C244.639 213.101 250.444 215.431 254.195 217.302C256.215 218.31 257.961 219.352 259.199 220.139C259.821 220.535 260.323 220.871 260.676 221.113C260.853 221.234 260.992 221.332 261.092 221.403C261.142 221.438 261.182 221.467 261.211 221.488L261.247 221.514L261.259 221.522L261.263 221.526L261.265 221.527C261.266 221.527 261.267 221.528 258.518 225.302Z" fill="#A79C96" stroke="#676564" stroke-width="9.33728"/>
<path d="M75.7058 230.966L71.8657 228.311L71.5769 228.729L71.3847 229.199L75.7058 230.966ZM75.7058 230.966C71.8657 228.311 71.8666 228.31 71.8676 228.308L71.8698 228.305L71.8749 228.298L71.8878 228.279L71.9243 228.228C71.9534 228.187 71.992 228.133 72.0397 228.067C72.1353 227.936 72.268 227.757 72.4361 227.538C72.7715 227.102 73.2515 226.505 73.8606 225.813C75.0667 224.444 76.8399 222.639 79.0603 220.992C83.3989 217.774 90.4396 214.516 98.26 218.179C122.567 229.566 152.392 234.727 179.664 234.422C207.123 234.115 231.014 228.284 243.983 218.658C247.48 216.062 251.423 216.424 254.443 217.511C257.398 218.575 260.148 220.529 262.344 222.381C264.596 224.279 266.563 226.326 267.947 227.869C268.645 228.647 269.21 229.313 269.605 229.79C269.802 230.029 269.958 230.222 270.067 230.359C270.097 230.396 270.123 230.429 270.146 230.457C270.165 230.482 270.182 230.503 270.196 230.521L270.234 230.569L270.246 230.584L270.25 230.589L270.251 230.592C270.252 230.592 270.253 230.593 266.565 233.456M75.7058 230.966C71.3847 229.199 71.3845 229.199 71.3842 229.2L71.3834 229.202L71.3805 229.209L71.3701 229.235L71.3314 229.33C71.2977 229.413 71.2485 229.534 71.1848 229.693C71.0573 230.01 70.8715 230.474 70.6355 231.071C70.1635 232.264 69.4902 233.99 68.6795 236.131C67.059 240.411 64.8845 246.363 62.6697 253.051C58.2923 266.27 53.5667 282.916 52.9201 295.17C51.7353 317.627 60.4024 335.542 72.5747 346.548C76.3133 349.928 82.2436 352.667 88.9067 354.925C95.7158 357.232 103.85 359.218 112.465 360.842C129.687 364.088 149.234 365.961 164.721 365.961C184.624 365.961 205.154 365.935 223.327 363.957C241.372 361.993 257.904 358.037 269.335 349.612C282.275 340.074 292.434 318.885 288.995 291.369C287.572 279.986 282.974 264.961 278.859 253.037C276.782 247.019 274.792 241.691 273.322 237.867C272.586 235.953 271.979 234.414 271.555 233.35C271.343 232.819 271.177 232.405 271.063 232.124C271.006 231.983 270.962 231.875 270.932 231.801L270.897 231.716L270.888 231.694L270.886 231.688L270.885 231.686C270.885 231.685 270.884 231.685 266.565 233.456M266.565 233.456L270.253 230.593L270.643 231.096L270.884 231.685L266.565 233.456Z" fill="#A79C96" stroke="#676564" stroke-width="9.33728"/>
<path d="M325.85 144.492C324.88 215.076 296.782 241.26 168.801 246.931C51.5223 240.646 16.8774 210.513 17.8477 139.929C73.4024 188.166 104.567 204.447 168.803 207.051C236.867 209.811 278.2 200.178 325.85 144.492Z" fill="#A79C96"/>
<path d="M174.277 163.511C173.682 163.551 171.454 163.551 172.013 162.325C172.407 161.461 174.902 161.773 174.709 162.837C174.501 163.978 172.456 163.623 171.717 163.565C170.576 163.475 169.758 163.649 169.682 162.271C169.536 159.644 172.623 160.674 174.345 161.058C175.051 161.216 177.785 161.62 177.943 162.864C178.015 163.431 177.088 164.013 176.649 164.131C175.708 164.385 174.994 163.696 174.116 163.565C173.699 163.503 170.634 163.779 171.083 162.797C171.722 161.399 173.72 160.279 175.126 160.964C175.667 161.227 176.296 161.277 175.841 161.732C175.2 162.373 174.911 163.328 174.399 164.063C173.277 165.673 171.067 163.418 170.234 162.46C168.939 160.97 169.69 160.077 171.366 160.169C172.467 160.229 176.303 159.904 176.892 161.031C177.086 161.403 177.78 164.019 177.444 164.239C176.669 164.746 174.883 163.753 174.304 163.43C173.675 163.079 172.766 162.436 172.31 161.813C171.028 160.06 172.697 162.166 172.337 161.085" stroke="#D7C289" stroke-width="2.48994" stroke-linecap="round"/>
<path d="M113.676 158.786C109.669 158.786 106.33 156.391 106.33 161.316C106.33 163.288 111.215 168.528 112.534 164.949C114.911 158.496 105.677 156.896 105.677 160.99C105.677 163.615 110.382 165.603 112.166 163.52C115.076 160.126 107.014 157.435 106.33 159.112C105.003 162.371 113.358 168.983 114.248 161.643C114.622 158.559 110.386 159.492 108.452 159.521C96.8635 159.691 112.942 172.345 112.942 163.194" stroke="#646464" stroke-width="3.76962" stroke-linecap="round"/>
<path d="M240.825 158.786C236.818 158.786 233.479 156.391 233.479 161.316C233.479 163.288 238.364 168.528 239.682 164.949C242.06 158.496 232.826 156.896 232.826 160.99C232.826 163.615 237.53 165.603 239.315 163.52C242.225 160.126 234.162 157.435 233.479 159.112C232.151 162.371 240.507 168.983 241.396 161.643C241.77 158.559 237.535 159.492 235.601 159.521C224.012 159.691 240.09 172.345 240.09 163.194" stroke="#646464" stroke-width="3.76962" stroke-linecap="round"/>
<path d="M287.57 186.536C290.316 188.912 292.968 191.399 295.656 193.839" stroke="#646464" stroke-width="7.53923" stroke-linecap="round"/>
<path d="M297.213 184.505C294.692 186.556 293.08 189.472 290.451 191.477C287.899 193.423 285.261 195.264 282.669 197.156" stroke="#646464" stroke-width="7.53923" stroke-linecap="round"/>
<path d="M177.422 182.846C175.058 178.118 174.709 179.715 171.578 182.846" stroke="#646464" stroke-width="7.53923" stroke-linecap="round"/>
<path d="M148.879 275.588C141.736 271.776 132.038 265.549 132.411 261.911C134.514 257.25 143.465 259.663 146.704 260.56C160.727 264.442 172.038 265.664 186.264 264.613C193.944 264.045 201.853 259.478 209.597 259.574C211.069 259.593 217.805 258.848 216.55 262.44C214.292 268.904 206.126 274.515 200.965 277.083C183.433 285.804 165.969 284.708 148.879 275.588Z" fill="#F7FBF8"/>
</svg>
