<svg width="506" height="65" viewBox="0 0 506 65" fill="none" xmlns="http://www.w3.org/2000/svg">
<g filter="url(#filter0_d_1584_237)">
<mask id="path-1-outside-1_1584_237" maskUnits="userSpaceOnUse" x="0" y="-4" width="506" height="65" fill="black">
<rect fill="white" y="-4" width="506" height="65"/>
<path d="M41.4875 16.7187C41.5893 16.5152 41.7759 16.0911 42.0473 15.4464C42.3527 14.8018 42.5902 14.2929 42.7598 13.9196H37.3652C37.6705 15.0054 37.908 15.9384 38.0777 16.7187H41.4875ZM43.625 23.3348V24.6071H47.442V29.6964H43.625V31.2232H46.6786V35.8036H47.442C47.8152 35.8036 48.0357 35.7696 48.1036 35.7018C48.1714 35.6339 48.2054 35.4134 48.2054 35.0402V23.3348H43.625ZM38.7902 37.3304H41.5893V35.0402H38.7902V37.3304ZM24.2857 15.7009L18.433 21.2991C15.6848 18.2116 12.6313 14.9884 9.27232 11.6295L15.3795 6.03125C18.9759 9.76339 21.9446 12.9866 24.2857 15.7009ZM9.78125 23.8437H22.25V40.6384C22.8268 41.5545 23.4205 42.2161 24.0313 42.6232V16.7187H29.4259C29.2563 16.0741 29.0018 15.1411 28.6625 13.9196H23.0134V7.04911H34.9732V3.99553H44.3884V7.04911H56.8571V13.9196H51.5134C51.2759 14.5643 50.8857 15.4973 50.3429 16.7187H56.0938V33.0045C56.0938 35.0062 56.0429 36.5839 55.9411 37.7375C55.8732 38.8571 55.7545 39.8241 55.5848 40.6384C55.4152 41.4527 55.0929 42.0295 54.6179 42.3687C54.1429 42.6741 53.6339 42.8946 53.0911 43.0304C52.5482 43.1321 51.7679 43.183 50.75 43.183C49.3929 43.183 46.8482 43.0982 43.1161 42.9286L43.0143 41.6562H38.7902V43.183H33.192V31.2232H36.2455V29.6964H32.4286V24.6071H36.2455V23.3348H31.6652V43.183H25.2018C26.4571 43.692 28.4589 44.0312 31.2071 44.2009C33.9554 44.3705 38.2643 44.4554 44.1339 44.4554H57.3661L56.8571 51.8348H44.6429C37.5518 51.8348 32.0723 51.5295 28.2045 50.9188C24.3705 50.342 21.4866 49.3411 19.5527 47.9161C17.7545 49.375 15.6 50.9357 13.0893 52.5982L8.76339 45.4732C10.1884 44.625 11.7152 43.6411 13.3438 42.5214V31.4777H9.78125V23.8437ZM83.2196 27.9152H89.1741V21.2991H85.3571C84.475 24.2848 83.7625 26.4902 83.2196 27.9152ZM98.5893 43.183H108.513V51.0714H76.1964V43.183H89.1741V35.5491H78.7411V28.6786L74.6696 26.8973C74.7375 26.6937 74.8393 26.3884 74.975 25.9812C75.1446 25.5402 75.2804 25.2179 75.3821 25.0143C75.2804 24.7429 75.0938 24.1491 74.8223 23.233C74.5509 22.317 74.3304 21.6045 74.1607 21.0955V52.0893H65.5089V26.7446C64.9661 30.6804 64.542 33.6152 64.2366 35.5491L59.1473 34.2768C60.1652 27.5589 61.0134 21.1973 61.692 15.192L65.5089 15.7518V5.26785H74.1607V15.4464L77.4687 14.4286C77.6384 14.8357 77.8929 15.4804 78.2321 16.3625C79.1482 13.0375 79.9116 9.59375 80.5223 6.03125L88.1563 7.30357C87.9527 9.40714 87.6473 11.4429 87.2402 13.4107H89.1741V5.26785H98.5893V13.4107H108.004V21.2991H98.5893V27.9152H106.987V35.5491H98.5893V43.183ZM140.22 13.9196H145.512C144.698 13.0714 143.816 12.0536 142.866 10.8661C141.916 12.0536 141.034 13.0714 140.22 13.9196ZM147.446 28.933V33.0045H149.737V28.933H147.446ZM138.286 28.933H135.741V33.0045H138.286V28.933ZM147.446 22.317H155.64C154.487 21.5705 153.113 20.5866 151.518 19.3652V20.7902H147.446V22.317ZM138.286 22.317V20.7902H134.214V19.3652C132.62 20.5866 131.246 21.5705 130.092 22.317H138.286ZM125.562 20.5357C125.902 21.1804 126.411 22.1643 127.089 23.4875C127.768 24.8107 128.277 25.7946 128.616 26.4393V22.4696L127.802 20.5357H125.562ZM129.125 52.0893L125.562 44.4554C131.432 42.9964 135.181 41.3 136.81 39.3661H135.741H128.616V35.5491L126.58 37.0759C126.377 36.533 126.037 35.7187 125.562 34.633C125.121 33.5473 124.782 32.733 124.545 32.1902V52.0893H116.402V36.5161C115.486 39.3661 114.383 41.6732 113.094 43.4375L110.04 34.0223C112.89 29.883 114.824 25.3875 115.842 20.5357H111.312V12.9018H116.402V5.26785H124.545V12.9018H129.227C132.484 10.7304 135.588 8.01607 138.54 4.75893H147.192C150.856 8.79643 155.182 12.2741 160.17 15.192L157.116 22.4696V39.3661H148.77C150.33 41.2661 154.13 42.9625 160.17 44.4554L156.607 52.0893C150.975 50.3589 146.547 47.5938 143.324 43.7937C139.796 47.5938 135.062 50.3589 129.125 52.0893ZM174.42 23.3348H181.29V19.6196C178.847 21.0786 176.557 22.317 174.42 23.3348ZM197.83 23.3348C195.693 22.317 193.403 21.0786 190.96 19.6196V23.3348H197.83ZM177.982 41.9107V43.692H194.268V41.9107H177.982ZM177.982 35.2946V37.0759H194.268V35.2946H177.982ZM177.982 30.4598H194.268V28.6786H177.982V30.4598ZM209.536 51.0714H162.714V43.692H168.567V25.9304C167.108 26.5411 165.836 27.033 164.75 27.4062L161.951 19.7723C166.26 18.6187 170.297 17.3464 174.063 15.9554H163.223V8.57589H181.29V4.75893H190.96V8.57589H209.027V15.9554H198.187C201.953 17.3464 205.99 18.6187 210.299 19.7723L207.5 27.4062C206.414 27.033 205.142 26.5411 203.683 25.9304V43.692H209.536V51.0714ZM219.205 40.3839L212.08 33.7679C213.777 31.7321 216.118 28.7973 219.104 24.9634C221.682 21.6045 223.599 19.2973 224.854 18.042C226.11 16.7527 227.229 15.9214 228.213 15.5482C229.197 15.1411 230.605 14.9375 232.437 14.9375C234.066 14.9375 235.372 15.1411 236.356 15.5482C237.34 15.9214 238.663 16.8036 240.326 18.1946C241.988 19.5518 244.737 22.0625 248.571 25.7268C254.983 31.8679 259.445 36.075 261.955 38.3482L255.339 45.9821C249.877 40.9607 244.262 35.6679 238.494 30.1036C236.187 27.8643 234.677 26.4732 233.964 25.9304C233.286 25.3875 232.692 25.1161 232.183 25.1161C231.606 25.1161 231.029 25.3705 230.453 25.8795C229.91 26.3884 228.892 27.6607 227.399 29.6964C224.651 33.4625 221.92 37.025 219.205 40.3839ZM280.786 36.3125C277.732 36.3125 276.205 37.3304 276.205 39.3661C276.205 40.4179 276.562 41.1982 277.274 41.7071C277.987 42.1821 279.157 42.4196 280.786 42.4196C281.939 42.4196 282.737 42.1482 283.178 41.6054C283.619 41.0286 283.839 39.9429 283.839 38.3482V36.4652C283.195 36.3634 282.177 36.3125 280.786 36.3125ZM293.356 40.8929C292.542 47.3393 288.352 50.5625 280.786 50.5625C276.443 50.5625 273.067 49.5616 270.658 47.5598C268.249 45.558 267.045 42.8268 267.045 39.3661C267.045 35.9054 268.232 33.1741 270.607 31.1723C272.982 29.1705 276.375 28.1696 280.786 28.1696C282.177 28.1696 283.195 28.2036 283.839 28.2714V6.28571H293.509V13.4107H307.759V21.5536H293.509V31.0705C297.377 33.0045 302.466 36.533 308.777 41.6562L302.924 48.2723C298.683 44.8455 295.494 42.3857 293.356 40.8929ZM329.134 50.0536L327.862 41.6562C335.428 40.842 340.839 39.6545 344.096 38.0937C347.354 36.533 348.982 34.5821 348.982 32.2411C348.982 31.0536 348.439 30.1714 347.354 29.5946C346.268 28.9839 344.436 28.6786 341.857 28.6786C337.243 28.6786 330.118 29.7812 320.482 31.9866L318.446 23.5893C322.314 22.5714 326.504 21.7232 331.017 21.0446C335.563 20.3661 339.346 20.0268 342.366 20.0268C347.659 20.0268 351.696 21.0616 354.479 23.1312C357.261 25.2009 358.652 28.0679 358.652 31.7321C358.652 42.5893 348.813 48.6964 329.134 50.0536ZM325.571 15.192L326.589 6.79464C334.8 7.8125 343.113 8.32143 351.527 8.32143V16.9732C344.3 16.9732 335.648 16.3795 325.571 15.192ZM374.429 17.7366V9.33929H405.473V17.7366H374.429ZM378.246 24.6071L385.371 29.6964C383.233 31.8 381.757 33.4116 380.943 34.5312C380.163 35.6509 379.772 36.5839 379.772 37.3304C379.772 38.5518 380.587 39.5357 382.215 40.2821C383.878 41.0286 386.371 41.4018 389.696 41.4018C391.766 41.4018 394.514 41.1473 397.941 40.6384C401.368 40.1295 404.303 39.5357 406.746 38.8571L408.527 47.5089C406.016 48.1875 402.895 48.7813 399.163 49.2902C395.43 49.7991 392.275 50.0536 389.696 50.0536C383.454 50.0536 378.585 48.9848 375.09 46.8473C371.596 44.7098 369.848 41.8768 369.848 38.3482C369.848 36.3464 370.459 34.3107 371.68 32.2411C372.936 30.1714 375.124 27.6268 378.246 24.6071ZM434.279 32.1902V32.0884L418.451 33.2589L417.942 25.1161C422.828 24.7429 426.78 23.9795 429.8 22.8259C432.854 21.6723 436.806 19.4161 441.658 16.0571L441.607 15.9554H425.83V7.8125H456.875V15.9554C452.362 18.7375 448.172 21.1634 444.304 23.233V23.3348L461.71 22.0625L462.219 30.2054L446.238 31.325C444.644 32.2071 443.388 33.2759 442.472 34.5312C441.556 35.7527 441.098 36.9402 441.098 38.0937C441.098 39.3152 441.641 40.2143 442.727 40.7911C443.812 41.3679 445.645 41.6562 448.223 41.6562C451.243 41.6562 454.466 41.317 457.893 40.6384L458.911 49.0357C455.416 49.7143 451.854 50.0536 448.223 50.0536C436.687 50.0536 430.92 46.4911 430.92 39.3661C430.92 36.6518 432.039 34.2598 434.279 32.1902ZM485.375 9.84821H497.589L496.062 34.7857H486.902L485.375 9.84821ZM486.393 47V38.8571H496.571V47H486.393Z"/>
</mask>
<path d="M41.4875 16.7187C41.5893 16.5152 41.7759 16.0911 42.0473 15.4464C42.3527 14.8018 42.5902 14.2929 42.7598 13.9196H37.3652C37.6705 15.0054 37.908 15.9384 38.0777 16.7187H41.4875ZM43.625 23.3348V24.6071H47.442V29.6964H43.625V31.2232H46.6786V35.8036H47.442C47.8152 35.8036 48.0357 35.7696 48.1036 35.7018C48.1714 35.6339 48.2054 35.4134 48.2054 35.0402V23.3348H43.625ZM38.7902 37.3304H41.5893V35.0402H38.7902V37.3304ZM24.2857 15.7009L18.433 21.2991C15.6848 18.2116 12.6313 14.9884 9.27232 11.6295L15.3795 6.03125C18.9759 9.76339 21.9446 12.9866 24.2857 15.7009ZM9.78125 23.8437H22.25V40.6384C22.8268 41.5545 23.4205 42.2161 24.0313 42.6232V16.7187H29.4259C29.2563 16.0741 29.0018 15.1411 28.6625 13.9196H23.0134V7.04911H34.9732V3.99553H44.3884V7.04911H56.8571V13.9196H51.5134C51.2759 14.5643 50.8857 15.4973 50.3429 16.7187H56.0938V33.0045C56.0938 35.0062 56.0429 36.5839 55.9411 37.7375C55.8732 38.8571 55.7545 39.8241 55.5848 40.6384C55.4152 41.4527 55.0929 42.0295 54.6179 42.3687C54.1429 42.6741 53.6339 42.8946 53.0911 43.0304C52.5482 43.1321 51.7679 43.183 50.75 43.183C49.3929 43.183 46.8482 43.0982 43.1161 42.9286L43.0143 41.6562H38.7902V43.183H33.192V31.2232H36.2455V29.6964H32.4286V24.6071H36.2455V23.3348H31.6652V43.183H25.2018C26.4571 43.692 28.4589 44.0312 31.2071 44.2009C33.9554 44.3705 38.2643 44.4554 44.1339 44.4554H57.3661L56.8571 51.8348H44.6429C37.5518 51.8348 32.0723 51.5295 28.2045 50.9188C24.3705 50.342 21.4866 49.3411 19.5527 47.9161C17.7545 49.375 15.6 50.9357 13.0893 52.5982L8.76339 45.4732C10.1884 44.625 11.7152 43.6411 13.3438 42.5214V31.4777H9.78125V23.8437ZM83.2196 27.9152H89.1741V21.2991H85.3571C84.475 24.2848 83.7625 26.4902 83.2196 27.9152ZM98.5893 43.183H108.513V51.0714H76.1964V43.183H89.1741V35.5491H78.7411V28.6786L74.6696 26.8973C74.7375 26.6937 74.8393 26.3884 74.975 25.9812C75.1446 25.5402 75.2804 25.2179 75.3821 25.0143C75.2804 24.7429 75.0938 24.1491 74.8223 23.233C74.5509 22.317 74.3304 21.6045 74.1607 21.0955V52.0893H65.5089V26.7446C64.9661 30.6804 64.542 33.6152 64.2366 35.5491L59.1473 34.2768C60.1652 27.5589 61.0134 21.1973 61.692 15.192L65.5089 15.7518V5.26785H74.1607V15.4464L77.4687 14.4286C77.6384 14.8357 77.8929 15.4804 78.2321 16.3625C79.1482 13.0375 79.9116 9.59375 80.5223 6.03125L88.1563 7.30357C87.9527 9.40714 87.6473 11.4429 87.2402 13.4107H89.1741V5.26785H98.5893V13.4107H108.004V21.2991H98.5893V27.9152H106.987V35.5491H98.5893V43.183ZM140.22 13.9196H145.512C144.698 13.0714 143.816 12.0536 142.866 10.8661C141.916 12.0536 141.034 13.0714 140.22 13.9196ZM147.446 28.933V33.0045H149.737V28.933H147.446ZM138.286 28.933H135.741V33.0045H138.286V28.933ZM147.446 22.317H155.64C154.487 21.5705 153.113 20.5866 151.518 19.3652V20.7902H147.446V22.317ZM138.286 22.317V20.7902H134.214V19.3652C132.62 20.5866 131.246 21.5705 130.092 22.317H138.286ZM125.562 20.5357C125.902 21.1804 126.411 22.1643 127.089 23.4875C127.768 24.8107 128.277 25.7946 128.616 26.4393V22.4696L127.802 20.5357H125.562ZM129.125 52.0893L125.562 44.4554C131.432 42.9964 135.181 41.3 136.81 39.3661H135.741H128.616V35.5491L126.58 37.0759C126.377 36.533 126.037 35.7187 125.562 34.633C125.121 33.5473 124.782 32.733 124.545 32.1902V52.0893H116.402V36.5161C115.486 39.3661 114.383 41.6732 113.094 43.4375L110.04 34.0223C112.89 29.883 114.824 25.3875 115.842 20.5357H111.312V12.9018H116.402V5.26785H124.545V12.9018H129.227C132.484 10.7304 135.588 8.01607 138.54 4.75893H147.192C150.856 8.79643 155.182 12.2741 160.17 15.192L157.116 22.4696V39.3661H148.77C150.33 41.2661 154.13 42.9625 160.17 44.4554L156.607 52.0893C150.975 50.3589 146.547 47.5938 143.324 43.7937C139.796 47.5938 135.062 50.3589 129.125 52.0893ZM174.42 23.3348H181.29V19.6196C178.847 21.0786 176.557 22.317 174.42 23.3348ZM197.83 23.3348C195.693 22.317 193.403 21.0786 190.96 19.6196V23.3348H197.83ZM177.982 41.9107V43.692H194.268V41.9107H177.982ZM177.982 35.2946V37.0759H194.268V35.2946H177.982ZM177.982 30.4598H194.268V28.6786H177.982V30.4598ZM209.536 51.0714H162.714V43.692H168.567V25.9304C167.108 26.5411 165.836 27.033 164.75 27.4062L161.951 19.7723C166.26 18.6187 170.297 17.3464 174.063 15.9554H163.223V8.57589H181.29V4.75893H190.96V8.57589H209.027V15.9554H198.187C201.953 17.3464 205.99 18.6187 210.299 19.7723L207.5 27.4062C206.414 27.033 205.142 26.5411 203.683 25.9304V43.692H209.536V51.0714ZM219.205 40.3839L212.08 33.7679C213.777 31.7321 216.118 28.7973 219.104 24.9634C221.682 21.6045 223.599 19.2973 224.854 18.042C226.11 16.7527 227.229 15.9214 228.213 15.5482C229.197 15.1411 230.605 14.9375 232.437 14.9375C234.066 14.9375 235.372 15.1411 236.356 15.5482C237.34 15.9214 238.663 16.8036 240.326 18.1946C241.988 19.5518 244.737 22.0625 248.571 25.7268C254.983 31.8679 259.445 36.075 261.955 38.3482L255.339 45.9821C249.877 40.9607 244.262 35.6679 238.494 30.1036C236.187 27.8643 234.677 26.4732 233.964 25.9304C233.286 25.3875 232.692 25.1161 232.183 25.1161C231.606 25.1161 231.029 25.3705 230.453 25.8795C229.91 26.3884 228.892 27.6607 227.399 29.6964C224.651 33.4625 221.92 37.025 219.205 40.3839ZM280.786 36.3125C277.732 36.3125 276.205 37.3304 276.205 39.3661C276.205 40.4179 276.562 41.1982 277.274 41.7071C277.987 42.1821 279.157 42.4196 280.786 42.4196C281.939 42.4196 282.737 42.1482 283.178 41.6054C283.619 41.0286 283.839 39.9429 283.839 38.3482V36.4652C283.195 36.3634 282.177 36.3125 280.786 36.3125ZM293.356 40.8929C292.542 47.3393 288.352 50.5625 280.786 50.5625C276.443 50.5625 273.067 49.5616 270.658 47.5598C268.249 45.558 267.045 42.8268 267.045 39.3661C267.045 35.9054 268.232 33.1741 270.607 31.1723C272.982 29.1705 276.375 28.1696 280.786 28.1696C282.177 28.1696 283.195 28.2036 283.839 28.2714V6.28571H293.509V13.4107H307.759V21.5536H293.509V31.0705C297.377 33.0045 302.466 36.533 308.777 41.6562L302.924 48.2723C298.683 44.8455 295.494 42.3857 293.356 40.8929ZM329.134 50.0536L327.862 41.6562C335.428 40.842 340.839 39.6545 344.096 38.0937C347.354 36.533 348.982 34.5821 348.982 32.2411C348.982 31.0536 348.439 30.1714 347.354 29.5946C346.268 28.9839 344.436 28.6786 341.857 28.6786C337.243 28.6786 330.118 29.7812 320.482 31.9866L318.446 23.5893C322.314 22.5714 326.504 21.7232 331.017 21.0446C335.563 20.3661 339.346 20.0268 342.366 20.0268C347.659 20.0268 351.696 21.0616 354.479 23.1312C357.261 25.2009 358.652 28.0679 358.652 31.7321C358.652 42.5893 348.813 48.6964 329.134 50.0536ZM325.571 15.192L326.589 6.79464C334.8 7.8125 343.113 8.32143 351.527 8.32143V16.9732C344.3 16.9732 335.648 16.3795 325.571 15.192ZM374.429 17.7366V9.33929H405.473V17.7366H374.429ZM378.246 24.6071L385.371 29.6964C383.233 31.8 381.757 33.4116 380.943 34.5312C380.163 35.6509 379.772 36.5839 379.772 37.3304C379.772 38.5518 380.587 39.5357 382.215 40.2821C383.878 41.0286 386.371 41.4018 389.696 41.4018C391.766 41.4018 394.514 41.1473 397.941 40.6384C401.368 40.1295 404.303 39.5357 406.746 38.8571L408.527 47.5089C406.016 48.1875 402.895 48.7813 399.163 49.2902C395.43 49.7991 392.275 50.0536 389.696 50.0536C383.454 50.0536 378.585 48.9848 375.09 46.8473C371.596 44.7098 369.848 41.8768 369.848 38.3482C369.848 36.3464 370.459 34.3107 371.68 32.2411C372.936 30.1714 375.124 27.6268 378.246 24.6071ZM434.279 32.1902V32.0884L418.451 33.2589L417.942 25.1161C422.828 24.7429 426.78 23.9795 429.8 22.8259C432.854 21.6723 436.806 19.4161 441.658 16.0571L441.607 15.9554H425.83V7.8125H456.875V15.9554C452.362 18.7375 448.172 21.1634 444.304 23.233V23.3348L461.71 22.0625L462.219 30.2054L446.238 31.325C444.644 32.2071 443.388 33.2759 442.472 34.5312C441.556 35.7527 441.098 36.9402 441.098 38.0937C441.098 39.3152 441.641 40.2143 442.727 40.7911C443.812 41.3679 445.645 41.6562 448.223 41.6562C451.243 41.6562 454.466 41.317 457.893 40.6384L458.911 49.0357C455.416 49.7143 451.854 50.0536 448.223 50.0536C436.687 50.0536 430.92 46.4911 430.92 39.3661C430.92 36.6518 432.039 34.2598 434.279 32.1902ZM485.375 9.84821H497.589L496.062 34.7857H486.902L485.375 9.84821ZM486.393 47V38.8571H496.571V47H486.393Z" fill="#7E7360"/>
<path d="M41.4875 16.7187V24.6354C44.4861 24.6354 47.2274 22.9412 48.5684 20.2592L41.4875 16.7187ZM42.0473 15.4464L34.8927 12.0574C34.8432 12.162 34.796 12.2677 34.751 12.3743L42.0473 15.4464ZM42.7598 13.9196L49.9669 17.1956C51.0807 14.7452 50.8732 11.8967 49.416 9.63367C47.9587 7.3706 45.4515 6.00297 42.7598 6.00297V13.9196ZM37.3652 13.9196V6.00297C34.8868 6.00297 32.5514 7.16365 31.0548 9.13921C29.5582 11.1148 29.0732 13.6772 29.7442 16.063L37.3652 13.9196ZM38.0777 16.7187L30.3417 18.4005C31.1328 22.0397 34.3535 24.6354 38.0777 24.6354V16.7187ZM43.625 23.3348V15.4182C39.2527 15.4182 35.7083 18.9626 35.7083 23.3348H43.625ZM43.625 24.6071H35.7083C35.7083 28.9794 39.2527 32.5238 43.625 32.5238V24.6071ZM47.442 24.6071H55.3586C55.3586 20.2349 51.8142 16.6905 47.442 16.6905V24.6071ZM47.442 29.6964V37.6131C51.8142 37.6131 55.3586 34.0687 55.3586 29.6964H47.442ZM43.625 29.6964V21.7798C39.2527 21.7798 35.7083 25.3242 35.7083 29.6964H43.625ZM43.625 31.2232H35.7083C35.7083 35.5955 39.2527 39.1399 43.625 39.1399V31.2232ZM46.6786 31.2232H54.5952C54.5952 26.851 51.0508 23.3065 46.6786 23.3065V31.2232ZM46.6786 35.8036H38.7619C38.7619 40.1758 42.3063 43.7202 46.6786 43.7202V35.8036ZM48.1036 35.7018L53.7015 41.2998L53.7015 41.2997L48.1036 35.7018ZM48.2054 23.3348H56.122C56.122 18.9626 52.5776 15.4182 48.2054 15.4182V23.3348ZM38.7902 37.3304H30.8735C30.8735 41.7026 34.4179 45.247 38.7902 45.247V37.3304ZM41.5893 37.3304V45.247C45.9615 45.247 49.506 41.7026 49.506 37.3304H41.5893ZM41.5893 35.0402H49.506C49.506 30.6679 45.9615 27.1235 41.5893 27.1235V35.0402ZM38.7902 35.0402V27.1235C34.4179 27.1235 30.8735 30.6679 30.8735 35.0402H38.7902ZM24.2857 15.7009L29.7579 21.4218C32.8031 18.509 33.0328 13.7213 30.2806 10.5303L24.2857 15.7009ZM18.433 21.2991L12.5196 26.5627C13.9483 28.1678 15.9682 29.1231 18.1153 29.2094C20.2624 29.2956 22.3524 28.5054 23.9052 27.02L18.433 21.2991ZM9.27232 11.6295L3.92283 5.79366C2.3311 7.25275 1.40443 9.2987 1.35752 11.4575C1.31062 13.6163 2.14754 15.7005 3.67439 17.2274L9.27232 11.6295ZM15.3795 6.03125L21.0801 0.537926C18.0996 -2.55507 13.1963 -2.70704 10.03 0.195444L15.3795 6.03125ZM9.78125 23.8437V15.9271C5.409 15.9271 1.86458 19.4715 1.86458 23.8437H9.78125ZM22.25 23.8437H30.1667C30.1667 19.4715 26.6223 15.9271 22.25 15.9271V23.8437ZM22.25 40.6384H14.3333C14.3333 42.1311 14.7553 43.5933 15.5507 44.8565L22.25 40.6384ZM24.0313 42.6232L19.6399 49.2103C22.0692 50.8298 25.1926 50.9808 27.7668 49.6031C30.341 48.2255 31.9479 45.5428 31.9479 42.6232H24.0313ZM24.0313 16.7187V8.80208C19.659 8.80208 16.1146 12.3465 16.1146 16.7187H24.0313ZM29.4259 16.7187V24.6354C31.8809 24.6354 34.197 23.4965 35.6958 21.5521C37.1947 19.6078 37.7067 17.0782 37.0819 14.704L29.4259 16.7187ZM28.6625 13.9196L36.2904 11.8008C35.3385 8.37431 32.2187 6.00297 28.6625 6.00297V13.9196ZM23.0134 13.9196H15.0967C15.0967 18.2919 18.6411 21.8363 23.0134 21.8363V13.9196ZM23.0134 7.04911V-0.86756C18.6411 -0.86756 15.0967 2.67685 15.0967 7.04911H23.0134ZM34.9732 7.04911V14.9658C39.3455 14.9658 42.8899 11.4214 42.8899 7.04911H34.9732ZM34.9732 3.99553V-3.92113C30.601 -3.92113 27.0565 -0.376719 27.0565 3.99553H34.9732ZM44.3884 3.99553H52.3051C52.3051 -0.376719 48.7606 -3.92113 44.3884 -3.92113V3.99553ZM44.3884 7.04911H36.4717C36.4717 11.4214 40.0161 14.9658 44.3884 14.9658V7.04911ZM56.8571 7.04911H64.7738C64.7738 2.67685 61.2294 -0.86756 56.8571 -0.86756V7.04911ZM56.8571 13.9196V21.8363C61.2294 21.8363 64.7738 18.2919 64.7738 13.9196H56.8571ZM51.5134 13.9196V6.00297C48.1966 6.00297 45.2315 8.07054 44.0848 11.1828L51.5134 13.9196ZM50.3429 16.7187L43.1085 13.5035C42.0201 15.9524 42.2445 18.7856 43.7048 21.0326C45.1651 23.2797 47.663 24.6354 50.3429 24.6354V16.7187ZM56.0938 16.7187H64.0104C64.0104 12.3465 60.466 8.80208 56.0938 8.80208V16.7187ZM55.9411 37.7375L48.055 37.0417C48.0487 37.1139 48.0433 37.1862 48.0389 37.2586L55.9411 37.7375ZM55.5848 40.6384L63.3351 42.253L63.3351 42.253L55.5848 40.6384ZM54.6179 42.3687L58.8989 49.0281C59.0074 48.9583 59.1143 48.8858 59.2193 48.8108L54.6179 42.3687ZM53.0911 43.0304L54.55 50.8114C54.7047 50.7824 54.8585 50.7488 55.0111 50.7107L53.0911 43.0304ZM43.1161 42.9286L35.2246 43.5599C35.5428 47.537 38.7709 50.6559 42.7566 50.8371L43.1161 42.9286ZM43.0143 41.6562L50.9057 41.0249C50.5766 36.9106 47.1417 33.7396 43.0143 33.7396V41.6562ZM38.7902 41.6562V33.7396C34.4179 33.7396 30.8735 37.284 30.8735 41.6562H38.7902ZM38.7902 43.183V51.0997C43.1624 51.0997 46.7068 47.5553 46.7068 43.183H38.7902ZM33.192 43.183H25.2753C25.2753 47.5553 28.8197 51.0997 33.192 51.0997V43.183ZM33.192 31.2232V23.3065C28.8197 23.3065 25.2753 26.851 25.2753 31.2232H33.192ZM36.2455 31.2232V39.1399C40.6178 39.1399 44.1622 35.5955 44.1622 31.2232H36.2455ZM36.2455 29.6964H44.1622C44.1622 25.3242 40.6178 21.7798 36.2455 21.7798V29.6964ZM32.4286 29.6964H24.5119C24.5119 34.0687 28.0563 37.6131 32.4286 37.6131V29.6964ZM32.4286 24.6071V16.6905C28.0563 16.6905 24.5119 20.2349 24.5119 24.6071H32.4286ZM36.2455 24.6071V32.5238C40.6178 32.5238 44.1622 28.9794 44.1622 24.6071H36.2455ZM36.2455 23.3348H44.1622C44.1622 18.9626 40.6178 15.4182 36.2455 15.4182V23.3348ZM31.6652 23.3348V15.4182C27.2929 15.4182 23.7485 18.9626 23.7485 23.3348H31.6652ZM31.6652 43.183V51.0997C36.0374 51.0997 39.5818 47.5553 39.5818 43.183H31.6652ZM25.2018 43.183V35.2664C21.4137 35.2664 18.1565 37.9498 17.4315 41.6679C16.7065 45.3859 18.7169 49.0965 22.2275 50.5197L25.2018 43.183ZM31.2071 44.2009L31.6949 36.2993L31.6949 36.2993L31.2071 44.2009ZM57.3661 44.4554L65.264 45C65.4149 42.811 64.6506 40.6575 63.1534 39.0534C61.6561 37.4494 59.5603 36.5387 57.3661 36.5387V44.4554ZM56.8571 51.8348V59.7515C61.018 59.7515 64.4688 56.5305 64.7551 52.3795L56.8571 51.8348ZM28.2045 50.9188L29.4392 43.099C29.4202 43.096 29.4012 43.093 29.3822 43.0902L28.2045 50.9188ZM19.5527 47.9161L24.2488 41.5427C21.3461 39.4039 17.3648 39.4966 14.5649 41.7683L19.5527 47.9161ZM13.0893 52.5982L6.32222 56.7068C7.43983 58.5476 9.2591 59.8536 11.3606 60.3238C13.4621 60.7941 15.6645 60.3879 17.4601 59.199L13.0893 52.5982ZM8.76339 45.4732L4.71415 38.6705C2.89964 39.7505 1.59182 41.5108 1.08144 43.5598C0.571067 45.6088 0.900437 47.7768 1.99633 49.5818L8.76339 45.4732ZM13.3438 42.5214L17.8288 49.0451C19.977 47.5682 21.2604 45.1284 21.2604 42.5214H13.3438ZM13.3438 31.4777H21.2604C21.2604 27.1054 17.716 23.561 13.3438 23.561L13.3438 31.4777ZM9.78125 31.4777H1.86458C1.86458 35.8499 5.409 39.3943 9.78125 39.3943L9.78125 31.4777ZM48.5684 20.2592C48.8054 19.7851 49.0907 19.1192 49.3436 18.5186L34.751 12.3743C34.6244 12.6751 34.5277 12.9003 34.4576 13.0596C34.4227 13.1388 34.3994 13.1904 34.386 13.2195C34.3698 13.2548 34.3788 13.2339 34.4066 13.1783L48.5684 20.2592ZM49.2019 18.8354C49.5142 18.1763 49.772 17.6243 49.9669 17.1956L35.5528 10.6437C35.4083 10.9614 35.1912 11.4273 34.8927 12.0574L49.2019 18.8354ZM42.7598 6.00297H37.3652V21.8363H42.7598V6.00297ZM29.7442 16.063C30.0225 17.0528 30.2163 17.8236 30.3417 18.4005L45.8137 15.037C45.5998 14.0532 45.3185 12.958 44.9862 11.7762L29.7442 16.063ZM38.0777 24.6354H41.4875V8.80208H38.0777V24.6354ZM35.7083 23.3348V24.6071H51.5417V23.3348H35.7083ZM43.625 32.5238H47.442V16.6905H43.625V32.5238ZM39.5253 24.6071V29.6964H55.3586V24.6071H39.5253ZM47.442 21.7798H43.625V37.6131H47.442V21.7798ZM35.7083 29.6964V31.2232H51.5417V29.6964H35.7083ZM43.625 39.1399H46.6786V23.3065H43.625V39.1399ZM38.7619 31.2232V35.8036H54.5952V31.2232H38.7619ZM46.6786 43.7202H47.442V27.8869H46.6786V43.7202ZM47.442 43.7202C47.8023 43.7202 48.4065 43.7081 49.0911 43.6027C49.4332 43.5501 49.9997 43.4443 50.6589 43.2117C51.2201 43.0136 52.4973 42.5039 53.7015 41.2998L42.5057 30.1038C43.676 28.9336 44.9001 28.4536 45.3892 28.281C45.9763 28.0738 46.4517 27.9892 46.6835 27.9535C46.9438 27.9135 47.1411 27.8992 47.2416 27.8934C47.3499 27.8872 47.4207 27.8869 47.442 27.8869V43.7202ZM53.7015 41.2997C54.9057 40.0955 55.4154 38.8183 55.6135 38.2571C55.8461 37.5979 55.9519 37.0314 56.0045 36.6893C56.1098 36.0047 56.122 35.4005 56.122 35.0402H40.2887C40.2887 35.0189 40.289 34.9481 40.2952 34.8398C40.301 34.7393 40.3153 34.542 40.3553 34.2817C40.391 34.0499 40.4755 33.5746 40.6828 32.9875C40.8554 32.4983 41.3353 31.2742 42.5056 30.1039L53.7015 41.2997ZM56.122 35.0402V23.3348H40.2887V35.0402H56.122ZM48.2054 15.4182H43.625V31.2515H48.2054V15.4182ZM38.7902 45.247H41.5893V29.4137H38.7902V45.247ZM49.506 37.3304V35.0402H33.6726V37.3304H49.506ZM41.5893 27.1235H38.7902V42.9568H41.5893V27.1235ZM30.8735 35.0402V37.3304H46.7068V35.0402H30.8735ZM18.8135 9.97998L12.9609 15.5782L23.9052 27.02L29.7579 21.4218L18.8135 9.97998ZM24.3464 16.0355C21.4827 12.8182 18.322 9.48326 14.8703 6.03153L3.67439 17.2274C6.94053 20.4935 9.88698 23.605 12.5196 26.5627L24.3464 16.0355ZM14.6218 17.4653L20.729 11.8671L10.03 0.195444L3.92283 5.79366L14.6218 17.4653ZM9.67885 11.5246C13.2145 15.1936 16.0764 18.304 18.2908 20.8715L30.2806 10.5303C27.8129 7.66919 24.7373 4.33318 21.0801 0.537926L9.67885 11.5246ZM9.78125 31.7604H22.25V15.9271H9.78125V31.7604ZM14.3333 23.8437V40.6384H30.1667V23.8437H14.3333ZM15.5507 44.8565C16.4633 46.306 17.7691 47.9631 19.6399 49.2103L28.4226 36.0361C28.7717 36.2689 28.9628 36.4706 29.0198 36.534C29.0779 36.5988 29.0487 36.5781 28.9493 36.4203L15.5507 44.8565ZM31.9479 42.6232V16.7187H16.1146V42.6232H31.9479ZM24.0313 24.6354H29.4259V8.80208H24.0313V24.6354ZM37.0819 14.704C36.8983 14.0063 36.6323 13.032 36.2904 11.8008L21.0347 16.0385C21.3712 17.2502 21.6142 18.1419 21.7699 18.7335L37.0819 14.704ZM28.6625 6.00297H23.0134V21.8363H28.6625V6.00297ZM30.9301 13.9196V7.04911H15.0967V13.9196H30.9301ZM23.0134 14.9658H34.9732V-0.86756H23.0134V14.9658ZM42.8899 7.04911V3.99553H27.0565V7.04911H42.8899ZM34.9732 11.9122H44.3884V-3.92113H34.9732V11.9122ZM36.4717 3.99553V7.04911H52.3051V3.99553H36.4717ZM44.3884 14.9658H56.8571V-0.86756H44.3884V14.9658ZM48.9405 7.04911V13.9196H64.7738V7.04911H48.9405ZM56.8571 6.00297H51.5134V21.8363H56.8571V6.00297ZM44.0848 11.1828C43.939 11.5788 43.6336 12.3221 43.1085 13.5035L57.5772 19.934C58.1378 18.6726 58.6128 17.5498 58.9419 16.6565L44.0848 11.1828ZM50.3429 24.6354H56.0938V8.80208H50.3429V24.6354ZM48.1771 16.7187V33.0045H64.0104V16.7187H48.1771ZM48.1771 33.0045C48.1771 34.9148 48.127 36.2267 48.055 37.0417L63.8271 38.4333C63.9588 36.9412 64.0104 35.0977 64.0104 33.0045H48.1771ZM48.0389 37.2586C47.9868 38.1187 47.9047 38.6872 47.8346 39.0238L63.3351 42.253C63.6042 40.961 63.7597 39.5956 63.8432 38.2164L48.0389 37.2586ZM47.8346 39.0238C47.8989 38.7148 48.2976 37.1544 50.0164 35.9267L59.2193 48.8108C61.8882 46.9045 62.9314 44.1905 63.3351 42.253L47.8346 39.0238ZM50.3369 35.7094C50.5812 35.5524 50.8687 35.4256 51.171 35.3501L55.0111 50.7107C56.3991 50.3637 57.7046 49.7958 58.8989 49.0281L50.3369 35.7094ZM51.6321 35.2493C51.771 35.2232 51.7757 35.2324 51.5835 35.245C51.4068 35.2565 51.1351 35.2664 50.75 35.2664V51.0997C51.922 51.0997 53.2816 51.0493 54.55 50.8114L51.6321 35.2493ZM50.75 35.2664C49.5986 35.2664 47.226 35.1905 43.4756 35.0201L42.7566 50.8371C46.4705 51.0059 49.1871 51.0997 50.75 51.0997V35.2664ZM51.0075 42.2972L50.9057 41.0249L35.1228 42.2876L35.2246 43.5599L51.0075 42.2972ZM43.0143 33.7396H38.7902V49.5729H43.0143V33.7396ZM30.8735 41.6562V43.183H46.7068V41.6562H30.8735ZM38.7902 35.2664H33.192V51.0997H38.7902V35.2664ZM41.1086 43.183V31.2232H25.2753V43.183H41.1086ZM33.192 39.1399H36.2455V23.3065H33.192V39.1399ZM44.1622 31.2232V29.6964H28.3289V31.2232H44.1622ZM36.2455 21.7798H32.4286V37.6131H36.2455V21.7798ZM40.3452 29.6964V24.6071H24.5119V29.6964H40.3452ZM32.4286 32.5238H36.2455V16.6905H32.4286V32.5238ZM44.1622 24.6071V23.3348H28.3289V24.6071H44.1622ZM36.2455 15.4182H31.6652V31.2515H36.2455V15.4182ZM23.7485 23.3348V43.183H39.5818V23.3348H23.7485ZM31.6652 35.2664H25.2018V51.0997H31.6652V35.2664ZM22.2275 50.5197C24.732 51.5351 27.8102 51.9229 30.7194 52.1025L31.6949 36.2993C30.5095 36.2261 29.6146 36.1235 28.9676 36.0138C28.2819 35.8976 28.0791 35.807 28.1761 35.8463L22.2275 50.5197ZM30.7194 52.1025C33.7262 52.2881 38.2405 52.372 44.1339 52.372V36.5387C38.2881 36.5387 34.1845 36.4529 31.6949 36.2993L30.7194 52.1025ZM44.1339 52.372H57.3661V36.5387H44.1339V52.372ZM49.4682 43.9107L48.9592 51.2901L64.7551 52.3795L65.264 45L49.4682 43.9107ZM56.8571 43.9182H44.6429V59.7515H56.8571V43.9182ZM44.6429 43.9182C37.6911 43.9182 32.6961 43.6132 29.4392 43.099L26.9698 58.7385C31.4486 59.4457 37.4125 59.7515 44.6429 59.7515V43.9182ZM29.3822 43.0902C26.124 42.6 24.6969 41.8729 24.2488 41.5427L14.8565 54.2894C18.2763 56.8093 22.617 58.0839 27.0267 58.7473L29.3822 43.0902ZM14.5649 41.7683C13.0134 43.027 11.0757 44.4366 8.71852 45.9975L17.4601 59.199C20.1243 57.4348 22.4955 55.723 24.5405 54.0639L14.5649 41.7683ZM19.8564 48.4896L15.5305 41.3646L1.99633 49.5818L6.32222 56.7068L19.8564 48.4896ZM12.8126 52.2759C14.4107 51.3247 16.084 50.2446 17.8288 49.0451L8.85873 35.9978C7.34635 37.0375 5.96606 37.9253 4.71415 38.6705L12.8126 52.2759ZM21.2604 42.5214V31.4777H5.42708V42.5214H21.2604ZM13.3438 23.561H9.78125V39.3943H13.3438V23.561ZM17.6979 31.4777V23.8437H1.86458V31.4777H17.6979ZM83.2196 27.9152L75.8216 25.0969C74.8947 27.5301 75.2235 30.2635 76.701 32.4075C78.1785 34.5515 80.6158 35.8318 83.2196 35.8318V27.9152ZM89.1741 27.9152V35.8318C93.5464 35.8318 97.0908 32.2874 97.0908 27.9152H89.1741ZM89.1741 21.2991H97.0908C97.0908 16.9269 93.5464 13.3824 89.1741 13.3824V21.2991ZM85.3571 21.2991V13.3824C81.8488 13.3824 78.759 15.6914 77.7649 19.0559L85.3571 21.2991ZM98.5893 43.183H90.6726C90.6726 47.5553 94.217 51.0997 98.5893 51.0997V43.183ZM108.513 43.183H116.43C116.43 38.8108 112.886 35.2664 108.513 35.2664V43.183ZM108.513 51.0714V58.9881C112.886 58.9881 116.43 55.4437 116.43 51.0714H108.513ZM76.1964 51.0714H68.2798C68.2798 55.4437 71.8242 58.9881 76.1964 58.9881V51.0714ZM76.1964 43.183V35.2664C71.8242 35.2664 68.2798 38.8108 68.2798 43.183H76.1964ZM89.1741 43.183V51.0997C93.5464 51.0997 97.0908 47.5553 97.0908 43.183H89.1741ZM89.1741 35.5491H97.0908C97.0908 31.1769 93.5464 27.6324 89.1741 27.6324V35.5491ZM78.7411 35.5491H70.8244C70.8244 39.9214 74.3688 43.4658 78.7411 43.4658V35.5491ZM78.7411 28.6786H86.6577C86.6577 25.5333 84.7958 22.6863 81.9142 21.4257L78.7411 28.6786ZM74.6696 26.8973L67.1592 24.3939C65.8644 28.2783 67.7453 32.5091 71.4965 34.1502L74.6696 26.8973ZM74.975 25.9812L67.586 23.1393C67.543 23.2512 67.5025 23.3641 67.4646 23.4778L74.975 25.9812ZM75.3821 25.0143L82.463 28.5547C83.4475 26.5858 83.5677 24.2958 82.7948 22.2346L75.3821 25.0143ZM74.8223 23.233L82.4128 20.984L82.4128 20.984L74.8223 23.233ZM74.1607 21.0955L81.6711 18.5921C80.4433 14.9085 76.7252 12.6591 72.8926 13.2811C69.06 13.903 66.244 17.2128 66.244 21.0955L74.1607 21.0955ZM74.1607 52.0893V60.006C78.533 60.006 82.0774 56.4615 82.0774 52.0893H74.1607ZM65.5089 52.0893H57.5923C57.5923 56.4615 61.1367 60.006 65.5089 60.006V52.0893ZM65.5089 26.7446H73.4256C73.4256 22.5828 70.2031 19.1316 66.0511 18.8466C61.899 18.5616 58.2352 21.5401 57.6665 25.6629L65.5089 26.7446ZM64.2366 35.5491L62.3165 43.2294C64.4713 43.7681 66.7533 43.3768 68.6056 42.151C70.4579 40.9253 71.71 38.9778 72.0564 36.7838L64.2366 35.5491ZM59.1473 34.2768L51.32 33.0908C50.7084 37.1273 53.2666 40.9669 57.2272 41.9571L59.1473 34.2768ZM61.692 15.192L62.8408 7.3591C60.7184 7.04781 58.5606 7.61111 56.8611 8.92007C55.1617 10.229 54.0662 12.1716 53.8254 14.3031L61.692 15.192ZM65.5089 15.7518L64.3601 23.5847C66.6359 23.9184 68.9443 23.2459 70.6848 21.7421C72.4252 20.2383 73.4256 18.0519 73.4256 15.7518H65.5089ZM65.5089 5.26785V-2.64881C61.1367 -2.64881 57.5923 0.895601 57.5923 5.26785H65.5089ZM74.1607 5.26785H82.0774C82.0774 0.895601 78.533 -2.64881 74.1607 -2.64881V5.26785ZM74.1607 15.4464H66.244C66.244 17.9588 67.4365 20.3219 69.4574 21.8145C71.4783 23.3071 74.0877 23.7519 76.4889 23.013L74.1607 15.4464ZM77.4687 14.4286L84.7764 11.3837C83.2082 7.61991 79.0377 5.66287 75.1406 6.86199L77.4687 14.4286ZM78.2321 16.3625L70.8432 19.2044C72.0703 22.395 75.2069 24.4376 78.6212 24.2696C82.0356 24.1016 84.9564 21.761 85.8644 18.4653L78.2321 16.3625ZM80.5223 6.03125L81.8238 -1.7777C77.5252 -2.49415 73.4558 0.398326 72.7195 4.69362L80.5223 6.03125ZM88.1563 7.30357L96.0361 8.06614C96.437 3.92408 93.5625 0.178752 89.4577 -0.505381L88.1563 7.30357ZM87.2402 13.4107L79.4877 11.8068C79.0053 14.1383 79.5979 16.5632 81.1013 18.4095C82.6047 20.2558 84.8592 21.3274 87.2402 21.3274V13.4107ZM89.1741 13.4107V21.3274C93.5464 21.3274 97.0908 17.783 97.0908 13.4107H89.1741ZM89.1741 5.26785V-2.64881C84.8019 -2.64881 81.2574 0.895601 81.2574 5.26785H89.1741ZM98.5893 5.26785H106.506C106.506 0.895601 102.962 -2.64881 98.5893 -2.64881V5.26785ZM98.5893 13.4107H90.6726C90.6726 17.783 94.217 21.3274 98.5893 21.3274V13.4107ZM108.004 13.4107H115.921C115.921 9.03846 112.377 5.49405 108.004 5.49405V13.4107ZM108.004 21.2991V29.2158C112.377 29.2158 115.921 25.6714 115.921 21.2991H108.004ZM98.5893 21.2991V13.3824C94.217 13.3824 90.6726 16.9269 90.6726 21.2991H98.5893ZM98.5893 27.9152H90.6726C90.6726 32.2874 94.217 35.8318 98.5893 35.8318V27.9152ZM106.987 27.9152H114.903C114.903 23.5429 111.359 19.9985 106.987 19.9985V27.9152ZM106.987 35.5491V43.4658C111.359 43.4658 114.903 39.9214 114.903 35.5491H106.987ZM98.5893 35.5491V27.6324C94.217 27.6324 90.6726 31.1769 90.6726 35.5491H98.5893ZM83.2196 35.8318H89.1741V19.9985H83.2196V35.8318ZM97.0908 27.9152V21.2991H81.2574V27.9152H97.0908ZM89.1741 13.3824H85.3571V29.2158H89.1741V13.3824ZM77.7649 19.0559C76.8941 22.0034 76.2515 23.9685 75.8216 25.0969L90.6177 30.7335C91.2735 29.0118 92.0559 26.5662 92.9494 23.5423L77.7649 19.0559ZM98.5893 51.0997H108.513V35.2664H98.5893V51.0997ZM100.597 43.183V51.0714H116.43V43.183H100.597ZM108.513 43.1548H76.1964V58.9881H108.513V43.1548ZM84.1131 51.0714V43.183H68.2798V51.0714H84.1131ZM76.1964 51.0997H89.1741V35.2664H76.1964V51.0997ZM97.0908 43.183V35.5491H81.2574V43.183H97.0908ZM89.1741 27.6324H78.7411V43.4658H89.1741V27.6324ZM86.6577 35.5491V28.6786H70.8244V35.5491H86.6577ZM81.9142 21.4257L77.8428 19.6444L71.4965 34.1502L75.5679 35.9315L81.9142 21.4257ZM82.1801 29.4008C82.2479 29.1972 82.3497 28.8919 82.4854 28.4847L67.4646 23.4778C67.3289 23.8849 67.2271 24.1903 67.1592 24.3939L82.1801 29.4008ZM82.364 28.8232C82.4286 28.655 82.4734 28.5447 82.5003 28.4808C82.5132 28.4501 82.5177 28.4403 82.5145 28.4476C82.512 28.453 82.4945 28.4918 82.463 28.5547L68.3013 21.4738C68.0197 22.0369 67.7718 22.6563 67.586 23.1393L82.364 28.8232ZM82.7948 22.2346C82.8172 22.2944 82.8208 22.3082 82.8003 22.2468C82.7827 22.1941 82.7558 22.1112 82.7183 21.9918C82.6429 21.752 82.5419 21.4198 82.4128 20.984L67.2318 25.4821C67.4844 26.3345 67.7509 27.2109 67.9695 27.794L82.7948 22.2346ZM82.4128 20.984C82.1323 20.0373 81.8825 19.2261 81.6711 18.5921L66.6503 23.599C66.7783 23.9828 66.9695 24.5966 67.2318 25.4821L82.4128 20.984ZM66.244 21.0955V52.0893H82.0774V21.0955H66.244ZM74.1607 44.1726H65.5089V60.006H74.1607V44.1726ZM73.4256 52.0893V26.7446H57.5923V52.0893H73.4256ZM57.6665 25.6629C57.1251 29.5882 56.7096 32.4601 56.4168 34.3144L72.0564 36.7838C72.3743 34.7702 72.807 31.7725 73.3513 27.8264L57.6665 25.6629ZM66.1567 27.8688L61.0674 26.5965L57.2272 41.9571L62.3165 43.2294L66.1567 27.8688ZM66.9747 35.4627C68.0057 28.658 68.8675 22.1967 69.5586 16.0808L53.8254 14.3031C53.1593 20.1979 52.3247 26.4598 51.32 33.0908L66.9747 35.4627ZM60.5431 23.0248L64.3601 23.5847L66.6577 7.91892L62.8408 7.3591L60.5431 23.0248ZM73.4256 15.7518V5.26785H57.5923V15.7518H73.4256ZM65.5089 13.1845H74.1607V-2.64881L65.5089 -2.64881V13.1845ZM66.244 5.26785V15.4464H82.0774V5.26785H66.244ZM76.4889 23.013L79.7969 21.9952L75.1406 6.86199L71.8325 7.87985L76.4889 23.013ZM70.1611 17.4734C70.286 17.7733 70.5075 18.3318 70.8432 19.2044L85.6211 13.5206C85.2782 12.6289 84.9908 11.8982 84.7764 11.3837L70.1611 17.4734ZM85.8644 18.4653C86.8532 14.8765 87.6724 11.1768 88.3252 7.36888L72.7195 4.69362C72.1508 8.01066 71.4432 11.1985 70.5998 14.2597L85.8644 18.4653ZM79.2208 13.8402L86.8548 15.1125L89.4577 -0.505381L81.8238 -1.7777L79.2208 13.8402ZM80.2764 6.541C80.0988 8.37647 79.8345 10.1307 79.4877 11.8068L94.9927 15.0147C95.4602 12.755 95.8066 10.4378 96.0361 8.06614L80.2764 6.541ZM87.2402 21.3274H89.1741V5.49405H87.2402V21.3274ZM97.0908 13.4107V5.26785H81.2574V13.4107H97.0908ZM89.1741 13.1845H98.5893V-2.64881H89.1741V13.1845ZM90.6726 5.26785V13.4107H106.506V5.26785H90.6726ZM98.5893 21.3274H108.004V5.49405H98.5893V21.3274ZM100.088 13.4107V21.2991H115.921V13.4107H100.088ZM108.004 13.3824H98.5893V29.2158H108.004V13.3824ZM90.6726 21.2991V27.9152H106.506V21.2991H90.6726ZM98.5893 35.8318H106.987V19.9985H98.5893V35.8318ZM99.0699 27.9152V35.5491H114.903V27.9152H99.0699ZM106.987 27.6324H98.5893V43.4658H106.987V27.6324ZM90.6726 35.5491V43.183H106.506V35.5491H90.6726ZM140.22 13.9196L134.509 8.4371C132.312 10.7258 131.693 14.1051 132.937 17.0237C134.181 19.9423 137.047 21.8363 140.22 21.8363V13.9196ZM145.512 13.9196V21.8363C148.685 21.8363 151.551 19.9423 152.795 17.0237C154.039 14.1051 153.421 10.7258 151.223 8.4371L145.512 13.9196ZM142.866 10.8661L149.048 5.92057C147.546 4.04261 145.271 2.9494 142.866 2.9494C140.461 2.9494 138.187 4.04261 136.684 5.92057L142.866 10.8661ZM147.446 28.933V21.0164C143.074 21.0164 139.53 24.5608 139.53 28.933H147.446ZM147.446 33.0045H139.53C139.53 37.3767 143.074 40.9211 147.446 40.9211V33.0045ZM149.737 33.0045V40.9211C154.109 40.9211 157.653 37.3767 157.653 33.0045H149.737ZM149.737 28.933H157.653C157.653 24.5608 154.109 21.0164 149.737 21.0164V28.933ZM138.286 28.933H146.202C146.202 24.5608 142.658 21.0164 138.286 21.0164V28.933ZM135.741 28.933V21.0164C131.369 21.0164 127.824 24.5608 127.824 28.933H135.741ZM135.741 33.0045H127.824C127.824 37.3767 131.369 40.9211 135.741 40.9211V33.0045ZM138.286 33.0045V40.9211C142.658 40.9211 146.202 37.3767 146.202 33.0045H138.286ZM147.446 22.317H139.53C139.53 26.6892 143.074 30.2336 147.446 30.2336V22.317ZM155.64 22.317V30.2336C159.149 30.2336 162.239 27.9242 163.233 24.5591C164.226 21.1941 162.887 17.5765 159.941 15.6704L155.64 22.317ZM151.518 19.3652L156.332 13.0803C153.94 11.2481 150.715 10.9326 148.013 12.2664C145.312 13.6003 143.601 16.3521 143.601 19.3652H151.518ZM151.518 20.7902V28.7068C155.89 28.7068 159.435 25.1624 159.435 20.7902H151.518ZM147.446 20.7902V12.8735C143.074 12.8735 139.53 16.4179 139.53 20.7902H147.446ZM138.286 22.317V30.2336C142.658 30.2336 146.202 26.6892 146.202 22.317H138.286ZM138.286 20.7902H146.202C146.202 16.4179 142.658 12.8735 138.286 12.8735V20.7902ZM134.214 20.7902H126.298C126.298 25.1624 129.842 28.7068 134.214 28.7068V20.7902ZM134.214 19.3652H142.131C142.131 16.3521 140.421 13.6003 137.719 12.2664C135.017 10.9326 131.792 11.2481 129.4 13.0803L134.214 19.3652ZM130.092 22.317L125.791 15.6704C122.845 17.5765 121.506 21.1941 122.499 24.5591C123.493 27.9242 126.583 30.2336 130.092 30.2336V22.317ZM125.562 20.5357V12.619C122.789 12.619 120.218 14.07 118.785 16.444C117.352 18.818 117.265 21.7689 118.557 24.2229L125.562 20.5357ZM127.089 23.4875L120.045 27.1L120.045 27.1L127.089 23.4875ZM128.616 26.4393L121.61 30.1264C123.306 33.3482 126.981 34.9982 130.515 34.1248C134.05 33.2515 136.533 30.0801 136.533 26.4393H128.616ZM128.616 22.4696H136.533C136.533 21.4145 136.322 20.37 135.912 19.3975L128.616 22.4696ZM127.802 20.5357L135.098 17.4636C133.862 14.528 130.987 12.619 127.802 12.619V20.5357ZM129.125 52.0893L121.951 55.4371C123.603 58.9769 127.59 60.7827 131.34 59.6898L129.125 52.0893ZM125.562 44.4554L123.653 36.7725C121.357 37.3431 119.437 38.9106 118.418 41.0456C117.399 43.1806 117.388 45.6594 118.389 47.8032L125.562 44.4554ZM136.81 39.3661L142.865 44.4655C144.849 42.1102 145.287 38.8185 143.988 36.0267C142.689 33.2348 139.889 31.4494 136.81 31.4494V39.3661ZM128.616 39.3661H120.699C120.699 43.7383 124.244 47.2827 128.616 47.2827V39.3661ZM128.616 35.5491H136.533C136.533 32.5505 134.839 29.8092 132.157 28.4682C129.474 27.1272 126.265 27.4166 123.866 29.2158L128.616 35.5491ZM126.58 37.0759L119.168 39.8556C120.043 42.19 121.967 43.9757 124.36 44.6749C126.753 45.3741 129.336 44.9051 131.33 43.4092L126.58 37.0759ZM125.562 34.633L118.228 37.6127C118.254 37.6775 118.282 37.742 118.31 37.8062L125.562 34.633ZM124.545 32.1902L131.798 29.017C130.295 25.5837 126.592 23.6739 122.924 24.4412C119.256 25.2085 116.628 28.4427 116.628 32.1902H124.545ZM124.545 52.0893V60.006C128.917 60.006 132.461 56.4615 132.461 52.0893H124.545ZM116.402 52.0893H108.485C108.485 56.4615 112.03 60.006 116.402 60.006V52.0893ZM116.402 36.5161H124.318C124.318 32.6172 121.48 29.2988 117.628 28.6949C113.776 28.0911 110.058 30.3816 108.865 34.0935L116.402 36.5161ZM113.094 43.4375L105.563 45.8798C106.481 48.7086 108.906 50.7846 111.842 51.2546C114.779 51.7247 117.731 50.5095 119.486 48.1085L113.094 43.4375ZM110.04 34.0223L103.52 29.5328C102.123 31.5606 101.75 34.1227 102.51 36.4646L110.04 34.0223ZM115.842 20.5357L123.59 22.1612C124.08 19.8272 123.491 17.3968 121.988 15.5455C120.485 13.6941 118.227 12.619 115.842 12.619V20.5357ZM111.312 20.5357H103.396C103.396 24.908 106.94 28.4524 111.312 28.4524V20.5357ZM111.312 12.9018V4.98512C106.94 4.98512 103.396 8.52953 103.396 12.9018H111.312ZM116.402 12.9018V20.8185C120.774 20.8185 124.318 17.274 124.318 12.9018H116.402ZM116.402 5.26785V-2.64881C112.03 -2.64881 108.485 0.895601 108.485 5.26785H116.402ZM124.545 5.26785H132.461C132.461 0.895601 128.917 -2.64881 124.545 -2.64881V5.26785ZM124.545 12.9018H116.628C116.628 17.274 120.172 20.8185 124.545 20.8185V12.9018ZM129.227 12.9018V20.8185C130.79 20.8185 132.318 20.3558 133.618 19.4888L129.227 12.9018ZM138.54 4.75893V-3.15774C136.305 -3.15774 134.175 -2.21321 132.674 -0.557267L138.54 4.75893ZM147.192 4.75893L153.054 -0.561494C151.554 -2.21488 149.425 -3.15774 147.192 -3.15774V4.75893ZM160.17 15.192L167.47 18.255C169.005 14.5948 167.593 10.3631 164.167 8.35878L160.17 15.192ZM157.116 22.4696L149.816 19.4067C149.409 20.3766 149.199 21.4178 149.199 22.4696H157.116ZM157.116 39.3661V47.2827C161.488 47.2827 165.033 43.7383 165.033 39.3661H157.116ZM148.77 39.3661V31.4494C145.708 31.4494 142.921 33.2148 141.612 35.9829C140.304 38.7509 140.709 42.0252 142.652 44.3911L148.77 39.3661ZM160.17 44.4554L167.344 47.8032C168.345 45.6578 168.333 43.177 167.312 41.041C166.291 38.905 164.368 37.3381 162.069 36.77L160.17 44.4554ZM156.607 52.0893L154.282 59.6569C158.058 60.8168 162.111 59.0164 163.781 55.4371L156.607 52.0893ZM143.324 43.7937L149.361 38.6728C147.897 36.9468 145.765 35.9299 143.502 35.8791C141.239 35.8282 139.063 36.7483 137.523 38.4068L143.324 43.7937ZM140.22 21.8363H145.512V6.00297H140.22V21.8363ZM151.223 8.4371C150.614 7.80194 149.89 6.97277 149.048 5.92057L136.684 15.8116C137.742 17.1344 138.783 18.3409 139.802 19.4022L151.223 8.4371ZM136.684 5.92057C135.842 6.97277 135.118 7.80194 134.509 8.4371L145.931 19.4022C146.949 18.3409 147.99 17.1344 149.048 15.8116L136.684 5.92057ZM139.53 28.933V33.0045H155.363V28.933H139.53ZM147.446 40.9211H149.737V25.0878H147.446V40.9211ZM157.653 33.0045V28.933H141.82V33.0045H157.653ZM149.737 21.0164H147.446V36.8497H149.737V21.0164ZM138.286 21.0164H135.741V36.8497H138.286V21.0164ZM127.824 28.933V33.0045H143.658V28.933H127.824ZM135.741 40.9211H138.286V25.0878H135.741V40.9211ZM146.202 33.0045V28.933H130.369V33.0045H146.202ZM147.446 30.2336H155.64V14.4003H147.446V30.2336ZM159.941 15.6704C159.023 15.0764 157.829 14.2267 156.332 13.0803L146.704 25.65C148.396 26.9465 149.95 28.0647 151.339 28.9636L159.941 15.6704ZM143.601 19.3652V20.7902H159.435V19.3652H143.601ZM151.518 12.8735H147.446V28.7068H151.518V12.8735ZM139.53 20.7902V22.317H155.363V20.7902H139.53ZM146.202 22.317V20.7902H130.369V22.317H146.202ZM138.286 12.8735H134.214V28.7068H138.286V12.8735ZM142.131 20.7902V19.3652H126.298V20.7902H142.131ZM129.4 13.0803C127.904 14.2267 126.709 15.0764 125.791 15.6704L134.393 28.9636C135.782 28.0647 137.336 26.9465 139.028 25.65L129.4 13.0803ZM130.092 30.2336H138.286V14.4003H130.092V30.2336ZM118.557 24.2229C118.876 24.8286 119.369 25.7817 120.045 27.1L134.134 19.875C133.453 18.5468 132.928 17.5321 132.568 16.8485L118.557 24.2229ZM120.045 27.1C120.726 28.4282 121.251 29.4429 121.61 30.1264L135.622 22.7521C135.303 22.1464 134.81 21.1933 134.134 19.875L120.045 27.1ZM136.533 26.4393V22.4696H120.699V26.4393H136.533ZM135.912 19.3975L135.098 17.4636L120.506 23.6078L121.32 25.5418L135.912 19.3975ZM127.802 12.619H125.562V28.4524H127.802V12.619ZM136.299 48.7414L132.736 41.1075L118.389 47.8032L121.951 55.4371L136.299 48.7414ZM127.472 52.1383C130.677 51.3417 133.578 50.4154 136.04 49.3015C138.395 48.2362 140.958 46.7307 142.865 44.4655L130.754 34.2667C131.033 33.9353 130.908 34.2451 129.513 34.8762C128.226 35.4587 126.318 36.1101 123.653 36.7725L127.472 52.1383ZM136.81 31.4494H135.741V47.2827H136.81V31.4494ZM135.741 31.4494H128.616V47.2827H135.741V31.4494ZM136.533 39.3661V35.5491H120.699V39.3661H136.533ZM123.866 29.2158L121.83 30.7426L131.33 43.4092L133.366 41.8824L123.866 29.2158ZM133.993 34.2962C133.711 33.5454 133.302 32.571 132.815 31.4599L118.31 37.8062C118.773 38.8665 119.042 39.5207 119.168 39.8556L133.993 34.2962ZM132.897 31.6534C132.45 30.5524 132.079 29.6592 131.798 29.017L117.292 35.3633C117.486 35.8068 117.793 36.5422 118.228 37.6127L132.897 31.6534ZM116.628 32.1902V52.0893H132.461V32.1902H116.628ZM124.545 44.1726H116.402V60.006H124.545V44.1726ZM124.318 52.0893V36.5161H108.485V52.0893H124.318ZM108.865 34.0935C108.119 36.4141 107.345 37.8862 106.702 38.7665L119.486 48.1085C121.421 45.4603 122.852 42.3181 123.939 38.9386L108.865 34.0935ZM120.624 40.9952L117.571 31.58L102.51 36.4646L105.563 45.8798L120.624 40.9952ZM116.561 38.5119C119.997 33.5208 122.354 28.0539 123.59 22.1612L108.094 18.9103C107.294 22.7211 105.783 26.2452 103.52 29.5328L116.561 38.5119ZM115.842 12.619H111.312V28.4524H115.842V12.619ZM119.229 20.5357V12.9018H103.396V20.5357H119.229ZM111.312 20.8185H116.402V4.98512H111.312V20.8185ZM124.318 12.9018V5.26785H108.485V12.9018H124.318ZM116.402 13.1845H124.545V-2.64881H116.402V13.1845ZM116.628 5.26785V12.9018H132.461V5.26785H116.628ZM124.545 20.8185H129.227V4.98512H124.545V20.8185ZM133.618 19.4888C137.479 16.915 141.07 13.7568 144.406 10.0751L132.674 -0.557267C130.107 2.27535 127.489 4.54572 124.835 6.31472L133.618 19.4888ZM138.54 12.6756H147.192V-3.15774H138.54V12.6756ZM141.33 10.0793C145.566 14.7477 150.531 18.7251 156.172 22.0252L164.167 8.35878C159.833 5.82307 156.146 2.84518 153.054 -0.561494L141.33 10.0793ZM152.87 12.129L149.816 19.4067L164.416 25.5326L167.47 18.255L152.87 12.129ZM149.199 22.4696V39.3661H165.033V22.4696H149.199ZM157.116 31.4494H148.77V47.2827H157.116V31.4494ZM142.652 44.3911C144.575 46.7322 147.218 48.2457 149.563 49.2924C152.045 50.4004 154.995 51.3311 158.27 52.1407L162.069 36.77C159.305 36.0867 157.335 35.4228 156.017 34.8344C154.562 34.1847 154.525 33.9 154.887 34.3411L142.652 44.3911ZM152.996 41.1075L149.433 48.7414L163.781 55.4371L167.344 47.8032L152.996 41.1075ZM158.932 44.5217C154.478 43.1533 151.44 41.1229 149.361 38.6728L137.287 48.9147C141.655 54.0646 147.472 57.5646 154.282 59.6569L158.932 44.5217ZM137.523 38.4068C135.14 40.9724 131.74 43.0811 126.91 44.4888L131.34 59.6898C138.385 57.6367 144.451 54.2151 149.125 49.1807L137.523 38.4068ZM174.42 23.3348L171.016 16.1872C167.675 17.7779 165.882 21.4705 166.698 25.0795C167.513 28.6886 170.72 31.2515 174.42 31.2515V23.3348ZM181.29 23.3348V31.2515C185.662 31.2515 189.207 27.7071 189.207 23.3348H181.29ZM181.29 19.6196H189.207C189.207 16.7704 187.676 14.1409 185.198 12.7346C182.72 11.3282 179.677 11.3619 177.231 12.8228L181.29 19.6196ZM197.83 23.3348V31.2515C201.53 31.2515 204.737 28.6886 205.552 25.0795C206.368 21.4705 204.575 17.7779 201.234 16.1872L197.83 23.3348ZM190.96 19.6196L195.019 12.8228C192.573 11.3619 189.53 11.3282 187.052 12.7346C184.574 14.1409 183.043 16.7704 183.043 19.6196L190.96 19.6196ZM190.96 23.3348H183.043C183.043 27.7071 186.588 31.2515 190.96 31.2515V23.3348ZM177.982 41.9107V33.994C173.61 33.994 170.065 37.5385 170.065 41.9107H177.982ZM177.982 43.692H170.065C170.065 48.0642 173.61 51.6086 177.982 51.6086V43.692ZM194.268 43.692V51.6086C198.64 51.6086 202.185 48.0642 202.185 43.692H194.268ZM194.268 41.9107H202.185C202.185 37.5385 198.64 33.994 194.268 33.994V41.9107ZM177.982 35.2946V27.378C173.61 27.378 170.065 30.9224 170.065 35.2946H177.982ZM177.982 37.0759H170.065C170.065 41.4481 173.61 44.9926 177.982 44.9926V37.0759ZM194.268 37.0759V44.9926C198.64 44.9926 202.185 41.4481 202.185 37.0759H194.268ZM194.268 35.2946H202.185C202.185 30.9224 198.64 27.378 194.268 27.378V35.2946ZM177.982 30.4598H170.065C170.065 34.8321 173.61 38.3765 177.982 38.3765V30.4598ZM194.268 30.4598V38.3765C198.64 38.3765 202.185 34.8321 202.185 30.4598H194.268ZM194.268 28.6786H202.185C202.185 24.3063 198.64 20.7619 194.268 20.7619V28.6786ZM177.982 28.6786V20.7619C173.61 20.7619 170.065 24.3063 170.065 28.6786H177.982ZM209.536 51.0714V58.9881C213.908 58.9881 217.452 55.4437 217.452 51.0714H209.536ZM162.714 51.0714H154.798C154.798 55.4437 158.342 58.9881 162.714 58.9881V51.0714ZM162.714 43.692V35.7753C158.342 35.7753 154.798 39.3197 154.798 43.692H162.714ZM168.567 43.692V51.6086C172.939 51.6086 176.484 48.0642 176.484 43.692H168.567ZM168.567 25.9304H176.484C176.484 23.2811 175.158 20.8074 172.953 19.3397C170.747 17.8719 167.954 17.6047 165.51 18.6277L168.567 25.9304ZM164.75 27.4062L157.317 30.1316C158.801 34.1777 163.248 36.2939 167.324 34.8929L164.75 27.4062ZM161.951 19.7723L159.904 12.125C157.756 12.6999 155.949 14.1513 154.925 16.1244C153.9 18.0975 153.753 20.4104 154.518 22.4977L161.951 19.7723ZM174.063 15.9554L176.806 23.3816C180.404 22.0529 182.531 18.337 181.856 14.5621C181.182 10.7871 177.898 8.03869 174.063 8.03869V15.9554ZM163.223 15.9554H155.307C155.307 20.3276 158.851 23.872 163.223 23.872L163.223 15.9554ZM163.223 8.57589V0.659224C158.851 0.659224 155.307 4.20364 155.307 8.57589H163.223ZM181.29 8.57589V16.4926C185.662 16.4926 189.207 12.9481 189.207 8.57589H181.29ZM181.29 4.75893V-3.15774C176.918 -3.15774 173.374 0.386673 173.374 4.75893H181.29ZM190.96 4.75893H198.876C198.876 0.386673 195.332 -3.15774 190.96 -3.15774V4.75893ZM190.96 8.57589H183.043C183.043 12.9481 186.588 16.4926 190.96 16.4926V8.57589ZM209.027 8.57589H216.943C216.943 4.20364 213.399 0.659224 209.027 0.659224V8.57589ZM209.027 15.9554V23.872C213.399 23.872 216.943 20.3276 216.943 15.9554H209.027ZM198.187 15.9554V8.03869C194.352 8.03869 191.068 10.7871 190.394 14.5621C189.719 18.337 191.846 22.0529 195.444 23.3816L198.187 15.9554ZM210.299 19.7723L217.732 22.4977C218.497 20.4104 218.35 18.0975 217.325 16.1244C216.301 14.1513 214.494 12.6999 212.346 12.125L210.299 19.7723ZM207.5 27.4062L204.926 34.8929C209.002 36.2939 213.449 34.1777 214.933 30.1316L207.5 27.4062ZM203.683 25.9304L206.74 18.6277C204.296 17.6047 201.503 17.8719 199.297 19.3397C197.092 20.8074 195.766 23.2811 195.766 25.9304H203.683ZM203.683 43.692H195.766C195.766 48.0642 199.311 51.6086 203.683 51.6086V43.692ZM209.536 43.692H217.452C217.452 39.3197 213.908 35.7753 209.536 35.7753V43.692ZM174.42 31.2515H181.29V15.4182H174.42V31.2515ZM189.207 23.3348V19.6196H173.374V23.3348H189.207ZM177.231 12.8228C174.96 14.179 172.89 15.2946 171.016 16.1872L177.823 30.4825C180.224 29.3393 182.735 27.9781 185.349 26.4164L177.231 12.8228ZM201.234 16.1872C199.36 15.2946 197.29 14.179 195.019 12.8228L186.901 26.4164C189.515 27.9781 192.026 29.3393 194.427 30.4825L201.234 16.1872ZM183.043 19.6196V23.3348H198.876V19.6196H183.043ZM190.96 31.2515H197.83V15.4182H190.96V31.2515ZM170.065 41.9107V43.692H185.899V41.9107H170.065ZM177.982 51.6086H194.268V35.7753H177.982V51.6086ZM202.185 43.692V41.9107H186.351V43.692H202.185ZM194.268 33.994H177.982V49.8274H194.268V33.994ZM170.065 35.2946V37.0759H185.899V35.2946H170.065ZM177.982 44.9926H194.268V29.1592H177.982V44.9926ZM202.185 37.0759V35.2946H186.351V37.0759H202.185ZM194.268 27.378H177.982V43.2113H194.268V27.378ZM177.982 38.3765H194.268V22.5432H177.982V38.3765ZM202.185 30.4598V28.6786H186.351V30.4598H202.185ZM194.268 20.7619H177.982V36.5952H194.268V20.7619ZM170.065 28.6786V30.4598H185.899V28.6786H170.065ZM209.536 43.1548H162.714V58.9881H209.536V43.1548ZM170.631 51.0714V43.692H154.798V51.0714H170.631ZM162.714 51.6086H168.567V35.7753H162.714V51.6086ZM176.484 43.692V25.9304H160.65V43.692H176.484ZM165.51 18.6277C164.156 19.1947 163.051 19.6188 162.176 19.9196L167.324 34.8929C168.62 34.4473 170.06 33.8875 171.624 33.233L165.51 18.6277ZM172.183 24.6809L169.384 17.047L154.518 22.4977L157.317 30.1316L172.183 24.6809ZM163.998 27.4197C168.517 26.21 172.789 24.8657 176.806 23.3816L171.32 8.52909C167.806 9.82715 164.003 11.0275 159.904 12.125L163.998 27.4197ZM174.063 8.03869H163.223V23.872H174.063V8.03869ZM171.14 15.9554V8.57589H155.307V15.9554H171.14ZM163.223 16.4926H181.29V0.659224H163.223V16.4926ZM189.207 8.57589V4.75893H173.374V8.57589H189.207ZM181.29 12.6756H190.96V-3.15774H181.29V12.6756ZM183.043 4.75893V8.57589H198.876V4.75893H183.043ZM190.96 16.4926H209.027V0.659224H190.96V16.4926ZM201.11 8.57589V15.9554H216.943V8.57589H201.11ZM209.027 8.03869H198.187V23.872H209.027V8.03869ZM195.444 23.3816C199.461 24.8657 203.733 26.21 208.252 27.4197L212.346 12.125C208.247 11.0275 204.444 9.82715 200.93 8.52909L195.444 23.3816ZM202.866 17.047L200.067 24.6809L214.933 30.1316L217.732 22.4977L202.866 17.047ZM210.074 19.9196C209.199 19.6188 208.094 19.1947 206.74 18.6277L200.626 33.233C202.19 33.8875 203.63 34.4473 204.926 34.8929L210.074 19.9196ZM195.766 25.9304V43.692H211.6V25.9304H195.766ZM203.683 51.6086H209.536V35.7753H203.683V51.6086ZM201.619 43.692V51.0714H217.452V43.692H201.619ZM219.205 40.3839L213.818 46.1852C215.426 47.6782 217.582 48.4369 219.77 48.2804C221.958 48.1239 223.984 47.0662 225.363 45.3597L219.205 40.3839ZM212.08 33.7679L205.999 28.6997C203.305 31.9319 203.61 36.7063 206.693 39.5691L212.08 33.7679ZM219.104 24.9634L225.35 29.8276C225.361 29.8131 225.372 29.7987 225.383 29.7841L219.104 24.9634ZM224.854 18.042L230.452 23.6399C230.477 23.615 230.502 23.59 230.527 23.5648L224.854 18.042ZM228.213 15.5482L231.021 22.9503C231.095 22.9224 231.168 22.8934 231.24 22.8633L228.213 15.5482ZM236.356 15.5482L233.329 22.8633C233.402 22.8934 233.475 22.9224 233.549 22.9503L236.356 15.5482ZM240.326 18.1946L235.246 24.2662C235.27 24.2868 235.295 24.3071 235.32 24.3274L240.326 18.1946ZM248.571 25.7268L254.046 20.0092L254.04 20.0037L248.571 25.7268ZM261.955 38.3482L267.938 43.5331C270.758 40.2796 270.46 35.3692 267.269 32.4796L261.955 38.3482ZM255.339 45.9821L249.982 51.8104C251.557 53.2586 253.651 54.0073 255.788 53.8861C257.924 53.7649 259.92 52.784 261.322 51.167L255.339 45.9821ZM238.494 30.1036L232.98 35.7844C232.986 35.79 232.992 35.7956 232.997 35.8011L238.494 30.1036ZM233.964 25.9304L229.019 32.1122C229.068 32.1512 229.117 32.1897 229.166 32.2275L233.964 25.9304ZM230.453 25.8795L225.215 19.9432C225.155 19.9959 225.096 20.0495 225.038 20.104L230.453 25.8795ZM227.399 29.6964L221.015 25.0148C221.011 25.0198 221.008 25.0248 221.004 25.0298L227.399 29.6964ZM224.592 34.5826L217.467 27.9666L206.693 39.5691L213.818 46.1852L224.592 34.5826ZM218.162 38.836C219.942 36.6995 222.346 33.6839 225.35 29.8276L212.858 20.0992C209.889 23.9108 207.611 26.7648 205.999 28.6997L218.162 38.836ZM225.383 29.7841C227.959 26.4283 229.6 24.4921 230.452 23.6399L219.257 12.444C217.598 14.1026 215.405 16.7806 212.824 20.1426L225.383 29.7841ZM230.527 23.5648C230.939 23.1409 231.215 22.9114 231.355 22.8079C231.42 22.7596 231.429 22.7581 231.384 22.7842C231.339 22.8099 231.217 22.876 231.021 22.9503L225.406 8.14615C222.832 9.12238 220.75 10.9097 219.182 12.5192L230.527 23.5648ZM231.24 22.8633C230.961 22.979 230.884 22.9625 231.14 22.9254C231.38 22.8907 231.799 22.8542 232.437 22.8542V7.02083C230.207 7.02083 227.584 7.24113 225.186 8.23308L231.24 22.8633ZM232.437 22.8542C232.933 22.8542 233.25 22.8859 233.42 22.9124C233.595 22.9397 233.537 22.9494 233.329 22.8633L239.383 8.23308C237.069 7.27568 234.611 7.02083 232.437 7.02083V22.8542ZM233.549 22.9503C233.278 22.8477 233.305 22.8165 233.695 23.0768C234.05 23.3134 234.561 23.6938 235.246 24.2662L245.406 12.1231C243.627 10.6347 241.457 9.01598 239.164 8.14615L233.549 22.9503ZM235.32 24.3274C236.715 25.4668 239.263 27.7816 243.101 31.4499L254.04 20.0037C250.211 16.3434 247.261 13.6367 245.332 12.0619L235.32 24.3274ZM243.095 31.4444C249.502 37.5806 254.038 41.8596 256.642 44.2168L267.269 32.4796C264.851 30.2904 260.464 26.1551 254.046 20.0092L243.095 31.4444ZM255.973 33.1633L249.357 40.7973L261.322 51.167L267.938 43.5331L255.973 33.1633ZM260.697 40.1539C255.285 35.1787 249.716 29.9296 243.99 24.406L232.997 35.8011C238.807 41.4061 244.469 46.7427 249.982 51.8104L260.697 40.1539ZM244.008 24.4227C241.802 22.2822 239.929 20.5221 238.762 19.6332L229.166 32.2275C229.15 32.2146 229.232 32.2778 229.451 32.4685C229.655 32.6463 229.925 32.8879 230.267 33.203C230.951 33.8338 231.852 34.6891 232.98 35.7844L244.008 24.4227ZM238.91 19.7485C237.729 18.8037 235.378 17.1994 232.183 17.1994V33.0327C231.028 33.0327 230.173 32.7276 229.719 32.5197C229.267 32.3131 229.031 32.1219 229.019 32.1122L238.91 19.7485ZM232.183 17.1994C229.112 17.1994 226.749 18.5899 225.215 19.9432L235.691 31.8157C235.31 32.1512 234.101 33.0327 232.183 33.0327V17.1994ZM225.038 20.104C223.855 21.213 222.394 23.1338 221.015 25.0148L233.783 34.3781C234.495 33.4069 235.051 32.6772 235.464 32.1609C235.67 31.9035 235.816 31.7294 235.911 31.6215C236.022 31.4944 235.997 31.5333 235.867 31.655L225.038 20.104ZM221.004 25.0298C218.327 28.6991 215.674 32.1579 213.048 35.4081L225.363 45.3597C228.165 41.8921 230.975 38.2259 233.794 34.3631L221.004 25.0298ZM277.274 41.7071L272.673 48.1492C272.742 48.1987 272.812 48.247 272.883 48.2942L277.274 41.7071ZM283.178 41.6054L289.322 46.5975C289.371 46.5372 289.419 46.4761 289.466 46.4143L283.178 41.6054ZM283.839 36.4652H291.756C291.756 32.5696 288.922 29.253 285.074 28.6454L283.839 36.4652ZM293.356 40.8929L297.889 34.4024C295.616 32.815 292.678 32.5322 290.144 33.657C287.61 34.7817 285.849 37.1502 285.502 39.9007L293.356 40.8929ZM270.658 47.5598L275.718 41.471L275.718 41.471L270.658 47.5598ZM270.607 31.1723L265.505 25.119L265.505 25.119L270.607 31.1723ZM283.839 28.2714L283.011 36.1446C285.242 36.3795 287.468 35.6564 289.136 34.1551C290.804 32.6538 291.756 30.5153 291.756 28.2714H283.839ZM283.839 6.28571V-1.63095C279.467 -1.63095 275.923 1.91346 275.923 6.28571H283.839ZM293.509 6.28571H301.426C301.426 1.91346 297.881 -1.63095 293.509 -1.63095V6.28571ZM293.509 13.4107H285.592C285.592 17.783 289.137 21.3274 293.509 21.3274V13.4107ZM307.759 13.4107H315.676C315.676 9.03846 312.131 5.49405 307.759 5.49405V13.4107ZM307.759 21.5536V29.4702C312.131 29.4702 315.676 25.9258 315.676 21.5536H307.759ZM293.509 21.5536V13.6369C289.137 13.6369 285.592 17.1813 285.592 21.5536H293.509ZM293.509 31.0705H285.592C285.592 34.0691 287.286 36.8104 289.968 38.1514L293.509 31.0705ZM308.777 41.6562L314.706 46.9016C316.136 45.2855 316.844 43.1558 316.667 41.0053C316.489 38.8548 315.442 36.87 313.766 35.51L308.777 41.6562ZM302.924 48.2723L297.949 54.4301C301.243 57.0916 306.048 56.6896 308.854 53.5177L302.924 48.2723ZM280.786 28.3958C278.629 28.3958 275.628 28.7098 272.959 30.4888C269.724 32.6455 268.289 36.042 268.289 39.3661H284.122C284.122 39.8515 284.027 40.6607 283.573 41.5706C283.101 42.5132 282.418 43.2124 281.742 43.663C280.6 44.4241 279.889 44.2292 280.786 44.2292V28.3958ZM268.289 39.3661C268.289 42.3912 269.446 45.8448 272.673 48.1492L281.876 35.2651C282.623 35.7988 283.264 36.5546 283.674 37.4524C284.061 38.3003 284.122 39.0081 284.122 39.3661H268.289ZM272.883 48.2942C275.622 50.1204 278.788 50.3363 280.786 50.3363V34.503C280.324 34.503 280.179 34.4665 280.261 34.4829C280.311 34.4932 280.467 34.5279 280.696 34.6145C280.925 34.7011 281.268 34.8554 281.665 35.1201L272.883 48.2942ZM280.786 50.3363C282.803 50.3363 286.628 49.9134 289.322 46.5975L277.033 36.6132C277.928 35.5128 278.977 34.9671 279.698 34.7218C280.045 34.6036 280.321 34.5515 280.493 34.5276C280.666 34.5036 280.769 34.503 280.786 34.503V50.3363ZM289.466 46.4143C290.697 44.8045 291.197 43.0915 291.432 41.9344C291.683 40.7016 291.756 39.4654 291.756 38.3482H275.923C275.923 38.8256 275.886 38.9297 275.916 38.7826C275.933 38.6966 275.985 38.4686 276.112 38.1501C276.237 37.8342 276.471 37.3427 276.889 36.7964L289.466 46.4143ZM291.756 38.3482V36.4652H275.923V38.3482H291.756ZM285.074 28.6454C283.778 28.4408 282.236 28.3958 280.786 28.3958V44.2292C281.393 44.2292 281.857 44.2405 282.197 44.2575C282.562 44.2757 282.669 44.2952 282.605 44.285L285.074 28.6454ZM285.502 39.9007C285.295 41.5401 284.83 41.8284 284.776 41.8701C284.55 42.0441 283.554 42.6458 280.786 42.6458V58.4792C285.584 58.4792 290.466 57.4693 294.43 54.42C298.566 51.2385 300.603 46.6921 301.211 41.885L285.502 39.9007ZM280.786 42.6458C277.582 42.6458 276.242 41.9065 275.718 41.471L265.598 53.6486C269.892 57.2167 275.303 58.4792 280.786 58.4792V42.6458ZM275.718 41.471C275.323 41.1432 274.961 40.7529 274.961 39.3661H259.128C259.128 44.9007 261.175 49.9728 265.598 53.6486L275.718 41.471ZM274.961 39.3661C274.961 37.9393 275.336 37.54 275.709 37.2256L265.505 25.119C261.128 28.8082 259.128 33.8714 259.128 39.3661H274.961ZM275.709 37.2256C276.16 36.8456 277.47 36.0863 280.786 36.0863V20.253C275.28 20.253 269.804 21.4954 265.505 25.119L275.709 37.2256ZM280.786 36.0863C282.139 36.0863 282.806 36.123 283.011 36.1446L284.668 20.3983C283.584 20.2841 282.215 20.253 280.786 20.253V36.0863ZM291.756 28.2714V6.28571H275.923V28.2714H291.756ZM283.839 14.2024H293.509V-1.63095H283.839V14.2024ZM285.592 6.28571V13.4107H301.426V6.28571H285.592ZM293.509 21.3274H307.759V5.49405H293.509V21.3274ZM299.842 13.4107V21.5536H315.676V13.4107H299.842ZM307.759 13.6369H293.509V29.4702H307.759V13.6369ZM285.592 21.5536V31.0705H301.426V21.5536H285.592ZM289.968 38.1514C293.051 39.6929 297.606 42.7846 303.787 47.8025L313.766 35.51C307.326 30.2815 301.702 26.316 297.049 23.9897L289.968 38.1514ZM302.847 36.4109L296.995 43.0269L308.854 53.5177L314.706 46.9016L302.847 36.4109ZM307.9 42.1145C303.634 38.6682 300.266 36.0625 297.889 34.4024L288.823 47.3833C290.721 48.7089 293.732 51.0229 297.949 54.4301L307.9 42.1145ZM329.134 50.0536L321.307 51.2395C321.924 55.3153 325.566 58.2351 329.679 57.9515L329.134 50.0536ZM327.862 41.6562L327.014 33.785C324.868 34.0161 322.909 35.1137 321.591 36.8237C320.273 38.5336 319.711 40.7077 320.034 42.8422L327.862 41.6562ZM347.354 29.5946L343.472 36.4946C343.528 36.5257 343.583 36.5562 343.639 36.586L347.354 29.5946ZM320.482 31.9866L312.788 33.8518C313.809 38.0624 318.025 40.6704 322.248 39.7037L320.482 31.9866ZM318.446 23.5893L316.432 15.9333C312.262 17.0307 309.737 21.2637 310.753 25.4545L318.446 23.5893ZM331.017 21.0446L329.848 13.2147L329.84 13.216L331.017 21.0446ZM354.479 23.1312L349.753 29.4831L349.753 29.4831L354.479 23.1312ZM325.571 15.192L317.712 14.2393C317.459 16.3282 318.048 18.432 319.349 20.0859C320.649 21.7399 322.555 22.808 324.645 23.0542L325.571 15.192ZM326.589 6.79464L327.563 -1.06189C325.476 -1.32065 323.371 -0.738111 321.714 0.557162C320.057 1.85243 318.983 3.75395 318.73 5.84202L326.589 6.79464ZM351.527 8.32143H359.443C359.443 3.94917 355.899 0.40476 351.527 0.40476V8.32143ZM351.527 16.9732V24.8899C355.899 24.8899 359.443 21.3455 359.443 16.9732H351.527ZM336.961 48.8676L335.689 40.4703L320.034 42.8422L321.307 51.2395L336.961 48.8676ZM328.709 49.5275C336.403 48.6994 342.966 47.414 347.517 45.2331L340.675 30.9544C338.713 31.8949 334.452 32.9846 327.014 33.785L328.709 49.5275ZM347.517 45.2331C351.864 43.1503 356.899 39.1139 356.899 32.2411H341.065C341.065 31.8862 341.131 31.494 341.275 31.1152C341.416 30.745 341.586 30.503 341.683 30.3867C341.773 30.2798 341.779 30.3023 341.613 30.4216C341.447 30.5412 341.15 30.7269 340.675 30.9544L347.517 45.2331ZM356.899 32.2411C356.899 30.4013 356.464 28.4028 355.317 26.5397C354.18 24.6915 352.621 23.4285 351.068 22.6033L343.639 36.586C343.172 36.3376 342.427 35.804 341.833 34.8379C341.229 33.857 341.065 32.8933 341.065 32.2411H356.899ZM351.235 22.6947C348.25 21.0156 344.631 20.7619 341.857 20.7619V36.5952C342.864 36.5952 343.507 36.6571 343.864 36.7165C344.033 36.7448 344.078 36.7628 344.028 36.747C343.982 36.7325 343.774 36.6642 343.472 36.4946L351.235 22.6947ZM341.857 20.7619C336.292 20.7619 328.429 22.0464 318.716 24.2695L322.248 39.7037C331.807 37.5161 338.194 36.5952 341.857 36.5952V20.7619ZM328.176 30.1214L326.14 21.7241L310.753 25.4545L312.788 33.8518L328.176 30.1214ZM320.461 31.2453C324.018 30.3093 327.925 29.5152 332.194 28.8733L329.84 13.216C325.084 13.9312 320.611 14.8336 316.432 15.9333L320.461 31.2453ZM332.186 28.8746C336.523 28.2273 339.883 27.9435 342.366 27.9435V12.1101C338.809 12.1101 334.604 12.5049 329.848 13.2147L332.186 28.8746ZM342.366 27.9435C346.802 27.9435 348.887 28.8389 349.753 29.4831L359.204 16.7794C354.506 13.2844 348.516 12.1101 342.366 12.1101V27.9435ZM349.753 29.4831C350.398 29.9626 350.735 30.4046 350.735 31.7321H366.568C366.568 25.7311 364.124 20.4392 359.204 16.7794L349.753 29.4831ZM350.735 31.7321C350.735 34.2093 349.877 36.0035 347.097 37.729C343.792 39.7804 337.931 41.5114 328.589 42.1557L329.679 57.9515C340.015 57.2386 348.913 55.2375 355.447 51.1817C362.507 46.8001 366.568 40.1121 366.568 31.7321H350.735ZM333.431 16.1446L334.448 7.74727L318.73 5.84202L317.712 14.2393L333.431 16.1446ZM325.615 14.6512C334.155 15.7098 342.792 16.2381 351.527 16.2381V0.40476C343.433 0.40476 335.445 -0.0847584 327.563 -1.06189L325.615 14.6512ZM343.61 8.32143V16.9732H359.443V8.32143H343.61ZM351.527 9.05655C344.705 9.05655 336.38 8.4942 326.498 7.3297L324.645 23.0542C334.917 24.2647 343.895 24.8899 351.527 24.8899V9.05655ZM374.429 17.7366H366.512C366.512 22.1089 370.056 25.6533 374.429 25.6533V17.7366ZM374.429 9.33929V1.42262C370.056 1.42262 366.512 4.96703 366.512 9.33929H374.429ZM405.473 9.33929H413.39C413.39 4.96703 409.845 1.42262 405.473 1.42262V9.33929ZM405.473 17.7366V25.6533C409.845 25.6533 413.39 22.1089 413.39 17.7366H405.473ZM378.246 24.6071L382.847 18.1651C379.738 15.9445 375.487 16.2609 372.741 18.9172L378.246 24.6071ZM385.371 29.6964L390.924 35.339C392.59 33.6989 393.446 31.406 393.263 29.075C393.079 26.744 391.875 24.6134 389.972 23.2544L385.371 29.6964ZM380.943 34.5312L374.54 29.8749C374.509 29.9178 374.478 29.961 374.448 30.0046L380.943 34.5312ZM382.215 40.2821L378.917 47.4789C378.935 47.4874 378.954 47.4959 378.973 47.5043L382.215 40.2821ZM397.941 40.6384L399.104 48.4692L399.104 48.4692L397.941 40.6384ZM406.746 38.8571L414.5 37.2607C414.057 35.1128 412.744 33.2446 410.873 32.1014C409.001 30.9582 406.74 30.6424 404.627 31.2293L406.746 38.8571ZM408.527 47.5089L410.592 55.1514C414.632 54.0595 417.125 50.0116 416.281 45.9125L408.527 47.5089ZM375.09 46.8473L379.221 40.0938L379.221 40.0938L375.09 46.8473ZM371.68 32.2411L364.912 28.1354C364.895 28.1626 364.879 28.19 364.862 28.2174L371.68 32.2411ZM382.345 17.7366V9.33929H366.512V17.7366H382.345ZM374.429 17.256H405.473V1.42262L374.429 1.42262V17.256ZM397.557 9.33929V17.7366H413.39V9.33929H397.557ZM405.473 9.81994H374.429V25.6533H405.473V9.81994ZM373.644 31.0492L380.769 36.1385L389.972 23.2544L382.847 18.1651L373.644 31.0492ZM379.818 24.0539C377.642 26.1952 375.765 28.1915 374.54 29.8749L387.345 39.1876C387.75 38.6317 388.824 37.4048 390.924 35.339L379.818 24.0539ZM374.448 30.0046C373.406 31.4992 371.856 34.0997 371.856 37.3304H387.689C387.689 38.3067 387.443 38.947 387.369 39.1251C387.287 39.3205 387.265 39.3055 387.438 39.0579L374.448 30.0046ZM371.856 37.3304C371.856 43.0164 375.978 46.1319 378.917 47.4789L385.514 33.0854C385.374 33.0214 385.887 33.2181 386.482 33.937C387.192 34.7944 387.689 36.0092 387.689 37.3304H371.856ZM378.973 47.5043C382.18 48.9442 386.026 49.3185 389.696 49.3185V33.4851C388.31 33.4851 387.263 33.406 386.504 33.2924C385.72 33.175 385.432 33.0484 385.458 33.06L378.973 47.5043ZM389.696 49.3185C392.327 49.3185 395.512 49.0027 399.104 48.4692L396.778 32.8076C393.517 33.2919 391.205 33.4851 389.696 33.4851V49.3185ZM399.104 48.4692C402.745 47.9284 406.017 47.2758 408.864 46.485L404.627 31.2293C402.588 31.7956 399.99 32.3306 396.778 32.8076L399.104 48.4692ZM398.992 40.4536L400.773 49.1053L416.281 45.9125L414.5 37.2607L398.992 40.4536ZM406.461 39.8665C404.387 40.4271 401.624 40.9646 398.093 41.4461L400.232 57.1343C404.166 56.5979 407.645 55.9479 410.592 55.1514L406.461 39.8665ZM398.093 41.4461C394.57 41.9266 391.795 42.1369 389.696 42.1369V57.9702C392.755 57.9702 396.291 57.6717 400.232 57.1343L398.093 41.4461ZM389.696 42.1369C384.205 42.1369 380.983 41.1714 379.221 40.0938L370.959 53.6008C376.187 56.7982 382.702 57.9702 389.696 57.9702V42.1369ZM379.221 40.0938C378.294 39.5269 377.984 39.1049 377.897 38.9636C377.841 38.8724 377.765 38.7368 377.765 38.3482H361.932C361.932 45.1196 365.56 50.2981 370.959 53.6008L379.221 40.0938ZM377.765 38.3482C377.765 38.0216 377.852 37.3606 378.498 36.2647L364.862 28.2174C363.066 31.2608 361.932 34.6713 361.932 38.3482H377.765ZM378.449 36.3468C379.179 35.1434 380.796 33.1549 383.75 30.2971L372.741 18.9172C369.452 22.0987 366.692 25.1994 364.912 28.1354L378.449 36.3468ZM434.279 32.1902L439.652 38.004C441.273 36.5055 442.195 34.398 442.195 32.1902H434.279ZM434.279 32.0884H442.195C442.195 29.8873 441.279 27.7856 439.666 26.2877C438.053 24.7898 435.89 24.0309 433.695 24.1933L434.279 32.0884ZM418.451 33.2589L410.55 33.7528C410.682 35.8639 411.653 37.8345 413.247 39.2249C414.841 40.6154 416.925 41.31 419.035 41.154L418.451 33.2589ZM417.942 25.1161L417.339 17.2224C413.022 17.5522 409.771 21.2887 410.041 25.6099L417.942 25.1161ZM429.8 22.8259L427.002 15.4201C426.993 15.4235 426.984 15.427 426.975 15.4305L429.8 22.8259ZM441.658 16.0571L446.164 22.5662C449.403 20.3236 450.501 16.0405 448.739 12.5167L441.658 16.0571ZM441.607 15.9554L448.688 12.4149C447.347 9.73288 444.606 8.03869 441.607 8.03869V15.9554ZM425.83 15.9554H417.914C417.914 20.3276 421.458 23.872 425.83 23.872V15.9554ZM425.83 7.8125V-0.104168C421.458 -0.104168 417.914 3.44024 417.914 7.8125H425.83ZM456.875 7.8125H464.792C464.792 3.44024 461.247 -0.104168 456.875 -0.104168V7.8125ZM456.875 15.9554L461.03 22.6942C463.368 21.2526 464.792 18.7021 464.792 15.9554H456.875ZM444.304 23.233L440.569 16.2528C437.995 17.6304 436.388 20.3132 436.388 23.233H444.304ZM444.304 23.3348H436.388C436.388 25.5347 437.303 27.6354 438.914 29.1332C440.526 30.631 442.688 31.3908 444.882 31.2304L444.304 23.3348ZM461.71 22.0625L469.611 21.5687C469.479 19.4587 468.509 17.4891 466.916 16.0987C465.324 14.7084 463.241 14.0128 461.133 14.1669L461.71 22.0625ZM462.219 30.2054L462.772 38.1027C467.11 37.7987 470.391 34.052 470.12 29.7115L462.219 30.2054ZM446.238 31.325L445.685 23.4277C444.535 23.5083 443.415 23.8393 442.406 24.3976L446.238 31.325ZM442.472 34.5312L448.806 39.2812C448.826 39.2536 448.847 39.2258 448.867 39.1979L442.472 34.5312ZM442.727 40.7911L446.441 33.7997L446.441 33.7997L442.727 40.7911ZM457.893 40.6384L465.752 39.6858C465.487 37.4993 464.323 35.522 462.54 34.2291C460.757 32.9363 458.516 32.4447 456.355 32.8725L457.893 40.6384ZM458.911 49.0357L460.42 56.8072C464.497 56.0154 467.27 52.2067 466.77 48.0831L458.911 49.0357ZM442.195 32.1902V32.0884H426.362V32.1902H442.195ZM433.695 24.1933L417.867 25.3638L419.035 41.154L434.862 39.9835L433.695 24.1933ZM426.352 32.7651L425.843 24.6222L410.041 25.6099L410.55 33.7528L426.352 32.7651ZM418.545 33.0097C423.842 32.6051 428.626 31.7489 432.625 30.2213L426.975 15.4305C424.934 16.21 421.813 16.8806 417.339 17.2224L418.545 33.0097ZM432.598 30.2317C436.556 28.7364 441.135 26.0481 446.164 22.5662L437.152 9.54812C432.478 12.784 429.151 14.6083 427.002 15.4201L432.598 30.2317ZM448.739 12.5167L448.688 12.4149L434.526 19.4958L434.577 19.5976L448.739 12.5167ZM441.607 8.03869H425.83V23.872H441.607V8.03869ZM433.747 15.9554V7.8125H417.914V15.9554H433.747ZM425.83 15.7292H456.875V-0.104168H425.83V15.7292ZM448.958 7.8125V15.9554H464.792V7.8125H448.958ZM452.72 9.21654C448.318 11.9307 444.269 14.2731 440.569 16.2528L448.039 30.2132C452.075 28.0537 456.407 25.5443 461.03 22.6942L452.72 9.21654ZM436.388 23.233V23.3348H452.221V23.233H436.388ZM444.882 31.2304L462.287 29.9581L461.133 14.1669L443.727 15.4392L444.882 31.2304ZM453.809 22.5563L454.317 30.6992L470.12 29.7115L469.611 21.5687L453.809 22.5563ZM461.665 22.3081L445.685 23.4277L446.792 39.2223L462.772 38.1027L461.665 22.3081ZM442.406 24.3976C439.976 25.7422 437.78 27.5308 436.077 29.8646L448.867 39.1979C448.996 39.021 449.312 38.6721 450.071 38.2523L442.406 24.3976ZM436.139 29.7813C434.526 31.9316 433.182 34.7473 433.182 38.0937H449.015C449.015 39.1331 448.586 39.5737 448.806 39.2812L436.139 29.7813ZM433.182 38.0937C433.182 39.9083 433.597 41.9024 434.728 43.776C435.858 45.6468 437.424 46.9382 439.013 47.7824L446.441 33.7997C446.944 34.0671 447.696 34.6206 448.283 35.5923C448.871 36.5668 449.015 37.5007 449.015 38.0937H433.182ZM439.013 47.7824C441.937 49.3362 445.475 49.5729 448.223 49.5729V33.7396C447.2 33.7396 446.532 33.6804 446.146 33.6196C445.961 33.5905 445.899 33.5699 445.932 33.5795C445.959 33.5878 446.151 33.6458 446.441 33.7997L439.013 47.7824ZM448.223 49.5729C451.832 49.5729 455.574 49.1679 459.431 48.4043L456.355 32.8725C453.358 33.466 450.654 33.7396 448.223 33.7396V49.5729ZM450.034 41.591L451.052 49.9883L466.77 48.0831L465.752 39.6858L450.034 41.591ZM457.402 41.2642C454.414 41.8443 451.357 42.1369 448.223 42.1369V57.9702C452.35 57.9702 456.418 57.5842 460.42 56.8072L457.402 41.2642ZM448.223 42.1369C443.013 42.1369 440.442 41.2862 439.406 40.6462C439.189 40.5122 439.079 40.4112 439.031 40.3625C438.988 40.3174 438.974 40.2936 438.968 40.282C438.961 40.269 438.933 40.2143 438.903 40.087C438.872 39.9544 438.836 39.7231 438.836 39.3661H423.003C423.003 45.5035 425.726 50.8067 431.085 54.1172C435.817 57.0397 441.897 57.9702 448.223 57.9702V42.1369ZM438.836 39.3661C438.836 39.1439 438.813 38.7796 439.652 38.004L428.905 26.3764C425.266 29.74 423.003 34.1597 423.003 39.3661H438.836ZM485.375 9.84821V1.93155C483.191 1.93155 481.105 2.83348 479.609 4.42403C478.112 6.01457 477.34 8.15245 477.473 10.332L485.375 9.84821ZM497.589 9.84821L505.491 10.332C505.625 8.15245 504.852 6.01457 503.356 4.42403C501.86 2.83348 499.773 1.93155 497.589 1.93155V9.84821ZM496.062 34.7857V42.7024C500.247 42.7024 503.709 39.4461 503.964 35.2695L496.062 34.7857ZM486.902 34.7857L479 35.2695C479.256 39.4461 482.717 42.7024 486.902 42.7024V34.7857ZM486.393 47H478.476C478.476 51.3723 482.021 54.9167 486.393 54.9167V47ZM486.393 38.8571V30.9405C482.021 30.9405 478.476 34.4849 478.476 38.8571H486.393ZM496.571 38.8571H504.488C504.488 34.4849 500.944 30.9405 496.571 30.9405V38.8571ZM496.571 47V54.9167C500.944 54.9167 504.488 51.3723 504.488 47H496.571ZM485.375 17.7649H497.589V1.93155H485.375V17.7649ZM489.687 9.36443L488.161 34.3019L503.964 35.2695L505.491 10.332L489.687 9.36443ZM496.062 26.869H486.902V42.7024H496.062V26.869ZM494.804 34.3019L493.277 9.36443L477.473 10.332L479 35.2695L494.804 34.3019ZM494.31 47V38.8571H478.476V47H494.31ZM486.393 46.7738H496.571V30.9405H486.393V46.7738ZM488.655 38.8571V47H504.488V38.8571H488.655ZM496.571 39.0833H486.393V54.9167H496.571V39.0833Z" fill="white" mask="url(#path-1-outside-1_1584_237)"/>
</g>
<defs>
<filter id="filter0_d_1584_237" x="0.761719" y="-0.0045166" width="504.828" height="64.6027" filterUnits="userSpaceOnUse" color-interpolation-filters="sRGB">
<feFlood flood-opacity="0" result="BackgroundImageFix"/>
<feColorMatrix in="SourceAlpha" type="matrix" values="0 0 0 0 0 0 0 0 0 0 0 0 0 0 0 0 0 0 127 0" result="hardAlpha"/>
<feOffset dy="4"/>
<feGaussianBlur stdDeviation="4"/>
<feComposite in2="hardAlpha" operator="out"/>
<feColorMatrix type="matrix" values="0 0 0 0 0.00124461 0 0 0 0 0.00124461 0 0 0 0 0.00124461 0 0 0 0.25 0"/>
<feBlend mode="normal" in2="BackgroundImageFix" result="effect1_dropShadow_1584_237"/>
<feBlend mode="normal" in="SourceGraphic" in2="effect1_dropShadow_1584_237" result="shape"/>
</filter>
</defs>
</svg>
