<svg width="376" height="568" viewBox="0 0 376 568" fill="none" xmlns="http://www.w3.org/2000/svg">
<path d="M21.2845 66.4964C31.754 18.6952 83.1675 14.7045 120.201 41.7811C180.293 85.7161 178.88 190.034 150.926 223.356C140.596 235.669 122.39 229.776 109.941 219.609C48.1894 169.178 13.1212 103.768 21.2845 66.4964Z" fill="#FCF9F0" stroke="#676564" stroke-width="9.04708"/>
<path d="M355.063 66.5694C344.594 18.7682 293.18 14.7775 256.146 41.8541C196.055 85.7891 197.468 190.107 225.421 223.429C235.751 235.742 253.958 229.849 266.407 219.682C328.158 169.251 363.226 103.841 355.063 66.5694Z" fill="#FCF9F0" stroke="#676564" stroke-width="9.04708"/>
<path d="M187.765 422.599L187.992 422.612L188.22 422.602C252.174 419.779 292.461 411.86 316.824 394.988C341.83 377.672 349.236 351.62 349.727 315.892C350.745 241.826 279.207 190.828 192.902 189.641C106.604 188.455 33.525 237.46 32.5068 311.531C32.0122 347.508 40.6233 374.313 65.4898 392.564C89.8487 410.443 129.027 419.459 187.765 422.599Z" fill="#FCF9F0" stroke="#646464" stroke-width="9.33728"/>
<path d="M92.4312 504.224L88.2481 502.151L87.8833 502.887L87.7917 503.703L92.4312 504.224ZM92.4312 504.224C88.2481 502.151 88.2494 502.148 88.2507 502.145L88.2534 502.14L88.2593 502.128L88.2729 502.101C88.2827 502.082 88.2942 502.059 88.3074 502.034C88.3336 501.984 88.3665 501.922 88.4063 501.849C88.4857 501.704 88.5926 501.516 88.7288 501.291C89.0008 500.842 89.3913 500.244 89.9142 499.552C90.9582 498.17 92.5461 496.388 94.7912 494.661C99.3581 491.147 106.414 488.043 116.531 488.67C128.435 489.409 135.701 492.319 140.124 495.52C142.333 497.119 143.77 498.748 144.688 500.107C145.143 500.783 145.463 501.381 145.685 501.862C145.795 502.102 145.88 502.312 145.946 502.487C145.978 502.575 146.006 502.653 146.029 502.723C146.04 502.758 146.051 502.79 146.06 502.82L146.074 502.863L146.08 502.883L146.083 502.893C146.084 502.898 146.085 502.902 141.608 504.224M92.4312 504.224C87.7917 503.703 87.7917 503.703 87.7916 503.704L87.7916 503.704L87.7912 503.707L87.7901 503.717L87.7859 503.755L87.77 503.899C87.7562 504.025 87.7362 504.208 87.7107 504.445C87.6598 504.919 87.5873 505.605 87.5004 506.46C87.3266 508.169 87.0944 510.558 86.861 513.278C86.3971 518.684 85.9159 525.533 85.8952 530.973C85.8947 531.086 85.8943 531.198 85.8939 531.311C85.8732 536.547 85.8527 541.763 87.1931 546.425C88.6687 551.559 91.6946 555.823 97.1558 559.463C98.4904 560.353 100.084 560.901 101.508 561.274C103.002 561.666 104.671 561.955 106.377 562.174C109.792 562.613 113.693 562.812 117.306 562.892C120.939 562.972 124.379 562.932 126.904 562.872C128.169 562.842 129.21 562.808 129.938 562.78C130.302 562.766 130.588 562.754 130.785 562.746C130.884 562.742 130.96 562.738 131.012 562.736L131.073 562.733L131.09 562.732L131.095 562.732L131.096 562.732C131.097 562.732 131.097 562.732 130.87 558.069M141.608 504.224C146.228 503.557 146.228 503.558 146.229 503.558L146.229 503.559L146.229 503.561L146.23 503.568L146.234 503.597L146.25 503.705C146.263 503.799 146.283 503.937 146.307 504.115C146.357 504.471 146.429 504.985 146.515 505.627C146.689 506.909 146.925 508.701 147.174 510.743C147.668 514.797 148.23 519.946 148.448 524.05C148.657 527.962 148.775 532.896 148.841 536.814C148.874 538.781 148.894 540.507 148.906 541.742C148.91 542.103 148.912 542.422 148.915 542.693C149.119 543.156 149.367 543.753 149.609 544.43C150.115 545.847 150.857 548.309 150.61 550.756C150.26 554.224 148.054 556.567 146.042 557.999C144.019 559.438 141.621 560.389 139.561 561.029C137.452 561.685 135.407 562.101 133.917 562.353C133.164 562.481 132.534 562.569 132.085 562.627C131.86 562.656 131.679 562.677 131.55 562.691C131.485 562.698 131.433 562.704 131.394 562.708L131.347 562.713L131.331 562.714L131.325 562.715L131.322 562.715C131.321 562.715 131.32 562.715 130.87 558.069M141.608 504.224L146.228 503.557L146.18 503.225L146.085 502.902L141.608 504.224ZM130.87 558.069L131.097 562.732L131.209 562.726L131.32 562.715L130.87 558.069Z" fill="#FCF9F0" stroke="#646464" stroke-width="9.33728"/>
<path d="M283.866 504.224L288.049 502.151L288.414 502.887L288.505 503.703L283.866 504.224ZM283.866 504.224C288.049 502.151 288.047 502.148 288.046 502.145L288.043 502.14L288.038 502.128L288.024 502.101C288.014 502.082 288.003 502.059 287.99 502.034C287.963 501.984 287.93 501.922 287.891 501.849C287.811 501.704 287.704 501.516 287.568 501.291C287.296 500.842 286.906 500.244 286.383 499.552C285.339 498.17 283.751 496.388 281.506 494.661C276.939 491.147 269.883 488.043 259.766 488.67C247.862 489.409 240.596 492.319 236.173 495.52C233.964 497.119 232.527 498.748 231.609 500.107C231.153 500.783 230.833 501.381 230.612 501.862C230.502 502.102 230.416 502.312 230.351 502.487C230.319 502.575 230.291 502.653 230.268 502.723C230.256 502.758 230.246 502.79 230.237 502.82L230.223 502.863L230.217 502.883L230.214 502.893C230.213 502.898 230.212 502.902 234.689 504.224M283.866 504.224C288.505 503.703 288.505 503.703 288.505 503.704L288.505 503.704L288.506 503.707L288.507 503.717L288.511 503.755L288.527 503.899C288.541 504.025 288.561 504.208 288.586 504.445C288.637 504.919 288.71 505.605 288.796 506.46C288.97 508.169 289.202 510.558 289.436 513.278C289.9 518.684 290.381 525.533 290.402 530.973C290.402 531.086 290.403 531.198 290.403 531.311C290.424 536.547 290.444 541.763 289.104 546.425C287.628 551.559 284.602 555.823 279.141 559.463C277.806 560.353 276.213 560.901 274.789 561.274C273.295 561.666 271.626 561.955 269.919 562.174C266.505 562.613 262.604 562.812 258.991 562.892C255.358 562.972 251.918 562.932 249.393 562.872C248.127 562.842 247.086 562.808 246.359 562.78C245.995 562.766 245.709 562.754 245.512 562.746C245.413 562.742 245.337 562.738 245.285 562.736L245.224 562.733L245.207 562.732L245.202 562.732L245.201 562.732C245.2 562.732 245.2 562.732 245.427 558.069M234.689 504.224C230.068 503.557 230.068 503.558 230.068 503.558L230.068 503.559L230.068 503.561L230.067 503.568L230.063 503.597L230.047 503.705C230.034 503.799 230.014 503.937 229.989 504.115C229.94 504.471 229.868 504.985 229.781 505.627C229.608 506.909 229.372 508.701 229.123 510.743C228.628 514.797 228.067 519.946 227.848 524.05C227.64 527.962 227.522 532.896 227.456 536.814C227.423 538.781 227.403 540.507 227.391 541.742C227.387 542.103 227.384 542.422 227.382 542.693C227.177 543.156 226.93 543.753 226.688 544.43C226.182 545.847 225.44 548.309 225.687 550.756C226.037 554.224 228.243 556.567 230.255 557.999C232.278 559.438 234.676 560.389 236.736 561.029C238.845 561.685 240.889 562.101 242.38 562.353C243.133 562.481 243.762 562.569 244.212 562.627C244.437 562.656 244.618 562.677 244.747 562.691C244.812 562.698 244.864 562.704 244.903 562.708L244.95 562.713L244.966 562.714L244.972 562.715L244.975 562.715C244.976 562.715 244.977 562.715 245.427 558.069M234.689 504.224L230.068 503.557L230.116 503.225L230.212 502.902L234.689 504.224ZM245.427 558.069L245.2 562.732L245.088 562.726L244.977 562.715L245.427 558.069Z" fill="#FCF9F0" stroke="#646464" stroke-width="9.33728"/>
<path d="M100.482 396.641L97.7331 392.867L97.5757 392.982L97.4284 393.109L100.482 396.641ZM100.482 396.641C97.4284 393.109 97.4276 393.11 97.4266 393.11L97.4236 393.113L97.4146 393.121L97.384 393.147L97.273 393.244C97.1773 393.328 97.0386 393.45 96.8596 393.609C96.5015 393.926 95.9821 394.391 95.323 394.992C94.005 396.193 92.1267 397.941 89.8617 400.146C85.3363 404.551 79.2447 410.802 72.987 418.187C60.6573 432.738 46.9602 452.512 44.2997 471.558C43.6177 476.44 43.4313 480.673 45.0466 484.606C46.6572 488.527 49.7603 491.417 53.6343 494.43C58.2794 498.043 64.418 499.01 70.0052 498.181C75.6263 497.346 81.3207 494.613 85.2437 489.966C87.3774 487.439 88.4122 484.237 88.935 482.078C89.2127 480.93 89.3831 479.915 89.4851 479.181C89.8499 478.629 90.3718 477.845 91.0235 476.877C92.3777 474.867 94.2892 472.071 96.5152 468.934C101 462.614 106.642 455.079 111.54 449.756C114.699 446.323 117.803 443.195 120.783 440.192C121.856 439.11 122.914 438.044 123.952 436.987C127.789 433.076 131.393 429.243 134.096 425.418C134.178 425.302 134.261 425.185 134.343 425.068C136.359 422.218 138.49 419.205 139.708 415.925C141.093 412.192 141.273 408.277 139.854 403.704C138.386 398.975 136.084 394.774 132.674 391.522C129.231 388.238 124.887 386.143 119.734 385.309C114.361 384.44 108.556 386.77 104.805 388.641C102.785 389.648 101.039 390.69 99.8008 391.478C99.1786 391.874 98.6769 392.21 98.324 392.452C98.1474 392.573 98.0075 392.671 97.908 392.742C97.8582 392.777 97.8184 392.805 97.7891 392.826L97.7531 392.852L97.7411 392.861L97.7366 392.864L97.7347 392.866C97.7339 392.866 97.7331 392.867 100.482 396.641Z" fill="#FCF9F0" stroke="#646464" stroke-width="9.33728"/>
<path d="M277.725 396.641L280.474 392.867L280.631 392.982L280.779 393.109L277.725 396.641ZM277.725 396.641C280.779 393.109 280.779 393.11 280.78 393.11L280.783 393.113L280.792 393.121L280.823 393.147L280.934 393.244C281.03 393.328 281.168 393.45 281.347 393.609C281.705 393.926 282.225 394.391 282.884 394.992C284.202 396.193 286.08 397.941 288.345 400.146C292.871 404.551 298.962 410.802 305.22 418.187C317.55 432.738 331.247 452.512 333.907 471.558C334.589 476.44 334.776 480.673 333.16 484.606C331.55 488.527 328.447 491.417 324.573 494.43C319.928 498.043 313.789 499.01 308.202 498.181C302.581 497.346 296.886 494.613 292.963 489.966C290.83 487.439 289.795 484.237 289.272 482.078C288.994 480.93 288.824 479.915 288.722 479.181C288.357 478.629 287.835 477.845 287.184 476.877C285.829 474.867 283.918 472.071 281.692 468.934C277.207 462.614 271.565 455.079 266.667 449.756C263.508 446.323 260.404 443.195 257.424 440.192C256.351 439.11 255.293 438.044 254.256 436.987C250.418 433.076 246.814 429.243 244.111 425.418C244.029 425.302 243.946 425.185 243.864 425.068C241.848 422.218 239.717 419.205 238.5 415.925C237.114 412.192 236.934 408.277 238.353 403.704C239.821 398.975 242.123 394.774 245.533 391.522C248.976 388.238 253.32 386.143 258.473 385.309C263.847 384.44 269.651 386.77 273.402 388.641C275.422 389.648 277.168 390.69 278.406 391.478C279.028 391.874 279.53 392.21 279.883 392.452C280.06 392.573 280.2 392.671 280.299 392.742C280.349 392.777 280.389 392.805 280.418 392.826L280.454 392.852L280.466 392.861L280.47 392.864L280.472 392.866C280.473 392.866 280.474 392.867 277.725 396.641Z" fill="#FCF9F0" stroke="#646464" stroke-width="9.33728"/>
<path d="M94.9125 402.305L91.0723 399.65L90.5594 400.392L90.3597 401.272L94.9125 402.305ZM94.9125 402.305C91.0723 399.65 91.0733 399.649 91.0743 399.647L91.0765 399.644L91.0816 399.637L91.0945 399.618L91.131 399.567C91.1601 399.526 91.1987 399.472 91.2464 399.406C91.342 399.275 91.4747 399.096 91.6428 398.877C91.9782 398.441 92.4582 397.844 93.0673 397.152C94.2734 395.783 96.0466 393.978 98.267 392.331C102.606 389.113 109.646 385.855 117.467 389.518C141.773 400.905 171.598 406.066 198.87 405.761C226.33 405.454 250.221 399.623 263.189 389.997C266.687 387.401 270.63 387.763 273.65 388.85C276.604 389.914 279.354 391.868 281.551 393.72C283.803 395.618 285.769 397.665 287.154 399.208C287.852 399.986 288.417 400.652 288.811 401.129C289.009 401.368 289.165 401.561 289.274 401.698C289.329 401.766 289.372 401.821 289.403 401.86L289.44 401.908L289.452 401.923L289.456 401.928L289.458 401.931C289.459 401.931 289.459 401.932 285.772 404.795M94.9125 402.305C90.3597 401.272 90.3597 401.272 90.3595 401.273L90.3592 401.274L90.358 401.28L90.3537 401.299L90.3377 401.37C90.3237 401.432 90.3034 401.522 90.277 401.641C90.2242 401.878 90.1472 402.226 90.0491 402.675C89.853 403.574 89.5726 404.88 89.2327 406.517C88.5532 409.791 87.6349 414.396 86.6781 419.73C84.7716 430.36 82.6824 444.047 82.0569 455.903L82.0509 456.016C80.9514 476.855 79.8776 497.205 90.8428 516.711C93.6943 521.784 99.7716 525.165 106.263 527.587C113.02 530.108 121.395 532.003 130.274 533.422C148.062 536.263 168.596 537.3 183.928 537.3H184.153C203.957 537.3 226.085 537.3 244.753 534.368C254.138 532.895 262.908 530.645 270.196 527.134C277.505 523.614 283.6 518.689 287.133 511.749C297.877 490.646 296.929 476.293 295.47 454.18C295.438 453.701 295.406 453.218 295.374 452.732C294.619 441.244 293.374 429.101 292.321 419.851C291.794 415.222 291.314 411.306 290.965 408.547C290.791 407.167 290.65 406.075 290.552 405.327C290.503 404.953 290.464 404.665 290.438 404.47L290.409 404.248L290.401 404.19L290.399 404.175L290.398 404.171L290.398 404.17C290.398 404.169 290.398 404.169 285.772 404.795M285.772 404.795L289.459 401.932L290.23 402.924L290.398 404.169L285.772 404.795Z" fill="#FCF9F0" stroke="#646464" stroke-width="9.33728"/>
<path d="M345.057 315.83C344.087 386.413 315.989 412.597 188.008 418.268C70.7293 411.983 36.0844 381.851 37.0547 311.267C92.6095 359.503 123.774 375.784 188.01 378.389C256.074 381.148 297.407 371.515 345.057 315.83Z" fill="#FCF9F0"/>
<path d="M147.028 395.792C147.028 395.792 188.08 390.537 228.138 395.792C236.73 396.919 245.515 397.815 249.161 402.893C256.121 412.589 244.985 423.632 234.814 429.879C224.87 435.986 209.171 441.218 191.773 441.383C173.732 441.555 159.102 436.412 147.028 429.879C136.437 424.148 125.101 412.682 132.113 402.893C135.87 397.649 147.028 395.792 147.028 395.792Z" fill="#F6F2E6"/>
<path d="M192.879 332.997C192.284 333.037 190.056 333.037 190.615 331.811C191.009 330.948 193.504 331.259 193.31 332.323C193.103 333.464 191.057 333.109 190.318 333.051C189.178 332.961 188.36 333.135 188.283 331.757C188.137 329.131 191.224 330.161 192.946 330.545C193.653 330.702 196.387 331.107 196.544 332.35C196.616 332.917 195.689 333.499 195.251 333.617C194.31 333.871 193.595 333.182 192.717 333.051C192.3 332.989 189.236 333.265 189.685 332.283C190.324 330.886 192.321 329.765 193.728 330.45C194.268 330.713 194.897 330.763 194.442 331.218C193.801 331.859 193.512 332.815 193 333.55C191.878 335.159 189.669 332.904 188.836 331.946C187.54 330.456 188.292 329.564 189.968 329.655C191.069 329.715 194.905 329.39 195.493 330.518C195.687 330.889 196.381 333.505 196.046 333.725C195.27 334.232 193.485 333.24 192.906 332.916C192.277 332.565 191.367 331.923 190.911 331.299C189.63 329.546 191.298 331.652 190.938 330.571" stroke="#EE8E7E" stroke-width="2.48994" stroke-linecap="round"/>
<path d="M168.551 339.731C170.102 353.081 187.104 350.116 196.658 350.116H201.989C205.881 349.779 209.829 348.897 212.544 345.435C215.283 341.944 216.262 339.984 214.903 333.443C214.102 329.589 210.103 326.403 206.804 324.725C199.324 320.92 189.806 321.436 181.842 323.153C173.686 324.911 167.536 330.985 168.551 339.731Z" fill="white"/>
<path d="M191.125 333.171C190.53 333.211 188.302 333.211 188.861 331.985C189.255 331.121 191.75 331.433 191.556 332.497C191.349 333.638 189.304 333.283 188.564 333.225C187.424 333.135 186.606 333.309 186.529 331.931C186.384 329.305 189.47 330.334 191.192 330.718C191.899 330.876 194.633 331.281 194.791 332.524C194.862 333.091 193.935 333.673 193.497 333.791C192.556 334.045 191.841 333.356 190.963 333.225C190.547 333.163 187.482 333.439 187.931 332.457C188.57 331.06 190.567 329.939 191.974 330.624C192.514 330.887 193.143 330.937 192.688 331.392C192.047 332.033 191.758 332.989 191.246 333.724C190.125 335.333 187.915 333.078 187.082 332.12C185.786 330.63 186.538 329.737 188.214 329.829C189.315 329.889 193.151 329.564 193.739 330.691C193.933 331.063 194.628 333.679 194.292 333.899C193.516 334.406 191.731 333.414 191.152 333.09C190.523 332.739 189.613 332.097 189.157 331.473C187.876 329.72 189.544 331.826 189.184 330.745" stroke="#EE8E7E" stroke-width="2.48994" stroke-linecap="round"/>
<path d="M126.07 323.156C129.828 323.156 145.201 320.247 138.836 327.77C137.503 329.345 133.888 329.342 132.037 329.712C128.951 330.33 126.695 326.742 126.695 323.781" stroke="#646464" stroke-width="9.04708" stroke-linecap="round"/>
<path d="M244.332 323.156C248.09 323.156 263.463 320.247 257.097 327.77C255.764 329.345 252.15 329.342 250.298 329.712C247.213 330.33 244.956 326.742 244.956 323.781" stroke="#646464" stroke-width="9.04708" stroke-linecap="round"/>
<path d="M187.468 313.367C187.316 312.909 187.165 312.864 187.165 312.309C186.911 311.815 186.661 312.466 186.497 311.91C186.643 311.22 186.188 310.139 186.497 309.997C186.65 309.926 186.663 309.792 186.643 309.638C186.625 309.488 186.529 309.4 186.618 309.248C186.663 309.171 186.742 308.73 186.643 308.73" stroke="#676564" stroke-width="2.80118" stroke-linecap="round"/>
<path d="M192.72 312.35C192.635 312.082 192.551 312.055 192.551 311.731C192.41 311.442 192.27 311.822 192.178 311.497C192.26 311.093 192.006 310.461 192.178 310.378C192.264 310.336 192.271 310.258 192.26 310.167C192.25 310.08 192.197 310.028 192.246 309.939C192.271 309.894 192.315 309.636 192.26 309.636" stroke="#676564" stroke-width="2.80118" stroke-linecap="round"/>
</svg>
