<svg width="377" height="435" viewBox="0 0 377 435" fill="none" xmlns="http://www.w3.org/2000/svg">
<path d="M186.585 289.071L186.812 289.084L187.04 289.074C250.994 286.251 291.281 278.332 315.645 261.461C340.65 244.144 348.056 218.092 348.547 182.364C349.565 108.298 278.028 57.2998 191.723 56.1134C105.424 54.9271 32.3453 103.932 31.3271 178.003C30.8325 213.98 39.4436 240.785 64.3101 259.036C88.669 276.915 127.847 285.931 186.585 289.071Z" fill="#F7FBF8" stroke="#646464" stroke-width="9.33728"/>
<path d="M91.2515 370.696L87.0684 368.623L86.7036 369.359L86.612 370.175L91.2515 370.696ZM91.2515 370.696C87.0684 368.623 87.0697 368.62 87.071 368.618L87.0737 368.612L87.0796 368.6L87.0932 368.573C87.1031 368.554 87.1145 368.532 87.1277 368.506C87.154 368.456 87.1869 368.394 87.2266 368.321C87.306 368.176 87.413 367.988 87.5491 367.763C87.8211 367.314 88.2116 366.717 88.7345 366.024C89.7785 364.642 91.3664 362.86 93.6115 361.133C98.1784 357.619 105.234 354.515 115.351 355.143C127.255 355.882 134.521 358.791 138.944 361.992C141.153 363.591 142.59 365.22 143.508 366.58C143.964 367.255 144.284 367.853 144.505 368.334C144.615 368.574 144.701 368.784 144.766 368.959C144.799 369.047 144.826 369.126 144.849 369.195C144.861 369.23 144.871 369.262 144.881 369.292L144.894 369.335L144.9 369.355L144.903 369.365C144.904 369.37 144.906 369.375 140.428 370.696M91.2515 370.696C86.612 370.175 86.612 370.176 86.612 370.176L86.6119 370.177L86.6115 370.18L86.6104 370.19L86.6062 370.227L86.5903 370.371C86.5765 370.497 86.5565 370.681 86.531 370.917C86.4801 371.391 86.4077 372.077 86.3207 372.932C86.1469 374.641 85.9148 377.03 85.6813 379.751C85.2174 385.156 84.7362 392.005 84.7155 397.445C84.7151 397.558 84.7146 397.671 84.7142 397.783C84.6936 403.02 84.673 408.235 86.0134 412.898C87.489 418.031 90.5149 422.295 95.9761 425.935C97.3107 426.825 98.9039 427.373 100.328 427.746C101.822 428.138 103.491 428.427 105.198 428.646C108.612 429.085 112.513 429.285 116.126 429.364C119.759 429.444 123.199 429.404 125.725 429.344C126.99 429.315 128.031 429.28 128.759 429.252C129.123 429.239 129.409 429.227 129.605 429.218C129.704 429.214 129.78 429.21 129.832 429.208L129.893 429.205L129.91 429.204L129.915 429.204L129.917 429.204C129.917 429.204 129.918 429.204 129.69 424.541M140.428 370.696C145.049 370.03 145.049 370.03 145.049 370.03L145.049 370.031L145.049 370.033L145.05 370.041L145.054 370.069L145.07 370.177C145.083 370.271 145.103 370.41 145.128 370.587C145.178 370.943 145.249 371.458 145.336 372.099C145.509 373.381 145.745 375.173 145.994 377.215C146.489 381.269 147.05 386.418 147.269 390.522C147.477 394.435 147.595 399.368 147.661 403.286C147.694 405.253 147.714 406.979 147.726 408.214C147.73 408.575 147.733 408.894 147.735 409.165C147.94 409.628 148.187 410.225 148.429 410.902C148.935 412.319 149.678 414.781 149.43 417.229C149.08 420.696 146.874 423.039 144.862 424.471C142.84 425.91 140.441 426.861 138.382 427.501C136.272 428.157 134.228 428.573 132.737 428.825C131.984 428.953 131.355 429.041 130.905 429.099C130.68 429.128 130.499 429.149 130.37 429.163C130.305 429.171 130.253 429.176 130.214 429.18L130.167 429.185L130.151 429.187L130.145 429.187L130.143 429.187C130.142 429.188 130.141 429.188 129.69 424.541M140.428 370.696L145.049 370.03L145.001 369.697L144.906 369.375L140.428 370.696ZM129.69 424.541L129.918 429.204L130.029 429.198L130.141 429.188L129.69 424.541Z" fill="#F7FBF8" stroke="#646464" stroke-width="9.33728"/>
<path d="M282.686 370.696L286.869 368.623L287.234 369.359L287.325 370.175L282.686 370.696ZM282.686 370.696C286.869 368.623 286.868 368.62 286.867 368.618L286.864 368.612L286.858 368.6L286.844 368.573C286.834 368.554 286.823 368.532 286.81 368.506C286.784 368.456 286.751 368.394 286.711 368.321C286.631 368.176 286.525 367.988 286.388 367.763C286.116 367.314 285.726 366.717 285.203 366.024C284.159 364.642 282.571 362.86 280.326 361.133C275.759 357.619 268.703 354.515 258.587 355.143C246.682 355.882 239.417 358.791 234.993 361.992C232.784 363.591 231.347 365.22 230.43 366.58C229.974 367.255 229.654 367.853 229.433 368.334C229.322 368.574 229.237 368.784 229.172 368.959C229.139 369.047 229.111 369.126 229.088 369.195C229.077 369.23 229.066 369.262 229.057 369.292L229.044 369.335L229.038 369.355L229.035 369.365C229.033 369.37 229.032 369.375 233.51 370.696M282.686 370.696C287.325 370.175 287.326 370.175 287.326 370.176L287.326 370.177L287.326 370.18L287.327 370.19L287.331 370.227L287.347 370.371C287.361 370.497 287.381 370.681 287.406 370.917C287.457 371.391 287.53 372.077 287.617 372.932C287.791 374.641 288.023 377.03 288.256 379.751C288.72 385.156 289.201 392.005 289.222 397.445C289.222 397.558 289.223 397.671 289.223 397.783C289.244 403.019 289.264 408.235 287.924 412.898C286.448 418.031 283.423 422.295 277.961 425.935C276.627 426.825 275.034 427.373 273.609 427.746C272.115 428.138 270.446 428.427 268.74 428.646C265.325 429.085 261.425 429.285 257.811 429.364C254.178 429.444 250.738 429.404 248.213 429.344C246.948 429.315 245.907 429.28 245.179 429.252C244.815 429.239 244.529 429.227 244.332 429.218C244.234 429.214 244.157 429.21 244.105 429.208L244.044 429.205L244.027 429.204L244.022 429.204L244.021 429.204C244.02 429.204 244.02 429.204 244.247 424.541M233.51 370.696C228.889 370.03 228.889 370.03 228.889 370.03L228.889 370.031L228.888 370.033L228.887 370.041L228.883 370.069L228.868 370.177C228.854 370.271 228.835 370.41 228.81 370.587C228.76 370.943 228.689 371.458 228.602 372.099C228.428 373.381 228.192 375.173 227.943 377.215C227.449 381.269 226.888 386.418 226.669 390.522C226.46 394.435 226.342 399.368 226.276 403.286C226.243 405.253 226.223 406.979 226.211 408.214C226.208 408.575 226.205 408.894 226.203 409.165C225.998 409.628 225.75 410.225 225.508 410.902C225.002 412.319 224.26 414.781 224.507 417.229C224.857 420.696 227.063 423.039 229.076 424.471C231.098 425.91 233.497 426.861 235.556 427.501C237.666 428.157 239.71 428.573 241.2 428.825C241.953 428.953 242.583 429.041 243.032 429.099C243.257 429.128 243.438 429.149 243.568 429.163C243.633 429.171 243.685 429.176 243.723 429.18L243.771 429.185L243.786 429.187L243.792 429.187L243.795 429.187C243.796 429.188 243.797 429.188 244.247 424.541M233.51 370.696L228.889 370.03L228.937 369.697L229.032 369.375L233.51 370.696ZM244.247 424.541L244.02 429.204L243.908 429.198L243.797 429.188L244.247 424.541Z" fill="#F7FBF8" stroke="#646464" stroke-width="9.33728"/>
<path d="M99.3021 263.111L96.5534 259.337L96.396 259.452L96.2487 259.579L99.3021 263.111ZM99.3021 263.111C96.2487 259.579 96.2479 259.58 96.2469 259.581L96.244 259.583L96.2349 259.591L96.2043 259.618L96.0933 259.715C95.9976 259.799 95.8589 259.92 95.6799 260.079C95.3219 260.397 94.8024 260.861 94.1433 261.462C92.8253 262.664 90.947 264.411 88.682 266.616C84.1566 271.021 78.065 277.273 71.8073 284.658C59.4776 299.209 45.7806 318.982 43.12 338.028C42.8896 339.678 42.5848 341.25 42.2664 342.894C42.1524 343.482 42.0367 344.078 41.9221 344.691C41.5132 346.876 41.1107 349.299 41.1203 351.61C41.1301 353.959 41.5612 356.618 43.1996 359.001C44.8737 361.435 47.3947 362.985 50.4309 363.881C59.3437 366.512 67.8094 367.708 75.046 367.183C82.2099 366.662 88.8024 364.39 93.0159 359.399C93.6285 358.674 94.4203 357.797 95.3318 356.787C98.1366 353.68 102.075 349.317 105.41 344.255C108.275 339.906 110.091 337.496 111.68 335.386C112.279 334.591 112.847 333.838 113.426 333.04C115.598 330.047 117.543 326.922 120.992 320.025C124.793 312.423 126.715 306.807 128.236 302.364C128.267 302.274 128.298 302.184 128.328 302.095C129.871 297.589 130.893 294.752 132.916 291.888C132.998 291.772 133.081 291.655 133.164 291.538C135.18 288.688 137.311 285.676 138.528 282.395C139.913 278.663 140.093 274.747 138.674 270.175C137.206 265.445 134.904 261.244 131.494 257.993C128.051 254.708 123.707 252.614 118.555 251.78C113.181 250.91 107.377 253.24 103.625 255.111C101.605 256.119 99.8594 257.161 98.6211 257.948C97.9989 258.344 97.4972 258.68 97.1443 258.922C96.9677 259.044 96.8278 259.142 96.7283 259.212C96.6785 259.247 96.6387 259.276 96.6095 259.297L96.5734 259.323L96.5614 259.332L96.5569 259.335L96.555 259.336C96.5542 259.337 96.5534 259.337 99.3021 263.111Z" fill="#F7FBF8" stroke="#646464" stroke-width="9.33728"/>
<path d="M277.991 275.733L280.74 271.959L280.897 272.074L281.044 272.201L277.991 275.733ZM277.991 275.733C281.044 272.201 281.045 272.202 281.046 272.203L281.049 272.205L281.058 272.213L281.089 272.239L281.2 272.336C281.295 272.42 281.434 272.542 281.613 272.701C281.971 273.018 282.491 273.483 283.15 274.084C284.468 275.285 286.346 277.033 288.611 279.238C293.136 283.643 299.228 289.894 305.486 297.279C317.815 311.83 331.512 331.604 334.173 350.65C334.403 352.299 334.708 353.872 335.027 355.515C335.141 356.103 335.256 356.7 335.371 357.313C335.78 359.498 336.182 361.921 336.173 364.232C336.163 366.58 335.732 369.24 334.093 371.622C332.419 374.057 329.898 375.606 326.862 376.503C317.949 379.133 309.484 380.33 302.247 379.804C295.083 379.284 288.491 377.011 284.277 372.021C283.664 371.295 282.873 370.418 281.961 369.409C279.156 366.301 275.218 361.939 271.883 356.876C269.018 352.528 267.202 350.118 265.613 348.008C265.013 347.212 264.446 346.46 263.867 345.662C261.695 342.668 259.75 339.544 256.301 332.647C252.5 325.044 250.578 319.428 249.057 314.985C249.026 314.895 248.995 314.805 248.965 314.716C247.422 310.21 246.4 307.373 244.377 304.51C244.295 304.394 244.212 304.277 244.129 304.16C242.113 301.31 239.982 298.297 238.765 295.017C237.38 291.284 237.2 287.369 238.619 282.796C240.087 278.067 242.389 273.866 245.798 270.614C249.242 267.33 253.585 265.235 258.738 264.401C264.112 263.532 269.916 265.862 273.668 267.733C275.688 268.74 277.434 269.782 278.672 270.57C279.294 270.966 279.796 271.302 280.149 271.544C280.325 271.665 280.465 271.763 280.565 271.834C280.614 271.869 280.654 271.897 280.684 271.918L280.72 271.944L280.732 271.953L280.736 271.956L280.738 271.958C280.739 271.958 280.74 271.959 277.991 275.733Z" fill="#F7FBF8" stroke="#646464" stroke-width="9.33728"/>
<path d="M93.7368 268.776L89.8966 266.121L89.3836 266.863L89.184 267.742L93.7368 268.776ZM93.7368 268.776C89.8966 266.121 89.8975 266.119 89.8986 266.118L89.9008 266.115L89.9059 266.107L89.9187 266.089L89.9553 266.037C89.9843 265.996 90.0229 265.942 90.0707 265.876C90.1662 265.745 90.2989 265.566 90.467 265.348C90.8025 264.912 91.2824 264.314 91.8916 263.623C93.0977 262.254 94.8708 260.448 97.0912 258.801C101.43 255.584 108.471 252.325 116.291 255.989C140.598 267.376 170.423 272.537 197.695 272.231C225.154 271.924 249.045 266.094 262.014 256.468C265.511 253.872 269.454 254.234 272.474 255.321C275.428 256.384 278.179 258.338 280.375 260.19C282.627 262.089 284.594 264.135 285.978 265.678C286.676 266.456 287.241 267.122 287.636 267.6C287.833 267.839 287.989 268.031 288.098 268.168C288.153 268.237 288.196 268.291 288.227 268.331L288.265 268.378L288.276 268.393L288.281 268.399L288.282 268.401C288.283 268.402 288.284 268.403 284.596 271.266M93.7368 268.776C89.184 267.742 89.1839 267.742 89.1838 267.743L89.1834 267.745L89.1822 267.75L89.1779 267.769L89.1619 267.84C89.1479 267.902 89.1276 267.993 89.1012 268.111C89.0484 268.348 88.9714 268.696 88.8734 269.146C88.6773 270.045 88.3968 271.35 88.0569 272.988C87.3774 276.261 86.4592 280.866 85.5023 286.201C83.5958 296.83 81.5067 310.517 80.8811 322.373L80.8751 322.487C79.7756 343.325 78.7018 363.675 89.667 383.182C92.5185 388.254 98.5958 391.636 105.088 394.058C111.845 396.578 120.22 398.474 129.098 399.892C146.886 402.733 167.42 403.77 182.752 403.77H182.977C202.781 403.77 224.909 403.77 243.577 400.839C252.963 399.365 261.732 397.115 269.02 393.605C276.329 390.085 282.424 385.159 285.957 378.22C296.701 357.116 295.754 342.763 294.294 320.651C294.262 320.172 294.231 319.689 294.199 319.202C293.443 307.714 292.198 295.571 291.145 286.322C290.618 281.692 290.138 277.777 289.79 275.017C289.615 273.637 289.474 272.546 289.376 271.798C289.327 271.424 289.289 271.136 289.263 270.94L289.233 270.718L289.225 270.66L289.223 270.645L289.223 270.641L289.222 270.64C289.222 270.64 289.222 270.64 284.596 271.266M284.596 271.266L288.284 268.403L289.054 269.395L289.222 270.64L284.596 271.266Z" fill="#F7FBF8" stroke="#646464" stroke-width="9.33728"/>
<path d="M343.878 182.302C342.907 252.885 314.809 279.069 186.828 284.741C69.5496 278.456 34.9047 248.323 35.875 177.739C91.4298 225.975 122.594 242.256 186.83 244.861C254.894 247.62 296.227 237.987 343.878 182.302Z" fill="#F7FBF8"/>
<path d="M145.849 262.262C145.849 262.262 186.9 257.007 226.958 262.262C235.55 263.39 244.336 264.286 247.981 269.364C254.941 279.06 243.805 290.102 233.634 296.35C223.691 302.457 207.991 307.688 190.594 307.854C172.552 308.026 157.923 302.883 145.849 296.35C135.258 290.619 123.922 279.153 130.934 269.364C134.69 264.12 145.849 262.262 145.849 262.262Z" fill="#F0F6F2"/>
<ellipse cx="274.502" cy="195.246" rx="28.4041" ry="22.7233" fill="#E7D88A"/>
<path d="M259.668 199.825C259.732 199.825 284.255 199.735 284.316 199.761C284.365 199.781 284.503 199.878 284.554 199.825C284.598 199.78 284.576 199.722 284.65 199.705C284.756 199.68 284.928 199.726 285.035 199.744C285.214 199.774 285.376 199.768 285.556 199.757C285.786 199.741 285.999 199.792 286.225 199.733C286.412 199.684 286.697 199.509 286.887 199.575C286.998 199.613 287.112 199.752 287.229 199.752C287.405 199.752 287.612 199.601 287.793 199.575C287.884 199.561 288.282 199.657 288.182 199.504C288.18 199.5 288.568 199.387 288.611 199.375C288.755 199.339 288.897 199.396 289.041 199.41C289.216 199.427 289.375 199.404 289.547 199.367C289.747 199.323 289.962 199.354 290.156 199.418C290.293 199.463 290.325 199.456 290.345 199.264C290.351 199.203 290.345 199.273 290.348 199.288C290.357 199.332 290.452 199.294 290.469 199.29C290.557 199.271 290.748 199.185 290.831 199.202C290.938 199.225 291.003 199.313 291.124 199.331C291.218 199.344 291.309 199.35 291.403 199.35" stroke="#676564" stroke-width="8.37762" stroke-linecap="round"/>
<ellipse cx="100.732" cy="195.246" rx="28.4041" ry="22.7233" fill="#E7D88A"/>
<path d="M85.9023 199.825C85.966 199.825 110.489 199.735 110.55 199.761C110.599 199.781 110.738 199.878 110.789 199.825C110.832 199.78 110.811 199.722 110.884 199.705C110.99 199.68 111.163 199.726 111.269 199.744C111.448 199.774 111.611 199.768 111.79 199.757C112.02 199.741 112.233 199.792 112.46 199.733C112.647 199.684 112.931 199.509 113.122 199.575C113.233 199.613 113.346 199.752 113.463 199.752C113.639 199.752 113.846 199.601 114.028 199.575C114.119 199.561 114.517 199.657 114.417 199.504C114.414 199.5 114.802 199.387 114.846 199.375C114.989 199.339 115.132 199.396 115.275 199.41C115.451 199.427 115.61 199.404 115.781 199.367C115.981 199.323 116.196 199.354 116.39 199.418C116.527 199.463 116.56 199.456 116.579 199.264C116.585 199.203 116.58 199.273 116.583 199.288C116.591 199.332 116.687 199.294 116.704 199.29C116.791 199.271 116.982 199.185 117.065 199.202C117.173 199.225 117.237 199.313 117.358 199.331C117.452 199.344 117.543 199.35 117.637 199.35" stroke="#676564" stroke-width="8.37762" stroke-linecap="round"/>
<path d="M178.371 232.902C179.883 234.194 181.924 235.029 183.941 234.194C184.778 233.847 185.21 233.571 186.028 232.794C186.533 232.315 186.807 231.895 187.305 231.346C187.763 230.843 188.236 230.075 188.591 229.658C188.938 229.25 189.341 230.142 189.625 230.485C190.147 231.117 190.34 231.138 190.99 231.609C192.125 232.433 193.19 233.705 194.633 234.194C195.976 234.649 196.676 234.535 197.98 234.194C199.044 233.915 199.786 233.378 200.687 232.902" stroke="#676564" stroke-width="4.97988" stroke-linecap="round"/>
<path d="M45.1523 352.178L47.7064 337.822C62.9381 341.052 73.4022 340.364 76.7302 339.616C75.6157 343.744 77.1946 357.039 78.1234 363.17C72.1793 364.606 61.0961 362.572 56.2975 361.376C47.5671 359.94 45.2297 354.646 45.1523 352.178Z" fill="#646464"/>
<path d="M333.871 365.1L330.523 350.743C310.557 353.974 296.841 353.286 292.478 352.538C293.939 356.666 291.87 369.96 290.652 376.092C298.444 377.527 312.972 375.494 319.262 374.297C330.706 372.862 333.77 367.568 333.871 365.1Z" fill="#646464"/>
<path d="M152.977 420.695L148.179 411.784C127.134 420.695 96.4048 413.139 90.1534 412.675C84.6405 414.012 88.3712 418.467 93.6614 424.705C104.827 425.596 123.028 427.146 132.042 426.404C148.441 425.513 152.831 422.227 152.977 420.695Z" fill="#646464"/>
<path d="M223.816 420.695L228.614 411.784C249.659 420.695 280.388 413.139 286.64 412.675C292.152 414.012 288.422 418.467 283.132 424.705C271.966 425.596 253.765 427.146 244.751 426.404C228.352 425.513 223.962 422.227 223.816 420.695Z" fill="#646464"/>
<path d="M265.326 4.47938C237.8 28.2986 228.793 53.2934 227.731 62.8134C239.307 75.672 256.929 73.8205 264.292 71.2874C254.726 45.997 260.996 16.2111 265.326 4.47938Z" fill="#F5EBBB" stroke="#646464" stroke-width="8.91109" stroke-linejoin="round"/>
<path d="M111.041 4.47938C138.567 28.2986 147.574 53.2934 148.637 62.8134C137.06 75.672 119.439 73.8205 112.075 71.2874C121.642 45.997 115.372 16.2111 111.041 4.47938Z" fill="#F5EBBB" stroke="#646464" stroke-width="8.91109" stroke-linejoin="round"/>
<path d="M365.277 23.2625C347.236 25.713 300.155 62.4557 274.611 74.4521L285.972 81.1581C285.972 81.1581 299.511 83.1169 308.249 83.617C317.716 84.1589 332.531 83.617 332.531 83.617C382.43 78.7886 374.633 39.4315 365.277 23.2625Z" fill="#F7FBF8" stroke="#646464" stroke-width="8.91109" stroke-linejoin="round"/>
<path d="M11.5159 23.2625C29.5565 25.713 76.638 62.4557 102.182 74.4521L90.8208 81.1581C90.8208 81.1581 77.2818 83.1169 68.5438 83.617C59.0767 84.1589 44.2623 83.617 44.2623 83.617C-5.63743 78.7886 2.15969 39.4315 11.5159 23.2625Z" fill="#F7FBF8" stroke="#646464" stroke-width="8.91109" stroke-linejoin="round"/>
<path d="M350.387 65.903C364.325 49.5016 322.828 72.312 334.672 71.2678C343.101 70.5247 341.927 70.1385 348.574 67.3701" stroke="#FDE8F1" stroke-width="9.99034" stroke-linecap="round"/>
<path d="M24.6369 65.903C10.6981 49.5016 52.195 72.312 40.351 71.2678C31.9222 70.5247 33.0964 70.1385 26.4489 67.3701" stroke="#FDE8F1" stroke-width="9.99034" stroke-linecap="round"/>
<path d="M180.137 213.736C180.137 213.736 184.478 217.772 187.938 217.962C191.793 218.173 196.876 213.736 196.876 213.736" stroke="#646464" stroke-width="4.71842" stroke-linecap="round" stroke-linejoin="round"/>
</svg>
