<svg width="355" height="560" viewBox="0 0 355 560" fill="none" xmlns="http://www.w3.org/2000/svg">
<path d="M114.042 34.5761C88.8512 9.64213 33.921 39.473 29.802 92.129C23.8955 167.636 102.747 238.365 146.425 240.222C162.565 240.908 175.76 222.446 170.776 206.751C146.913 131.608 141.752 62.0035 114.042 34.5761Z" fill="#F9E7E7" stroke="#676564" stroke-width="9.04708"/>
<path d="M178.225 22.6578C192.506 -8.95316 256.78 4.1883 277.701 45.0164C311.649 111.265 263.521 203.828 223.577 221.039C208.816 227.399 189.768 215.312 188.644 199.279C183.262 122.514 162.517 57.4298 178.225 22.6578Z" fill="#F9E7E7" stroke="#676564" stroke-width="9.04708"/>
<path d="M187.565 414.761L187.793 414.773L188.02 414.763C251.975 411.941 292.261 404.022 316.625 387.15C341.63 369.834 349.037 343.782 349.528 308.054C350.546 233.988 279.008 182.99 192.703 181.803C106.405 180.617 33.3258 229.622 32.3076 303.693C31.813 339.67 40.424 366.475 65.2905 384.726C89.6495 402.605 128.828 411.621 187.565 414.761Z" fill="#F9E7E7" stroke="#646464" stroke-width="9.33728"/>
<path d="M92.232 496.386L88.0489 494.312L87.6841 495.049L87.5925 495.865L92.232 496.386ZM92.232 496.386C88.0489 494.312 88.0502 494.31 88.0515 494.307L88.0542 494.302L88.0601 494.29L88.0737 494.263C88.0835 494.244 88.095 494.221 88.1081 494.196C88.1344 494.146 88.1673 494.084 88.2071 494.011C88.2865 493.866 88.3934 493.677 88.5296 493.453C88.8016 493.004 89.1921 492.406 89.715 491.714C90.759 490.332 92.3468 488.55 94.592 486.823C99.1588 483.309 106.215 480.204 116.331 480.832C128.236 481.571 135.501 484.481 139.924 487.682C142.134 489.281 143.571 490.909 144.488 492.269C144.944 492.945 145.264 493.543 145.485 494.024C145.596 494.264 145.681 494.474 145.746 494.649C145.779 494.737 145.807 494.815 145.83 494.885C145.841 494.919 145.852 494.952 145.861 494.982L145.874 495.025L145.88 495.045L145.883 495.055C145.885 495.06 145.886 495.064 141.408 496.386M92.232 496.386C87.5925 495.865 87.5925 495.865 87.5924 495.865L87.5923 495.866L87.592 495.869L87.5909 495.879L87.5867 495.917L87.5708 496.061C87.557 496.186 87.5369 496.37 87.5115 496.607C87.4606 497.081 87.3881 497.767 87.3012 498.622C87.1273 500.331 86.8952 502.72 86.6617 505.44C86.1979 510.846 85.7167 517.695 85.696 523.135C85.6955 523.247 85.6951 523.36 85.6946 523.473C85.674 528.709 85.6535 533.925 86.9939 538.587C88.4695 543.721 91.4953 547.984 96.9566 551.625C98.2912 552.515 99.8844 553.063 101.309 553.436C102.803 553.828 104.472 554.117 106.178 554.336C109.593 554.774 113.493 554.974 117.107 555.054C120.74 555.133 124.18 555.093 126.705 555.034C127.97 555.004 129.011 554.969 129.739 554.942C130.103 554.928 130.389 554.916 130.586 554.908C130.684 554.903 130.76 554.9 130.813 554.898L130.874 554.895L130.891 554.894L130.895 554.894L130.897 554.894C130.898 554.894 130.898 554.894 130.671 550.23M141.408 496.386C146.029 495.719 146.029 495.719 146.029 495.72L146.029 495.72L146.03 495.723L146.031 495.73L146.035 495.759L146.05 495.867C146.064 495.961 146.083 496.099 146.108 496.277C146.158 496.633 146.229 497.147 146.316 497.789C146.49 499.071 146.726 500.863 146.975 502.905C147.469 506.959 148.03 512.108 148.249 516.212C148.458 520.124 148.576 525.057 148.641 528.976C148.675 530.943 148.695 532.669 148.707 533.904C148.71 534.265 148.713 534.584 148.715 534.855C148.92 535.318 149.168 535.915 149.41 536.592C149.915 538.009 150.658 540.47 150.411 542.918C150.061 546.386 147.855 548.729 145.842 550.161C143.82 551.6 141.421 552.551 139.362 553.191C137.252 553.847 135.208 554.263 133.718 554.515C132.965 554.643 132.335 554.731 131.886 554.789C131.661 554.817 131.48 554.839 131.35 554.853C131.285 554.86 131.233 554.866 131.195 554.87L131.147 554.875L131.132 554.876L131.126 554.877L131.123 554.877C131.122 554.877 131.121 554.877 130.671 550.23M141.408 496.386L146.029 495.719L145.981 495.387L145.886 495.064L141.408 496.386ZM130.671 550.23L130.898 554.894L131.01 554.888L131.121 554.877L130.671 550.23Z" fill="#F9E7E7" stroke="#646464" stroke-width="9.33728"/>
<path d="M283.666 496.386L287.85 494.312L288.214 495.049L288.306 495.865L283.666 496.386ZM283.666 496.386C287.85 494.312 287.848 494.31 287.847 494.307L287.844 494.302L287.838 494.29L287.825 494.263C287.815 494.244 287.803 494.221 287.79 494.196C287.764 494.146 287.731 494.084 287.691 494.011C287.612 493.866 287.505 493.677 287.369 493.453C287.097 493.004 286.706 492.406 286.183 491.714C285.139 490.332 283.552 488.55 281.306 486.823C276.74 483.309 269.684 480.204 259.567 480.832C247.663 481.571 240.397 484.481 235.974 487.682C233.765 489.281 232.328 490.909 231.41 492.269C230.954 492.945 230.634 493.543 230.413 494.024C230.303 494.264 230.217 494.474 230.152 494.649C230.119 494.737 230.092 494.815 230.069 494.885C230.057 494.919 230.047 494.952 230.037 494.982L230.024 495.025L230.018 495.045L230.015 495.055C230.014 495.06 230.012 495.064 234.49 496.386M283.666 496.386C288.306 495.865 288.306 495.865 288.306 495.865L288.306 495.866L288.306 495.869L288.308 495.879L288.312 495.917L288.328 496.061C288.341 496.186 288.362 496.37 288.387 496.607C288.438 497.081 288.51 497.767 288.597 498.622C288.771 500.331 289.003 502.72 289.237 505.44C289.701 510.846 290.182 517.695 290.202 523.135C290.203 523.247 290.203 523.36 290.204 523.473C290.224 528.709 290.245 533.925 288.905 538.587C287.429 543.721 284.403 547.984 278.942 551.625C277.607 552.515 276.014 553.063 274.59 553.436C273.096 553.828 271.427 554.117 269.72 554.336C266.305 554.774 262.405 554.974 258.792 555.054C255.159 555.133 251.719 555.093 249.193 555.034C247.928 555.004 246.887 554.969 246.159 554.942C245.795 554.928 245.509 554.916 245.313 554.908C245.214 554.903 245.138 554.9 245.085 554.898L245.025 554.895L245.008 554.894L245.003 554.894L245.001 554.894C245.001 554.894 245 554.894 245.228 550.23M234.49 496.386C229.869 495.719 229.869 495.719 229.869 495.72L229.869 495.72L229.869 495.723L229.868 495.73L229.864 495.759L229.848 495.867C229.835 495.961 229.815 496.099 229.79 496.277C229.74 496.633 229.669 497.147 229.582 497.789C229.409 499.071 229.173 500.863 228.924 502.905C228.429 506.959 227.868 512.108 227.649 516.212C227.441 520.124 227.323 525.057 227.257 528.976C227.224 530.943 227.204 532.669 227.192 533.904C227.188 534.265 227.185 534.584 227.183 534.855C226.978 535.318 226.731 535.915 226.489 536.592C225.983 538.009 225.24 540.47 225.488 542.918C225.838 546.386 228.044 548.729 230.056 550.161C232.078 551.6 234.477 552.551 236.536 553.191C238.646 553.847 240.69 554.263 242.181 554.515C242.934 554.643 243.563 554.731 244.013 554.789C244.238 554.817 244.419 554.839 244.548 554.853C244.613 554.86 244.665 554.866 244.704 554.87L244.751 554.875L244.767 554.876L244.773 554.877L244.775 554.877C244.776 554.877 244.777 554.877 245.228 550.23M234.49 496.386L229.869 495.719L229.917 495.387L230.012 495.064L234.49 496.386ZM245.228 550.23L245 554.894L244.889 554.888L244.777 554.877L245.228 550.23Z" fill="#F9E7E7" stroke="#646464" stroke-width="9.33728"/>
<path d="M100.283 388.801L97.5339 385.027L97.3765 385.142L97.2292 385.269L100.283 388.801ZM100.283 388.801C97.2292 385.269 97.2283 385.27 97.2273 385.271L97.2244 385.273L97.2154 385.281L97.1848 385.308L97.0738 385.404C96.9781 385.488 96.8394 385.61 96.6604 385.769C96.3023 386.086 95.7829 386.551 95.1238 387.152C93.8058 388.354 91.9274 390.101 89.6625 392.306C85.1371 396.711 79.0455 402.963 72.7878 410.348C60.458 424.898 46.761 444.672 44.1005 463.718C43.4185 468.6 43.2321 472.834 44.8474 476.766C46.458 480.688 49.5611 483.577 53.4351 486.59C58.0802 490.203 64.2188 491.171 69.806 490.341C75.4271 489.507 81.1215 486.773 85.0445 482.126C87.1782 479.599 88.213 476.397 88.7358 474.238C89.0135 473.09 89.1839 472.075 89.2859 471.341C89.6507 470.789 90.1726 470.005 90.8243 469.038C92.1785 467.027 94.09 464.232 96.316 461.094C100.801 454.774 106.442 447.239 111.341 441.916C114.5 438.484 117.604 435.355 120.584 432.352C121.657 431.27 122.714 430.205 123.752 429.147C127.59 425.236 131.194 421.403 133.897 417.578C133.979 417.462 134.061 417.345 134.144 417.228C136.16 414.378 138.291 411.365 139.508 408.085C140.894 404.352 141.074 400.437 139.654 395.864C138.187 391.135 135.884 386.934 132.475 383.682C129.031 380.398 124.688 378.303 119.535 377.469C114.161 376.6 108.357 378.93 104.606 380.801C102.585 381.809 100.84 382.851 99.6015 383.638C98.9794 384.034 98.4776 384.37 98.1248 384.612C97.9481 384.733 97.8083 384.831 97.7087 384.902C97.659 384.937 97.6192 384.966 97.5899 384.987L97.5539 385.013L97.5419 385.021L97.5373 385.025L97.5355 385.026C97.5346 385.027 97.5339 385.027 100.283 388.801Z" fill="#F9E7E7" stroke="#646464" stroke-width="9.33728"/>
<path d="M277.526 388.801L280.275 385.027L280.432 385.142L280.579 385.269L277.526 388.801ZM277.526 388.801C280.579 385.269 280.58 385.27 280.581 385.271L280.584 385.273L280.593 385.281L280.624 385.308L280.735 385.404C280.83 385.488 280.969 385.61 281.148 385.769C281.506 386.086 282.026 386.551 282.685 387.152C284.003 388.354 285.881 390.101 288.146 392.306C292.672 396.711 298.763 402.963 305.021 410.348C317.351 424.898 331.048 444.672 333.708 463.718C334.39 468.6 334.577 472.834 332.961 476.766C331.351 480.688 328.247 483.577 324.373 486.59C319.728 490.203 313.59 491.171 308.003 490.341C302.382 489.507 296.687 486.773 292.764 482.126C290.63 479.599 289.596 476.397 289.073 474.238C288.795 473.09 288.625 472.075 288.523 471.341C288.158 470.789 287.636 470.005 286.984 469.038C285.63 467.027 283.719 464.232 281.493 461.094C277.008 454.774 271.366 447.239 266.468 441.916C263.309 438.484 260.205 435.355 257.225 432.352C256.151 431.27 255.094 430.205 254.056 429.147C250.219 425.236 246.615 421.403 243.912 417.578C243.83 417.462 243.747 417.345 243.664 417.228C241.649 414.378 239.518 411.365 238.3 408.085C236.915 404.352 236.735 400.437 238.154 395.864C239.622 391.135 241.924 386.934 245.334 383.682C248.777 380.398 253.121 378.303 258.274 377.469C263.647 376.6 269.452 378.93 273.203 380.801C275.223 381.809 276.969 382.851 278.207 383.638C278.829 384.034 279.331 384.37 279.684 384.612C279.86 384.733 280 384.831 280.1 384.902C280.15 384.937 280.189 384.966 280.219 384.987L280.255 385.013L280.267 385.021L280.271 385.025L280.273 385.026C280.274 385.027 280.275 385.027 277.526 388.801Z" fill="#F9E7E7" stroke="#646464" stroke-width="9.33728"/>
<path d="M94.7133 394.466L90.8731 391.811L90.3602 392.552L90.1605 393.432L94.7133 394.466ZM94.7133 394.466C90.8731 391.811 90.8741 391.809 90.8751 391.808L90.8773 391.805L90.8824 391.797L90.8953 391.779L90.9318 391.727C90.9609 391.686 90.9994 391.632 91.0472 391.566C91.1427 391.435 91.2755 391.256 91.4436 391.038C91.779 390.602 92.259 390.004 92.8681 389.313C94.0742 387.944 95.8473 386.138 98.0678 384.491C102.406 381.274 109.447 378.015 117.267 381.679C141.574 393.065 171.399 398.227 198.671 397.921C226.131 397.614 250.021 391.784 262.99 382.158C266.488 379.562 270.431 379.924 273.451 381.011C276.405 382.074 279.155 384.028 281.352 385.88C283.604 387.779 285.57 389.825 286.955 391.368C287.653 392.146 288.218 392.812 288.612 393.29C288.81 393.529 288.965 393.721 289.075 393.858C289.129 393.926 289.173 393.981 289.204 394.02L289.241 394.068L289.253 394.083L289.257 394.089L289.259 394.091C289.26 394.092 289.26 394.093 285.572 396.956M94.7133 394.466C90.1605 393.432 90.1604 393.432 90.1603 393.433L90.16 393.435L90.1587 393.44L90.1544 393.459L90.1384 393.53C90.1245 393.592 90.1042 393.683 90.0778 393.801C90.025 394.038 89.948 394.386 89.8499 394.836C89.6538 395.735 89.3734 397.04 89.0335 398.678C88.354 401.951 87.4357 406.556 86.4788 411.891C84.5724 422.52 82.4832 436.207 81.8577 448.063L81.8517 448.176C80.7522 469.015 79.6784 489.365 90.6436 508.872C93.4951 513.944 99.5724 517.326 106.064 519.747C112.821 522.268 121.196 524.164 130.075 525.582C147.863 528.423 168.397 529.46 183.729 529.46H183.953C203.758 529.46 225.886 529.46 244.554 526.529C253.939 525.055 262.708 522.805 269.997 519.295C277.306 515.775 283.401 510.849 286.934 503.91C297.678 482.806 296.73 468.453 295.271 446.341C295.239 445.861 295.207 445.379 295.175 444.892C294.42 433.404 293.175 421.261 292.122 412.012C291.595 407.382 291.115 403.467 290.766 400.707C290.592 399.327 290.451 398.236 290.352 397.488C290.303 397.114 290.265 396.826 290.239 396.63L290.209 396.408L290.202 396.35L290.2 396.335L290.199 396.331L290.199 396.33C290.199 396.33 290.199 396.33 285.572 396.956M285.572 396.956L289.26 394.093L290.03 395.085L290.199 396.33L285.572 396.956Z" fill="#F9E7E7" stroke="#646464" stroke-width="9.33728"/>
<path d="M344.858 307.991C343.888 378.575 315.789 404.759 187.809 410.43C70.5301 404.145 35.8852 374.012 36.8555 303.429C92.4102 351.665 123.575 367.946 187.81 370.55C255.875 373.31 297.208 363.677 344.858 307.991Z" fill="#F9E7E7"/>
<path d="M146.829 387.952C146.829 387.952 187.881 382.697 227.938 387.952C236.531 389.079 245.316 389.975 248.961 395.054C255.921 404.75 244.785 415.792 234.615 422.039C224.671 428.147 208.972 433.378 191.574 433.544C173.532 433.716 158.903 428.573 146.829 422.039C136.238 416.309 124.902 404.843 131.914 395.054C135.671 389.809 146.829 387.952 146.829 387.952Z" fill="#F1DDDD"/>
<path d="M192.68 325.159C192.084 325.199 189.857 325.199 190.416 323.973C190.809 323.109 193.304 323.421 193.111 324.485C192.903 325.626 190.858 325.271 190.119 325.213C188.979 325.123 188.161 325.297 188.084 323.919C187.938 321.293 191.025 322.322 192.747 322.706C193.453 322.864 196.188 323.268 196.345 324.512C196.417 325.079 195.49 325.661 195.051 325.779C194.11 326.033 193.396 325.344 192.518 325.213C192.101 325.151 189.037 325.427 189.486 324.445C190.124 323.047 192.122 321.927 193.529 322.612C194.069 322.875 194.698 322.925 194.243 323.38C193.602 324.021 193.313 324.977 192.801 325.712C191.679 327.321 189.47 325.066 188.637 324.108C187.341 322.618 188.092 321.725 189.769 321.817C190.87 321.877 194.706 321.552 195.294 322.679C195.488 323.051 196.182 325.667 195.847 325.887C195.071 326.394 193.286 325.401 192.707 325.078C192.077 324.727 191.168 324.084 190.712 323.461C189.43 321.708 191.099 323.814 190.739 322.733" stroke="#EE8E7E" stroke-width="2.48994" stroke-linecap="round"/>
<path d="M129.516 310.371C125.509 310.371 122.17 307.976 122.17 312.901C122.17 314.873 127.055 320.113 128.374 316.534C130.751 310.08 121.517 308.481 121.517 312.575C121.517 315.2 126.221 317.187 128.006 315.105C130.916 311.71 122.854 309.019 122.17 310.697C120.842 313.956 129.198 320.568 130.088 313.228C130.461 310.144 126.226 311.077 124.292 311.105C112.703 311.276 128.782 323.93 128.782 314.779" stroke="#646464" stroke-width="3.76962" stroke-linecap="round"/>
<path d="M256.665 310.371C252.658 310.371 249.318 307.976 249.318 312.901C249.318 314.873 254.203 320.113 255.522 316.534C257.899 310.08 248.665 308.481 248.665 312.575C248.665 315.2 253.37 317.187 255.155 315.105C258.064 311.71 250.002 309.019 249.318 310.697C247.991 313.956 256.346 320.568 257.236 313.228C257.61 310.144 253.375 311.077 251.441 311.105C239.852 311.276 255.93 323.93 255.93 314.779" stroke="#646464" stroke-width="3.76962" stroke-linecap="round"/>
<path d="M186.369 338.197C186.088 338.706 184.835 340.988 184.629 341.537C184.706 341.691 185.641 341.73 185.87 341.701C187.139 341.539 188.44 341.654 189.716 341.588C192.739 341.432 195.782 341.241 198.788 340.896C200.097 340.745 201.433 340.696 202.701 340.337L202.709 340.334C203.327 340.159 204.139 339.929 204.342 339.321C204.534 338.745 203.97 338.136 203.593 337.66C203.058 336.982 199.352 333.694 198.732 333.178C198.064 332.622 197.374 332.093 196.665 331.593C195.753 330.95 194.821 330.468 193.778 330.101C193.464 329.99 193.172 329.989 192.844 329.998C191.608 330.032 191.019 331.65 190.496 332.511C189.226 334.6 187.549 336.056 186.369 338.197Z" fill="white" stroke="#646464" stroke-width="6.03139" stroke-linecap="round"/>
</svg>
