<svg width="365" height="455" viewBox="0 0 365 455" fill="none" xmlns="http://www.w3.org/2000/svg">
<path d="M181.569 309.246L181.797 309.258L182.024 309.248C245.978 306.426 286.265 298.506 310.629 281.635C335.634 264.319 343.041 238.266 343.532 202.538C344.55 128.472 273.012 77.4742 186.707 76.2877C100.409 75.1014 27.3297 124.106 26.3115 198.177C25.8169 234.154 34.4279 260.96 59.2944 279.211C83.6534 297.089 122.831 306.105 181.569 309.246Z" fill="#424242" stroke="#646464" stroke-width="9.33728"/>
<path d="M86.2359 390.872L82.0528 388.799L81.688 389.535L81.5964 390.351L86.2359 390.872ZM86.2359 390.872C82.0528 388.799 82.0541 388.796 82.0554 388.794L82.0581 388.788L82.064 388.776L82.0776 388.749C82.0874 388.73 82.0989 388.708 82.1121 388.682C82.1383 388.632 82.1712 388.57 82.211 388.497C82.2904 388.352 82.3973 388.164 82.5335 387.939C82.8055 387.49 83.196 386.893 83.7189 386.2C84.7629 384.818 86.3507 383.037 88.5959 381.309C93.1628 377.795 100.218 374.691 110.335 375.319C122.24 376.058 129.505 378.967 133.928 382.168C136.138 383.767 137.575 385.396 138.492 386.756C138.948 387.431 139.268 388.03 139.489 388.51C139.6 388.75 139.685 388.96 139.75 389.135C139.783 389.223 139.81 389.302 139.834 389.371C139.845 389.406 139.856 389.438 139.865 389.468L139.878 389.511L139.884 389.531L139.887 389.541C139.889 389.546 139.89 389.551 135.412 390.872M86.2359 390.872C81.5964 390.351 81.5964 390.352 81.5963 390.352L81.5962 390.353L81.5959 390.356L81.5948 390.366L81.5906 390.403L81.5747 390.547C81.5609 390.673 81.5408 390.857 81.5154 391.093C81.4645 391.567 81.392 392.253 81.3051 393.108C81.1312 394.818 80.8991 397.206 80.6656 399.927C80.2018 405.332 79.7206 412.181 79.6999 417.621C79.6994 417.734 79.699 417.847 79.6985 417.959C79.6779 423.196 79.6574 428.411 80.9978 433.074C82.4734 438.207 85.4992 442.471 90.9605 446.111C92.2951 447.001 93.8883 447.549 95.3125 447.922C96.8067 448.314 98.4758 448.603 100.182 448.822C103.597 449.261 107.497 449.461 111.111 449.54C114.744 449.62 118.184 449.58 120.709 449.52C121.974 449.491 123.015 449.456 123.743 449.428C124.107 449.415 124.393 449.403 124.59 449.394C124.688 449.39 124.764 449.386 124.817 449.384L124.878 449.381L124.894 449.38L124.899 449.38L124.901 449.38C124.902 449.38 124.902 449.38 124.675 444.717M135.412 390.872C140.033 390.206 140.033 390.206 140.033 390.206L140.033 390.207L140.034 390.209L140.035 390.217L140.039 390.245L140.054 390.353C140.068 390.448 140.087 390.586 140.112 390.763C140.162 391.119 140.233 391.634 140.32 392.275C140.494 393.557 140.729 395.349 140.979 397.391C141.473 401.445 142.034 406.594 142.253 410.698C142.462 414.611 142.579 419.544 142.645 423.462C142.678 425.429 142.699 427.155 142.711 428.39C142.714 428.751 142.717 429.07 142.719 429.341C142.924 429.804 143.171 430.401 143.413 431.078C143.919 432.495 144.662 434.957 144.415 437.405C144.065 440.872 141.859 443.215 139.846 444.647C137.824 446.086 135.425 447.037 133.366 447.677C131.256 448.333 129.212 448.749 127.722 449.001C126.969 449.129 126.339 449.217 125.89 449.275C125.665 449.304 125.484 449.325 125.354 449.339C125.289 449.347 125.237 449.352 125.199 449.356L125.151 449.361L125.135 449.363L125.13 449.363L125.127 449.363C125.126 449.364 125.125 449.364 124.675 444.717M135.412 390.872L140.033 390.206L139.985 389.873L139.89 389.551L135.412 390.872ZM124.675 444.717L124.902 449.38L125.014 449.374L125.125 449.364L124.675 444.717Z" fill="#424242" stroke="#646464" stroke-width="9.33728"/>
<path d="M277.67 390.872L281.853 388.799L282.218 389.535L282.31 390.351L277.67 390.872ZM277.67 390.872C281.853 388.799 281.852 388.796 281.851 388.794L281.848 388.788L281.842 388.776L281.829 388.749C281.819 388.73 281.807 388.708 281.794 388.682C281.768 388.632 281.735 388.57 281.695 388.497C281.616 388.352 281.509 388.164 281.373 387.939C281.101 387.49 280.71 386.893 280.187 386.2C279.143 384.818 277.556 383.037 275.31 381.309C270.743 377.795 263.688 374.691 253.571 375.319C241.666 376.058 234.401 378.967 229.978 382.168C227.769 383.767 226.331 385.396 225.414 386.756C224.958 387.431 224.638 388.03 224.417 388.51C224.307 388.75 224.221 388.96 224.156 389.135C224.123 389.223 224.096 389.302 224.073 389.371C224.061 389.406 224.051 389.438 224.041 389.468L224.028 389.511L224.022 389.531L224.019 389.541C224.018 389.546 224.016 389.551 228.494 390.872M277.67 390.872C282.31 390.351 282.31 390.352 282.31 390.352L282.31 390.353L282.31 390.356L282.311 390.366L282.316 390.403L282.332 390.547C282.345 390.673 282.365 390.857 282.391 391.093C282.442 391.567 282.514 392.253 282.601 393.108C282.775 394.818 283.007 397.206 283.241 399.927C283.704 405.332 284.186 412.181 284.206 417.621C284.207 417.734 284.207 417.847 284.208 417.959C284.228 423.196 284.249 428.411 282.908 433.074C281.433 438.207 278.407 442.471 272.946 446.111C271.611 447.001 270.018 447.549 268.594 447.922C267.1 448.314 265.43 448.603 263.724 448.822C260.309 449.261 256.409 449.461 252.796 449.54C249.163 449.62 245.723 449.58 243.197 449.52C241.932 449.491 240.891 449.456 240.163 449.428C239.799 449.415 239.513 449.403 239.316 449.394C239.218 449.39 239.142 449.386 239.089 449.384L239.029 449.381L239.012 449.38L239.007 449.38L239.005 449.38C239.005 449.38 239.004 449.38 239.232 444.717M228.494 390.872C223.873 390.206 223.873 390.206 223.873 390.206L223.873 390.207L223.873 390.209L223.872 390.217L223.867 390.245L223.852 390.353C223.839 390.448 223.819 390.586 223.794 390.763C223.744 391.119 223.673 391.634 223.586 392.275C223.413 393.557 223.177 395.349 222.928 397.391C222.433 401.445 221.872 406.594 221.653 410.698C221.445 414.611 221.327 419.544 221.261 423.462C221.228 425.429 221.207 427.155 221.195 428.39C221.192 428.751 221.189 429.07 221.187 429.341C220.982 429.804 220.735 430.401 220.493 431.078C219.987 432.495 219.244 434.957 219.491 437.405C219.842 440.872 222.048 443.215 224.06 444.647C226.082 446.086 228.481 447.037 230.54 447.677C232.65 448.333 234.694 448.749 236.185 449.001C236.937 449.129 237.567 449.217 238.017 449.275C238.242 449.304 238.422 449.325 238.552 449.339C238.617 449.347 238.669 449.352 238.707 449.356L238.755 449.361L238.771 449.363L238.777 449.363L238.779 449.363C238.78 449.364 238.781 449.364 239.232 444.717M228.494 390.872L223.873 390.206L223.921 389.873L224.016 389.551L228.494 390.872ZM239.232 444.717L239.004 449.38L238.893 449.374L238.781 449.364L239.232 444.717Z" fill="#424242" stroke="#646464" stroke-width="9.33728"/>
<path d="M94.2865 283.285L91.5378 279.512L91.3804 279.626L91.2331 279.754L94.2865 283.285ZM94.2865 283.285C91.2331 279.754 91.2323 279.754 91.2312 279.755L91.2283 279.758L91.2193 279.766L91.1887 279.792L91.0777 279.889C90.982 279.973 90.8433 280.095 90.6643 280.254C90.3062 280.571 89.7868 281.036 89.1277 281.637C87.8097 282.838 85.9313 284.586 83.6664 286.79C79.141 291.195 73.0494 297.447 66.7917 304.832C54.4619 319.383 40.7649 339.157 38.1044 358.203C37.4224 363.085 37.236 367.318 38.8513 371.251C40.4619 375.172 43.565 378.062 47.439 381.075C52.0841 384.687 58.2227 385.655 63.8099 384.826C69.431 383.991 75.1254 381.257 79.0484 376.611C81.1821 374.084 82.2169 370.882 82.7397 368.722C83.0174 367.575 83.1878 366.56 83.2898 365.826C83.6546 365.274 84.1765 364.49 84.8282 363.522C86.1824 361.512 88.0939 358.716 90.3199 355.579C94.8044 349.259 100.446 341.723 105.345 336.401C108.503 332.968 111.608 329.84 114.588 326.836C115.661 325.755 116.718 324.689 117.756 323.632C121.594 319.721 125.198 315.888 127.901 312.063C127.983 311.946 128.065 311.83 128.148 311.713C130.164 308.863 132.295 305.85 133.512 302.57C134.898 298.837 135.077 294.922 133.658 290.349C132.19 285.619 129.888 281.419 126.479 278.167C123.035 274.883 118.692 272.788 113.539 271.954C108.165 271.084 102.361 273.415 98.6097 275.286C96.5893 276.293 94.8438 277.335 93.6054 278.123C92.9833 278.518 92.4816 278.855 92.1287 279.097C91.952 279.218 91.8122 279.316 91.7127 279.386C91.6629 279.422 91.6231 279.45 91.5938 279.471L91.5578 279.497L91.5458 279.506L91.5413 279.509L91.5394 279.511C91.5386 279.511 91.5378 279.512 94.2865 283.285Z" fill="#424242" stroke="#646464" stroke-width="9.33728"/>
<path d="M271.534 284.341L274.283 280.567L274.44 280.682L274.587 280.809L271.534 284.341ZM271.534 284.341C274.587 280.809 274.588 280.81 274.589 280.811L274.592 280.813L274.601 280.821L274.632 280.848L274.743 280.944C274.838 281.028 274.977 281.15 275.156 281.309C275.514 281.626 276.033 282.091 276.693 282.692C278.011 283.894 279.889 285.641 282.154 287.846C286.679 292.251 292.771 298.503 299.029 305.888C311.358 320.438 325.055 340.212 327.716 359.258C328.398 364.14 328.584 368.374 326.969 372.306C325.358 376.228 322.255 379.117 318.381 382.13C313.736 385.743 307.598 386.711 302.01 385.881C296.389 385.047 290.695 382.313 286.772 377.666C284.638 375.139 283.603 371.937 283.081 369.778C282.803 368.631 282.633 367.615 282.531 366.881C282.166 366.329 281.644 365.545 280.992 364.578C279.638 362.567 277.726 359.772 275.5 356.634C271.016 350.314 265.374 342.779 260.476 337.456C257.317 334.024 254.213 330.895 251.232 327.892C250.159 326.81 249.102 325.745 248.064 324.687C244.226 320.776 240.623 316.943 237.92 313.118C237.838 313.002 237.755 312.885 237.672 312.768C235.656 309.918 233.525 306.905 232.308 303.625C230.923 299.892 230.743 295.977 232.162 291.404C233.63 286.675 235.932 282.474 239.341 279.222C242.785 275.938 247.128 273.843 252.281 273.009C257.655 272.14 263.459 274.47 267.211 276.341C269.231 277.349 270.977 278.391 272.215 279.178C272.837 279.574 273.339 279.91 273.692 280.152C273.868 280.273 274.008 280.371 274.108 280.442C274.157 280.477 274.197 280.506 274.226 280.527L274.263 280.553L274.275 280.561L274.279 280.565L274.281 280.566C274.282 280.567 274.283 280.567 271.534 284.341Z" fill="#424242" stroke="#646464" stroke-width="9.33728"/>
<path d="M63.3151 47.3681C64.6783 43.4061 68.947 41.3134 72.9135 42.6635C83.4999 46.2667 103.56 53.3699 116.655 59.7176C124.951 63.7387 134.85 69.3226 142.339 73.6936C147.484 76.6959 147.329 84.09 142.115 86.971L56.7884 134.125C51.2826 137.167 44.668 132.772 45.4308 126.528C46.866 114.778 49.0385 98.6366 51.2753 88.1179C54.0534 75.0543 59.9512 57.1453 63.3151 47.3681Z" fill="#646464"/>
<path d="M69.0729 58.6447C70.3703 54.4868 74.8541 52.3016 78.9354 53.8229C88.8695 57.5257 106.56 64.3851 118.265 70.4422C125.781 74.3316 134.74 79.6747 141.614 83.9117C146.608 86.9893 146.372 94.2364 141.245 97.0851L66.0993 138.834C60.6691 141.851 54.1036 137.61 54.7063 131.427C55.7783 120.433 57.4087 105.591 59.2064 95.8813C61.401 84.0276 66.166 67.961 69.0729 58.6447Z" fill="#424242"/>
<path d="M296.61 48.3407C295.012 44.6919 290.906 42.9165 287.15 44.2425C277.022 47.8179 257.526 54.9653 244.956 61.2547C237.419 65.0252 228.544 70.1656 221.595 74.3364C216.387 77.4626 216.785 85.033 222.24 87.7075L308.786 130.146C314.528 132.961 320.981 128.046 319.702 121.781C317.467 110.837 314.315 96.3717 311.473 86.8394C307.777 74.4451 300.598 57.4525 296.61 48.3407Z" fill="#646464"/>
<path d="M292.196 59.3573C291.005 56.3865 287.836 54.7674 284.739 55.5745C275.344 58.0226 255.759 63.5273 243.504 69.7929C236.202 73.5256 227.518 79.5649 221.403 84.0669C217.655 86.8254 218.113 92.4543 222.184 94.7067L300.589 138.077C305.03 140.534 310.404 137.221 310.076 132.156C309.389 121.576 308.021 106.182 305.525 97.0417C302.179 84.7913 295.57 67.7721 292.196 59.3573Z" fill="#424242"/>
<path d="M88.7211 288.952L84.8809 286.297L84.368 287.039L84.1683 287.918L88.7211 288.952ZM88.7211 288.952C84.8809 286.297 84.8819 286.295 84.8829 286.294L84.8851 286.291L84.8902 286.283L84.9031 286.265L84.9396 286.213C84.9687 286.172 85.0073 286.118 85.055 286.052C85.1506 285.921 85.2833 285.742 85.4514 285.524C85.7868 285.088 86.2668 284.49 86.8759 283.799C88.082 282.43 89.8552 280.624 92.0756 278.977C96.4142 275.76 103.455 272.501 111.275 276.165C135.582 287.552 165.407 292.713 192.679 292.407C220.139 292.1 244.029 286.27 256.998 276.644C260.496 274.048 264.439 274.41 267.459 275.497C270.413 276.56 273.163 278.514 275.359 280.366C277.612 282.265 279.578 284.311 280.962 285.854C281.661 286.632 282.225 287.298 282.62 287.776C282.818 288.015 282.973 288.207 283.083 288.344C283.137 288.413 283.18 288.467 283.212 288.507L283.249 288.554L283.261 288.569L283.265 288.575L283.267 288.577C283.267 288.578 283.268 288.579 279.58 291.442M88.7211 288.952C84.1683 287.918 84.1682 287.918 84.1681 287.919L84.1678 287.921L84.1666 287.926L84.1623 287.945L84.1462 288.016C84.1323 288.078 84.112 288.169 84.0856 288.287C84.0328 288.524 83.9558 288.872 83.8577 289.322C83.6616 290.221 83.3812 291.526 83.0413 293.164C82.3618 296.437 81.4435 301.042 80.4866 306.377C78.5802 317.006 76.491 330.693 75.8655 342.549L75.8595 342.663C74.76 363.501 73.6862 383.851 84.6514 403.358C87.5029 408.43 93.5802 411.812 100.072 414.234C106.829 416.754 115.204 418.65 124.083 420.068C141.871 422.909 162.405 423.946 177.737 423.946H177.961C197.765 423.946 219.893 423.946 238.562 421.015C247.947 419.541 256.716 417.291 264.005 413.781C271.314 410.261 277.409 405.335 280.942 398.396C291.685 377.292 290.738 362.939 289.278 340.827C289.247 340.348 289.215 339.865 289.183 339.378C288.428 327.89 287.182 315.747 286.13 306.498C285.603 301.868 285.123 297.953 284.774 295.193C284.6 293.813 284.458 292.722 284.36 291.974C284.311 291.6 284.273 291.312 284.247 291.116L284.217 290.894L284.21 290.836L284.207 290.821L284.207 290.817L284.207 290.816C284.207 290.816 284.207 290.816 279.58 291.442M279.58 291.442L283.268 288.579L284.038 289.571L284.207 290.816L279.58 291.442Z" fill="#424242" stroke="#646464" stroke-width="9.33728"/>
<path d="M338.862 202.476C337.892 273.06 309.793 299.244 181.813 304.915C64.534 298.63 29.8891 268.497 30.8594 197.913C86.4141 246.149 117.579 262.431 181.814 265.035C249.878 267.794 291.211 258.161 338.862 202.476Z" fill="#424242"/>
<path d="M140.833 282.438C140.833 282.438 181.885 277.183 221.942 282.438C230.534 283.565 239.32 284.461 242.965 289.539C249.925 299.235 238.789 310.278 228.618 316.525C218.675 322.632 202.976 327.863 185.578 328.029C167.536 328.201 152.907 323.058 140.833 316.525C130.242 310.794 118.906 299.328 125.918 289.539C129.674 284.295 140.833 282.438 140.833 282.438Z" fill="#353535"/>
<path d="M173.355 223.588C174.678 223.588 178.476 225.517 179.312 224.453C179.787 223.848 180.489 223.452 181.125 223.048C181.91 222.55 181.952 222.146 182.482 221.595C182.968 221.09 183.089 220.501 183.467 220.082C183.834 219.673 184.149 220.241 184.451 220.586C185.006 221.22 185.707 221.386 186.397 221.859C187.603 222.686 189.105 223.329 190.492 223.889C191.727 224.387 192.605 224.501 193.938 224.453C195.066 224.413 195.743 223.635 196.7 223.156" stroke="#676564" stroke-width="4.97988" stroke-linecap="round"/>
<path d="M183.937 215.462C183.342 215.502 181.114 215.503 181.673 214.276C182.067 213.413 184.562 213.724 184.369 214.789C184.161 215.929 182.116 215.574 181.377 215.516C180.236 215.427 179.419 215.601 179.342 214.223C179.196 211.596 182.283 212.626 184.005 213.01C184.711 213.167 187.446 213.572 187.603 214.815C187.675 215.382 186.748 215.964 186.309 216.082C185.368 216.336 184.654 215.647 183.776 215.516C183.359 215.454 180.294 215.731 180.744 214.748C181.382 213.351 183.38 212.23 184.786 212.915C185.327 213.178 185.956 213.228 185.501 213.683C184.86 214.324 184.571 215.28 184.059 216.015C182.937 217.624 180.728 215.369 179.894 214.411C178.599 212.921 179.35 212.029 181.027 212.12C182.127 212.18 185.963 211.855 186.552 212.983C186.746 213.354 187.44 215.971 187.104 216.19C186.329 216.697 184.543 215.705 183.964 215.381C183.335 215.03 182.426 214.388 181.97 213.764C180.688 212.012 182.357 214.117 181.997 213.037" stroke="#A4CFDC" stroke-width="2.48994" stroke-linecap="round"/>
<path d="M124.087 200.643C120.08 200.643 116.74 198.249 116.74 203.174C116.74 205.145 121.625 210.385 122.944 206.806C125.321 200.353 116.087 198.753 116.087 202.847C116.087 205.472 120.792 207.46 122.577 205.378C125.486 201.983 117.424 199.292 116.74 200.97C115.413 204.228 123.768 210.84 124.658 203.5C125.032 200.416 120.796 201.35 118.863 201.378C107.274 201.548 123.352 214.203 123.352 205.051" stroke="#F0F0F0" stroke-width="3.76962" stroke-linecap="round"/>
<path d="M251.235 200.643C247.228 200.643 243.889 198.249 243.889 203.174C243.889 205.145 248.774 210.385 250.092 206.806C252.47 200.353 243.236 198.753 243.236 202.847C243.236 205.472 247.94 207.46 249.725 205.378C252.635 201.983 244.572 199.292 243.889 200.97C242.561 204.228 250.917 210.84 251.806 203.5C252.18 200.416 247.945 201.35 246.011 201.378C234.422 201.548 250.5 214.203 250.5 205.051" stroke="#F0F0F0" stroke-width="3.76962" stroke-linecap="round"/>
</svg>
