<svg xmlns="http://www.w3.org/2000/svg" xmlns:xlink="http://www.w3.org/1999/xlink" width="198.9" height="12.93" viewBox="0 0 198.9 12.93">
  <defs>
    <clipPath id="clip-path">
      <rect id="長方形_50672" data-name="長方形 50672" width="198.9" height="12.93" transform="translate(-24664 -12696.391)" fill="#fff" stroke="#707070" stroke-width="1"/>
    </clipPath>
  </defs>
  <g id="マスクグループ_13401" data-name="マスクグループ 13401" transform="translate(24664 12696.391)" clip-path="url(#clip-path)">
    <g id="グループ_36283" data-name="グループ 36283" transform="translate(-24664 -12696.389)">
      <g id="グループ_35047" data-name="グループ 35047" transform="translate(0)">
        <path id="パス_191346" data-name="パス 191346" d="M209.653.224a8.746,8.746,0,0,1,2.812.828,6.539,6.539,0,0,1,2.643,2.339,5.019,5.019,0,0,1,.959,2.994,5.307,5.307,0,0,1-.943,3.112,6.512,6.512,0,0,1-2.66,2.379,8.723,8.723,0,0,1-2.812.828,28.907,28.907,0,0,1-3.856.223h-8.34a1.223,1.223,0,0,1-1.223-1.223V1.278A1.277,1.277,0,0,1,197.512,0H205.8a28.907,28.907,0,0,1,3.856.223M199.469,3.245V9.692a.962.962,0,0,0,.962.962h7.028c2.121-.09,3.1-.28,3.744-.657a3.569,3.569,0,0,0,1.431-1.525,4.074,4.074,0,0,0,.472-2.087,3.664,3.664,0,0,0-.488-1.981c-.326-.622-1.376-2.129-4.771-2.129h-7.406a.97.97,0,0,0-.97.97" transform="translate(-104.404 -0.001)" fill="#fff"/>
        <path id="パス_191347" data-name="パス 191347" d="M343.655,12.466a.462.462,0,0,1-.462.462H328.9a11.837,11.837,0,0,1-1.973-.138,3.2,3.2,0,0,1-1.288-.476,1.854,1.854,0,0,1-.7-.94,4.557,4.557,0,0,1-.212-1.5V3.056a4.56,4.56,0,0,1,.212-1.5,1.855,1.855,0,0,1,.7-.939,3.209,3.209,0,0,1,1.288-.476A11.945,11.945,0,0,1,328.9,0h14.293a.462.462,0,0,1,.462.462v.923a.462.462,0,0,1-.462.461H328.881a.923.923,0,0,0-.923.923v7.387a.924.924,0,0,0,.923.923h14.313a.462.462,0,0,1,.462.462Z" transform="translate(-172.766)" fill="#fff"/>
        <path id="パス_191348" data-name="パス 191348" d="M131.589,1.567a1.915,1.915,0,0,1,.682-.94,2.979,2.979,0,0,1,1.262-.488A11.761,11.761,0,0,1,135.512,0H147.69a11.777,11.777,0,0,1,1.979.138,2.987,2.987,0,0,1,1.262.488,1.821,1.821,0,0,1,.665.94,5,5,0,0,1,.188,1.49V9.872a4.994,4.994,0,0,1-.188,1.49,1.818,1.818,0,0,1-.665.94,2.981,2.981,0,0,1-1.262.489,11.783,11.783,0,0,1-1.979.138H135.512a11.767,11.767,0,0,1-1.979-.138,2.973,2.973,0,0,1-1.262-.489,1.911,1.911,0,0,1-.682-.94,4.6,4.6,0,0,1-.2-1.49V3.057a4.6,4.6,0,0,1,.2-1.49m17.077,8V3.188a.935.935,0,0,0-.937-.934H135.536A1.033,1.033,0,0,0,134.5,3.286V9.613a1.063,1.063,0,0,0,1.064,1.061h11.985a1.114,1.114,0,0,0,1.115-1.112" transform="translate(-69.901 -0.001)" fill="#fff"/>
        <path id="パス_191349" data-name="パス 191349" d="M279.536,0a.738.738,0,0,1,.738.738V9.871a5.016,5.016,0,0,1-.187,1.491,1.818,1.818,0,0,1-.665.939,2.981,2.981,0,0,1-1.262.489,11.719,11.719,0,0,1-1.979.138H264a11.72,11.72,0,0,1-1.979-.138,2.976,2.976,0,0,1-1.262-.489,1.91,1.91,0,0,1-.682-.939,4.613,4.613,0,0,1-.2-1.491V.738A.739.739,0,0,1,260.615,0h1.639a.739.739,0,0,1,.739.738V9.613a1.061,1.061,0,0,0,1.061,1.061h11.988a1.115,1.115,0,0,0,1.116-1.115V.738A.738.738,0,0,1,277.9,0Z" transform="translate(-138.264)" fill="#fff"/>
        <path id="パス_191350" data-name="パス 191350" d="M65.027,1.132A1.092,1.092,0,0,1,66.121.042H81.454c1.292,0,2.566-.2,3.116.3a2.716,2.716,0,0,1,.591,2.2V5.411a2.4,2.4,0,0,1-.5,1.733,1.407,1.407,0,0,1-.8.34.318.318,0,0,0-.238.47l.637,1.117,1.829,3.386a.319.319,0,0,1-.281.47H83.578a.885.885,0,0,1-.784-.474L80.379,7.845a.948.948,0,0,0-.84-.507H69.017a.756.756,0,0,0-.757.755v4.135a.7.7,0,0,1-.7.7H65.694a.666.666,0,0,1-.667-.665ZM68.26,2.415V4.87a.8.8,0,0,0,.8.8H81.467a.746.746,0,0,0,.714-.747l-.007-2.524a.72.72,0,0,0-.707-.767H69.051a.79.79,0,0,0-.791.789" transform="translate(-34.597 0)" fill="#fff"/>
        <path id="パス_191351" data-name="パス 191351" d="M402.617,0H383.978a.377.377,0,0,0-.377.377v1.06a.378.378,0,0,0,.375.378h7.243a.461.461,0,0,1,.461.461v9.727a.923.923,0,0,0,.924.923h1.385a.923.923,0,0,0,.923-.923V2.278a.462.462,0,0,1,.462-.461h7.241a.377.377,0,0,0,.376-.377V.38A.377.377,0,0,0,402.617,0" transform="translate(-204.09 -0.001)" fill="#fff"/>
        <path id="パス_191352" data-name="パス 191352" d="M0,1.067A1.066,1.066,0,0,1,1.066,0H16.7a5.517,5.517,0,0,1,2.866.576,2.1,2.1,0,0,1,.912,1.929V5.387a2.1,2.1,0,0,1-.912,1.929,5.508,5.508,0,0,1-2.866.576H4.021a.79.79,0,0,0-.789.789v3.18a1.066,1.066,0,0,1-1.066,1.066h-1.1A1.066,1.066,0,0,1,0,11.862Zm3.232,1.57V5.256a.789.789,0,0,0,.789.789H14.945a3.5,3.5,0,0,0,1.335-.188.817.817,0,0,0,.424-.839V2.875a.818.818,0,0,0-.424-.839,3.5,3.5,0,0,0-1.335-.188H4.021a.789.789,0,0,0-.789.789" transform="translate(0 -0.001)" fill="#fff"/>
      </g>
    </g>
  </g>
</svg>
