<svg xmlns="http://www.w3.org/2000/svg" xmlns:xlink="http://www.w3.org/1999/xlink" width="658.957" height="1129.547" viewBox="0 0 658.957 1129.547">
  <defs>
    <clipPath id="clip-path">
      <rect id="長方形_14244" data-name="長方形 14244" width="658.958" height="1129.547" fill="#2e4888"/>
    </clipPath>
  </defs>
  <g id="グループ_38424" data-name="グループ 38424" opacity="0.2">
    <g id="グループ_33831" data-name="グループ 33831" transform="translate(0 0)" clip-path="url(#clip-path)">
      <path id="パス_151224" data-name="パス 151224" d="M218.886,0H14.655a14.621,14.621,0,0,0-11.6,23.532L405.071,547.2a28.853,28.853,0,0,1,0,35.142L3.057,1106.015a14.621,14.621,0,0,0,11.6,23.532H218.886a22.588,22.588,0,0,0,17.845-8.742L651.2,587.4a36.878,36.878,0,0,0,0-45.268L236.731,8.729A22.613,22.613,0,0,0,218.886,0" transform="translate(-0.002 0.001)" fill="#2e4888"/>
    </g>
  </g>
</svg>
