<svg width="73" height="69" viewBox="0 0 73 69" fill="none" xmlns="http://www.w3.org/2000/svg">
<mask id="mask0_766_194" style="mask-type:luminance" maskUnits="userSpaceOnUse" x="0" y="0" width="73" height="69">
<path d="M72.4433 0.785156H0.912109V68.5522H72.4433V0.785156Z" fill="white"/>
</mask>
<g mask="url(#mask0_766_194)">
<path d="M6.76021 44.2596C6.32072 44.4935 5.90958 44.614 5.5835 44.614C5.40629 44.614 5.25743 44.5786 5.13692 44.5077C4.80376 44.3092 4.59819 43.7279 4.59819 42.9553V6.12288C4.59819 5.35022 4.79667 4.76895 5.13692 4.57047C5.25034 4.49959 5.3992 4.46414 5.57641 4.46414C5.90958 4.46414 6.31363 4.58465 6.76021 4.81857L32.74 18.5563H32.7329L36.5607 20.5907L36.6883 20.6403L42.2741 23.5963C43.0468 24.0074 43.302 24.4115 43.302 24.5391C43.302 24.6667 43.0539 25.0707 42.2741 25.4819L40.6438 26.3467L44.5567 28.4095C46.102 27.4171 46.981 26.0348 46.981 24.5391C46.981 22.8733 45.8893 21.3421 43.9896 20.3355L43.3941 20.0236L43.1957 19.9315L35.5258 15.8626L8.48274 1.5649C7.51869 1.05452 6.51211 0.785156 5.56932 0.785156C4.7116 0.785156 3.92477 0.997814 3.23717 1.41604C1.75565 2.30212 0.912109 4.01756 0.912109 6.12288V42.9553C0.912109 45.0606 1.75565 46.776 3.23008 47.6692C3.92477 48.0874 4.7116 48.3001 5.56224 48.3001C6.50502 48.3001 7.5116 48.0307 8.47565 47.5203L32.662 34.7325L28.7136 32.6484L6.75312 44.2596H6.76021Z" fill="#646464"/>
<path d="M70.1181 1.41604C69.4234 0.997814 68.6366 0.785156 67.7859 0.785156C66.8431 0.785156 65.8366 1.05452 64.8725 1.5649L40.6649 14.3598L44.6133 16.4439L66.595 4.82566C67.0345 4.59174 67.4457 4.47123 67.7788 4.47123C67.9561 4.47123 68.1049 4.50668 68.2254 4.57756C68.5586 4.77604 68.7641 5.35731 68.7641 6.12997V42.9624C68.7641 43.735 68.5657 44.3163 68.2254 44.5148C68.112 44.5857 67.9631 44.6211 67.7788 44.6211C67.4457 44.6211 67.0416 44.5006 66.595 44.2667L42.4512 31.5001L42.2528 31.415L34.6042 27.3603L31.0811 25.489C30.3085 25.0778 30.0533 24.6738 30.0533 24.5462C30.0533 24.4115 30.3085 24.0145 31.0811 23.6034L32.669 22.7598L28.7561 20.6971C27.232 21.6895 26.3672 23.0646 26.3672 24.5462C26.3672 26.212 27.4588 27.7431 29.3586 28.7497L32.7186 30.529L36.5606 32.5705L36.6811 32.6201L64.8725 47.5274C65.8366 48.0378 66.8431 48.3072 67.7859 48.3072C68.6436 48.3072 69.4305 48.0945 70.1181 47.6763C71.5925 46.7902 72.4359 45.0677 72.4359 42.9624V6.12288C72.4359 4.01756 71.5925 2.30212 70.1181 1.40895" fill="#646464"/>
<path d="M10.4328 63.9092C10.4328 64.5756 10.3336 65.1923 10.128 65.7594C9.92953 66.3194 9.62472 66.8085 9.22776 67.2267C8.83079 67.6449 8.33459 67.9639 7.73916 68.1978C7.14372 68.4318 6.45613 68.5452 5.68347 68.5452C4.91081 68.5452 4.20904 68.4318 3.61359 68.1978C3.01815 67.9639 2.52195 67.6378 2.12499 67.2267C1.72802 66.8085 1.42321 66.3194 1.22473 65.7594C1.02625 65.1994 0.919922 64.5826 0.919922 63.9092V56.9766H3.40802V63.8171C3.40802 64.1715 3.46473 64.4905 3.57815 64.7882C3.69157 65.0859 3.84752 65.3482 4.046 65.5609C4.24448 65.7735 4.48549 65.9507 4.76904 66.0712C5.05258 66.1918 5.35739 66.2556 5.68347 66.2556C6.00954 66.2556 6.31435 66.1918 6.59081 66.0712C6.86726 65.9507 7.10828 65.7806 7.30676 65.5609C7.50524 65.3411 7.66119 65.0859 7.77461 64.7882C7.88802 64.4905 7.94473 64.1644 7.94473 63.8171V56.9766H10.4328V63.9092Z" fill="#646464"/>
<path d="M69.4668 67.0641C69.4668 66.8585 69.5022 66.6671 69.5802 66.4828C69.6511 66.2985 69.7574 66.1426 69.8921 66.0079C70.0268 65.8732 70.1827 65.7669 70.3671 65.696C70.5514 65.618 70.7427 65.5826 70.9483 65.5826C71.1539 65.5826 71.3453 65.618 71.5296 65.696C71.7139 65.7669 71.8699 65.8732 72.0046 66.0079C72.1393 66.1426 72.2456 66.3056 72.3165 66.4828C72.3945 66.6671 72.4299 66.8585 72.4299 67.0641C72.4299 67.2697 72.3945 67.461 72.3165 67.6454C72.2385 67.8297 72.1393 67.9856 72.0046 68.1203C71.8699 68.255 71.7139 68.3613 71.5296 68.4322C71.3453 68.5031 71.1539 68.5456 70.9483 68.5456C70.7427 68.5456 70.5514 68.5102 70.3671 68.4322C70.1827 68.3542 70.0268 68.255 69.8921 68.1203C69.7574 67.9856 69.6511 67.8297 69.5802 67.6454C69.5022 67.461 69.4668 67.2697 69.4668 67.0641ZM72.1676 64.6752H69.7433V57.0195H72.1676V64.6752Z" fill="#646464"/>
<path d="M19.1572 60.7695H24.3744V62.3503H20.8656V63.931H24.1122V65.5189H20.8656V68.5528H19.1572V60.7695Z" fill="#646464"/>
<path d="M32.9371 60.7695H31.2217V68.5528H32.9371V60.7695Z" fill="#646464"/>
<path d="M39.7766 60.7617H42.7893C43.1862 60.7617 43.5619 60.8042 43.9164 60.8822C44.2708 60.9602 44.5827 61.0878 44.8521 61.265C45.1214 61.4422 45.3341 61.6832 45.49 61.988C45.646 62.2929 45.724 62.6686 45.724 63.1293C45.724 63.6822 45.5822 64.143 45.2916 64.5329C45.008 64.9156 44.5898 65.1637 44.0369 65.263L46.0146 68.5521H43.9589L42.3285 65.4402H41.485V68.5521H39.7695V60.7688L39.7766 60.7617ZM41.4921 63.987H42.5057C42.6617 63.987 42.8247 63.987 42.9948 63.9729C43.165 63.9658 43.3209 63.9303 43.4627 63.8736C43.5974 63.8169 43.7179 63.7318 43.81 63.6184C43.9022 63.4979 43.9447 63.3349 43.9447 63.1222C43.9447 62.9237 43.9022 62.7678 43.8242 62.6473C43.7462 62.5339 43.6399 62.4417 43.5123 62.3779C43.3918 62.3141 43.2429 62.2716 43.087 62.2503C42.924 62.2291 42.768 62.2149 42.6121 62.2149H41.4921V63.987Z" fill="#646464"/>
<path d="M52.0059 60.7695H54.6003L56.3937 65.845H56.415L58.2226 60.7695H60.8028V68.5528H59.0874V62.5842H59.0661L57.0246 68.5528H55.7132L53.7497 62.5842H53.7213V68.5528H52.0059V60.7695Z" fill="#646464"/>
</g>
</svg>
