<svg width="104" height="50" viewBox="0 0 104 50" fill="none" xmlns="http://www.w3.org/2000/svg">
<path d="M54.2243 35.0297C54.4369 35.0297 54.8424 35.0297 54.8424 35.46C54.8424 35.8903 54.4398 35.8896 54.2243 35.8896H52.209C52.0774 35.8877 51.9478 35.9217 51.8341 35.9881C51.7204 36.0544 51.627 36.1505 51.5639 36.266C51.4831 36.4787 51.4831 39.3566 51.4831 39.8939C51.4831 40.4851 51.4831 45.1069 51.5639 45.5103C51.6553 45.9383 51.906 46.3156 52.2652 46.5657C52.6244 46.8158 53.0653 46.92 53.4984 46.8571C54.3313 46.8571 54.5731 46.8571 54.5731 47.2874C54.5731 47.7177 54.1697 47.7169 53.9018 47.7169H47.6943C47.4816 47.7169 47.0761 47.717 47.0761 47.2874C47.0761 46.8578 47.5057 46.8571 47.6673 46.8571C47.9228 46.8928 48.183 46.8701 48.4285 46.7908C48.6739 46.7114 48.8982 46.5775 49.0844 46.399C49.2707 46.2205 49.4141 46.0022 49.5038 45.7603C49.5935 45.5185 49.6273 45.2595 49.6025 45.0027C49.6025 43.8742 49.6025 36.6729 49.5756 36.5921C49.5845 36.5004 49.5735 36.408 49.5434 36.321C49.5132 36.234 49.4645 36.1546 49.4008 36.0882C49.337 36.0218 49.2596 35.9699 49.1739 35.9363C49.0882 35.9026 48.9962 35.8879 48.9043 35.8931H47.4263C47.1846 35.8931 46.7812 35.8931 46.7812 35.4636C46.7812 35.034 47.1846 35.0333 47.4263 35.0333H48.9043C49.6032 35.0333 49.6032 34.4662 49.6032 34.1465C49.5349 33.0058 49.6994 31.8631 50.0867 30.7879C50.4205 29.9057 51.0007 29.1379 51.7582 28.5759C52.5156 28.0138 53.4186 27.681 54.3597 27.6172C55.2458 27.6172 56.0524 28.1006 56.0524 29.0144C56.0586 29.1809 56.0313 29.347 55.972 29.5028C55.9128 29.6586 55.8228 29.8008 55.7075 29.9212C55.5922 30.0415 55.4539 30.1374 55.3008 30.2033C55.1476 30.2691 54.9829 30.3036 54.8162 30.3045C54.5673 30.3049 54.3225 30.2407 54.1058 30.1181C53.8891 29.9956 53.708 29.819 53.5799 29.6056C53.1773 29.0385 53.1504 28.9874 52.9087 28.9874C52.7181 29.0103 52.5358 29.0783 52.3769 29.1858C52.218 29.2933 52.087 29.4372 51.9949 29.6056C51.5115 30.3853 51.5115 30.7341 51.5115 34.2273C51.4936 34.328 51.4984 34.4314 51.5256 34.53C51.5528 34.6286 51.6016 34.7198 51.6686 34.7971C51.7356 34.8743 51.8191 34.9356 51.9128 34.9765C52.0065 35.0174 52.1082 35.0368 52.2104 35.0333L54.2243 35.0297Z" fill="#1A1311"/>
<path d="M65.9661 38.1751C65.993 39.0888 65.9392 43.4689 65.9392 44.4627C65.9392 45.7252 65.9392 46.8544 67.0138 46.8544C67.3217 46.8345 67.6186 46.7324 67.8736 46.5588C67.9379 46.4967 68.0093 46.4425 68.0863 46.3972C68.1402 46.3972 68.2203 46.4241 68.2203 46.5588C68.2203 47.0422 67.1187 48.2246 65.9633 48.2246C65.5835 48.2124 65.215 48.0922 64.9011 47.878C64.5872 47.6638 64.341 47.3645 64.1911 47.0153C64.1372 46.8275 64.0571 46.5858 63.8147 46.5858C63.5715 46.6551 63.3497 46.7845 63.1696 46.9621C62.1536 47.7512 60.9114 48.1939 59.6253 48.2253C58.0134 48.2253 56.2129 47.3655 56.2129 45.3771C56.2129 42.1795 60.7269 40.8085 62.2857 40.352C63.8983 39.8686 64.0578 39.8147 64.0578 38.4176C64.0578 36.1067 62.7677 35.2468 61.5322 35.2468C61.0317 35.1903 60.5287 35.3292 60.1281 35.6345C59.7275 35.9399 59.4603 36.3881 59.3822 36.8857C59.1936 37.6917 59.0058 38.6578 57.9581 38.6578C57.7882 38.6561 57.6203 38.6205 57.4643 38.553C57.3083 38.4856 57.1674 38.3876 57.0498 38.2649C56.9322 38.1422 56.8403 37.9973 56.7795 37.8386C56.7186 37.6799 56.6901 37.5106 56.6956 37.3408C56.6956 35.7551 59.3021 34.5195 61.5591 34.5195C63.6822 34.5202 65.9122 35.4878 65.9661 38.1751ZM63.87 45.3771C64.0047 45.0546 64.0578 44.9469 64.0578 41.7761C64.0578 41.2388 64.0579 40.7837 63.4908 40.7837C62.5239 40.7837 58.4933 42.5842 58.4933 45.1078C58.4933 45.8336 58.9505 47.0699 60.8042 47.0699C61.72 47.0692 63.4936 46.2632 63.87 45.3771Z" fill="#1A1311"/>
<path d="M69.9157 47.7166C69.7279 47.7166 69.2168 47.7166 69.2168 47.287C69.2168 46.8574 69.4855 46.8567 70.2383 46.8567C70.4785 46.8798 70.7205 46.8369 70.9382 46.7327C71.1559 46.6286 71.341 46.4671 71.4738 46.2655C71.7155 45.8891 71.7694 45.5666 71.7694 41.8047C71.7694 40.9448 71.7694 37.022 71.6085 36.5648C71.5447 36.4002 71.4287 36.2611 71.2782 36.1688C71.1278 36.0764 70.9512 36.036 70.7756 36.0537C70.5877 36.0537 69.674 36.2954 69.4855 36.2954C69.4142 36.2954 69.3459 36.2671 69.2955 36.2167C69.2451 36.1663 69.2168 36.098 69.2168 36.0268C69.2168 35.8141 69.3508 35.785 70.5339 35.4086C70.9103 35.3016 73.3551 34.5218 73.4891 34.5218C73.5174 34.5177 73.5463 34.5235 73.5709 34.5382C73.5954 34.5529 73.6141 34.5757 73.6238 34.6027V35.785C73.6238 37.2091 73.6238 37.37 73.8931 37.37C74.0271 37.37 74.081 37.3169 74.4602 36.8327C74.6729 36.5378 76.287 34.5218 78.2484 34.5218C78.4568 34.5025 78.6669 34.5284 78.8643 34.5977C79.0618 34.6671 79.242 34.7782 79.3925 34.9236C79.5431 35.069 79.6605 35.2451 79.7367 35.4401C79.8129 35.635 79.8461 35.844 79.8341 36.053C79.8396 36.235 79.809 36.4164 79.7442 36.5866C79.6795 36.7568 79.5817 36.9125 79.4566 37.0448C79.3314 37.1772 79.1814 37.2834 79.015 37.3576C78.8487 37.4318 78.6693 37.4724 78.4873 37.4771C78.279 37.4785 78.0737 37.4273 77.8906 37.3281C77.7074 37.229 77.5523 37.0852 77.4396 36.91C77.3478 36.7845 77.2313 36.6793 77.0971 36.6007C76.963 36.5222 76.8142 36.4721 76.6598 36.4535C75.9878 36.4535 74.8877 37.2595 74.3759 38.2001C73.7308 39.3556 73.6231 39.9723 73.6231 43.9504C73.6231 46.396 73.7039 46.8525 75.5852 46.8525C75.7979 46.8525 76.1523 46.9333 76.1523 47.2828C76.1523 47.7123 75.6689 47.7123 75.4534 47.7123L69.9157 47.7166Z" fill="#1A1311"/>
<path d="M97.5371 47.7153C97.0529 47.7153 97.0267 47.3928 97.0267 47.2858C97.0267 46.8824 97.3486 46.8555 97.7519 46.8555C99.1498 46.8016 99.1498 46.0757 99.1498 42.4485C99.1498 38.7404 99.0959 38.391 98.8804 37.4773C98.7938 36.9758 98.5337 36.5208 98.1457 36.1917C97.7576 35.8626 97.2662 35.6803 96.7574 35.6768C96.0157 35.7332 95.2987 35.9679 94.6672 36.3609C94.0357 36.7538 93.5084 37.2934 93.1301 37.9338C92.9903 39.6047 92.9364 41.2817 92.9685 42.9582C92.9685 45.5647 92.9685 45.8603 93.2379 46.2636C93.3558 46.4479 93.519 46.599 93.7118 46.7024C93.9046 46.8059 94.1206 46.8583 94.3394 46.8548C95.1192 46.8817 95.3609 46.8817 95.3609 47.2851C95.3609 47.7146 94.9845 47.7146 94.7428 47.7146H89.342C89.1003 47.7146 88.6969 47.7146 88.6969 47.2851C88.6924 47.2085 88.71 47.1323 88.7477 47.0655C88.7854 46.9987 88.8417 46.9443 88.9096 46.9087C89.2831 46.853 89.6604 46.826 90.0381 46.8278C91.1127 46.6152 91.1127 46.0481 91.1127 42.3131C91.1127 38.7128 91.1127 38.0947 90.7632 37.1002C90.6166 36.683 90.3438 36.3218 89.9827 36.0667C89.6216 35.8115 89.1901 35.675 88.7479 35.6761C87.6256 35.7579 86.5687 36.2352 85.765 37.0229C85.12 37.6679 85.0668 37.7211 85.0668 42.316C85.0668 46.0509 85.0668 46.803 86.464 46.8569C86.8673 46.8569 87.27 46.8839 87.27 47.2872C87.27 47.6905 86.8936 47.7168 86.6788 47.7168H81.5998C81.4651 47.7168 81.0625 47.7168 81.0625 47.2872C81.0625 46.8576 81.4119 46.8569 81.8684 46.8569C82.1217 46.8635 82.3709 46.7923 82.5824 46.6528C82.794 46.5134 82.9577 46.3125 83.0515 46.0772C83.2143 44.2908 83.277 42.4967 83.2394 40.7033C83.2721 39.3218 83.2182 37.9397 83.0778 36.565C83.0049 36.3622 82.8695 36.1879 82.6911 36.0671C82.5128 35.9464 82.3006 35.8854 82.0854 35.893C81.9783 35.893 81.4141 35.9738 81.2794 35.9738C81.2255 35.9738 81.0107 35.9738 81.0107 35.7859C81.0107 35.5733 81.0915 35.5442 82.3271 35.1947C82.9452 35.0338 84.638 34.5766 84.8535 34.5234C85.1221 34.5234 85.1221 34.6581 85.1221 35.3032C85.1221 36.0021 85.1491 36.19 85.3908 36.19C85.6756 36.0468 85.9455 35.8758 86.1968 35.6796C87.1685 34.9533 88.3432 34.5493 89.5561 34.5242C91.7323 34.5242 92.2965 35.7335 92.5659 36.2708C92.6197 36.3785 92.7537 36.6472 92.9154 36.6472C93.0493 36.6472 93.1039 36.5933 93.5335 36.2169C94.6269 35.1653 96.0745 34.5614 97.591 34.5242C99.4184 34.5242 100.305 35.384 100.655 36.5933C100.977 37.7218 100.977 38.2322 100.977 42.7462C100.977 45.9708 100.977 46.8576 102.482 46.8576C102.671 46.8576 103.1 46.8576 103.1 47.3148C103.1 47.5835 102.859 47.7175 102.59 47.7175L97.5371 47.7153Z" fill="#1A1311"/>
<path d="M47.4316 24.2089C47.1806 24.2089 46.581 24.2089 46.581 23.7056C46.581 23.2023 47.0843 23.2023 47.3671 23.2023C47.6731 23.2159 47.9754 23.1317 48.2303 22.962C48.4852 22.7922 48.6794 22.5457 48.7848 22.2581C49.0053 21.6294 49.0053 20.2733 49.0053 8.10288C49.0441 6.42297 48.9811 4.74226 48.8167 3.06997C48.7179 2.83754 48.5506 2.64075 48.337 2.50587C48.1235 2.37098 47.8739 2.30442 47.6216 2.31503C47.4954 2.31503 46.8354 2.44121 46.7093 2.44121C46.6259 2.44102 46.5459 2.40781 46.4869 2.34882C46.4279 2.28984 46.3947 2.20989 46.3945 2.12647C46.3945 1.90673 46.5831 1.84293 46.9616 1.74936C47.4018 1.62318 50.7363 0.679688 50.8937 0.679688C51.0198 0.679688 51.1772 0.773971 51.1772 1.02562C51.2084 1.24607 51.1772 8.22905 51.1772 9.58156C51.1772 10.2422 51.1772 10.6512 51.5231 10.6512C51.9852 10.4199 52.418 10.1343 52.8125 9.8006C53.8242 9.14033 55.0022 8.78026 56.2101 8.76212C58.3806 8.76212 59.4496 9.83179 59.8253 11.0588C60.201 12.2859 60.2031 12.4113 60.2031 17.9475C60.2031 18.891 60.2031 21.7229 60.4236 22.2886C60.5323 22.5716 60.7283 22.8126 60.9832 22.9767C61.2381 23.1407 61.5387 23.2193 61.8413 23.2009C62.4389 23.2009 63.0364 23.2009 63.0364 23.7354C63.0364 24.1756 62.4694 24.2075 62.093 24.2075H56.0528C55.7692 24.2075 55.2021 24.2075 55.2021 23.7042C55.2038 23.6031 55.2385 23.5054 55.301 23.4259C55.3635 23.3464 55.4502 23.2895 55.548 23.264C55.7366 23.2016 56.8375 23.1697 57.0579 23.0754C58.0326 22.6976 58.0326 22.2574 58.0326 17.7278C58.0326 13.7327 58.0326 12.2859 57.3719 11.2772C57.1535 10.9225 56.8482 10.6295 56.4848 10.4258C56.1215 10.2221 55.7122 10.1145 55.2957 10.1132C53.7539 10.1132 51.7727 11.3395 51.3637 12.6297C51.1751 13.2272 51.1432 13.2903 51.1432 19.2979C51.1432 21.9717 51.1432 23.1966 52.7792 23.1966C53.2194 23.1966 53.7227 23.1967 53.7227 23.7311C53.7227 24.2032 53.1556 24.2032 52.8104 24.2032L47.4316 24.2089Z" fill="#1A1311"/>
<path d="M65.8012 24.2056C65.5176 24.2056 65.0781 24.2056 65.0781 23.7023C65.0781 23.2302 65.4552 23.199 66.0528 23.1679C66.3279 23.1693 66.5966 23.0854 66.8219 22.9278C67.0473 22.7701 67.2182 22.5463 67.311 22.2874C67.5627 21.7523 67.5627 17.1595 67.5627 16.0275C67.5871 14.3685 67.5241 12.7094 67.3741 11.057C67.3007 10.8878 67.1766 10.7455 67.0189 10.6498C66.8612 10.554 66.6777 10.5096 66.4937 10.5225C66.3364 10.5225 65.5495 10.6168 65.5183 10.6168C65.4802 10.6201 65.4419 10.6151 65.406 10.602C65.37 10.589 65.3374 10.5682 65.3104 10.5412C65.2833 10.5141 65.2626 10.4815 65.2495 10.4456C65.2364 10.4097 65.2314 10.3713 65.2348 10.3332C65.2348 10.1135 65.3921 10.0497 66.807 9.60948C67.216 9.48401 69.1661 8.75883 69.4178 8.75883C69.7325 8.75883 69.7325 9.04238 69.7325 9.35641C69.7325 10.7741 69.7013 17.85 69.7013 19.4541C69.7013 21.7501 69.7013 23.0693 71.1481 23.1657C71.7776 23.1976 72.1547 23.2288 72.1547 23.7002C72.1547 24.2035 71.6202 24.2035 71.3997 24.2035L65.8012 24.2056ZM66.8077 2.50031C66.806 2.26168 66.8522 2.02513 66.9436 1.80473C67.0351 1.58432 67.17 1.38457 67.3402 1.21732C67.5104 1.05008 67.7125 0.918768 67.9345 0.831202C68.1565 0.743636 68.3938 0.701599 68.6324 0.707593C68.8702 0.704217 69.1064 0.748055 69.3272 0.836556C69.548 0.925057 69.7491 1.05647 69.9188 1.22319C70.0885 1.38991 70.2234 1.58863 70.3158 1.80784C70.4082 2.02706 70.4561 2.26242 70.4569 2.50031C70.4568 2.98416 70.2645 3.44815 69.9223 3.79029C69.5802 4.13243 69.1162 4.32473 68.6324 4.32492C68.3921 4.32738 68.1538 4.28189 67.9314 4.19111C67.7089 4.10033 67.5068 3.96608 67.3369 3.79624C67.167 3.62639 67.0327 3.42436 66.9418 3.20195C66.851 2.97955 66.8054 2.74054 66.8077 2.50031Z" fill="#1A1311"/>
<path d="M75.6168 24.2059C75.3971 24.2059 74.7988 24.2059 74.7988 23.7026C74.7988 23.1993 75.1129 23.1993 75.994 23.1993C76.2753 23.2263 76.5586 23.176 76.8136 23.054C77.0685 22.932 77.2853 22.7428 77.4407 22.5067C77.7243 22.0665 77.7867 21.6887 77.7867 17.2853C77.7867 16.2787 77.7867 11.6853 77.5981 11.1515C77.5234 10.9588 77.3875 10.796 77.2113 10.688C77.0351 10.5801 76.8283 10.533 76.6227 10.5539C76.403 10.5539 75.3326 10.8375 75.1128 10.8375C75.0296 10.8373 74.9499 10.8041 74.891 10.7453C74.8322 10.6864 74.799 10.6067 74.7988 10.5234C74.7988 10.2718 74.9562 10.2399 76.3399 9.79969C76.7801 9.67351 79.6432 8.76121 79.8005 8.76121C79.8337 8.75573 79.8677 8.76219 79.8965 8.77946C79.9254 8.79672 79.9471 8.82367 79.9579 8.85548V10.2392C79.9579 11.9064 79.9579 12.095 80.2726 12.095C80.43 12.095 80.4924 12.0326 80.9333 11.4662C81.1849 11.1203 83.0719 8.76121 85.3686 8.76121C85.6127 8.73853 85.8587 8.76883 86.0899 8.85005C86.3211 8.93128 86.5321 9.0615 86.7083 9.23181C86.8845 9.40211 87.0219 9.60849 87.111 9.8368C87.2001 10.0651 87.2387 10.31 87.2244 10.5546C87.2308 10.7674 87.1953 10.9793 87.1197 11.1783C87.0441 11.3773 86.9301 11.5594 86.784 11.7143C86.638 11.8691 86.4629 11.9937 86.2686 12.0808C86.0744 12.1679 85.865 12.2158 85.6522 12.2219C85.4086 12.2239 85.1684 12.1644 84.9539 12.0489C84.7394 11.9334 84.5576 11.7657 84.4251 11.5612C84.3177 11.4144 84.1814 11.2911 84.0245 11.1991C83.8676 11.107 83.6934 11.0481 83.5129 11.026C82.7267 11.026 81.4366 11.9702 80.839 13.0711C80.0841 14.4236 79.9579 15.1473 79.9579 19.8052C79.9579 22.6676 80.0522 23.2028 82.2546 23.2028C82.5063 23.2028 82.9153 23.2971 82.9153 23.7061C82.9153 24.2094 82.3482 24.2094 82.0973 24.2094L75.6168 24.2059Z" fill="#1A1311"/>
<path d="M95.15 8.76172C99.1764 8.76172 102.102 12.2536 102.102 16.7832C102.102 21.3128 99.1764 24.8047 95.15 24.8047C91.1237 24.8047 88.1982 21.2816 88.1982 16.7832C88.1982 12.3167 91.0606 8.76172 95.15 8.76172ZM95.15 23.9554C97.7927 23.9554 99.428 20.5586 99.428 16.7832C99.428 12.9454 97.7608 9.61093 95.15 9.61093C92.7598 9.61093 90.8721 12.5364 90.8721 16.7832C90.8721 20.4948 92.4762 23.9554 95.15 23.9554Z" fill="#1A1311"/>
<path d="M18.6375 27.4495C19.1381 26.4498 19.9239 25.6211 20.8955 25.0681C21.8672 24.5151 22.981 24.2626 24.0961 24.3426C25.2112 24.4226 26.2776 24.8316 27.1603 25.5176C28.043 26.2037 28.7025 27.1362 29.0552 28.197C29.408 29.2579 29.4382 30.3996 29.1421 31.4776C28.846 32.5557 28.2369 33.5218 27.3917 34.2536C26.5466 34.9855 25.5034 35.4503 24.3941 35.5892C23.2848 35.7282 22.1592 35.535 21.1596 35.0342C19.8194 34.3628 18.8008 33.1865 18.3278 31.7641C17.8549 30.3417 17.9662 28.7897 18.6375 27.4495Z" fill="#CD3B65"/>
<path d="M17.6285 16.9065C18.2278 15.7101 19.272 14.7962 20.5372 14.3607C21.8024 13.9251 23.188 14.0026 24.3967 14.5765C24.9841 14.8709 25.5067 15.2795 25.9342 15.7784C26.3616 16.2773 26.6852 16.8566 26.8859 17.4821C27.0867 18.1077 27.1606 18.767 27.1033 19.4215C27.046 20.076 26.8587 20.7125 26.5523 21.2936C25.9529 22.49 24.9085 23.404 23.6432 23.8394C22.3778 24.2748 20.9922 24.1971 19.7834 23.623C19.1962 23.3285 18.6735 22.9199 18.2462 22.4209C17.8188 21.9219 17.4953 21.3427 17.2946 20.7171C17.0939 20.0916 17.0201 19.4323 17.0774 18.7778C17.1348 18.1234 17.3221 17.4869 17.6285 16.9058" fill="#8E4C94"/>
<path d="M27.6757 19.3719C28.2323 18.2597 29.1063 17.3376 30.1871 16.7222C31.2679 16.1067 32.5069 15.8257 33.7474 15.9145C34.9879 16.0033 36.1743 16.4581 37.1563 17.2212C38.1384 17.9843 38.8721 19.0215 39.2646 20.2016C39.6571 21.3818 39.6908 22.6518 39.3615 23.8511C39.0321 25.0504 38.3545 26.1251 37.4143 26.9392C36.4741 27.7534 35.3136 28.2704 34.0795 28.4249C32.8454 28.5794 31.5933 28.3645 30.4814 27.8073C28.991 27.0604 27.8582 25.7523 27.3321 24.1704C26.806 22.5886 26.9296 20.8626 27.6757 19.3719Z" fill="#DC000C"/>
<path d="M29.844 30.9149C30.172 30.2602 30.6867 29.7176 31.3232 29.3555C31.9596 28.9934 32.6891 28.8281 33.4194 28.8806C34.1498 28.9331 34.8481 29.201 35.4263 29.6504C36.0044 30.0997 36.4362 30.7104 36.6673 31.4052C36.8983 32.1001 36.9182 32.8478 36.7243 33.5538C36.5304 34.2599 36.1315 34.8927 35.578 35.3721C35.0245 35.8514 34.3413 36.156 33.6148 36.2471C32.8883 36.3382 32.151 36.2118 31.4963 35.884C30.6184 35.444 29.9512 34.6734 29.6414 33.7415C29.3315 32.8097 29.4044 31.793 29.844 30.9149Z" fill="#8E4C94"/>
<path d="M8.70443 29.6868C9.12728 28.8417 9.79127 28.1409 10.6124 27.6731C11.4336 27.2054 12.3751 26.9917 13.3177 27.059C14.2603 27.1264 15.1618 27.4717 15.9081 28.0515C16.6545 28.6312 17.2121 29.4193 17.5105 30.316C17.8089 31.2127 17.8347 32.1777 17.5845 33.0891C17.3344 34.0004 16.8196 34.8171 16.1053 35.4359C15.391 36.0546 14.5093 36.4476 13.5716 36.5652C12.6339 36.6828 11.6824 36.5196 10.8374 36.0963C9.70497 35.5284 8.8443 34.5342 8.44449 33.3321C8.04468 32.1301 8.13841 30.8184 8.70512 29.6854" fill="#DC000C"/>
<path d="M7.34802 22.0774C7.6549 21.4646 8.1366 20.9566 8.73221 20.6176C9.32781 20.2786 10.0106 20.1239 10.6941 20.173C11.3777 20.222 12.0314 20.4727 12.5725 20.8932C13.1136 21.3138 13.5178 21.8854 13.734 22.5357C13.9503 23.186 13.9688 23.8858 13.7873 24.5467C13.6058 25.2075 13.2324 25.7997 12.7143 26.2483C12.1962 26.6969 11.5568 26.9818 10.8768 27.067C10.1968 27.1522 9.50676 27.0338 8.89404 26.7268C8.07266 26.3151 7.4484 25.594 7.15849 24.7222C6.86858 23.8503 6.93675 22.899 7.34802 22.0774Z" fill="#E85400"/>
<path d="M4.0404 27.1591C4.25661 26.7278 4.59588 26.3702 5.0153 26.1316C5.43472 25.893 5.91546 25.7842 6.39674 25.8188C6.87802 25.8534 7.33822 26.03 7.71917 26.3261C8.10012 26.6223 8.3847 27.0248 8.53693 27.4827C8.68916 27.9405 8.70221 28.4333 8.57442 28.8986C8.44663 29.3639 8.18375 29.7808 7.81901 30.0967C7.45426 30.4126 7.00404 30.6133 6.52526 30.6733C6.04649 30.7334 5.56065 30.6501 5.12919 30.4341C4.55071 30.144 4.11107 29.6361 3.9069 29.022C3.70274 28.4079 3.75076 27.7378 4.0404 27.1591Z" fill="#CD3B65"/>
<path d="M25.3761 9.17188C25.5923 8.74026 25.9316 8.38244 26.3511 8.14367C26.7707 7.90491 27.2516 7.79592 27.7331 7.83049C28.2146 7.86506 28.675 8.04164 29.0561 8.33789C29.4372 8.63415 29.722 9.03677 29.8743 9.49484C30.0265 9.95292 30.0396 10.4459 29.9117 10.9114C29.7838 11.3768 29.5208 11.7939 29.1559 12.1099C28.7909 12.4259 28.3405 12.6266 27.8615 12.6865C27.3825 12.7465 26.8965 12.6631 26.4649 12.4468C25.8865 12.1566 25.447 11.6487 25.2429 11.0346C25.0387 10.4206 25.0866 9.75062 25.3761 9.17188Z" fill="#8E4C94"/>
<path d="M12.2156 13.6568C12.4807 13.1275 12.8967 12.6886 13.4112 12.3958C13.9256 12.1029 14.5153 11.9692 15.1058 12.0116C15.6962 12.0539 16.2608 12.2704 16.7282 12.6336C17.1956 12.9969 17.5448 13.4905 17.7316 14.0522C17.9184 14.614 17.9345 15.2185 17.7777 15.7893C17.621 16.3601 17.2984 16.8716 16.8509 17.2591C16.4035 17.6466 15.8511 17.8927 15.2637 17.9663C14.6764 18.0399 14.0804 17.9376 13.5511 17.6725C12.8419 17.3167 12.3028 16.6939 12.0524 15.941C11.802 15.188 11.8607 14.3665 12.2156 13.6568Z" fill="#DC000C"/>
<path d="M36.3888 28.4162C36.5613 28.0715 36.8322 27.7857 37.1672 27.595C37.5022 27.4043 37.8862 27.3173 38.2707 27.3448C38.6552 27.3724 39.0228 27.5134 39.3272 27.7499C39.6315 27.9865 39.8588 28.308 39.9804 28.6738C40.102 29.0396 40.1124 29.4332 40.0103 29.8049C39.9081 30.1765 39.6981 30.5096 39.4066 30.7619C39.1152 31.0141 38.7555 31.1743 38.373 31.2221C37.9905 31.2699 37.6024 31.2032 37.2578 31.0304C36.796 30.7989 36.4451 30.3934 36.2821 29.9032C36.1191 29.413 36.1575 28.8781 36.3888 28.4162Z" fill="#DC000C"/>
<path d="M13.743 20.1667C13.8933 19.8668 14.1292 19.6182 14.4208 19.4523C14.7124 19.2864 15.0466 19.2108 15.3812 19.2348C15.7158 19.2589 16.0358 19.3816 16.3006 19.5875C16.5655 19.7934 16.7634 20.0732 16.8692 20.3915C16.975 20.7099 16.9841 21.0524 16.8953 21.3759C16.8065 21.6994 16.6237 21.9893 16.3701 22.209C16.1166 22.4286 15.8035 22.5681 15.4707 22.6099C15.1378 22.6516 14.8001 22.5938 14.5001 22.4436C14.0978 22.242 13.7921 21.8889 13.6502 21.4619C13.5082 21.0349 13.5416 20.5691 13.743 20.1667Z" fill="#CD3B65"/>
<path d="M31.0377 12.8196C31.1879 12.5196 31.4237 12.2709 31.7153 12.1049C32.0069 11.939 32.3411 11.8632 32.6758 11.8872C33.0104 11.9111 33.3304 12.0338 33.5953 12.2397C33.8603 12.4456 34.0582 12.7254 34.1641 13.0437C34.2699 13.3621 34.279 13.7047 34.1902 14.0283C34.1014 14.3518 33.9186 14.6417 33.665 14.8614C33.4114 15.081 33.0983 15.2205 32.7654 15.2622C32.4325 15.304 32.0947 15.246 31.7947 15.0958C31.3927 14.8942 31.0871 14.5412 30.9451 14.1144C30.8032 13.6876 30.8365 13.2219 31.0377 12.8196Z" fill="#CD3B65"/>
<path d="M5.49276 34.554C5.64297 34.254 5.87878 34.0053 6.17036 33.8393C6.46193 33.6733 6.79618 33.5975 7.13083 33.6215C7.46548 33.6455 7.7855 33.7682 8.05041 33.9741C8.31533 34.18 8.51325 34.4598 8.61914 34.7781C8.72503 35.0965 8.73413 35.4391 8.64529 35.7626C8.55646 36.0862 8.37369 36.3761 8.12007 36.5957C7.86646 36.8154 7.5534 36.9549 7.2205 36.9966C6.88759 37.0383 6.54979 36.9804 6.24982 36.8302C5.84775 36.6285 5.54217 36.2756 5.40021 35.8488C5.25826 35.422 5.29154 34.9563 5.49276 34.554Z" fill="#CD3B65"/>
<path d="M26.714 14.2159C26.8866 13.8715 27.1574 13.586 27.4923 13.3955C27.8271 13.2049 28.211 13.118 28.5952 13.1456C28.9795 13.1733 29.3469 13.3142 29.6511 13.5507C29.9553 13.7872 30.1825 14.1085 30.304 14.4741C30.4255 14.8397 30.4359 15.2331 30.3339 15.6046C30.2318 15.9761 30.0219 16.309 29.7306 16.5612C29.4394 16.8134 29.0799 16.9735 28.6976 17.0214C28.3154 17.0693 27.9275 17.0028 27.583 16.8302C27.1212 16.5987 26.7703 16.1932 26.6073 15.703C26.4444 15.2128 26.4827 14.6779 26.714 14.2159Z" fill="#DC000C"/>
<path d="M24.183 4.77452C24.3556 4.43008 24.6264 4.14455 24.9613 3.95404C25.2961 3.76353 25.68 3.6766 26.0642 3.70424C26.4485 3.73187 26.8159 3.87283 27.1201 4.10929C27.4243 4.34575 27.6515 4.66708 27.773 5.03267C27.8945 5.39826 27.9049 5.79168 27.8029 6.16317C27.7008 6.53467 27.4909 6.86757 27.1997 7.11976C26.9084 7.37195 26.5489 7.53212 26.1667 7.58001C25.7844 7.6279 25.3965 7.56135 25.052 7.3888C24.8233 7.27421 24.6194 7.11569 24.4519 6.9223C24.2845 6.7289 24.1567 6.50442 24.076 6.26166C23.9953 6.01889 23.9632 5.76262 23.9816 5.50745C23.9999 5.25229 24.0684 5.00323 24.183 4.77452Z" fill="#DC000C"/>
<path d="M12.0851 9.06359C12.2577 8.71915 12.5285 8.43362 12.8634 8.24311C13.1982 8.05261 13.5821 7.96567 13.9663 7.9933C14.3506 8.02093 14.7181 8.16189 15.0222 8.39835C15.3264 8.63481 15.5536 8.95615 15.6751 9.32174C15.7966 9.68733 15.807 10.0807 15.705 10.4522C15.6029 10.8237 15.393 11.1566 15.1018 11.4088C14.8105 11.661 14.451 11.8212 14.0687 11.8691C13.6865 11.917 13.2986 11.8504 12.9541 11.6779C12.4923 11.4463 12.1414 11.0409 11.9784 10.5506C11.8154 10.0604 11.8538 9.52554 12.0851 9.06359Z" fill="#DC000C"/>
<path d="M15.4816 2.8214C15.6541 2.47696 15.925 2.19143 16.2599 2.00093C16.5947 1.81042 16.9786 1.72348 17.3628 1.75111C17.7471 1.77874 18.1145 1.9197 18.4187 2.15616C18.7229 2.39262 18.9501 2.71397 19.0716 3.07955C19.1931 3.44514 19.2035 3.83856 19.1015 4.21006C18.9994 4.58156 18.7895 4.91445 18.4982 5.16665C18.207 5.41884 17.8475 5.57901 17.4652 5.62689C17.083 5.67478 16.6951 5.60824 16.3506 5.43568C15.8888 5.20413 15.5379 4.79867 15.3749 4.30844C15.2119 3.81822 15.2503 3.28335 15.4816 2.8214Z" fill="#DC000C"/>
<path d="M14.5375 24.0078C14.7536 23.5762 15.093 23.2184 15.5125 22.9796C15.932 22.7409 16.413 22.6319 16.8944 22.6664C17.3759 22.701 17.8364 22.8776 18.2175 23.1738C18.5986 23.4701 18.8833 23.8727 19.0356 24.3308C19.1879 24.7889 19.201 25.2818 19.0731 25.7473C18.9452 26.2128 18.6822 26.6299 18.3172 26.9459C17.9523 27.2619 17.5018 27.4625 17.0229 27.5225C16.5439 27.5824 16.0578 27.499 15.6263 27.2828C15.0478 26.9927 14.6081 26.4848 14.404 25.8707C14.1998 25.2566 14.2478 24.5865 14.5375 24.0078Z" fill="#8E4C94"/>
<path d="M16.5082 35.7802C16.7244 35.3489 17.0637 34.9913 17.4831 34.7527C17.9025 34.5141 18.3832 34.4053 18.8645 34.4399C19.3458 34.4745 19.806 34.6511 20.1869 34.9472C20.5679 35.2434 20.8525 35.6458 21.0047 36.1037C21.1569 36.5616 21.17 37.0543 21.0422 37.5196C20.9144 37.9849 20.6515 38.4019 20.2868 38.7178C19.922 39.0337 19.4718 39.2344 18.993 39.2944C18.5143 39.3545 18.0284 39.2712 17.597 39.0552C17.0185 38.7651 16.5788 38.2572 16.3747 37.6431C16.1705 37.029 16.2185 36.3589 16.5082 35.7802Z" fill="#E85400"/>
<path d="M7.24548 16.1758C7.46165 15.7442 7.80096 15.3863 8.22051 15.1476C8.64005 14.9088 9.12098 14.7998 9.60247 14.8344C10.084 14.869 10.5444 15.0455 10.9255 15.3418C11.3066 15.638 11.5913 16.0407 11.7436 16.4987C11.8959 16.9568 11.909 17.4498 11.7811 17.9153C11.6532 18.3807 11.3902 18.7978 11.0252 19.1138C10.6603 19.4298 10.2098 19.6305 9.73086 19.6904C9.25187 19.7504 8.76585 19.667 8.33427 19.4507C7.75579 19.1606 7.31615 18.6527 7.11198 18.0386C6.90781 17.4245 6.95584 16.7545 7.24548 16.1758Z" fill="#DC000C"/>
<path d="M19.8666 1.47163C20.0828 1.04026 20.422 0.682676 20.8415 0.444101C21.2609 0.205525 21.7416 0.096665 22.2229 0.131292C22.7042 0.165918 23.1644 0.342473 23.5453 0.638633C23.9263 0.934792 24.2109 1.33726 24.3631 1.79514C24.5153 2.25302 24.5284 2.74577 24.4006 3.21107C24.2728 3.67636 24.0099 4.09332 23.6452 4.40923C23.2804 4.72513 22.8302 4.92579 22.3514 4.98583C21.8727 5.04588 21.3868 4.96261 20.9554 4.74657C20.3769 4.45648 19.9372 3.94858 19.7331 3.33448C19.5289 2.72038 19.5769 2.05035 19.8666 1.47163Z" fill="#DC000C"/>
<path d="M16.4872 7.55429C16.8776 6.77498 17.4903 6.12892 18.2479 5.69783C19.0055 5.26675 19.8738 5.06998 20.7432 5.13242C21.6126 5.19486 22.4439 5.51371 23.1321 6.04863C23.8203 6.58355 24.3344 7.31053 24.6094 8.13764C24.8844 8.96474 24.908 9.85482 24.6771 10.6953C24.4462 11.5358 23.9713 12.289 23.3124 12.8596C22.6535 13.4301 21.8402 13.7925 20.9754 13.9009C20.1105 14.0093 19.2329 13.8587 18.4536 13.4683C17.4086 12.9448 16.6144 12.0276 16.2456 10.9185C15.8769 9.80945 15.9638 8.5993 16.4872 7.55429Z" fill="#E85400"/>
<path d="M13.9725 18.9457C13.9725 19.1598 13.909 19.3691 13.7901 19.5471C13.6711 19.7251 13.5021 19.8638 13.3043 19.9458C13.1065 20.0277 12.8889 20.0491 12.6789 20.0073C12.4689 19.9656 12.276 19.8625 12.1247 19.7111C11.9733 19.5597 11.8702 19.3668 11.8284 19.1569C11.7867 18.9469 11.8081 18.7293 11.89 18.5315C11.9719 18.3337 12.1107 18.1646 12.2887 18.0457C12.4667 17.9268 12.676 17.8633 12.89 17.8633C13.1771 17.8635 13.4523 17.9776 13.6552 18.1805C13.8582 18.3835 13.9723 18.6587 13.9725 18.9457Z" fill="#E85400"/>
<path d="M7.83381 32.1567C7.83381 32.3707 7.77032 32.58 7.65138 32.758C7.53244 32.936 7.36338 33.0748 7.1656 33.1567C6.96781 33.2386 6.75019 33.26 6.54022 33.2183C6.33024 33.1765 6.13737 33.0734 5.98598 32.922C5.8346 32.7707 5.73151 32.5778 5.68975 32.3678C5.64798 32.1579 5.66941 31.9402 5.75133 31.7424C5.83326 31.5446 5.972 31.3756 6.15 31.2566C6.32801 31.1377 6.53729 31.0742 6.75137 31.0742C7.03845 31.0742 7.31379 31.1883 7.51678 31.3913C7.71978 31.5943 7.83381 31.8696 7.83381 32.1567Z" fill="#E85400"/>
<path d="M26.492 13.5356C26.492 13.7496 26.4286 13.9589 26.3096 14.1368C26.1907 14.3148 26.0217 14.4536 25.824 14.5355C25.6262 14.6175 25.4086 14.639 25.1987 14.5973C24.9887 14.5555 24.7959 14.4525 24.6444 14.3012C24.493 14.1499 24.3899 13.9571 24.348 13.7472C24.3062 13.5372 24.3275 13.3196 24.4093 13.1218C24.4912 12.924 24.6298 12.7549 24.8077 12.6359C24.9856 12.5169 25.1948 12.4533 25.4089 12.4531C25.696 12.4531 25.9714 12.5672 26.1745 12.7701C26.3776 12.9731 26.4918 13.2484 26.492 13.5356Z" fill="#8E4C94"/>
<path d="M29.7694 35.1723C29.7694 35.3864 29.7059 35.5956 29.5869 35.7736C29.468 35.9517 29.2989 36.0904 29.1011 36.1723C28.9034 36.2542 28.6857 36.2757 28.4757 36.2339C28.2658 36.1921 28.0729 36.089 27.9215 35.9377C27.7702 35.7863 27.6671 35.5934 27.6253 35.3835C27.5835 35.1735 27.605 34.9558 27.6869 34.7581C27.7688 34.5603 27.9075 34.3912 28.0856 34.2723C28.2636 34.1533 28.4728 34.0898 28.6869 34.0898C28.974 34.0898 29.2493 34.2039 29.4523 34.4069C29.6553 34.6099 29.7694 34.8852 29.7694 35.1723Z" fill="#CD3B65"/>
<path d="M16.4344 6.73869C16.4344 6.95277 16.3709 7.16205 16.252 7.34005C16.133 7.51806 15.964 7.6568 15.7662 7.73872C15.5684 7.82065 15.3508 7.84208 15.1408 7.80031C14.9308 7.75855 14.7379 7.65545 14.5866 7.50407C14.4352 7.35269 14.3321 7.15982 14.2903 6.94985C14.2486 6.73988 14.27 6.52224 14.3519 6.32445C14.4339 6.12666 14.5726 5.95762 14.7506 5.83868C14.9286 5.71974 15.1379 5.65625 15.352 5.65625C15.6391 5.65625 15.9144 5.77029 16.1174 5.97329C16.3204 6.17628 16.4344 6.45161 16.4344 6.73869Z" fill="#E85400"/>
<path d="M41.4151 43.0674C40.8275 41.8779 36.9656 41.247 36.9656 41.247L40.9118 41.8482C41.0981 41.8741 41.2871 41.8271 41.4395 41.717C41.5919 41.6068 41.6958 41.442 41.7294 41.257C41.7631 41.072 41.724 40.8811 41.6202 40.7243C41.5165 40.5675 41.3561 40.4569 41.1727 40.4155C40.1933 40.2263 39.2033 40.0964 38.2082 40.0264C35.0083 39.8315 31.7964 40.0126 28.6386 40.5658C28.5904 40.5446 28.5394 40.5205 28.4968 40.5034C28.4968 40.5034 24.9419 39.3629 22.9231 39.3962C21.836 39.4896 20.7809 39.8113 19.8268 40.3404C19.74 40.3854 19.6451 40.4125 19.5477 40.4201C19.4503 40.4276 19.3523 40.4155 19.2597 40.3844C17.8698 39.8797 16.3792 39.7161 14.9129 39.9073C14.6181 39.9583 14.3168 40.0207 14.0134 40.0951C13.9088 40.1208 13.7998 40.1229 13.6943 40.101C13.5888 40.0792 13.4896 40.0341 13.4038 39.969C12.4839 39.3396 11.3993 38.9945 10.2848 38.9766C7.04557 39.005 3.83344 39.57 0.778976 40.6488L0.727933 40.6729C0.565849 40.7512 0.438511 40.8868 0.370464 41.0535C0.302416 41.2202 0.298478 41.4062 0.359409 41.5756C0.42034 41.745 0.541827 41.8858 0.700449 41.971C0.859071 42.0561 1.0436 42.0795 1.21847 42.0367C2.82687 41.6412 4.16165 41.3527 3.95112 41.5405C3.45492 41.9906 2.55679 42.0651 2.39163 42.8292C2.30355 43.1536 2.29992 43.4951 2.38106 43.8213C2.46221 44.1475 2.62543 44.4475 2.85523 44.6928C2.97815 44.8178 3.14257 44.8934 3.31744 44.9054C3.49232 44.9174 3.66553 44.865 3.80439 44.758C5.00449 43.8549 8.49279 41.3413 11.2552 40.473C11.9608 40.2375 12.7094 40.1591 13.4484 40.2433C11.4636 40.821 9.48874 41.963 8.66646 44.3037C7.88671 46.5295 9.88145 48.2329 10.876 48.9176C11.0178 49.0149 11.1896 49.0588 11.3607 49.0412C11.5318 49.0237 11.6911 48.946 11.8103 48.8219L16.8389 43.6246C16.9448 43.5149 17.0824 43.4411 17.2323 43.4138C17.3823 43.3865 17.537 43.4069 17.6748 43.4722C17.8125 43.5375 17.9263 43.6444 18 43.7778C18.0737 43.9112 18.1038 44.0644 18.0858 44.2157L18.0454 44.5596C18.0454 44.5801 18.0404 44.5971 18.0362 44.6177C17.9908 44.8381 17.6931 46.3955 18.2389 46.6734C18.8913 46.9394 19.6119 46.9891 20.2946 46.8152C20.4333 46.7871 20.5607 46.7193 20.6614 46.6199C20.7621 46.5206 20.8317 46.3941 20.8617 46.2559L21.3033 44.2214C21.3318 44.0897 21.3963 43.9684 21.4897 43.8712C21.5831 43.774 21.7016 43.7046 21.8321 43.6709C21.9627 43.6371 22.1 43.6403 22.2288 43.6801C22.3576 43.7198 22.4728 43.7946 22.5616 43.8961C23.1655 44.5851 23.9892 45.2592 24.781 45.0472C25.4643 44.8644 25.8259 44.0137 26.0165 43.1376C26.0465 42.9903 26.1211 42.8559 26.2303 42.7527C26.3395 42.6495 26.478 42.5826 26.6266 42.561C26.7753 42.5394 26.9271 42.5643 27.0611 42.6323C27.1951 42.7002 27.3049 42.8078 27.3754 42.9405C27.7093 43.5617 28.0016 44.2044 28.2502 44.8644C28.6889 46.0694 29.1008 47.473 29.3326 48.2804C29.3841 48.4638 29.5059 48.6196 29.6715 48.714C29.837 48.8083 30.0331 48.8336 30.2172 48.7844C31.4932 48.442 34.026 47.524 33.568 45.7235C33.3604 45 33.0105 44.3252 32.5388 43.7387C32.4428 43.6164 32.3884 43.4666 32.3836 43.3112C32.3789 43.1558 32.4239 43.0029 32.5122 42.8749C32.6005 42.747 32.7274 42.6506 32.8744 42.5999C33.0214 42.5492 33.1807 42.5468 33.3292 42.5932L40.8856 44.9735C41.0104 45.0132 41.1435 45.0184 41.271 44.9887C41.3985 44.959 41.5156 44.8954 41.61 44.8047C41.7044 44.7139 41.7725 44.5994 41.8072 44.4732C41.8419 44.3469 41.8419 44.2137 41.8071 44.0874C41.7076 43.7368 41.5766 43.3959 41.4158 43.0688" fill="#32772A"/>
</svg>
