<svg width="544" height="122" viewBox="0 0 544 122" fill="none" xmlns="http://www.w3.org/2000/svg">
<path d="M30.1286 84.8929C23.8863 90.5824 4.99986 109.5 2.2216 117.773C-1.77864 124.773 13.7218 116.273 19.5 113C33.0001 107.68 36.3421 106.642 43.35 105.68C60.2819 103.356 77.1763 102.527 94.4266 101.789C112.196 101.027 130.441 99.7676 148.287 100.557C176.097 101.788 203.819 104.475 231.512 106.567C280.211 110.245 329.68 110.082 378.479 107.453C420.318 105.199 464.297 101.611 503.178 89.7202C515.36 85.9946 530.164 81.1277 537.554 72.8737C546.066 63.3669 543.008 53.0034 539.085 42.7274C529.097 16.5672 492.893 3.76644 456.834 1.6456C431.327 0.145436 405.093 1.61387 379.592 2.483C346.362 3.6156 313.355 6.05741 280.362 9.03441C225.886 13.9498 169.389 18.0798 118.782 34.2549C83.3842 45.5688 53.837 63.2838 30.1286 84.8929Z" stroke="#E1231D" stroke-width="2" stroke-linecap="round"/>
<path d="M140.663 66.3009C140.718 66.5837 140.617 66.823 140.409 67.0098C139.84 67.4859 139.296 67.9574 138.788 68.495C137.607 69.7245 135.502 72.6231 135.856 74.4613C136.114 75.8046 136.811 76.5015 138.021 77.075C138.26 77.1755 138.414 77.3414 138.464 77.6006C138.537 77.9777 138.266 78.3476 137.889 78.4202C137.7 78.4565 137.625 78.4466 137.466 78.3795C135.855 77.7608 134.768 76.4304 134.442 74.7336C133.974 72.3062 136.176 69.1448 137.736 67.4755C135.398 68.0237 133.23 69.0766 131.271 70.4559C131.186 70.5212 131.096 70.5629 130.979 70.5856C130.602 70.6582 130.185 70.3963 130.112 70.0193C130.057 69.7365 130.163 69.5207 130.347 69.3385C131.514 68.1607 132.34 67.1216 133.296 65.7399C133.23 65.7771 133.164 65.8143 133.093 65.8279C132.834 65.8778 132.58 65.8289 132.355 65.6767C131.46 65.0914 130.859 62.2253 130.66 61.1883C130.551 60.6227 130.335 59.8822 131.136 59.7279C131.537 59.6507 131.864 59.9543 131.96 60.3268L132.06 60.8453C132.215 61.6466 132.675 63.7821 133.117 64.4301C133.376 64.5026 133.609 64.7019 133.664 64.9847C133.678 65.0554 133.672 65.1542 133.662 65.2295C134.704 63.6601 135.714 62.0481 136.479 60.3121C136.58 60.0727 136.741 59.895 137 59.8451C137.401 59.7679 137.79 60.0108 137.871 60.435C138.053 61.3777 134.652 66.3097 133.996 67.2182C135.304 66.6486 136.686 66.2113 138.077 65.9435C138.666 65.8301 139.326 65.703 139.938 65.7074C140.305 65.71 140.595 65.9474 140.663 66.3009Z" fill="#E1231D"/>
<path d="M168.588 63.185C168.909 66.216 167.334 70.0273 165.087 72.0517C164.978 72.1598 164.816 72.2252 164.673 72.2404C164.291 72.2809 163.922 71.9823 163.881 71.6004C163.856 71.3617 163.934 71.1846 164.107 70.9972C164.475 70.5962 164.847 70.2429 165.186 69.7967C166.454 68.0935 167.407 65.4823 167.18 63.3343C166.85 60.2317 164.815 58.5651 161.662 58.8755C162.16 59.4743 162.62 60.3909 162.703 61.1785C162.812 62.2048 162.727 63.2274 162.471 64.22C161.955 66.1814 160.286 69.1097 158.019 69.3502C155.8 69.5857 154.046 67.841 153.818 65.693C153.337 61.1584 157.193 57.9256 161.418 57.4775C165.403 57.0547 168.165 59.1993 168.588 63.185ZM161.271 61.3304C161.195 60.6144 160.703 59.846 160.149 59.398C160.07 59.334 160.02 59.3152 159.986 59.2223C157.182 60.0989 154.897 62.441 155.226 65.5436C155.37 66.904 156.411 68.0727 157.867 67.9183C158.368 67.8651 158.903 67.4463 159.255 67.1194C160.743 65.6824 161.486 63.359 161.271 61.3304Z" fill="#E1231D"/>
<path d="M198.798 62.4974C198.813 62.6163 198.805 62.7384 198.771 62.8399C198.544 63.4997 198.101 64.3576 197.34 64.459C195.175 64.7475 193.718 60.1718 193.223 58.6397C192.546 62.0954 190.28 67.9902 186.212 68.5322C183.143 68.9411 181.948 66.5096 181.593 63.8452C181.219 61.038 182.252 58.0676 183.703 55.6951C182.393 56.0392 181.113 56.4276 179.839 56.8636C179.792 56.8699 179.747 56.9001 179.7 56.9064C179.319 56.9571 178.942 56.6684 178.888 56.264C178.84 55.9071 179.047 55.6376 179.367 55.498C179.96 55.2253 184.698 53.892 185.34 53.8064C185.721 53.7557 186.074 54.0476 186.122 54.4044C186.153 54.6423 186.101 54.7946 185.957 54.9833C185.712 55.3306 185.438 55.6335 185.197 56.0046C183.785 58.1296 182.678 61.0857 183.02 63.655C183.258 65.4393 183.857 67.3932 186.022 67.1048C187.283 66.9368 188.358 65.9219 189.101 64.9514C191.239 62.1001 192.548 57.2043 192.052 53.6628L192.033 53.5201C191.982 53.1394 192.271 52.762 192.651 52.7113C193.056 52.6574 193.406 52.9255 193.46 53.3299C193.745 55.471 194.353 57.666 195.104 59.6724C195.329 60.2719 196.347 62.8238 197.099 63.0142C197.435 62.6304 197.397 61.9818 198.016 61.8994C198.396 61.8487 198.744 62.0929 198.798 62.4974Z" fill="#E1231D"/>
<path d="M221.153 63.8909C221.177 64.1298 221.119 64.2801 220.968 64.4637C220.128 65.4867 218.013 66.5384 216.699 66.6673C214.55 66.8784 211.852 66.4197 211.596 63.8162C211.39 61.7143 212.819 59.8136 214.333 58.5316C213.383 56.9609 212.867 54.6483 212.689 52.833C212.588 51.8059 212.512 50.2941 212.752 49.3059C212.841 48.9837 213.059 48.7452 213.393 48.7124C213.799 48.6726 214.14 48.9526 214.18 49.3586C214.187 49.4303 214.192 49.4781 214.175 49.5521C214.016 50.6288 214.023 51.6891 214.126 52.7401C214.281 54.3165 214.691 56.2779 215.476 57.6477C216.289 57.0856 217.819 56.2119 218.799 56.1158C219.181 56.0783 219.567 56.3297 219.607 56.7358C219.649 57.1657 219.41 57.4303 219.011 57.5419C218.636 57.651 218.306 57.7316 217.959 57.8862C215.947 58.759 212.79 61.2393 213.029 63.6756C213.194 65.3475 215.295 65.3824 216.561 65.2581C217.803 65.1362 219.025 64.3169 219.908 63.4827C220.039 63.3492 220.175 63.2635 220.366 63.2447C220.749 63.2072 221.116 63.5088 221.153 63.8909Z" fill="#E1231D"/>
<path d="M254.208 61.0594C254.237 61.4423 253.95 61.7772 253.567 61.8065C253.112 61.8413 252.632 61.8539 252.177 61.8887C250.358 62.0277 248.543 62.2147 246.732 62.4495C245.78 62.5944 244.705 62.7007 243.79 63.0114C243.72 63.0408 243.672 63.0445 243.6 63.0499C243.218 63.0792 242.905 62.7662 242.877 62.4072C242.852 62.0722 243.051 61.8403 243.33 61.7227C243.96 61.4579 244.938 61.335 245.626 61.2102C245.465 60.0431 245.375 58.8705 245.285 57.6979C245.17 56.1903 245.055 54.6827 245.011 53.1696L243.945 53.3955C243.828 53.4286 243.689 53.5114 243.57 53.5205L243.402 53.5333C243.019 53.5626 242.686 53.2993 242.657 52.9164C242.631 52.5813 242.829 52.3256 243.132 52.2061C243.952 51.9027 245.286 51.7285 246.166 51.589C246.089 50.271 245.967 48.3547 246.135 47.0902C246.181 46.7497 246.45 46.4885 246.785 46.4629C247.144 46.4354 247.479 46.7227 247.506 47.0817L247.516 47.2013C247.406 48.6057 247.442 50.0231 247.549 51.4111C248.67 51.2772 249.769 51.1691 250.893 51.0831C251.444 51.041 252.016 50.9732 252.57 50.9789C252.981 50.9957 253.24 51.2406 253.271 51.6474C253.302 52.0543 252.938 52.3228 252.579 52.3503C252.005 52.3942 251.452 52.4123 250.878 52.4563C250.869 55.1768 250.861 57.8974 250.779 60.5995C251.496 60.5447 252.903 60.3649 253.532 60.413C253.895 60.4335 254.178 60.6766 254.208 61.0594ZM241.976 48.7321C242.044 49.6175 240.878 51.9934 240.384 52.7773C240.255 52.9797 240.095 53.0882 239.855 53.1065C239.473 53.1358 239.136 52.8246 239.108 52.4656C239.097 52.322 239.158 52.173 239.221 52.0478C239.713 51.24 240.483 49.6647 240.605 48.7407C240.651 48.4002 240.872 48.1426 241.231 48.1151C241.614 48.0859 241.947 48.3492 241.976 48.7321ZM242.811 54.3007C242.84 54.6835 242.551 54.9945 242.168 55.0238C240.948 55.1171 239.735 55.3061 238.544 55.4694L238.604 56.2591L238.654 56.9052C239.333 57.2866 241.624 58.6037 241.682 59.3695C241.712 59.7524 241.4 60.0891 241.041 60.1165C240.778 60.1366 240.576 60.0077 240.416 59.8033C240.097 59.4184 239.21 58.8364 238.782 58.5803C238.897 60.0879 239.012 61.5955 239.104 63.105C239.157 63.7989 239.28 64.7764 239.235 65.4538C239.218 65.8642 238.949 66.1255 238.543 66.1566C238.208 66.1822 237.867 65.8231 237.867 65.5102L237.862 65.4384C237.793 63.2774 237.599 61.0537 237.434 58.9C237.126 59.5975 236.013 62.3544 235.595 62.8677C235.464 63.0462 235.326 63.129 235.087 63.1473C234.704 63.1766 234.371 62.9132 234.342 62.5303C234.327 62.3389 234.39 62.2137 234.475 62.0628C234.838 61.4574 235.123 60.7857 235.409 60.1139C235.842 59.1662 236.225 58.1981 236.632 57.2283C236.815 56.781 236.995 56.3099 237.202 55.8609L237.187 55.6694C235.713 55.9025 234.163 56.0932 232.756 56.5859C232.686 56.6153 232.638 56.619 232.566 56.6245C232.184 56.6538 231.851 56.3904 231.821 56.0075C231.797 55.6964 231.971 55.4425 232.249 55.3009C232.992 54.9552 235.06 54.6045 235.94 54.465C235.056 54.2437 233.771 51.2851 233.705 50.4236C233.676 50.0407 233.963 49.7059 234.322 49.6784C234.705 49.6491 234.964 49.8941 235.062 50.2236C235.231 50.8606 235.959 52.8268 236.445 53.1988C236.649 53.3517 236.756 53.488 236.776 53.7512C236.798 54.0384 236.693 54.239 236.462 54.3769C236.678 54.3604 236.867 54.3219 237.081 54.2815L236.896 51.8645C236.81 50.7398 236.722 49.5912 236.66 48.4646C236.618 47.9142 236.548 47.3178 236.58 46.7858C236.597 46.3754 236.842 46.1159 237.249 46.0848C237.607 46.0574 237.946 46.3926 237.948 46.7294L237.951 46.7773C238.009 48.4818 238.139 50.1808 238.269 51.8799L238.438 54.0815C239.629 53.9182 240.844 53.7531 242.064 53.6597C242.447 53.6305 242.782 53.9178 242.811 54.3007ZM249.492 52.5863C248.465 52.6889 247.415 52.8173 246.392 52.9678C246.446 54.6244 246.574 56.2996 246.701 57.9507C246.779 58.9797 246.858 60.0087 246.985 61.0341C247.771 60.9258 248.581 60.8157 249.37 60.7554C249.465 58.8466 249.44 56.947 249.463 55.0437L249.492 52.5863Z" fill="#E1231D"/>
<path d="M275.85 52.7276C276.057 55.7685 274.34 59.5179 272.018 61.4562C271.905 61.5601 271.741 61.6195 271.597 61.6292C271.214 61.6553 270.856 61.343 270.83 60.9599C270.814 60.7204 270.898 60.5463 271.078 60.3656C271.461 59.9787 271.846 59.6397 272.202 59.2065C273.532 57.5522 274.584 54.9788 274.437 52.8238C274.225 49.711 272.254 47.969 269.092 48.1604C269.567 48.7775 269.991 49.7108 270.045 50.501C270.115 51.5306 269.992 52.5493 269.698 53.5316C269.109 55.4721 267.331 58.3356 265.057 58.4906C262.83 58.6423 261.143 56.8328 260.996 54.6778C260.686 50.1284 264.662 47.043 268.9 46.7542C272.898 46.4817 275.577 48.7288 275.85 52.7276ZM268.608 50.5989C268.559 49.8806 268.097 49.0942 267.56 48.6256C267.483 48.5587 267.434 48.538 267.403 48.4438C264.569 49.2143 262.197 51.4688 262.409 54.5815C262.502 55.9464 263.498 57.1534 264.959 57.0539C265.462 57.0197 266.012 56.6213 266.375 56.3079C267.917 54.9279 268.747 52.6342 268.608 50.5989Z" fill="#E1231D"/>
<path d="M304.262 44.4471C304.354 45.8601 303.004 47.2948 301.615 47.3852C300.37 47.4662 299.408 46.7351 299.325 45.4657C299.286 44.867 299.615 43.2583 300.325 43.0918C300.577 42.5223 301.152 42.1241 301.775 42.0836C303.14 41.9948 304.176 43.1299 304.262 44.4471ZM301.903 49.6031C301.928 49.9863 301.613 50.3195 301.23 50.3444C298.739 50.5064 294.404 51.1492 292.081 52.0459C292.047 52.6254 292.062 53.2257 292.099 53.8005C292.314 57.1055 293.4 57.9006 296.657 57.6887C298.214 57.5875 299.728 57.2004 301.279 57.0033L301.374 56.9971C301.756 56.9482 302.067 57.2887 302.09 57.648C302.115 58.0312 301.891 58.2862 301.537 58.3814C301.041 58.5339 300.468 58.5953 299.944 58.6774C298.875 58.8673 297.827 59.0316 296.749 59.1018C292.726 59.3635 290.975 57.9622 290.71 53.8908C290.592 52.0707 290.761 50.2318 290.931 48.4169C291.004 47.6906 291.059 46.677 291.183 45.9955C291.257 45.654 291.457 45.4005 291.84 45.3755C292.223 45.3506 292.555 45.6417 292.58 46.0249L292.587 46.1446C292.419 47.6227 292.273 49.0752 292.176 50.5486C294.837 49.678 298.362 49.1361 301.14 48.9553C301.523 48.9304 301.879 49.2199 301.903 49.6031ZM302.873 44.5375C302.838 44.0106 302.464 43.4337 301.865 43.4726C301.315 43.5085 301.862 44.5311 300.832 44.5981C300.752 44.8438 300.697 45.1119 300.715 45.3754C300.746 45.8544 301.092 46.0002 301.523 45.9722C302.146 45.9316 302.916 45.2081 302.873 44.5375Z" fill="#E1231D"/>
<path d="M332.253 49.8894C332.275 50.2968 331.956 50.6261 331.573 50.6465L331.477 50.6515C330.105 50.628 328.733 50.5805 327.367 50.6529C324.084 50.8268 320.877 51.5494 317.618 51.722L317.57 51.7245C316.611 51.7753 315.079 51.8805 314.451 50.9283C314.374 50.8363 314.344 50.7177 314.338 50.5979C314.316 50.1905 314.634 49.8372 315.017 49.8169C315.689 49.7813 315.386 50.4222 316.848 50.3448C317.04 50.3346 317.207 50.3257 317.398 50.2916C320.787 49.8477 324.176 49.4039 327.604 49.2224C328.682 49.1652 330.552 49.0662 331.592 49.2034C331.956 49.2562 332.233 49.5059 332.253 49.8894Z" fill="#E1231D"/>
<path d="M355.577 43.3165C355.604 44.06 354.111 47.166 353.801 47.85C352.869 49.9023 351.961 51.9537 351.126 54.0263C350.775 54.928 350.473 55.852 350.147 56.7528C350.038 57.0451 349.805 57.2459 349.493 57.2576C349.11 57.2719 348.761 56.9487 348.747 56.565C348.744 56.493 348.765 56.3962 348.786 56.3233C349.637 53.3855 351.218 50.0841 352.481 47.2509C353.014 46.0782 353.594 44.8797 354.028 43.6626C352.481 43.3842 350.49 43.4587 348.931 43.517C348.74 43.5241 348.569 43.4585 348.421 43.3439C347.875 44.1809 346.202 46.9573 346.264 47.9637L346.266 48.0117C346.415 48.1502 346.494 48.3394 346.501 48.5313C346.515 48.915 346.191 49.2393 345.808 49.2537C345.208 49.2761 344.871 48.6162 344.851 48.0886C344.774 46.026 347.66 41.6192 349.047 40.1743C349.185 40.025 349.35 39.9468 349.542 39.9396C349.95 39.9244 350.273 40.2245 350.288 40.6082C350.304 41.0399 349.609 41.7384 349.334 42.0849C350.27 42.0499 354.515 41.8912 355.265 42.6797C355.44 42.8653 355.566 43.0287 355.577 43.3165Z" fill="#E1231D"/>
<path d="M384.293 47.5381C384.349 50.5856 382.448 54.2452 380.034 56.0659C379.915 56.1641 379.748 56.2152 379.604 56.2179C379.22 56.2249 378.878 55.8952 378.871 55.5112C378.867 55.2713 378.96 55.1015 379.149 54.93C379.55 54.5626 379.952 54.2431 380.328 53.8281C381.74 52.2419 382.917 49.7238 382.878 47.5642C382.82 44.4447 380.938 42.607 377.77 42.6413C378.214 43.2813 378.592 44.2345 378.606 45.0263C378.625 46.0582 378.452 47.0695 378.109 48.036C377.425 49.9449 375.507 52.7167 373.228 52.7586C370.996 52.7997 369.401 50.9087 369.361 48.7491C369.277 44.1899 373.401 41.3055 377.648 41.2273C381.655 41.1536 384.22 43.5308 384.293 47.5381ZM377.166 45.0528C377.153 44.333 376.73 43.5246 376.217 43.03C376.144 42.9593 376.095 42.9362 376.07 42.8406C373.201 43.4695 370.719 45.6036 370.777 48.723C370.802 50.0908 371.737 51.3458 373.201 51.3189C373.705 51.3096 374.274 50.9391 374.653 50.644C376.261 49.3422 377.204 47.0925 377.166 45.0528Z" fill="#E1231D"/>
<path d="M416.154 48.6427C416.152 49.5547 413.966 50.1494 413.222 50.1476C411.566 50.1435 411.209 48.9906 411.213 47.5506C411.216 46.1587 411.531 44.7434 411.895 43.4003C411.487 43.3753 411.103 43.3504 410.695 43.3494C410.359 43.3486 410.047 43.3718 409.711 43.371C409.444 44.4503 409.178 45.5057 408.935 46.5851C409.318 46.898 410.636 47.8852 410.635 48.4132C410.634 48.7972 410.345 49.0605 409.985 49.0597C409.745 49.0591 409.577 48.9627 409.434 48.7703C409.194 48.4817 408.907 48.241 408.62 48.0003L407.989 50.8788C407.891 51.3106 407.651 51.43 407.243 51.429C406.955 51.4283 406.692 51.0196 406.717 50.7797L406.717 50.6837C406.791 49.6759 407.251 48.117 407.494 47.1096C407.134 46.8447 406.751 46.5558 406.344 46.3628C406.104 46.2422 405.936 46.0498 405.937 45.7618C405.938 45.4018 406.227 45.1145 406.587 45.1154C406.923 45.1162 407.545 45.5737 407.809 45.7663C407.979 44.9988 408.173 44.2072 408.367 43.4397C407.743 43.4862 407.118 43.5567 406.518 43.6752C406.47 43.6751 406.398 43.6989 406.35 43.6988C405.99 43.6979 405.703 43.4092 405.704 43.0492C405.704 42.7372 405.921 42.5217 406.209 42.4264C406.978 42.1883 407.914 42.1666 408.706 42.1205C408.924 41.2331 409.166 40.3696 409.408 39.4822C409.529 39.0505 409.626 38.5948 409.796 38.1632C409.892 37.8994 410.133 37.732 410.421 37.7327C410.757 37.7335 411.044 38.0222 411.043 38.3822C411.043 38.5022 410.147 41.716 410.05 42.0758L410.674 42.0773C411.226 42.0787 412.33 42.0574 412.858 42.1786C413.17 42.2514 413.385 42.5159 413.384 42.8519C413.384 42.8999 413.384 42.9719 413.36 43.0199C412.924 44.5068 412.488 46.1137 412.484 47.6737C412.483 48.2977 412.481 48.8737 413.249 48.8756C414.329 48.8782 415.1 47.9921 415.508 47.9931C415.868 47.994 416.155 48.2827 416.154 48.6427ZM407.44 39.5254C407.438 40.2694 406.671 40.1716 406.167 40.1703C402.831 40.1622 399.494 40.4901 396.158 40.4819L396.062 40.4817C395.702 40.4808 395.439 40.1682 395.439 39.8322C395.44 39.4962 395.657 39.2567 395.993 39.1855C396.545 39.0909 397.169 39.0924 397.721 39.0697C398.825 39.0004 399.905 38.9791 401.01 38.9338C401.011 38.2618 400.774 37.3252 400.391 36.7722C400.295 36.628 400.247 36.5319 400.248 36.3639C400.249 36.0039 400.513 35.7165 400.873 35.7174C401.809 35.7197 402.307 38.1689 402.306 38.9129C403.818 38.8686 405.306 38.8722 406.818 38.8759C407.178 38.8768 407.441 39.1654 407.44 39.5254ZM415.558 56.9693C415.557 57.3293 415.268 57.6646 414.908 57.6637C414.716 57.6632 414.548 57.5668 414.429 57.4465C413.974 56.9894 412.97 55.139 412.972 54.491C412.973 54.131 413.261 53.8437 413.621 53.8445C413.933 53.8453 414.149 54.0378 414.244 54.3261C414.458 55.0466 414.888 56.0076 415.391 56.5609C415.486 56.6811 415.558 56.8253 415.558 56.9693ZM404.453 44.0062C404.452 44.3662 404.164 44.6535 403.804 44.6526C403.276 44.6513 400.228 44.6679 399.771 44.8588C399.651 44.9065 399.507 45.0021 399.363 45.0018C399.051 45.001 398.811 44.7604 398.74 44.4722C398.526 43.5597 398.505 42.4797 398.507 41.5437C398.508 41.2077 398.773 40.8963 399.133 40.8972C399.349 40.8977 399.541 40.9942 399.66 41.1625C400.501 41.0205 401.389 40.9507 402.253 40.9528C402.829 40.9542 404.293 40.8618 404.291 41.7258C404.29 41.9898 404.119 43.1413 404.047 43.4052C404.286 43.5018 404.454 43.7422 404.453 44.0062ZM410.493 57.2929C410.492 57.6529 410.203 57.9162 409.843 57.9153C409.627 57.9148 409.436 57.7943 409.316 57.6261C408.957 57.1212 407.979 54.7188 407.981 54.1428C407.981 53.8068 408.27 53.5195 408.63 53.5204C408.942 53.5211 409.158 53.7137 409.253 54.0019C409.539 54.9866 409.872 56.0434 410.398 56.9327C410.469 57.0529 410.493 57.1489 410.493 57.2929ZM406.409 49.0029C406.407 49.7229 405.687 49.6492 405.208 49.648C404.608 49.6466 403.983 49.669 403.383 49.6916C402.971 51.4666 401.24 52.8304 399.463 53.018L399.367 53.0178C399.007 53.0169 398.744 52.7043 398.745 52.3443C398.746 52.0323 398.962 51.7928 399.274 51.7456C400.427 51.5324 401.556 50.9111 401.991 49.7602C400.983 49.8057 399.975 49.8753 398.967 49.9448C398.511 49.9917 397.983 49.9904 397.526 50.1093C397.478 50.1332 397.454 50.1331 397.406 50.133C397.046 50.1321 396.783 49.8195 396.784 49.4595C396.785 49.1475 397.001 48.908 397.313 48.8368C397.77 48.7419 398.25 48.7191 398.706 48.6722C399.666 48.6025 400.65 48.5329 401.634 48.4873C401.299 48.2225 400.891 48.1255 400.892 47.6215C400.893 47.2135 401.278 46.9744 401.519 46.735C400.75 46.7812 399.982 46.8513 399.238 46.9935C399.19 46.9933 399.166 47.0173 399.118 47.0172C398.758 47.0163 398.471 46.7036 398.472 46.3436C398.472 46.0316 398.689 45.7921 399.001 45.7209C399.986 45.5073 401.474 45.4149 402.506 45.4174C402.986 45.4186 403.658 45.4202 403.656 46.0922C403.655 46.5002 402.813 47.2422 402.525 47.5535C402.812 47.7702 403.099 48.0589 403.267 48.3953C403.915 48.3729 404.587 48.3505 405.259 48.3521C405.739 48.3533 406.411 48.2829 406.409 49.0029ZM405.212 57.7121C405.211 58.0961 404.922 58.3594 404.562 58.3585C404.274 58.3578 404.059 58.1892 403.963 57.925C403.82 57.5167 403.084 54.4189 403.085 54.0829C403.086 53.7469 403.374 53.4356 403.734 53.4364C404.046 53.4372 404.286 53.6778 404.357 53.966C404.618 55.1426 404.855 56.3432 405.188 57.52C405.212 57.5921 405.212 57.6641 405.212 57.7121ZM399.556 54.2423C399.556 54.3143 399.532 54.3862 399.508 54.4581C399.073 55.6331 397.868 57.6942 396.978 58.532C396.858 58.6517 396.689 58.6993 396.521 58.6989C396.137 58.6979 395.874 58.4573 395.875 58.0733C395.875 57.8813 395.948 57.7375 396.068 57.6178C397.055 56.5402 397.754 55.3179 398.309 53.9752C398.406 53.7355 398.646 53.568 398.91 53.5687C399.27 53.5696 399.557 53.8823 399.556 54.2423ZM402.921 42.2744C402.729 42.274 402.538 42.2495 402.322 42.249C401.506 42.247 400.641 42.3169 399.825 42.4349C399.824 42.7949 399.847 43.1549 399.894 43.5151C400.831 43.4213 401.791 43.3757 402.727 43.354C402.848 43.0182 402.897 42.6344 402.921 42.2744Z" fill="#E1231D"/>
<path d="M442.234 45.2745C442.228 45.6585 441.911 45.9901 441.528 45.9607L441.456 45.9597C440.161 45.8934 438.889 45.8516 437.593 45.8333C437.438 46.5992 437.284 47.3651 437.033 48.1057C437.585 48.1135 438.281 48.0992 438.271 48.8672C438.258 49.7551 437.014 49.4976 436.462 49.4898C435.118 49.4709 433.749 49.4997 432.404 49.5768C432.044 49.5957 431.682 49.6866 431.322 49.7056L431.178 49.7035C430.794 49.6981 430.487 49.3818 430.492 48.9978C430.501 48.3499 431.15 48.287 431.655 48.2461C431.69 47.4785 431.725 46.6869 431.735 45.919C430.463 45.9491 429.166 45.9789 427.892 46.129C427.136 50.3908 425.436 55.2153 422.249 58.2908C422.103 58.4328 421.958 58.4788 421.766 58.4761C421.382 58.4707 421.074 58.1783 421.079 57.7943C421.082 57.6024 421.156 57.4354 421.303 57.2934C421.839 56.7249 422.35 56.18 422.791 55.5382C425.338 51.9736 426.711 46.4724 426.965 42.1075L424.609 42.3144L424.513 42.3131C424.129 42.3077 423.822 42.0153 423.827 41.6074C423.832 41.2474 424.076 40.9868 424.437 40.9199C425.399 40.7654 426.432 40.7319 427.393 40.6734C429.194 40.5787 430.971 40.5317 432.772 40.509C432.461 40.4326 432.224 40.1653 432.229 39.8293C432.238 39.1814 431.513 37.8751 431.184 37.3424C431.09 37.1971 431.043 37.1004 431.046 36.9324C431.051 36.5484 431.392 36.2412 431.775 36.2466C432.015 36.25 432.182 36.3483 432.323 36.5423C432.842 37.1977 433.633 39.009 433.621 39.8489C433.617 40.1369 433.421 40.4221 433.132 40.4901C434.932 40.4674 436.709 40.4444 438.509 40.4697C439.229 40.4798 439.997 40.4426 440.692 40.5484C441.099 40.6021 441.335 40.8935 441.329 41.3014C441.324 41.6614 440.984 41.9446 440.648 41.9399C439.928 41.9298 439.185 41.8713 438.441 41.8609C435.082 41.8136 431.72 41.8864 428.358 42.0311C428.321 42.9187 428.213 43.8292 428.104 44.7158C429.306 44.6127 430.53 44.5579 431.755 44.5271C431.762 44.0472 431.721 43.5425 431.704 43.0623L431.705 42.9663C431.686 42.582 432.05 42.2991 432.434 42.3045C432.794 42.3095 433.031 42.5529 433.098 42.8899C433.187 43.3952 433.155 43.9948 433.148 44.4987C434.228 44.4659 435.332 44.4574 436.413 44.4486C436.493 43.8497 436.546 43.4664 436.555 42.8664C436.56 42.4825 436.853 42.1506 437.237 42.156C437.789 42.1637 437.952 42.5261 437.945 43.03C437.937 43.558 437.884 43.9172 437.804 44.4682L438.884 44.4834C439.652 44.4942 440.853 44.463 441.619 44.5938C441.954 44.6465 442.239 44.8906 442.234 45.2745ZM440.637 58.1174C440.631 58.5253 440.315 58.8329 439.931 58.8275C439.787 58.8255 439.691 58.7761 439.573 58.7024C437.716 57.6202 435.884 56.4664 434.002 55.4078C432.644 56.3968 430.342 57.9966 428.681 58.3333C428.633 58.3326 428.56 58.3556 428.512 58.3549C428.128 58.3495 427.821 58.0331 427.826 57.6492C427.831 57.3132 428.05 57.0763 428.364 56.9847C429.954 56.527 431.359 55.6107 432.693 54.6453C432.169 54.3499 431.644 54.1025 431.12 53.8311C430.858 53.7074 430.693 53.4891 430.697 53.1771C430.702 52.8171 431.019 52.5096 431.403 52.515C431.787 52.5204 433.501 53.5046 433.906 53.7263C434.61 53.1841 435.314 52.618 435.97 52.0271C434.122 52.0251 432.201 52.0461 430.373 52.3565C430.325 52.3558 430.276 52.3791 430.228 52.3784C429.845 52.373 429.537 52.0567 429.542 51.6727C429.547 51.3128 429.791 51.0522 430.128 50.9849C430.778 50.85 431.499 50.8121 432.171 50.7736C433.565 50.6732 434.982 50.6211 436.374 50.6407C436.997 50.6494 438.392 50.501 438.379 51.4129C438.376 51.6289 438.302 51.7479 438.18 51.8902C437.936 52.1988 437.548 52.4574 437.256 52.7173C436.576 53.3318 435.896 53.8983 435.192 54.4644C436.382 55.1532 437.549 55.8417 438.715 56.5542C439.238 56.8736 439.858 57.1703 440.333 57.537C440.523 57.6837 440.64 57.8774 440.637 58.1174ZM436.177 45.8374L433.128 45.8666C433.124 46.1545 433.099 47.9784 433.048 48.1457C433.889 48.1095 434.729 48.0973 435.569 48.0851C435.844 47.3449 436.022 46.6033 436.177 45.8374Z" fill="#E1231D"/>
<path d="M470.446 39.378C470.436 39.7619 470.115 40.0651 469.707 40.0537C469.515 40.0483 469.302 39.9463 469.162 39.7984C468.93 39.5278 468.101 38.2561 468.111 37.8963C468.122 37.5124 468.443 37.1853 468.851 37.1966C469.115 37.204 469.326 37.354 469.464 37.5739C469.716 38.0131 469.967 38.4763 470.268 38.8689C470.384 39.0162 470.452 39.1861 470.446 39.378ZM467.765 40.8398C467.753 41.2476 467.433 41.5508 467.025 41.5394C466.857 41.5347 466.69 41.482 466.55 41.358C465.847 40.7382 465.578 40.0344 465.604 39.0988C465.615 38.7149 465.96 38.3884 466.344 38.3992C466.752 38.4105 467.055 38.7311 467.044 39.139C467.013 40.2425 467.784 40.144 467.765 40.8398ZM464.174 43.0204C464.164 43.3803 463.967 43.5668 463.651 43.7021C463.214 43.8819 462.849 44.0398 462.458 44.293C460.403 45.6762 457.835 49.0619 457.764 51.6049C457.724 53.0443 458.041 54.5897 459.141 55.6048C459.398 55.8521 459.659 55.9794 459.941 56.1794C460.177 56.354 460.341 56.5027 460.332 56.8145C460.321 57.1984 459.977 57.5009 459.593 57.4902C459.473 57.4868 459.377 57.4602 459.259 57.4088C457.031 56.3623 456.26 53.8678 456.325 51.5647C456.405 48.6858 458.778 45.3907 460.94 43.6264C458.685 43.5634 456.452 43.5731 454.197 43.5101C453.813 43.4994 453.462 43.1775 453.472 42.7937C453.484 42.3618 453.78 42.106 454.189 42.0694C454.719 42.0121 455.317 42.0769 455.845 42.0916C456.901 42.0971 457.957 42.1265 459.036 42.1567L460.596 42.2002L462.563 42.2551C462.874 42.2878 463.211 42.2492 463.498 42.3053C463.88 42.364 464.186 42.6126 464.174 43.0204Z" fill="#E1231D"/>
<path d="M487.499 41.2813L487.495 41.3531C487.109 44.6722 486.731 48.2563 486.535 51.6106C486.514 51.97 486.158 52.3098 485.774 52.2874C485.056 52.2454 485.069 51.5971 485.1 51.07C485.229 48.8657 485.452 46.691 485.653 44.491C485.734 43.5101 485.869 42.0274 486.067 41.1014C486.136 40.7448 486.439 40.4981 486.823 40.5205C487.254 40.5457 487.523 40.8739 487.499 41.2813ZM486.591 58.4655C486.567 58.8729 486.239 59.1422 485.832 59.1184C484.802 59.0581 485.005 56.8102 485.082 55.4924C485.105 55.1091 485.46 54.7933 485.843 54.8157C487.065 54.8871 486.195 57.024 486.559 58.1992C486.578 58.2725 486.597 58.3697 486.591 58.4655Z" fill="#E1231D"/>
</svg>
