<svg width="315" height="86" viewBox="0 0 315 86" fill="none" xmlns="http://www.w3.org/2000/svg">
<path d="M17.5095 59.989C13.9008 63.9896 2.98261 77.2914 1.37651 83.1088C-0.936024 88.0308 8.02476 82.0541 11.3651 79.7524C19.1695 76.0117 21.1015 75.2817 25.1528 74.6054C34.9411 72.9715 44.7077 72.3887 54.6801 71.8692C64.9526 71.334 75.5001 70.4481 85.8165 71.0033C101.893 71.8684 117.92 73.758 133.929 75.2289C162.082 77.8154 190.68 77.701 218.891 75.8524C243.078 74.2674 268.502 71.7445 290.979 63.3833C298.021 60.7637 306.579 57.3415 310.852 51.5378C315.772 44.8531 314.005 37.566 311.737 30.3405C305.963 11.946 285.033 2.94521 264.187 1.45395C249.442 0.399116 234.276 1.43164 219.534 2.04276C200.324 2.83915 181.242 4.5561 162.169 6.64937C130.677 10.1056 98.0155 13.0096 68.7599 24.3831C48.2965 32.3384 31.2153 44.7947 17.5095 59.989Z" stroke="#E1231D" stroke-width="1.15455" stroke-linecap="round"/>
<path d="M63.8055 44.8511C63.8509 45.0868 63.7671 45.2862 63.5934 45.4419C63.1199 45.8386 62.666 46.2315 62.2431 46.6796C61.2591 47.7041 59.5042 50.1196 59.7992 51.6514C60.0148 52.7708 60.5951 53.3516 61.6036 53.8295C61.8031 53.9133 61.9315 54.0515 61.9731 54.2675C62.0336 54.5817 61.8079 54.89 61.4936 54.9505C61.3365 54.9808 61.2738 54.9725 61.1409 54.9166C59.7991 54.401 58.8931 53.2924 58.6208 51.8783C58.2313 49.8555 60.0662 47.221 61.3666 45.83C59.4178 46.2867 57.6112 47.1642 55.9791 48.3136C55.9081 48.368 55.8333 48.4028 55.7351 48.4217C55.4209 48.4822 55.0733 48.264 55.0128 47.9498C54.9674 47.7141 55.055 47.5343 55.2091 47.3824C56.181 46.4009 56.8697 45.535 57.6663 44.3836C57.6112 44.4146 57.5561 44.4456 57.4971 44.4569C57.2811 44.4985 57.0696 44.4578 56.8822 44.3309C56.1365 43.8432 55.6358 41.4547 55.4694 40.5906C55.3786 40.1193 55.1987 39.5022 55.8664 39.3736C56.2003 39.3093 56.4731 39.5623 56.5532 39.8727L56.6364 40.3048C56.765 40.9725 57.1485 42.7521 57.5172 43.2921C57.7325 43.3525 57.9275 43.5186 57.9729 43.7543C57.9842 43.8132 57.9797 43.8956 57.9714 43.9583C58.8397 42.6504 59.6809 41.3071 60.3188 39.8604C60.4026 39.661 60.537 39.5129 60.7531 39.4713C61.0869 39.407 61.4111 39.6093 61.4791 39.9628C61.6304 40.7484 58.7965 44.8585 58.2498 45.6155C59.3397 45.1408 60.4916 44.7764 61.6503 44.5533C62.1413 44.4587 62.6912 44.3528 63.2011 44.3565C63.507 44.3587 63.7488 44.5565 63.8055 44.8511Z" fill="#E1231D"/>
<path d="M82.1533 44.6585C82.4212 47.1843 81.109 50.3605 79.2365 52.0474C79.1455 52.1375 79.0105 52.1921 78.8911 52.2047C78.5729 52.2385 78.265 51.9896 78.2312 51.6714C78.2101 51.4725 78.2749 51.3248 78.4192 51.1687C78.7257 50.8345 79.0364 50.5401 79.3187 50.1683C80.3749 48.7489 81.1698 46.5729 80.9799 44.783C80.7056 42.1975 79.0096 40.8086 76.3823 41.0672C76.7972 41.5663 77.1799 42.3301 77.2496 42.9865C77.3403 43.8417 77.2698 44.6939 77.0559 45.521C76.6259 47.1555 75.2355 49.5958 73.3461 49.7962C71.4965 49.9924 70.035 48.5385 69.8451 46.7485C69.4442 42.9697 72.658 40.2757 76.1782 39.9023C79.4996 39.5499 81.801 41.3371 82.1533 44.6585ZM76.0563 43.1131C75.993 42.5164 75.5831 41.8761 75.1212 41.5027C75.0552 41.4494 75.0133 41.4337 74.985 41.3563C72.649 42.0868 70.7443 44.0386 71.0185 46.6241C71.1388 47.7577 72.0064 48.7316 73.2195 48.6029C73.6372 48.5586 74.0829 48.2097 74.3758 47.9372C75.6164 46.7397 76.2356 44.8036 76.0563 43.1131Z" fill="#E1231D"/>
<path d="M102.225 45.3398C102.238 45.4389 102.231 45.5407 102.202 45.6252C102.013 46.175 101.644 46.89 101.01 46.9745C99.2059 47.2149 97.9918 43.4018 97.5795 42.1251C97.0149 45.0048 95.1271 49.9172 91.737 50.3688C89.1796 50.7095 88.1833 48.6833 87.8875 46.463C87.5759 44.1236 88.4365 41.6483 89.646 39.6713C88.5543 39.9579 87.4877 40.2816 86.4264 40.645C86.3868 40.6502 86.3498 40.6754 86.3101 40.6806C85.9929 40.7229 85.6784 40.4823 85.6335 40.1453C85.5939 39.8479 85.7657 39.6233 86.0327 39.507C86.527 39.2797 90.4748 38.1686 91.0101 38.0973C91.3273 38.0551 91.622 38.2983 91.6616 38.5957C91.688 38.7939 91.6444 38.9208 91.5241 39.078C91.3206 39.3675 91.0919 39.6199 90.891 39.9291C89.7145 41.7 88.7918 44.1634 89.077 46.3045C89.2751 47.7914 89.7745 49.4197 91.5786 49.1793C92.6293 49.0393 93.5254 48.1936 94.1441 47.3848C95.9259 45.0087 97.0167 40.9289 96.6033 37.9777L96.5875 37.8587C96.5452 37.5415 96.7858 37.227 97.103 37.1847C97.44 37.1398 97.732 37.3632 97.7769 37.7002C98.0146 39.4845 98.5206 41.3137 99.1469 42.9856C99.3345 43.4852 100.183 45.6118 100.809 45.7705C101.089 45.4507 101.058 44.9101 101.573 44.8414C101.89 44.7992 102.18 45.0028 102.225 45.3398Z" fill="#E1231D"/>
<path d="M116.319 47.9354C116.338 48.1344 116.29 48.2597 116.165 48.4127C115.465 49.2652 113.702 50.1416 112.607 50.249C110.816 50.4249 108.568 50.0427 108.355 47.8731C108.183 46.1215 109.374 44.5376 110.635 43.4692C109.844 42.1603 109.413 40.2331 109.265 38.7204C109.181 37.8645 109.117 36.6047 109.318 35.7812C109.392 35.5126 109.573 35.314 109.852 35.2866C110.19 35.2534 110.475 35.4867 110.508 35.8251C110.514 35.8848 110.518 35.9246 110.504 35.9863C110.371 36.8836 110.377 37.7672 110.463 38.643C110.592 39.9567 110.933 41.5911 111.588 42.7327C112.265 42.2642 113.54 41.5362 114.356 41.4561C114.675 41.4248 114.997 41.6344 115.03 41.9727C115.065 42.331 114.866 42.5515 114.533 42.6445C114.221 42.7354 113.946 42.8026 113.657 42.9314C111.98 43.6588 109.35 45.7256 109.549 47.7559C109.686 49.1492 111.437 49.1782 112.492 49.0747C113.527 48.9731 114.545 48.2903 115.281 47.5952C115.39 47.4839 115.504 47.4125 115.663 47.3968C115.981 47.3656 116.287 47.6169 116.319 47.9354Z" fill="#E1231D"/>
<path d="M138.66 46.6666C138.684 46.9856 138.445 47.2647 138.126 47.2891C137.747 47.3181 137.346 47.3286 136.968 47.3576C135.452 47.4735 133.939 47.6293 132.43 47.8249C131.637 47.9457 130.741 48.0343 129.979 48.2932C129.92 48.3177 129.88 48.3207 129.821 48.3253C129.501 48.3497 129.241 48.0888 129.218 47.7897C129.197 47.5105 129.362 47.3173 129.596 47.2193C130.12 46.9986 130.935 46.8962 131.509 46.7922C131.374 45.8196 131.299 44.8424 131.225 43.8653C131.129 42.609 131.032 41.3526 130.996 40.0917L130.108 40.28C130.01 40.3076 129.895 40.3765 129.795 40.3842L129.655 40.3948C129.336 40.4192 129.059 40.1997 129.034 39.8807C129.013 39.6015 129.177 39.3883 129.43 39.2888C130.113 39.036 131.225 38.8908 131.959 38.7745C131.895 37.6762 131.793 36.0793 131.933 35.0256C131.971 34.7418 132.195 34.5241 132.474 34.5028C132.774 34.4799 133.053 34.7193 133.076 35.0184L133.083 35.1181C132.992 36.2885 133.022 37.4696 133.111 38.6262C134.045 38.5147 134.961 38.4246 135.898 38.3529C136.357 38.3179 136.834 38.2613 137.295 38.2662C137.637 38.2801 137.854 38.4842 137.88 38.8232C137.905 39.1622 137.602 39.3861 137.303 39.4089C136.824 39.4455 136.364 39.4607 135.885 39.4973C135.878 41.7644 135.871 44.0315 135.802 46.2833C136.401 46.2376 137.573 46.0878 138.097 46.1279C138.399 46.1449 138.635 46.3475 138.66 46.6666ZM128.467 36.3938C128.523 37.1316 127.551 39.1115 127.14 39.7648C127.033 39.9334 126.899 40.0239 126.7 40.0391C126.381 40.0635 126.1 39.8042 126.077 39.505C126.068 39.3854 126.119 39.2612 126.171 39.1569C126.581 38.4837 127.223 37.1709 127.324 36.4009C127.363 36.1172 127.547 35.9025 127.846 35.8796C128.165 35.8552 128.443 36.0747 128.467 36.3938ZM129.163 41.0342C129.187 41.3533 128.946 41.6124 128.627 41.6368C127.61 41.7146 126.599 41.8721 125.607 42.0082L125.657 42.6663L125.698 43.2047C126.264 43.5225 128.173 44.6201 128.222 45.2583C128.246 45.5773 127.987 45.8579 127.688 45.8808C127.469 45.8976 127.3 45.7901 127.167 45.6198C126.901 45.2991 126.162 44.814 125.805 44.6006C125.901 45.857 125.997 47.1133 126.073 48.3712C126.117 48.9495 126.22 49.764 126.183 50.3285C126.169 50.6706 125.945 50.8883 125.606 50.9142C125.326 50.9356 125.043 50.6363 125.043 50.3755L125.038 50.3157C124.981 48.5149 124.819 46.6618 124.682 44.867C124.426 45.4483 123.498 47.7457 123.15 48.1735C123.041 48.3222 122.926 48.3912 122.726 48.4064C122.407 48.4308 122.129 48.2114 122.105 47.8923C122.093 47.7328 122.145 47.6285 122.216 47.5027C122.518 46.9982 122.756 46.4384 122.994 45.8787C123.355 45.0888 123.674 44.2821 124.014 43.4739C124.166 43.1012 124.316 42.7086 124.488 42.3344L124.476 42.1749C123.247 42.3691 121.956 42.5281 120.784 42.9386C120.725 42.9631 120.685 42.9662 120.626 42.9708C120.306 42.9952 120.029 42.7757 120.005 42.4566C119.985 42.1974 120.129 41.9858 120.361 41.8678C120.981 41.5797 122.703 41.2875 123.437 41.1712C122.7 40.9868 121.629 38.5213 121.574 37.8034C121.55 37.4843 121.789 37.2053 122.089 37.1824C122.408 37.158 122.624 37.3621 122.705 37.6367C122.846 38.1675 123.453 39.806 123.857 40.1161C124.028 40.2435 124.116 40.357 124.133 40.5764C124.152 40.8157 124.064 40.9828 123.872 41.0978C124.052 41.0841 124.21 41.0519 124.388 41.0183L124.234 39.0041C124.162 38.0669 124.089 37.1097 124.037 36.1709C124.002 35.7122 123.944 35.2152 123.97 34.7719C123.984 34.4298 124.188 34.2137 124.527 34.1877C124.826 34.1649 125.109 34.4442 125.11 34.7249L125.113 34.7648C125.161 36.1852 125.27 37.6011 125.378 39.0169L125.518 40.8516C126.511 40.7155 127.523 40.5779 128.54 40.5002C128.859 40.4758 129.138 40.7152 129.163 41.0342ZM134.73 39.6056C133.874 39.6911 133 39.7981 132.147 39.9235C132.192 41.3041 132.299 42.7 132.404 44.076C132.47 44.9335 132.535 45.791 132.641 46.6454C133.296 46.5552 133.971 46.4635 134.629 46.4132C134.708 44.8225 134.687 43.2395 134.706 41.6534L134.73 39.6056Z" fill="#E1231D"/>
<path d="M151.436 40.5478C151.609 43.082 150.178 46.2065 148.243 47.8217C148.149 47.9083 148.012 47.9578 147.892 47.9659C147.573 47.9877 147.274 47.7274 147.253 47.4081C147.239 47.2086 147.309 47.0634 147.459 46.9129C147.778 46.5905 148.1 46.308 148.396 45.947C149.505 44.5684 150.381 42.4239 150.259 40.6281C150.082 38.0341 148.439 36.5824 145.804 36.7419C146.2 37.2562 146.554 38.0339 146.599 38.6924C146.657 39.5504 146.554 40.3993 146.31 41.2179C145.818 42.835 144.337 45.2212 142.442 45.3504C140.586 45.4768 139.18 43.9689 139.058 42.1731C138.799 38.3818 142.112 35.8107 145.644 35.5701C148.976 35.343 151.209 37.2156 151.436 40.5478ZM145.401 38.774C145.361 38.1754 144.975 37.52 144.528 37.1296C144.464 37.0738 144.422 37.0565 144.397 36.9781C142.035 37.6201 140.058 39.4989 140.235 42.0928C140.312 43.2302 141.143 44.2361 142.36 44.1532C142.779 44.1246 143.237 43.7927 143.54 43.5315C144.825 42.3815 145.517 40.47 145.401 38.774Z" fill="#E1231D"/>
<path d="M170.09 34.4341C170.167 35.6116 169.042 36.8071 167.884 36.8824C166.847 36.9499 166.045 36.3407 165.977 35.2829C165.944 34.784 166.218 33.4434 166.81 33.3046C167.019 32.83 167.499 32.4982 168.018 32.4644C169.155 32.3904 170.019 33.3364 170.09 34.4341ZM168.125 38.7307C168.146 39.05 167.883 39.3277 167.564 39.3484C165.488 39.4835 161.875 40.0191 159.94 40.7664C159.911 41.2493 159.924 41.7495 159.955 42.2285C160.134 44.9827 161.039 45.6453 163.753 45.4687C165.05 45.3843 166.312 45.0617 167.604 44.8975L167.684 44.8923C168.002 44.8516 168.261 45.1354 168.28 45.4347C168.301 45.7541 168.115 45.9666 167.819 46.046C167.407 46.173 166.929 46.2242 166.492 46.2926C165.601 46.4509 164.728 46.5878 163.83 46.6462C160.477 46.8644 159.018 45.6966 158.797 42.3038C158.698 40.787 158.839 39.2546 158.981 37.7422C159.042 37.137 159.088 36.2923 159.191 35.7244C159.253 35.4398 159.419 35.2285 159.738 35.2077C160.058 35.1869 160.334 35.4295 160.355 35.7488L160.361 35.8486C160.221 37.0803 160.099 38.2908 160.019 39.5186C162.237 38.7931 165.173 38.3415 167.488 38.1909C167.808 38.1701 168.104 38.4114 168.125 38.7307ZM168.933 34.5094C168.904 34.0703 168.592 33.5895 168.093 33.622C167.634 33.6518 168.09 34.504 167.232 34.5599C167.165 34.7646 167.12 34.9881 167.134 35.2076C167.16 35.6067 167.449 35.7283 167.808 35.7049C168.327 35.6711 168.969 35.0682 168.933 34.5094Z" fill="#E1231D"/>
<path d="M188.767 39.6929C188.785 40.0324 188.519 40.3069 188.2 40.3238L188.12 40.328C186.977 40.3085 185.834 40.2689 184.695 40.3292C181.959 40.4741 179.287 41.0762 176.571 41.2201L176.531 41.2222C175.732 41.2645 174.455 41.3522 173.932 40.5587C173.868 40.482 173.843 40.3832 173.838 40.2833C173.82 39.9438 174.084 39.6494 174.404 39.6325C174.963 39.6029 174.711 40.1369 175.929 40.0724C176.089 40.064 176.229 40.0566 176.388 40.0281C179.212 39.6582 182.036 39.2883 184.892 39.1371C185.791 39.0895 187.349 39.007 188.216 39.1213C188.519 39.1653 188.75 39.3734 188.767 39.6929Z" fill="#E1231D"/>
<path d="M203.441 34.8096C203.464 35.4292 202.22 38.0175 201.961 38.5876C201.184 40.2978 200.428 42.0073 199.732 43.7345C199.439 44.4859 199.188 45.2558 198.916 46.0065C198.825 46.2501 198.631 46.4175 198.371 46.4272C198.052 46.4391 197.761 46.1698 197.749 45.85C197.747 45.7901 197.764 45.7094 197.782 45.6487C198.491 43.2005 199.809 40.4493 200.861 38.0883C201.305 37.111 201.788 36.1123 202.151 35.098C200.861 34.8661 199.202 34.9281 197.903 34.9767C197.743 34.9826 197.601 34.9279 197.477 34.8325C197.023 35.5299 195.629 37.8437 195.68 38.6823L195.682 38.7223C195.806 38.8377 195.872 38.9954 195.878 39.1553C195.89 39.475 195.62 39.7453 195.3 39.7573C194.8 39.776 194.52 39.2261 194.503 38.7864C194.439 37.0676 196.843 33.3952 197.999 32.1911C198.115 32.0667 198.252 32.0016 198.412 31.9956C198.752 31.9829 199.021 32.233 199.033 32.5527C199.047 32.9125 198.468 33.4945 198.239 33.7833C199.018 33.7542 202.556 33.6219 203.181 34.279C203.327 34.4336 203.432 34.5698 203.441 34.8096Z" fill="#E1231D"/>
<path d="M222.453 38.7491C222.5 41.2887 220.916 44.3384 218.904 45.8556C218.805 45.9375 218.666 45.98 218.546 45.9822C218.226 45.9881 217.941 45.7133 217.935 45.3934C217.931 45.1934 218.009 45.052 218.166 44.9091C218.5 44.6029 218.836 44.3366 219.149 43.9908C220.325 42.6689 221.307 40.5705 221.274 38.7708C221.226 36.1713 219.657 34.6399 217.017 34.6685C217.387 35.2017 217.702 35.9961 217.714 36.656C217.73 37.5158 217.585 38.3586 217.3 39.164C216.729 40.7548 215.132 43.0646 213.232 43.0995C211.372 43.1338 210.043 41.558 210.01 39.7583C209.94 35.9589 213.376 33.5553 216.916 33.4901C220.255 33.4287 222.392 35.4097 222.453 38.7491ZM216.514 36.6781C216.503 36.0782 216.151 35.4045 215.723 34.9923C215.662 34.9334 215.622 34.9142 215.6 34.8346C213.209 35.3586 211.142 37.137 211.19 39.7366C211.211 40.8764 211.99 41.9222 213.21 41.8997C213.63 41.892 214.104 41.5832 214.42 41.3374C215.76 40.2525 216.546 38.3778 216.514 36.6781Z" fill="#E1231D"/>
<path d="M243.606 39.867C243.605 40.627 241.783 41.1225 241.163 41.121C239.783 41.1176 239.486 40.1569 239.489 38.9569C239.491 37.7969 239.754 36.6176 240.057 35.4983C239.717 35.4775 239.397 35.4567 239.057 35.4559C238.777 35.4552 238.517 35.4745 238.237 35.4739C238.015 36.3733 237.793 37.2528 237.591 38.1523C237.91 38.4131 239.008 39.2357 239.007 39.6757C239.006 39.9957 238.766 40.2152 238.466 40.2144C238.266 40.2139 238.126 40.1336 238.006 39.9733C237.807 39.7328 237.567 39.5322 237.328 39.3317L236.802 41.7304C236.721 42.0902 236.521 42.1897 236.181 42.1889C235.941 42.1883 235.722 41.8477 235.742 41.6478L235.742 41.5678C235.804 40.7279 236.187 39.4289 236.39 38.5894C236.09 38.3686 235.771 38.1279 235.431 37.967C235.231 37.8665 235.092 37.7062 235.092 37.4662C235.093 37.1662 235.334 36.9268 235.634 36.9275C235.914 36.9282 236.433 37.3095 236.652 37.47C236.794 36.8303 236.955 36.1707 237.117 35.5311C236.597 35.5699 236.077 35.6286 235.576 35.7274C235.536 35.7273 235.476 35.7471 235.436 35.747C235.136 35.7463 234.897 35.5057 234.898 35.2057C234.898 34.9457 235.079 34.7662 235.319 34.6867C235.96 34.4883 236.74 34.4702 237.4 34.4318C237.581 33.6923 237.783 32.9727 237.985 32.2332C238.086 31.8735 238.167 31.4937 238.308 31.134C238.388 30.9142 238.589 30.7747 238.829 30.7753C239.109 30.776 239.348 31.0166 239.347 31.3165C239.347 31.4165 238.6 34.0947 238.52 34.3945L239.04 34.3958C239.5 34.3969 240.42 34.3792 240.86 34.4802C241.119 34.5409 241.299 34.7613 241.298 35.0413C241.298 35.0813 241.298 35.1413 241.278 35.1813C240.915 36.4204 240.552 37.7595 240.548 39.0595C240.547 39.5795 240.546 40.0595 241.186 40.0611C242.086 40.0632 242.728 39.3248 243.068 39.3256C243.368 39.3264 243.607 39.567 243.606 39.867ZM236.345 32.2692C236.343 32.8892 235.704 32.8077 235.284 32.8067C232.504 32.7999 229.723 33.0731 226.943 33.0663L226.863 33.0661C226.563 33.0654 226.344 32.8049 226.344 32.5249C226.345 32.2449 226.525 32.0453 226.806 31.986C227.266 31.9071 227.786 31.9084 228.246 31.8895C229.166 31.8317 230.066 31.8139 230.986 31.7762C230.987 31.2162 230.789 30.4357 230.47 29.9749C230.391 29.8547 230.351 29.7746 230.351 29.6346C230.352 29.3346 230.573 29.0952 230.873 29.0959C231.653 29.0978 232.068 31.1388 232.066 31.7588C233.326 31.7219 234.566 31.7249 235.826 31.728C236.126 31.7287 236.346 31.9692 236.345 32.2692ZM243.11 46.8058C243.109 47.1058 242.868 47.3852 242.568 47.3844C242.408 47.3841 242.268 47.3037 242.169 47.2035C241.789 46.8225 240.953 45.2805 240.955 44.7405C240.955 44.4405 241.196 44.2011 241.496 44.2018C241.756 44.2025 241.935 44.3629 242.015 44.6031C242.193 45.2035 242.551 46.0044 242.97 46.4654C243.05 46.5656 243.11 46.6858 243.11 46.8058ZM233.856 36.0032C233.855 36.3032 233.615 36.5426 233.315 36.5419C232.875 36.5408 230.334 36.5546 229.954 36.7137C229.854 36.7534 229.734 36.8331 229.614 36.8328C229.354 36.8322 229.154 36.6317 229.095 36.3916C228.917 35.6311 228.899 34.7311 228.901 33.9511C228.901 33.6711 229.122 33.4116 229.422 33.4124C229.602 33.4128 229.762 33.4932 229.862 33.6334C230.562 33.5151 231.302 33.457 232.022 33.4587C232.502 33.4599 233.722 33.3828 233.72 34.1028C233.72 34.3228 233.578 35.2825 233.517 35.5024C233.717 35.5828 233.856 35.7832 233.856 36.0032ZM238.889 47.0755C238.888 47.3755 238.648 47.5949 238.348 47.5942C238.168 47.5937 238.008 47.4933 237.908 47.3531C237.609 46.9324 236.794 44.9304 236.795 44.4504C236.796 44.1704 237.037 43.931 237.337 43.9317C237.597 43.9323 237.776 44.0928 237.856 44.333C238.094 45.1535 238.371 46.0342 238.81 46.7753C238.869 46.8754 238.889 46.9555 238.889 47.0755ZM235.486 40.1672C235.484 40.7672 234.884 40.7057 234.484 40.7047C233.984 40.7035 233.464 40.7222 232.964 40.741C232.621 42.2202 231.178 43.3567 229.698 43.5131L229.618 43.5129C229.318 43.5121 229.098 43.2516 229.099 42.9516C229.1 42.6916 229.28 42.4921 229.54 42.4527C230.501 42.275 231.442 41.7573 231.804 40.7982C230.964 40.8362 230.124 40.8941 229.284 40.9521C228.904 40.9911 228.464 40.9901 228.083 41.0891C228.043 41.109 228.023 41.109 227.983 41.1089C227.683 41.1082 227.464 40.8476 227.465 40.5476C227.465 40.2876 227.646 40.0881 227.906 40.0287C228.286 39.9496 228.686 39.9306 229.066 39.8915C229.866 39.8335 230.687 39.7755 231.507 39.7375C231.227 39.5168 230.887 39.436 230.888 39.016C230.889 38.676 231.21 38.4767 231.41 38.2772C230.77 38.3157 230.13 38.3741 229.51 38.4926C229.47 38.4925 229.45 38.5125 229.41 38.5124C229.11 38.5116 228.87 38.251 228.871 37.951C228.872 37.691 229.052 37.4915 229.312 37.4321C230.133 37.2541 231.373 37.1771 232.233 37.1792C232.633 37.1802 233.193 37.1816 233.192 37.7416C233.191 38.0816 232.489 38.6999 232.249 38.9593C232.488 39.1399 232.728 39.3804 232.867 39.6608C233.407 39.6421 233.967 39.6235 234.527 39.6248C234.927 39.6258 235.487 39.5672 235.486 40.1672ZM234.488 47.4248C234.487 47.7448 234.247 47.9642 233.947 47.9634C233.707 47.9629 233.527 47.8224 233.448 47.6022C233.328 47.2619 232.715 44.6804 232.715 44.4004C232.716 44.1204 232.957 43.861 233.257 43.8617C233.517 43.8624 233.716 44.0629 233.776 44.303C233.993 45.2835 234.191 46.284 234.468 47.2647C234.488 47.3248 234.488 47.3848 234.488 47.4248ZM229.775 44.5333C229.775 44.5933 229.755 44.6532 229.735 44.7132C229.372 45.6923 228.368 47.4098 227.626 48.108C227.526 48.2078 227.386 48.2475 227.246 48.2471C226.926 48.2463 226.706 48.0458 226.707 47.7258C226.708 47.5658 226.768 47.4459 226.868 47.3462C227.69 46.4482 228.273 45.4296 228.736 44.3107C228.816 44.1109 229.016 43.9714 229.236 43.972C229.536 43.9727 229.776 44.2333 229.775 44.5333ZM232.579 34.5601C232.419 34.5597 232.259 34.5393 232.079 34.5388C231.399 34.5372 230.679 34.5954 229.999 34.6938C229.998 34.9938 230.018 35.2938 230.057 35.5939C230.837 35.5158 231.637 35.4778 232.417 35.4597C232.518 35.1799 232.559 34.86 232.579 34.5601Z" fill="#E1231D"/>
<path d="M260.778 37.0289C260.774 37.3488 260.51 37.6251 260.19 37.6006L260.13 37.5998C259.051 37.5446 257.991 37.5097 256.911 37.4945C256.782 38.1328 256.653 38.771 256.445 39.3882C256.905 39.3946 257.485 39.3828 257.476 40.0227C257.465 40.7626 256.428 40.548 255.968 40.5416C254.849 40.5258 253.708 40.5498 252.587 40.614C252.287 40.6298 251.986 40.7056 251.685 40.7214L251.565 40.7197C251.245 40.7152 250.989 40.4516 250.994 40.1316C251.001 39.5916 251.542 39.5392 251.963 39.5052C251.992 38.8655 252.021 38.2058 252.03 37.5659C250.969 37.591 249.889 37.6158 248.827 37.7409C248.197 41.2924 246.78 45.3129 244.124 47.8758C244.002 47.9941 243.882 48.0324 243.722 48.0301C243.402 48.0256 243.145 47.782 243.15 47.462C243.152 47.302 243.214 47.1629 243.336 47.0446C243.782 46.5708 244.209 46.1168 244.576 45.5819C246.698 42.6114 247.843 38.0271 248.054 34.3897L246.091 34.5621L246.012 34.561C245.692 34.5565 245.435 34.3129 245.44 33.9729C245.444 33.6729 245.647 33.4558 245.948 33.4C246.75 33.2712 247.61 33.2433 248.411 33.1946C249.912 33.1157 251.393 33.0765 252.893 33.0576C252.634 32.9939 252.437 32.7712 252.441 32.4912C252.449 31.9512 251.844 30.8626 251.57 30.4187C251.492 30.2976 251.453 30.2171 251.455 30.0771C251.46 29.7571 251.743 29.5011 252.063 29.5056C252.263 29.5084 252.402 29.5904 252.52 29.752C252.952 30.2982 253.611 31.8076 253.601 32.5075C253.598 32.7475 253.434 32.9852 253.194 33.0418C254.694 33.0229 256.174 33.0037 257.674 33.0248C258.274 33.0333 258.915 33.0023 259.494 33.0904C259.833 33.1352 260.03 33.378 260.025 33.7179C260.021 34.0179 259.737 34.2539 259.457 34.25C258.857 34.2416 258.238 34.1929 257.618 34.1841C254.818 34.1448 252.017 34.2054 249.215 34.326C249.185 35.0657 249.094 35.8245 249.004 36.5633C250.005 36.4773 251.026 36.4317 252.046 36.406C252.052 36.0061 252.018 35.5855 252.003 35.1853L252.004 35.1053C251.989 34.7851 252.292 34.5493 252.612 34.5538C252.912 34.558 253.109 34.7608 253.165 35.0416C253.24 35.4627 253.213 35.9624 253.207 36.3823C254.107 36.355 255.027 36.3479 255.927 36.3406C255.994 35.8415 256.039 35.5221 256.046 35.0221C256.051 34.7022 256.294 34.4256 256.614 34.4301C257.074 34.4365 257.21 34.7385 257.204 35.1584C257.198 35.5984 257.154 35.8978 257.087 36.3569L257.987 36.3695C258.627 36.3785 259.628 36.3526 260.266 36.4616C260.546 36.5055 260.783 36.7089 260.778 37.0289ZM259.448 47.7312C259.443 48.0712 259.179 48.3275 258.859 48.323C258.739 48.3213 258.66 48.2802 258.561 48.2188C257.013 47.3169 255.487 46.3554 253.919 45.4732C252.787 46.2974 250.868 47.6306 249.484 47.9111C249.444 47.9106 249.384 47.9297 249.344 47.9292C249.024 47.9247 248.768 47.661 248.772 47.3411C248.776 47.0611 248.959 46.8636 249.22 46.7873C250.545 46.4059 251.716 45.6423 252.828 44.8378C252.391 44.5917 251.954 44.3855 251.517 44.1593C251.299 44.0563 251.161 43.8743 251.165 43.6143C251.169 43.3144 251.433 43.0581 251.753 43.0625C252.073 43.067 253.501 43.8872 253.839 44.072C254.425 43.6202 255.012 43.1484 255.559 42.656C254.019 42.6544 252.418 42.6719 250.894 42.9305C250.854 42.9299 250.814 42.9493 250.774 42.9488C250.454 42.9443 250.198 42.6807 250.202 42.3607C250.206 42.0607 250.41 41.8435 250.69 41.7875C251.232 41.6751 251.832 41.6435 252.393 41.6114C253.554 41.5277 254.735 41.4843 255.895 41.5006C256.415 41.5079 257.577 41.3843 257.566 42.1442C257.563 42.3242 257.502 42.4233 257.4 42.5419C257.197 42.7991 256.874 43.0146 256.631 43.2312C256.063 43.7432 255.497 44.2153 254.91 44.6871C255.902 45.2611 256.874 45.8348 257.846 46.4286C258.282 46.6947 258.799 46.942 259.194 47.2476C259.353 47.3698 259.45 47.5312 259.448 47.7312ZM255.731 37.4979L253.191 37.5222C253.187 37.7622 253.166 39.282 253.124 39.4215C253.824 39.3913 254.525 39.3812 255.225 39.371C255.453 38.7542 255.602 38.1362 255.731 37.4979Z" fill="#E1231D"/>
<path d="M279.291 31.9665C279.282 32.2864 279.015 32.539 278.675 32.5296C278.515 32.5251 278.338 32.4401 278.221 32.3168C278.027 32.0913 277.337 31.0316 277.345 30.7317C277.354 30.4118 277.622 30.1392 277.961 30.1487C278.181 30.1548 278.358 30.2798 278.473 30.4631C278.683 30.8291 278.892 31.2151 279.143 31.5422C279.24 31.665 279.296 31.8066 279.291 31.9665ZM277.056 33.1846C277.047 33.5245 276.78 33.7771 276.44 33.7676C276.3 33.7637 276.161 33.7198 276.044 33.6165C275.458 33.1 275.234 32.5135 275.256 31.7338C275.265 31.4139 275.553 31.1419 275.873 31.1508C276.213 31.1603 276.465 31.4274 276.456 31.7673C276.43 32.687 277.073 32.6049 277.056 33.1846ZM274.065 35.0018C274.056 35.3017 273.892 35.4572 273.629 35.5699C273.264 35.7198 272.96 35.8514 272.634 36.0623C270.922 37.215 268.782 40.0364 268.723 42.1555C268.689 43.3551 268.953 44.643 269.87 45.4889C270.085 45.6949 270.302 45.801 270.537 45.9677C270.733 46.1132 270.87 46.2371 270.862 46.497C270.854 46.8168 270.566 47.0689 270.247 47.06C270.147 47.0572 270.067 47.035 269.968 46.9922C268.112 46.12 267.47 44.0413 267.523 42.1221C267.59 39.723 269.568 36.9771 271.369 35.5068C269.49 35.4544 267.629 35.4624 265.75 35.41C265.43 35.401 265.137 35.1328 265.146 34.8129C265.156 34.453 265.402 34.2398 265.743 34.2093C266.185 34.1616 266.684 34.2155 267.123 34.2278C268.004 34.2324 268.883 34.2569 269.783 34.2821L271.082 34.3183L272.722 34.3641C272.981 34.3914 273.262 34.3592 273.501 34.4059C273.82 34.4548 274.074 34.662 274.065 35.0018Z" fill="#E1231D"/>
<path d="M288.414 33.2745L288.41 33.3344C288.089 36.1004 287.774 39.0871 287.61 41.8823C287.593 42.1818 287.296 42.465 286.976 42.4463C286.377 42.4113 286.389 41.871 286.415 41.4318C286.522 39.5949 286.708 37.7827 286.875 35.9493C286.943 35.1319 287.055 33.8963 287.221 33.1247C287.278 32.8275 287.531 32.6219 287.85 32.6406C288.209 32.6616 288.434 32.9351 288.414 33.2745ZM287.657 47.5948C287.637 47.9342 287.364 48.1586 287.024 48.1388C286.166 48.0886 286.335 46.2153 286.4 45.1172C286.418 44.7977 286.714 44.5346 287.034 44.5532C288.052 44.6127 287.327 46.3935 287.63 47.3728C287.647 47.4339 287.662 47.5149 287.657 47.5948Z" fill="#E1231D"/>
</svg>
