<svg width="233" height="73" viewBox="0 0 233 73" fill="none" xmlns="http://www.w3.org/2000/svg">
<path d="M13.1843 50.8597C10.5211 54.2412 2.46321 65.4844 1.27787 70.4015C-0.428823 74.5618 6.18441 69.51 8.64967 67.5646C14.4095 64.4028 15.8353 63.7857 18.8252 63.2141C26.0492 61.8331 33.2571 61.3405 40.6169 60.9013C48.1983 60.449 55.9825 59.7002 63.5962 60.1694C75.4613 60.9007 87.2891 62.4979 99.1042 63.7411C119.881 65.9273 140.987 65.8306 161.807 64.2681C179.658 62.9284 198.421 60.796 215.01 53.7288C220.208 51.5145 226.523 48.622 229.676 43.7165C233.308 38.0663 232.004 31.907 230.33 25.7997C226.068 10.252 210.622 2.64417 195.237 1.3837C184.355 0.49211 173.162 1.36484 162.282 1.88138C148.105 2.55452 134.022 4.00575 119.946 5.77506C96.7041 8.69643 72.5993 11.151 51.0081 20.7643C35.9057 27.4884 23.2995 38.0169 13.1843 50.8597Z" stroke="#E1231D" stroke-width="1.18531" stroke-linecap="round"/>
<path d="M71.778 34.3538C71.8111 34.6709 71.5804 34.9555 71.2633 34.9887C69.4201 35.1816 67.6008 35.412 65.7658 35.6841C64.7393 35.8316 63.3916 35.9726 62.4255 36.3142C62.3681 36.3402 62.3284 36.3444 62.269 36.3506C61.9519 36.3838 61.6672 36.1531 61.6341 35.836C61.605 35.5585 61.7627 35.3416 62.012 35.2354C62.7601 34.9166 65.1699 34.5844 66.0399 34.4733L65.9076 32.4434C65.0397 32.5742 64.1259 32.6498 63.2683 32.8798C63.2506 32.9017 63.2109 32.9059 63.1911 32.9079C62.874 32.9411 62.5873 32.6906 62.5541 32.3735C62.523 32.0762 62.7203 31.8552 62.9916 31.7667C63.7302 31.5491 65.0362 31.3924 65.8071 31.2917C65.7979 31.0122 65.7512 30.7566 65.7242 30.4989C65.691 30.1818 65.9196 29.8774 66.2368 29.8442C66.9503 29.7695 66.9424 30.652 66.9526 31.1318C67.5075 31.0737 68.0604 30.9958 68.5955 30.9399C69.1307 30.8839 70.1249 30.6195 70.2079 31.4123C70.2431 31.7493 69.9467 31.9807 69.6494 32.0118C69.3323 32.0449 68.9933 32.0604 68.6762 32.0936C68.141 32.1496 67.5882 32.2274 67.053 32.2834L67.1853 34.3134C68.5091 34.1348 69.8151 33.9781 71.143 33.8391C71.4602 33.806 71.7448 34.0367 71.778 34.3538ZM73.5608 37.4132C73.596 37.7501 73.3414 37.9972 73.0263 38.0502C72.632 38.1115 72.2116 38.1154 71.8152 38.1569C70.9432 38.2481 70.0732 38.3592 69.2032 38.4703C69.2488 38.9063 69.3121 39.3205 69.3578 39.7565C69.4905 41.025 69.8751 44.8919 69.1108 46.0138C68.64 46.6842 67.6624 47.1071 66.8696 47.1901C66.5524 47.2233 66.2678 46.9926 66.2346 46.6754C66.2015 46.3583 66.4342 46.0935 66.7514 46.0603C67.1874 46.0147 67.8822 45.7617 68.1443 45.3936C68.6903 44.6753 68.2631 40.5924 68.178 39.7798L68.0577 38.6302C66.3594 38.868 64.6632 39.1256 62.9931 39.4407C62.4422 39.5384 61.8977 39.6955 61.3468 39.7932L61.2477 39.8036C60.9306 39.8368 60.6658 39.604 60.6326 39.2869C60.6015 38.9896 60.779 38.7707 61.0503 38.6822C61.7472 38.449 62.6766 38.3317 63.4038 38.1955C64.8976 37.9189 66.4175 37.6998 67.9176 37.4827C67.8699 37.0269 67.7773 36.716 67.7296 36.2601C67.6985 35.9628 67.9052 35.6406 68.2223 35.6074C68.7178 35.5556 68.8543 35.902 68.8957 36.2984C68.9372 36.6948 69.0216 36.9264 69.063 37.3228C69.933 37.2117 70.8229 37.0986 71.695 37.0073C72.0913 36.9659 72.5253 36.9004 72.9259 36.8986C73.2471 36.905 73.5255 37.0763 73.5608 37.4132ZM59.721 32.4896C59.7376 32.6481 59.6906 32.7733 59.604 32.9026C59.0151 33.7857 58.3845 34.6532 57.7978 35.5561C57.3311 36.2662 56.8685 37.0159 56.382 37.728C56.2776 37.8792 56.1471 37.973 55.9489 37.9937C55.6318 38.0269 55.3691 37.8139 55.3359 37.4968C55.3193 37.3382 55.3486 37.235 55.4154 37.1078C55.9427 36.2111 56.6067 35.28 57.1956 34.3969C57.6466 33.7285 58.1937 32.8297 58.6906 32.2167C58.7971 32.0853 58.9098 32.0134 59.0882 31.9948C59.4251 31.9595 59.6879 32.1725 59.721 32.4896ZM66.169 43.1758C66.2022 43.493 65.9517 43.7797 65.6544 43.8108C65.476 43.8294 65.3091 43.7667 65.1955 43.6384C64.7931 43.2397 64.1977 41.3784 64.1375 40.8036C64.1064 40.5063 64.2714 40.1685 64.6084 40.1332C64.9453 40.098 65.1861 40.2932 65.259 40.6062C65.3661 41.0558 65.7376 42.4997 66.0128 42.8315C66.1045 42.9422 66.1545 43.0371 66.169 43.1758ZM61.0388 35.3172C61.0554 35.4757 61.024 35.5592 60.9394 35.7083C60.8235 35.9408 60.6461 36.1597 60.4863 36.3568C60.193 36.8083 59.8797 37.2618 59.5665 37.7154C59.6974 38.5833 59.8064 39.4335 59.8977 40.3055C60.0781 42.0299 60.1991 43.7604 60.2011 45.5034C60.2195 46.0625 60.2202 46.6435 60.1573 47.1911C60.1248 47.455 59.9296 47.6958 59.6521 47.7249C59.6125 47.729 59.5728 47.7332 59.5509 47.7154C59.2693 47.7048 59.0462 47.4877 59.0172 47.2102L59.0068 47.1111C59.1438 44.9729 58.9991 42.824 58.7772 40.7033C58.7212 40.1682 58.6652 39.633 58.5894 39.1C58.2741 39.5337 57.6675 40.4387 57.3241 40.7952C57.2155 40.9068 57.083 40.9808 56.9443 40.9953C56.6271 41.0285 56.3425 40.7978 56.3093 40.4806C56.2907 40.3023 56.3377 40.1771 56.4442 40.0458C57.2563 38.999 58.0268 37.9366 58.7733 36.8366C59.1732 36.2537 59.5491 35.6333 59.9906 35.0662C60.095 34.915 60.2255 34.8212 60.4039 34.8025C60.721 34.7693 61.0056 35 61.0388 35.3172Z" fill="#E1231D"/>
<path d="M88.5424 38.4312C88.6992 40.6777 86.1319 42.5348 84.3797 43.4761C84.303 43.5214 84.2249 43.5469 84.1453 43.5524C83.8273 43.5746 83.5096 43.3171 83.4875 42.999C83.4694 42.7406 83.5961 42.5519 83.8065 42.4174C84.1504 42.1936 84.517 42.0083 84.861 41.7845C85.8545 41.1358 87.444 39.8663 87.3497 38.5145C87.254 37.1428 85.3529 37.0956 84.339 37.1664C83.345 37.2357 81.9701 37.5714 81.0635 38.0342C80.9867 38.0795 80.775 38.1941 80.7195 38.2579C80.573 38.4479 80.4833 38.594 80.2049 38.6135C79.8869 38.6356 79.5877 38.3569 79.5656 38.0388C79.4768 36.7665 83.3413 36.0374 84.2558 35.9736C86.045 35.8487 88.3885 36.2246 88.5424 38.4312Z" fill="#E1231D"/>
<path d="M108.85 30.7076C108.864 30.9863 108.693 31.1741 108.459 31.2851C108.109 31.4616 107.817 31.6153 107.509 31.8496C105.894 33.1244 103.982 36.0895 104.084 38.1994C104.142 39.4136 104.503 40.6931 105.518 41.4622C105.725 41.6318 105.949 41.7208 106.175 41.8496C106.38 41.9594 106.527 42.1119 106.539 42.3707C106.554 42.6892 106.289 42.9813 105.971 42.9966C105.871 43.0014 105.77 42.9664 105.688 42.9304C103.773 42.1049 102.985 40.2475 102.889 38.257C102.775 35.8883 104.531 32.9906 106.211 31.4133L104.857 31.4785C103.444 31.5466 102.033 31.6545 100.619 31.7225C100.301 31.7379 99.9899 31.4935 99.9746 31.175C99.9573 30.8167 100.186 30.5862 100.522 30.5301C100.918 30.4711 101.377 30.469 101.775 30.4498C102.71 30.3849 103.645 30.3398 104.581 30.2948L105.795 30.2363L107.527 30.1529C107.767 30.1613 108.004 30.1299 108.244 30.1383C108.585 30.1618 108.833 30.3493 108.85 30.7076Z" fill="#E1231D"/>
<path d="M128.581 33.3082C128.593 33.587 128.441 33.7925 128.206 33.9016C127.559 34.1866 126.527 34.3075 125.832 34.3751C125.94 35.5874 126.009 36.8212 126.077 38.035L126.081 38.1346C126.649 38.3712 127.974 39.0962 128.003 39.8131C128.015 40.1117 127.748 40.4215 127.429 40.4342C127.191 40.4438 127.006 40.3115 126.878 40.0973C126.664 39.7468 126.236 39.5046 125.87 39.3397C125.525 40.6897 124.674 41.8604 123.181 41.9199C121.946 41.9691 120.311 40.9773 120.258 39.6431C120.195 38.0701 121.493 37.5995 122.847 37.5455C123.544 37.5178 124.246 37.6095 124.91 37.7625C124.881 37.0456 124.794 36.3511 124.745 35.635L124.659 34.4817C124.282 34.5167 123.903 34.5318 123.525 34.5469C122.689 34.5802 121.833 34.6143 120.994 34.5879C120.655 34.5815 120.425 34.3314 120.412 33.9929C120.397 33.6345 120.668 33.4242 121.007 33.4107C121.763 33.3806 122.542 33.4093 123.319 33.3784C123.737 33.3617 124.155 33.3251 124.573 33.3085C124.519 32.453 124.465 31.5976 124.43 30.7414C123.971 30.7198 123.511 30.6982 123.053 30.7165C122.655 30.7324 122.278 30.7673 121.882 30.843L121.802 30.8461C121.464 30.8596 121.213 30.5904 121.201 30.2718C121.189 29.9731 121.399 29.7453 121.676 29.6745C122.11 29.5774 122.608 29.5575 123.046 29.5401C123.504 29.5218 123.943 29.5243 124.383 29.5466C124.363 29.0488 124.275 28.3344 124.972 28.3066C125.688 28.278 125.547 29.221 125.565 29.679C126.087 29.7778 126.65 29.8751 127.137 30.095C127.34 30.1866 127.487 30.3802 127.497 30.6191C127.51 30.9377 127.241 31.2077 126.923 31.2204C126.823 31.2244 126.763 31.2267 126.682 31.1901C126.317 31.0451 125.995 30.9582 125.612 30.8737C125.643 31.6503 125.694 32.4261 125.745 33.2019C126.44 33.1343 127.133 33.0069 127.802 32.7808C127.861 32.7585 127.921 32.7562 127.981 32.7538C128.3 32.7411 128.569 32.9896 128.581 33.3082ZM124.757 38.9452C124.153 38.7898 123.511 38.6958 122.894 38.7204C122.276 38.745 121.401 38.7998 121.433 39.5963C121.458 40.2335 122.576 40.7673 123.134 40.7451C124.13 40.7054 124.572 39.7903 124.757 38.9452Z" fill="#E1231D"/>
<path d="M146.561 41.3381C146.573 41.6568 146.304 41.9259 145.985 41.9376C145.925 41.9398 145.805 41.9243 145.744 41.9066C143.3 41.0593 142.978 37.1825 142.898 35.0118C142.831 33.1796 142.904 31.3623 143.017 29.5634L143.115 27.9046C143.125 27.625 143.134 27.3256 143.164 27.0453C143.212 26.7245 143.423 26.4974 143.741 26.4856C144.06 26.4739 144.369 26.7417 144.361 27.0611L144.363 27.1209C144.319 29.7348 144.017 32.3583 144.113 34.9671C144.17 36.5005 144.352 39.2857 145.529 40.3989C145.736 40.5908 145.918 40.6638 146.162 40.7944C146.386 40.9258 146.551 41.0593 146.561 41.3381Z" fill="#E1231D"/>
<path d="M171.721 32.5744C171.729 32.8932 171.476 33.1585 171.158 33.1664C171.078 33.1684 170.998 33.1504 170.918 33.1325C170.677 33.0587 170.417 33.0253 170.158 33.0317C169.261 33.0538 168.292 33.3569 167.484 33.7357C167.405 33.7775 167.326 33.7994 167.226 33.8019C166.888 33.8102 166.602 33.5581 166.594 33.2195C166.588 32.9804 166.723 32.7777 166.919 32.6732C167.745 32.2142 169.172 31.8799 170.109 31.8568C170.627 31.844 171.703 31.8572 171.721 32.5744ZM171.811 39.4296C171.819 39.7682 171.526 40.0147 171.208 40.0226C170.251 40.0462 167.989 39.6437 167.199 39.1449C167.017 39.0298 166.913 38.8729 166.908 38.6737C166.9 38.335 167.152 38.0298 167.49 38.0214C167.63 38.0179 167.71 38.0558 167.811 38.1131C168.74 38.5885 170.18 38.7722 171.218 38.8263C171.577 38.8373 171.802 39.071 171.811 39.4296ZM166.042 28.6283C166.049 28.9072 165.875 29.1308 165.618 29.2169C164.629 29.5404 163.476 29.6685 162.421 29.7345C161.32 31.9346 159.216 37.1695 159.275 39.5601C159.284 39.8988 159.41 40.1747 159.416 40.3939C159.424 40.7126 159.132 40.9989 158.813 41.0068C158.155 41.0231 158.092 40.0877 158.081 39.6096C158.017 37.0397 159.891 32.2091 161.087 29.7675C160.488 29.7424 159.85 29.7582 159.25 29.6734C158.93 29.6215 158.725 29.4073 158.718 29.0885C158.71 28.7698 158.941 28.465 159.281 28.4766L159.36 28.4746C160.139 28.5151 160.918 28.5756 161.695 28.5564C161.866 28.2531 162.037 27.8901 162.25 27.6257C162.366 27.4833 162.523 27.3997 162.722 27.3947C163.041 27.3869 163.326 27.639 163.334 27.9577C163.339 28.1569 163.264 28.3382 163.127 28.4612C163.864 28.4031 164.557 28.2464 165.271 28.0693C165.33 28.0479 165.37 28.0469 165.43 28.0454C165.768 28.0371 166.034 28.2896 166.042 28.6283Z" fill="#E1231D"/>
<path d="M185.543 26.6141L185.544 26.6739C185.41 29.4453 185.298 32.4356 185.323 35.2255C185.326 35.5244 185.05 35.8258 184.731 35.8288C184.133 35.8343 184.108 35.2964 184.104 34.858C184.087 33.0247 184.15 31.2106 184.193 29.3767C184.206 28.5595 184.234 27.3237 184.347 26.5454C184.384 26.2461 184.621 26.0247 184.94 26.0218C185.298 26.0185 185.54 26.2754 185.543 26.6141ZM185.754 40.9013C185.757 41.24 185.5 41.4815 185.161 41.4846C184.305 41.4925 184.347 39.6188 184.337 38.5228C184.334 38.204 184.611 37.9224 184.929 37.9195C185.946 37.9102 185.345 39.7292 185.712 40.6824C185.733 40.742 185.753 40.8216 185.754 40.9013Z" fill="#E1231D"/>
<path d="M205.77 26.6255L205.77 26.6853C205.583 29.4536 205.414 32.4414 205.387 35.2312C205.384 35.5301 205.102 35.8263 204.784 35.8231C204.186 35.8173 204.171 35.2791 204.175 34.8407C204.193 33.0074 204.291 31.1948 204.368 29.362C204.396 28.5452 204.448 27.3101 204.575 26.5341C204.618 26.2356 204.86 26.0188 205.178 26.0219C205.537 26.0254 205.774 26.2868 205.77 26.6255ZM205.71 40.9141C205.707 41.2529 205.446 41.4895 205.107 41.4862C204.25 41.4778 204.328 39.6052 204.339 38.5092C204.342 38.1904 204.624 37.9141 204.942 37.9172C205.959 37.9272 205.323 39.7345 205.673 40.6945C205.692 40.7545 205.711 40.8344 205.71 40.9141Z" fill="#E1231D"/>
</svg>
