<svg width="544" height="125" viewBox="0 0 544 125" fill="none" xmlns="http://www.w3.org/2000/svg">
<path d="M29.5582 87.8929C23.316 93.5824 4.42954 112.5 1.65129 120.773C-2.34895 127.773 13.1515 119.273 18.9297 116C32.4298 110.68 35.7718 109.642 42.7797 108.68C59.7116 106.356 76.6059 105.527 93.8562 104.789C111.626 104.027 129.871 102.768 147.716 103.557C175.526 104.788 203.249 107.475 230.942 109.567C279.64 113.245 329.109 113.082 377.909 110.453C419.748 108.199 463.727 104.611 502.608 92.7202C514.79 88.9946 529.594 84.1277 536.984 75.8737C545.496 66.3669 542.438 56.0034 538.515 45.7274C528.527 19.5672 492.323 6.76644 456.263 4.6456C430.757 3.14544 404.522 4.61387 379.022 5.483C345.791 6.6156 312.784 9.05741 279.792 12.0344C225.316 16.9498 168.818 21.0798 118.212 37.2549C82.8139 48.5688 53.2667 66.2838 29.5582 87.8929Z" stroke="#E1231D" stroke-width="2" stroke-linecap="round"/>
<path d="M179.481 57.8172C179.544 58.4225 179.104 58.9658 178.499 59.0292C174.98 59.3973 171.507 59.8372 168.004 60.3567C166.045 60.6383 163.472 60.9075 161.628 61.5594C161.518 61.6091 161.443 61.617 161.329 61.6289C160.724 61.6923 160.181 61.2519 160.117 60.6465C160.062 60.1168 160.363 59.7029 160.839 59.5001C162.267 58.8917 166.867 58.2573 168.528 58.0453L168.275 54.1704C166.618 54.4202 164.874 54.5645 163.237 55.0035C163.203 55.0453 163.127 55.0532 163.09 55.0572C162.484 55.1205 161.937 54.6423 161.874 54.037C161.814 53.4694 162.191 53.0476 162.709 52.8786C164.119 52.4634 166.612 52.1642 168.083 51.972C168.066 51.4384 167.976 50.9505 167.925 50.4586C167.862 49.8533 168.298 49.2721 168.903 49.2088C170.265 49.0663 170.25 50.7508 170.27 51.6667C171.329 51.5559 172.385 51.4072 173.406 51.3003C174.428 51.1934 176.326 50.6889 176.484 52.2022C176.551 52.8454 175.985 53.2871 175.418 53.3465C174.813 53.4098 174.165 53.4393 173.56 53.5026C172.539 53.6095 171.483 53.7582 170.462 53.8651L170.714 57.74C173.241 57.3991 175.734 57.1 178.269 56.8348C178.874 56.7714 179.418 57.2118 179.481 57.8172ZM182.884 63.6574C182.952 64.3005 182.466 64.7721 181.864 64.8733C181.111 64.9903 180.309 64.9978 179.552 65.077C177.888 65.2512 176.227 65.4632 174.566 65.6752C174.653 66.5076 174.774 67.2981 174.861 68.1305C175.115 70.5519 175.849 77.9336 174.39 80.0751C173.491 81.3549 171.625 82.1622 170.111 82.3205C169.506 82.3838 168.963 81.9435 168.899 81.3381C168.836 80.7328 169.28 80.2273 169.886 80.1639C170.718 80.0769 172.045 79.5938 172.545 78.8913C173.587 77.52 172.771 69.7261 172.609 68.1749L172.38 65.9805C169.138 66.4344 165.9 66.9262 162.712 67.5276C161.66 67.7141 160.62 68.0141 159.569 68.2006L159.38 68.2204C158.775 68.2838 158.269 67.8394 158.206 67.2341C158.146 66.6666 158.485 66.2486 159.003 66.0797C160.333 65.6345 162.108 65.4106 163.496 65.1506C166.347 64.6227 169.249 64.2044 172.112 63.79C172.021 62.9199 171.844 62.3264 171.753 61.4562C171.694 60.8887 172.088 60.2736 172.694 60.2103C173.64 60.1113 173.9 60.7726 173.979 61.5293C174.058 62.2859 174.219 62.7281 174.299 63.4848C175.959 63.2727 177.658 63.0568 179.323 62.8826C180.079 62.8034 180.908 62.6785 181.672 62.675C182.286 62.6873 182.817 63.0142 182.884 63.6574ZM156.466 54.2586C156.497 54.5613 156.407 54.8002 156.242 55.047C155.118 56.7328 153.914 58.3887 152.794 60.1123C151.903 61.4677 151.02 62.8988 150.092 64.2582C149.892 64.5468 149.643 64.7259 149.265 64.7655C148.66 64.8288 148.158 64.4223 148.095 63.8169C148.063 63.5143 148.119 63.3172 148.247 63.0743C149.253 61.3626 150.521 59.5852 151.645 57.8994C152.506 56.6236 153.55 54.9079 154.499 53.7377C154.702 53.4869 154.917 53.3497 155.257 53.314C155.901 53.2467 156.402 53.6533 156.466 54.2586ZM168.774 74.6577C168.837 75.2631 168.359 75.8103 167.792 75.8697C167.451 75.9053 167.133 75.7857 166.916 75.5406C166.148 74.7795 165.011 71.2266 164.896 70.1294C164.837 69.5619 165.152 68.9169 165.795 68.8496C166.438 68.7823 166.898 69.155 167.037 69.7524C167.241 70.6107 167.951 73.3669 168.476 74.0004C168.651 74.2116 168.746 74.3929 168.774 74.6577ZM158.981 59.6562C159.013 59.9589 158.953 60.1181 158.791 60.4028C158.57 60.8467 158.231 61.2646 157.926 61.6407C157.366 62.5026 156.768 63.3683 156.171 64.2341C156.42 65.8909 156.629 67.5138 156.803 69.1786C157.147 72.4702 157.378 75.7736 157.382 79.1009C157.417 80.1681 157.418 81.2772 157.298 82.3225C157.236 82.8262 156.864 83.286 156.334 83.3414C156.258 83.3493 156.183 83.3572 156.141 83.3233C155.603 83.3031 155.177 82.8887 155.122 82.359L155.102 82.1698C155.364 78.0881 155.087 73.9861 154.664 69.9379C154.557 68.9163 154.45 67.8948 154.305 66.8772C153.703 67.7052 152.545 69.4328 151.89 70.1133C151.683 70.3263 151.43 70.4675 151.165 70.4952C150.56 70.5585 150.016 70.1182 149.953 69.5128C149.917 69.1723 150.007 68.9334 150.21 68.6826C151.761 66.6845 153.231 64.6564 154.656 62.5566C155.42 61.444 156.137 60.2598 156.98 59.1771C157.179 58.8885 157.428 58.7094 157.769 58.6738C158.374 58.6105 158.918 59.0509 158.981 59.6562Z" fill="#E1231D"/>
<path d="M215.864 65.165C216.163 69.4532 211.262 72.9984 207.917 74.7952C207.771 74.8817 207.622 74.9303 207.47 74.9408C206.863 74.9832 206.256 74.4916 206.214 73.8845C206.18 73.3911 206.421 73.0311 206.823 72.7742C207.48 72.3471 208.179 71.9932 208.836 71.566C210.733 70.3278 213.767 67.9044 213.587 65.3239C213.404 62.7054 209.775 62.6154 207.84 62.7505C205.942 62.8829 203.318 63.5236 201.587 64.407C201.44 64.4935 201.036 64.7124 200.93 64.8342C200.651 65.1969 200.479 65.4758 199.948 65.5128C199.341 65.5552 198.77 65.023 198.727 64.4159C198.558 61.9871 205.935 60.5953 207.681 60.4735C211.096 60.2352 215.57 60.9527 215.864 65.165Z" fill="#E1231D"/>
<path d="M259.197 50.0948C259.222 50.6267 258.897 50.9852 258.45 51.1971C257.781 51.534 257.223 51.8275 256.636 52.2747C253.554 54.7083 249.904 60.3683 250.098 64.396C250.209 66.7138 250.898 69.1562 252.835 70.6244C253.231 70.948 253.658 71.1179 254.089 71.3637C254.48 71.5734 254.761 71.8646 254.785 72.3586C254.814 72.9665 254.308 73.5241 253.7 73.5534C253.51 73.5625 253.316 73.4957 253.16 73.427C249.504 71.8512 248.001 68.3055 247.818 64.5058C247.6 59.9842 250.952 54.4527 254.158 51.4419L251.574 51.5664C248.877 51.6963 246.182 51.9022 243.485 52.0322C242.877 52.0614 242.283 51.5949 242.254 50.987C242.221 50.303 242.657 49.8631 243.299 49.756C244.055 49.6434 244.931 49.6393 245.691 49.6027C247.475 49.4787 249.261 49.3927 251.047 49.3067L253.364 49.195L256.67 49.0358C257.128 49.0519 257.582 48.9919 258.04 49.0079C258.689 49.0528 259.164 49.4108 259.197 50.0948Z" fill="#E1231D"/>
<path d="M301.294 54.8503C301.315 55.3824 301.026 55.7747 300.577 55.9829C299.343 56.527 297.372 56.7579 296.045 56.8869C296.251 59.201 296.383 61.5562 296.514 63.8733L296.521 64.0634C297.605 64.5151 300.135 65.899 300.19 67.2674C300.212 67.8376 299.703 68.429 299.095 68.4532C298.639 68.4714 298.286 68.219 298.041 67.8099C297.634 67.1409 296.816 66.6786 296.118 66.3637C295.459 68.9408 293.835 71.1756 290.984 71.2892C288.628 71.3831 285.506 69.4898 285.405 66.9431C285.285 63.9402 287.762 63.042 290.347 62.9389C291.677 62.8859 293.017 63.0609 294.285 63.353C294.23 61.9847 294.063 60.6588 293.971 59.2919L293.807 57.0903C293.086 57.1571 292.364 57.1859 291.642 57.2147C290.045 57.2784 288.411 57.3435 286.81 57.2931C286.162 57.2809 285.724 56.8034 285.698 56.1572C285.671 55.473 286.188 55.0717 286.834 55.0459C288.279 54.9884 289.766 55.0433 291.248 54.9842C292.046 54.9524 292.843 54.8826 293.641 54.8507C293.538 53.2178 293.435 51.5848 293.37 49.9504C292.492 49.9092 291.615 49.868 290.741 49.9029C289.981 49.9332 289.26 50 288.504 50.1443L288.352 50.1504C287.706 50.1761 287.229 49.6622 287.205 49.054C287.182 48.4838 287.583 48.049 288.111 47.9138C288.941 47.7284 289.891 47.6905 290.728 47.6572C291.602 47.6224 292.44 47.627 293.279 47.6697C293.241 46.7195 293.072 45.3556 294.403 45.3026C295.771 45.248 295.5 47.0482 295.535 47.9224C296.532 48.1111 297.606 48.2967 298.536 48.7165C298.924 48.8914 299.205 49.2609 299.223 49.717C299.248 50.3252 298.735 50.8406 298.127 50.8648C297.937 50.8724 297.823 50.8769 297.668 50.807C296.972 50.5302 296.356 50.3643 295.626 50.2031C295.685 51.6855 295.782 53.1664 295.879 54.6473C297.207 54.5183 298.529 54.2752 299.807 53.8435C299.919 53.801 300.033 53.7964 300.147 53.7919C300.755 53.7677 301.269 54.2421 301.294 54.8503ZM293.994 65.6108C292.84 65.3142 291.615 65.1346 290.436 65.1816C289.258 65.2286 287.587 65.3332 287.648 66.8537C287.696 68.07 289.831 69.089 290.895 69.0466C292.795 68.9708 293.64 67.224 293.994 65.6108Z" fill="#E1231D"/>
<path d="M340.222 69.9851C340.245 70.5933 339.731 71.1071 339.122 71.1295C339.008 71.1337 338.779 71.1041 338.663 71.0702C333.998 69.4528 333.383 62.0524 333.231 57.9087C333.102 54.4113 333.241 50.9421 333.457 47.5081L333.645 44.3417C333.663 43.8081 333.68 43.2364 333.737 42.7014C333.829 42.089 334.231 41.6554 334.84 41.6331C335.448 41.6107 336.038 42.1219 336.022 42.7316L336.026 42.8456C335.943 47.8354 335.366 52.8434 335.549 57.8234C335.657 60.7506 336.005 66.0671 338.253 68.1923C338.647 68.5584 338.995 68.6979 339.461 68.9472C339.889 69.1979 340.203 69.4529 340.222 69.9851Z" fill="#E1231D"/>
<path d="M392.745 53.0954C392.76 53.7039 392.278 54.2105 391.67 54.2256C391.518 54.2293 391.365 54.1951 391.211 54.1608C390.751 54.02 390.255 53.9561 389.761 53.9684C388.049 54.0107 386.199 54.5892 384.657 55.3122C384.507 55.3921 384.355 55.4339 384.165 55.4386C383.519 55.4545 382.974 54.9733 382.958 54.3268C382.947 53.8705 383.204 53.4836 383.579 53.2841C385.156 52.4079 387.88 51.7698 389.667 51.7256C390.656 51.7011 392.711 51.7264 392.745 53.0954ZM392.917 66.1813C392.933 66.8278 392.374 67.2983 391.765 67.3133C389.94 67.3585 385.621 66.5901 384.113 65.638C383.765 65.4182 383.568 65.1187 383.558 64.7384C383.542 64.0919 384.022 63.5093 384.669 63.4933C384.935 63.4867 385.089 63.559 385.282 63.6684C387.055 64.5758 389.803 64.9265 391.785 65.0297C392.47 65.0508 392.9 65.4968 392.917 66.1813ZM381.904 45.5627C381.917 46.0951 381.586 46.5219 381.095 46.6863C379.208 47.3037 377.007 47.5484 374.993 47.6743C372.89 51.8741 368.875 61.867 368.988 66.4306C369.004 67.0771 369.245 67.6038 369.255 68.0221C369.27 68.6306 368.713 69.1771 368.105 69.1922C366.85 69.2232 366.729 67.4377 366.707 66.525C366.586 61.6192 370.163 52.3981 372.445 47.7373C371.302 47.6895 370.085 47.7196 368.94 47.5576C368.328 47.4586 367.938 47.0497 367.923 46.4412C367.908 45.8327 368.35 45.251 368.997 45.2731L369.149 45.2693C370.635 45.3467 372.122 45.4621 373.605 45.4255C373.934 44.8466 374.259 44.1536 374.665 43.6488C374.887 43.377 375.187 43.2174 375.567 43.208C376.176 43.1929 376.72 43.6741 376.736 44.2826C376.745 44.6629 376.601 45.0089 376.341 45.2437C377.746 45.1328 379.07 44.8337 380.432 44.4956C380.545 44.4548 380.621 44.4529 380.735 44.4501C381.382 44.4341 381.888 44.9162 381.904 45.5627Z" fill="#E1231D"/>
<path d="M423.628 41.6024L423.629 41.7165C423.374 47.0068 423.16 52.7151 423.209 58.0406C423.214 58.6112 422.687 59.1867 422.078 59.1923C420.937 59.2028 420.889 58.1761 420.882 57.3392C420.849 53.8396 420.97 50.3766 421.052 46.8759C421.075 45.316 421.13 42.9568 421.344 41.4712C421.415 40.8999 421.868 40.4773 422.477 40.4717C423.161 40.4654 423.622 40.9557 423.628 41.6024ZM424.031 68.8752C424.037 69.5219 423.547 69.9829 422.9 69.9889C421.264 70.0039 421.345 66.4271 421.326 64.335C421.321 63.7263 421.848 63.1889 422.457 63.1833C424.397 63.1655 423.25 66.6379 423.951 68.4575C423.99 68.5713 424.03 68.7231 424.031 68.8752Z" fill="#E1231D"/>
<path d="M466.755 41.5829L466.754 41.6971C466.398 46.9815 466.076 52.6848 466.023 58.0103C466.018 58.5809 465.48 59.1462 464.871 59.1403C463.73 59.1291 463.702 58.1017 463.71 57.2648C463.744 53.7652 463.93 50.3051 464.079 46.8067C464.132 45.2474 464.231 42.8897 464.474 41.4084C464.556 40.8386 465.016 40.4246 465.625 40.4306C466.31 40.4373 466.761 40.9363 466.755 41.5829ZM466.64 68.8585C466.634 69.5052 466.135 69.9568 465.488 69.9505C463.852 69.9345 464.002 66.3599 464.022 64.2678C464.028 63.6591 464.566 63.1318 465.174 63.1378C467.114 63.1567 465.901 66.6068 466.568 68.4393C466.605 68.5538 466.642 68.7064 466.64 68.8585Z" fill="#E1231D"/>
</svg>
