<svg width="601" height="177" viewBox="0 0 601 177" fill="none" xmlns="http://www.w3.org/2000/svg">
<path d="M567.918 114.328C574.806 120.606 595.645 141.48 598.711 150.609C603.125 158.333 586.021 148.954 579.646 145.342C564.749 139.472 561.061 138.326 553.329 137.265C534.646 134.701 516.004 133.786 496.969 132.971C477.362 132.131 457.23 130.741 437.539 131.612C406.852 132.97 376.262 135.935 345.705 138.243C291.97 142.302 237.384 142.123 183.537 139.222C137.371 136.734 88.8434 132.775 45.9407 119.654C32.4985 115.543 16.1639 110.173 8.00928 101.065C-1.38312 90.5752 1.99078 79.1399 6.32001 67.801C17.3411 38.9351 57.2893 24.8104 97.0787 22.4702C125.223 20.8149 154.171 22.4352 182.309 23.3942C218.977 24.6439 255.398 27.3383 291.803 30.6232C351.913 36.0471 414.254 40.6042 470.095 58.4522C509.154 70.9363 541.757 90.4836 567.918 114.328Z" stroke="#E1231D" stroke-width="2.20686" stroke-linecap="round"/>
<path d="M65.5418 71.2443C65.7615 74.4736 60.6128 78.271 57.7198 78.4678C57.148 78.5067 56.6809 78.0992 56.642 77.5273C56.6054 76.9891 56.9479 76.5603 57.4816 76.4564C58.2148 76.3051 58.8761 76.0911 59.5306 75.7762C60.7722 75.151 63.6333 72.9963 63.5257 71.4152C63.496 70.9779 62.9754 70.7768 62.6612 70.6292C61.1284 69.9562 58.3204 69.9107 56.6675 69.9556C56.5007 70.9808 56.2298 72.9593 55.8184 73.866C55.6417 74.2497 55.3527 74.4721 54.949 74.4996C54.3772 74.5385 53.8788 74.1669 53.8376 73.5614C53.8284 73.4268 53.8529 73.29 53.911 73.1509C54.2483 72.1479 54.4128 71.0891 54.5796 70.0639C52.9672 70.2074 51.2494 70.2905 49.653 70.6694L49.6759 71.0058C49.9375 75.3475 50.8735 79.1702 53.285 82.8249C53.3974 82.9862 53.4425 83.1521 53.4539 83.3203C53.4928 83.8922 53.0853 84.3593 52.5471 84.3959C52.177 84.4211 51.8629 84.2735 51.6404 83.9844C49.0385 80.5117 47.9391 75.2807 47.6484 71.0086C45.4489 71.4624 41.2852 72.354 39.4884 73.7605C39.2957 73.9088 39.1321 73.9875 38.8966 74.0035C38.3248 74.0424 37.8577 73.6349 37.8211 73.0966C37.7982 72.7602 37.9145 72.482 38.1362 72.2641C39.7847 70.665 45.2756 69.4127 47.5447 68.988C47.5662 68.3106 47.5182 67.6042 47.5733 66.9246C47.604 66.3818 47.9825 65.9843 48.5207 65.9477C49.0925 65.9087 49.5619 66.3499 49.6008 66.9218C49.6374 67.46 49.5754 68.0387 49.5807 68.6129C49.7152 68.6037 49.8162 68.5969 49.9484 68.5541C51.3475 68.2561 53.4668 68.1119 54.9132 68.0135L55.0601 67.1924C55.1826 66.5082 55.1835 65.5281 56.1253 65.464C56.6636 65.4274 57.1665 65.8663 57.2032 66.4045C57.2352 66.8755 57.0387 67.4633 56.9698 67.9412C59.3314 67.8818 65.3152 67.914 65.5418 71.2443Z" fill="#E1231D"/>
<path d="M105.317 76.8257C105.308 77.3651 104.829 77.7955 104.29 77.7866C104.222 77.7854 104.121 77.7838 104.054 77.7489C102.778 77.4242 101.535 77.1675 100.223 76.9771C99.5504 78.888 97.8486 81.8609 95.4887 81.8216C93.1963 81.7835 90.8595 80.3621 90.9015 77.8337C90.9486 75.0019 94.9002 74.6292 96.9566 74.6634C97.5297 74.673 98.0686 74.7156 98.6411 74.7589C98.7203 74.052 98.7326 73.3104 98.7444 72.6024C98.7797 70.4786 98.7139 68.353 98.5801 66.2601C96.7923 66.2978 94.6999 66.3979 93.2643 67.5543C93.0593 67.7195 92.8216 67.8167 92.5519 67.8122C92.0125 67.8032 91.5484 67.3234 91.5574 66.784C91.5619 66.5143 91.6669 66.28 91.8725 66.0811C93.3811 64.5887 96.4545 64.3026 98.4446 64.2683C98.4182 63.8295 98.3249 63.3558 98.3322 62.9176C98.3412 62.3782 98.7873 61.9135 99.3604 61.923C100.507 61.9421 100.38 63.4912 100.434 64.3014C101.175 64.3474 101.916 64.3935 102.656 64.5069C103.16 64.5828 103.559 64.9603 103.55 65.4997C103.54 66.0728 103.095 66.5038 102.555 66.4948C101.915 66.4842 101.209 66.3713 100.569 66.3269C100.702 68.4535 100.768 70.5791 100.732 72.7029C100.719 73.4783 100.707 74.2537 100.626 75.0279C101.905 75.1841 103.283 75.4431 104.525 75.8009C104.995 75.9436 105.326 76.3201 105.317 76.8257ZM84.2896 82.0401C84.2835 82.4109 84.0756 82.7447 83.7351 82.9413C83.5306 83.0728 83.2935 83.1363 83.089 83.2678C82.4423 83.628 81.7259 84.1219 80.9506 84.109C78.5233 84.0686 78.4664 79.3804 78.4916 77.8634C78.5493 74.391 79.5779 67.293 80.9431 64.2807C81.1178 63.9127 81.4594 63.6486 81.8977 63.6559C82.4371 63.6649 82.8669 64.1779 82.8585 64.6835C82.8562 64.8184 82.8203 64.9527 82.7849 65.0532C81.4467 68.4706 80.5777 74.0876 80.516 77.7959C80.4997 78.7735 80.5262 81.2356 81.1196 82.0548C81.6966 81.8283 82.8226 81.0378 83.3283 81.0462C83.8676 81.0551 84.2986 81.5007 84.2896 82.0401ZM98.1698 76.7406C97.7658 76.7002 97.3281 76.6592 96.9236 76.6524C95.9796 76.6367 93.9547 76.7379 93.2018 77.3998C93.0647 77.5325 92.8939 77.6645 92.8905 77.8668C92.8675 79.249 94.3756 79.8136 95.5218 79.8326C96.6343 79.8511 97.8518 77.6121 98.1698 76.7406Z" fill="#E1231D"/>
<path d="M136.42 65.047L136.421 65.1819C136.136 70.2762 134.347 76.802 132.474 81.5753C132.244 82.2182 131.948 82.9968 131.583 83.5737C131.351 83.9132 131.117 84.0842 130.678 84.0886C130.139 84.0941 129.663 83.6943 129.657 83.1211C129.655 82.9526 129.721 82.7833 129.787 82.614C131.735 78.5818 132.964 73.3767 133.762 68.9853C133.922 68.0733 134.081 67.195 134.207 66.2833C134.269 65.8106 134.299 65.372 134.395 64.9327C134.491 64.4259 134.859 64.0513 135.398 64.0458C135.971 64.04 136.448 64.5072 136.42 65.047ZM127.833 62.8075C127.835 63.0098 127.769 63.179 127.669 63.3486C126.31 65.6215 125.405 69.4409 125.431 72.0706C125.435 72.4415 125.438 72.7786 125.509 73.1151C125.877 72.8079 126.344 72.2637 126.849 72.2586C127.422 72.2528 127.899 72.6863 127.905 73.2594C127.907 73.5291 127.776 73.8339 127.575 74.0046C126.973 74.5164 125.771 75.6413 124.995 75.6492C123.647 75.6628 123.451 72.9674 123.441 72.0233C123.414 69.3599 124.444 64.494 125.972 62.2531C126.172 61.9813 126.474 61.8097 126.811 61.8063C127.35 61.8008 127.827 62.2343 127.833 62.8075Z" fill="#E1231D"/>
<path d="M180.233 70.7811C180.211 71.6912 179.912 74.2808 178.631 74.2495C178.092 74.2363 177.632 73.7191 177.645 73.1798C177.649 73.0113 177.686 72.8773 177.757 72.7441C178.076 72.1111 178.194 71.4395 178.211 70.7316C178.229 69.9901 178.125 68.7396 177.632 68.188C177.435 67.9808 177.34 67.7423 177.347 67.439C177.36 66.8997 177.843 66.473 178.382 66.4862C179.899 66.5234 180.26 69.7025 180.233 70.7811ZM163.277 75.9648C163.269 76.3019 163.127 76.5683 162.853 76.7639C161.993 77.4511 159.68 78.2377 158.601 78.2113C157.152 78.1759 155.832 75.6141 155.284 74.5551C154.672 73.3934 153.041 69.7448 153.072 68.4976C153.085 67.9583 153.568 67.498 154.108 67.5112C154.613 67.5236 154.976 67.8697 155.099 68.3449C155.253 68.9557 155.407 69.5666 155.594 70.1782C156.067 71.5052 157.728 75.3232 158.786 76.1922C159.697 76.1471 160.892 75.5692 161.679 75.1163C161.884 74.9864 162.055 74.9231 162.29 74.9289C162.863 74.9429 163.29 75.4255 163.277 75.9648Z" fill="#E1231D"/>
<path d="M212.916 66.0115C212.89 66.5841 212.431 67.0018 211.859 66.9755C211.623 66.9646 211.39 66.8864 211.196 66.7087C210.233 66.3606 207.606 66.2397 206.528 66.1901C205.99 66.1653 205.449 66.1741 204.91 66.1493C204.436 68.3889 203.695 70.5487 203.187 72.7867L203.254 72.7898C203.524 72.8022 203.83 72.7488 204.1 72.7612C204.776 72.7249 205.451 72.7222 206.125 72.7532C208.314 72.854 211.22 73.5277 211.091 76.3233C210.952 79.3545 207.839 82.4515 205.727 84.3456C205.094 84.8903 204.424 85.5008 203.76 86.0102C203.585 86.1372 203.277 86.2243 203.075 86.215C202.536 86.1902 202.048 85.7964 202.075 85.2239C202.089 84.9207 202.269 84.659 202.481 84.4663C204.556 82.6379 208.937 79.1268 209.07 76.2302C209.131 74.9167 206.975 74.8175 206.066 74.7756C204.82 74.7182 203.529 74.8951 202.316 74.8393C201.373 74.7959 201.026 74.2736 201.066 73.3979C201.136 71.8823 202.866 66.5615 202.817 66.1543C201.972 66.1829 201.093 66.2099 200.274 66.4085C200.172 66.4375 200.069 66.4665 199.934 66.4603C199.362 66.434 198.979 65.9438 199.006 65.3713C199.026 64.9334 199.277 64.6074 199.723 64.4592C200.612 64.1964 202.437 64.1454 203.382 64.1551C203.588 63.3545 203.867 61.6798 204.945 61.7294C205.517 61.7557 205.934 62.2474 205.909 62.7863C205.892 63.1568 205.593 63.7843 205.475 64.1502C207.125 64.2261 208.777 64.2684 210.386 64.5113C211.158 64.6143 212.569 64.7467 212.864 65.6716C212.893 65.7742 212.921 65.9105 212.916 66.0115Z" fill="#E1231D"/>
<path d="M256.845 63.9444C256.814 64.5167 256.353 64.9306 255.78 64.8995C255.275 64.8721 254.927 64.448 254.852 63.9711C254.776 63.4943 254.343 62.1539 254.357 61.8845C254.387 61.3458 254.85 60.8983 255.388 60.9276C255.759 60.9477 256.084 61.168 256.268 61.5156C256.482 61.9324 256.871 63.4731 256.845 63.9444ZM252.623 65.8422C252.595 66.3472 252.096 66.8266 251.558 66.7974C251.053 66.7699 250.667 66.4113 250.592 65.9345C250.516 65.4576 250.375 64.9435 250.197 64.4949C250.137 64.3565 250.111 64.22 250.118 64.0854C250.149 63.513 250.646 63.0673 251.185 63.0966C251.589 63.1185 251.946 63.3743 252.095 63.7538C252.243 64.1333 252.645 65.4382 252.623 65.8422ZM249.285 72.583C249.256 73.1216 248.759 73.5674 248.22 73.5381C247.648 73.507 247.234 73.0456 247.265 72.4732C247.329 71.2949 242.075 69.7938 241.275 69.6153C240.242 69.3565 239.172 69.1633 238.138 68.9383C237.636 68.8435 237.288 68.4194 237.315 67.9144C237.346 67.3421 237.843 66.8963 238.38 66.9593L238.515 66.9666C241.098 67.2758 249.479 69.0143 249.285 72.583ZM249.725 83.7498C249.696 84.2884 249.343 84.5732 248.864 84.6822C247.325 85.0376 245.466 85.0716 243.884 84.9856C240.551 84.8045 237.058 83.8381 234.215 82.0966C233.657 81.7962 233.069 81.4266 232.62 80.997C232.362 80.7803 232.242 80.5037 232.26 80.167C232.289 79.6283 232.752 79.1808 233.325 79.2119C233.56 79.2247 233.725 79.3012 233.92 79.4468C234.375 79.7754 234.828 80.1377 235.318 80.4345C237.867 81.9912 240.962 82.8347 243.924 82.9956C245.473 83.0798 246.999 82.9601 248.532 82.7057C248.602 82.6757 248.703 82.6812 248.77 82.6849C249.342 82.716 249.754 83.2111 249.725 83.7498Z" fill="#E1231D"/>
<path d="M285.36 68.3713C285.354 68.4723 285.349 68.5733 285.309 68.6723C285.104 69.3022 285.03 70.0072 284.926 70.6429C284.684 71.9123 284.51 73.1857 284.335 74.459C283.867 77.9106 283.399 81.3623 283.2 84.8294C283.167 85.4016 283.203 85.9441 283.172 86.4826C283.141 87.0212 282.677 87.4674 282.138 87.4364C281.599 87.4055 281.25 87.014 281.178 86.5033C281.082 85.8223 281.2 84.951 281.239 84.2778C277.941 82.2985 272.79 73.7961 270.387 70.3486C269.872 72.8519 269.456 75.3947 269.107 77.9413C268.824 79.9177 268.542 81.894 268.426 83.9137C268.397 84.4186 268.329 85.0226 268.434 85.5352C268.658 85.7507 268.776 86.0614 268.758 86.3644C268.727 86.9029 268.229 87.3471 267.691 87.3162C266.075 87.2235 266.356 84.6729 266.412 83.6968C266.542 81.4415 266.873 79.1978 267.205 76.9541C267.589 74.3757 268.041 71.8011 268.558 69.2642C268.652 68.7968 268.725 68.1255 268.918 67.6975C269.147 67.2379 269.432 66.984 269.937 67.013C270.206 67.0285 270.404 67.1074 270.597 67.2873C271.241 67.8309 273.13 70.81 273.66 71.5834C275.12 73.7948 276.614 76.0083 278.215 78.1265C279.187 79.4319 280.222 80.8084 281.441 81.9254C281.615 80.0779 282.857 69.0381 283.427 67.9226C283.652 67.5303 283.939 67.2428 284.444 67.2718C284.983 67.3027 285.393 67.7991 285.36 68.3713Z" fill="#E1231D"/>
<path d="M315.796 80.2424C315.518 84.245 312.139 89.5868 307.631 89.2735C304.335 89.0443 302.91 85.2275 303.109 82.3685C303.191 81.1913 303.692 76.9 305.34 77.0145C305.441 77.0215 305.508 77.0262 305.607 77.0669C306.362 74.9563 308.108 73.6582 310.362 73.8148C313.894 74.0603 316.039 76.7443 315.796 80.2424ZM313.778 80.1021C313.939 77.7813 312.643 76.0013 310.222 75.8329C308.607 75.7207 307.473 76.96 307.366 78.5072C307.333 78.9781 307.507 79.3958 307.479 79.7994C307.441 80.3376 306.969 80.8117 306.431 80.7743C305.994 80.7439 305.645 80.4155 305.502 80.0338C305.309 80.8653 305.186 81.6679 305.127 82.5088C305.01 84.1906 305.72 87.1127 307.772 87.2553C311.001 87.4798 313.584 82.8938 313.778 80.1021Z" fill="#E1231D"/>
<path d="M343.928 72.8805C343.919 72.9813 343.91 73.0821 343.868 73.18C342.208 77.5731 340.548 81.9661 339.185 86.4521C338.664 88.2012 337.994 90.1068 337.873 91.9238L337.865 92.0246C337.816 92.5957 337.342 92.9952 336.771 92.9466C336.066 92.8865 335.809 92.3233 335.86 91.7186C336.035 89.6693 336.719 87.5957 337.288 85.6815C338.451 81.9568 339.743 78.3107 341.133 74.7067C340.334 74.9433 336.978 75.8081 336.239 75.7451C335.668 75.6965 335.235 75.2197 335.284 74.6486C335.324 74.1783 335.657 73.8345 336.139 73.7401L337.24 73.5293C338.853 73.2606 340.954 72.8304 342.344 72.0013C342.594 71.8533 342.77 71.7669 343.039 71.7897C343.61 71.8384 343.973 72.343 343.928 72.8805Z" fill="#E1231D"/>
<path d="M391.738 74.3106C391.682 74.8472 391.201 75.2377 390.631 75.1782C390.362 75.1502 390.074 74.9846 389.894 74.7624C389.597 74.3586 388.572 72.4889 388.624 71.9859C388.68 71.4493 389.165 71.0253 389.735 71.0847C390.104 71.1232 390.385 71.3559 390.555 71.6787C390.861 72.3208 391.163 72.9964 391.543 73.5784C391.69 73.7971 391.766 74.0424 391.738 74.3106ZM387.825 76.0722C387.766 76.6423 387.284 77.0327 386.714 76.9733C386.48 76.9488 386.252 76.8573 386.068 76.6686C385.15 75.7253 384.849 74.7108 384.985 73.403C385.041 72.8664 385.559 72.4459 386.096 72.5019C386.666 72.5613 387.056 73.0427 386.997 73.6128C386.836 75.1554 387.927 75.0997 387.825 76.0722ZM382.563 78.7439C382.511 79.2469 382.215 79.4872 381.758 79.6429C381.126 79.8483 380.599 80.0306 380.024 80.3435C376.997 82.0618 373.039 86.5306 372.669 90.0853C372.459 92.0974 372.738 94.296 374.171 95.8353C374.505 96.2092 374.856 96.4153 375.23 96.7255C375.541 96.9953 375.755 97.2209 375.71 97.6569C375.654 98.1935 375.139 98.5804 374.602 98.5245C374.434 98.507 374.304 98.4595 374.143 98.3749C371.134 96.6713 370.321 93.0948 370.656 89.8754C371.076 85.8513 374.752 81.4886 377.968 79.2478C374.816 78.919 371.687 78.6944 368.535 78.3656C367.998 78.3097 367.541 77.8213 367.596 77.2847C367.659 76.6811 368.1 76.3542 368.677 76.3466C369.426 76.3229 370.257 76.4774 370.995 76.5543C372.474 76.6747 373.949 76.8286 375.458 76.9859L377.638 77.2133L380.388 77.5C380.82 77.579 381.297 77.5609 381.692 77.67C382.222 77.793 382.623 78.1738 382.563 78.7439Z" fill="#E1231D"/>
<path d="M434.842 81.734C434.775 82.2692 434.285 82.6496 433.75 82.5825L433.583 82.5615C430.472 81.6277 427.294 80.9573 424.061 80.45L423.94 81.4202C423.805 82.4907 423.638 83.5571 423.403 84.615C425.213 86.1673 425.957 88.6392 425.663 90.981C425.051 95.8654 422.016 102.179 418.071 105.184C417.845 105.36 417.599 105.431 417.331 105.397C416.796 105.33 416.386 104.803 416.453 104.268C416.487 104 416.616 103.779 416.842 103.603C417.495 103.005 418.143 102.441 418.737 101.768C421.198 98.9502 423.219 94.4804 423.689 90.7335C423.853 89.4287 423.552 88.0318 422.804 86.9526C421.74 90.557 419.044 97.6947 414.227 97.0906C411.183 96.7088 410.515 93.6348 410.838 91.0588C411.324 87.178 415.124 82.3535 419.406 82.8905C420.142 82.9828 420.899 83.1796 421.576 83.4684C421.71 82.6697 421.848 81.8376 421.949 81.0346L422.058 80.1648L421.021 80.0348C415.907 79.3594 410.178 78.9808 405.029 79.6604C404.925 79.6813 404.891 79.6771 404.791 79.6645C404.256 79.5974 403.846 79.0703 403.913 78.535C403.972 78.0667 404.315 77.7699 404.766 77.6906C405.812 77.4819 406.97 77.4573 408.029 77.4201C412.575 77.2086 417.158 77.5115 421.641 78.0736L422.176 78.1408C422.189 77.4967 422.03 76.3215 422.089 75.8532C422.156 75.3179 422.683 74.9083 423.252 74.9796C423.754 75.0425 424.017 75.3814 424.092 75.8665C424.23 76.6653 424.179 77.6104 424.179 78.4259C426.508 78.82 428.829 79.2809 431.138 79.8422C432.129 80.0684 433.22 80.3072 434.161 80.6631C434.617 80.8222 434.905 81.2321 434.842 81.734ZM421.119 85.484C420.513 85.1701 419.823 84.9816 419.154 84.8977C416.009 84.5034 413.189 88.5672 412.845 91.3105C412.673 92.6821 412.706 94.861 414.479 95.0833C418.025 95.528 420.458 88.0515 421.119 85.484Z" fill="#E1231D"/>
<path d="M464.85 84.2174L464.836 84.3177C463.932 88.9241 463.01 93.9025 462.369 98.579C462.3 99.0801 461.764 99.517 461.229 99.4436C460.227 99.3061 460.317 98.3996 460.418 97.6647C460.84 94.5916 461.391 91.5702 461.913 88.5109C462.134 87.1459 462.485 85.084 462.864 83.8088C463 83.3169 463.451 83.0045 463.985 83.0778C464.587 83.1603 464.928 83.6496 464.85 84.2174ZM461.697 108.186C461.619 108.754 461.13 109.095 460.562 109.017C459.126 108.82 459.657 105.694 459.909 103.857C459.982 103.322 460.514 102.919 461.048 102.992C462.752 103.226 461.299 106.124 461.681 107.81C461.7 107.914 461.715 108.053 461.697 108.186Z" fill="#E1231D"/>
<path d="M502.914 89.6844L502.899 89.7844C501.931 94.3779 500.94 99.3431 500.234 104.01C500.158 104.51 499.616 104.94 499.082 104.859C498.082 104.708 498.185 103.802 498.296 103.069C498.76 100.002 499.353 96.9886 499.917 93.9367C500.158 92.5749 500.537 90.5181 500.934 89.2483C501.076 88.7583 501.532 88.4522 502.065 88.5329C502.665 88.6237 503 89.1177 502.914 89.6844ZM499.429 113.607C499.343 114.174 498.85 114.508 498.283 114.422C496.849 114.206 497.424 111.087 497.701 109.253C497.782 108.72 498.319 108.324 498.853 108.405C500.553 108.662 499.06 111.539 499.418 113.23C499.436 113.335 499.449 113.474 499.429 113.607Z" fill="#E1231D"/>
</svg>
