<svg width="267" height="83" viewBox="0 0 267 83" fill="none" xmlns="http://www.w3.org/2000/svg">
<path d="M252.022 56.7755C255.078 60.4903 264.321 72.842 265.681 78.2439C267.639 82.8143 260.053 77.2645 257.224 75.1273C250.617 71.6538 248.981 70.9759 245.551 70.3479C237.264 68.8307 228.995 68.2896 220.552 67.8071C211.855 67.3102 202.925 66.4876 194.19 67.0031C180.579 67.8064 167.01 69.561 153.456 70.9268C129.621 73.3286 105.409 73.2224 81.524 71.5058C61.0461 70.034 39.5209 67.6913 20.4906 59.9274C14.5282 57.4948 7.28265 54.3171 3.66553 48.9279C-0.500641 42.7207 0.995941 35.9541 2.91623 29.2447C7.80484 12.1641 25.5245 3.80627 43.1738 2.42153C55.6579 1.44204 68.4981 2.40081 80.979 2.96828C97.2436 3.70778 113.399 5.30209 129.547 7.24584C156.21 10.4552 183.862 13.1518 208.631 23.7128C225.957 31.0999 240.418 42.6665 252.022 56.7755Z" stroke="#E1231D" stroke-width="1.18531" stroke-linecap="round"/>
<path d="M38.7342 30.5166C38.7923 32.0906 36.2306 33.8598 34.8206 33.9119C34.5418 33.9222 34.3208 33.7169 34.3105 33.4382C34.3009 33.1758 34.474 32.9724 34.7351 32.9299C35.094 32.8674 35.4189 32.7733 35.742 32.6301C36.3553 32.3447 37.7795 31.3399 37.7511 30.5693C37.7432 30.3562 37.493 30.2505 37.3424 30.1739C36.6071 29.8234 35.242 29.7589 34.4373 29.7557C34.3407 30.2519 34.1791 31.2101 33.9653 31.6449C33.8735 31.8289 33.7296 31.9327 33.5328 31.9399C33.2541 31.9502 33.0173 31.7619 33.0064 31.4668C33.004 31.4012 33.018 31.335 33.0483 31.2682C33.2275 30.7855 33.3236 30.273 33.4202 29.7769C32.6338 29.8223 31.797 29.8368 31.0148 29.997L31.0208 30.1609C31.0825 32.2766 31.48 34.1501 32.5977 35.9641C32.6499 36.0443 32.6694 36.1257 32.6724 36.2076C32.6827 36.4864 32.4774 36.7074 32.2151 36.7171C32.0347 36.7237 31.8841 36.6472 31.7803 36.5033C30.5672 34.7748 30.1115 32.214 30.0347 30.1317C28.958 30.3192 26.9193 30.6899 26.0242 31.3469C25.9282 31.4161 25.8474 31.4519 25.7327 31.4561C25.4539 31.4664 25.2329 31.2611 25.2232 30.9988C25.2172 30.8348 25.2779 30.7012 25.3891 30.5986C26.215 29.8457 28.9047 29.3196 30.0148 29.1473C30.0354 28.8182 30.0227 28.4738 30.0598 28.1441C30.0829 27.8806 30.273 27.6929 30.5354 27.6833C30.8141 27.673 31.0357 27.8946 31.046 28.1734C31.0557 28.4357 31.0168 28.7163 31.0107 28.9956C31.0763 28.9932 31.1255 28.9914 31.1904 28.9726C31.8754 28.8488 32.9084 28.8106 33.6134 28.7846L33.6973 28.3875C33.7672 28.0565 33.7824 27.5798 34.2415 27.5629C34.5038 27.5532 34.7418 27.7743 34.7515 28.0366C34.76 28.2662 34.6555 28.5492 34.6148 28.7805C35.7643 28.7873 38.6743 28.8934 38.7342 30.5166Z" fill="#E1231D"/>
<path d="M54.7698 33.8349C54.7573 34.0972 54.5177 34.2993 54.2554 34.2868C54.2227 34.2852 54.1735 34.2828 54.1415 34.2649C53.5258 34.0877 52.9249 33.944 52.2896 33.8316C51.9337 34.7509 51.061 36.1712 49.9138 36.1164C48.7994 36.0632 47.6843 35.3366 47.7429 34.1074C47.8086 32.7308 49.7362 32.6092 50.7359 32.6569C51.0145 32.6702 51.276 32.6991 51.5538 32.7288C51.603 32.3862 51.6202 32.0257 51.6366 31.6815C51.6859 30.649 51.686 29.6142 51.6525 28.5942C50.7824 28.5855 49.7631 28.6026 49.0474 29.1433C48.9452 29.2206 48.8281 29.2643 48.697 29.258C48.4348 29.2455 48.2163 29.0051 48.2288 28.7429C48.2351 28.6118 48.2897 28.4994 48.3927 28.4058C49.149 27.7027 50.6482 27.61 51.6167 27.6233C51.6105 27.4095 51.5723 27.1777 51.5824 26.9647C51.5949 26.7024 51.8189 26.4832 52.0976 26.4965C52.6548 26.5231 52.5696 27.2746 52.5836 27.6695C52.9434 27.7031 53.3032 27.7367 53.6614 27.803C53.9056 27.8475 54.0937 28.0372 54.0812 28.2994C54.0679 28.578 53.8447 28.7809 53.5825 28.7684C53.2711 28.7535 52.9293 28.6879 52.6187 28.6567C52.6513 29.6931 52.6512 30.7279 52.602 31.7604C52.584 32.1373 52.566 32.5143 52.5152 32.8897C53.1349 32.9849 53.8013 33.1317 54.3999 33.3245C54.6262 33.401 54.7815 33.5891 54.7698 33.8349ZM44.4634 36.0535C44.4548 36.2337 44.3487 36.3929 44.1801 36.4834C44.0786 36.5443 43.9623 36.5716 43.8609 36.6325C43.5409 36.7979 43.185 37.0273 42.8081 37.0093C41.6281 36.953 41.6712 34.6719 41.7064 33.9344C41.787 32.2464 42.3945 28.8095 43.104 27.365C43.1945 27.1886 43.3647 27.0653 43.5777 27.0755C43.8399 27.088 44.0413 27.344 44.0295 27.5898C44.0264 27.6554 44.0069 27.7202 43.9882 27.7686C43.2856 29.4105 42.7781 32.1294 42.6921 33.9321C42.6694 34.4074 42.6451 35.6053 42.9213 36.0127C43.2054 35.9113 43.765 35.5438 44.0108 35.5555C44.273 35.568 44.4759 35.7912 44.4634 36.0535ZM51.2946 33.6856C51.0987 33.6598 50.8865 33.6332 50.6898 33.6238C50.2309 33.602 49.2445 33.6206 48.8683 33.9312C48.7996 33.9936 48.7145 34.0552 48.7098 34.1536C48.6778 34.8255 49.4027 35.1229 49.96 35.1495C50.5008 35.1753 51.1268 34.1046 51.2946 33.6856Z" fill="#E1231D"/>
<path d="M66.8531 28.5739L66.8517 28.6395C66.6358 31.113 65.6674 34.26 64.684 36.5534C64.5627 36.8627 64.4071 37.2368 64.2209 37.5119C64.1026 37.6736 63.9861 37.7532 63.7728 37.7487C63.5103 37.7432 63.2848 37.5416 63.2906 37.2627C63.2924 37.1807 63.3269 37.0994 63.3614 37.018C64.3701 35.0863 65.0463 32.5731 65.501 30.4492C65.5922 30.0081 65.6832 29.5833 65.7581 29.1417C65.7957 28.9128 65.8165 28.6999 65.8702 28.4877C65.9246 28.2426 66.1088 28.066 66.3713 28.0715C66.6501 28.0773 66.875 28.3118 66.8531 28.5739ZM62.7102 27.3548C62.7082 27.4533 62.6736 27.5346 62.6227 27.6156C61.9272 28.7006 61.4291 30.5446 61.4023 31.8241C61.3985 32.0045 61.3951 32.1685 61.4245 32.3333C61.608 32.1894 61.8432 31.9317 62.0892 31.9369C62.3681 31.9427 62.5933 32.1608 62.5874 32.4396C62.5847 32.5709 62.516 32.7171 62.4158 32.7971C62.1154 33.037 61.5136 33.5659 61.1363 33.558C60.4801 33.5443 60.4256 32.2303 60.4352 31.771C60.4623 30.4751 61.0366 28.124 61.8138 27.0571C61.915 26.9279 62.0644 26.849 62.2284 26.8524C62.4909 26.8579 62.716 27.076 62.7102 27.3548Z" fill="#E1231D"/>
<path d="M85.4256 32.0267C85.4011 32.469 85.2163 33.7241 84.5938 33.6895C84.3317 33.6749 84.116 33.4164 84.1305 33.1543C84.1351 33.0724 84.1551 33.0078 84.1915 32.9441C84.3563 32.641 84.4236 32.3161 84.4427 31.9721C84.4628 31.6117 84.4309 31.0019 84.1997 30.7261C84.1069 30.6224 84.0641 30.505 84.0723 30.3576C84.0869 30.0954 84.3281 29.8952 84.5902 29.9098C85.3274 29.9508 85.4548 31.5025 85.4256 32.0267ZM77.0999 34.2919C77.0908 34.4557 77.018 34.5831 76.8815 34.6741C76.4528 34.9954 75.3161 35.343 74.7919 35.3139C74.0874 35.2747 73.4841 34.0088 73.2338 33.4854C72.9535 32.9112 72.2154 31.1119 72.2491 30.5057C72.2637 30.2436 72.5057 30.027 72.7679 30.0416C73.0136 30.0552 73.1847 30.2291 73.2375 30.4621C73.303 30.7615 73.3685 31.0609 73.4504 31.3612C73.6606 32.0138 74.4106 33.8959 74.912 34.3346C75.3561 34.3264 75.9459 34.0634 76.3354 33.855C76.4374 33.7949 76.5211 33.7667 76.6358 33.7731C76.9143 33.7886 77.1145 34.0297 77.0999 34.2919Z" fill="#E1231D"/>
<path d="M98.2958 30.1944C98.2744 30.4725 98.0453 30.6687 97.7672 30.6473C97.6527 30.6384 97.5407 30.5969 97.4489 30.5075C96.9858 30.3237 95.7099 30.2252 95.1864 30.1847C94.9247 30.1645 94.6617 30.1607 94.3999 30.1405C94.1354 31.2226 93.7425 32.2619 93.4615 33.3428L93.4943 33.3453C93.6251 33.3554 93.7749 33.3341 93.9057 33.3442C94.2354 33.3367 94.5639 33.3456 94.8911 33.3709C95.9544 33.453 97.3573 33.8246 97.2525 35.1823C97.1389 36.6546 95.5781 38.1139 94.522 39.0033C94.2061 39.2586 93.8713 39.5455 93.5403 39.7832C93.4535 39.8423 93.3024 39.88 93.2043 39.8725C92.9425 39.8522 92.7111 39.6534 92.7325 39.3753C92.7439 39.228 92.8358 39.1035 92.9415 39.0129C93.9787 38.155 96.1624 36.5134 96.271 35.1066C96.3203 34.4686 95.2733 34.3878 94.8316 34.3537C94.2264 34.3069 93.5959 34.3734 93.007 34.328C92.549 34.2926 92.388 34.0333 92.4208 33.608C92.4776 32.8719 93.3995 30.3101 93.3819 30.1113C92.9704 30.1124 92.5426 30.1123 92.1411 30.1965C92.0908 30.2091 92.0404 30.2216 91.975 30.2166C91.6969 30.1951 91.5183 29.9509 91.5398 29.6728C91.5562 29.4602 91.6833 29.3054 91.9023 29.2401C92.339 29.1257 93.2274 29.1284 93.6867 29.1474C93.7988 28.7611 93.9601 27.9508 94.4836 27.9912C94.7617 28.0127 94.9566 28.2581 94.9364 28.5198C94.9225 28.6998 94.7677 29.0005 94.7047 29.1766C95.5063 29.2385 96.3091 29.2841 97.088 29.4265C97.4617 29.4882 98.1463 29.574 98.2758 30.0283C98.2883 30.0786 98.2996 30.1453 98.2958 30.1944Z" fill="#E1231D"/>
<path d="M116.434 29.8515C116.41 30.1294 116.18 30.3238 115.902 30.3C115.657 30.279 115.494 30.0675 115.464 29.8344C115.435 29.6014 115.244 28.9428 115.255 28.812C115.277 28.5505 115.51 28.3398 115.771 28.3622C115.951 28.3776 116.106 28.4896 116.19 28.6615C116.288 28.8674 116.454 29.6227 116.434 29.8515ZM114.352 30.7108C114.331 30.956 114.081 31.1817 113.819 31.1593C113.574 31.1383 113.392 30.9581 113.362 30.725C113.333 30.4919 113.272 30.2397 113.192 30.0188C113.165 29.9506 113.154 29.8839 113.16 29.8185C113.184 29.5406 113.432 29.3313 113.694 29.3536C113.89 29.3704 114.06 29.5002 114.126 29.6871C114.193 29.8739 114.368 30.5147 114.352 30.7108ZM112.626 33.939C112.604 34.2006 112.356 34.4099 112.094 34.3875C111.816 34.3637 111.622 34.133 111.646 33.8551C111.695 33.2829 109.162 32.4735 108.775 32.3745C108.277 32.2331 107.759 32.123 107.259 31.9979C107.017 31.9442 106.854 31.7327 106.875 31.4874C106.899 31.2095 107.147 31.0002 107.407 31.039L107.473 31.0446C108.725 31.234 112.775 32.2062 112.626 33.939ZM112.672 39.3771C112.649 39.6386 112.473 39.7718 112.239 39.8176C111.485 39.9672 110.58 39.9556 109.812 39.8899C108.194 39.7515 106.509 39.2287 105.153 38.3387C104.886 38.1841 104.606 37.9955 104.394 37.7797C104.271 37.6704 104.217 37.5341 104.231 37.3706C104.253 37.109 104.486 36.8983 104.763 36.9221C104.878 36.9319 104.957 36.9716 105.049 37.0454C105.266 37.2121 105.48 37.3951 105.714 37.5469C106.931 38.3426 108.423 38.7996 109.862 38.9226C110.614 38.9869 111.358 38.9518 112.107 38.8512C112.142 38.8377 112.191 38.8419 112.223 38.8447C112.501 38.8684 112.694 39.1155 112.672 39.3771Z" fill="#E1231D"/>
<path d="M127.371 32.4428C127.366 32.4919 127.362 32.5409 127.341 32.5885C127.232 32.8918 127.185 33.2335 127.125 33.5411C126.988 34.1549 126.884 34.7716 126.78 35.3883C126.5 37.0601 126.22 38.7319 126.071 40.4152C126.047 40.693 126.056 40.9574 126.033 41.2189C126.01 41.4804 125.777 41.6904 125.515 41.6672C125.254 41.644 125.09 41.4483 125.063 41.1988C125.026 40.8662 125.097 40.4441 125.126 40.1173C123.552 39.1048 121.175 34.8915 120.058 33.1783C119.77 34.3881 119.529 35.6186 119.321 36.852C119.154 37.809 118.986 38.766 118.899 39.7466C118.878 39.9918 118.835 40.2845 118.879 40.5355C118.985 40.6437 119.037 40.7965 119.024 40.9436C119.001 41.2051 118.752 41.4136 118.49 41.3905C117.706 41.3209 117.881 40.0846 117.923 39.6107C118.02 38.5157 118.215 37.4294 118.41 36.3431C118.636 35.0948 118.895 33.8494 119.185 32.6233C119.238 32.3974 119.283 32.0719 119.384 31.8667C119.502 31.6466 119.644 31.5275 119.889 31.5492C120.02 31.5608 120.115 31.6022 120.206 31.6926C120.511 31.9667 121.385 33.4442 121.631 33.8284C122.308 34.9261 123.001 36.0252 123.748 37.0797C124.201 37.7293 124.684 38.4145 125.26 38.9762C125.372 38.0802 126.143 32.7293 126.437 32.1954C126.553 32.008 126.697 31.8725 126.942 31.8942C127.203 31.9174 127.395 32.165 127.371 32.4428Z" fill="#E1231D"/>
<path d="M139.445 38.6678C139.249 40.6104 137.525 43.1575 135.337 42.937C133.737 42.7758 133.102 40.8978 133.242 39.5102C133.3 38.9389 133.608 36.8592 134.408 36.9398C134.457 36.9447 134.49 36.948 134.537 36.9693C134.936 35.9541 135.805 35.3491 136.899 35.4594C138.613 35.6321 139.616 36.97 139.445 38.6678ZM138.465 38.569C138.579 37.4426 137.976 36.5573 136.8 36.4388C136.017 36.3599 135.446 36.9455 135.371 37.6965C135.348 37.925 135.426 38.1308 135.406 38.3267C135.38 38.5878 135.143 38.8113 134.882 38.785C134.669 38.7636 134.505 38.5986 134.441 38.4108C134.335 38.8123 134.263 39.2008 134.221 39.6089C134.139 40.4252 134.44 41.8572 135.436 41.9575C137.003 42.1155 138.329 39.924 138.465 38.569Z" fill="#E1231D"/>
<path d="M150.722 35.5126C150.716 35.5615 150.711 35.6104 150.689 35.6574C149.815 37.7691 148.941 39.8807 148.21 42.042C147.931 42.8849 147.576 43.8016 147.49 44.6836L147.484 44.7325C147.452 45.0095 147.215 45.1967 146.938 45.1644C146.596 45.1245 146.48 44.8467 146.514 44.5533C146.63 43.5592 146.994 42.561 147.299 41.6386C147.921 39.8445 148.605 38.0906 149.335 36.3587C148.943 36.4617 147.298 36.8316 146.939 36.7898C146.662 36.7575 146.459 36.5191 146.491 36.242C146.518 36.0139 146.685 35.8517 146.921 35.8131L147.46 35.7272C148.248 35.6209 149.277 35.4433 149.965 35.0611C150.089 34.9929 150.176 34.9535 150.306 34.9687C150.584 35.001 150.752 35.2519 150.722 35.5126Z" fill="#E1231D"/>
<path d="M170.717 36.9342C170.682 37.1944 170.442 37.377 170.165 37.3395C170.035 37.3218 169.898 37.2369 169.813 37.1261C169.675 36.9252 169.205 36.0003 169.238 35.7565C169.273 35.4963 169.515 35.2974 169.792 35.335C169.971 35.3592 170.104 35.4767 170.181 35.6362C170.32 35.9532 170.457 36.2863 170.633 36.5752C170.701 36.6838 170.735 36.8042 170.717 36.9342ZM168.787 37.7319C168.75 38.0083 168.51 38.191 168.233 38.1534C168.12 38.138 168.01 38.09 167.924 37.9955C167.491 37.5228 167.36 37.0248 167.446 36.3908C167.482 36.1306 167.74 35.9339 168 35.9692C168.277 36.0068 168.459 36.2468 168.422 36.5232C168.32 37.2711 168.851 37.2604 168.787 37.7319ZM166.188 38.9519C166.155 39.1958 166.007 39.3082 165.782 39.377C165.472 39.4674 165.213 39.5481 164.928 39.6916C163.43 40.4816 161.438 42.5954 161.204 44.3187C161.071 45.2942 161.174 46.3679 161.847 47.1382C162.004 47.3251 162.172 47.4306 162.349 47.5872C162.497 47.7231 162.597 47.8361 162.568 48.0474C162.533 48.3076 162.277 48.488 162.017 48.4527C161.935 48.4417 161.873 48.4166 161.796 48.373C160.358 47.4989 160.016 45.7471 160.228 44.1863C160.493 42.2353 162.347 40.1689 163.945 39.1276C162.417 38.9201 160.898 38.7635 159.37 38.556C159.11 38.5207 158.895 38.2762 158.93 38.0161C158.97 37.7234 159.189 37.5711 159.47 37.5761C159.834 37.5759 160.236 37.6636 160.594 37.7122C161.312 37.7931 162.027 37.8902 162.759 37.9895L163.815 38.133L165.148 38.3141C165.358 38.359 165.59 38.3574 165.78 38.4164C166.036 38.4843 166.225 38.6755 166.188 38.9519Z" fill="#E1231D"/>
<path d="M188.82 41.1897C188.779 41.449 188.536 41.6266 188.276 41.5859L188.195 41.5732C186.696 41.072 185.161 40.6979 183.596 40.4023L183.522 40.8723C183.441 41.391 183.343 41.9071 183.213 42.4182C184.07 43.2005 184.394 44.414 184.216 45.5486C183.844 47.9151 182.273 50.9401 180.309 52.3423C180.196 52.4243 180.075 52.4551 179.945 52.4347C179.686 52.394 179.495 52.1314 179.536 51.8721C179.556 51.7424 179.622 51.6366 179.735 51.5546C180.061 51.2737 180.385 51.009 180.684 50.6906C181.924 49.3573 182.974 47.2138 183.26 45.3984C183.359 44.7663 183.234 44.0823 182.886 43.5461C182.314 45.2832 180.895 48.7141 178.561 48.3475C177.086 48.1158 176.808 46.6106 177.004 45.3625C177.299 43.4823 179.22 41.1931 181.295 41.519C181.651 41.575 182.016 41.6822 182.342 41.8329C182.419 41.4464 182.499 41.0438 182.56 40.6548L182.626 40.2333L182.124 40.1544C179.646 39.7487 176.865 39.478 174.351 39.7307C174.3 39.7393 174.284 39.7368 174.235 39.7291C173.976 39.6884 173.784 39.4258 173.825 39.1665C173.861 38.9396 174.032 38.8004 174.253 38.7687C174.765 38.683 175.328 38.6885 175.844 38.6864C178.058 38.6522 180.283 38.8688 182.455 39.2099L182.714 39.2506C182.73 38.9376 182.671 38.3636 182.706 38.1367C182.747 37.8773 183.009 37.6861 183.285 37.7293C183.528 37.7675 183.651 37.9363 183.68 38.1734C183.735 38.564 183.696 39.023 183.684 39.4196C184.811 39.6464 185.933 39.9057 187.047 40.2136C187.526 40.3386 188.053 40.4712 188.505 40.6585C188.724 40.7428 188.858 40.9465 188.82 41.1897ZM182.089 42.8063C181.799 42.6445 181.466 42.5424 181.142 42.4915C179.618 42.2522 178.185 44.1862 177.976 45.5153C177.872 46.1798 177.855 47.2401 178.714 47.375C180.432 47.6449 181.728 44.0451 182.089 42.8063Z" fill="#E1231D"/>
<path d="M200.363 42.8523L200.355 42.9009C199.846 45.1277 199.322 47.5352 198.939 49.8001C198.898 50.0428 198.631 50.2472 198.372 50.2035C197.887 50.1214 197.944 49.6819 198.004 49.326C198.256 47.8376 198.57 46.3764 198.87 44.8962C198.998 44.2357 199.2 43.2381 199.403 42.6236C199.477 42.3864 199.701 42.2412 199.96 42.285C200.251 42.3342 200.41 42.5773 200.363 42.8523ZM198.468 54.4628C198.421 54.7378 198.178 54.8964 197.903 54.8499C197.207 54.7323 197.513 53.2198 197.663 52.33C197.707 52.0712 197.972 51.883 198.231 51.9267C199.056 52.0662 198.305 53.4536 198.465 54.2794C198.473 54.3306 198.478 54.3981 198.468 54.4628Z" fill="#E1231D"/>
<path d="M216.186 46.0881L216.177 46.1365C215.636 48.3561 215.08 50.7561 214.666 53.0155C214.621 53.2576 214.351 53.4582 214.093 53.4109C213.609 53.3222 213.672 52.8835 213.737 52.5284C214.01 51.0437 214.343 49.5869 214.664 48.1111C214.801 47.4524 215.017 46.4577 215.229 45.846C215.306 45.6099 215.532 45.4679 215.79 45.5152C216.081 45.5684 216.236 45.8137 216.186 46.0881ZM214.129 57.6711C214.079 57.9455 213.834 58.1007 213.559 58.0504C212.865 57.9232 213.192 56.4151 213.355 55.5275C213.402 55.2693 213.669 55.0847 213.927 55.1321C214.751 55.2829 213.981 56.6598 214.13 57.4877C214.137 57.5391 214.141 57.6066 214.129 57.6711Z" fill="#E1231D"/>
</svg>
