<svg width="550" height="132" viewBox="0 0 550 132" fill="none" xmlns="http://www.w3.org/2000/svg">
<path d="M38.1533 110.486C37.7219 110.8 37.2718 110.942 36.8028 110.914C36.3511 110.873 35.9512 110.65 35.603 110.243C35.2596 109.807 35.1404 109.353 35.2456 108.881C35.3507 108.409 35.6299 107.995 36.0833 107.639C36.9382 106.965 37.488 106.433 37.7327 106.044C37.9821 105.625 37.9987 105.086 37.7823 104.425L30.6648 109.6C29.0774 110.755 27.748 111.484 26.6767 111.788C25.6055 112.092 24.6644 111.959 23.8536 111.388C23.0475 110.787 22.2461 109.721 21.4495 108.19L21.2378 107.79L18.6755 109.653C18.3132 109.917 17.9085 110.013 17.4615 109.942C17.0019 109.854 16.6404 109.629 16.377 109.267C16.1135 108.905 16.0171 108.5 16.0877 108.053C16.1458 107.589 16.356 107.225 16.7184 106.961L19.6689 104.816L19.4008 104.338C18.7735 103.186 18.3337 102.2 18.0812 101.381C17.8461 100.55 17.8211 99.7897 18.0062 99.1012C18.1914 98.4127 18.6048 97.7297 19.2463 97.0522C19.8879 96.3747 20.7781 95.6219 21.9169 94.7939L26.2391 91.6512C27.7403 90.5597 29.0202 89.8533 30.079 89.5319C31.1377 89.2105 32.0984 89.3165 32.961 89.8498C33.8283 90.3534 34.712 91.333 35.6121 92.7887L35.8191 93.0734L38.2261 91.3232C38.5885 91.0598 38.9994 90.972 39.459 91.0599C39.906 91.1305 40.2612 91.347 40.5247 91.7093C40.7881 92.0717 40.8908 92.485 40.8327 92.9492C40.7621 93.3962 40.5456 93.7515 40.1832 94.0149L37.5433 95.9344C37.8852 96.4771 38.2035 97.0238 38.4983 97.5744C38.8104 98.1124 39.1138 98.6567 39.4086 99.2072L41.738 97.5136C42.1003 97.2501 42.4964 97.16 42.9261 97.2431C43.3731 97.3138 43.7283 97.5303 43.9918 97.8926C44.2427 98.2377 44.3391 98.6424 44.281 99.1066C44.2277 99.5411 44.0198 99.89 43.6574 100.154L40.9399 102.129C41.5138 103.427 41.796 104.54 41.7864 105.47C41.7769 106.4 41.4592 107.251 40.8333 108.023C40.2372 108.799 39.3439 109.62 38.1533 110.486ZM13.472 104.02C12.9137 103.978 12.4839 103.749 12.1828 103.335C11.8817 102.921 11.7712 102.461 11.8513 101.954C11.9706 101.103 12.0467 100.137 12.0798 99.0582C12.1129 97.9791 12.1075 96.9015 12.0637 95.8256C12.0246 94.7198 11.9455 93.7223 11.8264 92.8329C11.7575 92.3028 11.8924 91.8354 12.2313 91.4308C12.5748 90.9964 13.0179 90.7533 13.5606 90.7016C14.0563 90.6577 14.4876 90.7793 14.8546 91.0664C15.2215 91.3535 15.4419 91.7472 15.5155 92.2475C15.5343 92.4185 15.5531 92.5895 15.5719 92.7604C15.5954 92.9016 15.6229 93.0663 15.6542 93.2545L30.1221 82.735C30.4845 82.4715 30.8805 82.3814 31.3103 82.4646C31.7573 82.5352 32.1125 82.7517 32.376 83.114C32.6394 83.4764 32.7358 83.881 32.6652 84.328C32.6118 84.7625 32.4039 85.1115 32.0416 85.3749L15.9173 97.0988C15.9297 97.9866 15.921 98.8633 15.8911 99.7291C15.8486 100.578 15.7858 101.362 15.7026 102.082C15.6476 102.623 15.3974 103.095 14.9519 103.498C14.5237 103.889 14.0304 104.063 13.472 104.02ZM32.6017 104.156L36.3546 101.428C36.0974 100.929 35.8065 100.402 35.4819 99.8467C35.1745 99.2789 34.8523 98.7087 34.5151 98.1362L30.7623 100.865C31.1198 101.502 31.4585 102.113 31.7784 102.698C32.103 103.253 32.3775 103.739 32.6017 104.156ZM28.9524 106.81L29.5735 106.358C29.3493 105.941 29.0835 105.448 28.7762 104.881C28.4563 104.296 28.1175 103.685 27.76 103.048L24.2142 105.626L24.4447 106.052C24.8932 106.886 25.3072 107.456 25.6867 107.76C26.0663 108.064 26.4984 108.133 26.983 107.965C27.485 107.785 28.1414 107.4 28.9524 106.81ZM29.064 97.985L32.7651 95.2939L32.5651 94.9645C32.0774 94.185 31.6415 93.6579 31.2572 93.3834C30.873 93.1089 30.4299 93.0617 29.928 93.2421C29.4308 93.3926 28.768 93.7689 27.9398 94.3711L27.2151 94.898C27.4739 95.2902 27.7593 95.7553 28.0713 96.2933C28.3834 96.8313 28.7143 97.3952 29.064 97.985ZM22.5935 102.69L26.1135 100.13C25.7685 99.5107 25.44 98.9319 25.1279 98.3939C24.8331 97.8433 24.5626 97.3806 24.3164 97.0057L23.5917 97.5326C22.7807 98.1223 22.2058 98.6194 21.867 99.024C21.5156 99.4114 21.3877 99.8341 21.4834 100.292C21.579 100.75 21.8597 101.39 22.3254 102.212L22.5935 102.69Z" fill="#EA4141"/>
<path d="M64.1666 95.6603C63.6789 95.8761 63.1763 95.9002 62.6589 95.7326C62.161 95.5564 61.7912 95.1951 61.5494 94.6489L59.3998 89.7913L47.4021 95.1007C46.9729 95.2907 46.5472 95.3041 46.1251 95.1409C45.703 94.9778 45.397 94.6817 45.207 94.2525C45.0171 93.8233 45.0037 93.3976 45.1668 92.9755C45.33 92.5534 45.6261 92.2474 46.0553 92.0574L49.8594 90.3739L48.7717 87.9159C48.2364 86.7064 47.9792 85.6771 48 84.828C48.0209 83.9789 48.3665 83.2311 49.0368 82.5845C49.7181 81.9098 50.7805 81.253 52.2241 80.6141L54.8285 79.4616L53.3522 76.1257L47.3533 78.7804C47.1588 79.8696 46.9221 80.9425 46.6432 81.9991C46.3556 83.0362 46.0421 84.0148 45.7027 84.9348C45.4961 85.4695 45.1521 85.8783 44.6708 86.1613C44.209 86.4357 43.7053 86.4836 43.1598 86.3051C42.651 86.157 42.2875 85.863 42.0695 85.4229C41.8428 84.9633 41.8327 84.4662 42.0393 83.9315C42.4939 82.7972 42.8716 81.5686 43.1727 80.2456C43.4932 78.9139 43.7466 77.5887 43.9328 76.2699C44.119 74.951 44.2227 73.762 44.2439 72.7028C44.2685 72.1787 44.4707 71.7393 44.8503 71.3847C45.2495 71.0214 45.7013 70.8564 46.206 70.8897C46.7215 70.8949 47.1479 71.0677 47.4853 71.4084C47.814 71.7295 47.9661 72.1521 47.9414 72.6762C47.9468 73.3737 47.9132 74.0885 47.8405 74.8205L62.9693 68.1254C63.3985 67.9355 63.8285 67.9318 64.2592 68.1145C64.7009 68.269 65.0166 68.5608 65.2066 68.99C65.3965 69.4192 65.4045 69.8589 65.2305 70.3092C65.076 70.7508 64.7841 71.0666 64.3549 71.2565L56.9808 74.5199L58.457 77.8558L63.9877 75.4083C64.4169 75.2184 64.8468 75.2147 65.2776 75.3974C65.6997 75.5605 66.0057 75.8566 66.1957 76.2858C66.3856 76.715 66.4033 77.1504 66.2488 77.5921C66.0857 78.0142 65.7895 78.3202 65.3604 78.5101L59.8297 80.9577L61.6815 85.1422L70.3433 81.3091C70.7725 81.1191 71.1981 81.1057 71.6203 81.2689C72.0424 81.432 72.3484 81.7281 72.5383 82.1573C72.7283 82.5865 72.7417 83.0122 72.5785 83.4343C72.4154 83.8564 72.1193 84.1624 71.6901 84.3524L63.0283 88.1855L65.178 93.0431C65.4197 93.5894 65.4384 94.106 65.234 94.593C65.0296 95.0801 64.6738 95.4358 64.1666 95.6603ZM53.4587 88.7811L58.053 86.748L56.2012 82.5634L53.5968 83.716C52.7774 84.0786 52.2884 84.4233 52.1298 84.7501C51.9625 85.0574 52.0429 85.5817 52.371 86.3231L53.4587 88.7811Z" fill="#EA4141"/>
<path d="M76.9929 70.6856C76.5419 70.8154 76.1389 70.765 75.7839 70.5342C75.4288 70.3034 75.1952 69.9932 75.0831 69.6037C74.9651 69.1937 74.9951 68.7965 75.1731 68.4123C75.3511 68.0281 75.6656 67.7711 76.1166 67.6412L83.6199 65.4813L83.0799 63.6055L72.4707 66.6595C72.0197 66.7893 71.6064 66.7418 71.2309 66.5169C70.8554 66.292 70.6086 65.9745 70.4906 65.5645C70.3725 65.1545 70.4157 64.7646 70.6201 64.395C70.8186 64.0049 71.1434 63.7449 71.5944 63.6151L82.2036 60.5611L81.8495 59.3311C81.6783 58.7365 81.7271 58.2119 81.9958 57.7572C82.285 57.2965 82.6859 56.9924 83.1984 56.8449C83.7314 56.6915 84.2326 56.7359 84.7019 56.9782C85.1918 57.2146 85.5223 57.63 85.6934 58.2246L86.0475 59.4546L96.8104 56.3564C97.2819 56.2207 97.6952 56.2682 98.0503 56.499C98.3994 56.7093 98.633 57.0195 98.751 57.4295C98.869 57.8395 98.839 58.2366 98.661 58.6208C98.4831 59.0051 98.1583 59.2651 97.6868 59.4008L86.9238 62.499L87.4638 64.3748L95.0901 62.1795C95.5616 62.0438 95.9749 62.0913 96.3299 62.3221C96.7055 62.547 96.9523 62.8645 97.0703 63.2745C97.1824 63.664 97.1392 64.0538 96.9407 64.444C96.7627 64.8282 96.438 65.0882 95.9665 65.2239L76.9929 70.6856ZM77.8193 79.5718C77.2863 79.7252 76.7808 79.7042 76.3027 79.5088C75.8393 79.287 75.525 78.8891 75.3597 78.3151L75.0853 77.3618C74.6486 75.8448 74.7283 74.6563 75.3244 73.7966C75.9205 72.9368 77.1513 72.2384 79.0169 71.7014L94.8538 67.1426C96.7399 66.5996 98.1537 66.5368 99.0951 66.9539C100.057 67.3652 100.756 68.3294 101.193 69.8464L101.468 70.7997C101.633 71.3738 101.578 71.8779 101.304 72.3121C101.023 72.7259 100.616 73.0095 100.083 73.1629C99.5502 73.3163 99.0447 73.2953 98.5667 73.1C98.1032 72.8782 97.7889 72.4803 97.6236 71.9062L97.482 71.4142C97.2932 70.7582 97.033 70.3558 96.7016 70.207C96.3702 70.0582 95.8457 70.0871 95.1282 70.2936L80.5521 74.4895C79.8345 74.696 79.3545 74.9563 79.1119 75.2704C78.8839 75.558 78.8673 76.0401 79.062 76.7166L79.2036 77.2086C79.3689 77.7826 79.3142 78.2868 79.0396 78.721C78.7591 79.1347 78.3523 79.4183 77.8193 79.5718ZM98.6126 82.9767C97.0135 83.437 95.7114 83.6564 94.7063 83.6349C93.707 83.634 92.9123 83.3411 92.3221 82.7562C91.7584 82.1859 91.2995 81.2857 90.9454 80.0556L89.4405 74.8279C89.2753 74.2539 89.327 73.7395 89.5957 73.2848C89.8644 72.83 90.255 72.5289 90.7675 72.3814C91.3006 72.2279 91.7915 72.2753 92.2403 72.5235C92.7097 72.7658 93.027 73.1739 93.1922 73.748L94.5643 78.5144C94.7649 79.2114 95.0719 79.6226 95.4854 79.7477C95.9193 79.867 96.7308 79.7555 97.9198 79.4132C98.6169 79.2126 99.1424 78.9947 99.4965 78.7596C99.8712 78.5186 100.124 78.2016 100.255 77.8086C100.401 77.3893 100.477 76.8456 100.485 76.1774C100.495 75.5972 100.726 75.1645 101.177 74.8794C101.648 74.5883 102.169 74.4716 102.741 74.529C103.245 74.5837 103.635 74.7822 103.911 75.1245C104.187 75.4668 104.338 75.9119 104.362 76.4599C104.418 77.7315 104.26 78.7648 103.889 79.5597C103.545 80.3691 102.937 81.0326 102.065 81.5501C101.219 82.0821 100.068 82.5577 98.6126 82.9767ZM80.009 88.7981C79.4645 89.0658 78.9475 89.1591 78.4579 89.0781C77.9743 89.0175 77.5929 88.7721 77.3136 88.3419C77.0167 87.8502 76.922 87.3668 77.0294 86.8919C77.1369 86.417 77.4322 86.0545 77.9152 85.8045C79.4198 85.0161 80.5889 84.1801 81.4223 83.2964C82.2498 82.3922 82.7884 81.3714 83.0381 80.2339C83.3025 79.0701 83.3115 77.7133 83.0652 76.1636C82.9792 75.6334 83.0955 75.1892 83.4142 74.8311C83.7475 74.4465 84.1691 74.2142 84.6788 74.1341C85.25 74.0362 85.7352 74.1408 86.1343 74.4477C86.5481 74.7282 86.7877 75.1365 86.8532 75.6726C87.334 78.7309 87.0168 81.3308 85.9017 83.4722C84.807 85.6077 82.8428 87.383 80.009 88.7981Z" fill="#EA4141"/>
<path d="M122.105 77.106C121.663 76.817 121.374 76.4137 121.238 75.8964C121.122 75.3752 121.22 74.8917 121.53 74.4458C122.835 72.5424 123.719 70.2812 124.18 67.6624C124.663 65.0397 124.644 62.2796 124.123 59.382C123.829 57.7442 123.353 56.605 122.696 55.9644C122.04 55.3238 121.197 55.0959 120.168 55.2807C119.328 55.4316 118.613 55.9176 118.024 56.7387C117.431 57.5389 117.076 58.6429 116.961 60.0509C116.845 61.4588 117.054 63.1661 117.588 65.1727C117.717 65.648 117.66 66.1135 117.416 66.569C117.19 66.9998 116.839 67.2795 116.364 67.4083C115.868 67.5408 115.404 67.494 114.973 67.268C114.564 67.0381 114.273 66.6893 114.103 66.2214C113.759 65.156 113.45 63.9761 113.174 62.6818C112.895 61.3665 112.648 60.0561 112.435 58.7505C112.24 57.4201 112.084 56.191 111.968 55.063C111.848 53.9141 111.765 52.9646 111.717 52.2146C111.689 51.6994 111.846 51.2484 112.189 50.8618C112.531 50.4752 112.96 50.2681 113.475 50.2406C114.011 50.2093 114.461 50.3562 114.822 50.6813C115.205 51.0027 115.404 51.4439 115.418 52.0049C115.444 52.3904 115.467 52.8847 115.489 53.4877C115.532 54.0869 115.579 54.6528 115.631 55.1852C115.967 54.2796 116.496 53.4803 117.216 52.7872C117.933 52.0732 118.733 51.637 119.615 51.4786C121.862 51.075 123.673 51.5082 125.05 52.7781C126.423 54.027 127.353 56.0057 127.84 58.7144C128.228 60.8771 128.376 63.0288 128.284 65.1695C128.209 67.2855 127.88 69.3169 127.298 71.2639C126.733 73.1861 125.901 74.9503 124.802 76.5565C124.513 76.9985 124.096 77.2686 123.55 77.3667C123.029 77.482 122.547 77.3951 122.105 77.106Z" fill="#EA4141"/>
<path d="M162.031 72.2682C161.352 72.3349 160.792 72.197 160.351 71.8544C159.931 71.5098 159.684 71.0625 159.608 70.5126C159.533 69.9627 159.656 69.4683 159.977 69.0294C160.298 68.5906 160.755 68.3314 161.347 68.2518C162.15 68.1301 162.769 67.9943 163.205 67.8444C163.638 67.6732 163.953 67.3851 164.149 66.98C164.343 66.5536 164.464 65.9308 164.512 65.1115C164.561 63.8634 164.565 62.4911 164.525 60.9945C164.484 59.4766 164.408 57.9407 164.298 56.3866C164.21 54.8305 164.096 53.3412 163.956 51.9187C163.885 51.1968 163.756 50.6521 163.57 50.2846C163.384 49.917 163.082 49.6787 162.664 49.5697C162.246 49.4607 161.644 49.4448 160.859 49.5219L159.776 49.6282C160.021 52.7767 160.108 55.5226 160.038 57.866C159.987 60.1861 159.748 62.2246 159.32 63.9814C158.891 65.7171 158.229 67.2719 157.335 68.6458C156.46 69.9964 155.333 71.2861 153.953 72.5148C153.479 72.9258 152.953 73.1382 152.375 73.152C151.8 73.1871 151.308 72.9782 150.899 72.5253C150.539 72.132 150.386 71.6647 150.44 71.1235C150.494 70.5823 150.74 70.1401 151.178 69.797C152.453 68.8143 153.473 67.7389 154.237 66.5706C154.999 65.3811 155.551 64.0193 155.894 62.4851C156.236 60.951 156.415 59.165 156.429 57.1272C156.443 55.0894 156.327 52.7107 156.082 49.991L151.782 50.4131C151.23 50.4673 150.768 50.3413 150.395 50.0349C150.041 49.7053 149.84 49.2963 149.792 48.808C149.742 48.2984 149.86 47.8582 150.145 47.4872C150.449 47.0929 150.877 46.8687 151.429 46.8144L160.824 45.8919C162.374 45.7397 163.613 45.8109 164.543 46.1055C165.493 46.3981 166.214 46.9704 166.705 47.8225C167.194 48.6533 167.51 49.8013 167.654 51.2662C167.868 53.6674 168.05 56.0611 168.198 58.4474C168.347 60.8336 168.386 63.0912 168.317 65.2202C168.265 66.8759 168.03 68.1958 167.612 69.18C167.192 70.143 166.534 70.8614 165.637 71.3353C164.741 71.8092 163.539 72.1202 162.031 72.2682ZM149.383 67.5617C147.748 67.7223 146.496 67.5237 145.627 66.9659C144.778 66.4061 144.272 65.2876 144.107 63.6103L143.71 59.5658C143.358 59.6862 143.005 59.8065 142.652 59.9269C142.319 60.024 142.007 60.1189 141.716 60.2118C141.134 60.3976 140.607 60.3849 140.137 60.1739C139.664 59.9417 139.348 59.5654 139.19 59.0451C139.027 58.4823 139.064 57.9856 139.301 57.5551C139.535 57.1034 139.955 56.7942 140.56 56.6276C140.955 56.5031 141.382 56.3754 141.841 56.2446C142.319 56.0905 142.818 55.9343 143.338 55.776L142.613 48.3876C142.55 47.7506 142.684 47.2552 143.013 46.9013C143.343 46.5474 143.773 46.3444 144.304 46.2922C144.856 46.238 145.317 46.3535 145.688 46.6386C146.081 46.9216 146.308 47.3816 146.371 48.0186L147.015 54.579C147.928 54.275 148.8 53.9857 149.63 53.7112C150.48 53.4134 151.237 53.1569 151.902 52.9415C152.42 52.762 152.884 52.7915 153.293 53.03C153.724 53.2664 154.006 53.6246 154.138 54.1046C154.295 54.6037 154.255 55.0685 154.018 55.499C153.803 55.9274 153.426 56.2324 152.886 56.414C152.162 56.6781 151.313 56.9865 150.34 57.3392C149.387 57.6687 148.401 58.0012 147.384 58.3369L147.803 62.6044C147.849 63.0715 147.986 63.3795 148.215 63.5285C148.442 63.6563 148.831 63.6931 149.383 63.6389C149.914 63.5868 150.263 63.4239 150.429 63.1504C150.614 62.8535 150.763 62.303 150.877 61.4986C150.957 60.9978 151.198 60.6204 151.602 60.3664C152.027 60.1103 152.511 60.0199 153.055 60.0952C153.621 60.1896 154.021 60.4397 154.254 60.8456C154.506 61.2281 154.607 61.7112 154.557 62.2949C154.417 63.4876 154.158 64.4562 153.781 65.2006C153.402 65.9238 152.855 66.4705 152.142 66.8407C151.449 67.2088 150.529 67.4491 149.383 67.5617Z" fill="#EA4141"/>
<path d="M181.795 71.2514C181.283 71.269 180.84 71.1028 180.465 70.7528C180.09 70.4028 179.893 69.972 179.876 69.4603L179.634 62.4244C179.291 62.9912 178.947 63.558 178.604 64.1248C178.281 64.6695 177.979 65.1922 177.697 65.6929C177.435 66.1501 177.04 66.4412 176.511 66.5661C176.002 66.669 175.529 66.5892 175.093 66.3266C174.657 66.0428 174.376 65.6469 174.252 65.1388C174.149 64.6087 174.239 64.1254 174.523 63.6887C175.112 62.8359 175.823 61.7656 176.654 60.4776C177.505 59.1676 178.43 57.8337 179.43 56.4759L179.289 52.3823C179.226 52.4059 179.152 52.4297 179.067 52.454C178.982 52.4569 178.898 52.4812 178.814 52.5267C178.581 52.5774 178.242 52.6745 177.799 52.8178C177.377 52.9603 176.966 53.1025 176.565 53.2444C176.185 53.3642 175.921 53.448 175.773 53.4957C175.265 53.6199 174.783 53.5511 174.325 53.2893C173.868 53.0276 173.566 52.6323 173.42 52.1037C173.296 51.5957 173.365 51.113 173.626 50.6558C173.91 50.1978 174.305 49.9067 174.813 49.7825C175.004 49.7333 175.3 49.6591 175.702 49.5599C176.103 49.4393 176.527 49.3287 176.971 49.2281C177.437 49.1053 177.828 49.0065 178.146 48.9316C178.484 48.8346 178.823 48.7589 179.163 48.7045L179.004 44.0992C178.987 43.5875 179.153 43.1442 179.503 42.7693C179.853 42.3944 180.284 42.1982 180.796 42.1806C181.307 42.163 181.751 42.3292 182.126 42.6792C182.5 43.0292 182.697 43.4601 182.714 43.9718L182.894 49.2167C183.265 49.4387 183.575 49.7696 183.825 50.2093C183.983 50.46 184.1 50.7548 184.176 51.0938C185.149 50.2278 186.118 49.5222 187.081 48.9768C188.065 48.4306 189.048 48.1407 190.029 48.107C192.395 48.0257 194.085 48.7574 195.099 50.3022C196.112 51.8256 196.368 54.3143 195.868 57.7682C195.68 59.1408 195.547 60.2446 195.469 61.0798C195.391 61.8937 195.358 62.5138 195.373 62.9402C195.409 63.3659 195.473 63.6626 195.564 63.8302C195.676 63.9971 195.82 64.1309 195.994 64.2317C196.493 64.4707 197.037 64.4733 197.627 64.2396C198.216 63.9845 198.83 63.5258 199.469 62.8635C199.84 62.4879 200.294 62.3229 200.829 62.3685C201.364 62.4142 201.809 62.6337 202.164 63.0271C202.541 63.4197 202.706 63.8836 202.66 64.4188C202.635 64.932 202.437 65.3764 202.066 65.752C200.808 67.0333 199.427 67.8492 197.923 68.1997C196.419 68.5289 195.048 68.3839 193.81 67.7647C193.07 67.3632 192.518 66.8059 192.152 66.0927C191.785 65.3795 191.592 64.4149 191.572 63.1989C191.551 61.9829 191.679 60.4309 191.956 58.543C192.233 56.655 192.333 55.2321 192.258 54.2741C192.181 53.2948 191.945 52.6412 191.55 52.3132C191.175 51.9632 190.646 51.8 189.964 51.8234C189.325 51.8454 188.629 52.1041 187.878 52.5995C187.126 53.095 186.348 53.7514 185.544 54.5688C184.761 55.3855 183.97 56.2986 183.173 57.3079L183.586 69.3328C183.603 69.8445 183.437 70.2878 183.087 70.6627C182.737 71.0376 182.306 71.2338 181.795 71.2514Z" fill="#EA4141"/>
<path d="M223.875 70.4356C222.212 70.3987 220.871 70.2303 219.854 69.9303C218.836 69.6517 218.089 69.1657 217.613 68.4723C217.159 67.8007 216.892 66.8559 216.812 65.6378C215.818 66.1919 214.782 66.7131 213.705 67.2014C212.627 67.6896 211.496 68.1447 210.313 68.5665C209.733 68.7671 209.189 68.7657 208.681 68.5624C208.195 68.3595 207.862 67.9894 207.682 67.4519C207.523 66.8936 207.566 66.4038 207.81 65.9824C208.076 65.5615 208.477 65.261 209.014 65.0809C211.916 64.1423 214.525 62.9198 216.842 61.4135L217.072 51.016C217.085 50.4188 217.277 49.9536 217.647 49.6204C218.039 49.2877 218.501 49.1272 219.034 49.139C219.589 49.1513 220.043 49.3321 220.399 49.6814C220.754 50.0307 220.924 50.5039 220.911 51.1011L220.748 58.4593C222.686 56.6885 224.386 54.635 225.846 52.2988C227.306 49.9412 228.507 47.2685 229.448 44.2806C229.631 43.7299 229.96 43.3424 230.434 43.1182C230.93 42.8945 231.443 42.8738 231.972 43.0563C232.459 43.2378 232.815 43.5551 233.039 44.0082C233.264 44.4399 233.275 44.9309 233.071 45.4812C231.683 49.3768 229.964 52.7742 227.916 55.6735C225.888 58.5733 223.464 61.0695 220.644 63.1622L220.621 64.1859C220.605 64.8897 220.69 65.4251 220.874 65.7919C221.057 66.1587 221.404 66.4118 221.913 66.5511C222.443 66.6909 223.199 66.7717 224.18 66.7934C225.076 66.8133 225.76 66.7751 226.231 66.6789C226.725 66.5618 227.103 66.3248 227.367 65.9679C227.653 65.5901 227.911 65.041 228.14 64.3206C228.321 63.8338 228.639 63.4888 229.091 63.2854C229.566 63.0612 230.078 63.0405 230.629 63.2235C231.116 63.3836 231.472 63.6796 231.697 64.1114C231.944 64.5223 231.998 65.0036 231.858 65.5553C231.532 66.7643 231.073 67.7357 230.481 68.4695C229.888 69.2032 229.066 69.7184 228.014 70.0152C226.982 70.3337 225.603 70.4739 223.875 70.4356ZM208.111 61.0599C207.711 60.8163 207.452 60.4585 207.335 59.9864C207.217 59.5144 207.313 59.0684 207.621 58.6484C208.105 57.9977 208.59 57.2722 209.077 56.4722C209.565 55.6508 210.021 54.8287 210.444 54.0059C210.89 53.1622 211.248 52.4019 211.519 51.7251C211.744 51.218 212.093 50.863 212.567 50.6601C213.062 50.4577 213.563 50.4794 214.07 50.7254C214.556 50.9496 214.89 51.2877 215.072 51.7399C215.275 52.1711 215.254 52.6615 215.007 53.2108C214.67 53.9928 214.267 54.8268 213.799 55.7126C213.332 56.5772 212.844 57.4305 212.334 58.2728C211.846 59.0942 211.361 59.8303 210.877 60.481C210.525 60.9427 210.092 61.2318 209.577 61.3484C209.084 61.4442 208.596 61.348 208.111 61.0599ZM236.048 64.2398C235.572 64.5067 235.08 64.5704 234.571 64.4311C234.083 64.2923 233.717 63.9748 233.472 63.4785C233.208 62.8752 232.86 62.1953 232.429 61.4389C232.019 60.683 231.577 59.937 231.102 59.201C230.649 58.4654 230.236 57.8374 229.864 57.3171C229.574 56.8839 229.478 56.4443 229.573 55.9983C229.689 55.5528 229.953 55.1959 230.365 54.9276C230.819 54.6389 231.27 54.5315 231.716 54.6054C232.163 54.6794 232.552 54.9334 232.884 55.3675C233.277 55.8884 233.722 56.5277 234.217 57.2855C234.713 58.0434 235.197 58.8116 235.671 59.5903C236.144 60.369 236.524 61.0496 236.81 61.6321C237.096 62.1719 237.16 62.6747 237 63.1407C236.862 63.607 236.544 63.9734 236.048 64.2398ZM223.821 48.3489C223.359 47.9973 222.781 47.611 222.086 47.1902C221.413 46.7485 220.729 46.3279 220.034 45.9284C219.36 45.5294 218.78 45.2071 218.295 44.9616C217.894 44.7394 217.635 44.4029 217.517 43.9521C217.421 43.4806 217.484 43.0445 217.706 42.644C217.95 42.2226 218.297 41.9529 218.748 41.8349C219.199 41.6955 219.657 41.7377 220.122 41.9614C220.65 42.2078 221.272 42.531 221.988 42.931C222.726 43.3314 223.443 43.7421 224.138 44.1629C224.854 44.5842 225.432 44.9598 225.873 45.2897C226.335 45.62 226.604 46.0207 226.679 46.4918C226.775 46.9421 226.669 47.3985 226.36 47.8611C226.095 48.2606 225.716 48.519 225.223 48.6361C224.729 48.7532 224.262 48.6574 223.821 48.3489Z" fill="#EA4141"/>
<path d="M269 58.9082C268.525 59.2103 268.014 59.306 267.467 59.1952C266.942 59.065 266.518 58.772 266.193 58.3161C266.002 58.043 265.791 57.7468 265.562 57.4275C265.353 57.11 265.114 56.7686 264.846 56.4031C263.859 56.4263 262.701 56.4456 261.372 56.4611C260.067 56.4571 258.675 56.4565 257.198 56.4593C255.743 56.4427 254.289 56.4261 252.834 56.4095C251.38 56.3928 250.022 56.3737 248.76 56.3521C247.499 56.3305 246.42 56.303 245.524 56.2696C244.969 56.2438 244.512 56.0765 244.153 55.7677C243.817 55.4394 243.651 54.997 243.656 54.4408C243.657 53.927 243.831 53.5136 244.179 53.2006C244.55 52.8682 245.023 52.7157 245.599 52.7433C246.153 52.769 246.771 52.8002 247.453 52.8367C248.137 52.8521 248.874 52.8719 249.664 52.8963C249.959 52.4503 250.316 51.9026 250.735 51.2531C251.155 50.6036 251.574 49.9541 251.993 49.3047C252.414 48.6339 252.773 48.0649 253.069 47.5977L245.417 46.947C244.949 46.9073 244.57 46.7144 244.278 46.3684C243.986 46.0225 243.859 45.6263 243.897 45.1799C243.937 44.7123 244.13 44.3326 244.476 44.0408C244.822 43.7491 245.229 43.6231 245.696 43.6629L270.216 45.7478C270.684 45.7876 271.063 45.9804 271.355 46.3264C271.647 46.6724 271.773 47.0792 271.733 47.5468C271.695 47.9932 271.503 48.3623 271.157 48.654C270.811 48.9457 270.404 49.0717 269.937 49.032L257.533 47.9773C257.263 48.3825 256.909 48.8984 256.47 49.5248C256.053 50.153 255.625 50.7804 255.186 51.4068C254.769 52.035 254.402 52.5712 254.086 53.0153C255.519 53.0302 256.953 53.045 258.386 53.0598C259.819 53.0746 261.124 53.0892 262.3 53.1036C262.049 52.7825 261.806 52.4942 261.571 52.2387C261.359 51.9637 261.155 51.7109 260.961 51.4803C260.648 51.1325 260.523 50.7151 260.586 50.228C260.67 49.7427 260.894 49.3657 261.26 49.0971C261.648 48.8089 262.087 48.6857 262.576 48.7272C263.065 48.7688 263.496 48.9874 263.869 49.3831C264.223 49.7558 264.653 50.2313 265.161 50.8097C265.668 51.3881 266.184 51.9993 266.707 52.6433C267.252 53.2891 267.765 53.9216 268.248 54.5407C268.753 55.1403 269.169 55.6681 269.494 56.124C269.821 56.5586 269.94 57.0504 269.85 57.5995C269.761 58.1485 269.478 58.5848 269 58.9082ZM243.013 70.3153C242.545 70.2756 242.156 70.0712 241.844 69.7022C241.553 69.3562 241.427 68.9494 241.466 68.4817C241.506 68.0141 241.699 67.6344 242.045 67.3427C242.414 67.0315 242.832 66.8958 243.3 66.9355L253.981 67.8438L254.318 63.8901L246.219 63.2014C245.751 63.1616 245.371 62.9688 245.08 62.6228C244.79 62.2556 244.665 61.8382 244.704 61.3705C244.744 60.9029 244.937 60.5232 245.283 60.2315C245.629 59.9397 246.036 59.8137 246.503 59.8535L254.602 60.5421L254.757 58.7247C254.809 58.1083 255.042 57.6356 255.455 57.3068C255.89 56.9798 256.384 56.8398 256.936 56.8868C257.489 56.9337 257.941 57.1542 258.293 57.5481C258.666 57.9438 258.827 58.4499 258.774 59.0663L258.62 60.8838L266.719 61.5724C267.186 61.6122 267.566 61.805 267.858 62.151C268.149 62.4969 268.275 62.9038 268.236 63.3714C268.196 63.839 268.002 64.2294 267.654 64.5424C267.308 64.8341 266.902 64.9601 266.434 64.9203L258.335 64.2317L257.999 68.1854L268.84 69.1072C269.329 69.1488 269.718 69.3532 270.008 69.7204C270.3 70.0664 270.426 70.4732 270.386 70.9408C270.346 71.4085 270.153 71.7881 269.807 72.0799C269.46 72.3929 269.041 72.5286 268.552 72.487L243.013 70.3153Z" fill="#EA4141"/>
<path d="M289.968 68.2161C289.547 68.1474 289.203 67.9399 288.935 67.5936C288.667 67.2473 288.548 66.8497 288.578 66.4007C288.646 65.5903 288.732 64.6641 288.837 63.6221C288.963 62.5835 289.083 61.5222 289.195 60.438C289.31 59.3329 289.427 58.2821 289.547 57.2856C289.666 56.2892 289.777 55.4102 289.88 54.6488C289.982 53.8874 290.063 53.3277 290.121 52.9698L290.631 49.8431C290.731 49.2325 291.025 48.751 291.515 48.3986C292.026 48.0497 292.608 47.9284 293.261 48.0349C293.934 48.1448 294.447 48.4446 294.8 48.9344C295.173 49.4277 295.31 49.9796 295.211 50.5902L294.701 53.7169C294.642 54.0748 294.53 54.6293 294.364 55.3804C294.22 56.135 294.045 57.0036 293.842 57.9863C293.638 58.969 293.416 60.0027 293.174 61.0872C292.957 62.1542 292.732 63.1983 292.501 64.2197C292.269 65.2411 292.057 66.1467 291.863 66.9365C291.77 67.3752 291.541 67.7162 291.177 67.9594C290.814 68.2027 290.41 68.2882 289.968 68.2161ZM288.711 75.9222C287.974 75.802 287.386 75.4358 286.945 74.8236C286.505 74.2113 286.344 73.5367 286.465 72.7998C286.585 72.0629 286.951 71.4742 287.563 71.0336C288.176 70.5931 288.85 70.433 289.587 70.5532C290.324 70.6734 290.913 71.0397 291.353 71.6519C291.794 72.2642 291.954 72.9387 291.834 73.6757C291.713 74.4126 291.347 75.0013 290.735 75.4418C290.123 75.8823 289.448 76.0425 288.711 75.9222Z" fill="#EA4141"/>
<path d="M336.209 85.0121C335.714 85.2631 335.208 85.3042 334.692 85.1355C334.186 84.9858 333.797 84.6447 333.527 84.112L330.791 78.7185L320.746 83.8151C320.27 84.0565 319.803 84.1021 319.344 83.9522C318.904 83.7926 318.573 83.494 318.351 83.0564C318.129 82.6189 318.084 82.1755 318.214 81.7263C318.364 81.2675 318.677 80.9174 319.153 80.6761L329.198 75.5794L328.025 73.2679L326.912 73.8326C325.39 74.6048 324.11 75.1467 323.072 75.4581C322.043 75.7408 321.166 75.7794 320.439 75.5738C319.703 75.3491 319.018 74.8475 318.384 74.0689C317.769 73.2806 317.109 72.1921 316.404 70.8033C315.69 69.3955 315.196 68.2106 314.924 67.2486C314.67 66.2769 314.674 65.4373 314.937 64.7297C315.191 64.0031 315.74 63.3177 316.585 62.6735C317.44 62.0007 318.628 61.2781 320.15 60.5059L325.915 57.5811C327.437 56.8089 328.712 56.2814 329.741 55.9987C330.779 55.6873 331.666 55.6439 332.402 55.8685C333.128 56.0741 333.799 56.5711 334.414 57.3593C335.049 58.1379 335.723 59.2312 336.437 60.639C337.142 62.0278 337.621 63.208 337.875 64.1797C338.148 65.1417 338.157 65.986 337.904 66.7126C337.641 67.4201 337.082 68.1103 336.227 68.7832C335.382 69.4274 334.198 70.1356 332.677 70.9079L331.592 71.4581L332.765 73.7695L342.924 68.615C343.419 68.364 343.886 68.3183 344.326 68.4779C344.766 68.6375 345.096 68.9361 345.318 69.3737C345.541 69.8113 345.586 70.2546 345.455 70.7038C345.324 71.153 345.011 71.5031 344.517 71.7541L334.358 76.9086L337.094 82.3021C337.364 82.8348 337.401 83.3545 337.204 83.8614C337.035 84.3775 336.703 84.7611 336.209 85.0121ZM325.492 70.8929L331.143 68.026C332.151 67.5145 332.888 67.0808 333.353 66.725C333.809 66.3503 334.045 65.9434 334.062 65.5044C334.097 65.0558 333.965 64.4889 333.665 63.8037L320.595 70.4352C320.971 71.0817 321.341 71.5279 321.705 71.7739C322.088 72.0101 322.565 72.055 323.137 71.9085C323.718 71.7334 324.503 71.3948 325.492 70.8929ZM319.162 67.61L332.232 60.9786C331.846 60.313 331.467 59.8716 331.093 59.6544C330.729 59.4084 330.266 59.3682 329.704 59.5337C329.133 59.6802 328.343 60.0092 327.335 60.5208L321.684 63.3877C320.695 63.8896 319.963 64.3328 319.488 64.7172C319.023 65.073 318.772 65.4752 318.737 65.9238C318.711 66.3437 318.852 66.9058 319.162 67.61Z" fill="#EA4141"/>
<path d="M357.991 70.4878C357.053 70.779 356.088 70.8014 355.097 70.5551C354.105 70.3088 353.141 69.7465 352.204 68.8682C351.402 68.0865 350.618 67.0355 349.851 65.7153C349.085 64.395 348.401 62.9314 347.802 61.3245C347.197 59.6969 346.718 58.0471 346.366 56.3749C346.271 55.8483 346.356 55.3738 346.62 54.9514C346.899 54.5029 347.302 54.2313 347.828 54.1368C348.349 54.0216 348.827 54.1165 349.26 54.4216C349.708 54.7006 349.98 55.1034 350.074 55.63C350.372 57.0958 350.755 58.5063 351.222 59.8613C351.683 61.1957 352.208 62.3922 352.796 63.4508C353.378 64.4888 353.983 65.3221 354.612 65.9507C355.309 66.6716 356.019 66.9369 356.741 66.7468C357.623 66.4926 358.121 65.3686 358.236 63.375C358.276 62.8571 358.493 62.4249 358.887 62.0784C359.276 61.7113 359.739 61.5451 360.278 61.5798C360.79 61.5993 361.223 61.8164 361.575 62.2311C361.921 62.6252 362.074 63.0812 362.034 63.5992C361.935 65.5667 361.517 67.1217 360.781 68.2641C360.039 69.3859 359.109 70.1272 357.991 70.4878ZM373.422 60.6004C372.976 60.9164 372.485 61.0235 371.951 60.9215C371.438 60.8141 371.025 60.5476 370.715 60.122C370.204 59.4402 369.578 58.7779 368.835 58.1352C368.113 57.4871 367.329 56.8992 366.484 56.3716C365.66 55.8386 364.845 55.4245 364.039 55.1293C363.551 54.9491 363.187 54.6148 362.948 54.1262C362.709 53.6376 362.7 53.1435 362.922 52.644C363.143 52.1445 363.486 51.8116 363.949 51.6454C364.433 51.4738 364.933 51.4856 365.448 51.681C366.472 52.0511 367.51 52.5607 368.564 53.2099C369.638 53.8536 370.645 54.581 371.587 55.3919C372.529 56.2029 373.289 57.0394 373.869 57.9015C374.159 58.3325 374.266 58.8227 374.19 59.3722C374.109 59.901 373.853 60.3104 373.422 60.6004Z" fill="#EA4141"/>
<path d="M396.315 67.2604C393.816 67.5646 391.767 67.1478 390.167 66.0101C388.567 64.8725 387.619 63.086 387.322 60.6506C387.291 60.3965 387.279 60.0326 387.286 59.559C387.293 59.0853 387.301 58.5363 387.311 57.9119C386.705 57.8782 386.119 57.8313 385.553 57.7712C385.008 57.7086 384.507 57.6515 384.05 57.5997C383.523 57.5133 383.105 57.2527 382.794 56.8177C382.504 56.3802 382.404 55.9089 382.493 55.4037C382.603 54.896 382.865 54.4881 383.279 54.1798C383.714 53.869 384.184 53.758 384.689 53.847C385.458 53.9897 386.405 54.0893 387.53 54.1459C387.561 53.5188 387.601 52.8799 387.651 52.2292C387.701 51.5784 387.739 50.9183 387.765 50.2489C387.18 50.2126 386.638 50.1712 386.138 50.1246C385.638 50.078 385.224 50.0317 384.896 49.9857C384.391 49.8967 383.984 49.6454 383.676 49.2316C383.365 48.7966 383.254 48.3266 383.343 47.8215C383.429 47.2952 383.679 46.8779 384.093 46.5696C384.507 46.2614 384.977 46.1504 385.503 46.2368C385.765 46.2694 386.114 46.3128 386.551 46.3672C386.984 46.4003 387.473 46.4376 388.015 46.4791C388.063 45.4631 388.102 44.545 388.131 43.7248C388.179 42.8809 388.182 42.2035 388.141 41.6927C388.119 41.1581 388.301 40.7062 388.686 40.337C389.092 39.9652 389.553 39.7801 390.069 39.7818C390.606 39.7809 391.059 39.9729 391.428 40.3577C391.795 40.7214 391.979 41.1718 391.979 41.709C391.98 42.2462 391.96 42.9579 391.917 43.8442C391.893 44.7067 391.837 45.6592 391.749 46.7014C392.096 46.7237 392.409 46.7393 392.69 46.7481C392.989 46.7332 393.257 46.7327 393.495 46.7467C394.014 46.7696 394.457 46.9628 394.823 47.3265C395.19 47.6902 395.372 48.1301 395.371 48.6461C395.372 49.1832 395.18 49.6364 394.795 50.0056C394.428 50.3511 393.987 50.523 393.471 50.5213C393.215 50.5311 392.914 50.5354 392.57 50.5343C392.224 50.512 391.868 50.5016 391.503 50.5031C391.45 51.1327 391.398 51.7623 391.346 52.3919C391.315 53.0189 391.282 53.6353 391.249 54.2412C391.677 54.232 392.085 54.2253 392.471 54.2213C392.879 54.2147 393.253 54.2013 393.594 54.1812C394.105 54.1406 394.555 54.3008 394.942 54.6619C395.349 54.9992 395.572 55.4233 395.613 55.9342C395.656 56.4662 395.497 56.9261 395.136 57.3139C394.796 57.6991 394.36 57.9134 393.828 57.9566C393.4 57.9659 392.951 57.9882 392.483 58.0238C392.012 58.0381 391.529 58.0432 391.034 58.0389C390.988 59.0761 390.99 59.7958 391.039 60.1982C391.348 62.7394 392.953 63.8334 395.855 63.4803C397.062 63.3333 398.034 62.9356 398.772 62.287C399.507 61.6173 399.904 60.8168 399.962 59.8855C400.084 58.2374 399.25 56.7701 397.46 55.4837C397.035 55.1701 396.801 54.7472 396.758 54.2152C396.733 53.6595 396.9 53.1771 397.259 52.7681C397.596 52.3617 398.021 52.1487 398.535 52.1292C399.048 52.1097 399.517 52.2568 399.942 52.5704C401.265 53.5484 402.24 54.6761 402.869 55.9535C403.494 57.2098 403.772 58.5192 403.701 59.8817C403.618 61.8475 402.917 63.5017 401.598 64.8443C400.278 66.1869 398.517 66.9923 396.315 67.2604Z" fill="#EA4141"/>
<path d="M430.838 63.1185C430.307 63.2564 429.805 63.1911 429.33 62.9225C428.856 62.654 428.55 62.2649 428.412 61.7554C428.275 61.2459 428.341 60.7646 428.61 60.3115C428.878 59.8371 429.267 59.5311 429.777 59.3936C432.133 58.731 433.853 57.6962 434.936 56.2892C436.041 54.8817 436.573 53.1115 436.533 50.9785C436.508 49.6348 436.187 48.4352 435.57 47.3798C434.953 46.3244 434.084 45.4765 432.963 44.8359C431.863 44.1949 430.543 43.814 429.005 43.6933C428.687 47.2838 428.095 50.3993 427.226 53.0399C426.379 55.6588 425.35 57.6943 424.139 59.1464C422.95 60.5767 421.683 61.3044 420.339 61.3294C419.209 61.3504 418.168 61.0391 417.217 60.3953C416.266 59.7515 415.502 58.8162 414.925 57.5894C414.368 56.3622 414.074 54.8848 414.042 53.1571C414.009 51.3867 414.309 49.7275 414.942 48.1795C415.595 46.6097 416.53 45.2268 417.745 44.0306C418.96 42.8345 420.394 41.8904 422.045 41.1982C423.718 40.5057 425.557 40.1407 427.562 40.1035C429.993 40.0582 432.156 40.4874 434.051 41.391C435.966 42.2729 437.483 43.5356 438.602 45.1791C439.72 46.8012 440.3 48.7108 440.341 50.9077C440.398 54.0005 439.614 56.5969 437.989 58.6968C436.385 60.775 434.001 62.2489 430.838 63.1185ZM420.298 57.3935C420.682 57.3864 421.113 57.0583 421.592 56.4093C422.091 55.7385 422.586 54.8012 423.076 53.5972C423.566 52.3932 424.009 50.9767 424.405 49.3477C424.801 47.6974 425.087 45.8785 425.264 43.8908C423.606 44.2417 422.22 44.8863 421.107 45.8245C419.993 46.7413 419.16 47.8343 418.608 49.1035C418.055 50.3513 417.78 51.658 417.784 53.0235C417.811 54.4739 418.056 55.5682 418.517 56.3064C419.001 57.0442 419.594 57.4066 420.298 57.3935Z" fill="#EA4141"/>
<path d="M466.345 67.0208C465.748 67.0055 465.276 66.8483 464.931 66.5493C464.586 66.2503 464.408 65.844 464.397 65.3303C464.404 64.8606 464.58 64.4438 464.923 64.0801C465.265 63.7165 465.693 63.5396 466.205 63.5497C466.804 63.5437 467.257 63.4859 467.563 63.3765C467.89 63.2683 468.139 63.0378 468.31 62.6849C468.503 62.3334 468.675 61.7989 468.825 61.0815C469.009 60.1737 468.993 59.5742 468.775 59.283C468.581 58.9719 468.1 58.7928 467.334 58.7458L466.567 58.6987C466.012 60.4387 465.192 61.9487 464.109 63.2287C463.049 64.4888 461.608 65.5012 459.787 66.2658C459.304 66.4713 458.81 66.5158 458.304 66.3993C457.797 66.304 457.43 66.0144 457.203 65.5302C457.016 65.0913 457.001 64.6415 457.158 64.1809C457.334 63.7429 457.686 63.4118 458.213 63.1876C459.462 62.6872 460.474 62.0439 461.248 61.2579C462.023 60.4719 462.614 59.5463 463.022 58.4813L460.53 58.3284C460.105 58.3023 459.752 58.1311 459.472 57.8147C459.193 57.477 459.067 57.0952 459.093 56.6693L459.103 56.5096L459.003 56.5676C458.643 56.8661 458.216 57.0323 457.722 57.0662C457.251 57.08 456.845 56.9055 456.504 56.5426L456.169 62.0043C456.076 63.5161 455.68 64.5819 454.979 65.2015C454.3 65.8224 453.203 66.1077 451.689 66.0576C451.176 66.0475 450.748 65.893 450.403 65.594C450.078 65.3176 449.908 64.9438 449.894 64.4728C449.862 63.9578 450.005 63.5391 450.324 63.2167C450.666 62.8743 451.072 62.6962 451.543 62.6823C452.102 62.6311 452.46 62.5356 452.619 62.3957C452.798 62.2571 452.902 61.9535 452.931 61.4851L453.354 54.586L450.959 54.4391C450.747 56.4993 450.407 58.3807 449.939 60.0833C449.494 61.7658 448.887 63.2996 448.118 64.6844C447.876 65.1398 447.527 65.4283 447.071 65.5499C446.635 65.6942 446.188 65.6561 445.732 65.4357C445.317 65.2179 445.06 64.8922 444.958 64.4585C444.856 64.0248 444.913 63.6222 445.128 63.2507C446.033 61.7459 446.707 59.9812 447.152 57.9566C447.618 55.9334 447.937 53.5164 448.11 50.7057L448.698 41.1237C448.763 40.059 448.941 39.2471 449.232 38.6878C449.524 38.1073 449.985 37.7295 450.616 37.5544C451.269 37.3594 452.17 37.2971 453.32 37.3677C454.449 37.4369 455.315 37.6076 455.918 37.8797C456.544 38.1318 456.966 38.5638 457.185 39.1757C457.405 39.7663 457.483 40.5939 457.417 41.6586L456.937 49.4839C456.963 49.058 457.134 48.7158 457.449 48.4573C457.765 48.1774 458.126 48.0499 458.53 48.0748L462.044 48.2903C462.236 47.9387 462.418 47.5865 462.59 47.2337C462.762 46.8596 462.924 46.4848 463.075 46.1093L459.402 45.884C458.998 45.8592 458.655 45.6886 458.376 45.3722C458.096 45.0558 457.968 44.6953 457.993 44.2908C458.018 43.8862 458.188 43.5546 458.503 43.2961C458.819 43.0163 459.18 42.8888 459.584 42.9136L461.501 43.0312C461.04 42.8747 460.726 42.5883 460.56 42.1719C460.485 41.9964 460.372 41.7543 460.219 41.4457C460.069 41.1159 459.917 40.7967 459.765 40.4881C459.615 40.1583 459.492 39.8943 459.397 39.6961C459.228 39.3224 459.219 38.9478 459.37 38.5723C459.542 38.1982 459.804 37.9364 460.155 37.7869C460.57 37.6414 460.967 37.623 461.345 37.7317C461.723 37.8404 462.007 38.0929 462.196 38.4892C462.292 38.6661 462.415 38.9301 462.564 39.2812C462.736 39.6124 462.898 39.9429 463.049 40.2727C463.221 40.6039 463.334 40.846 463.389 40.9989C463.557 41.394 463.565 41.7792 463.414 42.1547C463.263 42.5301 462.979 42.8012 462.563 42.9681C462.496 43.0067 462.398 43.0434 462.267 43.0782L464.088 43.1899C464.283 42.4537 464.447 41.6944 464.58 40.9117C464.735 40.1304 464.847 39.3465 464.917 38.5599C464.991 38.0515 465.197 37.658 465.534 37.3795C465.893 37.1023 466.306 36.9994 466.772 37.0707C467.239 37.1207 467.612 37.3146 467.89 37.6523C468.19 37.9912 468.302 38.4256 468.227 38.9553C468.115 39.7393 467.983 40.5006 467.83 41.2393C467.701 41.9581 467.539 42.6749 467.346 43.3897L469.933 43.5484L469.903 43.5145C469.551 43.3219 469.324 43.0195 469.221 42.6071C469.118 42.1946 469.173 41.824 469.386 41.495C469.48 41.3512 469.622 41.1248 469.812 40.8159C470.023 40.5082 470.224 40.1999 470.414 39.891C470.626 39.562 470.78 39.315 470.876 39.1499C471.114 38.7584 471.439 38.5111 471.851 38.4082C472.285 38.3066 472.698 38.3746 473.089 38.6124C473.459 38.8488 473.707 39.1739 473.831 39.5876C473.956 39.98 473.9 40.372 473.662 40.7635C473.496 41.0312 473.249 41.4114 472.919 41.9041C472.591 42.3756 472.333 42.7445 472.146 43.0109C471.894 43.2946 471.614 43.5019 471.306 43.6326L474.437 43.8246C474.862 43.8508 475.205 44.0214 475.463 44.3365C475.744 44.6316 475.872 44.9814 475.848 45.386C475.823 45.7905 475.652 46.1327 475.336 46.4126C475.041 46.6937 474.68 46.8212 474.254 46.7951L470.549 46.5678C470.758 47.35 471.031 48.1149 471.37 48.8624L475.011 49.0857C475.437 49.1118 475.78 49.2824 476.038 49.5975C476.319 49.8926 476.447 50.2531 476.421 50.679C476.396 51.0836 476.225 51.4257 475.909 51.7056C475.614 51.9867 475.253 52.1142 474.827 52.0881L473.262 51.9921C473.639 52.464 474.049 52.9273 474.491 53.3819C474.934 53.8365 475.419 54.2938 475.946 54.7536C476.291 55.0526 476.459 55.4476 476.451 55.9387C476.464 56.4098 476.312 56.8065 475.993 57.1289C475.629 57.4913 475.201 57.6681 474.71 57.6593C474.22 57.6293 473.794 57.4428 473.43 57.0999C471.671 55.4532 470.274 53.6683 469.238 51.7452L463.872 51.4161C462.955 52.7705 461.862 54.0393 460.593 55.2224L463.819 55.4203C463.878 55.1461 463.916 54.8706 463.933 54.5938C463.973 54.297 464.012 54.0108 464.05 53.7353C464.104 53.2043 464.321 52.8115 464.7 52.5569C465.079 52.3023 465.502 52.1893 465.971 52.2181C466.459 52.2694 466.843 52.4639 467.121 52.8016C467.422 53.1193 467.535 53.5537 467.458 54.1047L467.268 55.6319L468.003 55.677C469.238 55.7527 470.207 55.9725 470.912 56.3363C471.639 56.6801 472.117 57.2438 472.347 58.0274C472.577 58.8109 472.586 59.8801 472.375 61.2351C472.122 62.9081 471.746 64.1674 471.245 65.013C470.745 65.8586 470.091 66.4063 469.285 66.6561C468.499 66.9285 467.519 67.05 466.345 67.0208ZM451.211 51.3768L453.542 51.5198L453.789 47.4954L451.457 47.3524L451.211 51.3768ZM451.646 44.2861L453.977 44.4291L454.159 41.4587C454.184 41.0541 454.126 40.7834 453.985 40.6465C453.866 40.4896 453.562 40.3962 453.072 40.3661C452.582 40.3361 452.258 40.391 452.1 40.5309C451.943 40.6495 451.853 40.9111 451.828 41.3157L451.646 44.2861ZM456.937 49.4839L456.647 54.211C456.67 54.191 456.692 54.171 456.715 54.151C456.738 54.131 456.76 54.111 456.783 54.091C457.408 53.6592 457.991 53.2034 458.534 52.7237C459.078 52.2227 459.579 51.7085 460.039 51.181L458.346 51.0771C457.942 51.0523 457.6 50.8817 457.32 50.5653C457.04 50.2489 456.912 49.8884 456.937 49.4839ZM465.525 48.5038L467.921 48.6508C467.794 48.2796 467.678 47.9092 467.572 47.5393C467.489 47.1495 467.406 46.7597 467.323 46.3699L466.429 46.3151C466.172 47.026 465.87 47.7556 465.525 48.5038Z" fill="#EA4141"/>
<path d="M490.915 68.8556C490.383 68.8104 489.95 68.5734 489.617 68.1446C489.281 67.7369 489.125 67.2658 489.149 66.7314C489.195 66.1995 489.421 65.7657 489.829 65.4298C490.26 65.0754 490.74 64.9314 491.27 64.9978C494.307 65.2928 496.53 65.0557 497.938 64.2863C499.37 63.4984 500.199 62.2048 500.424 60.4056C500.549 59.4107 500.321 58.5758 499.739 57.9008C499.178 57.2284 498.375 56.773 497.33 56.5343C496.309 56.2772 495.146 56.2926 493.841 56.5804C492.537 56.8683 491.215 57.4657 489.875 58.3727C489.523 58.6081 489.134 58.7098 488.708 58.6778C488.306 58.6274 487.938 58.4737 487.605 58.2169C487.296 57.9416 487.091 57.6041 486.99 57.2045C486.89 56.8049 486.918 56.4107 487.074 56.0218C487.498 55.0429 487.913 53.8801 488.318 52.5335C488.724 51.1868 489.087 49.8348 489.407 48.4775C488.368 48.3686 487.393 48.257 486.482 48.1428C485.575 48.0075 484.785 47.8761 484.113 47.7488C483.61 47.6428 483.215 47.3674 482.927 46.9227C482.66 46.4807 482.579 46.0084 482.685 45.5057C482.791 45.0029 483.065 44.6181 483.507 44.351C483.952 44.0628 484.426 43.9717 484.928 44.0778C485.619 44.2289 486.418 44.3721 487.325 44.5075C488.254 44.6455 489.217 44.7663 490.215 44.87C490.331 44.2826 490.431 43.7468 490.513 43.2626C490.598 42.7572 490.664 42.314 490.712 41.933C490.779 41.4038 491.004 40.9806 491.388 40.6632C491.795 40.3273 492.265 40.182 492.797 40.2272C493.329 40.2724 493.762 40.4989 494.098 40.9065C494.434 41.3142 494.569 41.7826 494.503 42.3118C494.457 42.6716 494.383 43.0923 494.28 43.5738C494.197 44.058 494.099 44.5832 493.985 45.1495C496.118 45.288 497.98 45.2743 499.57 45.1083C500.091 45.0662 500.545 45.2198 500.931 45.5693C501.341 45.9002 501.557 46.325 501.577 46.8437C501.62 47.3649 501.477 47.82 501.148 48.2088C500.82 48.5977 500.395 48.8131 499.874 48.8552C498.942 48.9104 497.897 48.9298 496.738 48.9134C495.579 48.897 494.381 48.8541 493.142 48.7848C492.92 49.7029 492.677 50.6077 492.415 51.4993C492.155 52.3698 491.906 53.1556 491.667 53.8567C492.938 53.328 494.201 53.0243 495.458 52.9454C496.715 52.8666 497.905 52.9836 499.026 53.2963C500.148 53.609 501.128 54.1082 501.967 54.794C502.805 55.4797 503.43 56.332 503.839 57.3509C504.252 58.3486 504.377 59.4931 504.215 60.7843C503.838 63.7901 502.478 65.9738 500.136 67.3355C497.793 68.6972 494.72 69.2039 490.915 68.8556Z" fill="#EA4141"/>
<path d="M528.162 66.3741C527.742 66.2986 527.401 66.0856 527.139 65.735C526.877 65.3844 526.765 64.9849 526.802 64.5364C526.882 63.7272 526.984 62.8025 527.106 61.7624C527.248 60.726 527.385 59.6667 527.514 58.5846C527.647 57.4814 527.782 56.4326 527.917 55.4382C528.053 54.4438 528.178 53.5668 528.293 52.8071C528.408 52.0475 528.497 51.4892 528.561 51.1322L529.122 48.0142C529.231 47.4053 529.534 46.9286 530.029 46.5842C530.545 46.2435 531.129 46.1317 531.78 46.2487C532.452 46.3695 532.96 46.6776 533.305 47.173C533.67 47.6722 533.798 48.2262 533.689 48.8351L533.128 51.9532C533.064 52.3101 532.943 52.8627 532.765 53.6111C532.608 54.3632 532.42 55.2289 532.201 56.2082C531.981 57.1875 531.742 58.2174 531.483 59.2979C531.248 60.3612 531.007 61.4016 530.759 62.4191C530.511 63.4366 530.284 64.3387 530.077 65.1252C529.977 65.5624 529.743 65.8996 529.375 66.137C529.008 66.3743 528.603 66.4534 528.162 66.3741ZM526.781 74.0589C526.046 73.9268 525.463 73.5511 525.033 72.9318C524.602 72.3126 524.453 71.6355 524.585 70.9006C524.717 70.1657 525.093 69.583 525.712 69.1524C526.331 68.7219 527.008 68.5726 527.743 68.7047C528.478 68.8368 529.061 69.2125 529.491 69.8318C529.922 70.4511 530.071 71.1282 529.939 71.8631C529.807 72.598 529.431 73.1807 528.812 73.6112C528.193 74.0418 527.516 74.191 526.781 74.0589Z" fill="#EA4141"/>
</svg>
