<svg width="251" height="142" viewBox="0 0 251 142" fill="none" xmlns="http://www.w3.org/2000/svg">
<path d="M44.8073 83.0276C42.7254 83.9112 40.8319 84.3017 39.127 84.199C37.4503 84.107 36.0143 83.6388 34.8191 82.7943C33.6152 81.9303 32.7042 80.8068 32.0863 79.424C31.7294 78.6254 31.5274 77.781 31.4801 76.8909C31.4241 75.9812 31.5349 75.0788 31.8125 74.1837C30.4496 75.0031 29.1114 75.7996 27.7982 76.5734C26.485 77.3472 25.3286 78.0275 24.329 78.6143C23.8595 78.8709 23.3744 78.9358 22.8738 78.809C22.384 78.654 22.0108 78.3418 21.7542 77.8722C21.5064 77.4222 21.4458 76.9469 21.5726 76.4462C21.7189 75.9369 22.0214 75.5681 22.4802 75.3397C22.9692 75.0745 23.483 74.7864 24.0217 74.4756C24.5712 74.1366 25.11 73.8257 25.6379 73.5431C26.7551 72.226 27.7463 70.7316 28.6116 69.0598C29.4681 67.3685 30.1773 65.6613 30.7392 63.9382C31.3118 62.1868 31.7201 60.5907 31.9642 59.1497C32.0541 58.6189 32.311 58.2003 32.7349 57.894C33.1588 57.5878 33.6362 57.4796 34.1671 57.5695C34.6698 57.6486 35.0786 57.9099 35.3936 58.3533C35.6999 58.7772 35.8081 59.2546 35.7182 59.7855C35.47 61.3217 34.9773 62.9906 34.2402 64.7921C33.5138 66.5654 32.6606 68.2903 31.6806 69.9666C33.1517 69.0756 34.5644 68.2106 35.9187 67.3718C37.2642 66.5135 38.4335 65.7573 39.4264 65.1033C39.8503 64.797 40.318 64.6932 40.8294 64.7918C41.3515 64.8622 41.756 65.1138 42.0428 65.5464C42.3491 65.9703 42.4573 66.4477 42.3674 66.9786C42.2882 67.4813 42.0324 67.876 41.5997 68.1628C41.1476 68.4583 40.6176 68.7887 40.0096 69.1538C39.4125 69.4907 38.7948 69.8602 38.1566 70.2622C36.9797 70.9751 36.1431 71.7695 35.6466 72.6456C35.161 73.4935 34.918 74.3616 34.9176 75.2496C34.9367 76.129 35.1116 76.9388 35.4423 77.6789C35.9907 78.906 36.9432 79.7304 38.3001 80.1522C39.6676 80.5459 41.3437 80.3226 43.3283 79.4825C43.824 79.2844 44.3157 79.2867 44.8034 79.4893C45.2825 79.6724 45.6211 80.0118 45.8192 80.5075C46.0368 80.9944 46.0443 81.4817 45.8417 81.9695C45.6477 82.4768 45.303 82.8295 44.8073 83.0276ZM25.8093 68.2792L21.6667 66.6955C21.1876 66.5123 20.8393 66.1773 20.6217 65.6903C20.4041 65.2034 20.3825 64.7107 20.557 64.2121C20.7401 63.7331 21.0752 63.3847 21.5621 63.1671C22.049 62.9495 22.532 62.9323 23.0111 63.1155L27.1537 64.6992C27.6522 64.8736 28.0103 65.2043 28.2279 65.6912C28.4455 66.1782 28.4529 66.6655 28.2503 67.1533C28.0759 67.6519 27.7452 68.0099 27.2583 68.2275C26.7713 68.4451 26.2883 68.4623 25.8093 68.2792Z" fill="white"/>
<path d="M70.4214 73.7346C69.9261 73.9701 69.4201 74.0007 68.9036 73.8263C68.3871 73.652 68.0133 73.3276 67.7822 72.8531C67.5512 72.3786 67.525 71.8935 67.7038 71.3979C67.8781 70.8814 68.2025 70.5076 68.677 70.2765C70.866 69.1817 72.3599 67.8414 73.1586 66.2553C73.9783 64.6649 74.1676 62.8261 73.7267 60.7388C73.4489 59.4238 72.9075 58.3063 72.1026 57.3861C71.2977 56.4659 70.2842 55.797 69.0621 55.3792C67.8609 54.957 66.4935 54.8316 64.9598 55.003C65.3249 58.589 65.3298 61.7604 64.9747 64.5174C64.636 67.249 64.009 69.442 63.0938 71.0962C62.1951 72.7251 61.0883 73.6785 59.7733 73.9563C58.6671 74.19 57.5864 74.0803 56.5313 73.6273C55.4762 73.1743 54.5494 72.3998 53.751 71.3038C52.9734 70.2034 52.4061 68.8079 52.0489 67.1172C51.6829 65.3848 51.6647 63.6988 51.9943 62.0593C52.3403 60.3945 52.9974 58.8602 53.9655 57.4564C54.9336 56.0527 56.1633 54.8553 57.6547 53.8643C59.1669 52.8689 60.9041 52.164 62.8661 51.7495C65.2456 51.2468 67.4507 51.2607 69.4815 51.791C71.5288 52.2961 73.2567 53.2502 74.6651 54.6534C76.0691 56.0357 76.9983 57.8018 77.4524 59.9517C78.0918 62.9783 77.8113 65.6758 76.611 68.0444C75.4271 70.3877 73.3639 72.2844 70.4214 73.7346ZM58.9911 70.0987C59.3668 70.0193 59.7285 69.6158 60.0763 68.8882C60.4406 68.1353 60.7497 67.1216 61.0037 65.8469C61.2577 64.5722 61.4259 63.0976 61.5082 61.4231C61.5862 59.7277 61.5244 57.8874 61.3231 55.9021C59.7612 56.5591 58.5219 57.4533 57.6052 58.5845C56.6842 59.6948 56.072 60.9253 55.7686 62.2758C55.4607 63.6055 55.4375 64.9405 55.6988 66.2807C55.9987 67.7001 56.4449 68.7287 57.0376 69.3666C57.6511 70.0002 58.3023 70.2442 58.9911 70.0987Z" fill="white"/>
<path d="M94.2504 71.7634C93.7823 71.7971 93.3878 71.665 93.0669 71.3673C92.7689 71.0893 92.6045 70.7375 92.5739 70.312C92.5418 69.8651 92.6533 69.4828 92.9084 69.165C93.1834 68.8244 93.5549 68.6372 94.023 68.6036L101.587 68.0592L101.365 64.9632L96.9919 65.2779C96.5238 65.3115 96.1301 65.1902 95.8108 64.9137C95.5112 64.6144 95.3461 64.252 95.3154 63.8265C95.2833 63.3796 95.3948 62.9973 95.65 62.6795C95.9249 62.3389 96.2964 62.1517 96.7645 62.118L101.137 61.8033L100.928 58.8989L99.9388 58.9701C98.0876 59.1033 96.7324 58.8479 95.8733 58.2039C95.0126 57.5386 94.5195 56.3336 94.394 54.5888L94.0356 49.6096C93.9101 47.8648 94.2263 46.6122 94.9843 45.8519C95.7408 45.0702 97.0447 44.6128 98.8959 44.4795L104.386 44.0844C106.237 43.9512 107.593 44.2172 108.454 44.8825C109.334 45.525 109.837 46.7186 109.962 48.4634L110.321 53.4426C110.446 55.1874 110.12 56.4514 109.342 57.2346C108.584 57.9949 107.28 58.4417 105.429 58.575L104.471 58.6439L104.68 61.5484L109.372 61.2107C109.861 61.1755 110.256 61.3075 110.555 61.6068C110.875 61.8832 111.051 62.2449 111.083 62.6917C111.113 63.1173 110.991 63.5004 110.716 63.841C110.461 64.1588 110.089 64.3353 109.599 64.3705L104.907 64.7082L105.13 67.8042L111.354 67.3563C111.844 67.3211 112.238 67.4531 112.538 67.7523C112.836 68.0303 113.001 68.3927 113.033 68.8396C113.064 69.2652 112.951 69.6368 112.696 69.9546C112.443 70.2937 112.071 70.4809 111.582 70.5161L94.2504 71.7634ZM85.321 69.3902C84.736 69.5821 84.2222 69.5762 83.7798 69.3728C83.3571 69.1466 83.0644 68.7933 82.9015 68.3131C82.7127 67.7706 82.7322 67.2987 82.96 66.8973C83.209 66.4944 83.6056 66.2092 84.1496 66.0417C84.5676 65.9047 85.0174 65.7653 85.4991 65.6237C85.9809 65.4821 86.4725 65.3291 86.974 65.1647L86.4847 58.3663L84.3462 58.5202C83.8356 58.5569 83.4198 58.4264 83.0989 58.1287C82.7781 57.8309 82.6015 57.4587 82.5694 57.0118C82.5372 56.565 82.6586 56.1712 82.9335 55.8306C83.2085 55.49 83.6013 55.3013 84.112 55.2646L86.2504 55.1107L85.8324 49.3017L83.4705 49.4717C82.9598 49.5084 82.544 49.3779 82.2232 49.0802C81.9023 48.7825 81.725 48.3995 81.6913 47.9314C81.6592 47.4846 81.7805 47.0908 82.0555 46.7502C82.3304 46.4096 82.7232 46.2209 83.2339 46.1842L91.5005 45.5893C91.9899 45.554 92.395 45.6853 92.7159 45.983C93.0368 46.2808 93.2133 46.6531 93.2454 47.0999C93.2791 47.568 93.1585 47.9724 92.8836 48.313C92.6087 48.6536 92.2265 48.8415 91.7371 48.8767L89.3752 49.0467L89.7933 54.8557L91.6764 54.7202C92.1871 54.6834 92.6028 54.8139 92.9237 55.1117C93.2446 55.4094 93.4211 55.7817 93.4532 56.2285C93.4854 56.6754 93.364 57.0691 93.0891 57.4097C92.8142 57.7503 92.4214 57.939 91.9107 57.9758L90.0276 58.1113L90.4525 64.016C90.8704 63.879 91.2777 63.7427 91.6743 63.6073C92.0694 63.4505 92.4334 63.3067 92.7662 63.1758C93.2448 62.9916 93.6719 62.9823 94.0474 63.1477C94.423 63.3132 94.6906 63.6148 94.8505 64.0524C95.1975 65.0113 94.8521 65.7099 93.8142 66.1482C93.1091 66.4556 92.2369 66.8178 91.1975 67.2348C90.1778 67.6291 89.1369 68.0248 88.0746 68.4221C87.0109 68.7981 86.093 69.1208 85.321 69.3902ZM104.262 55.7394L104.9 55.6935C105.73 55.6337 106.285 55.4655 106.564 55.1887C106.842 54.8906 106.955 54.3799 106.903 53.6564L106.825 52.5712L104.048 52.7711L104.262 55.7394ZM100.113 56.038L100.719 55.9944L100.506 53.026L97.7607 53.2236L97.8388 54.3088C97.8908 55.0322 98.0758 55.5216 98.3936 55.7767C98.7098 56.0106 99.2829 56.0977 100.113 56.038ZM103.846 49.9623L106.623 49.7625L106.55 48.7411C106.498 48.0177 106.313 47.539 105.997 47.3051C105.679 47.0499 105.105 46.9522 104.276 47.0119L103.637 47.0578L103.846 49.9623ZM97.5585 50.4148L100.303 50.2173L100.094 47.3128L99.488 47.3565C98.6581 47.4162 98.1042 47.5951 97.8262 47.8931C97.5467 48.1699 97.4329 48.67 97.485 49.3935L97.5585 50.4148Z" fill="white"/>
<path d="M128.002 71.1188C125.656 71.0468 123.787 70.7439 122.395 70.2103C121.024 69.6773 120.049 68.7829 119.468 67.5272C118.888 66.2714 118.632 64.5134 118.702 62.2531L118.846 57.5514C118.915 55.2911 119.278 53.5627 119.934 52.3663C120.59 51.1485 121.619 50.3157 123.02 49.8679C124.442 49.4206 126.326 49.233 128.672 49.3051L129.759 49.3385L129.927 43.8691C129.946 43.2507 130.153 42.7661 130.548 42.4154C130.964 42.0654 131.45 41.8989 132.004 41.9159C132.559 41.9329 133.022 42.1286 133.395 42.5028C133.768 42.8771 133.944 43.3735 133.925 43.9918L133.757 49.4613L134.813 49.4937C137.18 49.5664 139.049 49.8692 140.42 50.4022C141.812 50.9359 142.798 51.8306 143.379 53.0863C143.96 54.3207 144.216 56.0681 144.146 58.3283L144.002 63.0301C143.932 65.2904 143.569 67.0294 142.913 68.2471C142.257 69.4649 141.217 70.2974 139.795 70.7446C138.394 71.1925 136.51 71.3801 134.143 71.3074L128.002 71.1188ZM128.045 67.6305L129.196 67.6658L129.376 61.8126L122.723 61.6083L122.696 62.5039C122.655 63.8472 122.772 64.886 123.048 65.6202C123.347 66.3336 123.886 66.8411 124.666 67.1425C125.469 67.4233 126.595 67.5859 128.045 67.6305ZM133.195 67.7886L134.346 67.824C135.796 67.8685 136.919 67.7749 137.716 67.5433C138.514 67.2903 139.073 66.8166 139.393 66.1221C139.735 65.4069 139.926 64.3776 139.968 63.0343L139.995 62.1387L133.374 61.9354L133.195 67.7886ZM122.831 58.0899L129.484 58.2943L129.652 52.8248L128.501 52.7895C127.051 52.7449 125.916 52.8488 125.098 53.1012C124.301 53.3328 123.732 53.7956 123.39 54.4894C123.07 55.1839 122.889 56.2135 122.847 57.5782L122.831 58.0899ZM133.482 58.417L140.103 58.6204L140.119 58.1086C140.161 56.7439 140.033 55.7048 139.734 54.9913C139.458 54.2785 138.929 53.782 138.147 53.5019C137.367 53.2005 136.252 53.0275 134.802 52.983L133.65 52.9476L133.482 58.417Z" fill="white"/>
<path d="M172.059 73.4551C168.593 73.5427 165.62 73.2555 163.139 72.5938C160.656 71.9532 158.795 70.931 157.556 69.527C156.338 68.1254 155.847 66.3538 156.085 64.2123C156.292 62.3464 156.935 60.808 158.014 59.5969C159.117 58.3671 160.559 57.3574 162.343 56.568C162.286 55.7246 162.179 54.7576 162.021 53.6668C161.863 52.5761 161.693 51.4947 161.512 50.4228C161.333 49.3297 161.166 48.4098 161.013 47.663C160.919 47.1588 161.025 46.6876 161.331 46.2494C161.658 45.8135 162.074 45.5485 162.578 45.4542C163.125 45.3646 163.606 45.4824 164.02 45.8074C164.458 46.1136 164.724 46.5294 164.815 47.0548C165.039 48.3246 165.241 49.6992 165.42 51.1787C165.623 52.6393 165.768 54.0398 165.855 55.3803C166.918 55.0904 168.039 54.85 169.219 54.6591C170.402 54.4469 171.623 54.2713 172.884 54.1322C173.407 54.0615 173.876 54.1886 174.29 54.5137C174.705 54.8388 174.937 55.2616 174.987 55.7823C175.034 56.3241 174.895 56.8024 174.57 57.217C174.247 57.6105 173.825 57.832 173.305 57.8815C170.593 58.1386 168.375 58.4934 166.651 58.9459C164.929 59.3772 163.583 59.8932 162.615 60.4941C161.671 61.0761 160.987 61.7193 160.566 62.4237C160.168 63.1093 159.925 63.8444 159.838 64.6289C159.652 66.304 160.538 67.6043 162.496 68.53C164.456 69.4344 167.624 69.8075 171.998 69.6492C172.538 69.6233 172.99 69.8023 173.355 70.1862C173.744 70.5514 173.942 70.9919 173.949 71.5078C173.954 72.045 173.775 72.4973 173.412 72.8649C173.047 73.2536 172.596 73.4504 172.059 73.4551Z" fill="white"/>
<path d="M196.738 77.5445C195.057 77.2488 193.774 76.6008 192.889 75.6003C192.028 74.5825 191.734 73.2962 192.008 71.7414C192.27 70.2496 192.981 69.1617 194.141 68.4776C195.326 67.7762 196.812 67.5826 198.597 67.8967C199.144 67.9927 199.695 68.1222 200.251 68.285C200.404 67.2938 200.561 66.2167 200.722 65.0537C200.908 63.8734 201.087 62.6702 201.259 61.4442C200.135 61.3114 199.045 61.1631 197.991 60.9994C196.958 60.8393 196.065 60.6823 195.312 60.5282C194.791 60.4148 194.383 60.1481 194.088 59.7281C193.819 59.2908 193.74 58.8114 193.854 58.2898C193.985 57.7929 194.258 57.4078 194.674 57.1344C195.115 56.8438 195.586 56.7533 196.087 56.863C196.818 57.0133 197.678 57.1753 198.665 57.349C199.678 57.5054 200.736 57.6481 201.839 57.7772C201.959 56.9751 202.083 56.2064 202.212 55.471C202.342 54.7356 202.464 54.0422 202.578 53.3909C202.671 52.8656 202.927 52.4558 203.347 52.1614C203.77 51.8461 204.245 51.7346 204.77 51.827C205.317 51.923 205.735 52.1916 206.026 52.6326C206.32 53.0526 206.421 53.5252 206.329 54.0505C206.214 54.7018 206.096 55.3742 205.974 56.0675C205.873 56.7646 205.76 57.4703 205.634 58.1847C206.573 58.2632 207.429 58.327 208.2 58.376C208.992 58.4286 209.658 58.4592 210.198 58.4675C210.721 58.4511 211.165 58.6375 211.529 59.0265C211.898 59.3946 212.08 59.8381 212.075 60.3572C212.07 60.8762 211.874 61.3181 211.485 61.6829C211.117 62.0514 210.675 62.2228 210.159 62.1972C209.556 62.1778 208.804 62.143 207.903 62.0928C207.027 62.0254 206.077 61.945 205.054 61.8517C204.838 63.3298 204.63 64.7554 204.432 66.1285C204.234 67.5016 204.053 68.7153 203.889 69.7695C204.978 70.351 205.981 70.993 206.897 71.6956C207.834 72.402 208.631 73.1053 209.288 73.8056C209.652 74.1947 209.831 74.6592 209.822 75.1993C209.818 75.7183 209.631 76.1621 209.263 76.5306C208.895 76.8991 208.439 77.0897 207.895 77.1023C207.373 77.1187 206.929 76.9324 206.564 76.5433C206.109 76.0517 205.6 75.5614 205.036 75.0723C204.472 74.5833 203.88 74.1326 203.259 73.7202C202.484 76.8979 200.31 78.1726 196.738 77.5445ZM186.238 75.7302C185.698 75.7219 185.243 75.5337 184.875 75.1656C184.507 74.7976 184.314 74.3522 184.298 73.8294C184.294 73.1139 184.365 72.1518 184.513 70.9431C184.661 69.7344 184.855 68.3823 185.096 66.8868C185.338 65.3914 185.609 63.8471 185.911 62.2539C186.238 60.6435 186.576 59.0893 186.926 57.5913C187.28 56.0723 187.629 54.704 187.973 53.4865C188.342 52.2518 188.689 51.2623 189.015 50.5181C189.23 50.0361 189.582 49.6972 190.071 49.5017C190.56 49.3061 191.046 49.3158 191.528 49.5305C192.01 49.7453 192.349 50.0973 192.544 50.5865C192.74 51.0758 192.73 51.5615 192.515 52.0436C192.19 52.7877 191.86 53.737 191.527 54.8914C191.194 56.0459 190.862 57.3196 190.53 58.7125C190.202 60.0845 189.888 61.5021 189.587 62.9655C189.308 64.4325 189.056 65.8613 188.834 67.2517C188.614 68.6211 188.437 69.8786 188.3 71.0243C188.188 72.1527 188.133 73.0851 188.133 73.8217C188.149 74.3444 187.963 74.7882 187.574 75.1529C187.206 75.5214 186.761 75.7139 186.238 75.7302ZM197.365 73.9831C198.667 74.2122 199.428 73.7069 199.646 72.4673C199.657 72.4043 199.661 72.3184 199.658 72.2096C199.677 72.1046 199.697 71.989 199.719 71.8629C199.111 71.626 198.482 71.4503 197.83 71.3357C197.179 71.2212 196.673 71.2623 196.314 71.459C195.975 71.6594 195.771 71.9592 195.701 72.3584C195.631 72.7576 195.722 73.0986 195.976 73.3815C196.229 73.6643 196.692 73.8649 197.365 73.9831Z" fill="white"/>
<path d="M219.074 80.8853C218.43 80.7364 217.921 80.378 217.549 79.8102C217.202 79.2265 217.103 78.6124 217.252 77.9681C217.401 77.3237 217.757 76.8258 218.32 76.4742C218.909 76.1066 219.525 75.9973 220.169 76.1462C220.814 76.2952 221.309 76.6615 221.656 77.2453C222.028 77.8131 222.14 78.4191 221.991 79.0635C221.842 79.7078 221.474 80.2138 220.885 80.5813C220.322 80.9329 219.718 81.0342 219.074 80.8853ZM236.752 84.9714C236.108 84.8225 235.61 84.4665 235.258 83.9035C234.911 83.3198 234.812 82.7057 234.961 82.0614C235.11 81.417 235.466 80.9191 236.029 80.5675C236.597 80.1951 237.203 80.0834 237.847 80.2324C238.512 80.3861 239.018 80.7548 239.365 81.3386C239.717 81.9016 239.818 82.5052 239.669 83.1496C239.52 83.7939 239.162 84.3023 238.594 84.6746C238.031 85.0262 237.417 85.1252 236.752 84.9714ZM227.929 82.932C227.284 82.783 226.776 82.4247 226.403 81.8569C226.057 81.2731 225.958 80.6591 226.107 80.0147C226.256 79.3704 226.612 78.8724 227.175 78.5208C227.763 78.1533 228.38 78.044 229.024 78.1929C229.668 78.3418 230.164 78.7082 230.511 79.2919C230.862 79.8549 230.964 80.4586 230.815 81.1029C230.666 81.7473 230.307 82.2556 229.74 82.628C229.177 82.9796 228.573 83.0809 227.929 82.932Z" fill="white"/>
</svg>
