<svg width="296" height="177" viewBox="0 0 296 177" fill="none" xmlns="http://www.w3.org/2000/svg">
<path d="M18.8832 77.1697C18.973 77.5101 18.9213 78.0036 18.5346 78.1058C18.2871 78.1711 18.0174 78.0272 17.948 77.7642C17.9071 77.6095 17.995 77.5036 17.9705 77.4108C17.9664 77.3953 17.9468 77.3839 17.9427 77.3684C17.9109 77.3107 17.774 77.231 17.7195 77.2123C16.8403 76.766 14.9583 76.7831 14.0112 76.7684C13.7938 76.7596 13.5941 76.6303 13.5369 76.4138C13.4716 76.1662 13.6309 75.8925 13.8939 75.823C13.9249 75.8148 13.9713 75.8026 14.0063 75.8099C15.0617 75.7959 18.4991 75.7156 18.8832 77.1697ZM19.3368 80.9554C19.4063 81.2184 19.2583 81.4726 18.9953 81.542C18.7632 81.6033 18.5131 81.4708 18.4209 81.2469C17.9116 80.885 14.8749 81.0415 14.1256 81.0243C13.8927 81.0196 13.7086 80.8862 13.6514 80.6696C13.5819 80.4066 13.7299 80.1524 13.9774 80.087C14.0238 80.0748 14.0703 80.0625 14.1053 80.0698C14.7804 80.057 15.471 80.0401 16.1502 80.0428C16.9149 80.056 19.0753 79.9653 19.3368 80.9554ZM19.9063 84.9918C19.9757 85.2548 19.8278 85.509 19.5648 85.5784C19.0388 85.7173 16.6192 85.5785 16.0483 85.5473C15.3959 85.521 14.7395 85.4792 14.0912 85.4683C13.8583 85.4637 13.6669 85.3653 13.6015 85.1178C13.5361 84.8703 13.68 84.6006 13.943 84.5311C14.1751 84.4698 15.7713 84.5613 16.0898 84.5765L18.0818 84.6627C18.4817 84.673 18.9207 84.706 19.3351 84.6462C19.5908 84.6117 19.8368 84.7288 19.9063 84.9918ZM39.1979 79.0863C39.2632 79.3338 39.1039 79.6075 38.8409 79.677C38.779 79.6933 38.713 79.6942 38.643 79.6796C37.4294 79.4705 34.9371 78.2422 33.9185 77.5183C33.307 78.5237 32.6841 79.5488 32.1548 80.6153C32.0223 80.8654 31.9052 81.1114 31.7923 81.3729C31.7167 81.5253 31.6761 81.685 31.6005 81.8373C31.5249 81.9897 31.437 82.0956 31.2669 82.1405C31.0193 82.2059 30.7415 82.0311 30.6761 81.7835C30.6516 81.6907 30.658 81.5897 30.684 81.5001C30.8854 80.8843 31.2302 80.2471 31.5408 79.6687C32.166 78.5272 32.8459 77.4044 33.5298 76.297C34.0047 75.5262 35.4532 73.2406 35.6447 72.4619C34.8587 72.3054 33.0902 72.6897 32.3167 72.894C31.4349 73.1269 30.256 73.4878 29.5219 74.0292C29.4682 74.0765 29.4104 74.1083 29.3485 74.1246C29.101 74.19 28.8273 74.0306 28.7619 73.7831C28.7088 73.582 28.7958 73.4101 28.9414 73.2723C29.5281 72.7368 31.329 72.1619 32.1025 71.9576C32.8915 71.7493 36.272 70.8896 36.5948 72.1117C36.7786 72.8079 35.745 74.4709 35.4148 75.038L34.4162 76.7083C35.3957 77.4095 36.9698 78.1688 38.1118 78.5456C38.3456 78.6163 38.5753 78.6715 38.805 78.7266C38.9997 78.7745 39.1448 78.8851 39.1979 79.0863ZM56.4851 69.2254C56.5954 69.6431 56.8017 70.8628 56.2138 71.0181C55.9663 71.0835 55.6885 70.9086 55.6231 70.6611C55.6027 70.5837 55.6018 70.5178 55.6164 70.4477C55.678 70.117 55.6427 69.7954 55.5569 69.4705C55.467 69.1302 55.254 68.5742 54.9566 68.3879C54.8393 68.3196 54.7643 68.2236 54.7275 68.0844C54.6621 67.8368 54.8256 67.5785 55.0731 67.5132C55.7692 67.3293 56.3544 68.7304 56.4851 69.2254ZM49.4439 73.8319C49.4848 73.9866 49.4556 74.1267 49.3563 74.2522C49.0554 74.6792 48.1056 75.3438 47.6105 75.4745C46.9453 75.6502 46.0047 74.6575 45.6151 74.2473C45.1822 73.799 43.9561 72.3521 43.805 71.7797C43.7396 71.5322 43.899 71.2584 44.1465 71.1931C44.3786 71.1318 44.5896 71.2415 44.7087 71.4418C44.8595 71.6998 45.0104 71.9578 45.1768 72.2118C45.5682 72.7538 46.8301 74.274 47.4273 74.53C47.8368 74.3887 48.3047 73.9673 48.6033 73.6568C48.6798 73.5704 48.749 73.519 48.8573 73.4904C49.1202 73.421 49.3785 73.5844 49.4439 73.8319ZM69.9272 62.6637C69.9967 62.9267 69.8487 63.1809 69.5857 63.2503C69.4774 63.2789 69.361 63.2766 69.2477 63.2238C68.7623 63.203 67.5557 63.5217 67.0607 63.6524C66.8132 63.7178 66.5697 63.7986 66.3222 63.864C66.4258 64.9454 66.3974 66.0285 66.4855 67.114L66.5164 67.1058C66.6402 67.0731 66.7712 67.0054 66.895 66.9728C67.1962 66.8601 67.5015 66.7629 67.8109 66.6812C68.8164 66.4157 70.2276 66.3078 70.5667 67.5918C70.9344 68.984 69.9653 70.8286 69.2781 71.9864C69.0691 72.323 68.8528 72.6945 68.6243 73.0196C68.5633 73.1019 68.4363 73.1851 68.3435 73.2096C68.096 73.275 67.819 73.1661 67.7495 72.9031C67.7127 72.7639 67.7574 72.6197 67.8257 72.5024C68.5056 71.3796 69.9899 69.1673 69.6385 67.8369C69.4792 67.2336 68.4892 67.495 68.0715 67.6053C67.4991 67.7565 66.9399 68.02 66.3829 68.1671C65.9498 68.2815 65.7184 68.0944 65.6121 67.6921C65.4283 66.996 65.4553 64.3411 65.3753 64.1637C64.9968 64.2967 64.6027 64.4339 64.2601 64.6402C64.2177 64.6679 64.1754 64.6957 64.1135 64.712C63.8505 64.7815 63.6077 64.6139 63.5383 64.3509C63.4852 64.1498 63.5526 63.9665 63.7333 63.8361C64.0987 63.5906 64.9177 63.3081 65.3468 63.1783C65.3261 62.7866 65.2147 61.9886 65.7097 61.8579C65.9727 61.7884 66.231 61.9519 66.2963 62.1994C66.3413 62.3695 66.2951 62.6962 66.2937 62.8786C67.0517 62.6784 67.8056 62.4627 68.5686 62.344C68.9325 62.281 69.5904 62.1403 69.8554 62.5172C69.8832 62.5595 69.915 62.6173 69.9272 62.6637ZM89.3211 55.3907C89.3905 55.6537 89.2425 55.9079 88.9795 55.9774C88.7475 56.0387 88.5283 55.898 88.4247 55.6936C88.3211 55.4893 87.9297 54.9473 87.897 54.8235C87.8317 54.576 87.9756 54.3063 88.2231 54.241C88.3933 54.196 88.5725 54.248 88.7061 54.3782C88.8634 54.5352 89.2639 55.1742 89.3211 55.3907ZM87.6911 56.8637C87.7524 57.0958 87.5971 57.385 87.3496 57.4504C87.1176 57.5117 86.8911 57.406 86.7875 57.2017C86.6839 56.9973 86.5452 56.7857 86.3993 56.6091C86.352 56.5554 86.3202 56.4976 86.3039 56.4358C86.2344 56.1728 86.3938 55.899 86.6413 55.8336C86.827 55.7846 87.0257 55.848 87.148 55.9977C87.2703 56.1474 87.6421 56.6781 87.6911 56.8637ZM87.1673 60.3945C87.2327 60.642 87.0733 60.9158 86.8258 60.9812C86.5628 61.0506 86.3086 60.9026 86.2391 60.6396C86.0961 60.0982 83.5049 60.1868 83.1172 60.2229C82.6132 60.2568 82.1018 60.3256 81.6018 60.3749C81.3616 60.4053 81.1424 60.2646 81.0811 60.0325C81.0117 59.7695 81.1711 59.4958 81.4227 59.4459L81.4845 59.4295C82.6961 59.1923 86.7343 58.7547 87.1673 60.3945ZM88.995 65.3729C89.0604 65.6204 88.9424 65.8005 88.7422 65.9195C88.0992 66.3045 87.2647 66.591 86.5376 66.7831C85.0061 67.1875 83.2879 67.2607 81.75 66.889C81.4543 66.8347 81.135 66.7535 80.8694 66.6251C80.7211 66.565 80.6266 66.4575 80.5857 66.3028C80.5204 66.0553 80.6643 65.7856 80.9273 65.7162C81.0355 65.6876 81.1211 65.6981 81.2302 65.7355C81.4836 65.8175 81.741 65.915 82.0057 65.9775C83.3839 66.3086 84.9043 66.238 86.2657 65.8785C86.9773 65.6906 87.6489 65.4139 88.3042 65.0754C88.331 65.0518 88.3774 65.0395 88.4084 65.0313C88.6713 64.9619 88.9296 65.1253 88.995 65.3729ZM106.943 49.744C107.009 49.9915 106.849 50.2653 106.602 50.3307C106.401 50.3838 106.268 50.3195 106.13 50.1739C105.882 49.9249 105.481 50.0971 105.363 49.6485C105.297 49.4009 105.426 49.1353 105.689 49.0659C106.029 48.976 106.845 49.3727 106.943 49.744ZM105.764 51.8592C105.83 52.1067 105.67 52.3804 105.423 52.4458C105.237 52.4948 104.519 52.221 104.348 52.134C104.23 52.0657 104.12 51.9624 104.083 51.8232C104.022 51.5911 104.182 51.3173 104.429 51.252C104.63 51.1989 105.212 51.459 105.446 51.5296C105.605 51.5702 105.724 51.7045 105.764 51.8592ZM107.299 58.4209C107.364 58.6684 107.216 58.9226 106.969 58.988C106.798 59.0329 106.639 58.9924 106.509 58.8776C105.932 58.3846 105.359 57.9071 104.771 57.4336C104.273 57.0521 103.768 56.7056 103.27 56.3241C103.187 56.2631 103.112 56.1671 103.084 56.0588C103.018 55.8113 103.162 55.5416 103.425 55.4721C103.565 55.4354 103.705 55.4646 103.826 55.5483C104.566 56.0314 105.264 56.6082 105.959 57.1695C106.335 57.4673 106.853 57.8602 107.175 58.2052C107.242 58.2703 107.278 58.3436 107.299 58.4209ZM101.893 58.1275C102.154 59.1176 101.975 60.5714 101.619 61.5425C101.466 61.9636 101.206 62.5453 100.726 62.672C100.309 62.7823 99.3156 62.5315 99.193 62.0674C99.1277 61.8199 99.2716 61.5502 99.5346 61.4807C99.8749 61.3909 100.116 61.7408 100.47 61.7633C100.979 61.2482 101.183 59.0761 100.995 58.3645C100.963 58.2407 100.91 58.1056 100.831 57.9941C100.479 57.4748 99.2365 57.7202 98.7219 57.8396C98.3208 60.0803 97.4733 63.2001 96.2802 65.1369C96.2078 65.2387 96.1118 65.3137 95.9881 65.3464C95.7405 65.4118 95.4822 65.2483 95.4169 65.0008C95.3842 64.8771 95.4061 64.772 95.4589 64.6587C95.6598 64.2913 95.8606 63.9238 96.0419 63.545C96.8149 61.8349 97.3336 59.9769 97.705 58.1247C97.3956 58.2064 97.0789 58.3231 96.7695 58.4048C96.522 58.4702 96.2523 58.3263 96.187 58.0787C96.1175 57.8158 96.2427 57.6006 96.4976 57.5003C96.9185 57.3395 97.4444 57.2006 97.893 57.0821C97.9456 56.6545 97.9827 56.231 98.0507 55.7993C98.0791 55.5932 98.1856 55.4327 98.4022 55.3755C98.6497 55.3102 98.9235 55.4695 98.9888 55.717C99.0297 55.8717 98.9041 56.6496 98.8717 56.8402C100.153 56.6176 101.496 56.627 101.893 58.1275ZM123.262 47.3706C123.332 47.6336 123.378 47.9357 123.417 48.2068C123.623 49.4266 123.823 51.3101 123.333 52.4653C123.19 52.8009 123.019 53.0283 122.727 53.2378C122.684 53.2656 122.642 53.2933 122.596 53.3055C122.364 53.3668 122.109 53.2188 122.048 52.9868C121.991 52.7702 122.078 52.5983 122.243 52.4719C123.065 51.8246 122.654 48.8883 122.463 47.9788C122.057 48.0695 121.666 48.1562 121.264 48.2624C121.291 49.4302 120.991 52.6204 120.641 53.6729C120.585 53.8366 120.477 53.9312 120.307 53.9761C120.075 54.0374 119.821 53.8894 119.759 53.6574C119.735 53.5645 119.734 53.4986 119.76 53.409C120.128 51.9216 120.352 50.0092 120.362 48.4839C120.026 48.5893 119.67 48.6832 119.33 48.7731C119.169 50.1064 118.923 51.4291 118.711 52.7592C118.676 53.0003 118.648 53.2723 118.597 53.5175C118.549 53.7122 118.466 53.8336 118.264 53.8867C118.017 53.9521 117.782 53.8154 117.717 53.5679C117.656 53.3359 118.301 49.6405 118.383 49.0728C117.912 49.2304 117.44 49.388 117.001 49.6033L116.802 51.2942L116.749 51.9701C116.72 52.1762 116.61 52.3213 116.409 52.3744C116.161 52.4397 115.927 52.3031 115.861 52.0556C115.796 51.8081 116.131 49.0055 116.188 48.5934L116.327 47.3652C116.344 47.1787 116.357 46.9767 116.389 46.7861C116.422 46.5955 116.532 46.4505 116.733 46.3974C116.965 46.3361 117.216 46.4686 117.277 46.7007C117.326 46.8863 117.139 48.3092 117.107 48.5657C118.2 48.1283 119.36 47.8219 120.505 47.5196C120.892 47.4174 122.419 46.9975 122.788 47.0159C123.005 47.0247 123.201 47.1385 123.262 47.3706ZM126.402 55.6265C126.468 55.874 126.32 56.1282 126.088 56.1895C125.887 56.2426 125.711 56.1401 125.588 55.9904C125.308 55.6176 124.191 54.8368 123.758 54.6369C123.625 54.5726 123.535 54.4807 123.498 54.3415C123.433 54.0939 123.565 53.8438 123.813 53.7784C123.905 53.7539 124.006 53.7604 124.1 53.8018C124.565 53.9936 126.284 55.1778 126.402 55.6265ZM122.724 56.5483C122.789 56.7958 122.633 57.0191 122.385 57.0844C122.277 57.113 122.161 57.1107 122.063 57.0538C121.719 56.8798 120.799 55.6501 120.701 55.2788C120.635 55.0313 120.768 54.7811 121.015 54.7158C121.247 54.6545 121.462 54.7797 121.551 54.9881C121.666 55.2389 122.299 56.1309 122.499 56.2602C122.616 56.3285 122.687 56.4091 122.724 56.5483ZM124.705 56.72C125.028 57.9421 124.24 59.4079 123.003 59.7347C122.245 59.9349 121.279 59.6605 120.618 59.2889C119.761 58.8034 119.13 58.0433 118.877 57.0842C118.816 56.8522 118.944 56.5866 119.192 56.5212C119.439 56.4559 119.694 56.6038 119.759 56.8514C119.947 57.563 120.416 58.1505 121.058 58.5108C121.542 58.7799 122.244 58.9918 122.785 58.8488C123.528 58.6528 124.016 57.68 123.824 56.9529C123.758 56.7054 123.91 56.4666 124.158 56.4013C124.39 56.34 124.644 56.488 124.705 56.72ZM116.469 53.6659C116.534 53.9134 116.397 54.1481 116.15 54.2135C116.026 54.2461 115.921 54.2242 115.808 54.1714C115.374 53.9715 114.922 53.8261 114.451 53.7353C114.861 55.3482 115.255 56.9652 115.633 58.5863L115.954 59.9908C115.996 60.2115 116.089 60.5013 116.1 60.7302C116.108 61.0095 115.986 61.1741 115.723 61.2436C115.506 61.3007 115.259 61.1177 115.221 60.9125L115.209 60.8661C114.858 59.2214 114.475 57.5848 114.077 55.9523C113.552 53.8403 113.047 51.7396 112.492 49.6358C112.43 49.4037 112.578 49.1495 112.81 49.0882C113.058 49.0229 113.293 49.1595 113.358 49.407C113.652 50.5208 113.935 51.6542 114.214 52.7721C114.676 52.8319 115.879 53.1265 116.263 53.3892C116.365 53.4616 116.436 53.5422 116.469 53.6659ZM117.847 56.0655C117.855 56.0965 117.867 56.1429 117.86 56.1779C117.866 56.888 117.906 57.6055 117.958 58.3033C117.979 58.695 117.992 59.1218 118.079 59.5126C118.133 59.7797 118.038 59.9866 117.76 60.0601C117.512 60.1255 117.278 59.9889 117.212 59.7414C117.065 59.1845 116.913 56.7919 116.948 56.1705C116.957 55.9531 117.079 55.7885 117.28 55.7354C117.527 55.67 117.782 55.818 117.847 56.0655ZM113.272 53.7819C113.297 53.8747 113.279 53.9953 113.237 54.0889C113.026 54.5419 112.799 54.999 112.572 55.4561L112.105 56.5062C112.041 56.639 111.945 56.714 111.806 56.7508C111.558 56.8161 111.323 56.6795 111.258 56.432C111.229 56.3237 111.236 56.2227 111.277 56.129C111.624 55.3095 112.016 54.4777 112.421 53.6922C112.489 53.5749 112.581 53.4844 112.721 53.4477C112.953 53.3864 113.207 53.5344 113.272 53.7819ZM142.603 49.8588C142.75 50.4157 141.888 50.66 141.501 50.7621C140.99 50.8969 140.432 50.9121 139.936 50.7284C138.946 50.3612 138.31 48.957 138.057 47.9978C138.012 47.8277 137.978 47.6379 137.945 47.4482C136.508 48.5228 135.098 49.6398 133.688 50.7567C133.844 51.9732 133.993 53.2248 134.307 54.416C134.352 54.5861 134.448 54.7595 134.493 54.9297C134.562 55.1927 134.414 55.4469 134.151 55.5163C133.641 55.6511 133.493 55.0283 133.399 54.6725C133.125 53.636 132.967 52.5359 132.817 51.4668C132.379 51.8141 131.957 52.1573 131.542 52.5314L130.952 53.0515C130.898 53.0988 130.84 53.1306 130.763 53.151C130.5 53.2205 130.246 53.0725 130.176 52.8095C130.127 52.6239 130.172 52.4797 130.302 52.346C130.54 52.1178 130.797 51.9009 131.054 51.6841C131.58 51.2308 132.109 50.7931 132.655 50.3512L132.452 48.5182C131.835 48.5652 131.227 48.6431 130.624 48.8024C130.376 48.8677 130.084 48.7629 130.014 48.5C129.921 48.1442 130.131 47.9396 130.456 47.8538C131.075 47.6904 131.734 47.6157 132.366 47.5646C132.315 46.9327 132.185 45.9409 132.239 45.3309C132.263 45.1094 132.381 44.9293 132.598 44.8721C132.845 44.8067 133.115 44.9506 133.184 45.2136C133.197 45.26 133.205 45.291 133.202 45.3415C133.211 46.0671 133.24 46.8041 133.316 47.5288C133.335 47.5402 133.366 47.532 133.382 47.5279C133.599 47.5367 133.768 47.6742 133.825 47.8908C133.911 48.2156 133.7 48.4202 133.402 48.4824L133.546 49.6525C133.984 49.3052 137.951 46.1558 138.229 46.0823C138.492 46.0128 138.747 46.1608 138.816 46.4238C138.824 46.4547 138.837 46.5011 138.829 46.5362C138.839 46.9474 138.894 47.3464 139 47.7486C139.16 48.3519 139.654 49.5951 140.278 49.8274C140.59 49.9436 140.931 49.9197 141.256 49.8339C141.472 49.7767 141.696 49.6845 141.896 49.5654C141.939 49.5377 141.985 49.5255 142.016 49.5173C142.279 49.4478 142.537 49.6113 142.603 49.8588ZM157.785 42.5561C157.851 42.8036 157.703 43.0579 157.455 43.1232C157.393 43.1396 157.327 43.1404 157.261 43.1413C157.059 43.1285 156.85 43.1506 156.649 43.2037C155.953 43.3876 155.252 43.8043 154.691 44.2503C154.638 44.2976 154.58 44.3294 154.502 44.3498C154.24 44.4192 153.97 44.2753 153.9 44.0124C153.851 43.8267 153.919 43.6434 154.053 43.5252C154.613 43.0133 155.665 42.4871 156.393 42.2951C156.795 42.1889 157.638 41.9992 157.785 42.5561ZM159.129 47.894C159.198 48.157 159.015 48.4039 158.768 48.4693C158.025 48.6654 156.183 48.7712 155.474 48.5283C155.31 48.4723 155.2 48.369 155.159 48.2143C155.09 47.9513 155.229 47.6661 155.492 47.5967C155.601 47.5681 155.671 47.5827 155.76 47.6087C156.574 47.8075 157.733 47.6835 158.554 47.5329C158.836 47.4749 159.055 47.6156 159.129 47.894ZM152.616 40.5287C152.674 40.7453 152.579 40.9523 152.394 41.0672C151.682 41.5035 150.805 41.8178 149.994 42.0653C149.542 43.9884 148.871 48.4681 149.362 50.3245C149.431 50.5875 149.581 50.7795 149.626 50.9497C149.691 51.1972 149.517 51.4751 149.269 51.5404C148.759 51.6752 148.536 50.9563 148.438 50.5851C147.911 48.5895 148.477 44.4682 148.957 42.339C148.485 42.4306 147.99 42.5614 147.505 42.6066C147.246 42.6255 147.046 42.4962 146.981 42.2487C146.915 42.0012 147.04 41.7201 147.307 41.6662L147.369 41.6498C147.984 41.5369 148.604 41.4394 149.207 41.2801C149.285 41.0113 149.351 40.6961 149.468 40.45C149.532 40.3172 149.64 40.2227 149.794 40.1818C150.042 40.1165 150.311 40.2604 150.377 40.5079C150.418 40.6626 150.393 40.8181 150.309 40.9396C150.873 40.7575 151.386 40.5062 151.91 40.2354C151.952 40.2076 151.983 40.1995 152.03 40.1872C152.293 40.1178 152.547 40.2658 152.616 40.5287ZM168.671 46.3669C168.749 46.6609 168.618 47.0429 168.293 47.1287C168.046 47.1941 167.776 47.0502 167.711 46.8026C167.69 46.7253 167.685 46.6439 167.715 46.5697C167.335 46.0081 165.942 45.1184 165.298 44.8747C165.15 44.8145 165.04 44.7112 164.995 44.541C164.93 44.2935 165.058 44.0279 165.321 43.9585C165.754 43.8441 168.418 45.4078 168.671 46.3669ZM30.2137 108.168C30.2341 108.246 30.239 108.327 30.2244 108.397C30.1296 108.852 29.9086 109.457 29.4135 109.588C28.0058 109.959 26.6596 107.055 26.2043 106.083C26.0451 108.425 25.0396 112.513 22.3943 113.212C20.3987 113.739 19.4047 112.231 18.9471 110.498C18.465 108.673 18.8998 106.622 19.6614 104.931C18.8237 105.268 18.0096 105.632 17.2037 106.027C17.1728 106.035 17.1459 106.059 17.115 106.067C16.8675 106.132 16.5937 105.973 16.5243 105.71C16.463 105.478 16.5768 105.282 16.777 105.163C17.1466 104.933 20.1684 103.655 20.5861 103.545C20.8336 103.48 21.0919 103.643 21.1532 103.875C21.1941 104.03 21.1722 104.135 21.0925 104.272C20.96 104.522 20.8038 104.745 20.6753 105.011C19.9193 106.535 19.4341 108.582 19.8753 110.253C20.1817 111.413 20.7414 112.655 22.1492 112.284C22.9691 112.067 23.5955 111.306 24.0053 110.602C25.1811 108.537 25.6375 105.19 25.0133 102.889L24.9888 102.796C24.9235 102.549 25.0828 102.275 25.3304 102.21C25.5933 102.14 25.8475 102.288 25.917 102.551C26.2847 103.943 26.8698 105.344 27.5346 106.609C27.7337 106.986 28.6203 108.589 29.1334 108.652C29.3237 108.37 29.2443 107.944 29.6466 107.838C29.8941 107.773 30.1442 107.905 30.2137 108.168ZM45.1563 106.787C45.1972 106.942 45.1753 107.047 45.0956 107.184C44.6516 107.946 43.3714 108.864 42.5205 109.088C41.1283 109.456 39.304 109.441 38.8587 107.755C38.4992 106.394 39.2375 104.991 40.0974 103.986C39.305 103.053 38.719 101.586 38.4085 100.411C38.2329 99.7454 38.0219 98.7586 38.0751 98.0826C38.0993 97.8611 38.2172 97.681 38.4338 97.6238C38.6968 97.5544 38.951 97.7024 39.0204 97.9653C39.0327 98.0117 39.0409 98.0427 39.0377 98.0932C39.0472 98.8188 39.1651 99.5158 39.3449 100.196C39.6145 101.217 40.0928 102.465 40.7556 103.283C41.2308 102.826 42.1447 102.088 42.779 101.921C43.0265 101.855 43.3076 101.98 43.377 102.243C43.4506 102.521 43.3212 102.721 43.0705 102.837C42.8353 102.948 42.6268 103.037 42.4152 103.175C41.1838 103.964 39.3702 105.932 39.7869 107.51C40.0729 108.593 41.4596 108.392 42.2795 108.176C43.0839 107.963 43.8008 107.294 44.2929 106.651C44.3653 106.549 44.4459 106.478 44.5697 106.446C44.8172 106.38 45.0909 106.54 45.1563 106.787ZM58.6578 93.5572C58.6946 93.6964 58.6727 93.8015 58.6044 93.9188L58.2897 94.4818L57.5497 95.7529L55.4395 99.3551L55.4281 99.3746C56.5664 100.05 57.6592 100.804 58.725 101.582C59.3403 102.032 60.1861 102.603 60.7249 103.139C60.7917 103.204 60.8276 103.277 60.8521 103.37C60.9175 103.618 60.7581 103.891 60.5106 103.957C60.325 104.006 60.2076 103.938 60.0626 103.827L59.356 103.219C58.5875 102.628 57.7808 102.08 56.9896 101.527C56.2024 100.99 55.4193 100.469 54.5866 100.011C54.4693 99.9423 54.3479 99.8585 54.3111 99.7193C54.2703 99.5646 54.2962 99.475 54.3564 99.3267C54.432 99.1743 54.5385 99.0138 54.6182 98.8769L56.8423 95.0792C57.1382 94.5707 57.4634 93.9222 57.7831 93.4406C57.8514 93.3233 57.9319 93.2524 58.0712 93.2156C58.3187 93.1503 58.5884 93.2942 58.6578 93.5572ZM77.0766 89.7356C77.146 89.9986 76.998 90.2528 76.735 90.3222C76.6267 90.3508 76.5103 90.3485 76.397 90.2956C75.9116 90.2749 74.705 90.5935 74.21 90.7243C73.9625 90.7896 73.719 90.8705 73.4715 90.9358C73.5751 92.0172 73.5467 93.1004 73.6348 94.1859L73.6657 94.1777C73.7895 94.145 73.9205 94.0773 74.0443 94.0446C74.3455 93.932 74.6508 93.8348 74.9602 93.7531C75.9657 93.4876 77.377 93.3797 77.716 94.6636C78.0837 96.0559 77.1146 97.9005 76.4274 99.0583C76.2184 99.3949 76.0021 99.7664 75.7736 100.092C75.7126 100.174 75.5856 100.257 75.4928 100.282C75.2453 100.347 74.9683 100.238 74.8988 99.975C74.8621 99.8358 74.9067 99.6916 74.975 99.5743C75.6549 98.4515 77.1392 96.2391 76.7879 94.9088C76.6285 94.3054 75.6385 94.5669 75.2208 94.6772C74.6484 94.8284 74.0892 95.0919 73.5323 95.239C73.0991 95.3534 72.8677 95.1662 72.7615 94.764C72.5776 94.0679 72.6046 91.413 72.5247 91.2355C72.1461 91.3686 71.7521 91.5058 71.4094 91.7121C71.3671 91.7398 71.3247 91.7676 71.2629 91.7839C70.9999 91.8533 70.757 91.6858 70.6876 91.4228C70.6345 91.2217 70.7019 91.0384 70.8826 90.908C71.248 90.6625 72.0671 90.38 72.4961 90.2502C72.4754 89.8585 72.364 89.0605 72.859 88.9297C73.122 88.8603 73.3803 89.0238 73.4456 89.2713C73.4906 89.4414 73.4445 89.768 73.443 89.9505C74.201 89.7503 74.9549 89.5346 75.7179 89.4159C76.0819 89.3529 76.7398 89.2122 77.0048 89.589C77.0325 89.6314 77.0643 89.6892 77.0766 89.7356ZM97.2126 81.9522C97.278 82.1997 97.13 82.4539 96.867 82.5234C96.7433 82.556 96.5877 82.5309 96.4704 82.4626C96.2707 82.3333 95.5014 81.676 95.4401 81.4439C95.3747 81.1964 95.5187 80.9267 95.7816 80.8573C95.9518 80.8123 96.1155 80.8684 96.2451 80.9831C96.4888 81.2166 96.7366 81.4656 97.0031 81.66C97.105 81.7324 97.18 81.8284 97.2126 81.9522ZM95.7724 83.3916C95.8419 83.6546 95.6939 83.9088 95.4309 83.9783C95.3226 84.0069 95.2062 84.0045 95.0929 83.9517C94.5267 83.6875 94.2226 83.2879 94.0633 82.6846C93.9979 82.4371 94.1573 82.1633 94.4048 82.0979C94.6678 82.0285 94.922 82.1765 94.9914 82.4395C95.1794 83.1511 95.654 82.943 95.7724 83.3916ZM93.8865 85.4618C93.9478 85.6938 93.8567 85.8503 93.6801 85.9962C93.4344 86.1935 93.2309 86.363 93.0283 86.5986C91.974 87.8699 90.9689 90.5183 91.402 92.1581C91.6471 93.0863 92.1406 94.0151 93.0352 94.4573C93.2462 94.5671 93.4368 94.5995 93.6551 94.6742C93.8384 94.7417 93.9712 94.8059 94.0243 95.007C94.0896 95.2545 93.9262 95.5128 93.6787 95.5782C93.6013 95.5986 93.5354 95.5995 93.4498 95.589C91.8282 95.3387 90.866 93.8883 90.4738 92.4032C89.9835 90.5469 90.8812 87.993 91.9321 86.4578C90.4779 86.8419 89.0515 87.2682 87.5973 87.6522C87.3498 87.7176 87.0647 87.5778 86.9993 87.3302C86.9258 87.0518 87.0665 86.8326 87.3213 86.7322C87.6494 86.5959 88.0443 86.5247 88.3846 86.4349C89.0612 86.2396 89.7418 86.0599 90.438 85.876L91.4435 85.6105L92.712 85.2755C92.9172 85.2379 93.1256 85.1497 93.3194 85.1316C93.5751 85.0972 93.8171 85.1988 93.8865 85.4618ZM113.634 79.0884C113.654 79.1658 113.655 79.2317 113.629 79.3213C113.48 79.8239 113.044 80.8659 112.798 81.3116C112.729 81.4289 112.653 81.5153 112.514 81.5521C112.282 81.6133 112.043 81.4613 111.982 81.2292C111.953 81.1209 111.964 81.0354 112.005 80.9417C112.163 80.536 112.355 80.1376 112.532 79.7433C111.511 79.947 110.505 80.2125 109.5 80.4781C108.881 80.6415 108.262 80.8049 107.647 80.9838C107.655 81.0147 107.679 81.0416 107.687 81.0725C107.732 81.2427 107.723 81.4601 107.753 81.6344C108.368 81.4555 108.982 81.2766 109.601 81.1132C110.034 80.9988 110.494 80.8608 110.94 80.7928C111.195 80.7584 111.379 80.8918 111.445 81.1393C111.506 81.3713 111.35 81.5946 111.118 81.6559C110.607 81.7907 110.093 81.91 109.582 82.0449C109.025 82.1919 108.453 82.3431 107.9 82.5056C107.942 82.7263 107.999 82.9429 108.056 83.1594L108.459 83.0532C109.232 82.849 110.001 82.6292 110.771 82.4095C111.169 82.2878 111.587 82.1775 111.972 82.0094C112.003 82.0012 112.015 81.9817 112.046 81.9735C112.293 81.9081 112.536 82.0757 112.597 82.3077C112.655 82.5243 112.552 82.7003 112.363 82.7998C112.059 82.963 111.513 83.0905 111.177 83.1958C110.334 83.4515 109.503 83.6875 108.668 83.9081C108.405 83.9776 108.13 84.0666 107.859 84.1051C107.665 84.1232 107.521 84.0785 107.41 83.9092C107.28 83.7286 107.123 83.0088 107.058 82.7613C106.675 82.8789 106.288 82.981 105.914 83.1295C105.774 83.1663 105.632 83.2536 105.477 83.2944L105.4 83.3149C105.168 83.3761 104.933 83.2395 104.872 83.0075C104.815 82.7909 104.913 82.5994 105.102 82.4999C105.491 82.2813 106.45 82.028 106.895 81.8941C106.868 81.6693 106.827 81.4487 106.831 81.2158C106.062 81.4355 105.277 81.6593 104.512 81.8945C104.535 82.4841 104.594 83.081 104.652 83.6779C104.892 86.2788 105.174 89.7291 104.703 92.2696C104.678 92.4251 104.548 92.5588 104.393 92.5996C104.161 92.6609 103.919 92.5593 103.854 92.3118C103.838 92.2499 103.837 92.184 103.851 92.1139C104.276 89.3373 104.018 86.5426 103.78 83.7593C103.738 83.2243 103.68 82.6933 103.658 82.1697C103.306 82.2792 102.954 82.3886 102.615 82.5444L102.538 82.5649C102.306 82.6261 102.075 82.505 102.014 82.2729C101.956 82.0564 102.055 81.8649 102.244 81.7654C102.664 81.5386 103.283 81.3752 103.738 81.2217C104.747 80.9057 105.775 80.601 106.792 80.3159C106.616 79.5848 106.521 78.8486 106.329 78.1216C106.267 77.8895 106.404 77.6549 106.636 77.5936C107.178 77.4506 107.242 78.1949 107.316 78.5393C107.668 78.4299 108.024 78.3359 108.379 78.2419C108.921 78.099 109.466 77.9714 110.023 77.8244C110.275 77.7745 110.534 77.6896 110.789 77.6551C111.045 77.6207 111.229 77.7541 111.295 78.0016C111.36 78.2491 111.165 78.4496 110.948 78.5068C110.268 78.6866 109.563 78.8395 108.883 79.0192C108.418 79.1418 107.954 79.2644 107.494 79.4024C107.552 79.619 107.582 79.8592 107.639 80.0758L109.248 79.6509C110.114 79.4221 110.965 79.1974 111.84 78.9996C112.257 78.8893 112.733 78.7471 113.159 78.7337C113.388 78.723 113.572 78.8564 113.634 79.0884ZM113.349 83.7143C113.423 83.9928 113.47 84.2949 113.528 84.5774C113.632 85.162 113.741 85.7621 113.8 86.359C113.847 86.4127 113.898 86.4819 113.919 86.5593C113.984 86.8068 113.824 87.0146 113.596 87.0913C113.306 87.1844 112.988 87.2352 112.695 87.3128L110.885 87.7908C110.869 88.0433 110.813 88.273 110.762 88.5181C111.443 88.3384 112.12 88.1432 112.8 87.9634C113.125 87.8776 113.596 87.72 113.918 87.6847C114.158 87.6544 114.369 87.7642 114.435 88.0117C114.668 88.8934 115.089 91.1155 113.851 91.4423C113.233 91.6058 112.085 91.7102 111.493 91.5356C111.349 91.4909 111.223 91.3917 111.182 91.237C111.121 91.005 111.273 90.7662 111.505 90.7049C111.583 90.6845 111.649 90.6836 111.719 90.6982C112.31 90.8068 113.039 90.7468 113.627 90.5915C113.982 90.4976 113.712 88.8479 113.675 88.6427C113.299 88.7252 112.913 88.8274 112.541 88.9254C111.814 89.1174 111.091 89.3249 110.368 89.5324C109.851 90.6453 108.705 92.3215 107.741 93.056C107.714 93.0797 107.61 93.1238 107.563 93.136C107.316 93.2014 107.085 93.0802 107.02 92.8327C106.971 92.6471 107.031 92.4988 107.165 92.3806C107.322 92.2233 107.503 92.0928 107.66 91.9355C108.273 91.3104 108.799 90.6087 109.228 89.8502C108.597 90.0331 107.917 90.2129 107.311 90.4887C107.28 90.4969 107.253 90.5205 107.222 90.5287C106.99 90.5899 106.74 90.4574 106.679 90.2254C106.622 90.0088 106.724 89.8328 106.909 89.7178C107.336 89.456 109.204 88.9462 109.745 88.8033C109.827 88.5499 109.929 88.3079 109.976 88.0473C109.531 88.1813 108.491 88.4395 108.113 88.6385C108.086 88.6622 108.055 88.6703 108.024 88.6785C107.468 88.8256 107.379 87.9885 107.285 87.6327C107.138 87.0758 106.783 85.7959 106.745 85.2763C106.735 85.0475 106.848 84.852 107.065 84.7948C107.204 84.758 107.321 84.7603 107.427 84.8482C108.551 84.4685 109.711 84.1621 110.856 83.8598C111.289 83.7454 112.457 83.404 112.864 83.3792C113.108 83.3644 113.288 83.4823 113.349 83.7143ZM112.601 84.3258C112.21 84.4124 111.808 84.5186 111.421 84.6208L111.05 84.7188L110.57 84.8455C110.623 85.0466 110.661 85.2518 110.714 85.4529C111.379 85.2772 112.04 85.0861 112.718 84.9568L112.601 84.3258ZM112.849 85.7662C112.272 85.9019 111.696 86.0376 111.108 86.1928L110.876 86.2541C110.929 86.4552 110.967 86.6604 111.004 86.8656C111.635 86.6826 112.288 86.5265 112.923 86.359L112.849 85.7662ZM109.735 85.0661C109.058 85.2613 108.382 85.4565 107.713 85.6827C107.762 85.8683 107.8 86.0735 107.849 86.2591C108.517 86.033 109.183 85.8573 109.863 85.6776L109.735 85.0661ZM110.041 86.4747C109.379 86.6658 108.699 86.8456 108.046 87.0677L108.205 87.671C108.843 87.453 109.508 87.2773 110.154 87.0903L110.041 86.4747ZM130.21 77.1268C130.292 77.4362 130.186 77.9111 129.83 78.0051C129.567 78.0745 129.309 77.9111 129.243 77.6635C129.223 77.5862 129.222 77.5202 129.237 77.4502C128.984 77.4341 128.609 77.5167 128.361 77.5821C127.99 77.6801 127.627 77.8091 127.3 78.0113C127.257 78.0391 127.215 78.0668 127.153 78.0831C126.906 78.1485 126.632 77.9891 126.562 77.7261C126.509 77.525 126.604 77.3181 126.773 77.2072C127.138 76.9617 127.741 76.7364 128.158 76.6261C128.793 76.4586 129.986 76.276 130.21 77.1268ZM131.276 82.6042C131.346 82.8672 131.182 83.1255 130.935 83.1909C130.254 83.3706 127.522 82.1726 127.334 81.461C127.268 81.2135 127.416 80.9593 127.679 80.8898C127.865 80.8408 128.029 80.8969 128.162 81.027C128.748 81.617 130.036 82.1704 130.852 82.2528C131.059 82.2811 131.223 82.4031 131.276 82.6042ZM122.258 78.8464C122.282 78.9392 122.268 79.0092 122.257 79.0948C121.884 80.8151 122.001 83.2003 122.45 84.9019C122.536 85.2268 122.633 85.5321 122.777 85.8252C122.904 85.742 122.999 85.601 123.154 85.5602C123.401 85.4948 123.675 85.6542 123.744 85.9172C123.785 86.0719 123.741 86.216 123.641 86.3415C123.493 86.5298 122.977 86.8975 122.761 86.9547C122.56 87.0078 122.376 86.9404 122.254 86.7906C121.919 86.3992 121.664 85.6225 121.534 85.1275C121.113 83.5341 120.858 80.4405 121.315 78.8472C121.371 78.6835 121.486 78.5539 121.656 78.5089C121.919 78.4395 122.192 78.5989 122.258 78.8464ZM147.494 73.1417C147.563 73.4047 147.411 73.6435 147.148 73.7129C146.993 73.7538 146.025 73.5958 145.699 73.6156C145.47 73.6264 145.24 73.5053 145.179 73.2732C145.113 73.0257 145.257 72.756 145.505 72.6907C145.752 72.6253 146.937 72.7261 147.175 72.8122C147.323 72.8723 147.449 72.9716 147.494 73.1417ZM143.398 70.9799C143.565 71.6141 142.075 72.1733 141.611 72.2958C141.116 72.4265 140.616 72.4758 140.108 72.4942C139.722 74.4165 138.752 77.7009 137.589 79.2492C137.528 79.3315 137.428 79.3911 137.335 79.4156C137.072 79.485 136.818 79.337 136.748 79.074C136.711 78.9348 136.745 78.8102 136.829 78.6888C137.978 76.9621 138.729 74.48 139.152 72.4486C138.795 72.4106 138.367 72.3581 138.031 72.215C137.883 72.1549 137.773 72.0516 137.732 71.8969C137.667 71.6494 137.811 71.3797 138.058 71.3143C138.167 71.2857 138.237 71.3003 138.326 71.3263C138.665 71.4188 138.98 71.4845 139.322 71.5266C139.384 71.1959 139.339 70.7114 139.741 70.6052C139.989 70.5398 140.243 70.6878 140.304 70.9198C140.341 71.0591 140.299 71.4011 140.27 71.5412C140.646 71.5246 141.029 71.473 141.385 71.379C141.865 71.2524 142.246 71.0688 142.627 70.7533C142.696 70.7019 142.753 70.6701 142.831 70.6497C143.078 70.5843 143.333 70.7323 143.398 70.9799ZM147.298 79.7962C147.364 80.0437 147.204 80.3175 146.957 80.3828C146.725 80.4441 146.529 80.3303 146.41 80.13C146.085 79.5871 145.804 79.2144 145.207 78.9584C145.466 80.3793 145.003 81.7592 143.487 82.1596C142.265 82.4823 141.382 81.7062 141.08 80.5614C140.728 79.231 141.762 78.1967 142.969 77.878C143.278 77.7963 143.6 77.761 143.93 77.7567C143.696 76.8089 143.145 74.4721 143.782 73.6254C143.859 73.539 143.924 73.4722 144.048 73.4395C144.295 73.3742 144.549 73.5222 144.615 73.7697C144.655 73.9244 144.629 74.014 144.55 74.1509C144.137 74.9053 144.713 77.0866 144.921 77.8755C145.96 78.114 146.776 78.7591 147.258 79.7075C147.267 79.7384 147.29 79.7653 147.298 79.7962ZM144.179 78.7003C143.861 78.6851 143.519 78.709 143.21 78.7907C142.529 78.9705 141.78 79.516 141.992 80.3204C142.156 80.9392 142.535 81.4348 143.246 81.2469C144.499 80.916 144.445 79.7058 144.179 78.7003ZM163.173 74.0484C163.226 74.2495 163.136 74.4719 162.967 74.5828C162.874 76.1131 161.804 77.3885 160.335 77.7766C159.314 78.0462 158.251 77.5325 157.974 76.4805C157.577 74.98 159.239 74.1275 160.43 73.813C160.909 73.6863 161.401 73.6061 161.898 73.6073C161.571 72.684 159.74 71.5129 158.784 71.4673C158.547 71.4472 158.356 71.3488 158.295 71.1168C158.233 70.8847 158.313 70.7478 158.474 70.606C158.857 70.24 159.85 67.7936 159.931 67.2259C159.54 66.9982 158.768 67.02 158.333 67.0025C158.101 66.9978 157.916 66.8644 157.855 66.6324C157.79 66.3849 157.938 66.1306 158.185 66.0653C158.232 66.053 158.278 66.0408 158.313 66.0481C159.019 66.0271 160.638 66.0794 160.867 66.9457C161.047 67.6264 159.953 70.0004 159.566 70.6653C160.786 71.0877 162.503 72.14 162.855 73.4704C162.879 73.5633 162.888 73.6602 162.913 73.753C163.042 73.8017 163.14 73.9246 163.173 74.0484ZM162 74.5567C161.549 74.5433 161.089 74.6154 160.655 74.7297C160.068 74.885 158.67 75.4196 158.886 76.2395C159.029 76.7809 159.583 76.9987 160.094 76.8639C161.177 76.5779 161.914 75.6717 162 74.5567ZM181.497 58.6513C181.538 58.806 181.509 58.9461 181.425 59.0675C181.014 59.7055 180.174 61.3505 180.374 62.1085C180.391 62.1704 180.469 62.2159 180.531 62.1996C180.995 62.077 180.854 61.6675 181.256 61.5613C181.503 61.4959 181.758 61.6439 181.823 61.8914C181.966 62.4329 181.225 63.0093 180.776 63.1277C180.204 63.2789 179.597 62.926 179.446 62.3536C179.181 61.3481 180.203 58.5132 180.914 58.3252C181.177 58.2558 181.432 58.4038 181.497 58.6513ZM178.883 59.3417C178.923 59.4964 178.894 59.6365 178.81 59.7579C178.384 60.4 177.56 62.0409 177.76 62.7989C177.772 62.8453 177.87 62.9022 177.917 62.89C178.412 62.7593 178.239 62.3579 178.657 62.2476C178.905 62.1822 179.159 62.3302 179.228 62.5932C179.371 63.1347 178.61 63.6997 178.162 63.8182C177.589 63.9693 176.983 63.6164 176.832 63.044C176.558 62.0076 177.394 60.0328 178.035 59.2016C178.111 59.1152 178.192 59.0442 178.315 59.0116C178.563 58.9462 178.817 59.0942 178.883 59.3417ZM200.221 62.9407C200.825 65.2302 199.323 67.8114 197.591 69.212C197.537 69.2593 197.479 69.2911 197.417 69.3075C197.17 69.3728 196.896 69.2134 196.831 68.9659C196.778 68.7648 196.853 68.6125 196.999 68.4747C197.279 68.2188 197.563 67.9783 197.831 67.6759C198.852 66.5292 199.721 64.7441 199.308 63.1817C198.965 61.8822 198.085 61.0556 196.747 60.8792C196.718 64.2133 195.513 67.0468 192.677 68.9044C192.297 69.1539 191.884 69.3457 191.451 69.46C190.12 69.8114 189.131 69.2617 188.78 67.9313C188.106 65.3788 190.067 62.5276 192.114 61.1927C191.868 60.1986 191.653 59.1962 191.55 58.1808C190.669 58.4796 189.714 58.7484 188.913 59.2247C188.871 59.2524 188.809 59.2688 188.763 59.281C188.515 59.3464 188.261 59.1984 188.195 58.9509C188.138 58.7343 188.225 58.5624 188.39 58.436C188.855 58.0651 190.849 57.4061 191.475 57.2077C191.45 56.8005 191.429 56.3429 191.505 55.9421C191.537 55.7515 191.663 55.6024 191.865 55.5493C192.097 55.488 192.366 55.6319 192.432 55.8794C192.464 56.0032 192.408 56.7297 192.411 56.9275C193.342 56.6319 194.281 56.3673 195.225 56.1181C195.658 56.0037 196.377 55.7807 196.827 55.7282C197.098 55.6897 197.313 55.8149 197.386 56.0934C197.456 56.3564 197.269 56.5878 197.021 56.6532C196.542 56.7798 196.069 56.8714 195.59 56.9981C194.553 57.2718 193.51 57.5805 192.481 57.8852C192.583 58.8347 192.766 59.7792 192.981 60.7155C193.458 60.457 193.976 60.2871 194.502 60.1482C194.92 60.0379 195.346 59.9586 195.764 59.9142C195.744 59.5225 195.692 59.139 195.656 58.7514C195.641 58.5071 195.766 58.292 195.998 58.2307C196.246 58.1653 196.515 58.3092 196.581 58.5568C196.667 58.8816 196.699 59.5681 196.727 59.9248C198.511 60.0991 199.767 61.2235 200.221 62.9407ZM195.8 60.8646C195.448 60.908 195.115 60.9629 194.774 61.0528C194.248 61.1917 193.699 61.3697 193.226 61.6437C193.511 62.6606 193.935 63.9551 194.56 64.8162C194.607 64.8699 194.639 64.9277 194.655 64.9896C194.725 65.2526 194.557 65.4954 194.31 65.5608C194.109 65.6139 193.96 65.5537 193.823 65.4081C193.252 64.8141 192.63 62.9595 192.387 62.1632C190.803 63.3096 189.145 65.6174 189.688 67.6748C189.909 68.5102 190.39 68.7639 191.225 68.5432C191.55 68.4575 191.874 68.3057 192.17 68.1116C194.748 66.4049 195.79 63.8957 195.8 60.8646ZM213.83 56.1361C213.888 56.3527 213.805 56.5401 213.64 56.6664C213.182 57.0023 212.394 57.2767 211.861 57.4506C212.156 58.382 212.425 59.337 212.69 60.2766L212.71 60.3539C213.197 60.4406 214.361 60.7784 214.508 61.3353C214.57 61.5674 214.414 61.8566 214.167 61.922C213.981 61.971 213.813 61.8995 213.676 61.7538C213.447 61.5162 213.07 61.4009 212.754 61.3352C212.719 62.4534 212.255 63.519 211.095 63.8254C210.136 64.0787 208.682 63.5856 208.408 62.5492C208.085 61.3271 209.021 60.7326 210.073 60.4548C210.614 60.3118 211.18 60.2616 211.727 60.266C211.58 59.7091 211.391 59.1799 211.228 58.6271L210.96 57.738C210.671 57.8311 210.377 57.9087 210.083 57.9864C209.433 58.158 208.768 58.3336 208.106 58.4588C207.839 58.5128 207.615 58.3566 207.546 58.0936C207.472 57.8152 207.648 57.6033 207.911 57.5338C208.499 57.3786 209.115 57.2657 209.718 57.1063C210.043 57.0205 210.364 56.9193 210.688 56.8335C210.497 56.1724 210.306 55.5113 210.13 54.8461C209.766 54.9091 209.402 54.9721 209.047 55.0661C208.737 55.1478 208.447 55.2409 208.15 55.369L208.088 55.3853C207.825 55.4548 207.583 55.2872 207.517 55.0397C207.456 54.8077 207.581 54.5926 207.786 54.489C208.11 54.3372 208.496 54.2351 208.837 54.1452C209.192 54.0512 209.537 53.9768 209.885 53.9179C209.783 53.5312 209.59 52.9865 210.131 52.8435C210.688 52.6965 210.741 53.4603 210.835 53.8161C211.262 53.8027 211.719 53.7811 212.139 53.8687C212.315 53.9052 212.464 54.0313 212.513 54.2169C212.578 54.4645 212.415 54.7228 212.167 54.7881C212.09 54.8085 212.043 54.8208 211.973 54.8062C211.662 54.756 211.394 54.744 211.08 54.7443C211.239 55.3476 211.414 55.9468 211.589 56.5461C212.122 56.3721 212.643 56.1518 213.128 55.8582C213.171 55.8305 213.217 55.8182 213.263 55.806C213.511 55.7406 213.765 55.8886 213.83 56.1361ZM211.814 61.2196C211.313 61.2029 210.793 61.2408 210.314 61.3675C209.834 61.4941 209.157 61.6893 209.321 62.3081C209.452 62.8032 210.421 63.0271 210.854 62.9127C211.628 62.7084 211.815 61.9142 211.814 61.2196ZM230.167 49.8194L230.183 49.8813C230.646 52.2581 230.583 55.4684 230.278 57.8825C230.247 58.205 230.202 58.5976 230.101 58.9055C230.033 59.0888 229.946 59.1948 229.744 59.2479C229.497 59.3132 229.231 59.1848 229.162 58.9218C229.141 58.8445 229.152 58.7589 229.163 58.6734C229.589 56.5915 229.548 54.0539 229.403 51.9407C229.37 51.5026 229.342 51.08 229.293 50.646C229.267 50.4212 229.229 50.216 229.223 50.0027C229.208 49.7584 229.333 49.5433 229.58 49.4779C229.843 49.4085 230.117 49.5678 230.167 49.8194ZM225.956 49.7897C225.98 49.8825 225.97 49.968 225.944 50.0577C225.583 51.2616 225.612 53.1241 225.931 54.3307C225.975 54.5009 226.016 54.6556 226.088 54.8021C226.222 54.6179 226.373 54.3132 226.605 54.2519C226.868 54.1825 227.137 54.3264 227.207 54.5894C227.24 54.7131 227.214 54.8687 227.142 54.9706C226.925 55.2762 226.503 55.9337 226.147 56.0277C225.528 56.1911 225.124 54.974 225.01 54.5408C224.687 53.3187 224.594 50.9603 225.036 49.7514C225.096 49.6031 225.215 49.489 225.369 49.4482C225.617 49.3828 225.886 49.5267 225.956 49.7897ZM251.773 49.8561C251.809 49.9953 251.787 50.1004 251.735 50.2136C251.629 50.4401 251.477 50.6788 251.332 50.8826C250.838 51.642 249.77 53.1153 248.873 53.3523L248.858 53.3563C247.759 53.6464 245.225 51.0059 243.91 51.3532C242.766 51.6555 241.711 53.4896 241.262 54.4852C241.104 54.8249 240.996 55.1678 240.837 55.5076C240.762 55.6599 240.67 55.7504 240.499 55.7953C240.236 55.8648 239.978 55.7013 239.909 55.4383C239.896 55.3919 239.896 55.326 239.899 55.2755C240.245 52.3874 241.447 48.7933 242.763 46.1951C243.054 45.6052 243.399 44.9681 243.803 44.4311C243.88 44.3447 243.96 44.2738 244.069 44.2452C244.332 44.1757 244.59 44.3392 244.659 44.6022C244.7 44.7569 244.663 44.866 244.583 45.0029C244.336 45.3826 244.085 45.7469 243.876 46.1493C242.845 48.0103 242.085 50.0811 241.518 52.1338C242.029 51.4363 242.783 50.6579 243.65 50.4291C244.841 50.1145 246.305 51.0848 247.276 51.6891C247.549 51.8484 248.352 52.3812 248.628 52.4241C249.219 52.2183 250.191 50.886 250.534 50.3653C250.663 50.1657 250.757 49.9587 250.886 49.7591C250.97 49.6377 251.047 49.5513 251.186 49.5145C251.433 49.4492 251.707 49.6085 251.773 49.8561ZM258.713 39.1035C258.966 40.0626 258.341 41.5185 257.883 42.3511C257.701 42.664 257.528 43.0738 257.249 43.1473C256.986 43.2168 256.728 43.0533 256.658 42.7903C256.622 42.6511 256.639 42.5306 256.723 42.4092C257.149 41.7671 257.989 40.1221 257.785 39.3486C257.769 39.2867 257.675 39.2453 257.613 39.2616C257.149 39.3842 257.294 39.8092 256.892 39.9154C256.645 39.9807 256.382 39.8018 256.317 39.5543C256.178 39.0283 256.919 38.4519 257.368 38.3334C257.94 38.1823 258.562 38.5311 258.713 39.1035ZM256.099 39.7939C256.373 40.8304 255.537 42.8052 254.9 43.6519C254.839 43.7342 254.743 43.8092 254.635 43.8378C254.387 43.9031 254.114 43.7437 254.048 43.4962C254.011 43.357 254.041 43.2169 254.124 43.0955C254.551 42.4534 255.375 40.8125 255.171 40.039C255.154 39.9772 255.065 39.9512 255.014 39.948C254.519 40.0787 254.711 40.4914 254.293 40.6017C254.03 40.6712 253.772 40.5077 253.702 40.2447C253.559 39.7033 254.32 39.1383 254.769 39.0198C255.341 38.8686 255.948 39.2215 256.099 39.7939Z" fill="#FFF6F6"/>
<path d="M83.5342 140.646C69.9526 136.098 35.2108 127.76 4.89602 130.786" stroke="#FFF6F6" stroke-width="1.10558"/>
<path d="M254.886 84.6608C258.676 75.8873 270.047 54.8724 285.216 40.9999" stroke="#FFF6F6" stroke-width="1.10558"/>
</svg>
