<svg width="362" height="339" viewBox="0 0 362 339" fill="none" xmlns="http://www.w3.org/2000/svg">
<path d="M21.2645 238.186C20.4009 237.478 19.6102 236.681 18.8923 235.793C18.1745 234.905 17.5709 233.95 17.0817 232.928C16.5925 231.905 16.2547 230.857 16.0685 229.782C15.1871 231.071 14.0311 232.193 12.6007 233.149C11.1731 234.091 9.57825 234.772 7.81618 235.19C7.45143 235.282 7.10412 235.265 6.77424 235.139C6.44437 235.013 6.22383 234.752 6.11262 234.356C6.00845 233.989 6.05446 233.661 6.25065 233.373C6.46226 233.076 6.76168 232.89 7.1489 232.817C8.43264 232.584 9.625 232.166 10.726 231.561C11.8424 230.947 12.8106 230.194 13.6307 229.302C14.4508 228.41 15.0659 227.427 15.4761 226.352L9.28031 224.981C8.97716 224.914 8.74197 224.749 8.57475 224.487C8.40752 224.224 8.35745 223.942 8.42453 223.639C8.49161 223.335 8.65628 223.1 8.91853 222.933C9.18078 222.766 9.46348 222.716 9.76664 222.783L16.0571 224.175L16.8831 220.442C16.9641 220.076 17.1484 219.812 17.4359 219.65C17.7234 219.489 18.0251 219.443 18.3409 219.513C18.6693 219.585 18.9234 219.754 19.1033 220.019C19.2958 220.287 19.3515 220.604 19.2704 220.97L18.4445 224.703L24.7729 226.103C25.076 226.17 25.3112 226.335 25.4784 226.597C25.6457 226.86 25.6957 227.142 25.6287 227.445C25.5616 227.749 25.3969 227.984 25.1347 228.151C24.8724 228.318 24.5897 228.368 24.2865 228.301L18.0718 226.926C18.0209 228.054 18.1855 229.197 18.5654 230.354C18.9453 231.512 19.5104 232.611 20.2606 233.651C21.0263 234.682 21.9392 235.586 22.9994 236.364C23.3069 236.591 23.4699 236.872 23.4885 237.207C23.5224 237.533 23.4224 237.835 23.1883 238.115C22.936 238.417 22.626 238.56 22.2584 238.545C21.8879 238.543 21.5566 238.423 21.2645 238.186Z" fill="#49854A"/>
<path d="M40.1782 241.359C39.7687 241.298 39.4596 241.135 39.2508 240.868C39.0548 240.603 38.9752 240.304 39.0119 239.969C39.0487 239.635 39.194 239.362 39.4477 239.151C39.7015 238.941 40.0084 238.856 40.3686 238.896C40.8587 238.943 41.2428 238.954 41.5211 238.93C41.8012 238.894 42.0288 238.771 42.2039 238.561C42.3809 238.339 42.544 237.991 42.6932 237.516C42.9061 236.789 43.1113 235.982 43.3087 235.096C43.508 234.197 43.6901 233.283 43.8548 232.352C44.0324 231.424 44.185 230.531 44.3128 229.674C44.3776 229.239 44.3824 228.899 44.3271 228.656C44.2718 228.412 44.1293 228.227 43.8996 228.102C43.6698 227.976 43.3182 227.878 42.8447 227.807L42.1921 227.71C41.8716 229.598 41.5179 231.226 41.1309 232.594C40.7587 233.951 40.3172 235.115 39.8064 236.085C39.2975 237.043 38.6788 237.86 37.9502 238.536C37.2363 239.201 36.3829 239.793 35.39 240.313C35.0505 240.484 34.7099 240.532 34.3682 240.455C34.0246 240.39 33.766 240.195 33.5923 239.868C33.4385 239.584 33.4174 239.286 33.5291 238.976C33.6407 238.665 33.8506 238.442 34.1588 238.304C35.054 237.915 35.8125 237.433 36.4344 236.858C37.0581 236.271 37.5839 235.551 38.0116 234.699C38.4394 233.848 38.8078 232.823 39.1169 231.627C39.4259 230.43 39.7089 229.014 39.9657 227.378L37.3745 226.992C37.0418 226.943 36.7884 226.8 36.6141 226.565C36.4546 226.319 36.3968 226.049 36.4406 225.754C36.4864 225.447 36.6205 225.206 36.8429 225.029C37.08 224.842 37.365 224.774 37.6976 224.823L43.3598 225.667C44.2939 225.806 45.0125 226.031 45.5156 226.341C46.0315 226.653 46.371 227.096 46.534 227.67C46.699 228.231 46.7157 228.953 46.5842 229.836C46.356 231.28 46.1095 232.714 45.8448 234.14C45.5801 235.565 45.2702 236.899 44.9151 238.141C44.6404 239.107 44.3075 239.849 43.9166 240.366C43.5275 240.871 43.0343 241.196 42.4369 241.343C41.8396 241.489 41.0867 241.495 40.1782 241.359ZM33.4328 236.725C32.4475 236.578 31.7403 236.276 31.3113 235.82C30.895 235.366 30.7622 234.633 30.9128 233.622L31.276 231.185C31.0508 231.203 30.8257 231.222 30.6005 231.241C30.3901 231.249 30.1924 231.259 30.0076 231.27C29.6378 231.294 29.3301 231.209 29.0842 231.015C28.8403 230.809 28.7102 230.541 28.6938 230.211C28.6813 229.856 28.7764 229.57 28.9789 229.351C29.1834 229.12 29.4759 229 29.8566 228.992C30.1073 228.977 30.3772 228.965 30.6664 228.955C30.9702 228.935 31.2868 228.917 31.6163 228.901L32.2797 224.448C32.3369 224.064 32.4885 223.792 32.7347 223.633C32.9808 223.473 33.2638 223.417 33.5837 223.465C33.9164 223.514 34.1708 223.65 34.3469 223.873C34.5359 224.097 34.6017 224.401 34.5445 224.785L33.9555 228.739C34.5376 228.695 35.0931 228.653 35.6221 228.615C36.1658 228.565 36.649 228.526 37.0718 228.497C37.4032 228.468 37.6716 228.554 37.8771 228.754C38.0955 228.957 38.2083 229.209 38.2157 229.511C38.2339 229.828 38.1417 230.095 37.9391 230.313C37.7494 230.534 37.4824 230.657 37.1383 230.685C36.6733 230.733 36.1286 230.789 35.5044 230.853C34.8948 230.906 34.266 230.957 33.6181 231.004L33.2349 233.576C33.1929 233.857 33.2283 234.059 33.341 234.18C33.4556 234.289 33.6793 234.368 34.012 234.418C34.3319 234.465 34.5608 234.421 34.6989 234.284C34.8516 234.137 35.0208 233.835 35.2065 233.379C35.3272 233.096 35.525 232.91 35.7999 232.82C36.0877 232.732 36.3858 232.75 36.6943 232.875C37.0136 233.014 37.2118 233.22 37.2889 233.493C37.3806 233.755 37.3687 234.054 37.2533 234.39C36.9949 235.071 36.6999 235.603 36.3683 235.985C36.0385 236.354 35.6364 236.595 35.1619 236.708C34.7001 236.822 34.1238 236.828 33.4328 236.725Z" fill="#49854A"/>
<path d="M58.8169 243.613C57.8374 243.528 57.0473 243.206 56.4467 242.647C55.8578 242.102 55.6055 241.346 55.6897 240.38C55.7661 239.503 56.136 238.834 56.7996 238.373C57.4771 237.899 58.3314 237.708 59.3625 237.797C59.7491 237.831 60.1212 237.883 60.4787 237.953L60.797 234.299C60.8262 233.964 60.9599 233.697 61.1981 233.497C61.4363 233.297 61.7165 233.211 62.0387 233.239C62.3609 233.267 62.622 233.4 62.822 233.638C63.022 233.876 63.1074 234.163 63.0782 234.498L62.7145 238.674C63.3913 238.953 64.0251 239.281 64.6156 239.658C65.2202 240.022 65.7463 240.392 66.194 240.769C66.4349 240.985 66.5671 241.256 66.5906 241.583C66.6152 241.896 66.5196 242.174 66.3038 242.415C66.101 242.657 65.8362 242.79 65.5095 242.813C65.1957 242.838 64.9177 242.749 64.6757 242.546C64.3877 242.274 64.0535 242.011 63.673 241.757C63.3066 241.491 62.9191 241.243 62.5107 241.013C62.3514 241.947 61.9604 242.634 61.3378 243.073C60.714 243.525 59.8737 243.705 58.8169 243.613ZM54.141 237.81C53.8782 237.995 53.5856 238.073 53.2634 238.045C52.9541 238.018 52.6995 237.886 52.4994 237.648C52.2877 237.395 52.1958 237.108 52.2239 236.786C52.2531 236.451 52.3991 236.191 52.6619 236.006C53.4538 235.413 54.1633 234.721 54.7905 233.932C55.4306 233.143 55.9703 232.314 56.4098 231.443C56.0573 231.464 55.7124 231.473 55.3751 231.47C55.0506 231.468 54.7391 231.466 54.4404 231.466C54.1042 231.45 53.8291 231.329 53.615 231.102C53.401 230.876 53.3033 230.582 53.3218 230.22C53.337 229.896 53.4567 229.641 53.6809 229.452C53.9062 229.251 54.1998 229.16 54.5618 229.178C54.9765 229.189 55.4116 229.188 55.8672 229.175C56.3356 229.164 56.8047 229.147 57.2743 229.123C57.3645 228.832 57.4296 228.532 57.4694 228.224C57.5221 227.917 57.5608 227.622 57.5855 227.338C57.6136 227.016 57.7467 226.755 57.9849 226.555C58.2242 226.342 58.505 226.25 58.8272 226.278C59.1494 226.306 59.4164 226.446 59.6282 226.698C59.8411 226.937 59.927 227.217 59.8861 227.539C59.835 227.976 59.7565 228.43 59.6505 228.901C59.743 228.883 59.8284 228.871 59.9069 228.865C59.9994 228.847 60.0848 228.835 60.1633 228.829C60.4922 228.78 60.7853 228.844 61.0425 229.022C61.2996 229.201 61.4458 229.46 61.4811 229.801C61.5175 230.129 61.4342 230.413 61.2313 230.656C61.0413 230.899 60.7883 231.045 60.4722 231.096C60.2615 231.129 60.0186 231.16 59.7435 231.188C59.4812 231.217 59.2061 231.245 58.918 231.272C58.4006 232.591 57.7288 233.818 56.9027 234.953C56.0894 236.09 55.1688 237.042 54.141 237.81ZM65.7421 233.659C65.3521 233.365 64.8854 233.058 64.3419 232.738C63.8112 232.419 63.3389 232.177 62.9248 232.011C62.6374 231.882 62.4211 231.681 62.276 231.409C62.1309 231.136 62.1105 230.849 62.2148 230.546C62.3062 230.243 62.4945 230.019 62.7797 229.875C63.0779 229.732 63.3777 229.719 63.6791 229.836C64.0568 229.973 64.4692 230.158 64.9163 230.392C65.3635 230.626 65.7901 230.871 66.1964 231.127C66.6155 231.384 66.9584 231.622 67.2251 231.84C67.4682 232.03 67.6016 232.288 67.6251 232.615C67.6614 232.943 67.5776 233.234 67.3736 233.489C67.1836 233.732 66.9247 233.872 66.5969 233.908C66.2831 233.933 65.9981 233.85 65.7421 233.659ZM58.9828 241.485C59.4081 241.522 59.7194 241.452 59.9167 241.274C60.114 241.096 60.23 240.808 60.2648 240.408L60.2935 240.08C60.0917 240.01 59.8883 239.96 59.6832 239.929C59.4922 239.886 59.3064 239.857 59.126 239.842C58.7264 239.807 58.4233 239.858 58.2165 239.996C58.0237 240.122 57.9161 240.314 57.8936 240.572C57.8723 240.817 57.9451 241.024 58.1121 241.195C58.2801 241.352 58.5704 241.449 58.9828 241.485Z" fill="#49854A"/>
<path d="M76.0901 244.651C75.7749 244.81 75.443 244.871 75.0946 244.835C74.7592 244.8 74.4862 244.617 74.2758 244.287C74.0901 243.997 74.0407 243.692 74.1277 243.371C74.228 243.037 74.4358 242.791 74.751 242.632C76.1044 241.933 77.2999 241.101 78.3375 240.134C79.388 239.168 80.2158 238.073 80.8209 236.848C81.4263 235.61 81.7505 234.254 81.7933 232.78L81.9044 228.959C81.9153 228.584 82.0401 228.296 82.2789 228.096C82.531 227.883 82.8187 227.782 83.142 227.791C83.4782 227.801 83.7595 227.919 83.9859 228.146C84.2127 228.359 84.3206 228.654 84.3097 229.029L84.2178 232.19C84.1832 233.38 84.3315 234.51 84.6628 235.581C84.9944 236.639 85.4706 237.624 86.0912 238.535C86.7119 239.446 87.4319 240.276 88.2515 241.024C89.0713 241.76 89.9589 242.394 90.9141 242.927C91.2066 243.104 91.3866 243.368 91.4541 243.719C91.5348 244.058 91.4803 244.373 91.2906 244.666C91.088 244.957 90.7983 245.13 90.4214 245.184C90.057 245.251 89.716 245.183 89.3984 244.979C87.9494 244.07 86.6684 242.946 85.5554 241.606C84.4425 240.267 83.5927 238.779 83.006 237.145C82.6139 238.169 82.0741 239.149 81.3868 240.087C80.7124 241.025 79.9239 241.883 79.0212 242.659C78.1186 243.435 77.1415 244.099 76.0901 244.651Z" fill="#49854A"/>
<path d="M99.8172 244.408C99.4953 244.468 99.2026 244.412 98.939 244.237C98.6755 244.063 98.5071 243.822 98.4341 243.513C98.2998 242.857 98.1886 242.097 98.1004 241.232C98.0119 240.354 97.9544 239.43 97.9281 238.46C97.9018 237.491 97.9012 236.513 97.9263 235.529C97.9513 234.545 98.0035 233.605 98.0827 232.71C98.1746 231.802 98.2884 230.99 98.4243 230.274C98.4806 229.962 98.6422 229.718 98.9092 229.543C99.1759 229.354 99.4653 229.288 99.7774 229.345C100.09 229.414 100.334 229.582 100.509 229.849C100.697 230.103 100.764 230.392 100.708 230.717C100.526 231.641 100.391 232.641 100.304 233.718C100.216 234.794 100.168 235.889 100.16 237.002C100.164 238.102 100.212 239.175 100.305 240.221C100.398 241.254 100.534 242.195 100.712 243.044C100.785 243.353 100.728 243.639 100.541 243.903C100.367 244.166 100.126 244.335 99.8172 244.408ZM107.742 243.144C106.061 243.19 104.798 242.92 103.954 242.335C103.123 241.749 102.607 240.87 102.407 239.698C102.347 239.389 102.404 239.103 102.578 238.839C102.765 238.575 103.019 238.413 103.341 238.352C103.651 238.305 103.937 238.375 104.201 238.562C104.465 238.736 104.627 238.984 104.687 239.306C104.78 239.86 105.056 240.267 105.516 240.526C105.976 240.785 106.717 240.901 107.739 240.873C108.709 240.847 109.875 240.667 111.238 240.332C111.546 240.246 111.838 240.29 112.115 240.463C112.391 240.637 112.566 240.878 112.639 241.187C112.712 241.495 112.662 241.788 112.488 242.065C112.314 242.328 112.073 242.503 111.765 242.589C111.071 242.776 110.376 242.911 109.679 242.995C108.996 243.078 108.35 243.128 107.742 243.144ZM103.932 233.639C103.623 233.712 103.331 233.668 103.055 233.507C102.791 233.333 102.623 233.085 102.549 232.764C102.476 232.455 102.52 232.163 102.681 231.887C102.854 231.61 103.102 231.442 103.424 231.381C104.144 231.219 104.95 231.107 105.841 231.044C106.732 230.968 107.618 230.937 108.498 230.952C109.379 230.954 110.156 231.004 110.832 231.102C111.157 231.145 111.413 231.3 111.602 231.567C111.79 231.821 111.856 232.11 111.8 232.435C111.757 232.76 111.602 233.016 111.336 233.205C111.082 233.38 110.799 233.446 110.487 233.403C109.434 233.25 108.346 233.195 107.221 233.239C106.096 233.269 104.999 233.403 103.932 233.639Z" fill="#49854A"/>
<path d="M136.005 243.188C135.72 243.355 135.418 243.394 135.099 243.304C134.793 243.213 134.557 243.032 134.391 242.76C134.3 242.612 134.202 242.451 134.097 242.279C134.004 242.105 133.898 241.925 133.779 241.741C133.231 241.865 132.594 242.01 131.868 242.175C131.154 242.327 130.414 242.48 129.648 242.636C128.894 242.778 128.172 242.917 127.483 243.053C126.793 243.19 126.198 243.298 125.699 243.38C125.303 243.452 124.967 243.403 124.693 243.231C124.42 243.073 124.248 242.802 124.176 242.418C124.121 242.072 124.194 241.781 124.394 241.543C124.607 241.291 124.893 241.144 125.253 241.1C125.406 241.074 125.573 241.047 125.752 241.019C125.93 240.978 126.122 240.942 126.327 240.912C126.426 240.54 126.531 240.102 126.645 239.599C126.77 239.082 126.887 238.553 126.997 238.011C127.119 237.456 127.231 236.94 127.333 236.464C127.434 235.975 127.517 235.566 127.58 235.236L124.563 235.491C124.254 235.517 123.98 235.43 123.742 235.23C123.518 235.028 123.392 234.772 123.366 234.463C123.34 234.154 123.42 233.881 123.608 233.644C123.809 233.406 124.064 233.274 124.373 233.248L134.892 232.357C135.188 232.332 135.456 232.419 135.693 232.62C135.931 232.821 136.063 233.076 136.089 233.385C136.115 233.694 136.028 233.968 135.828 234.206C135.627 234.443 135.379 234.575 135.082 234.6L130.055 235.026C129.975 235.461 129.859 236.01 129.707 236.672C129.554 237.321 129.391 237.99 129.215 238.68C129.052 239.356 128.902 239.96 128.765 240.491C129.417 240.371 130.069 240.25 130.721 240.13C131.373 240.01 131.967 239.901 132.504 239.804C132.072 239.139 131.653 238.565 131.248 238.08C131.059 237.836 130.984 237.57 131.025 237.281C131.078 236.991 131.227 236.757 131.472 236.581C131.729 236.403 132.009 236.327 132.309 236.354C132.609 236.367 132.861 236.502 133.064 236.757C133.426 237.194 133.819 237.7 134.244 238.274C134.67 238.848 135.076 239.43 135.464 240.021C135.863 240.597 136.192 241.108 136.45 241.553C136.631 241.85 136.676 242.151 136.585 242.457C136.494 242.764 136.301 243.007 136.005 243.188ZM122.659 244.962C122.362 244.987 122.096 244.906 121.859 244.718C121.636 244.542 121.511 244.293 121.484 243.971L120.734 235.115C120.499 235.563 120.263 235.992 120.025 236.402C119.865 236.662 119.633 236.837 119.329 236.928C119.024 237.006 118.729 236.972 118.444 236.828C118.172 236.682 117.998 236.463 117.921 236.171C117.845 235.879 117.88 235.603 118.026 235.344C118.335 234.85 118.644 234.279 118.952 233.63C119.261 232.98 119.554 232.306 119.833 231.608C120.124 230.908 120.378 230.224 120.594 229.557C120.823 228.888 121.006 228.288 121.142 227.757C121.217 227.413 121.398 227.171 121.684 227.03C121.97 226.876 122.265 226.838 122.571 226.916C122.862 226.982 123.082 227.132 123.232 227.366C123.394 227.599 123.438 227.887 123.364 228.231C123.271 228.668 123.153 229.113 123.009 229.566C122.866 230.02 122.71 230.481 122.542 230.949L123.63 243.789C123.658 244.111 123.576 244.378 123.387 244.588C123.198 244.812 122.955 244.937 122.659 244.962ZM125.099 230.324C124.802 230.349 124.536 230.268 124.299 230.08C124.076 229.891 123.951 229.649 123.926 229.352C123.901 229.056 123.983 228.796 124.172 228.572C124.373 228.347 124.622 228.222 124.919 228.197L133.659 227.456C133.955 227.431 134.215 227.513 134.439 227.702C134.663 227.89 134.787 228.133 134.812 228.43C134.837 228.726 134.756 228.986 134.567 229.21C134.378 229.434 134.135 229.558 133.839 229.583L125.099 230.324Z" fill="#49854A"/>
<path d="M154.199 240.875C152.778 241.081 151.724 240.932 151.037 240.43C150.363 239.927 150.023 238.937 150.019 237.46C150.017 237.081 149.926 236.82 149.749 236.676C149.569 236.519 149.354 236.478 149.104 236.553C148.864 236.614 148.64 236.784 148.432 237.062C148.069 237.533 147.661 238.056 147.208 238.631C146.755 239.207 146.318 239.754 145.896 240.272C145.475 240.791 145.131 241.213 144.864 241.539C144.65 241.779 144.384 241.922 144.063 241.969C143.756 242.013 143.477 241.936 143.226 241.737C142.975 241.538 142.826 241.278 142.78 240.958C142.732 240.625 142.815 240.339 143.028 240.099C143.331 239.754 143.701 239.328 144.138 238.821C144.572 238.3 145.028 237.744 145.504 237.152C145.991 236.546 146.461 235.949 146.911 235.361C147.375 234.771 147.794 234.233 148.168 233.747C148.553 233.247 148.848 232.845 149.053 232.541C149.43 231.99 149.518 231.598 149.314 231.366C149.123 231.132 148.735 231.11 148.148 231.3C148.085 231.322 147.929 231.37 147.679 231.446C147.428 231.521 147.134 231.61 146.795 231.711C146.457 231.812 146.12 231.92 145.783 232.034C145.458 232.133 145.176 232.22 144.938 232.293C144.701 232.367 144.551 232.415 144.489 232.437C144.176 232.534 143.879 232.512 143.597 232.37C143.327 232.226 143.138 232.004 143.03 231.706C142.933 231.394 142.956 231.103 143.1 230.834C143.255 230.55 143.482 230.36 143.782 230.264C143.844 230.242 144.001 230.194 144.251 230.118C144.515 230.041 144.815 229.951 145.154 229.85C145.505 229.747 145.857 229.651 146.21 229.56C146.574 229.455 146.894 229.363 147.17 229.284C147.446 229.205 147.641 229.151 147.754 229.121C148.61 228.893 149.336 228.853 149.933 229.002C150.542 229.149 151.003 229.442 151.315 229.881C151.638 230.305 151.779 230.833 151.74 231.466C151.699 232.086 151.457 232.762 151.014 233.493C150.93 233.636 150.818 233.809 150.677 234.012C150.548 234.201 150.406 234.398 150.253 234.603C150.774 234.593 151.226 234.776 151.607 235.152C151.986 235.515 152.19 236.159 152.219 237.083C152.257 237.796 152.382 238.255 152.595 238.46C152.82 238.663 153.221 238.722 153.797 238.639C154.105 238.595 154.484 238.507 154.936 238.376C155.387 238.246 155.856 238.093 156.34 237.918C156.638 237.81 156.934 237.819 157.227 237.947C157.532 238.073 157.735 238.298 157.834 238.624C157.946 238.947 157.919 239.252 157.751 239.538C157.596 239.822 157.369 240.018 157.071 240.126C155.976 240.507 155.019 240.756 154.199 240.875ZM149.865 227.855C149.32 227.882 148.724 227.876 148.078 227.839C147.432 227.802 146.809 227.742 146.209 227.658C145.609 227.575 145.105 227.478 144.696 227.367C144.383 227.282 144.136 227.109 143.955 226.847C143.786 226.584 143.738 226.297 143.81 225.986C143.883 225.675 144.057 225.434 144.333 225.263C144.609 225.092 144.903 225.043 145.214 225.116C145.875 225.256 146.603 225.366 147.399 225.447C148.208 225.526 148.99 225.557 149.746 225.539C150.084 225.529 150.367 225.632 150.594 225.848C150.82 226.05 150.943 226.314 150.963 226.637C150.984 226.961 150.888 227.243 150.674 227.483C150.458 227.71 150.189 227.834 149.865 227.855Z" fill="#49854A"/>
<path d="M166.556 238.403C166.243 238.297 166.016 238.1 165.876 237.812C165.749 237.522 165.74 237.226 165.849 236.926C166.174 236.024 166.426 235.052 166.603 234.01C166.781 232.968 166.893 231.9 166.941 230.806C167.001 229.71 167.008 228.644 166.962 227.609C166.603 227.724 166.249 227.832 165.899 227.932C165.563 228.029 165.245 228.122 164.947 228.212C164.633 228.291 164.336 228.261 164.055 228.121C163.785 227.967 163.604 227.734 163.512 227.423C163.433 227.109 163.47 226.817 163.625 226.546C163.777 226.263 164.01 226.082 164.323 226.003C164.685 225.9 165.072 225.792 165.485 225.679C165.91 225.563 166.332 225.435 166.752 225.293C166.7 224.855 166.638 224.438 166.568 224.043C166.498 223.648 166.42 223.274 166.333 222.923C166.253 222.609 166.291 222.317 166.446 222.046C166.613 221.773 166.853 221.597 167.167 221.517C167.481 221.438 167.775 221.482 168.048 221.649C168.318 221.804 168.493 222.038 168.572 222.352C168.652 222.666 168.724 223.008 168.788 223.378C168.85 223.735 168.905 224.12 168.952 224.533C169.5 224.312 169.993 224.109 170.43 223.924C170.721 223.797 171.016 223.788 171.317 223.897C171.617 224.005 171.831 224.205 171.958 224.495C172.088 224.798 172.091 225.095 171.967 225.386C171.856 225.674 171.655 225.881 171.364 226.008C171.061 226.138 170.72 226.276 170.341 226.422C169.975 226.565 169.583 226.714 169.166 226.868C169.231 228.057 169.242 229.304 169.199 230.609C169.154 231.9 169.036 233.161 168.845 234.391C168.664 235.606 168.394 236.707 168.033 237.695C167.925 237.996 167.726 238.216 167.439 238.356C167.151 238.496 166.857 238.512 166.556 238.403ZM179.685 235.204C177.889 236.031 176.271 236.385 174.832 236.265C173.404 236.142 172.285 235.598 171.474 234.632C171.276 234.382 171.184 234.104 171.199 233.797C171.224 233.474 171.359 233.208 171.606 232.997C171.852 232.787 172.13 232.695 172.44 232.723C172.763 232.747 173.029 232.883 173.24 233.13C173.761 233.721 174.488 234.004 175.421 233.979C176.355 233.955 177.462 233.656 178.743 233.082C179.046 232.952 179.343 232.949 179.633 233.073C179.934 233.182 180.148 233.381 180.275 233.672C180.405 233.975 180.409 234.278 180.288 234.581C180.176 234.869 179.975 235.077 179.685 235.204ZM177.228 228.146C176.776 228.135 176.268 228.169 175.703 228.248C175.15 228.325 174.592 228.436 174.028 228.581C173.473 228.711 172.959 228.872 172.484 229.065C172.19 229.179 171.9 229.181 171.612 229.07C171.334 228.943 171.133 228.741 171.008 228.463C170.881 228.172 170.873 227.883 170.985 227.595C171.106 227.292 171.313 227.083 171.606 226.969C172.18 226.742 172.793 226.547 173.446 226.383C174.112 226.217 174.779 226.09 175.448 226.002C176.115 225.901 176.733 225.857 177.304 225.869C177.621 225.868 177.884 225.985 178.092 226.219C178.312 226.45 178.416 226.726 178.404 227.045C178.402 227.35 178.286 227.612 178.055 227.833C177.821 228.041 177.545 228.145 177.228 228.146Z" fill="#49854A"/>
<path d="M198.974 231.284C198.774 231.528 198.509 231.663 198.18 231.688C197.855 231.725 197.572 231.65 197.331 231.463C196.736 230.971 196.079 230.47 195.358 229.96C194.65 229.447 193.95 228.964 193.259 228.513C192.565 228.05 191.947 227.665 191.404 227.361C190.467 226.844 189.784 226.303 189.357 225.738C188.93 225.172 188.76 224.542 188.846 223.845C188.93 223.137 189.256 222.313 189.826 221.374C190.021 221.064 190.249 220.678 190.509 220.215C190.781 219.749 191.065 219.253 191.361 218.726C191.657 218.2 191.94 217.677 192.211 217.158C192.482 216.639 192.728 216.173 192.948 215.762C193.097 215.479 193.327 215.293 193.639 215.206C193.959 215.102 194.261 215.125 194.545 215.274C194.825 215.411 195.01 215.641 195.101 215.965C195.201 216.272 195.176 216.568 195.028 216.852C194.724 217.447 194.38 218.088 193.995 218.774C193.618 219.444 193.249 220.092 192.887 220.717C192.521 221.33 192.203 221.849 191.933 222.275C191.573 222.859 191.357 223.336 191.286 223.705C191.224 224.059 191.311 224.37 191.548 224.64C191.797 224.906 192.205 225.208 192.77 225.547C193.316 225.864 193.942 226.253 194.649 226.713C195.368 227.169 196.094 227.651 196.827 228.157C197.561 228.664 198.217 229.159 198.795 229.641C199.049 229.825 199.188 230.082 199.213 230.411C199.254 230.749 199.174 231.04 198.974 231.284Z" fill="#49854A"/>
<path d="M215.916 226.016C214.989 226.346 214.137 226.381 213.358 226.122C212.597 225.871 212.053 225.288 211.728 224.374C211.434 223.545 211.492 222.783 211.904 222.087C212.324 221.375 213.021 220.846 213.997 220.499C214.362 220.369 214.722 220.262 215.077 220.177L213.849 216.721C213.736 216.405 213.747 216.106 213.88 215.825C214.014 215.544 214.233 215.349 214.538 215.241C214.842 215.133 215.135 215.145 215.416 215.279C215.697 215.413 215.894 215.638 216.006 215.955L217.41 219.904C218.142 219.878 218.854 219.913 219.548 220.01C220.249 220.09 220.882 220.208 221.445 220.365C221.754 220.461 221.987 220.653 222.144 220.941C222.297 221.216 222.325 221.508 222.229 221.817C222.145 222.121 221.959 222.352 221.672 222.509C221.396 222.662 221.107 222.696 220.802 222.612C220.427 222.484 220.014 222.384 219.562 222.311C219.119 222.222 218.663 222.157 218.196 222.117C218.439 223.033 218.369 223.82 217.985 224.478C217.605 225.148 216.915 225.661 215.916 226.016ZM209.252 222.68C209.09 222.957 208.856 223.15 208.552 223.258C208.259 223.362 207.972 223.347 207.691 223.214C207.394 223.072 207.191 222.849 207.083 222.544C206.97 222.227 206.995 221.93 207.157 221.653C207.631 220.784 207.99 219.861 208.232 218.882C208.487 217.899 208.633 216.92 208.672 215.946C208.36 216.111 208.05 216.263 207.741 216.4C207.445 216.532 207.161 216.661 206.89 216.785C206.577 216.91 206.276 216.913 205.988 216.796C205.699 216.679 205.488 216.452 205.354 216.115C205.234 215.815 205.237 215.532 205.362 215.268C205.484 214.992 205.713 214.787 206.05 214.653C206.431 214.49 206.827 214.308 207.236 214.108C207.658 213.903 208.077 213.692 208.494 213.476C208.455 213.174 208.39 212.874 208.298 212.577C208.219 212.276 208.131 211.991 208.036 211.723C207.928 211.418 207.94 211.125 208.074 210.845C208.203 210.552 208.42 210.351 208.725 210.243C209.03 210.134 209.331 210.151 209.628 210.292C209.921 210.422 210.116 210.641 210.212 210.95C210.347 211.369 210.464 211.814 210.564 212.287C210.64 212.232 210.713 212.186 210.782 212.148C210.859 212.093 210.931 212.047 211 212.008C211.279 211.827 211.572 211.764 211.88 211.819C212.188 211.875 212.429 212.05 212.603 212.345C212.772 212.628 212.814 212.922 212.73 213.227C212.659 213.527 212.489 213.765 212.223 213.942C212.045 214.06 211.837 214.189 211.598 214.329C211.372 214.464 211.133 214.604 210.882 214.748C210.959 216.162 210.858 217.558 210.578 218.934C210.31 220.306 209.868 221.555 209.252 222.68ZM218.081 214.085C217.604 213.98 217.052 213.894 216.425 213.829C215.81 213.759 215.279 213.735 214.834 213.756C214.519 213.758 214.239 213.665 213.994 213.478C213.748 213.29 213.611 213.037 213.58 212.719C213.537 212.405 213.615 212.123 213.815 211.873C214.027 211.62 214.294 211.483 214.617 211.465C215.017 211.432 215.469 211.43 215.973 211.456C216.477 211.483 216.967 211.529 217.443 211.593C217.931 211.653 218.342 211.727 218.675 211.815C218.975 211.886 219.203 212.066 219.36 212.353C219.53 212.637 219.574 212.936 219.495 213.253C219.423 213.553 219.245 213.788 218.962 213.957C218.687 214.11 218.393 214.152 218.081 214.085ZM215.183 224.011C215.585 223.868 215.839 223.675 215.945 223.432C216.051 223.188 216.036 222.878 215.902 222.5L215.791 222.189C215.579 222.209 215.373 222.248 215.174 222.305C214.982 222.346 214.801 222.397 214.631 222.457C214.253 222.591 213.998 222.764 213.867 222.975C213.744 223.17 213.726 223.389 213.813 223.633C213.895 223.865 214.048 224.024 214.27 224.109C214.489 224.183 214.793 224.15 215.183 224.011Z" fill="#49854A"/>
<path d="M237.191 217.285C236.103 217.735 235.136 217.849 234.29 217.628C233.455 217.402 232.86 216.851 232.503 215.976C232.303 215.457 232.25 214.95 232.343 214.456C232.449 213.958 232.691 213.512 233.07 213.119C233.443 212.715 233.939 212.412 234.557 212.211C235.541 211.877 236.347 211.911 236.976 212.313C237.6 212.702 237.994 213.292 238.157 214.083C238.483 213.699 238.693 213.26 238.787 212.767C238.887 212.256 238.802 211.693 238.531 211.077C238.328 210.615 238.01 210.261 237.576 210.013C237.149 209.749 236.648 209.623 236.074 209.635C235.506 209.631 234.917 209.784 234.305 210.096C233.693 210.407 233.101 210.894 232.53 211.555C231.953 212.204 231.448 213.063 231.013 214.13C230.888 214.425 230.666 214.643 230.346 214.784C230.021 214.913 229.706 214.903 229.401 214.755C229.112 214.613 228.911 214.397 228.798 214.108C228.692 213.801 228.714 213.516 228.866 213.251C229.356 212.372 229.832 211.462 230.295 210.524C230.754 209.573 231.181 208.65 231.579 207.754C231.988 206.853 232.338 206.042 232.628 205.321C232.813 204.872 232.807 204.571 232.612 204.417C232.429 204.257 232.143 204.298 231.755 204.539C231.373 204.764 230.937 205.026 230.447 205.326C229.969 205.622 229.518 205.898 229.094 206.155C228.831 206.327 228.542 206.377 228.227 206.303C227.912 206.23 227.671 206.053 227.506 205.772C227.333 205.509 227.286 205.226 227.365 204.923C227.439 204.608 227.613 204.361 227.888 204.184C228.133 204.034 228.443 203.855 228.818 203.647C229.205 203.435 229.598 203.22 229.997 203.002C230.408 202.779 230.756 202.59 231.041 202.436C231.785 202.038 232.457 201.863 233.057 201.91C233.657 201.957 234.145 202.166 234.521 202.538C234.891 202.898 235.108 203.375 235.171 203.969C235.247 204.558 235.125 205.198 234.807 205.889C234.659 206.194 234.472 206.588 234.245 207.069C234.031 207.545 233.807 208.032 233.574 208.53C234.191 208.103 234.846 207.808 235.538 207.645C236.224 207.471 236.891 207.445 237.54 207.57C238.2 207.69 238.803 207.968 239.349 208.407C239.89 208.833 240.327 209.425 240.661 210.183C241.135 211.26 241.291 212.259 241.13 213.178C240.964 214.085 240.536 214.88 239.848 215.565C239.165 216.261 238.28 216.834 237.191 217.285ZM236.004 215.454C236.028 215.443 236.064 215.428 236.111 215.407C236.147 215.391 236.191 215.379 236.243 215.37C236.302 215.344 236.365 215.309 236.431 215.266C236.425 214.802 236.311 214.464 236.09 214.25C235.869 214.036 235.588 213.976 235.247 214.069C234.947 214.159 234.729 214.305 234.591 214.506C234.461 214.691 234.438 214.913 234.524 215.172C234.72 215.651 235.214 215.745 236.004 215.454Z" fill="#49854A"/>
<path d="M254.421 208.687C254.22 208.942 253.952 209.086 253.618 209.119C253.289 209.163 252.992 209.087 252.726 208.892C252.465 208.68 252.312 208.409 252.268 208.081C252.218 207.741 252.293 207.443 252.494 207.189C253.845 205.437 254.83 203.675 255.45 201.903C256.082 200.125 256.326 198.431 256.181 196.821C256.126 196.116 255.937 195.667 255.613 195.474C255.283 195.269 254.781 195.347 254.109 195.708L247.696 199.148C247.411 199.301 247.111 199.33 246.796 199.235C246.474 199.128 246.237 198.933 246.084 198.648C245.925 198.351 245.893 198.045 245.989 197.73C246.084 197.415 246.274 197.181 246.559 197.028L253.057 193.542C254.106 192.979 255.019 192.739 255.797 192.821C256.58 192.885 257.207 193.231 257.676 193.86C258.14 194.478 258.428 195.344 258.541 196.458C258.724 198.414 258.47 200.445 257.778 202.548C257.092 204.634 255.973 206.681 254.421 208.687ZM259.5 192.662C259.021 192.919 258.522 192.974 258.002 192.827C257.488 192.662 257.103 192.34 256.846 191.861C256.589 191.383 256.537 190.889 256.691 190.381C256.849 189.856 257.168 189.465 257.647 189.208C258.114 188.957 258.605 188.914 259.119 189.079C259.638 189.226 260.026 189.539 260.283 190.017C260.54 190.496 260.589 190.998 260.431 191.524C260.277 192.032 259.967 192.411 259.5 192.662ZM258.968 191.67C259.173 191.56 259.307 191.4 259.37 191.19C259.439 190.962 259.418 190.746 259.308 190.54C259.198 190.335 259.032 190.204 258.811 190.147C258.595 190.072 258.384 190.089 258.179 190.2C257.973 190.31 257.836 190.479 257.768 190.706C257.693 190.923 257.711 191.133 257.821 191.338C257.931 191.544 258.1 191.681 258.327 191.749C258.549 191.807 258.762 191.78 258.968 191.67Z" fill="#49854A"/>
<path d="M276.761 193.228C275.593 194.709 274.438 195.519 273.295 195.659C272.156 195.781 271.14 195.152 270.246 193.773L266.626 188.188C266.443 187.906 266.386 187.603 266.455 187.281C266.534 186.952 266.71 186.7 266.981 186.524C267.263 186.341 267.566 186.284 267.888 186.353C268.21 186.421 268.462 186.597 268.645 186.879L272.128 192.253C272.501 192.828 272.9 193.086 273.324 193.027C273.741 192.957 274.252 192.556 274.857 191.825C275.703 190.799 276.466 189.657 277.146 188.399C277.83 187.123 278.39 185.882 278.825 184.674C278.948 184.364 279.155 184.137 279.448 183.993C279.751 183.843 280.063 183.826 280.385 183.941C280.688 184.052 280.91 184.263 281.049 184.574C281.193 184.866 281.212 185.17 281.108 185.484C280.825 186.284 280.46 187.137 280.014 188.043C279.572 188.931 279.073 189.825 278.516 190.726C277.962 191.609 277.377 192.442 276.761 193.228Z" fill="#49854A"/>
<path d="M300.034 179.883C299.464 179.865 298.829 179.89 298.129 179.957C297.431 180.006 296.712 180.08 295.97 180.179C295.239 180.269 294.524 180.381 293.825 180.512C293.136 180.636 292.501 180.767 291.921 180.905C291.598 180.974 291.296 180.922 291.014 180.747C290.732 180.573 290.556 180.324 290.487 180.002C290.418 179.679 290.465 179.381 290.629 179.107C290.804 178.825 291.052 178.649 291.375 178.58C292.012 178.431 292.707 178.294 293.461 178.169C294.217 178.026 294.989 177.904 295.777 177.802C296.565 177.7 297.326 177.627 298.06 177.583C298.796 177.52 299.469 177.491 300.077 177.495C300.408 177.501 300.692 177.625 300.929 177.867C301.157 178.099 301.263 178.385 301.248 178.724C301.234 179.045 301.111 179.32 300.879 179.549C300.647 179.777 300.365 179.889 300.034 179.883ZM294.711 175.756C294.347 175.793 293.905 175.856 293.386 175.946C292.859 176.026 292.316 176.127 291.756 176.249C291.197 176.371 290.668 176.502 290.171 176.641C289.676 176.762 289.259 176.879 288.922 176.993C288.613 177.101 288.31 177.09 288.013 176.959C287.719 176.811 287.508 176.581 287.382 176.27C287.274 175.961 287.291 175.654 287.431 175.349C287.572 175.044 287.796 174.838 288.105 174.73C288.51 174.597 289.002 174.462 289.582 174.324C290.154 174.176 290.753 174.041 291.377 173.918C291.994 173.785 292.585 173.672 293.15 173.578C293.708 173.474 294.168 173.404 294.533 173.368C294.851 173.335 295.134 173.426 295.383 173.643C295.642 173.851 295.787 174.123 295.818 174.459C295.849 174.795 295.756 175.088 295.539 175.337C295.323 175.586 295.047 175.726 294.711 175.756ZM293.088 171.689C292.708 171.704 292.254 171.752 291.728 171.833C291.203 171.894 290.662 171.977 290.105 172.081C289.547 172.185 289.021 172.297 288.526 172.418C288.023 172.529 287.608 172.637 287.281 172.743C286.972 172.851 286.67 172.831 286.376 172.682C286.083 172.516 285.888 172.274 285.791 171.957C285.693 171.64 285.718 171.335 285.867 171.04C286.015 170.745 286.252 170.554 286.576 170.467C286.978 170.352 287.468 170.235 288.046 170.116C288.627 169.978 289.228 169.857 289.85 169.752C290.474 169.629 291.068 169.53 291.631 169.455C292.186 169.369 292.645 169.317 293.007 169.299C293.333 169.276 293.619 169.382 293.865 169.616C294.104 169.841 294.23 170.12 294.242 170.453C294.265 170.779 294.159 171.065 293.925 171.312C293.7 171.55 293.422 171.676 293.088 171.689Z" fill="#49854A"/>
<path d="M312.117 170.231C312.065 170.558 311.907 170.816 311.642 171.006C311.377 171.195 311.081 171.264 310.753 171.212C310.426 171.161 310.168 171.002 309.978 170.737C309.78 170.463 309.707 170.162 309.759 169.835C309.946 168.735 309.945 167.65 309.756 166.579C309.559 165.498 309.17 164.478 308.591 163.517C308.022 162.548 307.264 161.699 306.318 160.968C306.053 160.755 305.9 160.491 305.86 160.178C305.81 159.855 305.888 159.566 306.092 159.31C306.297 159.035 306.556 158.878 306.869 158.837C307.192 158.788 307.485 158.87 307.75 159.083C307.83 159.133 307.905 159.196 307.975 159.272C308.055 159.34 308.134 159.408 308.213 159.475C309.03 158.643 309.609 157.983 309.952 157.495C310.296 156.988 310.483 156.608 310.513 156.353C310.543 156.079 310.498 155.876 310.376 155.742C310.193 155.541 309.991 155.445 309.771 155.453C309.542 155.452 309.222 155.639 308.811 156.014L301.228 162.933C300.989 163.151 300.701 163.257 300.362 163.251C300.033 163.236 299.76 163.109 299.541 162.87C299.315 162.622 299.213 162.338 299.237 162.018C299.262 161.68 299.393 161.403 299.632 161.185L307.215 154.265C309.107 152.538 310.755 152.444 312.159 153.983C312.683 154.556 312.951 155.187 312.966 155.874C312.981 156.543 312.722 157.305 312.188 158.16C311.664 159.006 310.854 159.99 309.759 161.112C310.807 162.433 311.533 163.881 311.937 165.456C312.341 167.031 312.401 168.623 312.117 170.231Z" fill="#49854A"/>
<path d="M334.934 145.536C334.854 145.851 334.666 146.091 334.37 146.258C334.084 146.415 333.778 146.459 333.455 146.389C333.197 146.325 332.879 146.269 332.501 146.219C332.124 146.169 331.715 146.116 331.273 146.06C330.858 146.698 330.377 147.417 329.831 148.215C329.275 149.005 328.693 149.824 328.084 150.671C327.475 151.5 326.883 152.3 326.308 153.073C325.723 153.836 325.199 154.506 324.736 155.082C324.535 155.337 324.266 155.485 323.929 155.525C323.601 155.556 323.309 155.471 323.054 155.27C322.799 155.051 322.656 154.777 322.625 154.448C322.603 154.111 322.697 153.819 322.907 153.573C323.029 153.403 323.16 153.233 323.3 153.063C323.44 152.893 323.589 152.714 323.746 152.525C323.593 151.853 323.386 151.106 323.126 150.282C322.865 149.441 322.577 148.591 322.26 147.734C321.944 146.876 321.625 146.069 321.303 145.312C320.99 144.546 320.709 143.897 320.46 143.367C320.312 143.07 320.287 142.764 320.384 142.45C320.482 142.135 320.68 141.903 320.976 141.754C321.272 141.606 321.583 141.585 321.907 141.691C322.231 141.78 322.458 141.973 322.588 142.27C322.888 142.936 323.216 143.724 323.571 144.636C323.916 145.538 324.254 146.486 324.585 147.481C324.906 148.466 325.19 149.426 325.436 150.36C326.02 149.596 326.609 148.827 327.202 148.054C327.795 147.263 328.334 146.528 328.821 145.851C328.39 145.821 327.977 145.8 327.583 145.788C327.189 145.775 326.841 145.779 326.54 145.8C326.21 145.794 325.927 145.681 325.689 145.461C325.461 145.232 325.35 144.953 325.355 144.623C325.361 144.293 325.479 144.014 325.708 143.785C325.937 143.557 326.212 143.441 326.533 143.438C327.008 143.42 327.59 143.43 328.278 143.468C328.956 143.497 329.663 143.544 330.398 143.608C331.141 143.662 331.839 143.727 332.492 143.803C333.145 143.879 333.675 143.964 334.081 144.058C334.404 144.128 334.649 144.311 334.816 144.607C334.983 144.903 335.022 145.213 334.934 145.536Z" fill="#49854A"/>
<path d="M345.965 135.396C345.356 136.169 344.654 136.653 343.857 136.849C343.079 137.042 342.309 136.839 341.546 136.239C340.855 135.694 340.499 135.018 340.476 134.21C340.452 133.384 340.76 132.564 341.4 131.751C341.641 131.446 341.888 131.164 342.143 130.903L339.261 128.634C338.997 128.425 338.847 128.167 338.81 127.858C338.773 127.549 338.855 127.268 339.055 127.014C339.255 126.76 339.51 126.614 339.819 126.578C340.128 126.541 340.414 126.627 340.678 126.835L343.971 129.429C344.576 129.016 345.198 128.666 345.836 128.378C346.472 128.072 347.071 127.835 347.631 127.667C347.944 127.584 348.243 127.622 348.529 127.782C348.805 127.933 348.984 128.165 349.068 128.478C349.159 128.78 349.125 129.074 348.965 129.361C348.814 129.637 348.587 129.82 348.284 129.911C347.899 130.003 347.496 130.138 347.075 130.317C346.652 130.478 346.232 130.666 345.816 130.881C346.509 131.527 346.869 132.23 346.895 132.992C346.931 133.761 346.621 134.563 345.965 135.396ZM338.548 136.125C338.559 136.446 338.464 136.734 338.264 136.988C338.071 137.232 337.821 137.372 337.512 137.409C337.185 137.447 336.895 137.367 336.64 137.167C336.376 136.959 336.239 136.694 336.228 136.373C336.166 135.385 335.977 134.413 335.661 133.455C335.353 132.488 334.955 131.582 334.467 130.737C334.292 131.043 334.11 131.336 333.923 131.617C333.743 131.887 333.571 132.147 333.407 132.396C333.209 132.669 332.957 132.832 332.65 132.887C332.343 132.942 332.044 132.862 331.751 132.648C331.489 132.458 331.341 132.218 331.306 131.927C331.262 131.629 331.346 131.333 331.56 131.04C331.796 130.699 332.034 130.335 332.273 129.947C332.521 129.549 332.763 129.147 333.001 128.741C332.807 128.506 332.592 128.288 332.356 128.086C332.128 127.873 331.903 127.679 331.679 127.503C331.425 127.303 331.28 127.048 331.243 126.739C331.196 126.422 331.273 126.137 331.473 125.883C331.673 125.629 331.937 125.482 332.264 125.443C332.581 125.397 332.862 125.478 333.108 125.689C333.446 125.971 333.782 126.286 334.118 126.633C334.154 126.546 334.191 126.467 334.229 126.398C334.264 126.311 334.301 126.233 334.339 126.164C334.478 125.862 334.693 125.652 334.983 125.535C335.273 125.418 335.57 125.438 335.874 125.595C336.168 125.744 336.361 125.97 336.452 126.273C336.551 126.565 336.536 126.857 336.404 127.149C336.317 127.343 336.209 127.564 336.082 127.809C335.963 128.044 335.835 128.29 335.7 128.545C336.519 129.701 337.176 130.935 337.673 132.249C338.178 133.553 338.47 134.844 338.548 136.125ZM341.437 124.147C340.978 124.312 340.465 124.534 339.899 124.813C339.342 125.082 338.88 125.344 338.514 125.599C338.249 125.769 337.962 125.84 337.655 125.812C337.348 125.784 337.096 125.643 336.9 125.39C336.696 125.147 336.612 124.867 336.648 124.55C336.692 124.222 336.846 123.964 337.109 123.776C337.431 123.536 337.812 123.292 338.252 123.046C338.693 122.801 339.132 122.578 339.569 122.379C340.014 122.169 340.401 122.013 340.729 121.909C341.021 121.81 341.31 121.84 341.597 122C341.891 122.149 342.088 122.379 342.19 122.689C342.289 122.982 342.264 123.275 342.115 123.569C341.963 123.845 341.737 124.038 341.437 124.147ZM344.276 134.091C344.54 133.755 344.652 133.456 344.612 133.194C344.571 132.932 344.394 132.676 344.079 132.428L343.819 132.224C343.651 132.355 343.497 132.497 343.359 132.652C343.219 132.788 343.092 132.928 342.98 133.07C342.732 133.385 342.609 133.667 342.611 133.915C342.61 134.145 342.712 134.341 342.915 134.501C343.108 134.653 343.322 134.706 343.556 134.66C343.78 134.605 344.02 134.416 344.276 134.091Z" fill="#49854A"/>
<path d="M361.882 114.294C361.717 114.542 361.493 114.704 361.21 114.779C360.934 114.844 360.656 114.783 360.376 114.597L355.82 111.566C355.996 112.258 356.149 113.02 356.279 113.853C356.405 114.667 356.49 115.485 356.534 116.307C356.585 117.118 356.588 117.873 356.542 118.573C356.513 118.896 356.383 119.174 356.15 119.407C355.906 119.633 355.622 119.732 355.299 119.704C354.973 119.658 354.727 119.525 354.562 119.306C354.396 119.088 354.33 118.826 354.362 118.521C354.415 117.997 354.431 117.401 354.409 116.734C354.394 116.056 354.357 115.363 354.299 114.656C354.23 113.942 354.144 113.255 354.039 112.595C353.941 111.924 353.828 111.336 353.698 110.83L351.699 113.835L351.715 113.846C352.243 114.197 352.625 114.545 352.862 114.889C353.089 115.226 353.161 115.608 353.079 116.035C352.997 116.462 352.751 116.983 352.343 117.597C351.934 118.211 351.549 118.638 351.187 118.879C350.825 119.12 350.444 119.201 350.046 119.122C349.637 119.036 349.168 118.818 348.641 118.467L345.005 116.048C344.478 115.697 344.101 115.353 343.874 115.016C343.637 114.671 343.56 114.286 343.642 113.859C343.724 113.432 343.969 112.911 344.378 112.297C344.786 111.683 345.172 111.256 345.534 111.015C345.896 110.775 346.282 110.697 346.691 110.783C347.089 110.861 347.552 111.076 348.08 111.427L350.035 112.728L352.346 109.255L350.472 108.008L349.01 110.205C348.838 110.463 348.621 110.614 348.359 110.657C348.097 110.701 347.848 110.644 347.611 110.486C347.385 110.335 347.241 110.131 347.18 109.873C347.118 109.614 347.174 109.356 347.346 109.098L348.808 106.9L347.079 105.75C346.799 105.564 346.636 105.331 346.589 105.051C346.549 104.76 346.611 104.491 346.776 104.243C346.948 103.985 347.172 103.823 347.449 103.758C347.725 103.694 348.003 103.754 348.283 103.941L350.012 105.091L351.818 102.377C351.982 102.129 352.196 101.983 352.458 101.94C352.72 101.897 352.964 101.95 353.19 102.101C353.427 102.259 353.576 102.467 353.637 102.725C353.698 102.983 353.647 103.236 353.482 103.484L351.676 106.198L353.55 107.445L356.098 103.616C356.262 103.368 356.476 103.223 356.738 103.179C357 103.136 357.249 103.193 357.486 103.351C357.712 103.502 357.856 103.706 357.917 103.964C357.978 104.223 357.926 104.476 357.762 104.723L355.504 108.116C355.981 108.076 356.518 108.006 357.113 107.905C357.709 107.804 358.313 107.678 358.927 107.526C359.54 107.375 360.128 107.215 360.692 107.046C361.255 106.877 361.748 106.707 362.171 106.538C362.473 106.413 362.763 106.419 363.043 106.559C363.32 106.681 363.512 106.894 363.62 107.199C363.731 107.522 363.708 107.825 363.551 108.109C363.393 108.392 363.153 108.59 362.83 108.701C362.364 108.842 361.815 108.989 361.183 109.144C360.541 109.292 359.869 109.427 359.165 109.55C358.459 109.654 357.766 109.738 357.088 109.799L361.579 112.788C361.86 112.974 362.023 113.207 362.07 113.487C362.117 113.767 362.054 114.036 361.882 114.294ZM350.598 116.436C350.763 116.188 350.836 115.996 350.818 115.86C350.8 115.723 350.662 115.569 350.403 115.397L347.156 113.237C346.897 113.065 346.702 112.997 346.569 113.033C346.436 113.069 346.287 113.21 346.123 113.458C345.951 113.717 345.874 113.914 345.892 114.05C345.917 114.176 346.059 114.325 346.317 114.497L349.565 116.657C349.823 116.829 350.015 116.903 350.141 116.878C350.273 116.842 350.426 116.694 350.598 116.436Z" fill="#49854A"/>
</svg>
