<svg width="304" height="90" viewBox="0 0 304 90" fill="none" xmlns="http://www.w3.org/2000/svg">
<path d="M36.9509 70.036C36.4212 70.469 35.8718 70.665 35.3028 70.625C34.7682 70.589 34.2792 70.358 33.8359 69.931C33.4081 69.523 33.2047 69.043 33.2256 68.489C33.2311 67.917 33.4394 67.399 33.8506 66.937C34.3976 66.332 34.6849 65.892 34.7126 65.617C34.7403 65.342 34.5608 64.968 34.1743 64.495L27.7966 56.691L16.7572 65.713C16.3221 66.068 15.8639 66.222 15.3825 66.174C14.8858 66.106 14.475 65.874 14.1503 65.477C13.8257 65.079 13.6798 64.63 13.7127 64.13C13.7457 63.63 13.9797 63.202 14.4149 62.846L15.6919 61.803C15.2466 61.914 14.7937 61.843 14.3331 61.588C13.8451 61.261 13.5642 60.86 13.4906 60.383C13.4015 59.888 13.492 59.42 13.7621 58.978C15.0045 56.985 15.5093 55.073 15.2766 53.244L11.6157 56.236C11.1995 56.576 10.7601 56.714 10.2977 56.65C9.81989 56.567 9.42629 56.337 9.11709 55.958C8.80789 55.58 8.66799 55.158 8.69749 54.692C8.72699 54.226 8.94989 53.823 9.36609 53.483L13.8216 49.842L12.5228 48.253C12.1208 47.761 11.9552 47.249 12.026 46.718C12.1157 46.171 12.3876 45.713 12.8417 45.342C13.2768 44.986 13.7712 44.819 14.3247 44.84C14.8783 44.86 15.356 45.117 15.758 45.609L17.0568 47.198L21.9947 43.163C22.4298 42.807 22.8691 42.669 23.3126 42.748C23.775 42.812 24.1608 43.033 24.47 43.412C24.7793 43.79 24.9269 44.222 24.9128 44.706C24.9023 45.157 24.6794 45.56 24.2443 45.915L20.2712 49.162C22.0503 49.602 24.0462 49.438 26.2592 48.671C26.7458 48.494 27.2306 48.508 27.7135 48.713C28.181 48.899 28.5169 49.271 28.7211 49.83C28.8859 50.263 28.8754 50.714 28.6894 51.181L30.0232 50.091C30.4584 49.735 30.9243 49.591 31.4211 49.659C31.9179 49.726 32.3286 49.958 32.6533 50.356C32.978 50.753 33.1239 51.202 33.0909 51.702C33.0425 52.183 32.8007 52.602 32.3656 52.957L31.0034 54.071L37.9841 62.613C39.1282 64.013 39.5976 65.301 39.3924 66.479C39.2215 67.66 38.4077 68.845 36.9509 70.036ZM15.5709 79.32C15.1958 79.942 14.7074 80.309 14.1056 80.423C13.4884 80.517 12.9358 80.4 12.4477 80.073C11.9442 79.728 11.6324 79.288 11.5124 78.755C11.3769 78.203 11.501 77.66 11.8847 77.126C12.1479 76.753 12.4318 76.347 12.7364 75.909C13.0443 75.436 13.3523 74.964 13.6603 74.491L7.18989 66.574L5.11819 68.267C4.66419 68.638 4.17929 68.797 3.66359 68.745C3.16679 68.678 2.74829 68.436 2.40819 68.02C2.06799 67.604 1.91439 67.146 1.94739 66.645C1.98379 66.111 2.22899 65.658 2.68309 65.287L4.75469 63.594L1.02089 59.025C0.634394 58.552 0.484195 58.059 0.570495 57.547C0.641295 57.016 0.884794 56.58 1.30099 56.24C1.73609 55.884 2.22099 55.725 2.75559 55.761C3.27479 55.779 3.72759 56.024 4.11419 56.497L7.84799 61.066L9.52239 59.698C9.99539 59.311 10.488 59.161 11.0002 59.247C11.497 59.315 11.9155 59.556 12.2556 59.973C12.5958 60.389 12.7494 60.847 12.7164 61.347C12.6835 61.848 12.4305 62.291 11.9575 62.677L10.2832 64.046L15.9187 70.942C16.1063 70.631 16.2921 70.337 16.4762 70.06C16.6638 69.749 16.8307 69.471 16.977 69.225C17.2884 68.718 17.6857 68.393 18.1689 68.251C18.671 68.093 19.166 68.178 19.6541 68.505C20.1077 68.828 20.4057 69.231 20.5482 69.714C20.7095 70.182 20.6421 70.679 20.3462 71.205C20.0691 71.715 19.7206 72.331 19.3007 73.053C18.8998 73.759 18.4687 74.506 18.0075 75.293C17.5463 76.08 17.0981 76.825 16.6627 77.528C16.2463 78.216 15.8824 78.813 15.5709 79.32ZM28.9932 69.913C27.9337 70.779 27.0162 71.355 26.2408 71.641C25.4842 71.913 24.7665 71.884 24.0876 71.555C23.4087 71.226 22.6673 70.57 21.8634 69.586C21.0594 68.602 20.5639 67.745 20.3769 67.014C20.19 66.284 20.3047 65.575 20.7211 64.887C21.1565 64.184 21.9039 63.4 22.9634 62.534C24.0228 61.668 24.9309 61.1 25.6874 60.829C26.4629 60.542 27.1901 60.563 27.869 60.892C28.5478 61.221 29.2892 61.877 30.0932 62.861C30.8972 63.844 31.3927 64.702 31.5796 65.432C31.7666 66.163 31.6424 66.88 31.207 67.583C30.7906 68.27 30.0527 69.047 28.9932 69.913ZM17.2811 60.504L27.1002 52.48C25.7539 52.917 24.3518 53.132 22.894 53.125C21.4362 53.117 20.0696 52.893 18.7943 52.452C18.9913 53.774 18.9673 55.135 18.7223 56.534C18.4774 57.933 17.997 59.256 17.2811 60.504ZM26.9523 67.415C27.4631 66.998 27.7324 66.652 27.7601 66.377C27.7912 66.067 27.6135 65.676 27.2269 65.203C26.825 64.711 26.4847 64.469 26.2062 64.475C25.9312 64.448 25.5382 64.642 25.0274 65.06C24.5166 65.477 24.2474 65.824 24.2197 66.099C24.1766 66.355 24.356 66.729 24.758 67.221C25.1445 67.694 25.483 67.953 25.7735 68C26.0486 68.028 26.4415 67.833 26.9523 67.415Z" fill="#FF1717"/>
<path d="M47.788 59.511C47.3091 59.755 46.7903 59.787 46.2316 59.605C45.7057 59.435 45.3151 59.099 45.0598 58.598C44.8045 58.098 44.7622 57.585 44.9329 57.059C45.1253 56.522 45.461 56.131 45.9398 55.887L57.0407 50.226L52.5119 41.345L44.8393 45.258C44.3604 45.502 43.8472 45.545 43.2995 45.385C42.7626 45.193 42.372 44.857 42.1278 44.378C41.8725 43.877 41.8302 43.364 42.0008 42.838C42.1933 42.301 42.5289 41.911 43.0078 41.667L50.6804 37.754L47.134 30.8L37.4697 35.728C36.9691 35.983 36.445 36.031 35.8974 35.872C35.3604 35.679 34.9698 35.343 34.7256 34.865C34.4703 34.364 34.428 33.851 34.5987 33.325C34.78 32.766 35.121 32.359 35.6216 32.104L59.1946 20.083C59.6952 19.827 60.214 19.796 60.7509 19.988C61.2986 20.148 61.7 20.478 61.9553 20.979C62.1995 21.457 62.231 21.976 62.0496 22.535C61.879 23.061 61.5433 23.451 61.0427 23.707L51.1825 28.735L54.729 35.689L62.8913 31.527C63.392 31.272 63.9052 31.229 64.4311 31.4C64.9569 31.571 65.3475 31.906 65.6028 32.407C65.847 32.886 65.8893 33.399 65.7298 33.947C65.5591 34.472 65.2235 34.863 64.7228 35.118L56.5604 39.281L61.0892 48.161L72.3533 42.417C72.8539 42.162 73.3672 42.12 73.893 42.29C74.4407 42.45 74.8421 42.78 75.0974 43.281C75.3527 43.781 75.3841 44.3 75.1917 44.837C75.0322 45.385 74.7021 45.786 74.2014 46.041L47.788 59.511ZM68.882 42.871C68.5803 43.409 68.1461 43.767 67.5793 43.947C67.0014 44.104 66.4382 44.049 65.8897 43.78C65.5384 43.575 65.0612 43.338 64.4581 43.07C63.855 42.802 63.2518 42.533 62.6487 42.265C62.0345 41.975 61.5246 41.755 61.1191 41.605C60.6257 41.39 60.2895 41.027 60.1106 40.515C59.9206 39.981 59.9494 39.472 60.1969 38.99C60.444 38.452 60.8233 38.067 61.3351 37.833C61.8468 37.6 62.3767 37.59 62.9248 37.804C63.3192 37.932 63.8508 38.141 64.5196 38.431C65.1774 38.699 65.8298 38.983 66.4769 39.284C67.1347 39.552 67.6281 39.767 67.9572 39.928C68.5275 40.186 68.8914 40.603 69.0489 41.181C69.2065 41.759 69.1509 42.322 68.882 42.871Z" fill="#FF1717"/>
<path d="M99.3597 36.337C98.8077 36.635 98.2307 36.699 97.6297 36.53C97.0287 36.361 96.5817 36.012 96.2897 35.482C95.9977 34.953 95.9397 34.4 96.1147 33.822C96.2847 33.221 96.6337 32.775 97.1627 32.483C99.6027 31.103 101.234 29.483 102.055 27.622C102.899 25.755 103.009 23.641 102.382 21.279C101.988 19.791 101.303 18.544 100.329 17.539C99.3547 16.533 98.1557 15.827 96.7337 15.421C95.3357 15.008 93.7637 14.944 92.0197 15.23C92.6467 19.31 92.8377 22.937 92.5917 26.112C92.3637 29.256 91.7747 31.801 90.8247 33.746C89.8917 35.662 88.6817 36.817 87.1937 37.212C85.9417 37.543 84.6997 37.481 83.466 37.025C82.2327 36.568 81.1275 35.736 80.1503 34.529C79.1966 33.316 78.4662 31.753 77.959 29.84C77.4393 27.88 77.32 25.952 77.6013 24.058C77.8999 22.133 78.5619 20.34 79.5873 18.678C80.6127 17.016 81.9494 15.574 83.5975 14.354C85.2687 13.127 87.2147 12.219 89.4347 11.631C92.1277 10.917 94.6507 10.804 97.0047 11.292C99.3757 11.75 101.408 12.741 103.101 14.263C104.787 15.763 105.953 17.728 106.598 20.161C107.506 23.586 107.343 26.687 106.108 29.467C104.891 32.216 102.641 34.506 99.3597 36.337ZM86.0737 32.845C86.4987 32.732 86.8887 32.25 87.2447 31.397C87.6167 30.515 87.9117 29.337 88.1277 27.864C88.3437 26.391 88.4497 24.695 88.4467 22.775C88.4367 20.831 88.2587 18.729 87.9127 16.47C86.1637 17.313 84.7987 18.408 83.8164 19.756C82.8277 21.079 82.1992 22.523 81.931 24.085C81.6565 25.624 81.7079 27.152 82.085 28.67C82.5108 30.276 83.0813 31.426 83.7964 32.122C84.5347 32.81 85.2947 33.051 86.0737 32.845Z" fill="#FF1717"/>
<path d="M135.17 32.355C134.644 32.602 134.095 32.629 133.523 32.438C132.952 32.272 132.542 31.913 132.294 31.363C132.18 31.051 132.04 30.704 131.874 30.321C131.708 29.938 131.516 29.544 131.3 29.139C130.404 29.331 129.376 29.555 128.215 29.81C127.078 30.063 125.904 30.319 124.694 30.576C123.483 30.809 122.345 31.038 121.28 31.264C120.213 31.465 119.317 31.633 118.59 31.768C117.911 31.9 117.32 31.808 116.814 31.491C116.333 31.173 116.039 30.674 115.931 29.995C115.851 29.387 115.958 28.856 116.253 28.4C116.571 27.919 117.095 27.636 117.824 27.55C118.043 27.514 118.286 27.477 118.553 27.439C118.819 27.377 119.11 27.325 119.426 27.285C119.937 26.28 120.538 25.112 121.229 23.78C121.918 22.424 122.617 21.018 123.326 19.563C122.562 18.966 121.709 18.312 120.767 17.602C119.826 16.891 118.911 16.216 118.022 15.576C117.158 14.935 116.434 14.409 115.85 13.999C115.318 13.635 115.024 13.148 114.968 12.539C114.913 11.93 115.058 11.409 115.403 10.976C115.793 10.467 116.28 10.197 116.866 10.167C117.45 10.113 117.984 10.269 118.468 10.636C118.594 10.703 118.708 10.783 118.81 10.876C118.936 10.943 119.05 11.022 119.153 11.115C119.547 10.214 119.962 9.239 120.398 8.189C120.834 7.14 121.246 6.10299 121.634 5.07999C122.023 4.05799 122.345 3.18499 122.602 2.46199C122.837 1.78999 123.254 1.33999 123.855 1.11399C124.455 0.887991 125.042 0.894995 125.617 1.13499C126.191 1.34999 126.589 1.733 126.813 2.285C127.06 2.81 127.076 3.35999 126.86 3.93399C126.538 4.80599 126.113 5.831 125.586 7.008C125.082 8.159 124.566 9.32299 124.039 10.499C123.51 11.652 123.025 12.692 122.583 13.619C123.091 13.985 123.562 14.34 123.995 14.685C124.453 15.029 124.861 15.35 125.219 15.65C125.795 14.471 126.313 13.356 126.773 12.305C127.258 11.253 127.64 10.353 127.92 9.60399C128.157 8.98099 128.552 8.569 129.105 8.37C129.657 8.17 130.221 8.19099 130.796 8.42999C131.37 8.64599 131.757 9.042 131.957 9.619C132.181 10.17 132.162 10.746 131.899 11.347C131.482 12.298 130.964 13.413 130.344 14.692C129.747 15.946 129.093 17.276 128.382 18.682C127.694 20.062 126.993 21.431 126.279 22.789C125.589 24.121 124.941 25.34 124.337 26.447C125.258 26.278 126.155 26.122 127.029 25.98C127.926 25.812 128.75 25.66 129.501 25.524C129.284 25.095 129.067 24.69 128.852 24.309C128.661 23.928 128.473 23.595 128.288 23.311C128.017 22.81 127.967 22.299 128.136 21.777C128.305 21.255 128.64 20.858 129.14 20.588C129.687 20.291 130.233 20.202 130.778 20.321C131.321 20.416 131.752 20.724 132.072 21.246C132.392 21.768 132.755 22.398 133.159 23.136C133.564 23.874 133.97 24.648 134.379 25.459C134.786 26.246 135.155 27.01 135.486 27.751C135.841 28.467 136.129 29.076 136.35 29.579C136.598 30.129 136.6 30.655 136.357 31.157C136.139 31.681 135.743 32.081 135.17 32.355ZM139.893 33.582C139.161 33.619 138.541 33.455 138.033 33.09C137.551 32.747 137.267 32.223 137.183 31.518C137.123 30.836 137.303 30.277 137.721 29.839C138.138 29.378 138.687 29.117 139.369 29.058C140.439 28.93 141.25 28.754 141.801 28.531C142.375 28.281 142.784 27.893 143.026 27.367C143.267 26.817 143.411 26.039 143.458 25.033C143.515 23.758 143.537 21.788 143.524 19.122C143.509 16.431 143.412 13.317 143.232 9.77899C143.162 8.41199 142.871 7.50999 142.36 7.07099C141.847 6.60799 140.846 6.41399 139.358 6.48999L131.342 6.89799C130.805 6.92499 130.319 6.75399 129.884 6.38499C129.474 6.01499 129.255 5.54899 129.226 4.98699C129.198 4.42599 129.369 3.95299 129.741 3.56699C130.136 3.15499 130.602 2.93599 131.139 2.90799L139.155 2.49999C141.229 2.39499 142.851 2.54399 144.021 2.94999C145.215 3.32899 146.072 4.05599 146.591 5.13099C147.134 6.17999 147.454 7.66799 147.553 9.59599C147.751 13.5 147.854 16.712 147.86 19.231C147.89 21.75 147.871 23.781 147.803 25.326C147.713 27.41 147.368 29.042 146.768 30.223C146.191 31.378 145.339 32.192 144.213 32.665C143.089 33.162 141.649 33.468 139.893 33.582Z" fill="#FF1717"/>
<path d="M174.75 33.342C174.124 33.389 173.57 33.213 173.09 32.814C172.61 32.415 172.345 31.914 172.294 31.312C172.242 30.709 172.415 30.18 172.81 29.724C173.209 29.244 173.71 28.979 174.312 28.928C177.103 28.661 179.252 27.844 180.759 26.479C182.291 25.118 183.251 23.231 183.641 20.819C183.887 19.3 183.769 17.882 183.289 16.567C182.808 15.252 182.001 14.119 180.867 13.169C179.758 12.222 178.349 11.525 176.639 11.075C175.551 15.057 174.248 18.448 172.732 21.247C171.243 24.026 169.669 26.111 168.009 27.501C166.377 28.871 164.801 29.433 163.281 29.187C162.003 28.981 160.893 28.418 159.953 27.499C159.012 26.58 158.342 25.37 157.941 23.87C157.563 22.373 157.533 20.648 157.848 18.694C158.172 16.692 158.848 14.884 159.876 13.268C160.932 11.632 162.267 10.263 163.88 9.16302C165.494 8.06202 167.301 7.29002 169.304 6.84602C171.33 6.40602 173.477 6.36902 175.744 6.73502C178.494 7.18002 180.844 8.10402 182.795 9.50802C184.775 10.892 186.227 12.624 187.153 14.704C188.084 16.76 188.348 19.03 187.947 21.515C187.382 25.012 185.969 27.779 183.71 29.815C181.479 31.83 178.492 33.006 174.75 33.342ZM164.036 24.743C164.471 24.813 165.024 24.531 165.695 23.897C166.395 23.243 167.143 22.287 167.94 21.03C168.737 19.773 169.525 18.267 170.304 16.511C171.086 14.732 171.779 12.74 172.383 10.536C170.443 10.594 168.75 11.038 167.304 11.869C165.862 12.675 164.701 13.738 163.819 15.056C162.942 16.349 162.367 17.766 162.093 19.306C161.828 20.946 161.881 22.229 162.251 23.155C162.645 24.085 163.24 24.614 164.036 24.743Z" fill="#FF1717"/>
<path d="M203.008 37.464C201.943 37.103 201.034 36.475 200.28 35.579C199.527 34.684 199.012 33.514 198.734 32.07C198.517 30.806 198.497 29.304 198.674 27.565C198.852 25.825 199.203 24.009 199.728 22.116C200.262 20.2 200.928 18.349 201.727 16.562C201.994 16.01 202.391 15.628 202.92 15.413C203.48 15.185 204.036 15.205 204.588 15.471C205.149 15.715 205.527 16.124 205.724 16.698C205.952 17.259 205.932 17.815 205.666 18.367C204.956 19.926 204.361 21.49 203.883 23.06C203.413 24.608 203.094 26.07 202.927 27.446C202.768 28.8 202.769 29.98 202.929 30.986C203.09 32.123 203.569 32.846 204.367 33.156C205.355 33.513 206.573 32.807 208.02 31.036C208.406 30.583 208.898 30.328 209.496 30.272C210.103 30.193 210.645 30.351 211.121 30.746C211.583 31.108 211.837 31.6 211.885 32.222C211.941 32.82 211.776 33.346 211.39 33.799C209.974 35.556 208.541 36.716 207.09 37.28C205.648 37.821 204.288 37.882 203.008 37.464ZM223.963 38.68C223.337 38.673 222.81 38.442 222.384 37.988C221.98 37.543 221.777 37.019 221.776 36.416C221.761 35.44 221.626 34.405 221.37 33.309C221.136 32.223 220.805 31.151 220.377 30.093C219.972 29.045 219.495 28.113 218.947 27.297C218.615 26.801 218.503 26.247 218.61 25.633C218.717 25.019 219.041 24.555 219.583 24.241C220.124 23.927 220.665 23.849 221.207 24.007C221.771 24.174 222.226 24.521 222.572 25.048C223.272 26.08 223.892 27.251 224.432 28.562C224.994 29.881 225.439 31.233 225.766 32.618C226.093 34.003 226.236 35.29 226.193 36.479C226.172 37.074 225.942 37.6 225.502 38.059C225.07 38.494 224.558 38.701 223.963 38.68Z" fill="#FF1717"/>
<path d="M238.663 60.508C238.139 60.193 237.814 59.731 237.688 59.122C237.549 58.533 237.627 57.97 237.921 57.433C238.237 56.909 238.689 56.577 239.277 56.438C239.9 56.292 240.466 56.387 240.977 56.722C243.95 58.56 246.354 59.439 248.19 59.36C250.06 59.273 251.565 58.363 252.706 56.627C253.337 55.668 253.524 54.694 253.267 53.706C253.031 52.732 252.436 51.858 251.482 51.085C250.562 50.305 249.359 49.733 247.873 49.37C246.386 49.006 244.726 48.953 242.891 49.208C242.41 49.272 241.959 49.18 241.537 48.932C241.149 48.677 240.849 48.333 240.636 47.901C240.457 47.462 240.417 47.011 240.516 46.55C240.614 46.088 240.842 45.697 241.199 45.377C242.129 44.585 243.143 43.599 244.24 42.42C245.337 41.24 246.394 40.034 247.409 38.801C246.395 38.164 245.449 37.556 244.572 36.979C243.707 36.382 242.962 35.848 242.335 35.377C241.872 35.014 241.605 34.531 241.533 33.929C241.482 33.339 241.638 32.813 242.001 32.35C242.364 31.887 242.84 31.63 243.429 31.579C244.032 31.507 244.565 31.653 245.028 32.016C245.661 32.52 246.41 33.071 247.275 33.668C248.16 34.28 249.088 34.89 250.061 35.501C250.478 34.956 250.851 34.456 251.18 33.999C251.523 33.523 251.815 33.101 252.057 32.733C252.392 32.223 252.837 31.902 253.392 31.769C253.981 31.63 254.537 31.718 255.061 32.033C255.585 32.348 255.916 32.8 256.056 33.389C256.195 33.978 256.097 34.527 255.761 35.038C255.533 35.385 255.244 35.78 254.894 36.222C254.565 36.678 254.199 37.169 253.796 37.693C255.918 38.913 257.838 39.839 259.557 40.472C260.114 40.692 260.503 41.079 260.723 41.634C260.977 42.181 260.984 42.727 260.743 43.27C260.523 43.827 260.146 44.223 259.613 44.457C259.079 44.69 258.533 44.697 257.976 44.477C256.991 44.063 255.907 43.555 254.724 42.953C253.541 42.35 252.33 41.701 251.093 41.004C250.4 41.835 249.693 42.642 248.973 43.426C248.267 44.19 247.614 44.872 247.014 45.472C248.587 45.57 250.039 45.896 251.371 46.45C252.703 47.004 253.866 47.726 254.861 48.614C255.856 49.502 256.612 50.51 257.127 51.639C257.642 52.767 257.853 53.958 257.76 55.213C257.679 56.447 257.23 57.686 256.411 58.932C254.505 61.831 252.004 63.388 248.908 63.604C245.813 63.821 242.398 62.788 238.663 60.508Z" fill="#FF1717"/>
<path d="M278.752 89.559C275.562 87.518 272.995 85.415 271.05 83.25C269.105 81.12 267.816 79.014 267.184 76.933C266.568 74.87 266.651 72.927 267.433 71.105C267.664 70.537 268.067 70.145 268.64 69.927C269.212 69.709 269.773 69.724 270.323 69.972C270.89 70.203 271.275 70.596 271.476 71.152C271.694 71.724 271.678 72.286 271.43 72.836C271.003 73.902 271.092 75.147 271.698 76.571C272.303 77.995 273.392 79.51 274.963 81.118C276.569 82.726 278.614 84.296 281.102 85.828C281.634 86.163 281.958 86.633 282.071 87.239C282.203 87.828 282.109 88.38 281.792 88.895C281.458 89.392 280.997 89.706 280.408 89.838C279.819 89.969 279.267 89.876 278.752 89.559ZM290.735 73.137C290.057 71.954 289.25 70.761 288.314 69.558C287.412 68.356 286.458 67.222 285.451 66.156C284.444 65.09 283.452 64.146 282.477 63.322C282.015 62.92 281.737 62.424 281.64 61.835C281.578 61.247 281.738 60.714 282.124 60.234C282.51 59.755 282.997 59.484 283.585 59.422C284.19 59.342 284.734 59.496 285.213 59.881C286.343 60.827 287.495 61.955 288.672 63.265C289.866 64.557 290.975 65.866 291.997 67.191C293.035 68.533 293.875 69.761 294.519 70.874C294.824 71.396 294.905 71.95 294.76 72.536C294.615 73.121 294.28 73.567 293.758 73.872C293.254 74.194 292.691 74.283 292.071 74.137C291.485 73.992 291.04 73.659 290.735 73.137ZM296.858 79.247C296.426 79.224 296.066 79.03 295.776 78.664C295.487 78.298 295.37 77.899 295.427 77.468C295.502 77.019 295.56 76.467 295.602 75.811C295.679 75.155 295.729 74.56 295.752 74.024C295.791 73.679 295.951 73.37 296.23 73.097C296.527 72.841 296.89 72.725 297.322 72.747C297.702 72.751 298.011 72.893 298.25 73.172C298.523 73.452 298.675 73.799 298.705 74.214C298.751 74.681 298.761 75.269 298.736 75.977C298.745 76.685 298.712 77.298 298.637 77.816C298.58 78.247 298.377 78.599 298.029 78.871C297.697 79.161 297.307 79.286 296.858 79.247ZM301.521 79.456C301.106 79.451 300.737 79.283 300.412 78.951C300.122 78.619 299.988 78.238 300.011 77.806C300.033 77.34 300.048 76.778 300.056 76.122C300.098 75.466 300.114 74.87 300.103 74.334C300.107 73.988 300.231 73.679 300.476 73.405C300.739 73.115 301.087 72.963 301.519 72.951C301.917 72.938 302.26 73.063 302.551 73.326C302.841 73.588 303.011 73.918 303.058 74.316C303.139 74.784 303.192 75.363 303.219 76.055C303.262 76.764 303.255 77.386 303.197 77.92C303.175 78.352 302.998 78.713 302.666 79.003C302.369 79.293 301.987 79.444 301.521 79.456Z" fill="#FF1717"/>
</svg>
