<?xml version="1.0" standalone="no"?>
<!DOCTYPE svg PUBLIC "-//W3C//DTD SVG 20010904//EN"
 "http://www.w3.org/TR/2001/REC-SVG-20010904/DTD/svg10.dtd">
<svg version="1.0" xmlns="http://www.w3.org/2000/svg"
 width="102.000000pt" height="102.000000pt" viewBox="0 0 102.000000 102.000000"
 preserveAspectRatio="xMidYMid meet">
<metadata>
Created by potrace 1.14, written by Peter Selinger 2001-2017
</metadata>
<g transform="translate(0.000000,102.000000) scale(0.100000,-0.100000)"
fill="#000000" stroke="none">
<path d="M368 990 c-14 -11 -33 -38 -42 -60 -15 -37 -18 -40 -43 -33 -54 15
-96 6 -126 -27 -35 -39 -36 -88 -3 -126 l23 -28 29 23 c28 22 34 22 143 16 72
-5 112 -4 108 2 -3 5 -11 38 -16 74 -10 60 -7 85 14 157 7 20 4 22 -27 22 -20
0 -46 -9 -60 -20z"/>
<path d="M523 995 c-17 -7 -37 -24 -44 -36 -12 -24 -15 -120 -4 -169 6 -26 10
-28 50 -28 53 1 91 -21 108 -64 l13 -31 39 52 c43 60 102 107 146 116 33 8 35
12 14 42 -24 34 -75 46 -124 29 l-42 -14 -13 32 c-28 65 -87 95 -143 71z"/>
<path d="M820 799 c-42 -17 -86 -56 -134 -120 -36 -48 -46 -69 -46 -100 0 -35
-2 -39 -26 -39 -71 0 -95 -61 -69 -176 18 -79 12 -107 -25 -119 -27 -9 -39 1
-59 49 l-18 41 -13 -70 c-16 -88 -43 -151 -81 -191 l-31 -32 23 -16 c41 -28
87 -18 140 31 23 21 27 22 39 8 43 -52 118 -59 162 -15 27 28 30 36 25 75 -2
25 -12 56 -21 71 -15 21 -20 23 -33 12 -13 -10 -18 -9 -34 10 -29 36 -61 132
-66 199 -5 57 -4 63 21 88 21 21 32 25 55 20 16 -3 49 -6 73 -5 100 4 111 3
122 -12 6 -8 29 -18 51 -22 22 -4 56 -18 77 -31 41 -27 48 -21 48 42 0 26 -8
43 -32 67 -18 18 -39 35 -46 37 -9 3 -7 14 8 44 24 47 25 66 4 106 -12 24 -69
62 -86 58 -2 0 -14 -5 -28 -10z"/>
<path d="M67 760 c-33 -38 -34 -70 -5 -122 l23 -40 -32 -26 c-54 -46 -65 -89
-38 -141 22 -43 64 -57 130 -42 30 7 56 15 59 19 2 4 -4 39 -15 77 -10 39 -18
100 -18 136 -1 58 -4 68 -27 90 -15 13 -32 37 -39 52 l-12 29 -26 -32z"/>
<path d="M313 593 c-19 -7 -16 -40 4 -47 21 -8 36 6 31 30 -3 19 -16 25 -35
17z"/>
<path d="M467 594 c-12 -12 -8 -42 6 -47 21 -8 39 8 35 29 -3 19 -29 30 -41
18z"/>
<path d="M340 496 c0 -36 103 -44 131 -10 16 20 5 28 -19 15 -26 -14 -79 -14
-87 -1 -9 15 -25 12 -25 -4z"/>
<path d="M840 418 c0 -73 -41 -195 -71 -213 -14 -10 -32 9 -45 47 -6 18 -15
33 -21 35 -24 8 -20 -29 7 -79 18 -32 30 -68 30 -90 0 -28 4 -38 16 -38 49 0
89 61 81 122 -6 41 -5 41 47 53 16 3 41 19 57 35 51 51 33 127 -37 156 -55 23
-64 19 -64 -28z"/>
<path d="M632 408 c6 -18 28 -21 28 -4 0 9 -7 16 -16 16 -9 0 -14 -5 -12 -12z"/>
<path d="M730 405 c0 -8 7 -15 15 -15 8 0 15 7 15 15 0 8 -7 15 -15 15 -8 0
-15 -7 -15 -15z"/>
<path d="M380 331 c-26 -71 -53 -100 -78 -85 -9 6 -31 37 -49 70 -17 32 -35
59 -40 59 -4 0 -32 -6 -61 -14 -29 -7 -68 -10 -87 -7 -33 7 -35 5 -35 -21 1
-48 52 -93 107 -93 32 0 33 -1 33 -42 0 -58 18 -89 62 -111 69 -34 118 3 156
118 24 72 39 185 25 185 -6 0 -21 -27 -33 -59z"/>
<path d="M660 355 c18 -22 80 -17 80 6 0 5 -10 5 -23 0 -14 -6 -30 -6 -38 0
-22 14 -33 11 -19 -6z"/>
</g>
</svg>
