<?xml version="1.0" encoding="UTF-8" standalone="no"?>
<!DOCTYPE svg PUBLIC "-//W3C//DTD SVG 1.1//EN" "http://www.w3.org/Graphics/SVG/1.1/DTD/svg11.dtd">
<svg xmlns="http://www.w3.org/2000/svg" version="1.1" viewBox="0.00 0.00 300.00 100.00">
<g stroke-width="2.00" fill="none" stroke-linecap="butt">
<path stroke="#ffc080" vector-effect="non-scaling-stroke" d="
  M 59.50 33.00
  L 59.50 49.72
  Q 59.50 51.04 60.82 51.02
  L 61.39 51.00
  Q 62.75 50.97 62.75 49.61
  L 62.75 32.75
  Q 62.75 32.25 63.25 32.25
  L 80.13 32.25
  A 1.37 1.37 0.0 0 0 81.50 30.87
  L 81.49 30.24
  Q 81.48 29.00 80.24 29.00
  L 63.25 29.00
  Q 62.75 29.00 62.75 28.50
  L 62.75 11.75
  Q 62.76 10.24 61.25 10.02
  Q 60.65 9.94 60.05 10.30
  A 1.15 1.13 74.7 0 0 59.50 11.28
  L 59.50 28.50
  A 0.50 0.50 0.0 0 1 59.00 29.00
  L 42.02 29.00
  Q 40.80 29.00 40.76 30.23
  L 40.75 30.73
  A 1.48 1.47 0.9 0 0 42.23 32.25
  L 58.75 32.25
  Q 59.50 32.25 59.50 33.00"
/>
<path stroke="#ffc080" vector-effect="non-scaling-stroke" d="
  M 50.10 55.93
  A 17.50 17.50 0.0 0 0 32.60 38.43
  A 17.50 17.50 0.0 0 0 15.10 55.93
  A 17.50 17.50 0.0 0 0 32.60 73.43
  A 17.50 17.50 0.0 0 0 50.10 55.93"
/>
<path stroke="#ffc080" vector-effect="non-scaling-stroke" d="
  M 73.42 62.45
  Q 63.94 83.65 39.55 84.90
  Q 38.68 84.95 38.54 85.81
  Q 38.44 86.48 38.56 87.18
  Q 38.76 88.31 39.91 88.30
  C 62.25 88.10 79.19 71.15 79.73 48.92
  Q 79.77 47.00 77.85 47.01
  L 77.52 47.01
  A 1.27 1.27 0.0 0 0 76.26 48.23
  Q 75.84 57.04 73.42 62.45"
/>
<path stroke="#ffc080" vector-effect="non-scaling-stroke" d="
  M 46.51 55.92
  A 13.91 13.91 0.0 0 0 32.60 42.01
  A 13.91 13.91 0.0 0 0 18.69 55.92
  A 13.91 13.91 0.0 0 0 32.60 69.83
  A 13.91 13.91 0.0 0 0 46.51 55.92"
/>
</g>
<path fill="#ff8000" d="
  M 99.14 50.00
  A 49.14 49.14 0.0 0 1 50.00 99.14
  A 49.14 49.14 0.0 0 1 0.86 50.00
  A 49.14 49.14 0.0 0 1 50.00 0.86
  A 49.14 49.14 0.0 0 1 99.14 50.00
  Z
  M 59.50 33.00
  L 59.50 49.72
  Q 59.50 51.04 60.82 51.02
  L 61.39 51.00
  Q 62.75 50.97 62.75 49.61
  L 62.75 32.75
  Q 62.75 32.25 63.25 32.25
  L 80.13 32.25
  A 1.37 1.37 0.0 0 0 81.50 30.87
  L 81.49 30.24
  Q 81.48 29.00 80.24 29.00
  L 63.25 29.00
  Q 62.75 29.00 62.75 28.50
  L 62.75 11.75
  Q 62.76 10.24 61.25 10.02
  Q 60.65 9.94 60.05 10.30
  A 1.15 1.13 74.7 0 0 59.50 11.28
  L 59.50 28.50
  A 0.50 0.50 0.0 0 1 59.00 29.00
  L 42.02 29.00
  Q 40.80 29.00 40.76 30.23
  L 40.75 30.73
  A 1.48 1.47 0.9 0 0 42.23 32.25
  L 58.75 32.25
  Q 59.50 32.25 59.50 33.00
  Z
  M 50.10 55.93
  A 17.50 17.50 0.0 0 0 32.60 38.43
  A 17.50 17.50 0.0 0 0 15.10 55.93
  A 17.50 17.50 0.0 0 0 32.60 73.43
  A 17.50 17.50 0.0 0 0 50.10 55.93
  Z
  M 73.42 62.45
  Q 63.94 83.65 39.55 84.90
  Q 38.68 84.95 38.54 85.81
  Q 38.44 86.48 38.56 87.18
  Q 38.76 88.31 39.91 88.30
  C 62.25 88.10 79.19 71.15 79.73 48.92
  Q 79.77 47.00 77.85 47.01
  L 77.52 47.01
  A 1.27 1.27 0.0 0 0 76.26 48.23
  Q 75.84 57.04 73.42 62.45
  Z"
/>
<path fill="#444444" d="
  M 131.09 47.23
  Q 123.32 48.45 121.45 40.97
  C 121.09 39.53 121.06 36.36 121.36 34.88
  Q 123.10 26.24 132.16 27.39
  Q 132.51 27.43 132.51 27.08
  L 132.49 23.94
  A 0.29 0.29 0.0 0 0 132.18 23.65
  L 112.16 25.30
  Q 112.01 25.31 112.01 25.17
  L 112.00 19.04
  Q 112.00 18.82 112.21 18.82
  L 131.59 18.20
  A 0.76 0.75 88.1 0 0 132.32 17.41
  L 131.96 9.93
  Q 131.94 9.31 132.56 9.35
  L 139.27 9.79
  Q 139.95 9.84 139.99 10.52
  Q 140.02 11.25 139.41 11.70
  Q 138.99 12.01 138.99 12.54
  L 139.02 17.42
  A 0.38 0.38 0.0 0 0 139.43 17.80
  L 153.85 16.74
  A 0.37 0.36 87.8 0 1 154.24 17.11
  L 154.26 22.59
  A 0.36 0.35 -0.8 0 1 153.91 22.94
  L 139.61 23.32
  A 0.60 0.60 0.0 0 0 139.03 23.90
  Q 138.99 26.21 138.97 28.76
  Q 138.95 30.89 139.84 33.19
  C 143.15 41.76 136.38 53.31 130.21 59.14
  Q 129.99 59.34 129.73 59.20
  Q 126.70 57.56 123.59 56.02
  A 0.09 0.08 -46.1 0 1 123.59 55.87
  Q 128.90 52.62 131.39 47.64
  Q 131.64 47.15 131.09 47.23
  Z
  M 129.6628 42.0519
  A 4.70 3.33 97.3 0 0 133.5630 37.8131
  A 4.70 3.33 97.3 0 0 130.8572 32.7281
  A 4.70 3.33 97.3 0 0 126.9570 36.9669
  A 4.70 3.33 97.3 0 0 129.6628 42.0519
  Z"
/>
<path fill="#ffffff" d="
  M 58.75 32.25
  L 42.23 32.25
  A 1.48 1.47 0.9 0 1 40.75 30.73
  L 40.76 30.23
  Q 40.80 29.00 42.02 29.00
  L 59.00 29.00
  A 0.50 0.50 0.0 0 0 59.50 28.50
  L 59.50 11.28
  A 1.15 1.13 74.7 0 1 60.05 10.30
  Q 60.65 9.94 61.25 10.02
  Q 62.76 10.24 62.75 11.75
  L 62.75 28.50
  Q 62.75 29.00 63.25 29.00
  L 80.24 29.00
  Q 81.48 29.00 81.49 30.24
  L 81.50 30.87
  A 1.37 1.37 0.0 0 1 80.13 32.25
  L 63.25 32.25
  Q 62.75 32.25 62.75 32.75
  L 62.75 49.61
  Q 62.75 50.97 61.39 51.00
  L 60.82 51.02
  Q 59.50 51.04 59.50 49.72
  L 59.50 33.00
  Q 59.50 32.25 58.75 32.25
  Z"
/>
<path fill="#444444" d="
  M 231.71 23.32
  L 233.74 26.48
  Q 234.32 27.40 233.33 27.83
  L 228.98 29.71
  A 1.16 1.14 -25.9 0 1 227.51 29.21
  L 225.60 25.70
  Q 225.19 24.94 224.41 25.32
  L 218.64 28.15
  Q 217.67 28.63 218.15 29.60
  Q 224.03 41.60 227.81 53.92
  Q 227.96 54.42 227.48 54.63
  L 221.95 57.06
  A 0.52 0.51 70.2 0 1 221.24 56.72
  Q 217.87 44.09 212.21 32.58
  A 0.54 0.53 58.1 0 0 211.41 32.39
  L 204.83 37.36
  Q 204.60 37.54 204.40 37.32
  L 199.69 32.07
  Q 199.44 31.79 199.77 31.60
  L 208.43 26.67
  Q 208.97 26.36 208.67 25.82
  Q 206.22 21.40 203.52 17.94
  Q 203.14 17.45 203.72 17.20
  L 210.71 14.19
  A 0.69 0.69 0.0 0 1 211.66 14.99
  L 211.39 16.09
  A 1.35 1.34 37.1 0 0 211.53 17.06
  L 214.80 22.79
  Q 214.98 23.10 215.30 22.94
  L 221.44 19.97
  A 0.30 0.29 -34.8 0 0 221.53 19.50
  L 216.33 13.86
  A 0.16 0.15 55.4 0 1 216.37 13.61
  L 221.94 10.99
  Q 222.19 10.87 222.37 11.08
  L 227.49 17.18
  Q 227.86 17.62 228.41 17.44
  C 233.36 15.82 240.00 15.89 243.70 19.96
  C 246.80 23.38 246.62 29.11 244.35 32.99
  C 241.27 38.22 233.71 39.64 227.97 39.51
  Q 227.66 39.50 227.56 39.20
  L 225.51 33.34
  A 0.13 0.13 0.0 0 1 225.66 33.17
  Q 232.30 34.44 236.96 31.26
  C 239.64 29.44 241.34 24.99 237.70 23.01
  Q 235.13 21.62 231.97 22.61
  Q 231.38 22.80 231.71 23.32
  Z"
/>
<path fill="#444444" d="
  M 260.76 30.55
  L 253.95 32.69
  Q 253.73 32.76 253.65 32.54
  L 251.50 26.09
  Q 251.42 25.85 251.67 25.81
  L 262.70 24.19
  A 0.56 0.55 -86.8 0 0 263.16 23.77
  Q 264.38 18.47 264.23 13.40
  Q 264.21 12.81 264.79 12.89
  L 272.28 13.93
  A 0.84 0.83 -59.3 0 1 272.66 15.43
  L 271.67 16.18
  Q 271.21 16.53 271.11 17.09
  L 270.22 22.06
  Q 270.11 22.68 270.74 22.61
  C 277.30 21.94 282.37 22.87 282.67 31.01
  C 282.91 37.23 281.65 53.84 272.73 54.86
  Q 269.28 55.26 265.57 54.73
  Q 265.35 54.70 265.32 54.48
  L 264.52 47.83
  A 0.14 0.14 0.0 0 1 264.70 47.69
  C 267.05 48.48 271.84 49.59 273.20 46.74
  Q 276.58 39.60 276.25 31.95
  C 276.09 28.37 271.83 28.41 269.32 28.96
  Q 268.68 29.09 268.51 29.72
  Q 264.87 43.01 257.28 54.82
  A 0.46 0.45 28.5 0 1 256.71 54.98
  L 250.77 52.32
  Q 250.43 52.17 250.66 51.88
  Q 257.98 42.72 261.29 31.08
  Q 261.51 30.31 260.76 30.55
  Z"
/>
<path fill="#444444" d="
  M 179.88 21.08
  L 165.09 20.72
  A 0.33 0.32 83.1 0 1 164.78 20.47
  L 163.28 14.17
  A 0.18 0.17 87.8 0 1 163.48 13.95
  Q 177.03 16.18 190.42 14.57
  Q 190.95 14.51 191.21 14.97
  L 193.26 18.67
  Q 193.59 19.25 193.06 19.66
  L 179.78 30.07
  Q 179.58 30.23 179.41 30.04
  L 175.61 25.87
  Q 175.36 25.61 175.64 25.37
  L 180.08 21.67
  Q 180.76 21.11 179.88 21.08
  Z"
/>
<path fill="#444444" d="
  M 288.00 33.24
  A 1.35 1.35 0.0 0 0 288.48 31.58
  Q 285.82 25.59 282.42 21.71
  Q 282.21 21.47 282.47 21.28
  L 286.85 18.12
  Q 287.08 17.95 287.28 18.15
  C 290.65 21.56 300.42 34.53 293.53 38.37
  Q 291.79 39.34 289.62 39.83
  Q 288.76 40.02 288.27 39.28
  L 285.24 34.73
  Q 284.55 33.68 285.80 33.78
  Q 287.06 33.87 288.00 33.24
  Z"
/>
<path fill="#444444" d="
  M 170.19 40.73
  C 168.34 42.09 165.94 46.01 169.71 46.92
  Q 173.70 47.89 180.19 47.73
  Q 187.87 47.54 195.14 46.25
  Q 195.47 46.20 195.49 46.53
  L 195.83 52.97
  Q 195.85 53.34 195.48 53.38
  Q 185.16 54.50 174.51 54.28
  C 169.27 54.17 158.94 53.01 160.04 45.13
  Q 160.76 39.99 165.19 35.94
  Q 165.74 35.44 166.32 35.91
  L 170.23 39.08
  Q 171.27 39.93 170.19 40.73
  Z"
/>
<path fill="#ffffff" d="
  M 50.10 55.93
  A 17.50 17.50 0.0 0 1 32.60 73.43
  A 17.50 17.50 0.0 0 1 15.10 55.93
  A 17.50 17.50 0.0 0 1 32.60 38.43
  A 17.50 17.50 0.0 0 1 50.10 55.93
  Z
  M 46.51 55.92
  A 13.91 13.91 0.0 0 0 32.60 42.01
  A 13.91 13.91 0.0 0 0 18.69 55.92
  A 13.91 13.91 0.0 0 0 32.60 69.83
  A 13.91 13.91 0.0 0 0 46.51 55.92
  Z"
/>
<circle fill="#ff8000" cx="32.60" cy="55.92" r="13.91"/>
<path fill="#ffffff" d="
  M 73.42 62.45
  Q 75.84 57.04 76.26 48.23
  A 1.27 1.27 0.0 0 1 77.52 47.01
  L 77.85 47.01
  Q 79.77 47.00 79.73 48.92
  C 79.19 71.15 62.25 88.10 39.91 88.30
  Q 38.76 88.31 38.56 87.18
  Q 38.44 86.48 38.54 85.81
  Q 38.68 84.95 39.55 84.90
  Q 63.94 83.65 73.42 62.45
  Z"
/>
<path fill="#444444" d="
  M 141.44 71.58
  Q 141.99 71.84 141.97 72.44
  Q 141.95 72.88 141.55 73.07
  Q 140.92 73.35 140.44 73.86
  Q 139.83 74.49 140.71 74.49
  L 143.25 74.50
  A 0.51 0.50 89.4 0 1 143.75 75.00
  L 143.75 77.00
  Q 143.75 77.50 143.25 77.50
  L 137.39 77.50
  Q 136.84 77.50 136.60 77.99
  L 136.04 79.09
  Q 135.83 79.52 136.31 79.52
  L 143.74 79.49
  A 0.51 0.50 0.0 0 1 144.25 79.99
  L 144.25 82.01
  Q 144.25 82.52 143.74 82.51
  L 142.51 82.48
  Q 141.87 82.47 141.66 83.08
  Q 141.15 84.57 140.15 85.64
  Q 139.77 86.05 140.25 86.33
  L 144.31 88.70
  Q 144.52 88.82 144.37 89.01
  L 142.28 91.55
  Q 142.15 91.70 141.98 91.60
  L 137.79 88.95
  Q 137.32 88.66 136.84 88.94
  Q 132.66 91.49 127.80 91.78
  A 0.40 0.40 0.0 0 1 127.43 91.57
  L 125.94 88.83
  A 0.10 0.09 -19.0 0 1 126.01 88.69
  L 132.29 87.61
  Q 132.64 87.55 132.53 87.22
  L 132.41 86.88
  Q 132.24 86.39 131.77 86.61
  Q 129.76 87.55 127.66 85.66
  Q 127.22 85.27 127.68 84.90
  Q 128.68 84.13 129.32 83.00
  Q 129.66 82.41 128.98 82.46
  L 127.56 82.55
  A 0.51 0.51 0.0 0 1 127.02 82.06
  L 126.97 80.75
  Q 126.94 80.02 126.23 80.22
  Q 124.73 80.65 124.73 82.05
  Q 124.75 85.67 124.75 89.94
  A 1.74 1.73 -2.9 0 1 123.19 91.66
  L 120.52 91.92
  Q 120.02 91.97 119.83 91.51
  L 118.62 88.73
  Q 118.41 88.23 118.95 88.23
  L 120.51 88.23
  Q 121.00 88.23 121.00 87.74
  L 121.00 83.25
  Q 121.00 81.92 120.13 82.92
  Q 119.72 83.40 119.16 83.57
  A 0.63 0.63 0.0 0 1 118.34 83.03
  L 118.04 80.04
  Q 117.98 79.33 118.66 79.16
  L 120.48 78.69
  Q 121.00 78.55 121.00 78.02
  L 121.00 74.50
  Q 121.01 74.00 120.50 74.00
  L 119.00 74.00
  Q 118.24 74.00 118.25 73.25
  L 118.26 70.74
  Q 118.26 70.24 118.76 70.24
  L 120.49 70.26
  Q 121.00 70.26 121.00 69.76
  L 121.01 66.07
  Q 121.01 65.39 121.68 65.47
  L 124.96 65.85
  A 0.52 0.52 0.0 0 1 125.31 66.68
  Q 124.42 67.88 124.78 69.85
  Q 124.88 70.44 125.46 70.29
  Q 126.22 70.10 126.94 70.37
  Q 127.49 70.57 127.50 71.16
  L 127.51 73.25
  Q 127.51 74.00 126.75 74.00
  L 125.24 74.00
  Q 124.73 74.00 124.73 74.51
  L 124.75 76.47
  Q 124.76 77.18 125.45 77.05
  Q 127.07 76.74 127.08 75.15
  A 0.69 0.68 -89.2 0 1 127.77 74.47
  L 129.75 74.50
  Q 130.48 74.50 130.09 73.89
  L 128.23 70.94
  Q 127.99 70.55 127.99 70.10
  L 128.00 68.50
  A 0.50 0.50 0.0 0 1 128.50 68.00
  L 132.38 68.00
  Q 133.01 68.00 133.01 67.37
  L 133.00 66.21
  Q 132.99 65.41 133.79 65.45
  L 137.23 65.63
  A 0.51 0.50 -65.3 0 1 137.55 66.50
  Q 137.14 66.88 137.01 67.41
  Q 136.86 68.00 137.47 68.00
  L 143.00 68.00
  Q 143.51 68.00 143.50 68.50
  L 143.49 70.78
  A 0.53 0.53 0.0 0 1 142.87 71.30
  Q 142.21 71.18 141.51 71.22
  Q 140.74 71.26 141.44 71.58
  Z
  M 133.02 71.73
  Q 133.88 72.72 134.24 74.02
  Q 134.42 74.65 135.07 74.62
  Q 136.78 74.54 137.41 72.07
  Q 137.61 71.25 136.77 71.25
  L 133.24 71.25
  A 0.29 0.29 0.0 0 0 133.02 71.73
  Z
  M 131.56 79.50
  A 0.38 0.38 0.0 0 0 131.90 79.28
  L 132.49 78.04
  A 0.38 0.38 0.0 0 0 132.14 77.50
  L 127.65 77.49
  A 0.38 0.38 0.0 0 0 127.27 77.86
  L 127.22 79.11
  A 0.38 0.38 0.0 0 0 127.60 79.50
  L 131.56 79.50
  Z
  M 137.50 83.00
  Q 137.76 82.46 137.16 82.48
  Q 136.00 82.52 134.75 82.48
  Q 134.31 82.47 134.03 82.81
  Q 133.92 82.94 133.80 83.04
  Q 133.17 83.60 133.94 83.94
  Q 135.13 84.47 136.24 84.52
  Q 136.78 84.54 137.02 84.03
  Q 137.04 83.99 137.50 83.00
  Z"
/>
<path fill="#444444" d="
  M 151.25 73.37
  L 151.25 65.88
  A 0.38 0.38 0.0 0 1 151.63 65.50
  L 167.12 65.50
  A 0.38 0.38 0.0 0 1 167.50 65.88
  L 167.50 73.37
  A 0.38 0.38 0.0 0 0 167.88 73.75
  L 171.87 73.75
  A 0.38 0.38 0.0 0 1 172.25 74.13
  L 172.25 80.14
  A 0.38 0.38 0.0 0 1 171.87 80.52
  L 168.64 80.48
  A 0.38 0.38 0.0 0 1 168.26 80.10
  L 168.26 77.13
  A 0.38 0.38 0.0 0 0 167.88 76.75
  L 150.62 76.75
  A 0.38 0.38 0.0 0 0 150.24 77.13
  L 150.26 80.12
  A 0.38 0.38 0.0 0 1 149.88 80.50
  L 146.88 80.50
  A 0.38 0.38 0.0 0 1 146.50 80.12
  L 146.50 74.13
  A 0.38 0.38 0.0 0 1 146.88 73.75
  L 150.87 73.75
  A 0.38 0.38 0.0 0 0 151.25 73.37
  Z
  M 157.24 70.04
  A 0.27 0.27 0.0 0 1 157.51 69.77
  L 163.68 69.71
  A 0.27 0.27 0.0 0 0 163.94 69.44
  L 163.93 68.80
  A 0.27 0.27 0.0 0 0 163.66 68.54
  L 155.27 68.48
  A 0.27 0.27 0.0 0 0 155.00 68.75
  L 155.01 73.59
  A 0.27 0.27 0.0 0 0 155.30 73.86
  L 157.01 73.70
  A 0.27 0.27 0.0 0 0 157.26 73.43
  L 157.24 70.04
  Z
  M 164.0399 73.0284
  A 1.76 0.81 0.6 0 0 162.2885 72.2000
  A 1.76 0.81 0.6 0 0 160.5201 72.9916
  A 1.76 0.81 0.6 0 0 162.2715 73.8200
  A 1.76 0.81 0.6 0 0 164.0399 73.0284
  Z"
/>
<path fill="#444444" d="
  M 190.30 81.54
  Q 190.58 81.61 190.81 81.78
  Q 191.10 81.98 191.16 82.32
  Q 191.23 82.71 190.87 82.98
  Q 190.48 83.27 190.44 83.77
  Q 190.00 89.97 183.51 91.77
  Q 183.18 91.86 182.95 91.60
  L 180.64 88.89
  Q 180.51 88.75 180.71 88.73
  Q 187.41 88.08 187.22 81.51
  Q 187.21 81.27 186.97 81.27
  L 184.28 81.22
  A 0.28 0.27 89.0 0 0 184.00 81.52
  Q 184.35 86.14 179.60 87.12
  Q 179.06 87.23 178.77 86.76
  L 178.55 86.40
  Q 178.02 85.54 178.01 86.55
  L 177.99 91.26
  Q 177.99 91.76 177.49 91.76
  L 175.00 91.74
  A 0.50 0.49 0.0 0 1 174.50 91.25
  L 174.50 66.78
  Q 174.50 66.21 175.07 66.23
  Q 178.46 66.30 182.01 66.22
  C 183.18 66.19 184.25 66.89 184.59 68.02
  Q 184.75 68.51 185.27 68.51
  L 189.02 68.49
  A 0.51 0.50 -90.0 0 0 189.52 67.98
  L 189.48 66.00
  A 0.52 0.51 -0.5 0 1 190.00 65.48
  L 193.67 65.54
  Q 194.39 65.55 194.09 66.20
  L 193.37 67.75
  A 0.52 0.52 0.0 0 0 193.84 68.48
  L 199.50 68.51
  Q 200.25 68.51 200.25 69.25
  L 200.25 74.33
  Q 200.25 75.07 199.52 75.01
  Q 198.65 74.93 197.72 75.06
  Q 197.12 75.14 196.87 74.66
  Q 196.51 73.98 196.81 73.26
  A 1.09 1.09 0.0 0 0 195.80 71.75
  L 187.60 71.75
  Q 186.94 71.75 187.00 72.40
  L 187.16 74.26
  Q 187.23 75.00 186.49 75.00
  L 184.20 74.99
  Q 183.41 74.99 183.45 74.20
  L 183.57 71.82
  Q 183.61 70.99 183.13 71.67
  Q 182.11 73.13 181.62 74.91
  A 0.98 0.98 0.0 0 0 181.86 75.87
  Q 182.80 76.82 183.15 78.13
  Q 183.33 78.79 183.75 78.26
  Q 183.78 78.22 183.82 78.19
  Q 184.04 78.01 184.32 78.01
  Q 192.33 77.99 199.99 78.00
  A 0.26 0.26 0.0 0 1 200.25 78.26
  L 200.25 81.00
  Q 200.25 81.24 200.00 81.24
  L 195.99 81.25
  Q 195.49 81.25 195.49 81.76
  L 195.51 87.53
  A 0.46 0.45 -3.9 0 0 196.03 87.97
  L 196.41 87.92
  A 0.60 0.60 0.0 0 0 196.92 87.38
  L 197.04 85.55
  Q 197.09 84.82 197.73 85.18
  L 199.78 86.33
  Q 200.66 86.83 200.51 87.82
  Q 199.90 91.65 197.72 91.74
  Q 195.49 91.83 193.47 91.69
  A 1.84 1.84 0.0 0 1 191.76 89.85
  L 191.77 81.76
  Q 191.78 81.38 191.42 81.24
  Q 190.87 81.02 190.31 81.14
  Q 189.43 81.32 190.30 81.54
  Z
  M 179.53 69.40
  L 178.42 69.27
  A 0.17 0.17 0.0 0 0 178.23 69.42
  L 178.22 69.52
  A 4.83 0.59 -83.2 0 0 178.23 74.39
  L 178.51 74.42
  A 4.83 0.59 -83.2 0 0 179.66 69.69
  L 179.68 69.59
  A 0.17 0.17 0.0 0 0 179.53 69.40
  Z
  M 178.84 83.45
  C 182.52 82.88 180.06 78.09 178.70 76.66
  Q 178.00 75.93 178.00 76.94
  L 178.00 82.72
  Q 178.00 83.58 178.84 83.45
  Z"
/>
<rect fill="#444444" x="-3.96" y="-1.50" transform="translate(191.78,74.76) rotate(0.2)" width="7.92" height="3.00" rx="0.40"/>
<path fill="#444444" d="
  M 155.01 87.78
  L 154.99 91.26
  A 0.25 0.24 -0.0 0 1 154.74 91.50
  L 151.75 91.51
  Q 151.25 91.51 151.25 91.00
  L 151.26 77.79
  A 0.30 0.29 -0.0 0 1 151.56 77.50
  L 166.74 77.51
  A 0.75 0.75 0.0 0 1 167.49 78.25
  L 167.50 89.47
  A 2.10 2.09 -5.2 0 1 165.77 91.54
  L 163.08 92.01
  Q 162.13 92.17 161.85 91.24
  L 161.14 88.81
  A 0.57 0.57 0.0 0 1 161.86 88.11
  Q 162.50 88.32 163.19 88.26
  Q 163.75 88.22 163.74 87.66
  Q 163.74 87.51 163.65 87.41
  Q 163.50 87.24 163.28 87.24
  Q 159.50 87.26 155.57 87.23
  Q 155.01 87.22 155.01 87.78
  Z
  M 163.90 80.74
  A 0.49 0.49 0.0 0 0 163.41 80.25
  L 155.49 80.25
  A 0.49 0.49 0.0 0 0 155.00 80.74
  L 155.00 80.78
  A 0.49 0.49 0.0 0 0 155.49 81.27
  L 163.41 81.27
  A 0.49 0.49 0.0 0 0 163.90 80.78
  L 163.90 80.74
  Z
  M 163.9400 84.2222
  A 0.48 0.48 0.0 0 0 163.4591 83.7431
  L 155.4991 83.7569
  A 0.48 0.48 0.0 0 0 155.0200 84.2378
  L 155.0200 84.2778
  A 0.48 0.48 0.0 0 0 155.5009 84.7569
  L 163.4609 84.7431
  A 0.48 0.48 0.0 0 0 163.9400 84.2622
  L 163.9400 84.2222
  Z"
/>
</svg>
