<?xml version="1.0" encoding="UTF-8" standalone="no"?>
<!DOCTYPE svg PUBLIC "-//W3C//DTD SVG 1.1//EN" "http://www.w3.org/Graphics/SVG/1.1/DTD/svg11.dtd">
<svg xmlns="http://www.w3.org/2000/svg" version="1.1" viewBox="0.00 0.00 300.00 100.00">
<g stroke-width="2.00" fill="none" stroke-linecap="butt">
<path stroke="#ffc080" vector-effect="non-scaling-stroke" d="
  M 55.29 47.46
  Q 50.98 45.11 45.66 44.15
  A 1.74 1.73 -13.1 0 1 44.57 43.48
  C 39.32 36.39 30.39 34.19 22.60 37.92
  C 6.84 45.48 11.13 69.34 28.45 70.96
  C 41.29 72.16 50.03 61.02 47.15 48.78
  Q 46.93 47.83 47.83 48.19
  L 54.94 51.07
  Q 56.00 51.50 56.00 52.64
  L 56.00 63.24
  Q 56.00 64.72 57.49 64.74
  L 57.99 64.75
  A 1.25 1.24 -89.3 0 0 59.25 63.51
  L 59.25 54.75
  Q 59.25 53.90 59.92 54.44
  Q 73.39 65.33 73.96 82.90
  Q 74.01 84.40 75.48 84.69
  Q 75.78 84.75 76.07 84.65
  Q 77.53 84.15 77.48 82.59
  Q 76.73 61.74 59.72 49.88
  Q 59.24 49.55 59.24 48.98
  L 59.25 35.00
  A 0.50 0.50 0.0 0 1 59.75 34.50
  L 76.33 34.50
  Q 77.82 34.50 78.17 33.05
  Q 78.22 32.82 78.19 32.59
  Q 77.98 31.25 76.62 31.25
  L 59.62 31.25
  Q 59.24 31.25 59.25 30.87
  L 59.26 24.74
  Q 59.26 24.50 59.51 24.50
  L 76.55 24.50
  A 1.54 1.53 18.9 0 0 77.76 23.91
  Q 78.29 23.23 78.18 22.50
  Q 78.01 21.25 76.75 21.25
  L 59.75 21.25
  Q 59.25 21.25 59.25 20.75
  L 59.25 13.77
  Q 59.25 12.54 58.02 12.51
  L 57.52 12.49
  Q 56.01 12.46 56.00 13.98
  L 55.99 20.76
  A 0.50 0.49 0.0 0 1 55.49 21.25
  L 38.83 21.25
  Q 37.61 21.25 37.26 22.42
  Q 37.05 23.13 37.50 23.89
  A 1.26 1.25 74.0 0 0 38.57 24.49
  L 55.62 24.50
  Q 55.99 24.50 55.99 24.87
  L 56.00 30.75
  Q 56.00 31.25 55.50 31.25
  L 38.91 31.25
  Q 37.30 31.25 37.18 32.85
  Q 37.13 33.46 37.65 34.03
  A 1.45 1.44 -21.1 0 0 38.72 34.50
  L 55.50 34.50
  Q 56.00 34.50 56.00 35.00
  L 55.99 47.04
  Q 55.99 47.84 55.29 47.46"
/>
<path stroke="#ffc080" vector-effect="non-scaling-stroke" d="
  M 37.79 43.47
  L 38.95 43.51
  Q 39.90 43.55 39.16 42.95
  C 26.57 32.76 9.89 48.24 18.87 61.41
  C 28.26 75.18 48.87 64.08 43.19 48.24
  A 1.79 1.78 -7.7 0 0 41.63 47.06
  Q 40.00 46.94 38.39 47.02
  C 37.07 47.07 35.96 46.09 36.24 44.69
  A 1.51 1.51 0.0 0 1 37.79 43.47"
/>
</g>
<path fill="#ff8000" d="
  M 99.14 50.00
  A 49.14 49.14 0.0 0 1 50.00 99.14
  A 49.14 49.14 0.0 0 1 0.86 50.00
  A 49.14 49.14 0.0 0 1 50.00 0.86
  A 49.14 49.14 0.0 0 1 99.14 50.00
  Z
  M 55.29 47.46
  Q 50.98 45.11 45.66 44.15
  A 1.74 1.73 -13.1 0 1 44.57 43.48
  C 39.32 36.39 30.39 34.19 22.60 37.92
  C 6.84 45.48 11.13 69.34 28.45 70.96
  C 41.29 72.16 50.03 61.02 47.15 48.78
  Q 46.93 47.83 47.83 48.19
  L 54.94 51.07
  Q 56.00 51.50 56.00 52.64
  L 56.00 63.24
  Q 56.00 64.72 57.49 64.74
  L 57.99 64.75
  A 1.25 1.24 -89.3 0 0 59.25 63.51
  L 59.25 54.75
  Q 59.25 53.90 59.92 54.44
  Q 73.39 65.33 73.96 82.90
  Q 74.01 84.40 75.48 84.69
  Q 75.78 84.75 76.07 84.65
  Q 77.53 84.15 77.48 82.59
  Q 76.73 61.74 59.72 49.88
  Q 59.24 49.55 59.24 48.98
  L 59.25 35.00
  A 0.50 0.50 0.0 0 1 59.75 34.50
  L 76.33 34.50
  Q 77.82 34.50 78.17 33.05
  Q 78.22 32.82 78.19 32.59
  Q 77.98 31.25 76.62 31.25
  L 59.62 31.25
  Q 59.24 31.25 59.25 30.87
  L 59.26 24.74
  Q 59.26 24.50 59.51 24.50
  L 76.55 24.50
  A 1.54 1.53 18.9 0 0 77.76 23.91
  Q 78.29 23.23 78.18 22.50
  Q 78.01 21.25 76.75 21.25
  L 59.75 21.25
  Q 59.25 21.25 59.25 20.75
  L 59.25 13.77
  Q 59.25 12.54 58.02 12.51
  L 57.52 12.49
  Q 56.01 12.46 56.00 13.98
  L 55.99 20.76
  A 0.50 0.49 0.0 0 1 55.49 21.25
  L 38.83 21.25
  Q 37.61 21.25 37.26 22.42
  Q 37.05 23.13 37.50 23.89
  A 1.26 1.25 74.0 0 0 38.57 24.49
  L 55.62 24.50
  Q 55.99 24.50 55.99 24.87
  L 56.00 30.75
  Q 56.00 31.25 55.50 31.25
  L 38.91 31.25
  Q 37.30 31.25 37.18 32.85
  Q 37.13 33.46 37.65 34.03
  A 1.45 1.44 -21.1 0 0 38.72 34.50
  L 55.50 34.50
  Q 56.00 34.50 56.00 35.00
  L 55.99 47.04
  Q 55.99 47.84 55.29 47.46
  Z"
/>
<rect fill="#444444" x="-3.51" y="-1.98" transform="translate(200.79,13.33) rotate(44.6)" width="7.02" height="3.96" rx="0.27"/>
<path fill="#444444" d="
  M 271.62 29.50
  C 281.78 26.88 290.26 32.26 289.70 43.16
  C 289.08 55.10 275.99 57.91 265.78 58.10
  A 0.57 0.56 76.0 0 1 265.26 57.78
  L 262.74 52.43
  A 0.36 0.35 -10.7 0 1 263.09 51.93
  C 270.83 52.47 282.67 50.91 283.06 41.38
  C 283.26 36.54 279.08 33.83 274.67 34.03
  C 266.42 34.40 260.97 40.12 255.53 45.86
  Q 255.37 46.03 255.20 45.87
  L 250.08 41.37
  Q 249.92 41.22 250.08 41.09
  Q 261.20 31.56 270.82 20.10
  Q 271.50 19.29 270.46 19.50
  Q 265.06 20.56 259.39 20.51
  A 0.42 0.41 79.9 0 1 259.00 20.23
  L 256.85 14.14
  Q 256.76 13.88 257.03 13.91
  Q 268.40 15.23 279.42 11.38
  Q 279.84 11.23 280.13 11.57
  L 283.58 15.71
  A 0.42 0.40 49.1 0 1 283.55 16.28
  Q 276.64 22.58 271.33 29.03
  Q 270.76 29.72 271.62 29.50
  Z"
/>
<path fill="#444444" d="
  M 137.04 18.94
  L 150.69 18.16
  A 0.27 0.26 -0.1 0 1 150.98 18.44
  L 150.68 24.00
  Q 150.67 24.17 150.50 24.17
  L 136.88 24.47
  Q 136.50 24.48 136.50 24.87
  L 136.51 30.56
  A 0.27 0.26 -4.6 0 0 136.82 30.82
  L 147.98 29.03
  Q 148.51 28.95 148.50 29.48
  L 148.50 34.83
  A 0.64 0.63 -3.0 0 1 147.93 35.46
  L 137.27 36.66
  Q 136.75 36.71 136.75 37.24
  L 136.76 42.45
  Q 136.76 43.07 137.36 43.24
  Q 144.24 45.09 150.60 49.11
  Q 151.16 49.46 150.78 50.01
  L 147.62 54.53
  Q 147.29 55.01 146.82 54.66
  Q 142.88 51.70 137.61 49.58
  A 0.39 0.38 -78.9 0 0 137.08 49.94
  C 137.08 53.08 136.18 56.14 132.67 56.83
  C 127.90 57.77 115.53 57.52 115.67 50.02
  C 115.81 42.59 124.18 41.64 129.89 42.04
  Q 130.25 42.06 130.25 41.70
  L 130.25 37.30
  Q 130.25 36.86 129.82 36.92
  Q 126.93 37.29 124.18 37.17
  C 121.67 37.06 118.85 36.81 117.28 34.58
  C 115.13 31.54 120.15 27.82 122.15 26.36
  A 1.23 1.22 47.5 0 1 123.68 26.43
  L 125.86 28.37
  Q 126.26 28.73 125.89 29.11
  L 124.61 30.40
  A 0.61 0.61 0.0 0 0 125.07 31.44
  Q 127.40 31.34 129.05 31.59
  Q 130.38 31.80 130.18 30.47
  Q 129.79 27.94 130.09 25.63
  Q 130.23 24.56 129.15 24.64
  L 115.71 25.66
  Q 115.50 25.67 115.50 25.47
  L 115.50 19.79
  Q 115.50 19.58 115.71 19.57
  L 129.15 19.21
  Q 129.75 19.19 129.75 18.60
  L 129.75 12.24
  Q 129.75 11.75 130.24 11.80
  L 137.55 12.55
  A 0.69 0.69 0.0 0 1 137.93 13.75
  L 137.12 14.45
  Q 136.70 14.82 136.75 15.38
  Q 136.89 16.86 136.56 18.37
  Q 136.43 18.97 137.04 18.94
  Z
  M 130.52 48.48
  Q 130.54 47.63 129.69 47.54
  C 127.96 47.36 122.03 47.29 122.81 50.27
  A 1.45 1.43 86.0 0 0 124.02 51.34
  C 126.68 51.69 130.45 52.43 130.52 48.48
  Z"
/>
<path fill="#ffffff" d="
  M 55.99 47.04
  L 56.00 35.00
  Q 56.00 34.50 55.50 34.50
  L 38.72 34.50
  A 1.45 1.44 -21.1 0 1 37.65 34.03
  Q 37.13 33.46 37.18 32.85
  Q 37.30 31.25 38.91 31.25
  L 55.50 31.25
  Q 56.00 31.25 56.00 30.75
  L 55.99 24.87
  Q 55.99 24.50 55.62 24.50
  L 38.57 24.49
  A 1.26 1.25 74.0 0 1 37.50 23.89
  Q 37.05 23.13 37.26 22.42
  Q 37.61 21.25 38.83 21.25
  L 55.49 21.25
  A 0.50 0.49 -0.0 0 0 55.99 20.76
  L 56.00 13.98
  Q 56.01 12.46 57.52 12.49
  L 58.02 12.51
  Q 59.25 12.54 59.25 13.77
  L 59.25 20.75
  Q 59.25 21.25 59.75 21.25
  L 76.75 21.25
  Q 78.01 21.25 78.18 22.50
  Q 78.29 23.23 77.76 23.91
  A 1.54 1.53 18.9 0 1 76.55 24.50
  L 59.51 24.50
  Q 59.26 24.50 59.26 24.74
  L 59.25 30.87
  Q 59.24 31.25 59.62 31.25
  L 76.62 31.25
  Q 77.98 31.25 78.19 32.59
  Q 78.22 32.82 78.17 33.05
  Q 77.82 34.50 76.33 34.50
  L 59.75 34.50
  A 0.50 0.50 0.0 0 0 59.25 35.00
  L 59.24 48.98
  Q 59.24 49.55 59.72 49.88
  Q 76.73 61.74 77.48 82.59
  Q 77.53 84.15 76.07 84.65
  Q 75.78 84.75 75.48 84.69
  Q 74.01 84.40 73.96 82.90
  Q 73.39 65.33 59.92 54.44
  Q 59.25 53.90 59.25 54.75
  L 59.25 63.51
  A 1.25 1.24 -89.3 0 1 57.99 64.75
  L 57.49 64.74
  Q 56.00 64.72 56.00 63.24
  L 56.00 52.64
  Q 56.00 51.50 54.94 51.07
  L 47.83 48.19
  Q 46.93 47.83 47.15 48.78
  C 50.03 61.02 41.29 72.16 28.45 70.96
  C 11.13 69.34 6.84 45.48 22.60 37.92
  C 30.39 34.19 39.32 36.39 44.57 43.48
  A 1.74 1.73 -13.1 0 0 45.66 44.15
  Q 50.98 45.11 55.29 47.46
  Q 55.99 47.84 55.99 47.04
  Z
  M 37.79 43.47
  L 38.95 43.51
  Q 39.90 43.55 39.16 42.95
  C 26.57 32.76 9.89 48.24 18.87 61.41
  C 28.26 75.18 48.87 64.08 43.19 48.24
  A 1.79 1.78 -7.7 0 0 41.63 47.06
  Q 40.00 46.94 38.39 47.02
  C 37.07 47.07 35.96 46.09 36.24 44.69
  A 1.51 1.51 0.0 0 1 37.79 43.47
  Z"
/>
<path fill="#444444" d="
  M 227.78 21.83
  L 213.58 21.52
  Q 212.99 21.51 212.85 20.94
  L 211.51 15.26
  A 0.44 0.43 88.6 0 1 212.01 14.73
  Q 224.76 16.94 238.63 15.34
  Q 239.09 15.29 239.31 15.69
  L 241.53 19.65
  Q 241.74 20.03 241.40 20.30
  L 228.09 30.71
  Q 227.75 30.98 227.45 30.65
  L 223.82 26.68
  A 0.40 0.39 -41.6 0 1 223.86 26.11
  L 228.04 22.58
  Q 228.91 21.85 227.78 21.83
  Z"
/>
<path fill="#444444" d="
  M 179.87 21.84
  Q 172.56 22.22 165.01 21.87
  Q 164.94 21.87 164.91 21.81
  Q 164.12 20.43 163.12 15.51
  A 0.09 0.09 0.0 0 1 163.22 15.40
  Q 176.63 17.41 189.58 15.57
  Q 190.16 15.48 190.44 16.00
  L 192.44 19.66
  Q 192.67 20.07 192.30 20.37
  L 179.44 30.71
  A 0.28 0.27 47.4 0 1 179.07 30.69
  L 175.33 26.94
  Q 175.15 26.76 175.34 26.60
  L 180.08 22.35
  Q 180.70 21.80 179.87 21.84
  Z"
/>
<path fill="#444444" d="
  M 198.64 23.15
  L 194.24 18.54
  A 0.48 0.48 0.0 0 1 194.25 17.87
  L 196.35 15.78
  A 0.48 0.48 0.0 0 1 197.04 15.80
  L 201.18 20.30
  A 0.48 0.48 0.0 0 1 201.19 20.93
  L 199.35 23.13
  A 0.48 0.48 0.0 0 1 198.64 23.15
  Z"
/>
<path fill="#444444" d="
  M 217.78 47.64
  Q 220.35 48.39 223.47 48.47
  Q 233.74 48.75 243.39 47.02
  Q 243.67 46.97 243.68 47.25
  L 243.99 53.79
  Q 244.01 54.11 243.69 54.15
  Q 234.52 55.13 225.21 55.14
  Q 218.90 55.14 213.76 53.62
  C 204.45 50.84 208.34 41.36 213.39 36.71
  Q 213.94 36.21 214.51 36.68
  L 218.44 39.92
  Q 219.43 40.74 218.40 41.50
  C 216.56 42.86 214.16 46.58 217.78 47.64
  Z"
/>
<path fill="#444444" d="
  M 169.11 47.39
  Q 170.55 48.07 172.41 48.20
  Q 183.85 48.99 194.65 46.58
  Q 194.91 46.53 194.93 46.79
  L 195.29 53.23
  A 0.28 0.28 0.0 0 1 195.05 53.53
  Q 181.38 55.56 169.94 54.25
  C 163.88 53.56 158.03 50.39 160.93 43.04
  Q 162.27 39.66 165.10 37.08
  Q 165.80 36.44 166.54 37.04
  L 170.33 40.15
  Q 171.07 40.76 170.32 41.34
  C 168.64 42.66 166.06 45.95 169.11 47.39
  Z"
/>
<path fill="#ff8000" d="
  M 37.79 43.47
  A 1.51 1.51 0.0 0 0 36.24 44.69
  C 35.96 46.09 37.07 47.07 38.39 47.02
  Q 40.00 46.94 41.63 47.06
  A 1.79 1.78 -7.7 0 1 43.19 48.24
  C 48.87 64.08 28.26 75.18 18.87 61.41
  C 9.89 48.24 26.57 32.76 39.16 42.95
  Q 39.90 43.55 38.95 43.51
  L 37.79 43.47
  Z"
/>
<path fill="#444444" d="
  M 154.79 66.62
  Q 157.96 66.41 161.17 66.54
  Q 162.18 66.57 162.83 67.78
  Q 163.13 68.32 162.66 68.72
  Q 162.15 69.15 161.84 69.72
  A 0.82 0.81 -53.9 0 0 161.99 70.70
  Q 165.41 73.96 169.95 75.22
  A 0.14 0.14 0.0 0 1 170.02 75.45
  L 167.72 78.17
  A 0.37 0.36 30.8 0 1 167.30 78.27
  Q 162.84 76.49 159.64 73.00
  Q 159.20 72.51 158.67 72.89
  L 155.94 74.82
  Q 155.21 75.34 156.10 75.44
  L 157.84 75.64
  Q 158.26 75.68 158.57 75.96
  Q 158.87 76.23 158.65 76.41
  A 2.17 2.15 60.5 0 0 158.01 78.76
  Q 160.80 86.74 169.85 87.25
  Q 170.06 87.26 169.94 87.43
  L 167.68 90.59
  Q 167.52 90.82 167.24 90.77
  Q 160.75 89.48 156.96 84.58
  Q 156.58 84.08 156.24 84.61
  Q 152.83 89.99 146.00 91.01
  Q 145.86 91.03 145.77 90.92
  L 143.38 87.89
  A 0.19 0.18 67.0 0 1 143.50 87.59
  Q 153.30 86.59 154.13 79.24
  Q 154.29 77.78 154.57 76.35
  Q 154.70 75.67 154.06 75.94
  L 150.01 77.62
  Q 149.13 77.99 150.06 78.20
  L 151.41 78.51
  Q 152.03 78.65 152.08 79.27
  Q 152.12 79.75 151.66 80.03
  A 0.99 0.99 0.0 0 0 151.24 80.54
  L 150.06 83.70
  Q 149.69 84.70 148.69 84.35
  L 146.77 83.67
  Q 146.23 83.48 146.47 82.96
  L 148.43 78.69
  Q 148.74 78.02 148.02 78.18
  L 145.94 78.65
  Q 145.41 78.77 145.11 78.31
  L 143.45 75.76
  Q 143.14 75.27 143.72 75.25
  Q 151.48 75.03 156.40 70.04
  Q 157.18 69.25 156.08 69.25
  L 153.17 69.25
  Q 152.30 69.25 151.71 69.88
  Q 149.84 71.87 147.32 73.30
  Q 146.79 73.60 146.32 73.20
  L 144.42 71.58
  Q 143.94 71.17 144.52 70.90
  Q 148.80 68.90 151.29 64.63
  Q 151.56 64.18 152.04 64.38
  Q 153.04 64.80 154.16 64.72
  Q 154.83 64.67 155.16 65.24
  Q 155.31 65.51 155.27 65.82
  Q 155.21 66.19 154.83 66.24
  Q 154.70 66.26 154.64 66.41
  Q 154.55 66.63 154.79 66.62
  Z"
/>
<path fill="#444444" d="
  M 118.71 81.74
  L 118.89 79.74
  Q 118.96 79.02 118.24 79.01
  L 116.24 78.99
  Q 115.74 78.99 115.74 78.49
  L 115.75 77.01
  A 0.75 0.75 0.0 0 1 116.49 76.26
  L 118.67 76.24
  A 0.31 0.31 0.0 0 0 118.95 75.80
  L 118.77 75.40
  A 0.45 0.44 -12.8 0 0 118.33 75.13
  Q 116.83 75.26 116.54 73.97
  Q 116.46 73.61 116.18 73.38
  L 114.10 71.63
  Q 113.72 71.30 114.12 71.00
  Q 117.03 68.81 118.68 66.30
  A 2.41 2.40 -42.1 0 1 122.82 66.50
  Q 123.55 67.90 124.79 68.92
  Q 125.21 69.27 125.75 69.27
  L 133.32 69.24
  Q 134.14 69.24 134.05 68.43
  L 133.71 65.22
  Q 133.61 64.28 134.52 64.52
  Q 135.53 64.78 136.56 64.72
  A 0.94 0.93 -19.7 0 1 137.37 65.10
  Q 137.84 65.74 138.59 65.41
  Q 139.24 65.13 139.70 65.67
  Q 141.07 67.27 140.49 68.91
  A 0.32 0.32 0.0 0 0 140.78 69.34
  Q 140.98 69.35 141.10 69.48
  Q 141.26 69.64 141.26 69.86
  L 141.25 72.38
  Q 141.25 73.01 140.62 73.00
  L 137.50 72.99
  A 0.52 0.52 0.0 0 0 136.98 73.52
  Q 137.00 74.79 137.25 76.21
  Q 137.41 77.09 137.69 76.25
  Q 137.88 75.69 137.83 75.04
  A 0.67 0.67 0.0 0 1 138.84 74.42
  Q 139.79 74.99 140.83 75.20
  Q 141.52 75.34 141.24 76.00
  Q 139.57 79.87 138.15 84.08
  Q 138.00 84.51 138.21 84.94
  Q 138.41 85.36 138.83 85.48
  Q 139.41 85.65 139.17 85.10
  Q 138.97 84.62 140.02 84.60
  A 1.45 1.45 0.0 0 1 141.47 85.84
  Q 141.81 88.17 140.33 90.60
  Q 140.03 91.10 139.45 91.10
  Q 137.49 91.10 136.48 88.34
  Q 136.08 87.24 135.51 88.25
  Q 134.81 89.47 133.71 90.45
  Q 133.29 90.82 132.77 90.62
  L 130.57 89.81
  Q 130.09 89.63 130.39 89.21
  L 130.60 88.92
  Q 131.10 88.21 130.24 88.09
  L 129.29 87.95
  Q 128.65 87.87 128.70 87.23
  Q 128.89 84.51 128.70 81.84
  Q 128.69 81.70 128.55 81.70
  L 128.55 81.70
  Q 128.31 81.69 128.31 81.93
  Q 128.24 86.08 125.77 90.08
  Q 125.46 90.58 124.90 90.38
  L 122.76 89.61
  Q 122.36 89.47 122.40 89.05
  Q 122.41 88.92 122.48 88.81
  Q 122.90 88.19 122.19 88.41
  Q 118.90 89.42 116.05 90.66
  Q 115.71 90.80 115.63 90.44
  L 114.97 87.23
  Q 114.88 86.80 115.31 86.76
  Q 117.08 86.57 118.58 85.77
  Q 118.84 85.63 118.95 85.35
  Q 119.00 85.23 118.97 85.10
  Q 118.90 84.75 118.55 84.80
  L 116.99 85.01
  Q 116.24 85.11 116.26 84.35
  Q 116.30 83.04 115.66 81.82
  Q 115.34 81.21 115.98 80.94
  L 117.36 80.34
  Q 118.01 80.07 118.20 80.75
  L 118.46 81.76
  Q 118.65 82.46 118.71 81.74
  Z
  M 118.88 71.45
  A 0.33 0.33 0.0 0 0 119.12 72.02
  L 122.65 71.99
  A 0.33 0.33 0.0 0 0 122.88 71.42
  L 121.10 69.72
  A 0.33 0.33 0.0 0 0 120.64 69.73
  L 118.88 71.45
  Z
  M 124.68 78.99
  L 122.63 79.00
  Q 122.06 79.01 122.01 79.58
  Q 121.89 80.87 122.22 82.19
  Q 122.53 83.41 122.73 82.17
  L 123.02 80.42
  Q 123.15 79.66 123.88 79.92
  L 125.02 80.32
  Q 125.71 80.57 125.73 79.83
  Q 125.82 75.41 125.72 71.34
  Q 125.71 71.22 125.64 71.13
  Q 125.52 70.99 125.37 70.98
  Q 125.04 70.96 124.97 71.28
  Q 124.61 72.75 124.80 74.26
  Q 124.88 74.95 124.18 74.97
  L 122.45 75.01
  Q 122.02 75.03 122.03 75.44
  L 122.03 75.83
  Q 122.03 76.28 122.48 76.27
  L 124.49 76.24
  Q 125.25 76.23 125.27 76.99
  L 125.32 78.32
  Q 125.34 78.98 124.68 78.99
  Z
  M 133.9922 73.3032
  A 0.27 0.27 0.0 0 0 133.7245 73.0309
  L 128.9447 72.9892
  A 0.27 0.27 0.0 0 0 128.6724 73.2568
  L 128.6678 73.7768
  A 0.27 0.27 0.0 0 0 128.9355 74.0491
  L 133.7153 74.0908
  A 0.27 0.27 0.0 0 0 133.9876 73.8232
  L 133.9922 73.3032
  Z
  M 134.1860 76.9611
  A 0.27 0.27 0.0 0 0 133.9132 76.6940
  L 128.9334 76.7461
  A 0.27 0.27 0.0 0 0 128.6663 77.0189
  L 128.6740 77.7589
  A 0.27 0.27 0.0 0 0 128.9468 78.0260
  L 133.9266 77.9739
  A 0.27 0.27 0.0 0 0 134.1937 77.7011
  L 134.1860 76.9611
  Z
  M 131.5300 83.9700
  A 1.83 0.41 90.0 0 0 131.9400 82.1400
  A 1.83 0.41 90.0 0 0 131.5300 80.3100
  A 1.83 0.41 90.0 0 0 131.1200 82.1400
  A 1.83 0.41 90.0 0 0 131.5300 83.9700
  Z
  M 123.15 84.14
  Q 122.77 83.90 122.31 83.92
  Q 121.96 83.94 122.00 84.29
  L 122.05 84.70
  Q 122.09 84.98 122.36 84.96
  Q 125.34 84.83 125.52 82.16
  Q 125.54 81.87 125.25 81.83
  L 125.24 81.83
  Q 125.12 81.82 125.11 81.93
  Q 124.99 83.44 123.88 84.14
  A 0.69 0.68 -44.4 0 1 123.15 84.14
  Z
  M 132.46 86.38
  A 0.24 0.24 0.0 0 0 132.25 86.05
  Q 130.97 85.99 130.96 87.44
  A 0.33 0.33 0.0 0 0 131.51 87.68
  Q 132.13 87.11 132.46 86.38
  Z"
/>
<path fill="#444444" d="
  M 237.80 77.62
  Q 237.90 77.40 238.22 77.30
  Q 238.38 77.25 238.54 77.25
  L 254.00 77.25
  A 0.24 0.24 0.0 0 1 254.24 77.49
  L 254.26 80.12
  Q 254.26 80.50 253.88 80.50
  L 250.00 80.50
  Q 249.51 80.50 249.51 81.00
  L 249.48 86.49
  Q 249.48 86.99 249.99 86.99
  L 250.50 86.98
  Q 250.98 86.98 250.98 86.50
  L 251.01 84.76
  Q 251.02 84.13 251.59 84.39
  L 254.00 85.50
  Q 254.45 85.71 254.48 86.21
  C 254.63 88.57 253.62 91.19 250.79 91.04
  Q 249.33 90.97 247.89 90.99
  A 2.11 2.10 89.6 0 1 245.77 88.89
  L 245.75 81.38
  Q 245.75 80.91 245.46 80.54
  Q 245.10 80.08 244.55 80.16
  Q 243.72 80.29 244.50 80.59
  Q 244.79 80.69 244.95 80.95
  Q 245.19 81.33 245.02 81.74
  C 244.24 83.67 244.33 85.80 242.99 87.52
  Q 241.02 90.03 237.60 91.00
  Q 237.25 91.10 237.01 90.82
  L 234.74 88.28
  A 0.14 0.13 65.1 0 1 234.82 88.06
  Q 237.75 87.54 239.63 85.98
  C 241.01 84.84 240.87 82.90 241.33 81.30
  Q 241.55 80.52 240.74 80.51
  L 238.71 80.48
  Q 237.97 80.47 238.02 81.20
  Q 238.26 85.22 233.70 86.36
  Q 233.12 86.51 232.86 85.97
  Q 232.79 85.83 232.67 85.72
  Q 232.03 85.14 232.03 86.00
  L 231.99 90.51
  Q 231.98 91.00 231.49 91.00
  L 229.00 90.99
  Q 228.50 90.99 228.50 90.49
  L 228.50 66.00
  A 0.50 0.50 0.0 0 1 229.00 65.50
  L 236.84 65.50
  Q 237.38 65.50 237.69 65.94
  L 238.66 67.28
  Q 239.01 67.76 239.60 67.76
  L 243.01 67.74
  A 0.50 0.49 -0.6 0 0 243.51 67.24
  L 243.49 65.25
  Q 243.49 64.73 244.00 64.73
  L 247.46 64.77
  Q 248.27 64.78 248.11 65.57
  Q 248.02 66.04 247.61 66.33
  Q 246.99 66.76 247.42 67.37
  Q 247.63 67.68 248.01 67.69
  Q 250.69 67.82 253.52 67.72
  Q 254.25 67.69 254.25 68.43
  L 254.25 73.75
  Q 254.25 74.25 253.75 74.25
  L 251.24 74.25
  Q 250.72 74.25 250.74 73.74
  L 250.84 71.56
  Q 250.86 71.01 250.31 71.00
  L 241.62 70.99
  Q 240.99 70.99 241.03 71.62
  L 241.14 73.46
  A 0.74 0.74 0.0 0 1 240.40 74.25
  L 238.00 74.25
  A 0.50 0.49 0.6 0 1 237.50 73.75
  L 237.50 70.93
  Q 237.51 69.76 237.03 70.83
  L 235.58 74.09
  A 0.76 0.75 -56.0 0 0 235.74 74.92
  Q 236.85 76.00 237.21 77.56
  Q 237.42 78.42 237.80 77.62
  Z
  M 232.71 73.24
  L 233.89 69.22
  Q 234.05 68.68 233.48 68.70
  L 232.48 68.73
  A 0.43 0.43 0.0 0 0 232.07 69.10
  Q 231.78 71.32 232.29 73.23
  Q 232.49 74.00 232.71 73.24
  Z
  M 234.75 81.06
  C 234.80 78.73 233.76 77.64 232.64 75.57
  A 0.32 0.32 0.0 0 0 232.03 75.72
  L 231.99 81.67
  Q 231.98 82.90 233.17 82.59
  L 233.64 82.47
  Q 234.73 82.19 234.75 81.06
  Z"
/>
<path fill="#444444" d="
  M 185.27 71.14
  Q 185.35 71.87 185.72 71.24
  Q 187.35 68.43 188.18 65.53
  Q 188.37 64.89 189.02 65.04
  L 191.09 65.51
  A 0.89 0.89 0.0 0 1 191.72 66.71
  Q 191.65 66.89 191.52 67.04
  Q 191.05 67.56 191.75 67.55
  L 197.49 67.48
  Q 198.01 67.47 198.00 67.99
  L 197.99 70.26
  Q 197.99 70.76 197.49 70.75
  L 196.68 70.73
  Q 196.18 70.72 195.94 71.16
  L 193.75 75.31
  Q 193.54 75.71 193.92 75.97
  Q 195.92 77.28 198.16 77.82
  A 0.41 0.41 0.0 0 1 198.41 78.43
  Q 197.45 80.01 196.00 80.77
  Q 195.56 81.00 195.55 81.49
  L 195.51 82.53
  Q 195.49 83.05 194.97 83.06
  L 187.37 83.19
  Q 187.24 83.20 187.24 83.32
  L 187.24 83.62
  A 0.18 0.18 0.0 0 0 187.42 83.81
  L 193.03 83.92
  Q 193.88 83.94 193.82 84.78
  L 193.77 85.51
  Q 193.72 86.23 192.99 86.23
  L 187.43 86.27
  Q 187.07 86.27 187.06 86.64
  L 187.05 86.90
  Q 187.05 87.26 187.40 87.26
  L 197.50 87.25
  Q 198.00 87.25 198.00 87.75
  L 198.00 89.75
  A 0.50 0.50 0.0 0 1 197.50 90.25
  L 172.48 90.25
  Q 171.97 90.25 171.98 89.73
  L 172.04 87.59
  A 0.36 0.36 0.0 0 1 172.40 87.25
  L 176.26 87.25
  A 0.50 0.50 0.0 0 0 176.76 86.74
  L 176.74 84.69
  Q 176.74 84.11 177.30 83.94
  Q 179.04 83.43 180.87 84.19
  Q 181.42 84.42 181.01 84.85
  Q 180.28 85.64 180.45 86.77
  Q 180.53 87.26 181.03 87.27
  L 182.36 87.27
  Q 182.99 87.27 182.99 86.64
  L 183.00 83.79
  Q 183.01 83.07 182.29 83.06
  L 175.01 83.03
  Q 174.46 83.03 174.30 82.51
  Q 174.14 82.00 174.27 81.45
  Q 174.39 80.91 173.86 80.76
  Q 172.47 80.36 171.65 79.22
  Q 171.37 78.83 171.77 78.56
  L 174.27 76.87
  Q 174.91 76.44 174.20 76.14
  Q 173.83 75.99 173.45 75.99
  Q 172.75 75.99 172.75 75.29
  L 172.75 70.51
  Q 172.75 69.87 173.39 69.87
  L 177.02 69.88
  Q 177.21 69.88 177.22 69.70
  L 177.23 69.33
  Q 177.25 69.11 177.03 69.11
  L 172.50 69.02
  Q 171.98 69.01 171.99 68.50
  L 172.02 66.73
  Q 172.03 66.25 172.52 66.25
  L 176.72 66.26
  Q 177.20 66.26 177.24 65.78
  L 177.28 65.32
  Q 177.33 64.73 177.93 64.74
  L 179.99 64.76
  Q 180.54 64.76 180.71 65.28
  Q 180.78 65.48 180.75 65.68
  Q 180.65 66.26 181.24 66.26
  L 185.24 66.24
  Q 185.74 66.24 185.75 66.74
  L 185.77 68.37
  Q 185.77 69.01 185.13 69.02
  L 181.50 69.07
  Q 178.86 69.11 181.37 69.92
  Q 181.92 70.10 183.53 69.86
  Q 185.11 69.63 185.27 71.14
  Z
  M 191.75 72.44
  L 192.40 71.44
  Q 192.85 70.75 192.02 70.75
  L 190.60 70.74
  Q 189.71 70.74 190.08 71.54
  L 190.45 72.35
  Q 191.01 73.58 191.75 72.44
  Z
  M 175.61 72.46
  A 0.49 0.48 -44.7 0 0 175.60 73.30
  Q 176.26 73.69 177.03 73.40
  A 0.51 0.51 0.0 0 0 177.18 72.53
  Q 176.49 71.96 175.61 72.46
  Z
  M 180.62 72.45
  A 0.50 0.49 45.9 0 0 180.61 73.30
  Q 181.27 73.71 182.04 73.37
  Q 182.73 73.07 182.17 72.56
  Q 181.49 71.96 180.62 72.45
  Z
  M 183.99 76.09
  L 183.27 76.31
  Q 182.50 76.54 183.25 76.82
  Q 186.00 77.86 188.54 75.62
  Q 188.96 75.26 188.59 74.84
  Q 187.98 74.16 187.07 74.17
  Q 186.46 74.18 186.03 73.73
  Q 185.91 73.60 185.74 73.52
  Q 185.00 73.17 185.06 73.98
  Q 185.12 74.79 184.79 75.43
  Q 184.53 75.93 183.99 76.09
  Z
  M 183.77 79.10
  Q 182.48 79.45 181.42 78.53
  A 0.71 0.71 0.0 0 0 180.24 78.99
  Q 180.19 79.49 180.68 79.74
  Q 181.25 80.03 181.81 79.90
  Q 183.29 79.55 184.91 80.02
  A 0.58 0.58 0.0 0 0 185.55 79.13
  Q 185.23 78.67 184.76 78.33
  Q 184.51 78.15 184.29 78.37
  Q 184.16 78.50 184.13 78.70
  A 0.49 0.49 0.0 0 1 183.77 79.10
  Z
  M 188.19 79.40
  Q 188.15 79.14 187.91 79.31
  Q 187.54 79.57 187.97 79.66
  Q 190.41 80.22 193.27 79.91
  Q 194.10 79.83 193.47 79.27
  Q 191.08 77.14 188.35 79.46
  A 0.10 0.10 0.0 0 1 188.19 79.40
  Z
  M 175.43 79.46
  Q 175.10 79.82 175.59 79.91
  Q 176.56 80.07 177.31 79.44
  A 0.55 0.55 0.0 0 0 176.72 78.52
  Q 175.97 78.88 175.43 79.46
  Z"
/>
<path fill="#444444" d="
  M 205.26 72.50
  L 205.25 65.25
  Q 205.25 64.75 205.75 64.75
  L 221.00 64.75
  A 0.50 0.50 0.0 0 1 221.50 65.25
  L 221.50 72.50
  Q 221.50 73.00 222.00 73.00
  L 225.50 73.00
  Q 226.25 73.00 226.25 73.75
  L 226.25 78.76
  Q 226.25 79.78 225.24 79.76
  L 222.84 79.71
  Q 222.23 79.70 222.24 79.09
  L 222.28 76.80
  Q 222.29 76.06 221.55 76.06
  L 205.01 76.12
  A 0.70 0.70 0.0 0 0 204.33 77.00
  Q 204.59 77.98 204.51 79.03
  Q 204.45 79.73 203.75 79.73
  L 201.25 79.75
  Q 200.50 79.76 200.50 79.01
  L 200.50 73.75
  Q 200.50 73.00 201.25 73.00
  L 204.75 73.00
  Q 205.26 73.00 205.26 72.50
  Z
  M 211.23 69.30
  A 0.28 0.28 0.0 0 1 211.50 69.02
  L 217.65 68.98
  A 0.28 0.28 0.0 0 0 217.93 68.70
  L 217.93 68.04
  A 0.28 0.28 0.0 0 0 217.65 67.76
  L 209.27 67.74
  A 0.28 0.28 0.0 0 0 208.99 68.02
  L 209.01 72.72
  A 0.28 0.28 0.0 0 0 209.30 73.00
  L 211.02 72.92
  A 0.28 0.28 0.0 0 0 211.29 72.64
  L 211.23 69.30
  Z
  M 218.0300 72.2169
  A 1.76 0.82 -0.1 0 0 216.2686 71.4000
  A 1.76 0.82 -0.1 0 0 214.5100 72.2231
  A 1.76 0.82 -0.1 0 0 216.2714 73.0400
  A 1.76 0.82 -0.1 0 0 218.0300 72.2169
  Z"
/>
<rect fill="#444444" x="-3.96" y="-1.61" transform="translate(245.79,73.88) rotate(0.2)" width="7.92" height="3.22" rx="0.44"/>
<path fill="#444444" d="
  M 162.28 76.93
  A 0.30 0.30 0.0 0 1 162.63 76.82
  L 165.66 78.06
  A 0.64 0.64 0.0 0 1 165.79 79.17
  Q 164.16 80.34 162.85 82.32
  Q 162.12 83.44 161.09 82.58
  L 160.30 81.91
  Q 159.43 81.18 160.06 80.24
  L 162.28 76.93
  Z"
/>
<path fill="#444444" d="
  M 209.00 87.15
  L 208.99 90.26
  Q 208.99 90.76 208.49 90.76
  L 205.75 90.75
  Q 205.25 90.75 205.25 90.25
  L 205.25 77.83
  A 0.92 0.92 0.0 0 1 206.17 76.91
  L 220.56 76.88
  A 0.94 0.93 -0.0 0 1 221.50 77.81
  L 221.50 88.18
  A 2.77 2.77 0.0 0 1 219.06 90.93
  L 216.90 91.19
  Q 216.25 91.27 216.02 90.66
  L 215.15 88.39
  Q 214.85 87.60 215.69 87.53
  L 217.53 87.39
  A 0.42 0.42 0.0 0 0 217.82 86.70
  Q 217.66 86.50 217.40 86.50
  Q 213.54 86.51 209.69 86.48
  Q 209.01 86.47 209.00 87.15
  Z
  M 217.98 79.98
  A 0.47 0.47 0.0 0 0 217.51 79.51
  L 209.59 79.51
  A 0.47 0.47 0.0 0 0 209.12 79.98
  L 209.12 80.02
  A 0.47 0.47 0.0 0 0 209.59 80.49
  L 217.51 80.49
  A 0.47 0.47 0.0 0 0 217.98 80.02
  L 217.98 79.98
  Z
  M 217.92 83.47
  A 0.48 0.48 0.0 0 0 217.44 82.99
  L 209.50 82.99
  A 0.48 0.48 0.0 0 0 209.02 83.47
  L 209.02 83.51
  A 0.48 0.48 0.0 0 0 209.50 83.99
  L 217.44 83.99
  A 0.48 0.48 0.0 0 0 217.92 83.51
  L 217.92 83.47
  Z"
/>
</svg>
