<?xml version="1.0" standalone="no"?>
<!DOCTYPE svg PUBLIC "-//W3C//DTD SVG 20010904//EN"
 "http://www.w3.org/TR/2001/REC-SVG-20010904/DTD/svg10.dtd">
<svg version="1.0" xmlns="http://www.w3.org/2000/svg"
 width="300.000000pt" height="300.000000pt" viewBox="0 0 300.000000 300.000000"
 preserveAspectRatio="xMidYMid meet">
<metadata>
Created by potrace 1.14, written by Peter Selinger 2001-2017
</metadata>
<g transform="translate(0.000000,300.000000) scale(0.100000,-0.100000)"
fill="#000000" stroke="none">
<path d="M2495 2749 c-44 -27 -87 -52 -95 -56 -8 -4 -46 -26 -85 -48 -38 -23
-90 -53 -115 -67 -78 -44 -522 -301 -550 -318 -8 -5 -45 -27 -81 -49 l-66 -39
-189 109 c-104 60 -196 113 -204 118 -8 6 -53 32 -100 59 -47 27 -103 59 -125
72 -22 12 -58 33 -80 46 -22 12 -114 65 -205 118 -90 53 -169 96 -175 96 -11
0 -130 -208 -122 -216 6 -6 259 -154 263 -154 3 0 158 -92 183 -109 12 -7 12
-13 3 -24 -12 -14 -19 -26 -102 -176 -25 -44 -48 -81 -53 -81 -10 0 -77 37
-287 159 -96 55 -177 101 -180 101 -3 0 -18 -24 -33 -52 -15 -29 -41 -77 -58
-107 -35 -59 -34 -63 31 -99 19 -10 127 -72 240 -137 489 -282 756 -437 764
-445 6 -6 9 -264 8 -630 l-1 -621 127 3 127 3 1 263 c0 144 3 264 5 267 8 8
309 8 317 0 4 -3 7 -124 7 -268 l0 -262 127 -2 c126 -2 128 -2 127 20 0 12 1
284 1 604 1 320 -1 586 -4 591 -11 18 23 42 229 161 116 66 217 125 225 131 8
6 34 20 56 33 23 12 159 90 303 172 250 144 277 164 252 191 -5 5 -22 32 -37
59 -34 63 -73 125 -78 125 -2 0 -56 -31 -120 -70 -65 -38 -119 -70 -121 -70
-5 0 -125 -71 -155 -91 -8 -5 -23 -12 -32 -15 -10 -4 -18 -11 -18 -17 0 -22
-30 20 -104 147 -70 123 -74 131 -56 143 17 12 138 82 260 151 25 13 56 32 70
41 14 9 42 26 64 36 21 11 40 25 43 32 4 9 -114 226 -120 222 -1 -1 -38 -23
-82 -50z m-1252 -721 c55 -32 101 -58 103 -58 2 0 37 -21 78 -46 l76 -45 225
131 c124 71 230 131 236 133 5 1 15 -8 22 -20 6 -12 33 -59 60 -104 26 -45 47
-86 47 -90 0 -5 4 -9 9 -9 5 0 11 -8 15 -17 3 -10 8 -23 12 -30 3 -6 -8 -18
-23 -26 -72 -38 -106 -57 -211 -120 -62 -37 -114 -67 -117 -67 -3 0 -28 -15
-58 -34 l-53 -34 1 -261 c1 -170 -3 -265 -10 -270 -13 -9 -301 -8 -311 1 -4 4
-7 126 -8 270 l-1 263 -80 48 c-44 26 -148 86 -232 134 l-152 87 28 50 c16 28
52 92 82 143 l53 92 55 -31 c31 -18 100 -58 154 -90z"/>
</g>
</svg>
