<svg width="85" height="72" viewBox="0 0 85 72" fill="none" xmlns="http://www.w3.org/2000/svg">
<g opacity="0.6">
<path d="M15.208 41.9621V14.0605H7.10952C3.19507 14.0605 0 17.3247 0 21.3077V55.2092C0 59.1921 3.19507 62.4567 7.10952 62.4567H17.2948V69.9235C17.2948 70.4229 17.5945 70.8722 18.0438 71.0619C18.4933 71.2514 19.0224 71.1417 19.3618 70.7924L27.5501 62.4567H45.0449C48.9594 62.4567 52.1548 59.1921 52.1548 55.2092V55.1991H28.2991C21.0793 55.1991 15.208 49.2593 15.208 41.9621Z" fill="#46A8C7"/>
<path d="M76.0144 0.210938H28.2983C23.8455 0.210938 20.2021 3.92065 20.2021 8.45426V41.9611C20.2021 46.4952 23.8455 50.2047 28.2983 50.2047H55.3499L67.728 62.6908C68.1221 63.0919 68.7143 63.2117 69.2287 62.995C69.7434 62.7779 70.079 62.2668 70.079 61.6998V50.2047H76.0146C80.4675 50.2047 84.1108 46.495 84.1108 41.9611V8.45426C84.1106 3.92065 80.4672 0.210938 76.0144 0.210938ZM60.6443 39.6425H32.1852V35.6493H60.6443V39.6425ZM72.1277 27.1641H32.1852V23.1713H72.1277V27.1641ZM72.1277 14.6857H32.1852V10.6927H72.1277V14.6857Z" fill="#46A8C7"/>
</g>
</svg>
