<svg width="39" height="31" viewBox="0 0 39 31" fill="none" xmlns="http://www.w3.org/2000/svg">
<path id="Vector" d="M1.39286 0H37.6071C38.3776 0 39 0.629687 39 1.40909V29.5909C39 30.3703 38.3776 31 37.6071 31H1.39286C0.622433 31 0 30.3703 0 29.5909V1.40909C0 0.629687 0.622433 0 1.39286 0ZM3.13393 4.87898V27.8295H35.8661V4.87898L37.0674 3.93224L35.3568 1.70852L33.4939 3.17486H5.50179L3.63884 1.70852L1.92823 3.93224L3.13393 4.87898ZM5.50179 3.17045L19.5 14.179L33.4982 3.17045L35.3612 1.70412L37.0718 3.92784L35.8704 4.87457L21.0017 16.57C20.5741 16.9061 20.048 17.0885 19.5065 17.0885C18.965 17.0885 18.439 16.9061 18.0114 16.57L3.13393 4.87898L1.93259 3.93224L3.64319 1.70852L5.50179 3.17045Z" fill="#292929"/>
</svg>
