<svg width="162" height="121" viewBox="0 0 162 121" fill="none" xmlns="http://www.w3.org/2000/svg">
<path d="M156.328 58.778C156.53 59.4167 157.068 59.5603 157.656 59.6014C158.179 59.6373 158.672 59.6604 158.62 60.3747C158.57 61.0737 158.151 61.2238 157.496 61.3123C155.571 61.5726 153.711 60.916 151.801 61.0199C151.123 61.0571 151.108 60.3696 150.985 59.9682C148.572 52.0702 144.687 44.807 140.749 37.5696C139.313 34.9313 136.603 34.0246 133.939 33.0845C128.857 31.2914 123.528 30.6001 118.229 29.828C114.161 29.2355 114.14 29.3522 114.131 25.3955C114.124 22.4264 114.034 19.4534 114.156 16.4881C114.228 14.708 113.286 13.9872 111.743 13.6537C99.4962 11.0103 87.2451 8.39007 75.002 5.73261C66.6074 3.91009 58.2155 2.07219 49.842 0.162457C48.4099 -0.164595 47.242 -0.00812302 46.0133 0.7255C31.9285 9.15063 17.8279 17.5514 3.73254 25.9598C1.26332 27.4322 -0.0525513 29.1983 0.00161743 32.3932C0.248672 46.8219 0.113907 61.2571 0.165436 75.6898C0.17601 78.623 0.997757 81.5408 0.238098 84.4945C-0.0129242 85.4718 0.792984 85.8617 1.61076 85.972C2.86983 86.1401 4.14474 86.1939 5.42758 86.2978C4.23854 88.9014 4.45786 89.3311 7.26663 89.8774C7.68808 89.9595 7.98004 90.0185 8.25616 90.4559C9.00658 91.6435 8.7701 93.6469 10.9804 93.7251C11.0834 93.729 11.1931 94.3292 11.2473 94.6601C11.3794 95.4784 11.5022 96.2992 11.5921 97.1226C12.102 101.773 14.3876 103.165 19.7211 101.985C20.6367 101.782 21.4267 101.685 22.3647 101.844C24.904 102.275 26.9861 101.331 27.862 98.999C28.5173 97.2521 29.4038 97.4766 30.7131 97.9434C35.0253 99.4787 39.2913 101.143 43.7145 102.376C44.9762 102.727 46.1732 102.847 47.4613 102.462C48.8776 102.04 49.846 102.375 49.6795 104.109C49.6201 104.723 49.6993 105.35 49.7218 105.971C49.7879 107.829 50.2714 109.191 52.6904 108.557C53.8068 108.263 54.3749 108.868 54.6048 109.911C54.9324 111.394 55.4371 112.821 56.0633 114.218C58.156 118.891 62.027 120.896 67.0434 120.964C74.8977 121.071 79.1399 117.968 81.2101 110.627C81.5682 109.357 82.1495 109.372 83.1813 109.512C87.3046 110.069 91.3856 111.082 95.6067 110.637C99.2676 110.251 102.936 109.926 106.589 109.481C108.288 109.274 109.546 109.363 110.758 110.938C115.563 117.183 129.47 115.943 132.493 108.853C132.94 107.805 133.703 107.772 134.674 107.692C140.25 107.233 145.825 106.756 151.387 106.171C155.497 105.739 154.926 105.494 155.916 101.46C156.192 100.337 156.086 99.126 156.17 97.9563C156.307 96.026 155.727 94.5729 153.543 94.1586C152.53 93.9662 152.4 93.761 153.001 92.7209C154.257 90.5508 154.032 87.9497 154.646 85.5667C155.208 83.3877 155.711 81.1381 154.113 79.0501C153.691 78.4998 153.88 77.7124 153.959 77.0211C154.228 74.6714 154.117 72.2782 153.547 70.0427C152.939 67.6533 154.764 65.7628 154.394 63.4978C154.296 62.9027 155.117 63.0296 155.588 62.9899C159.771 62.6346 159.549 62.573 160.689 58.6779C161.245 56.7759 162.185 55.0239 161.968 52.9577C161.816 51.511 161.53 50.113 160.886 48.8009C160.396 47.7992 159.496 47.5479 158.416 47.5389C157.31 47.5286 156.961 48.2533 156.652 49.0408C155.572 51.7893 155.29 54.6379 155.557 57.5518C155.608 58.12 155.771 58.6356 156.403 58.8562C155.683 56.3385 155.919 53.808 156.606 51.3622C156.952 50.1271 156.674 48.016 158.768 48.1237C160.91 48.234 160.64 50.3169 161.124 51.7585C162.272 55.1804 159.516 57.9776 159.613 61.2174H159.223C159.365 59.6732 158.613 58.8609 156.965 58.7805C156.754 58.7703 156.542 58.7831 156.331 58.7844L156.328 58.778Z" fill="#606060"/>
<path d="M66.1094 95.5698C66.0117 96.2817 66.7356 96.5587 66.9761 97.1102C67.9405 99.3329 67.7265 100.495 66.0645 101.481C65.0908 99.7689 63.586 98.0696 65.9324 96.2624C66.0896 96.1406 66.0579 95.7866 66.1081 95.5532C65.8003 95.911 65.4951 96.2701 65.1846 96.6254C64.5927 97.3039 63.8106 97.1948 63.0602 97.0448C62.8673 97.0063 62.5687 96.6446 62.6031 96.4907C62.7682 95.7597 63.4883 95.5185 64.0445 95.1389C64.89 94.5618 65.4119 95.4621 66.1081 95.5686L66.1094 95.5698Z" fill="#CFCFCF"/>
<path d="M67.1557 105.919C67.1306 104.721 66.1806 103.586 66.8267 102.359C67.153 101.738 67.5612 100.771 68.4874 101.71C69.5958 102.83 68.6763 105.402 67.0803 105.848C68.9815 106.79 69.0621 108.535 67.0513 111.324C67.4701 109.587 64.1699 110.953 65.2928 108.91C65.8438 107.908 65.3642 106.2 67.153 105.92L67.1557 105.919Z" fill="#CFCFCF"/>
<path d="M13.3702 86.839C12.5511 88.2691 12.4309 89.871 12.201 91.4473C11.7875 88.609 12.3569 85.963 13.9119 83.5544C14.8235 82.1423 16.578 81.8037 16.969 82.9182C17.5583 84.601 17.9546 86.3799 17.2121 88.5897C16.5476 86.9301 16.7907 85.1319 14.9635 84.7382C13.978 84.5253 13.834 85.6001 13.3702 86.1554C14.0097 86.1913 14.3637 85.3731 15.1723 85.618C13.3517 89.4914 13.3821 93.4557 14.3822 97.5112C13.7996 96.8225 13.4772 96.0542 13.2394 95.1936C12.4613 92.3861 13.1707 89.6209 13.3689 86.839H13.3702Z" fill="#333333"/>
<path d="M127.915 67.4529C127.449 65.8908 128.74 66.5025 129.287 66.5205C132.903 66.6385 136.519 66.8193 140.131 67.022C142.235 67.14 144.336 67.3375 146.439 67.5004C144.694 68.2763 142.977 68.0288 141.241 67.9672C136.783 67.8095 132.356 66.9527 127.873 67.4067C127.572 68.1134 126.96 68.2763 126.318 68.0519C125.129 67.635 126.697 66.5231 125.821 65.9921C124.909 67.0951 106.16 66.5102 103.563 64.9955C110.298 65.3764 116.494 65.7253 122.69 66.0754C122.705 65.8856 122.719 65.6958 122.733 65.506C121.707 65.4175 120.684 65.3033 119.656 65.2443C114.276 64.9365 108.898 64.6274 103.516 64.3607C102.798 64.3248 101.948 63.7091 101.347 64.5402C100.792 65.3085 102 65.7689 101.917 66.5859C98.8449 66.3768 95.7864 66.7026 92.724 65.1148C94.9382 64.1631 95.0519 62.5292 94.8682 60.8118C94.7163 59.3997 95.1866 58.8187 96.7601 58.9393C101.562 59.3074 106.386 59.4433 111.179 59.8871C119.989 60.7041 128.81 61.3377 137.637 61.9238C140.247 62.0969 142.858 62.6779 145.45 62.583C147.64 62.5035 150.135 64.008 152.1 61.616C152.547 61.0722 153.79 61.1709 153.735 62.5407C153.707 63.2282 153.778 63.922 153.728 64.6069C153.517 67.5106 150.438 69.8616 147.698 69.2228C147.332 69.1369 146.623 69.1459 146.826 68.6149C147.971 65.6201 145.154 66.6872 144.308 66.6128C139.081 66.1575 133.826 65.978 128.58 65.7215C128.118 65.6984 127.51 65.4508 127.268 66.0562C127.021 66.6744 127.523 67.0681 127.919 67.4542L127.915 67.4529Z" fill="#FFE7AB"/>
<path d="M65.8993 57.8675C65.4039 56.7542 64.2479 56.4579 63.2861 55.9911C59.6331 54.2173 58.5326 51.3662 59.1549 47.5903C59.5221 45.3638 59.649 43.0975 59.8287 40.8441C60.0453 38.1199 60.439 37.1336 61.7509 36.3205C60.0638 41.2853 60.3043 46.454 60.2065 51.5842C60.1854 52.7142 61.0018 53.4914 61.9174 54.0608C66.2191 56.7363 70.5921 59.3078 75.1831 61.4869C77.9958 62.822 79.3698 61.9204 79.4874 58.864C79.5376 57.5571 79.5812 56.2643 80.3659 55.0933C80.1321 57.0518 80.5905 59.0025 80.0687 60.9469C79.4253 63.3466 78.589 63.875 76.1713 62.8746C74.4815 62.1756 72.9384 61.147 71.2579 60.421C69.411 59.622 67.9802 58.0214 65.8412 57.8098C69.2326 60.1748 72.7522 62.3398 76.742 63.6185C79.1729 64.3983 80.3858 63.5941 80.7478 61.1534C80.9499 59.7952 81.0265 58.4215 81.197 57.0582C81.2683 56.4913 80.9565 55.5063 81.6924 55.4845C82.7533 55.4537 82.349 56.4746 82.3226 57.08C82.1059 62.0358 81.8192 66.989 81.6329 71.9448C81.5378 74.4856 81.3608 74.6959 78.8704 74.2663C71.8815 73.0568 64.8081 72.6207 57.7359 72.3604C55.8018 72.2886 55.2786 71.5575 55.2073 70.0261C55.1756 69.3425 55.2826 68.6512 55.3539 67.9663C55.8216 63.4581 56.1876 58.9423 56.8296 54.4482C57.5576 49.3539 57.9434 44.2134 58.6264 39.1126C58.8787 37.226 59.2077 35.0931 61.4114 34.3171C66.3776 32.5677 71.4257 31.0402 76.6958 30.4182C79.1637 30.127 79.8415 30.6875 80.3712 33.0423C81.1732 36.6078 81.0278 40.2759 81.5642 43.8696C82.0359 47.035 82.2182 50.2093 82.2526 53.4657C81.3555 53.231 81.2379 52.6513 81.2538 52.1178C81.333 49.6322 80.9829 47.1748 80.8402 44.7046C80.6328 41.1173 79.9234 37.6261 78.9867 34.1761C78.5454 32.5498 77.2956 31.8187 75.557 32.1573C71.4138 32.9666 67.2813 33.831 63.1408 34.6493C61.2581 35.0213 60.1193 36.0896 59.7718 37.9134C58.921 42.3844 58.3727 46.8862 58.5683 51.4419C58.6264 52.8091 59.2262 54.0262 60.3994 54.8099C62.1433 55.9744 63.8397 57.2454 65.9046 57.8726L65.8993 57.8675Z" fill="#660109"/>
<path d="M84.0625 30.2063C83.8128 28.9789 84.8301 28.5569 86.6269 28.6865C93.6105 29.1867 100.503 30.3731 107.442 31.19C117.249 32.3456 126.889 34.3144 136.533 36.2946C138.39 36.6755 140.032 37.6708 140.951 39.2932C144.686 45.8779 147.972 52.6665 150.331 59.8475C150.564 60.5542 150.723 61.0108 149.588 60.912C144.57 60.4734 139.544 60.1284 134.524 59.7116C126.967 59.0857 119.417 58.4034 111.858 57.7916C105.928 57.3106 99.9903 56.8989 94.0557 56.4564C93.0701 56.3833 92.2999 56.0229 91.8969 55.0623C91.3975 53.8708 90.515 53.1346 89.1212 53.2039C87.7287 53.2718 87.3046 52.5254 87.1408 51.3198C86.8382 49.0779 86.3706 46.8578 86.0482 44.6184C85.3929 40.0641 84.7878 35.502 84.0612 30.2076L84.0625 30.2063Z" fill="#CFCFCF"/>
<path d="M115.153 80.5618C110.392 80.5618 105.63 80.5618 100.867 80.5618C99.5529 80.5618 98.0824 80.5246 97.912 78.9124C97.5236 75.2302 97.1669 71.5454 96.4786 67.9055C96.3161 67.0501 96.6345 66.823 97.2924 66.9834C99.4631 67.5131 101.672 67.2796 103.861 67.4053C112.99 67.9312 122.118 68.4596 131.25 68.9521C137.055 69.265 142.863 69.5292 148.672 69.7781C149.529 69.8152 149.924 70.0461 150.031 70.9375C150.345 73.5488 150.51 76.1421 150.157 78.7714C149.893 80.7311 148.86 81.4724 146.883 81.3852C136.311 80.9184 125.739 80.4284 115.152 80.5644L115.153 80.5618Z" fill="#660109"/>
<path d="M116.302 105.364C116.306 105.408 116.309 105.453 116.313 105.497C117.873 105.398 119.457 105.426 120.989 105.166C122.552 104.899 122.023 106.076 122.328 106.688C122.923 107.877 121.76 107.547 121.341 107.641C120.522 107.827 119.658 107.831 118.81 107.886C113.927 108.209 109.032 108.407 104.165 108.874C97.9808 109.467 91.8321 110.481 85.6121 109.14C84.1496 108.825 83.2393 108.328 82.8708 106.802C82.2683 104.304 82.016 101.801 82.0503 99.2441C82.1018 95.54 82.0622 95.5413 85.8764 95.8876C86.1591 95.9133 86.4458 95.8876 86.7298 95.903C96.9688 96.484 107.202 95.962 117.433 95.7004C128.09 95.4272 138.753 95.313 149.399 94.6884C150.816 94.6051 152.255 94.5614 153.662 94.7051C154.838 94.8257 155.509 95.5824 155.514 96.8406C155.52 98.1731 154.504 97.8999 153.717 98.0295C153.367 98.0872 153.019 98.1565 152.672 98.2373C151.432 98.5258 150.145 100.663 150.523 102.186C150.906 103.729 152.099 103.391 153.266 103.021C153.665 102.896 154.357 102.624 154.575 103.214C154.796 103.813 154.608 104.479 153.916 104.792C153.406 105.023 152.861 105.268 152.313 105.321C147.442 105.792 142.568 106.226 137.693 106.656C136.965 106.72 136.264 106.747 136.281 105.662C136.295 104.74 136.585 104.205 137.599 104.193C138.88 104.179 140.164 104.205 141.439 104.119C144.203 103.933 145.392 102.892 145.989 100.348C146.319 98.9427 145.655 98.2437 144.339 98.4861C142.22 98.8773 140.062 98.5592 137.971 98.9811C136.739 99.23 136.186 98.8747 136.318 97.6434C136.474 96.1877 135.587 95.7747 134.355 95.9312C130.954 96.3634 127.538 96.2454 124.126 96.2865C122.76 96.3032 121.879 96.8046 121.927 98.1872C121.972 99.4826 121.259 99.6147 120.196 99.6455C116.931 99.7391 113.671 99.929 110.406 100.035C109.269 100.073 108.459 100.474 108.196 101.581C107.637 103.927 109.332 105.849 111.841 105.715C113.33 105.635 114.815 105.484 116.302 105.366V105.364Z" fill="#FFE7AB"/>
<path d="M49.5605 44.4754C49.5367 44.4754 49.5129 44.4754 49.4904 44.4754C49.4904 38.0549 49.4838 31.6357 49.4918 25.2153C49.4997 19.1385 49.538 13.063 49.5248 6.98625C49.5221 5.78193 49.682 4.8572 51.2595 5.18939C54.0801 5.78321 56.8942 6.40782 59.7122 7.0119C60.6727 7.21839 61.25 7.5711 61.2421 8.73566C61.1985 15.2254 61.246 21.7152 61.2711 28.2049C61.2738 28.9231 61.2302 29.5926 60.4375 29.9479C58.0013 31.0432 57.0778 33.1646 56.4252 35.4898C53.8463 44.6768 53.3323 54.1536 52.1248 63.5394C51.6056 67.5769 52.2358 71.6233 51.4589 75.657C51.1339 77.341 50.1708 80.0562 53.7763 80.2793C54.3919 80.3178 55.6404 83.301 55.2625 83.446C53.627 84.0719 51.8619 84.1039 50.2422 83.6794C49.0333 83.3613 49.5935 81.9915 49.5908 81.1143C49.5472 68.9018 49.5618 56.688 49.5618 44.4754H49.5605Z" fill="#999999"/>
<path d="M23.7228 68.7554C23.7215 68.9542 23.7202 69.153 23.7175 69.3505C16.7775 69.28 9.84147 69.5968 2.89882 69.1735C1.69526 69.1004 1.81813 68.3001 1.81549 67.5549C1.8036 64.6551 1.80888 61.7539 1.81152 58.8541C1.81548 51.9488 1.88815 45.0409 1.7851 38.1369C1.7534 35.9745 3.32688 35.6244 4.74711 34.8882C5.95729 34.261 7.01421 34.152 7.88881 35.3243C8.65244 36.3477 9.55082 35.7 10.1348 35.3307C11.5524 34.4354 12.7308 34.5265 13.9067 35.709C12.3292 36.9941 10.0872 37.1904 8.50843 38.573C10.0317 38.269 11.4903 37.7547 12.9964 37.4777C13.6768 37.352 14.8064 37.1493 15.0785 38.0048C15.3613 38.8923 14.3043 39.1822 13.6398 39.4592C12.4019 39.9748 11.1045 40.3544 9.85072 40.8354C8.8876 41.2048 7.76066 41.274 7.04195 42.3039C9.00386 40.9059 10.9143 42.168 12.8273 42.2372C13.4931 42.2616 14.4047 42.1808 14.6042 43.0222C14.8275 43.961 13.9846 44.2791 13.2712 44.6241C12.3543 45.0678 11.1058 44.8729 10.1757 46.1439C11.5444 45.7989 12.3886 46.1478 13.2329 46.8506C11.2445 48.6949 8.38029 48.3769 6.17396 49.6928C8.50712 49.258 10.2233 51.1677 12.4256 51.092C12.6 51.0856 12.929 51.4434 12.9449 51.6487C12.9937 52.2579 12.46 52.1322 12.0584 52.2258C9.55214 52.8081 7.05252 53.425 4.43665 54.0586C5.5081 55.0487 6.54784 53.5751 7.36959 54.1868C7.57966 55.0269 6.44216 54.5793 6.63901 55.3963C8.28252 55.2873 10.0066 55.4066 11.5827 54.9936C12.8273 54.6678 12.7982 55.6207 13.007 56.0068C13.4139 56.7571 12.5736 56.7738 12.0663 56.9072C11.5801 57.0354 10.868 56.716 10.724 57.542C13.9159 57.7152 16.7366 58.6694 19.1556 60.397C16.4102 60.7535 13.6781 61.1075 10.946 61.4628C14.9094 61.6244 18.8227 61.2512 22.7412 61.7014C21.4518 62.5966 19.873 61.9271 18.5518 62.8351C21.9393 62.6299 25.2236 63.252 28.5582 63.6393C24.0452 63.5136 19.6021 64.0484 15.1538 64.7025C18.2215 64.8821 21.3249 64.6525 24.3332 65.3605C20.5824 66.3724 16.7339 65.6568 12.97 66.2249C16.7775 66.8893 20.6908 65.9838 24.8735 67.0932C21.967 67.7922 19.3947 67.5806 16.8515 68.0244C19.1424 68.2693 21.4333 68.513 23.7255 68.758L23.7228 68.7554Z" fill="#999999"/>
<path d="M79.5532 47.352C79.2044 46.3759 78.9521 45.6859 78.713 44.9908C78.4672 44.2751 78.314 43.5197 77.9837 42.8438C76.9823 40.7917 75.3189 40.5159 73.8657 42.3077C71.9592 44.6586 71.3608 47.4148 72.4203 50.2582C73.0902 52.0564 74.6214 53.2158 76.6956 53.0363C78.5346 52.8772 79.067 53.7468 79.0869 55.2397C79.1054 56.6172 78.9719 57.9805 78.7301 59.3477C78.3127 61.7051 77.6904 62.0783 75.5184 61.0202C71.0794 58.8578 66.8768 56.294 62.6042 53.8468C61.394 53.153 60.7136 52.082 60.8074 50.7725C61.0941 46.7235 60.929 42.636 61.678 38.6306C61.9542 37.1556 62.6108 35.5024 64.2754 35.1035C67.9575 34.2211 71.7109 33.6196 75.4312 32.8886C77.4222 32.4987 78.2585 33.5003 78.6681 35.2267C79.3062 37.9111 79.6246 40.6352 79.9615 43.3632C80.12 44.6419 80.6603 45.9181 79.5519 47.3507L79.5532 47.352Z" fill="#CFCFCF"/>
<path d="M55.1174 73.6365C55.5508 73.1183 55.5957 73.0183 55.638 73.0195C63.4645 73.2017 71.2474 73.9417 79.021 74.792C80.5034 74.9536 81.8959 75.2422 81.2445 77.2879C81.0847 77.7919 81.2181 78.3845 81.2181 78.936C81.2168 83.0068 81.234 87.0777 81.1983 91.1485C81.1904 91.9847 81.378 93.1313 79.8481 92.903C76.6443 92.4246 73.4577 91.7834 70.2367 91.4858C68.5853 91.3332 68.0859 90.6137 67.5495 89.2465C65.8426 84.8922 64.4078 80.1621 58.3027 79.8312C57.5946 79.7927 56.8706 79.8235 56.1849 79.6799C54.0433 79.2297 54.9549 77.5393 54.8123 76.299C54.6867 75.1986 55.1795 74.6381 56.399 74.6753C60.4998 74.801 64.5927 74.8741 68.6711 75.5C70.0029 75.7039 71.5209 76.1618 72.912 75.4782C67.1095 74.4393 61.278 73.8763 55.1148 73.6365H55.1174Z" fill="#660109"/>
<path d="M107.625 86.0469C108.481 86.5561 109.275 86.3471 110.026 86.3483C119.343 86.3714 128.659 86.3714 137.975 86.3817C138.9 86.3817 139.827 86.4599 140.747 86.4009C142.331 86.2996 142.518 87.0717 142.214 88.3312C141.715 90.4089 140.167 90.9809 138.25 91.0156C130.855 91.1477 123.461 91.3106 116.066 91.3529C113.236 91.3683 110.125 92.3148 107.837 89.0045C107.926 90.8835 109.353 90.9386 110.088 91.9724C108.11 91.871 107.051 90.9591 106.537 89.4214C105.86 87.4 105.681 85.2389 105.046 83.2356C104.445 81.3374 104.853 80.9642 106.73 81.0257C119.022 81.4233 131.328 81.2232 143.615 81.8466C144.059 81.8696 144.711 81.5965 144.82 82.3147C144.923 83.0098 144.82 83.8563 144.287 84.2308C143.783 84.5848 143.155 83.8371 142.427 83.8358C131.121 83.8204 119.812 83.9602 108.509 83.4998C107.982 83.478 107.192 83.1407 106.907 84.2706C119.047 84.4771 131.129 84.0372 143.44 84.7246C142.576 86.1431 141.449 85.9328 140.441 85.9213C130.202 85.802 119.963 85.6558 109.725 85.5455C109.08 85.539 108.32 85.2171 107.623 86.0482L107.625 86.0469Z" fill="#808080"/>
<path d="M134.351 34.0059C134.151 34.0059 133.941 34.0469 133.755 33.9995C127.75 32.4848 121.641 31.4446 115.542 30.4096C109.069 29.3117 102.551 28.4614 96.0402 27.5867C92.6686 27.1339 89.2799 26.7376 85.8845 26.5491C82.8353 26.3798 81.9818 27.3686 82.0783 30.3416C82.0968 30.8931 82.11 31.4472 82.1787 31.9935C83.0123 38.532 83.8447 45.0692 84.71 51.6039C84.821 52.4427 85.2081 53.352 83.8711 53.4572C82.4918 53.5649 83.0123 52.467 82.9489 51.8322C82.3491 45.8067 81.8444 39.7723 81.1852 33.7532C80.806 30.2877 79.2325 29.3271 75.7394 29.9055C71.2013 30.6571 66.786 31.8268 62.4235 33.2261C59.6782 34.1072 58.4284 35.6476 58.1469 38.4602C57.8801 41.1254 57.6396 43.7982 57.2248 46.4429C56.3304 52.1451 55.794 57.8846 55.1374 63.6125C54.8692 65.9493 54.6974 68.272 54.7212 70.6178C54.7291 71.4322 54.5481 72.2248 53.5137 72.2338C52.4607 72.2428 52.684 71.3283 52.5241 70.6986C52.3009 69.8136 52.3484 68.9518 52.4475 68.0424C52.9641 63.3329 53.437 58.6182 53.84 53.8971C54.3645 47.7395 55.3937 41.6628 56.9592 35.6835C57.6185 33.1632 58.8709 31.0432 61.6705 29.9671C64.6444 28.8243 67.6883 27.9984 70.7785 27.2801C75.3074 26.2284 79.7887 24.7458 84.5277 25.1113C90.8032 25.5949 96.9795 26.8107 103.184 27.7957C109.569 28.809 115.961 29.7952 122.332 30.8829C126.406 31.578 130.484 32.295 134.35 34.0059H134.351Z" fill="#FFE7AB"/>
<path d="M62.0178 18.732H62.0007C62.0007 15.6333 62.0244 12.5346 61.9901 9.43726C61.9742 8.08031 62.4604 7.56216 63.9177 7.89049C66.7872 8.53819 69.6779 9.10892 72.5699 9.65786C73.2741 9.79124 73.6796 9.87718 73.6664 10.7686C73.5977 15.4486 73.6136 20.1287 73.6215 24.81C73.6228 25.7091 73.282 26.0759 72.3149 26.3029C69.2379 27.025 66.0883 27.529 63.1646 28.7872C62.0363 29.272 62.0126 28.6 62.0152 27.8202C62.0244 24.7908 62.0192 21.7614 62.0192 18.732H62.0178Z" fill="#999999"/>
<path d="M96.9755 79.1154C92.9315 77.2775 88.865 76.1206 84.7126 75.3986C82.4191 74.9997 82.0399 73.821 82.1548 71.951C82.431 67.4775 82.6357 63.0001 82.9 58.5265C82.9502 57.6698 82.4481 56.5001 84.1564 56.4731C85.57 56.45 85.7404 57.2683 85.8897 58.3046C86.298 61.125 87.6429 63.3233 90.3222 64.7161C91.6394 65.3997 92.9526 66.0538 94.3795 66.4732C95.0202 66.6618 95.5962 66.8683 95.727 67.6083C96.3836 71.3162 97.1512 75.0125 96.9768 79.1154H96.9755Z" fill="#660109"/>
<path d="M74.3705 18.1264C74.3705 15.9204 74.3903 13.7131 74.3626 11.5071C74.3494 10.4695 74.644 9.94496 75.8595 10.2181C79.4821 11.0313 83.0994 11.888 86.7576 12.5229C88.0008 12.7384 88.3007 13.3232 88.314 14.2736C88.3562 17.3761 88.3602 20.4786 88.3483 23.5811C88.3457 24.2852 88.3126 24.9009 87.1646 24.779C83.2764 24.3686 79.3856 24.3686 75.5886 25.4524C74.5925 25.7371 74.3388 25.4857 74.3586 24.5405C74.4036 22.4037 74.3732 20.2657 74.3718 18.1277L74.3705 18.1264Z" fill="#999999"/>
<path d="M69.4889 104.619C70.4309 105.846 70.9884 106.984 72.1629 107.553C72.7033 107.816 72.7429 108.302 72.587 108.804C71.7494 111.509 70.9911 114.296 68.9829 116.43C65.7818 119.832 61.895 120.543 58.4745 116.727C57.6726 115.833 57.0675 114.828 56.5853 113.745C54.5771 109.229 53.8954 104.472 54.3512 99.6307C54.6484 96.4782 55.5521 93.4026 57.8853 90.9555C59.5209 89.2407 62.4221 88.7418 64.635 89.7986C66.2733 90.581 66.9404 92.5369 66.4291 95.0559C62.2662 92.0111 58.596 93.3488 57.3106 98.3084C56.8389 100.128 56.6711 101.984 56.6156 103.817C56.5126 107.197 57.3251 110.407 59.686 113.032C62.1011 115.718 65.828 115.287 67.6829 112.232C69.0477 109.982 69.3661 107.503 69.4876 104.619H69.4889Z" fill="#333333"/>
<path d="M22.2194 88.1464C22.2775 89.2353 22.3278 90.1177 22.3687 91.0014C22.4044 91.7709 22.8007 92.9765 21.6104 92.9162C20.5244 92.8611 18.8769 92.847 18.8862 90.9988C18.8954 89.2045 18.7752 87.4012 18.9139 85.6172C19.1332 82.7789 21.2219 81.0602 23.7863 81.4335C28.4566 82.1132 33.1255 82.7981 37.7971 83.4727C39.6665 83.7421 39.8449 84.1217 38.8197 85.5736C38.5039 86.0199 38.3044 86.5445 38.0666 87.0395C37.4298 88.3683 36.4733 89.1711 34.8761 88.7287C33.9182 88.4632 32.9749 88.5683 32.2166 89.0493C31.0804 89.7688 30.0023 89.7162 28.7697 89.4225C27.8872 89.2122 26.9346 89.2776 25.4853 89.1878C27.5106 90.2228 28.5583 93.2176 27.7973 94.5925C27.7128 94.7451 27.5423 94.9157 27.3785 94.9568C25.9002 95.33 23.2103 93.2689 23.172 91.7465C23.1429 90.5537 23.3186 89.3161 22.2194 88.1489V88.1464Z" fill="#CFCFCF"/>
<path d="M88.9019 18.986C88.9019 18.986 88.9111 18.986 88.9164 18.986C88.9164 17.4046 88.9019 15.8219 88.9243 14.2405C88.9323 13.6415 88.853 12.8861 89.8927 13.108C92.831 13.7352 95.7586 14.4111 98.7075 14.9921C99.7961 15.2063 100.006 15.8219 99.9982 16.7453C99.9744 19.5644 99.9335 22.386 100.015 25.2038C100.054 26.5069 99.6177 26.7057 98.4089 26.3812C97.2621 26.0734 96.0506 25.9785 94.8616 25.8399C90.9017 25.3782 88.9155 23.2316 88.9032 19.4002C88.9032 19.263 88.9032 19.1258 88.9032 18.9872L88.9019 18.986Z" fill="#999999"/>
<path d="M111.191 22.8487C111.191 24.2262 111.108 25.6101 111.215 26.9811C111.32 28.3496 110.618 28.4432 109.536 28.2624C107.037 27.8443 104.534 27.4531 102.03 27.0658C100.91 26.8926 100.286 26.4617 100.384 25.1765C100.515 23.463 100.416 21.7342 100.416 20.0117C100.416 17.0088 101.916 15.769 104.918 16.2923C105.057 16.3166 105.202 16.3051 105.342 16.3243C109.207 16.8698 111.157 19.0451 111.192 22.85L111.191 22.8487Z" fill="#999999"/>
<path d="M100.042 81.1198C102.671 80.9667 104.203 82.0415 104.639 84.3441C104.857 85.483 105.12 86.6143 105.383 87.7455C106.546 92.7372 108.053 92.8629 112.819 92.7962C121.336 92.6782 129.85 92.305 138.367 92.1382C141.855 92.0703 143.049 91.2892 143.936 88.0469C144.422 86.2667 145.075 84.5301 145.546 82.7473C145.874 81.5135 146.829 81.7983 147.585 81.8996C148.911 82.0779 147.84 82.9282 147.755 83.2693C147.249 85.3279 146.595 87.353 145.948 89.3756C144.853 92.8013 144.839 92.7936 141 92.9142C140.362 92.9347 139.725 93.0104 139.087 93.0489C127.67 93.7376 116.236 93.7748 104.805 93.9107C103.822 93.9223 103.516 93.6452 103.374 92.6577C102.81 88.7382 102.05 84.852 100.04 81.1185L100.042 81.1198Z" fill="#660109"/>
<path d="M20.7675 78.2214C21.9143 77.802 22.8853 78.451 23.9396 78.5523C30.6775 79.2013 37.4061 79.9259 44.1453 80.5608C45.7822 80.7147 45.3052 81.8254 45.3607 82.6937C45.4321 83.8044 44.6724 83.889 43.7978 83.7633C38.7761 83.04 33.7544 82.3128 28.7314 81.5958C23.3675 80.8288 17.9957 80.1003 12.6371 79.2975C9.30386 78.7985 5.99174 78.1688 2.6598 77.6571C2.01376 77.5583 1.80501 77.3223 1.82879 76.7426C1.85786 76.0539 2.36122 75.9012 2.85533 76.05C5.77111 76.9311 8.81768 76.8221 11.7982 77.1684C14.7946 77.516 17.8134 77.7007 20.7662 78.2201L20.7675 78.2214Z" fill="#999999"/>
<path d="M68.6262 92.0169C72.4945 92.5004 76.3153 92.975 80.1361 93.4559C81.1481 93.5842 81.8417 93.9895 81.7281 95.1489C81.5259 97.2074 81.3225 99.2685 81.189 101.332C81.1296 102.257 80.8416 102.481 79.8613 102.277C77.2494 101.735 74.6216 101.206 71.9727 100.908C70.2459 100.713 69.4493 99.9444 69.2868 98.3604C69.0728 96.2622 68.8508 94.1665 68.6262 92.0156V92.0169Z" fill="#FFE7AB"/>
<path d="M95.077 85.5041C92.8958 85.3322 90.5613 85.9055 88.5716 84.8577C86.8647 83.9599 85.1366 83.2827 83.2778 82.8197C82.6621 82.6658 81.6752 82.8056 81.7188 81.7859C81.7796 80.3649 81.3436 78.8822 82.1218 77.5471C82.2209 77.3778 82.7784 77.3778 83.1034 77.4265C87.5742 78.0858 92.0172 78.8604 96.2647 80.447C97.6294 80.9574 98.8053 81.6654 99.5464 82.9326C100.803 85.086 100.56 85.5079 98.0615 85.5092C97.0666 85.5092 96.0718 85.5092 95.0757 85.5041H95.077Z" fill="#660109"/>
<path d="M131.152 97.5674C132.679 97.5674 134.865 96.9825 135.56 97.7213C136.355 98.5665 135.829 100.587 135.871 102.095C135.887 102.646 135.891 103.199 135.893 103.751C135.899 105.817 134.146 107.149 132.374 106.085C131.135 105.34 130.193 105.578 129.046 105.753C124.174 106.49 123.719 106.122 123.517 101.346C123.491 100.725 123.556 100.095 123.468 99.4848C123.298 98.2997 123.809 98.0381 124.986 97.9021C127.042 97.6648 129.09 97.5481 131.152 97.5674Z" fill="white"/>
<path d="M110.176 109C117.687 108.557 124.808 108.135 132.271 107.693C130.102 112.287 126.273 113.723 121.886 114.083C117.292 114.46 113.222 113.393 110.175 109H110.176Z" fill="#333333"/>
<path d="M65.8901 119.751C70.4124 116.847 72.3743 113.089 73.0917 108.618C73.2305 107.751 73.6691 107.447 74.5595 107.604C76.1555 107.885 77.7607 108.123 79.3646 108.363C80.5232 108.536 80.9011 109.048 80.5681 110.231C79.7213 113.236 78.2654 115.879 75.8239 117.91C73.06 120.209 69.8893 120.785 65.8888 119.751H65.8901Z" fill="#333333"/>
<path d="M95.4337 93.1353C95.4337 93.0815 95.4337 93.0276 95.4337 92.9737C93.5193 92.9737 91.2826 93.5804 89.7725 92.8237C87.7921 91.8297 89.285 89.3544 88.8953 87.569C88.8662 87.4382 88.9045 87.2946 88.8979 87.1573C88.8504 86.2583 89.3392 85.9504 90.2045 85.9633C93.1111 86.0069 96.0189 85.9928 98.9241 86.0736C100.001 86.1044 100.749 86.5776 100.895 87.8076C101.049 89.0889 101.368 90.3599 101.724 91.6065C102.037 92.7057 101.654 93.143 100.537 93.1366C98.8369 93.1276 97.1353 93.1341 95.435 93.1341L95.4337 93.1353Z" fill="#660109"/>
<path d="M64.2268 87.0081C62.7801 87.534 61.2384 87.8854 59.9185 88.6126C55.9036 90.825 54.585 94.6137 53.8954 98.7538C53.4951 101.156 53.3471 103.526 53.8703 105.927C54.1041 107.002 53.4806 107.669 52.4197 107.816C51.7829 107.905 50.7735 108.278 50.5833 107.376C50.2596 105.841 49.6532 104.015 50.1975 102.721C51.6191 99.3425 52.277 95.7898 53.1344 92.3089C53.8452 89.4232 55.5244 87.212 57.0503 84.8342C57.2551 84.5135 57.5101 84.3827 57.8826 84.2929C60.3704 83.6927 62.6295 84.6379 64.2268 87.0068V87.0081Z" fill="#CFCFCF"/>
<path d="M33.745 76.4169C37.2698 76.6978 40.7933 76.9967 44.3195 77.2506C45.5138 77.3365 45.3791 78.1433 45.3764 78.8897C45.3738 79.5618 45.2932 80.0479 44.2917 79.9337C39.381 79.3745 34.4439 79.0205 29.549 78.36C23.5021 77.543 17.4327 76.9697 11.3634 76.3708C8.63388 76.1014 5.94136 75.4973 3.17619 75.514C2.6649 75.5166 2.13778 75.3575 2.21308 74.6932C2.26989 74.1943 2.67548 74.0493 3.14581 74.0583C3.57122 74.066 4.14195 73.9134 4.39825 74.1224C6.01402 75.4306 7.70907 74.706 9.39354 74.4264C10.1162 74.3058 10.786 74.547 11.4823 74.6432C13.7864 74.9587 16.1023 75.2152 18.421 75.3999C21.0025 75.6051 23.6104 75.5807 26.1761 75.8911C28.6942 76.1963 31.2441 75.9911 33.7437 76.4169H33.745Z" fill="#999999"/>
<path d="M42.9973 88.6337C45.3846 90.024 46.131 91.994 45.4559 95.0567C45.16 93.5112 45.238 92.1658 43.2853 92.1453C45.1296 93.4343 44.3369 95.0926 44.4941 96.5471C44.5866 97.4051 44.5153 98.1733 43.3883 98.4696C41.9998 98.8351 40.6232 99.0468 39.2386 98.6056C39.055 98.5466 38.9532 98.0066 38.9519 97.6885C38.9427 95.2029 38.8594 92.7109 39.0114 90.233C39.1567 87.85 39.7684 85.8056 42.4966 84.6654C44.4902 83.8318 45.9831 85.2952 47.8433 84.7501C47.3835 85.9198 45.8576 85.8608 45.8034 87.0176C45.7175 88.844 44.5959 88.8761 42.9986 88.6324L42.9973 88.6337Z" fill="#CFCFCF"/>
<path d="M113.886 105.014C112.648 105.014 111.643 105.112 110.667 104.991C109.081 104.793 109.052 103.541 108.924 102.346C108.796 101.138 109.441 100.774 110.52 100.708C113.983 100.499 117.444 100.277 120.906 100.049C122.126 99.9681 122.48 100.725 122.194 101.607C121.869 102.605 123.233 104.338 121.06 104.556C118.598 104.802 116.116 104.878 113.886 105.014Z" fill="#808080"/>
<path d="M81.4071 54.3434C79.214 53.1968 77.194 52.1836 74.8146 51.963C74.3125 51.9168 73.7999 51.2357 73.426 50.7497C71.9305 48.8027 72.6505 43.8187 74.6217 42.3438C75.6139 41.6012 76.5558 41.4498 77.1847 42.7837C78.161 44.855 79.1321 46.9943 79.0502 49.2811C78.9749 51.3909 78.8507 53.2942 81.4071 54.3434Z" fill="#CFCFCF"/>
<path d="M5.9826 70.2902C6.46218 69.6799 7.15314 69.8594 7.75295 69.8722C19.7675 70.1171 31.782 70.3787 43.7953 70.648C44.4625 70.6634 45.3767 70.4646 45.2948 71.5711C45.2248 72.5199 44.4096 72.2866 43.8151 72.2712C38.9863 72.1404 34.1562 72.0225 29.3287 71.8391C22.0187 71.5609 14.7101 71.2378 7.40021 70.9211C6.86911 70.898 6.2508 70.9672 5.98392 70.2902H5.9826Z" fill="#999999"/>
<path d="M12.2845 95.813C12.9477 95.9823 12.8618 96.3696 12.9028 96.6954C13.0006 97.4726 13.1366 98.2101 14.1434 98.364C15.1606 98.5192 15.524 97.7227 15.9084 97.1237C16.347 96.4414 16.7579 95.677 16.717 94.8228C16.6549 93.5146 17.363 93.5313 18.3182 93.8776C18.7145 94.0212 19.1373 94.0995 19.5218 94.2649C20.4651 94.6728 21.8761 94.4406 21.8919 96.09C21.913 98.2524 20.8218 100.906 19.5059 101.238C15.0999 102.353 12.011 101.206 12.2845 95.8142V95.813Z" fill="#333333"/>
<path d="M10.6027 80.0797C7.84278 80.6389 7.79256 80.6915 7.7701 83.3284C7.76482 83.8786 7.76746 84.4301 7.76614 84.9803C7.76349 85.5908 7.72915 86.0038 6.81756 85.8153C5.23746 85.4895 3.62037 85.3112 2.01121 85.1432C1.35196 85.074 0.886903 84.929 0.96353 84.1967C1.12603 82.6333 0.803676 81.0557 1.26608 79.4884C1.47746 78.7702 1.65318 78.4111 2.47626 78.4714C5.25728 78.6766 7.92997 79.3589 10.6027 80.0797Z" fill="#CFCFCF"/>
<path d="M81.728 87.0043C81.761 86.3105 81.7716 85.5551 81.8443 84.8073C81.8813 84.429 81.8892 83.9544 82.5537 84.0788C84.3346 84.4123 86.607 84.3276 87.2795 86.2181C88.0035 88.2536 87.7868 90.5391 87.1527 92.6874C87.1223 92.7887 86.9558 92.8682 86.8369 92.9285C84.9556 93.8866 82.1495 92.3808 82.0028 90.3454C81.9235 89.2527 81.8245 88.1599 81.728 87.0043Z" fill="#660109"/>
<path d="M80.6765 107.847C77.9681 107.506 75.808 107.156 73.6334 106.982C71.472 106.807 70.7309 105.308 70.028 103.703C69.8391 103.272 69.4982 102.811 69.9646 102.38C70.3041 102.066 70.7441 102.178 71.1734 102.263C73.7827 102.78 76.3986 103.27 79.0065 103.789C79.7094 103.929 80.7491 103.378 80.8112 104.847C80.8443 105.618 81.3133 106.415 81.2551 107.246C81.2076 107.918 80.6131 107.85 80.6778 107.847H80.6765Z" fill="#FFE7AB"/>
<path d="M91.0394 57.4199C92.0329 57.6662 93.6447 57.2263 93.7913 58.0715C94.0754 59.7067 94.8126 61.4484 94.041 63.1337C93.4518 64.4201 92.3249 64.6779 91.013 64.2213C89.088 63.5518 87.8382 62.2436 87.0944 60.4019C86.1987 58.1869 86.4035 57.8214 88.7683 57.661C89.5438 57.6085 90.3154 57.4982 91.0381 57.4199H91.0394Z" fill="#FFE7AB"/>
<path d="M52.9045 88.5889C52.8424 90.877 51.6891 91.7684 49.3837 91.3426C48.4827 91.1758 47.5777 90.986 46.6661 90.9168C45.518 90.8295 45.374 89.6098 45.5114 89.2892C46.3556 87.3384 47.8511 85.7852 49.5475 84.5027C49.9478 84.2 51.2333 83.8858 51.6138 84.7579C52.1502 85.9853 52.8623 87.1896 52.9032 88.5902L52.9045 88.5889Z" fill="#CFCFCF"/>
<path d="M85.8909 52.5705C85.8142 52.3833 85.6953 52.2024 85.6676 52.0075C84.8921 46.7156 84.0677 41.4302 83.386 36.1281C83.1072 33.9619 82.872 31.7828 82.876 29.5755C82.8786 27.9621 83.6053 27.3015 85.077 27.1553C85.8512 27.0784 86.6505 27.0168 87.4155 27.1156C92.9115 27.8235 98.4127 28.5007 103.881 29.3754C104.966 29.5486 106.313 29.1023 107.619 30.499C104.341 30.0642 101.521 29.6538 98.6915 29.3229C94.2881 28.8073 89.9085 28.0659 85.4602 27.9326C83.9025 27.8851 83.1468 28.7675 83.3054 30.1091C83.7281 33.6938 84.3491 37.2555 84.834 40.8338C85.3637 44.7469 86.2555 48.6241 85.8922 52.5679L85.8909 52.5705Z" fill="#FFE7AB"/>
<path d="M60.3861 108.696C61.2475 108.233 61.7416 107.107 62.9558 107.731C63.3217 107.92 63.8978 108.129 64.0629 107.652C64.2571 107.09 64.2849 106.4 64.1395 105.823C64.0087 105.306 63.4565 105.551 63.0549 105.668C62.0746 105.952 61.1815 105.925 60.8433 104.785C60.4324 103.404 60.7679 102.382 62.4947 102.501C64.3113 102.627 63.7921 101.135 63.7405 100.509C63.6666 99.5959 62.8725 100.169 62.3243 100.389C61.6425 100.663 60.5936 100.801 60.7481 99.8563C60.9172 98.8289 59.8709 98.7725 59.6608 98.0991C63.4314 97.74 63.5397 97.8773 64.9811 101.044C65.8161 102.879 65.4778 104.695 65.2744 106.518C65.1211 107.889 64.7089 109.221 63.2768 109.956C61.7218 110.754 61.5672 108.75 60.3848 108.697L60.3861 108.696Z" fill="#CFCFCF"/>
<path d="M153.615 86.0801C153.998 86.9509 153.43 87.5358 153.337 88.2001C152.715 92.6981 152.69 92.6955 147.989 92.6301C147.848 92.6275 147.706 92.6416 147.566 92.6468C146.717 92.6776 146.484 92.4146 146.745 91.5374C148.413 85.8954 147.19 87.0138 152.755 86.3533C153.02 86.3212 153.274 86.1929 153.616 86.0826L153.615 86.0801Z" fill="#660109"/>
<path d="M136.478 101.298C136.628 101.022 135.784 99.6909 137.487 99.596C139.33 99.4947 141.169 99.2933 143.014 99.2497C143.797 99.2318 144.989 98.7867 145.291 99.6794C145.579 100.53 145.081 101.558 144.452 102.352C143.954 102.981 143.328 103.33 142.471 103.373C141.126 103.442 139.782 103.577 138.448 103.748C136.873 103.949 135.871 103.634 136.479 101.298H136.478Z" fill="#808080"/>
<path d="M37.5301 98.3199C35.1666 97.5414 32.9444 96.6962 30.6548 96.0947C29.1501 95.6983 28.9162 94.9994 29.4024 93.7168C29.919 92.356 30.6918 91.852 32.1438 92.5715C32.6868 92.8408 33.3579 92.937 33.9789 92.9742C37.7204 93.1935 37.723 93.1794 37.6437 96.7847C37.6332 97.2502 37.5763 97.7145 37.5288 98.3199H37.5301Z" fill="#CFCFCF"/>
<path d="M96.7138 57.7402C107.732 58.1967 118.73 58.857 129.665 60.2892C118.62 60.2225 107.664 58.9775 96.7138 57.7402Z" fill="#CFCFCF"/>
<path d="M67.2456 91.6201C67.1346 91.5496 66.9417 91.4945 66.9219 91.4047C65.8558 86.395 62.9981 83.3182 57.477 83.0001C56.5324 82.9462 55.6935 82.4229 55.3434 81.5085C55.1227 80.9326 54.9985 80.3105 56.103 80.3105C62.3692 80.3105 67.3183 85.3048 67.2443 91.6214L67.2456 91.6201Z" fill="#CFCFCF"/>
<path d="M115.105 95.037C115.939 94.2341 116.931 94.2931 117.88 94.2816C126.753 94.1764 135.624 94.0751 144.481 93.4633C146.532 93.3209 148.607 93.5646 150.641 93.0991C151.102 92.9939 151.526 93.0683 151.561 93.6288C151.59 94.093 151.198 94.1482 150.833 94.1661C150.337 94.1892 149.839 94.2098 149.342 94.2136C140.532 94.2906 131.731 94.5484 122.933 95.0165C120.332 95.155 117.716 95.0383 115.107 95.0383L115.105 95.037Z" fill="#CFCFCF"/>
<path d="M23.1945 100.959C22.8867 100.396 21.6223 101.538 21.5245 100.205C21.4268 98.8604 23.1681 95.3013 23.7137 95.5668C24.9926 96.1876 27.1262 95.6335 27.4182 97.6253C27.6811 99.4171 25.6241 100.982 23.1945 100.959Z" fill="#333333"/>
<path d="M150.8 79.2268C150.8 76.4719 150.859 73.8798 150.778 71.2916C150.733 69.8462 151.342 69.0343 152.798 68.5508C152.994 70.7324 153.182 72.7653 153.354 74.8007C153.51 76.6527 153.468 78.4214 150.802 79.2268H150.8Z" fill="#660109"/>
<path d="M154.629 81.9191C154.543 84.2405 151.199 86.3721 149.076 85.4666C148.417 85.1858 148.614 84.6766 148.75 84.2456C149.294 82.5283 150.346 81.2047 152.09 80.4967C152.642 80.2723 153.127 79.4874 153.755 79.9298C154.369 80.3621 154.699 81.1047 154.628 81.9191H154.629Z" fill="#660109"/>
<path d="M10.4387 86.6563C10.4928 86.2151 10.5272 85.5264 10.6712 84.8595C10.8271 84.1412 11.5669 84.24 12.0663 84.1707C12.8101 84.0669 12.5419 84.7556 12.4468 84.998C11.6224 87.1193 11.7427 89.4036 11.1944 91.5711C11.0728 92.0495 11.1508 92.5651 10.4307 92.5394C9.80055 92.5176 10.0476 91.9418 9.85208 91.6776C9.03032 90.5669 8.70796 88.9149 6.81608 88.8598C6.31007 88.8444 5.58344 89.0419 5.5306 88.1903C5.5055 87.7953 5.47511 87.3104 6.05509 87.2361C6.69056 87.154 7.31678 87.1142 7.66689 87.853C8.09494 88.7572 9.01844 89.2702 9.87322 89.0445C10.946 88.7623 10.4545 87.6798 10.4374 86.6551L10.4387 86.6563Z" fill="#CFCFCF"/>
<path d="M32.1213 73.5273C35.5669 72.5821 39.031 72.5821 42.4739 73.0541C43.4185 73.1836 45.2827 72.273 45.1888 73.9006C45.1056 75.3319 43.4449 74.184 42.5228 74.2815C39.027 74.6509 35.6264 73.4453 32.12 73.5273H32.1213Z" fill="#999999"/>
<path d="M106.955 94.8594C101.21 95.4919 95.4958 95.4931 89.7831 94.8594H106.955Z" fill="#CFCFCF"/>
<path d="M40.4116 66.5801C40.4116 66.5916 40.4116 66.6032 40.4116 66.6147C41.7605 66.6147 43.1094 66.598 44.4569 66.6237C44.9273 66.6327 45.2695 66.8841 45.2628 67.3922C45.2562 67.9336 44.852 68.0734 44.3975 68.067C41.8424 68.0336 39.286 67.9913 36.7308 67.9387C36.3649 67.931 35.9355 67.804 35.9051 67.4294C35.8615 66.8931 36.3755 66.7879 36.7943 66.7597C37.9978 66.6763 39.2054 66.6378 40.4103 66.5801H40.4116Z" fill="#999999"/>
<path d="M45.3803 96.0938C45.4701 98.6063 47.5695 98.1984 48.8999 98.8C49.2064 98.9385 49.649 98.8808 49.6886 99.3207C49.7269 99.7439 49.3491 99.9235 49.0148 99.9684C46.6565 100.284 44.2547 101.177 41.7088 99.4489C43.8438 99.186 45.5204 98.6563 45.3803 96.0938Z" fill="#CFCFCF"/>
<path d="M11.7241 72.4638C11.7281 72.2817 11.7333 72.0982 11.7373 71.916C17.1104 72.1239 22.4822 72.3317 27.8553 72.5395C27.8448 72.8025 27.8342 73.0668 27.8223 73.3298C22.4558 73.0412 17.0906 72.7525 11.7241 72.4638Z" fill="#999999"/>
<path d="M54.2773 75.9226C54.2641 75.9226 54.2509 75.9226 54.2376 75.9226C54.2376 76.7435 54.231 77.5643 54.239 78.3851C54.2456 79.097 53.8756 79.3329 53.1754 79.2932C52.606 79.2598 52.2123 79.1123 52.2216 78.4813C52.2427 77.0487 52.178 75.6058 52.3352 74.1873C52.3973 73.623 52.4395 72.6688 53.4476 72.7124C54.5521 72.7598 54.2059 73.6653 54.2654 74.2822C54.3169 74.8248 54.276 75.3763 54.276 75.9239L54.2773 75.9226Z" fill="#CFCFCF"/>
<path d="M34.7121 75.7784C34.9776 75.3411 35.0199 75.1628 35.1124 75.1346C38.365 74.1316 41.5873 75.4822 44.8347 75.2757C45.1042 75.259 45.2905 75.5861 45.2324 75.8939C45.1584 76.2876 44.8532 76.5069 44.4767 76.4813C41.2769 76.2645 38.0784 76.0234 34.7121 75.7772V75.7784Z" fill="#999999"/>
<path d="M155.64 98.8301C155.303 99.8716 155.086 100.73 154.748 101.54C154.184 102.893 152.839 102.766 151.841 102.508C150.808 102.242 151.528 101.288 151.606 100.592C151.921 97.7874 154.008 99.1418 155.638 98.8301H155.64Z" fill="#808080"/>
<path d="M90.7991 101.61C93.0979 101.568 94.9793 101.471 96.78 101.515C99.7869 101.589 99.7605 102.992 99.3906 104.092C99.0061 105.232 96.8276 104.855 95.3201 105.032C89.2415 105.745 91.7662 103.142 90.7991 101.61Z" fill="#808080"/>
<path d="M57.6869 105.709C58.2299 107.484 59.4216 108.945 60.0703 110.638C60.8815 112.759 63.282 112.478 64.8278 113.656C61.0968 114.875 57.7464 111.183 57.6869 105.709Z" fill="#CFCFCF"/>
<path d="M131.491 60.8378L131.542 60.2658C136.696 60.2542 141.78 61.025 146.907 61.3021C146.886 61.5304 146.866 61.7599 146.845 61.9882C141.727 61.6047 136.609 61.2213 131.491 60.8378Z" fill="#CFCFCF"/>
<path d="M48.7864 94.3516C48.7864 94.9596 48.8142 95.4418 48.7785 95.9189C48.7415 96.4165 48.9106 97.263 48.0307 96.9963C47.3833 96.8 46.1203 97.0232 46.3383 95.6765C46.4044 95.2712 46.4665 94.8608 46.592 94.4709C46.8892 93.541 45.7042 91.7724 47.8074 91.8712C49.7429 91.9609 48.2368 93.6629 48.7864 94.3516Z" fill="#CFCFCF"/>
<path d="M34.4441 89.3121C34.711 89.3403 35.4627 89.0736 35.5103 90.075C35.5565 91.0764 34.8127 90.8045 34.234 90.9674C32.8191 91.3636 31.2786 91.0969 29.9218 91.8123C29.5915 91.9867 29.2044 92.7342 28.7354 92.0265C28.4381 91.579 28.1396 91.0212 28.3615 90.4712C28.5993 89.8852 29.3061 90.0006 29.647 90.1609C30.7845 90.6943 31.6538 90.4058 32.5152 89.6442C32.9552 89.2557 33.551 89.2454 34.4441 89.3134V89.3121Z" fill="#CFCFCF"/>
<path d="M16.3297 81.5976C15.101 81.8144 14.0507 81.9939 13.4139 82.9712C12.9925 83.6202 12.246 83.6215 11.7017 83.3752C10.913 83.0174 11.5788 82.389 11.7361 81.967C12.6054 79.6404 14.3704 79.4198 16.3297 81.5976Z" fill="#CFCFCF"/>
<path d="M63.6241 94.3309C59.1322 95.3198 58.8548 98.9469 57.6988 101.954C57.4464 97.8234 60.0319 92.8522 63.6241 94.3309Z" fill="#CFCFCF"/>
<path d="M92.2245 78.0516C92.0382 78.2285 91.9299 78.3991 91.8625 78.385C88.8159 77.7272 85.8486 76.6604 82.662 76.7297C82.3462 76.7361 82.0965 76.5668 82.1917 76.2399C82.3291 75.7642 82.8377 75.5859 83.1997 75.6988C86.1432 76.6245 89.3074 76.7861 92.2245 78.0503V78.0516Z" fill="#808080"/>
<path d="M15.5502 96.1881C13.5923 93.0048 13.8103 89.4008 16.0087 86.9473C15.0178 89.9895 14.6611 93.0548 15.5502 96.1881Z" fill="#CFCFCF"/>
<path d="M44.251 27.6484C44.6368 27.6895 45.049 27.792 45.2286 28.2305C45.4955 28.8806 45.0027 29.0755 44.5245 29.2345C43.2046 29.6756 41.8822 30.1064 40.5531 30.5218C40.3866 30.5731 40.1026 30.5667 40.0101 30.4667C39.9004 30.3487 39.8899 29.941 39.9229 29.9307C41.5096 29.4538 42.5176 27.9523 44.2523 27.6484H44.251Z" fill="#999999"/>
<path d="M44.9976 69.4599C41.9497 69.8332 38.9255 69.7511 35.9212 69.2008C38.9652 68.7455 41.9985 68.5506 44.9976 69.4599Z" fill="#999999"/>
<path d="M44.7041 8.50586C45.185 8.52382 45.2643 8.7675 45.3052 9.05351C45.3673 9.47547 45.4017 9.91154 44.9406 10.136C43.3724 10.9004 41.7976 11.6494 40.2122 12.3805C39.8951 12.5267 39.471 12.6113 39.3455 12.1406C39.2359 11.7264 39.5384 11.5737 39.9334 11.4852C41.6258 11.1018 42.8915 10.0449 44.1202 8.93423C44.321 8.75339 44.5588 8.61103 44.7015 8.50714L44.7041 8.50586Z" fill="#999999"/>
<path d="M49.1906 97.4311C49.1906 95.9151 49.1813 94.3991 49.1946 92.8831C49.2012 92.2175 49.6966 92.1405 50.2211 92.1867C50.5131 92.2123 51.1182 92.1444 50.8579 92.6343C50.0467 94.1593 51.0521 96.0523 49.1906 97.4311Z" fill="#CFCFCF"/>
<path d="M20.2432 81.2512C19.8587 81.8707 19.5958 82.4389 19.1981 82.8955C18.7859 83.3687 18.8996 84.1344 18.1967 84.4525C18.1491 84.2601 18.1121 84.0728 18.0553 83.8933C17.7673 82.9788 17.0275 81.9258 17.2759 81.1819C17.8109 79.5749 18.9735 81.954 19.8349 81.0781C19.8495 81.0627 19.9459 81.123 20.2432 81.2499V81.2512Z" fill="#CFCFCF"/>
<path d="M44.4542 17.3197C45.1716 17.1568 45.2918 17.6017 45.2733 17.9992C45.1927 19.7148 43.4884 19.3853 42.5174 19.9751C42.2135 20.1597 41.8185 20.0238 41.8621 19.5301C42.0048 17.9402 43.5756 17.9633 44.4529 17.3197H44.4542Z" fill="#999999"/>
<path d="M34.0991 92.0204C35.3278 91.7755 36.0888 91.1703 36.3094 89.9445C36.3768 89.5676 36.7903 89.247 37.2804 89.3406C37.7653 89.4342 37.6081 89.8663 37.6477 90.1741C37.9067 92.1807 36.9686 92.732 34.0991 92.0204Z" fill="#CFCFCF"/>
<path d="M9.53108 81.2064C9.72661 81.2115 9.92215 81.2153 10.1177 81.2205C9.98952 83.5906 9.86004 85.9608 9.73057 88.331C9.54825 88.3181 9.36593 88.3066 9.18494 88.2938C8.58381 85.8967 9.57467 83.5765 9.53108 81.2051V81.2064Z" fill="#CFCFCF"/>
<path d="M41.7529 33.756C42.0343 32.4029 43.3634 32.7684 44.2472 32.3849C44.7546 32.1643 45.1826 32.258 45.1351 32.7838C45.0175 34.092 43.8139 33.9612 42.9076 34.1869C42.4531 34.2998 41.9128 34.5807 41.7529 33.756Z" fill="#999999"/>
<path d="M117.97 31.4796C117.941 31.6528 117.912 31.8247 117.883 31.9979C115.542 31.6348 113.202 31.2718 110.861 30.9074L110.951 30.375C113.29 30.7432 115.63 31.1114 117.97 31.4796Z" fill="#CFCFCF"/>
<path d="M54.0538 84.3162C54.4977 84.4393 55.3248 83.975 55.2838 84.8907C55.2521 85.6077 54.7289 86.2002 53.96 86.2644C53.1832 86.3298 52.5807 85.9014 52.6058 85.0742C52.6349 84.1366 53.4646 84.4162 54.0525 84.3162H54.0538Z" fill="#CFCFCF"/>
<path d="M65.0367 112.483C64.5571 112.357 63.8278 112.705 63.7287 111.842C63.6191 110.891 64.4065 110.632 65.0525 110.563C65.766 110.486 66.5666 110.955 66.5468 111.665C66.5283 112.311 65.6999 112.448 65.0367 112.483Z" fill="#CFCFCF"/>
<path d="M44.3842 101.22C42.2307 101.265 40.3533 100.554 38.6583 99.3535C40.5673 99.9756 42.4751 100.598 44.3842 101.22Z" fill="#CFCFCF"/>
<path d="M68.9207 99.5442C68.6736 99.5814 68.4279 99.6186 68.1808 99.6558C67.9774 97.9295 67.7726 96.2045 67.5691 94.4781C67.7818 94.455 67.9945 94.4332 68.2072 94.4102C68.6313 96.0993 68.013 97.9141 68.9193 99.5442H68.9207Z" fill="#CFCFCF"/>
<path d="M51.6811 93.1504C52.2136 94.5432 51.7379 95.795 50.9915 97.2738C50.6837 95.6539 50.9809 94.3868 51.6811 93.1504Z" fill="#CFCFCF"/>
<path d="M88.6548 56.6332C87.763 56.7448 86.7471 57.5402 86.1301 56.2765C86.0112 56.034 85.9253 55.6774 86.2226 55.5478C87.3574 55.0539 87.9612 55.9186 88.6561 56.6345L88.6548 56.6332Z" fill="#CFCFCF"/>
<path d="M91.0541 100.928C93.0781 101.405 95.1087 101.073 97.1473 100.984C99.5174 100.882 100.716 102.382 100.083 104.552C99.8305 105.417 99.1435 105.513 98.4222 105.509C96.4378 105.5 94.4468 105.538 92.4717 105.394C90.5085 105.249 90.0606 103.869 90.2257 102.151C89.3353 104.424 89.9113 105.492 92.2035 105.981C94.3742 106.444 96.5818 106.258 98.771 106.217C99.9151 106.195 100.969 105.601 100.788 104.321C100.593 102.93 101.014 100.878 99.014 100.575C96.4048 100.181 93.7123 100.358 91.0541 100.928Z" fill="#606060"/>
<path d="M26.5328 43.9379C27.8645 43.8519 27.9504 43.9443 28.2345 44.878L29.8331 50.0095C30.1752 51.1356 30.0035 51.2254 28.4604 51.328L28.6044 51.7987L34.4928 51.8577L34.2853 51.3433C32.5771 51.2433 32.4252 51.1099 32.0275 49.9518L31.1133 47.2622L37.0532 46.916L38.3162 49.8607C38.8486 51.1176 38.6557 51.251 36.6859 51.3498L36.9342 51.882L44.515 51.959L44.2098 51.3703C42.0603 51.251 41.7538 51.1151 41.158 49.8107L38.336 43.8827C37.8155 42.8054 37.9423 42.7028 39.8144 42.3924L39.5766 41.9512L33.4094 42.7066L33.5931 43.1157C35.2498 43.008 35.3991 43.1029 35.8456 44.1277L36.7466 46.2772L30.8992 46.6723L30.2307 44.6817C29.9018 43.7224 29.9784 43.6159 31.5004 43.3607L31.3061 42.9657L26.3941 43.5672L26.5315 43.9379H26.5328Z" fill="black"/>
<path d="M18.4448 51.6982L22.2206 51.7366L22.1202 51.3211C21.1029 51.2262 21.0501 51.0825 21.1518 50.5195C21.239 50.0732 21.3526 49.5678 21.4715 49.0086L24.3635 48.8996C24.6463 49.3177 25.0822 49.8923 25.3927 50.3989C25.7996 51.0505 25.6926 51.2146 24.3596 51.3275L24.4732 51.7597L28.578 51.8008L28.4102 51.339C27.1459 51.2069 26.9517 51.1159 26.0176 49.8936L21.6895 44.1016L21.1267 44.1041C20.4529 47.0373 20.0183 48.7329 19.6668 50.1809C19.4528 51.0889 19.3564 51.2134 18.3536 51.3095L18.4435 51.6982H18.4448ZM22.1665 45.7035L22.1942 45.7009C22.7782 46.5692 23.4334 47.4862 24.0068 48.3379L21.5852 48.452L22.1665 45.7035Z" fill="black"/>
<path d="M11.7228 51.7101H11.8682C13.1153 51.705 13.4615 51.3728 13.8961 50.6867C14.1855 50.2185 14.4854 49.6157 14.7417 49.1219C14.9372 48.75 15.068 48.6128 15.4221 48.5948L15.7986 48.5756L15.9651 50.2275C16.0536 51.1304 15.9347 51.2048 15.0033 51.2997L15.0495 51.664L18.5809 51.6999L18.5202 51.31C17.5888 51.2253 17.4104 51.1368 17.3021 50.2147L16.763 45.9784C16.6547 45.1896 16.7815 45.1332 17.6826 44.969L17.6178 44.6445L14.7985 44.9895C13.447 45.155 12.6463 45.7706 12.5195 46.7287C12.3927 47.6868 13.0585 48.2216 13.8658 48.4306C13.6227 48.9206 13.3598 49.4003 13.1299 49.7979C12.3755 51.0702 12.1165 51.2613 11.6779 51.3959L11.7255 51.7089L11.7228 51.7101ZM15.3666 48.1921C14.1987 48.2601 13.5883 47.7214 13.7165 46.6633C13.7944 46.0117 14.2106 45.4282 14.9346 45.3448C15.2794 45.3051 15.4392 45.3192 15.4881 45.7924L15.7444 48.1703L15.3666 48.1921Z" fill="black"/>
<path d="M6.43944 51.5787L8.68672 51.6018L8.6735 51.2837C8.08294 51.2119 8.06842 51.1003 8.18997 50.6668C8.29169 50.3218 8.41455 49.9306 8.54667 49.4971L10.2549 49.433C10.3712 49.7562 10.5561 50.1974 10.6764 50.5834C10.8349 51.0772 10.7543 51.2016 9.97616 51.2876L9.99332 51.6146L12.3159 51.6377L12.2763 51.2927C11.5814 51.1939 11.4823 51.1259 11.0912 50.1999L9.22707 45.6392L8.89017 45.6289C8.15561 47.9439 7.70774 49.2714 7.33914 50.3987C7.1119 51.1041 7.04057 51.2003 6.42491 51.276L6.43812 51.5774L6.43944 51.5787ZM9.33012 46.9192H9.3473C9.59303 47.6092 9.87442 48.3325 10.1122 48.9969L8.67614 49.0649L9.33012 46.9192Z" fill="black"/>
<path d="M26.1909 43.8773C27.5226 43.7914 27.6085 43.8837 27.8925 44.8174L29.4911 49.9489C29.8333 51.075 29.6616 51.1648 28.1185 51.2674L28.2625 51.7381L34.1508 51.7971L33.9434 51.2828C32.2352 51.1828 32.0832 51.0494 31.6856 49.8912L30.7713 47.2017L36.7112 46.8554L37.9742 49.8002C38.5067 51.0571 38.3138 51.1905 36.344 51.2892L36.5923 51.8215L44.1731 51.8984L43.8679 51.3097C41.7184 51.1905 41.4119 51.0545 40.816 49.7501L37.9941 43.8222C37.4735 42.7448 37.6004 42.6422 39.4724 42.3318L39.2346 41.8906L33.0675 42.6461L33.2511 43.0552C34.9079 42.9475 35.0572 43.0424 35.5037 44.0671L36.4047 46.2167L30.5573 46.6117L29.8888 44.6212C29.5598 43.6618 29.6365 43.5554 31.1584 43.3002L30.9642 42.9051L26.0522 43.5066L26.1896 43.8773H26.1909Z" fill="#D80505"/>
<path d="M18.1028 51.6337L21.8787 51.6722L21.7783 51.2566C20.761 51.1617 20.7082 51.0181 20.8099 50.455C20.8971 50.0087 21.0107 49.5034 21.1296 48.9442L24.0216 48.8352C24.3043 49.2533 24.7403 49.8279 25.0508 50.3345C25.4577 50.986 25.3507 51.1502 24.0176 51.263L24.1313 51.6953L28.2361 51.7363L28.0683 51.2746C26.804 51.1425 26.6097 51.0514 25.6757 49.8291L21.3476 44.0371L20.7848 44.0397C20.111 46.9729 19.6763 48.6684 19.3249 50.1164C19.1109 51.0245 19.0144 51.1489 18.0117 51.2451L18.1015 51.6337H18.1028ZM21.8245 45.639L21.8523 45.6365C22.4362 46.5048 23.0915 47.4218 23.6649 48.2734L21.2432 48.3875L21.8245 45.639Z" fill="#D80505"/>
<path d="M11.3793 51.6496H11.5247C12.7718 51.6445 13.118 51.3123 13.5526 50.6261C13.842 50.158 14.1419 49.5552 14.3982 49.0614C14.5937 48.6895 14.7245 48.5522 15.0786 48.5343L15.4551 48.515L15.6216 50.167C15.7101 51.0699 15.5912 51.1443 14.6598 51.2392L14.706 51.6034L18.2374 51.6393L18.1767 51.2494C17.2452 51.1648 17.0669 51.0763 16.9586 50.1541L16.4195 45.9178C16.3112 45.1291 16.438 45.0726 17.3391 44.9085L17.2743 44.584L14.455 44.929C13.1034 45.0944 12.3028 45.7101 12.176 46.6681C12.0492 47.6262 12.715 48.161 13.5222 48.3701C13.2792 48.86 13.0162 49.3397 12.7864 49.7373C12.032 51.0096 11.773 51.2007 11.3344 51.3354L11.382 51.6483L11.3793 51.6496ZM15.0231 48.1315C13.8552 48.1995 13.2448 47.6608 13.373 46.6027C13.4509 45.9512 13.8671 45.3676 14.5911 45.2843C14.9359 45.2445 15.0957 45.2586 15.1446 45.7319L15.4009 48.1097L15.0231 48.1315Z" fill="#D80505"/>
<path d="M6.09604 51.5142L8.34332 51.5373L8.33011 51.2193C7.73956 51.1474 7.72502 51.0358 7.84657 50.6023C7.94829 50.2573 8.07117 49.8662 8.20329 49.4326L9.91153 49.3685C10.0278 49.6917 10.2128 50.1329 10.333 50.519C10.4915 51.0128 10.4109 51.1372 9.63276 51.2231L9.64994 51.5502L11.9725 51.5732L11.9329 51.2282C11.238 51.1295 11.1389 51.0615 10.7478 50.1355L8.88368 45.5747L8.54678 45.5645C7.81222 47.8795 7.36435 49.2069 6.99575 50.3343C6.76851 51.0397 6.69717 51.1359 6.08151 51.2116L6.09473 51.513L6.09604 51.5142ZM8.98672 46.8547H9.0039C9.24963 47.5447 9.53104 48.2681 9.76885 48.9325L8.33276 49.0004L8.98672 46.8547Z" fill="#D80505"/>
</svg>
