<svg width="162" height="121" viewBox="0 0 162 121" fill="none" xmlns="http://www.w3.org/2000/svg">
<path d="M5.67185 58.778C5.46972 59.4167 4.93201 59.5603 4.3441 59.6014C3.82092 59.6373 3.32813 59.6604 3.37966 60.3747C3.42986 61.0737 3.84867 61.2238 4.50396 61.3123C6.42887 61.5726 8.28905 60.916 10.1994 61.0199C10.8772 61.0571 10.8917 60.3696 11.0146 59.9682C13.4283 52.0702 17.3125 44.807 21.2509 37.5696C22.687 34.9313 25.3966 34.0246 28.0614 33.0845C33.1426 31.2914 38.4721 30.6001 43.7712 29.828C47.839 29.2355 47.8602 29.3522 47.8694 25.3955C47.876 22.4264 47.9659 19.4534 47.8443 16.4881C47.7717 14.708 48.7136 13.9872 50.2567 13.6537C62.5038 11.0103 74.7549 8.39007 86.998 5.73261C95.3926 3.91009 103.785 2.07219 112.158 0.162457C113.59 -0.164595 114.758 -0.00812302 115.987 0.7255C130.071 9.15063 144.172 17.5514 158.267 25.9598C160.737 27.4322 162.053 29.1983 161.998 32.3932C161.751 46.8219 161.886 61.2571 161.835 75.6898C161.824 78.623 161.002 81.5408 161.762 84.4945C162.013 85.4718 161.207 85.8617 160.389 85.972C159.13 86.1401 157.855 86.1939 156.572 86.2978C157.761 88.9014 157.542 89.3311 154.733 89.8774C154.312 89.9595 154.02 90.0185 153.744 90.4559C152.993 91.6435 153.23 93.6469 151.02 93.7251C150.917 93.729 150.807 94.3292 150.753 94.6601C150.621 95.4784 150.498 96.2992 150.408 97.1226C149.898 101.773 147.612 103.165 142.279 101.985C141.363 101.782 140.573 101.685 139.635 101.844C137.096 102.275 135.014 101.331 134.138 98.999C133.483 97.2521 132.596 97.4766 131.287 97.9434C126.975 99.4787 122.709 101.143 118.285 102.376C117.024 102.727 115.827 102.847 114.539 102.462C113.122 102.04 112.154 102.375 112.32 104.109C112.38 104.723 112.301 105.35 112.278 105.971C112.212 107.829 111.729 109.191 109.31 108.557C108.193 108.263 107.625 108.868 107.395 109.911C107.068 111.394 106.563 112.821 105.937 114.218C103.844 118.891 99.973 120.896 94.9566 120.964C87.1023 121.071 82.8601 117.968 80.7899 110.627C80.4318 109.357 79.8505 109.372 78.8187 109.512C74.6954 110.069 70.6144 111.082 66.3933 110.637C62.7324 110.251 59.0635 109.926 55.4106 109.481C53.7116 109.274 52.4538 109.363 51.2423 110.938C46.4373 117.183 32.5295 115.943 29.5067 108.853C29.0602 107.805 28.2966 107.772 27.3255 107.692C21.7503 107.233 16.175 106.756 10.613 106.171C6.50286 105.739 7.0736 105.494 6.08405 101.46C5.80793 100.337 5.91363 99.126 5.83039 97.9563C5.69299 96.026 6.27298 94.5729 8.45684 94.1586C9.47016 93.9662 9.59964 93.761 8.99851 92.7209C7.74342 90.5508 7.96802 87.9497 7.35368 85.5667C6.79219 83.3877 6.28883 81.1381 7.88743 79.0501C8.30887 78.4998 8.11995 77.7124 8.04068 77.0211C7.77249 74.6714 7.88346 72.2782 8.45288 70.0427C9.06061 67.6533 7.2361 65.7628 7.60602 63.4978C7.70379 62.9027 6.88335 63.0296 6.4117 62.9899C2.22893 62.6346 2.45089 62.573 1.31073 58.6779C0.75453 56.7759 -0.184809 55.0239 0.0318601 52.9577C0.183793 51.511 0.470482 50.113 1.11388 48.8009C1.60403 47.7992 2.50373 47.5479 3.58444 47.5389C4.69024 47.5286 5.03902 48.2533 5.34817 49.0408C6.42755 51.7893 6.71028 54.6379 6.44341 57.5518C6.39188 58.12 6.22938 58.6356 5.59655 58.8562C6.31658 56.3385 6.08141 53.808 5.39441 51.3622C5.04827 50.1271 5.32571 48.016 3.23169 48.1237C1.0901 48.234 1.35962 50.3169 0.876076 51.7585C-0.272005 55.1804 2.48392 57.9776 2.38747 61.2174H2.77721C2.63453 59.6732 3.38714 58.8609 5.03506 58.7805C5.24644 58.7703 5.45783 58.7831 5.66921 58.7844L5.67185 58.778Z" fill="#606060"/>
<path d="M95.8906 95.5718C95.9883 96.2836 95.2644 96.5606 95.0239 97.1121C94.0595 99.3348 94.2735 100.497 95.9355 101.483C96.9092 99.7709 98.414 98.0715 96.0676 96.2644C95.9104 96.1425 95.9421 95.7885 95.8919 95.5551C96.1997 95.913 96.5049 96.2721 96.8154 96.6273C97.4073 97.3058 98.1894 97.1968 98.9398 97.0467C99.1327 97.0083 99.4313 96.6466 99.3969 96.4927C99.2318 95.7616 98.5117 95.5205 97.9555 95.1409C97.11 94.5637 96.5881 95.4641 95.8919 95.5705L95.8906 95.5718Z" fill="#CFCFCF"/>
<path d="M94.8445 105.919C94.8696 104.721 95.8195 103.586 95.1734 102.359C94.8471 101.738 94.4389 100.771 93.5127 101.71C92.4043 102.83 93.3238 105.402 94.9198 105.848C93.0186 106.79 92.938 108.535 94.9488 111.324C94.53 109.587 97.8303 110.953 96.7073 108.91C96.1564 107.908 96.6359 106.2 94.8471 105.92L94.8445 105.919Z" fill="#CFCFCF"/>
<path d="M148.63 86.839C149.449 88.2691 149.569 89.871 149.799 91.4473C150.213 88.609 149.643 85.963 148.088 83.5544C147.177 82.1423 145.422 81.8037 145.031 82.9182C144.442 84.601 144.046 86.3799 144.788 88.5897C145.453 86.9301 145.209 85.1319 147.037 84.7382C148.022 84.5253 148.166 85.6001 148.63 86.1554C147.99 86.1913 147.636 85.3731 146.828 85.618C148.648 89.4914 148.618 93.4557 147.618 97.5112C148.201 96.8225 148.523 96.0542 148.761 95.1936C149.539 92.3861 148.829 89.6209 148.631 86.839H148.63Z" fill="#333333"/>
<path d="M34.0845 67.4529C34.5509 65.8908 33.2601 66.5025 32.7131 66.5205C29.0972 66.6385 25.4812 66.8193 21.8691 67.022C19.7645 67.14 17.6639 67.3375 15.5606 67.5004C17.3059 68.2763 19.0234 68.0288 20.7594 67.9672C25.2169 67.8095 29.6441 66.9527 34.1268 67.4067C34.428 68.1134 35.0397 68.2763 35.6818 68.0519C36.8708 67.635 35.3026 66.5231 36.1785 65.9921C37.0914 67.0951 55.8399 66.5102 58.4373 64.9955C51.7021 65.3764 45.5059 65.7253 39.3097 66.0754C39.2951 65.8856 39.2806 65.6958 39.2674 65.506C40.2926 65.4175 41.3165 65.3033 42.3443 65.2443C47.7241 64.9365 53.1025 64.6274 58.4835 64.3607C59.2022 64.3248 60.0517 63.7091 60.6529 64.5402C61.2077 65.3085 60.0002 65.7689 60.0834 66.5859C63.1551 66.3768 66.2136 66.7026 69.276 65.1148C67.0618 64.1631 66.9481 62.5292 67.1318 60.8118C67.2837 59.3997 66.8134 58.8187 65.2399 58.9393C60.4375 59.3074 55.614 59.4433 50.8209 59.8871C42.0114 60.7041 33.1901 61.3377 24.3635 61.9238C21.7529 62.0969 19.1423 62.6779 16.5502 62.583C14.3597 62.5035 11.8654 64.008 9.89951 61.616C9.45296 61.0722 8.20975 61.1709 8.26524 62.5407C8.29299 63.2282 8.22165 63.922 8.27185 64.6069C8.48323 67.5106 11.5615 69.8616 14.3016 69.2228C14.6675 69.1369 15.377 69.1459 15.1735 68.6149C14.0294 65.6201 16.8461 66.6872 17.6917 66.6128C22.9195 66.1575 28.1737 65.978 33.42 65.7215C33.8824 65.6984 34.4901 65.4508 34.7319 66.0562C34.9789 66.6744 34.4769 67.0681 34.0805 67.4542L34.0845 67.4529Z" fill="#FFE7AB"/>
<path d="M96.1007 57.8675C96.5961 56.7542 97.7521 56.4579 98.7139 55.9911C102.367 54.2173 103.467 51.3662 102.845 47.5903C102.478 45.3638 102.351 43.0975 102.171 40.8441C101.955 38.1199 101.561 37.1336 100.249 36.3205C101.936 41.2853 101.696 46.454 101.793 51.5842C101.815 52.7142 100.998 53.4914 100.083 54.0608C95.7809 56.7363 91.4079 59.3078 86.8169 61.4869C84.0042 62.822 82.6302 61.9204 82.5126 58.864C82.4624 57.5571 82.4188 56.2643 81.6341 55.0933C81.8679 57.0518 81.4095 59.0025 81.9313 60.9469C82.5747 63.3466 83.411 63.875 85.8287 62.8746C87.5185 62.1756 89.0616 61.147 90.7421 60.4211C92.589 59.622 94.0198 58.0214 96.1588 57.8098C92.7674 60.1748 89.2478 62.3398 85.258 63.6185C82.8271 64.3983 81.6142 63.5941 81.2522 61.1534C81.0501 59.7952 80.9735 58.4215 80.803 57.0582C80.7317 56.4913 81.0435 55.5063 80.3076 55.4845C79.2467 55.4537 79.651 56.4746 79.6774 57.08C79.8941 62.0358 80.1808 66.989 80.3671 71.9448C80.4622 74.4856 80.6392 74.6959 83.1296 74.2663C90.1185 73.0568 97.1919 72.6208 104.264 72.3604C106.198 72.2886 106.721 71.5575 106.793 70.0261C106.824 69.3425 106.717 68.6512 106.646 67.9663C106.178 63.4581 105.812 58.9423 105.17 54.4482C104.442 49.3539 104.057 44.2134 103.374 39.1126C103.121 37.226 102.792 35.0931 100.589 34.3171C95.6224 32.5677 90.5743 31.0402 85.3042 30.4182C82.8363 30.127 82.1585 30.6875 81.6288 33.0423C80.8268 36.6078 80.9722 40.2759 80.4358 43.8696C79.9641 47.035 79.7818 50.2093 79.7474 53.4657C80.6445 53.231 80.7621 52.6513 80.7462 52.1178C80.667 49.6322 81.0171 47.1748 81.1598 44.7046C81.3672 41.1173 82.0766 37.6261 83.0133 34.1761C83.4546 32.5498 84.7044 31.8187 86.443 32.1573C90.5862 32.9666 94.7187 33.831 98.8592 34.6493C100.742 35.0213 101.881 36.0896 102.228 37.9134C103.079 42.3844 103.627 46.8862 103.432 51.4419C103.374 52.8091 102.774 54.0262 101.601 54.8099C99.8567 55.9744 98.1603 57.2454 96.0954 57.8726L96.1007 57.8675Z" fill="#660109"/>
<path d="M77.9375 30.2063C78.1872 28.9789 77.1699 28.5569 75.3731 28.6865C68.3895 29.1867 61.4971 30.3731 54.5584 31.19C44.7515 32.3456 35.1111 34.3144 25.4667 36.2946C23.6104 36.6755 21.9683 37.6708 21.0487 39.2932C17.3138 45.8779 14.0281 52.6665 11.6686 59.8475C11.436 60.5542 11.2775 61.0108 12.4124 60.912C17.4301 60.4734 22.4558 60.1284 27.4761 59.7116C35.0331 59.0857 42.5835 58.4034 50.1418 57.7916C56.0724 57.3106 62.0097 56.8989 67.9443 56.4564C68.9299 56.3833 69.7001 56.0229 70.1031 55.0623C70.6025 53.8708 71.485 53.1346 72.8788 53.2039C74.2713 53.2718 74.6954 52.5254 74.8592 51.3198C75.1618 49.0779 75.6294 46.8578 75.9518 44.6184C76.6071 40.0641 77.2122 35.502 77.9388 30.2076L77.9375 30.2063Z" fill="#CFCFCF"/>
<path d="M46.8471 80.5599C51.6085 80.5599 56.3699 80.5599 61.1327 80.5599C62.4472 80.5599 63.9177 80.5227 64.0881 78.9105C64.4765 75.2283 64.8332 71.5435 65.5215 67.9036C65.684 67.0481 65.3657 66.8211 64.7077 66.9814C62.5371 67.5111 60.3281 67.2777 58.139 67.4034C49.0098 67.9292 39.882 68.4576 30.7502 68.9501C24.945 69.2631 19.1372 69.5273 13.3281 69.7761C12.4707 69.8133 12.0757 70.0442 11.9687 70.9355C11.6556 73.5468 11.4904 76.1402 11.8432 78.7694C12.1074 80.7291 13.1405 81.4705 15.117 81.3833C25.6888 80.9164 36.2607 80.4265 46.8484 80.5624L46.8471 80.5599Z" fill="#660109"/>
<path d="M45.6974 105.364C45.6934 105.408 45.6908 105.453 45.6868 105.497C44.1265 105.398 42.5425 105.426 41.0113 105.166C39.4483 104.899 39.9768 106.076 39.6716 106.688C39.0771 107.877 40.2397 107.547 40.6585 107.641C41.4776 107.827 42.3417 107.831 43.1898 107.886C48.0728 108.209 52.9677 108.407 57.8348 108.874C64.0191 109.467 70.1678 110.481 76.3877 109.14C77.8503 108.825 78.7605 108.328 79.1291 106.802C79.7316 104.304 79.9839 101.801 79.9496 99.2441C79.898 95.54 79.9377 95.5413 76.1235 95.8876C75.8408 95.9133 75.5541 95.8876 75.27 95.903C65.0311 96.484 54.7975 95.962 44.5665 95.7004C33.9101 95.4272 23.2471 95.313 12.6012 94.6884C11.1836 94.6051 9.7449 94.5614 8.33787 94.7051C7.16205 94.8257 6.4909 95.5824 6.48562 96.8406C6.48033 98.1731 7.4963 97.8999 8.28238 98.0295C8.63249 98.0872 8.98127 98.1565 9.32741 98.2373C10.568 98.5258 11.8548 100.663 11.4769 102.186C11.0938 103.729 9.90079 103.391 8.73422 103.021C8.33523 102.896 7.64294 102.624 7.42495 103.214C7.20432 103.813 7.39193 104.479 8.08421 104.792C8.59417 105.023 9.13849 105.268 9.68677 105.321C14.5579 105.792 19.4316 106.226 24.3066 106.656C25.0346 106.72 25.7361 106.747 25.7189 105.662C25.7044 104.74 25.4151 104.205 24.4004 104.193C23.1202 104.179 21.8361 104.205 20.5612 104.119C17.7973 103.933 16.6083 102.892 16.0111 100.348C15.6808 98.9427 16.3454 98.2437 17.6612 98.4861C19.7804 98.8773 21.9378 98.5592 24.0292 98.9811C25.2605 99.23 25.8141 98.8747 25.6819 97.6434C25.5261 96.1877 26.4125 95.7747 27.6452 95.9312C31.0458 96.3634 34.4623 96.2454 37.8735 96.2865C39.2396 96.3032 40.1208 96.8046 40.0732 98.1872C40.0283 99.4826 40.7404 99.6147 41.804 99.6455C45.0685 99.7391 48.3291 99.929 51.5937 100.035C52.7312 100.073 53.5411 100.474 53.804 101.581C54.3628 103.927 52.6678 105.849 50.1589 105.715C48.67 105.635 47.185 105.484 45.6974 105.366V105.364Z" fill="#FFE7AB"/>
<path d="M112.44 44.4774C112.463 44.4774 112.487 44.4774 112.51 44.4774C112.51 38.0569 112.516 31.6377 112.508 25.2172C112.5 19.1404 112.462 13.065 112.475 6.9882C112.478 5.78388 112.318 4.85916 110.741 5.19134C107.92 5.78516 105.106 6.40977 102.288 7.01385C101.327 7.22035 100.75 7.57305 100.758 8.73761C100.802 15.2274 100.754 21.7171 100.729 28.2069C100.726 28.9251 100.77 29.5946 101.563 29.9498C103.999 31.0452 104.922 33.1665 105.575 35.4918C108.154 44.6787 108.668 54.1556 109.875 63.5413C110.394 67.5788 109.764 71.6253 110.541 75.6589C110.866 77.3429 111.829 80.0581 108.224 80.2813C107.608 80.3198 106.36 83.303 106.737 83.4479C108.373 84.0738 110.138 84.1059 111.758 83.6814C112.967 83.3633 112.407 81.9935 112.409 81.1162C112.453 68.9037 112.438 56.6899 112.438 44.4774H112.44Z" fill="#999999"/>
<path d="M138.277 68.7554C138.278 68.9542 138.28 69.153 138.282 69.3505C145.222 69.28 152.158 69.5968 159.101 69.1735C160.305 69.1004 160.182 68.3001 160.184 67.5549C160.196 64.6551 160.191 61.7539 160.188 58.8541C160.184 51.9488 160.112 45.0409 160.215 38.1369C160.246 35.9745 158.673 35.6244 157.253 34.8882C156.043 34.261 154.986 34.152 154.111 35.3243C153.347 36.3477 152.449 35.7 151.865 35.3307C150.448 34.4354 149.269 34.5265 148.093 35.709C149.671 36.9941 151.913 37.1904 153.491 38.573C151.968 38.269 150.51 37.7547 149.003 37.4777C148.323 37.352 147.194 37.1493 146.921 38.0048C146.639 38.8923 147.696 39.1822 148.36 39.4592C149.598 39.9748 150.895 40.3544 152.149 40.8354C153.112 41.2048 154.239 41.274 154.958 42.3039C152.996 40.9059 151.086 42.168 149.173 42.2372C148.507 42.2616 147.595 42.1808 147.396 43.0222C147.172 43.961 148.015 44.2791 148.729 44.6241C149.646 45.0678 150.894 44.8729 151.824 46.1439C150.455 45.7989 149.611 46.1478 148.767 46.8506C150.755 48.6949 153.62 48.3768 155.826 49.6928C153.493 49.258 151.777 51.1677 149.574 51.092C149.4 51.0856 149.071 51.4434 149.055 51.6487C149.006 52.2579 149.54 52.1322 149.942 52.2258C152.448 52.8081 154.947 53.425 157.563 54.0586C156.492 55.0487 155.452 53.5751 154.63 54.1868C154.42 55.0269 155.558 54.5793 155.361 55.3963C153.717 55.2873 151.993 55.4066 150.417 54.9936C149.173 54.6678 149.202 55.6207 148.993 56.0068C148.586 56.7571 149.426 56.7738 149.934 56.9071C150.42 57.0354 151.132 56.716 151.276 57.542C148.084 57.7152 145.263 58.6694 142.844 60.397C145.59 60.7535 148.322 61.1075 151.054 61.4628C147.09 61.6244 143.177 61.2512 139.259 61.7013C140.548 62.5966 142.127 61.9271 143.448 62.8351C140.061 62.6299 136.776 63.252 133.442 63.6393C137.955 63.5136 142.398 64.0484 146.846 64.7025C143.778 64.8821 140.675 64.6525 137.667 65.3605C141.417 66.3724 145.266 65.6568 149.03 66.2249C145.222 66.8893 141.309 65.9838 137.126 67.0932C140.033 67.7922 142.605 67.5806 145.148 68.0244C142.858 68.2693 140.567 68.513 138.274 68.758L138.277 68.7554Z" fill="#999999"/>
<path d="M82.4467 47.352C82.7954 46.3759 83.0478 45.6859 83.2869 44.9908C83.5326 44.2751 83.6859 43.5197 84.0162 42.8438C85.0176 40.7917 86.6809 40.5159 88.1342 42.3077C90.0406 44.6586 90.6391 47.4148 89.5795 50.2582C88.9097 52.0564 87.3785 53.2158 85.3043 53.0363C83.4653 52.8772 82.9328 53.7468 82.913 55.2397C82.8945 56.6172 83.028 57.9805 83.2697 59.3477C83.6872 61.7051 84.3095 62.0783 86.4815 61.0202C90.9205 58.8578 95.1231 56.294 99.3957 53.8468C100.606 53.153 101.286 52.082 101.192 50.7725C100.906 46.7235 101.071 42.636 100.322 38.6306C100.046 37.1556 99.3891 35.5024 97.7244 35.1035C94.0424 34.2211 90.289 33.6196 86.5686 32.8886C84.5777 32.4987 83.7414 33.5003 83.3318 35.2267C82.6937 37.9111 82.3753 40.6352 82.0384 43.3632C81.8799 44.6419 81.3395 45.9181 82.448 47.3507L82.4467 47.352Z" fill="#CFCFCF"/>
<path d="M106.883 73.6365C106.449 73.1183 106.404 73.0183 106.362 73.0195C98.5355 73.2017 90.7526 73.9417 82.979 74.792C81.4966 74.9536 80.1041 75.2422 80.7555 77.2879C80.9153 77.7919 80.7819 78.3845 80.7819 78.936C80.7832 83.0068 80.766 87.0777 80.8017 91.1485C80.8096 91.9847 80.622 93.1313 82.1519 92.903C85.3557 92.4246 88.5423 91.7834 91.7633 91.4858C93.4147 91.3332 93.9141 90.6137 94.4505 89.2465C96.1574 84.8922 97.5922 80.1621 103.697 79.8312C104.405 79.7927 105.129 79.8235 105.815 79.6799C107.957 79.2297 107.045 77.5393 107.188 76.299C107.313 75.1986 106.82 74.6381 105.601 74.6753C101.5 74.801 97.4073 74.8741 93.3289 75.5C91.9971 75.7039 90.4791 76.1618 89.088 75.4782C94.8905 74.4393 100.722 73.8763 106.885 73.6365H106.883Z" fill="#660109"/>
<path d="M54.3746 86.0469C53.5185 86.5561 52.7245 86.3471 51.9741 86.3483C42.6573 86.3714 33.3406 86.3714 24.0251 86.3817C23.1003 86.3817 22.1729 86.4599 21.2534 86.4009C19.6693 86.2996 19.4817 87.0717 19.7856 88.3312C20.285 90.4089 21.8333 90.9809 23.7503 91.0156C31.1448 91.1477 38.5393 91.3106 45.9338 91.3529C48.7637 91.3683 51.875 92.3148 54.1632 89.0045C54.0734 90.8835 52.6466 90.9386 51.912 91.9724C53.8898 91.871 54.9493 90.9591 55.4632 89.4213C56.1397 87.4 56.3194 85.2389 56.9535 83.2356C57.5546 81.3374 57.1464 80.9642 55.2704 81.0257C42.9784 81.4233 30.6718 81.2232 18.3851 81.8466C17.9412 81.8696 17.2886 81.5965 17.1802 82.3147C17.0772 83.0098 17.1802 83.8563 17.7127 84.2308C18.2174 84.5848 18.8449 83.8371 19.5729 83.8358C30.8793 83.8204 42.1883 83.9602 53.4908 83.4998C54.0179 83.478 54.808 83.1407 55.0933 84.2706C42.9533 84.4771 30.8713 84.0372 18.5595 84.7246C19.4236 86.1431 20.5505 85.9328 21.5585 85.9213C31.7975 85.802 42.0364 85.6558 52.2753 85.5455C52.92 85.539 53.6797 85.2171 54.3773 86.0482L54.3746 86.0469Z" fill="#808080"/>
<path d="M27.6489 34.002C27.8484 34.002 28.0585 34.043 28.2448 33.9956C34.2494 32.4809 40.3584 31.4407 46.4582 30.4057C52.9305 29.3078 59.449 28.4575 65.9597 27.5828C69.3312 27.13 72.72 26.7337 76.1154 26.5452C79.1646 26.3759 80.018 27.3647 79.9216 30.3377C79.9031 30.8892 79.8899 31.4433 79.8212 31.9896C78.9875 38.5281 78.1552 45.0653 77.2899 51.6C77.1789 52.4388 76.7918 53.3481 78.1288 53.4533C79.5081 53.561 78.9875 52.4631 79.0509 51.8283C79.6508 45.8028 80.1554 39.7684 80.8147 33.7493C81.1939 30.2838 82.7673 29.3232 86.2605 29.9016C90.7986 30.6532 95.2139 31.8229 99.5764 33.2222C102.322 34.1033 103.572 35.6437 103.853 38.4563C104.12 41.1215 104.36 43.7943 104.775 46.4389C105.67 52.1412 106.206 57.8806 106.862 63.6086C107.131 65.9454 107.302 68.2681 107.279 70.6139C107.271 71.4283 107.452 72.2209 108.486 72.2299C109.539 72.2389 109.316 71.3244 109.476 70.6947C109.699 69.8097 109.651 68.9478 109.552 68.0385C109.036 63.329 108.563 58.6143 108.16 53.8932C107.635 47.7356 106.606 41.6589 105.041 35.6796C104.381 33.1593 103.129 31.0393 100.329 29.9632C97.3555 28.8204 94.3116 27.9945 91.2214 27.2762C86.6925 26.2245 82.2111 24.7419 77.4722 25.1074C71.1967 25.591 65.0203 26.8068 58.8162 27.7918C52.4311 28.8051 46.0393 29.7913 39.6674 30.8789C35.5943 31.5741 31.5159 32.291 27.6502 34.002H27.6489Z" fill="#FFE7AB"/>
<path d="M99.9822 18.732H99.9993C99.9993 15.6333 99.9755 12.5346 100.01 9.43726C100.026 8.08031 99.5396 7.56216 98.0823 7.89049C95.2128 8.53819 92.3221 9.10892 89.4301 9.65786C88.7259 9.79124 88.3204 9.87718 88.3336 10.7686C88.4023 15.4486 88.3864 20.1287 88.3785 24.81C88.3772 25.7091 88.718 26.0759 89.6851 26.3029C92.7621 27.025 95.9117 27.529 98.8354 28.7872C99.9637 29.272 99.9874 28.6 99.9848 27.8202C99.9755 24.7908 99.9808 21.7614 99.9808 18.732H99.9822Z" fill="#999999"/>
<path d="M65.0245 79.1154C69.0685 77.2775 73.135 76.1206 77.2874 75.3986C79.5809 74.9997 79.9601 73.821 79.8452 71.951C79.569 67.4775 79.3643 63.0001 79.1 58.5265C79.0498 57.6698 79.5519 56.5001 77.8436 56.4731C76.43 56.45 76.2596 57.2683 76.1103 58.3046C75.702 61.125 74.3571 63.3233 71.6778 64.7161C70.3606 65.3997 69.0474 66.0538 67.6205 66.4732C66.9798 66.6618 66.4038 66.8683 66.273 67.6083C65.6164 71.3162 64.8488 75.0125 65.0232 79.1154H65.0245Z" fill="#660109"/>
<path d="M87.6296 18.1264C87.6296 15.9204 87.6098 13.7131 87.6375 11.5071C87.6507 10.4695 87.3561 9.94496 86.1407 10.2181C82.5181 11.0313 78.9008 11.888 75.2425 12.5229C73.9993 12.7384 73.6994 13.3232 73.6862 14.2736C73.6439 17.3761 73.6399 20.4786 73.6518 23.5811C73.6545 24.2852 73.6875 24.9009 74.8356 24.779C78.7237 24.3686 82.6145 24.3686 86.4115 25.4524C87.4076 25.7371 87.6613 25.4857 87.6415 24.5405C87.5966 22.4037 87.627 20.2657 87.6283 18.1277L87.6296 18.1264Z" fill="#999999"/>
<path d="M92.5112 104.619C91.5692 105.846 91.0117 106.984 89.8372 107.553C89.2968 107.816 89.2572 108.302 89.4131 108.804C90.2507 111.509 91.009 114.296 93.0172 116.43C96.2183 119.832 100.105 120.543 103.526 116.727C104.328 115.833 104.933 114.828 105.415 113.745C107.423 109.229 108.105 104.472 107.649 99.6307C107.352 96.4782 106.448 93.4026 104.115 90.9555C102.479 89.2407 99.578 88.7418 97.3651 89.7986C95.7269 90.581 95.0597 92.5369 95.571 95.0559C99.7339 92.0111 103.404 93.3488 104.69 98.3084C105.161 100.128 105.329 101.984 105.384 103.817C105.488 107.197 104.675 110.407 102.314 113.032C99.8991 115.718 96.1721 115.287 94.3172 112.232C92.9525 109.982 92.6341 107.503 92.5125 104.619H92.5112Z" fill="#333333"/>
<path d="M139.781 88.1464C139.722 89.2353 139.672 90.1177 139.631 91.0014C139.596 91.7709 139.199 92.9765 140.39 92.9162C141.476 92.8611 143.123 92.847 143.114 90.9988C143.105 89.2045 143.225 87.4012 143.086 85.6172C142.867 82.7789 140.778 81.0602 138.214 81.4335C133.543 82.1132 128.874 82.7981 124.203 83.4727C122.333 83.7421 122.155 84.1217 123.18 85.5736C123.496 86.0199 123.696 86.5445 123.933 87.0395C124.57 88.3683 125.527 89.1711 127.124 88.7287C128.082 88.4632 129.025 88.5683 129.783 89.0493C130.92 89.7688 131.998 89.7162 133.23 89.4225C134.113 89.2122 135.065 89.2776 136.515 89.1878C134.489 90.2228 133.442 93.2176 134.203 94.5925C134.287 94.7451 134.458 94.9157 134.621 94.9568C136.1 95.33 138.79 93.2689 138.828 91.7465C138.857 90.5537 138.681 89.3161 139.781 88.1489V88.1464Z" fill="#CFCFCF"/>
<path d="M73.0982 18.986C73.0982 18.986 73.089 18.986 73.0837 18.986C73.0837 17.4046 73.0982 15.8219 73.0758 14.2405C73.0679 13.6415 73.1471 12.8861 72.1074 13.108C69.1691 13.7352 66.2415 14.4111 63.2927 14.9921C62.204 15.2063 61.994 15.8219 62.0019 16.7453C62.0257 19.5644 62.0666 22.386 61.9847 25.2038C61.9464 26.5069 62.3824 26.7057 63.5912 26.3812C64.738 26.0734 65.9495 25.9785 67.1385 25.8399C71.0985 25.3782 73.0846 23.2316 73.0969 19.4002C73.0969 19.263 73.0969 19.1258 73.0969 18.9872L73.0982 18.986Z" fill="#999999"/>
<path d="M50.8092 22.8507C50.8092 24.2281 50.8924 25.612 50.7854 26.9831C50.6797 28.3515 51.3825 28.4452 52.4646 28.2643C54.9629 27.8462 57.4665 27.455 59.97 27.0677C61.0904 26.8946 61.714 26.4636 61.6162 25.1785C61.4854 23.465 61.5845 21.7361 61.5845 20.0136C61.5845 17.0107 60.0837 15.7709 57.082 16.2942C56.9433 16.3186 56.7979 16.307 56.6579 16.3263C52.7931 16.8718 50.8431 19.047 50.8078 22.8519L50.8092 22.8507Z" fill="#999999"/>
<path d="M61.9582 81.1198C59.3291 80.9667 57.7966 82.0415 57.3606 84.3441C57.1426 85.483 56.8797 86.6143 56.6168 87.7455C55.4542 92.7372 53.9467 92.8629 49.1813 92.7962C40.6639 92.6782 32.1504 92.305 23.6329 92.1382C20.1451 92.0703 18.9508 91.2892 18.0643 88.0469C17.5781 86.2667 16.9254 84.5301 16.4538 82.7473C16.1261 81.5135 15.1709 81.7983 14.4152 81.8996C13.0888 82.0779 14.1603 82.9282 14.2448 83.2693C14.7508 85.3279 15.4048 87.353 16.0521 89.3756C17.1474 92.8013 17.1606 92.7936 20.9999 92.9142C21.638 92.9347 22.2748 93.0104 22.9129 93.0489C34.3303 93.7376 45.7635 93.7748 57.1954 93.9107C58.1784 93.9223 58.4836 93.6452 58.6262 92.6577C59.1904 88.7382 59.95 84.852 61.9595 81.1185L61.9582 81.1198Z" fill="#660109"/>
<path d="M141.233 78.2214C140.086 77.802 139.115 78.451 138.06 78.5523C131.323 79.2013 124.594 79.9259 117.855 80.5608C116.218 80.7147 116.695 81.8254 116.639 82.6937C116.568 83.8044 117.328 83.889 118.202 83.7633C123.224 83.04 128.246 82.3128 133.269 81.5958C138.632 80.8288 144.004 80.1003 149.363 79.2975C152.696 78.7985 156.008 78.1688 159.34 77.6571C159.986 77.5583 160.195 77.3223 160.171 76.7426C160.142 76.0539 159.639 75.9012 159.145 76.05C156.229 76.9311 153.182 76.8221 150.202 77.1684C147.205 77.516 144.187 77.7007 141.234 78.2201L141.233 78.2214Z" fill="#999999"/>
<path d="M93.3738 92.0169C89.5055 92.5004 85.6847 92.975 81.8639 93.4559C80.8519 93.5842 80.1583 93.9895 80.2719 95.1489C80.4741 97.2074 80.6775 99.2685 80.811 101.332C80.8704 102.257 81.1584 102.481 82.1387 102.277C84.7506 101.735 87.3784 101.206 90.0273 100.908C91.7541 100.713 92.5507 99.9444 92.7132 98.3604C92.9272 96.2622 93.1492 94.1665 93.3738 92.0156V92.0169Z" fill="#FFE7AB"/>
<path d="M66.9231 85.506C69.1044 85.3342 71.4388 85.9075 73.4285 84.8596C75.1354 83.9618 76.8635 83.2846 78.7223 82.8216C79.338 82.6677 80.3249 82.8075 80.2813 81.7879C80.2205 80.3668 80.6565 78.8842 79.8783 77.549C79.7793 77.3797 79.2217 77.3797 78.8967 77.4285C74.426 78.0877 69.9829 78.8624 65.7354 80.4489C64.3707 80.9594 63.1949 81.6673 62.4537 82.9345C61.1973 85.0879 61.4404 85.5099 63.9387 85.5112C64.9335 85.5112 65.9283 85.5112 66.9245 85.506H66.9231Z" fill="#660109"/>
<path d="M30.8476 97.5674C29.3204 97.5674 27.1352 96.9825 26.4403 97.7213C25.6449 98.5665 26.1708 100.587 26.1285 102.095C26.1126 102.646 26.1087 103.199 26.1073 103.751C26.1007 105.817 27.8539 107.149 29.6256 106.085C30.8648 105.34 31.8068 105.578 32.9536 105.753C37.826 106.49 38.2804 106.122 38.4826 101.346C38.509 100.725 38.4443 100.095 38.5315 99.4848C38.7019 98.2997 38.1906 98.0381 37.0135 97.9021C34.9577 97.6648 32.91 97.5481 30.8476 97.5674Z" fill="white"/>
<path d="M51.8237 109C44.3129 108.557 37.1919 108.135 29.7288 107.693C31.8981 112.287 35.7268 113.723 40.1143 114.083C44.708 114.46 48.7784 113.393 51.825 109H51.8237Z" fill="#333333"/>
<path d="M96.1097 119.751C91.5874 116.847 89.6255 113.089 88.9081 108.618C88.7694 107.751 88.3308 107.447 87.4403 107.604C85.8444 107.885 84.2392 108.123 82.6353 108.363C81.4767 108.536 81.0988 109.048 81.4317 110.231C82.2786 113.236 83.7345 115.879 86.176 117.91C88.9399 120.209 92.1106 120.785 96.1111 119.751H96.1097Z" fill="#333333"/>
<path d="M66.5663 93.1373C66.5663 93.0834 66.5663 93.0296 66.5663 92.9757C68.4807 92.9757 70.7174 93.5823 72.2275 92.8256C74.2079 91.8316 72.715 89.3563 73.1047 87.571C73.1338 87.4402 73.0955 87.2965 73.1021 87.1593C73.1496 86.2602 72.6608 85.9524 71.7955 85.9652C68.8889 86.0088 65.9811 85.9947 63.0759 86.0755C61.9991 86.1063 61.2513 86.5796 61.1047 87.8095C60.9514 89.0908 60.6317 90.3618 60.2763 91.6085C59.9632 92.7076 60.3464 93.145 61.4627 93.1386C63.1631 93.1296 64.8647 93.136 66.565 93.136L66.5663 93.1373Z" fill="#660109"/>
<path d="M97.7732 87.0101C99.2199 87.5359 100.762 87.8873 102.081 88.6145C106.096 90.827 107.415 94.6156 108.105 98.7557C108.505 101.158 108.653 103.528 108.13 105.929C107.896 107.004 108.519 107.671 109.58 107.818C110.217 107.907 111.226 108.28 111.417 107.378C111.74 105.843 112.347 104.017 111.802 102.723C110.381 99.3444 109.723 95.7917 108.866 92.3109C108.155 89.4251 106.476 87.214 104.95 84.8361C104.745 84.5155 104.49 84.3847 104.117 84.2949C101.63 83.6946 99.3705 84.6399 97.7732 87.0088V87.0101Z" fill="#CFCFCF"/>
<path d="M128.255 76.4169C124.73 76.6978 121.207 76.9967 117.68 77.2506C116.486 77.3365 116.621 78.1433 116.623 78.8897C116.626 79.5618 116.707 80.0479 117.708 79.9337C122.619 79.3745 127.556 79.0205 132.451 78.36C138.498 77.543 144.567 76.9697 150.637 76.3708C153.366 76.1014 156.059 75.4973 158.824 75.514C159.335 75.5166 159.862 75.3575 159.787 74.6932C159.73 74.1943 159.324 74.0493 158.854 74.0583C158.429 74.066 157.858 73.9134 157.602 74.1224C155.986 75.4306 154.291 74.706 152.606 74.4264C151.884 74.3058 151.214 74.547 150.518 74.6432C148.214 74.9587 145.898 75.2152 143.579 75.3999C140.997 75.6051 138.389 75.5807 135.824 75.8911C133.306 76.1963 130.756 75.9911 128.256 76.4169H128.255Z" fill="#999999"/>
<path d="M119.003 88.6337C116.616 90.024 115.869 91.994 116.544 95.0567C116.84 93.5112 116.762 92.1658 118.715 92.1453C116.871 93.4343 117.663 95.0926 117.506 96.5471C117.414 97.4051 117.485 98.1733 118.612 98.4696C120 98.8351 121.377 99.0468 122.762 98.6056C122.945 98.5466 123.047 98.0066 123.048 97.6885C123.058 95.2029 123.141 92.7109 122.989 90.233C122.844 87.85 122.232 85.8056 119.504 84.6654C117.51 83.8318 116.017 85.2952 114.157 84.7501C114.617 85.9198 116.143 85.8608 116.197 87.0176C116.283 88.844 117.404 88.8761 119.002 88.6324L119.003 88.6337Z" fill="#CFCFCF"/>
<path d="M48.1138 105.014C49.3517 105.014 50.3571 105.112 51.3334 104.991C52.9188 104.793 52.9479 103.541 53.076 102.346C53.2042 101.138 52.5595 100.774 51.4801 100.708C48.0174 100.499 44.5559 100.277 41.0945 100.049C39.8738 99.9681 39.5197 100.725 39.8064 101.607C40.1314 102.605 38.7666 104.338 40.9399 104.556C43.4026 104.802 45.8837 104.878 48.1138 105.014Z" fill="#808080"/>
<path d="M80.5928 54.3434C82.7859 53.1968 84.8059 52.1836 87.1853 51.963C87.6874 51.9168 88.2 51.2357 88.5738 50.7497C90.0694 48.8027 89.3494 43.8187 87.3782 42.3438C86.386 41.6012 85.444 41.4498 84.8152 42.7837C83.8388 44.855 82.8678 46.9943 82.9497 49.2811C83.025 51.3909 83.1492 53.2942 80.5928 54.3434Z" fill="#CFCFCF"/>
<path d="M156.018 70.2902C155.538 69.6799 154.847 69.8594 154.247 69.8722C142.233 70.1171 130.218 70.3787 118.205 70.648C117.538 70.6634 116.623 70.4646 116.705 71.5711C116.775 72.5199 117.591 72.2866 118.185 72.2712C123.014 72.1404 127.844 72.0225 132.671 71.8391C139.981 71.5609 147.29 71.2378 154.6 70.9211C155.131 70.898 155.749 70.9672 156.016 70.2902H156.018Z" fill="#999999"/>
<path d="M149.716 95.811C149.052 95.9803 149.138 96.3676 149.097 96.6934C149 97.4706 148.863 98.2081 147.857 98.362C146.839 98.5172 146.476 97.7207 146.092 97.1218C145.653 96.4395 145.242 95.6751 145.283 94.8209C145.345 93.5127 144.637 93.5293 143.682 93.8756C143.286 94.0193 142.863 94.0975 142.478 94.263C141.535 94.6708 140.124 94.4387 140.108 96.088C140.087 98.2504 141.178 100.904 142.494 101.236C146.9 102.351 149.989 101.204 149.716 95.8123V95.811Z" fill="#333333"/>
<path d="M151.397 80.0797C154.157 80.6389 154.208 80.6915 154.23 83.3284C154.235 83.8786 154.233 84.4301 154.234 84.9803C154.237 85.5908 154.271 86.0038 155.183 85.8153C156.763 85.4895 158.38 85.3112 159.989 85.1432C160.648 85.074 161.113 84.929 161.037 84.1967C160.874 82.6333 161.196 81.0557 160.734 79.4884C160.523 78.7702 160.347 78.4111 159.524 78.4714C156.743 78.6766 154.07 79.3589 151.397 80.0797Z" fill="#CFCFCF"/>
<path d="M80.272 87.0024C80.239 86.3085 80.2284 85.5531 80.1557 84.8054C80.1187 84.427 80.1108 83.9525 79.4463 84.0769C77.6654 84.4103 75.393 84.3257 74.7205 86.2162C73.9965 88.2516 74.2132 90.5371 74.8473 92.6854C74.8777 92.7867 75.0442 92.8663 75.1631 92.9265C77.0444 93.8846 79.8505 92.3789 79.9972 90.3435C80.0765 89.2507 80.1755 88.158 80.272 87.0024Z" fill="#660109"/>
<path d="M81.3236 107.847C84.032 107.506 86.1921 107.156 88.3667 106.982C90.5281 106.807 91.2693 105.308 91.9721 103.703C92.161 103.272 92.5019 102.811 92.0355 102.38C91.696 102.066 91.2561 102.178 90.8267 102.263C88.2174 102.78 85.6015 103.27 82.9936 103.789C82.2907 103.929 81.251 103.378 81.1889 104.847C81.1559 105.618 80.6868 106.415 80.745 107.246C80.7925 107.918 81.3871 107.85 81.3223 107.847H81.3236Z" fill="#FFE7AB"/>
<path d="M70.9606 57.4219C69.9671 57.6681 68.3553 57.2282 68.2087 58.0734C67.9246 59.7087 67.1874 61.4504 67.959 63.1357C68.5482 64.4221 69.6751 64.6799 70.987 64.2233C72.912 63.5538 74.1618 62.2456 74.9056 60.4038C75.8013 58.1888 75.5965 57.8233 73.2317 57.663C72.4562 57.6104 71.6846 57.5001 70.9619 57.4219H70.9606Z" fill="#FFE7AB"/>
<path d="M109.095 88.5889C109.158 90.877 110.311 91.7684 112.616 91.3426C113.517 91.1758 114.422 90.986 115.334 90.9168C116.482 90.8295 116.626 89.6098 116.489 89.2892C115.644 87.3384 114.149 85.7852 112.453 84.5027C112.052 84.2 110.767 83.8858 110.386 84.7579C109.85 85.9853 109.138 87.1896 109.097 88.5902L109.095 88.5889Z" fill="#CFCFCF"/>
<path d="M76.109 52.5686C76.1856 52.3813 76.3045 52.2005 76.3323 52.0055C77.1078 46.7137 77.9322 41.4283 78.6139 36.1262C78.8927 33.9599 79.1278 31.7808 79.1239 29.5736C79.1212 27.9601 78.3946 27.2996 76.9228 27.1534C76.1486 27.0764 75.3493 27.0149 74.5844 27.1136C69.0884 27.8216 63.5871 28.4988 58.1189 29.3735C57.0342 29.5466 55.6866 29.1003 54.3813 30.497C57.6591 30.0622 60.4785 29.6518 63.3084 29.3209C67.7118 28.8053 72.0914 28.064 76.5397 27.9306C78.0973 27.8832 78.853 28.7656 78.6945 30.1071C78.2717 33.6919 77.6508 37.2535 77.1659 40.8319C76.6361 44.7449 75.7444 48.6221 76.1077 52.566L76.109 52.5686Z" fill="#FFE7AB"/>
<path d="M101.614 108.696C100.752 108.233 100.258 107.107 99.0442 107.731C98.6783 107.92 98.1022 108.129 97.9371 107.652C97.7429 107.09 97.7151 106.4 97.8605 105.823C97.9913 105.306 98.5435 105.551 98.9451 105.668C99.9254 105.952 100.819 105.925 101.157 104.785C101.568 103.404 101.232 102.382 99.5053 102.501C97.6887 102.627 98.2079 101.135 98.2595 100.509C98.3334 99.5959 99.1275 100.169 99.6757 100.389C100.357 100.663 101.406 100.801 101.252 99.8563C101.083 98.8289 102.129 98.7725 102.339 98.0991C98.5686 97.74 98.4603 97.8773 97.0189 101.044C96.1839 102.879 96.5222 104.695 96.7256 106.518C96.8789 107.889 97.2911 109.221 98.7232 109.956C100.278 110.754 100.433 108.75 101.615 108.697L101.614 108.696Z" fill="#CFCFCF"/>
<path d="M8.38545 86.0801C8.00232 86.9509 8.57041 87.5358 8.6629 88.2001C9.28516 92.6981 9.31026 92.6955 14.0109 92.6301C14.1523 92.6275 14.2936 92.6416 14.4337 92.6468C15.2832 92.6776 15.5157 92.4146 15.2554 91.5374C13.5868 85.8954 14.8102 87.0138 9.24552 86.3533C8.97997 86.3212 8.72631 86.1929 8.38413 86.0826L8.38545 86.0801Z" fill="#660109"/>
<path d="M25.5221 101.298C25.3715 101.022 26.2157 99.6909 24.5128 99.596C22.6698 99.4947 20.8307 99.2933 18.9864 99.2497C18.2029 99.2318 17.0113 98.7867 16.7087 99.6794C16.4207 100.53 16.9188 101.558 17.5477 102.352C18.0457 102.981 18.672 103.33 19.5294 103.373C20.8743 103.442 22.2179 103.577 23.5523 103.748C25.1271 103.949 26.1285 103.634 25.5208 101.298H25.5221Z" fill="#808080"/>
<path d="M124.47 98.3179C126.834 97.5394 129.056 96.6942 131.345 96.0927C132.85 95.6964 133.084 94.9974 132.598 93.7148C132.081 92.3541 131.308 91.85 129.856 92.5695C129.313 92.8389 128.642 92.9351 128.021 92.9722C124.28 93.1916 124.277 93.1775 124.356 96.7827C124.367 97.2483 124.424 97.7126 124.471 98.3179H124.47Z" fill="#CFCFCF"/>
<path d="M65.2863 57.7402C54.2679 58.1967 43.2706 58.857 32.3354 60.2892C43.3803 60.2225 54.3366 58.9775 65.2863 57.7402Z" fill="#CFCFCF"/>
<path d="M94.7544 91.6182C94.8654 91.5477 95.0583 91.4925 95.0781 91.4027C96.1442 86.3931 99.0019 83.3162 104.523 82.9981C105.468 82.9443 106.307 82.421 106.657 81.5065C106.877 80.9306 107.001 80.3086 105.897 80.3086C99.6308 80.3086 94.6817 85.3029 94.7557 91.6195L94.7544 91.6182Z" fill="#CFCFCF"/>
<path d="M46.8944 95.037C46.0607 94.2341 45.0686 94.2931 44.12 94.2816C35.2471 94.1764 26.3756 94.0751 17.5186 93.4633C15.4682 93.3209 13.3926 93.5646 11.3594 93.0991C10.8983 92.9939 10.4742 93.0683 10.4385 93.6288C10.4095 94.093 10.8018 94.1482 11.1665 94.1661C11.6632 94.1892 12.1613 94.2098 12.6581 94.2136C21.4675 94.2906 30.269 94.5484 39.0666 95.0165C41.6679 95.155 44.2838 95.0383 46.8931 95.0383L46.8944 95.037Z" fill="#CFCFCF"/>
<path d="M138.806 100.959C139.113 100.396 140.378 101.538 140.475 100.205C140.573 98.8604 138.832 95.3013 138.286 95.5668C137.007 96.1876 134.874 95.6335 134.582 97.6253C134.319 99.4171 136.376 100.982 138.806 100.959Z" fill="#333333"/>
<path d="M11.1996 79.2268C11.1996 76.4719 11.1414 73.8798 11.222 71.2916C11.267 69.8462 10.6579 69.0343 9.20199 68.5508C9.00646 70.7324 8.81754 72.7653 8.64579 74.8007C8.48989 76.6527 8.53217 78.4214 11.1983 79.2268H11.1996Z" fill="#660109"/>
<path d="M7.37082 81.9191C7.45669 84.2405 10.8005 86.3721 12.9236 85.4666C13.5829 85.1858 13.386 84.6766 13.2499 84.2456C12.7056 82.5283 11.654 81.2047 9.91007 80.4967C9.35783 80.2723 8.87297 79.4874 8.24542 79.9298C7.63108 80.3621 7.3008 81.1047 7.37214 81.9191H7.37082Z" fill="#660109"/>
<path d="M151.561 86.6563C151.507 86.2151 151.473 85.5264 151.329 84.8595C151.173 84.1412 150.433 84.24 149.934 84.1707C149.19 84.0669 149.458 84.7556 149.553 84.998C150.377 87.1193 150.257 89.4036 150.806 91.5711C150.927 92.0495 150.849 92.5651 151.569 92.5394C152.199 92.5176 151.952 91.9418 152.148 91.6776C152.97 90.5669 153.292 88.9149 155.184 88.8598C155.69 88.8444 156.416 89.0419 156.469 88.1903C156.494 87.7953 156.525 87.3104 155.945 87.2361C155.309 87.154 154.683 87.1142 154.333 87.853C153.905 88.7572 152.981 89.2702 152.127 89.0445C151.054 88.7623 151.545 87.6798 151.563 86.6551L151.561 86.6563Z" fill="#CFCFCF"/>
<path d="M129.879 73.5254C126.433 72.5801 122.969 72.5801 119.526 73.0521C118.581 73.1817 116.717 72.271 116.811 73.8986C116.894 75.3299 118.555 74.182 119.477 74.2795C122.973 74.6489 126.374 73.4433 129.88 73.5254H129.879Z" fill="#999999"/>
<path d="M55.0447 94.8594C60.7904 95.4919 66.5043 95.4931 72.217 94.8594H55.0447Z" fill="#CFCFCF"/>
<path d="M121.588 66.5801C121.588 66.5916 121.588 66.6032 121.588 66.6147C120.239 66.6147 118.89 66.598 117.543 66.6237C117.072 66.6327 116.73 66.8841 116.737 67.3922C116.744 67.9336 117.148 68.0734 117.602 68.067C120.157 68.0336 122.714 67.9913 125.269 67.9387C125.635 67.931 126.064 67.804 126.095 67.4294C126.138 66.8931 125.624 66.7879 125.205 66.7597C124.002 66.6763 122.794 66.6378 121.59 66.5801H121.588Z" fill="#999999"/>
<path d="M116.62 96.0918C116.53 98.6043 114.431 98.1965 113.1 98.798C112.794 98.9365 112.351 98.8788 112.312 99.3187C112.273 99.742 112.651 99.9215 112.985 99.9664C115.344 100.282 117.745 101.175 120.291 99.447C118.156 99.184 116.48 98.6543 116.62 96.0918Z" fill="#CFCFCF"/>
<path d="M150.276 72.4638C150.272 72.2817 150.267 72.0982 150.263 71.916C144.889 72.1239 139.518 72.3317 134.145 72.5395C134.155 72.8025 134.166 73.0668 134.178 73.3298C139.544 73.0412 144.909 72.7525 150.276 72.4638Z" fill="#999999"/>
<path d="M107.723 75.9226C107.736 75.9226 107.749 75.9226 107.762 75.9226C107.762 76.7435 107.769 77.5643 107.761 78.3851C107.754 79.097 108.124 79.3329 108.824 79.2932C109.394 79.2598 109.788 79.1123 109.778 78.4813C109.757 77.0487 109.822 75.6058 109.665 74.1873C109.603 73.623 109.56 72.6688 108.552 72.7124C107.448 72.7598 107.794 73.6653 107.734 74.2822C107.683 74.8248 107.724 75.3763 107.724 75.9239L107.723 75.9226Z" fill="#CFCFCF"/>
<path d="M127.288 75.7804C127.022 75.343 126.98 75.1648 126.888 75.1366C123.635 74.1336 120.413 75.4841 117.165 75.2776C116.896 75.261 116.709 75.588 116.767 75.8958C116.841 76.2896 117.147 76.5089 117.523 76.4832C120.723 76.2665 123.922 76.0254 127.288 75.7791V75.7804Z" fill="#999999"/>
<path d="M6.36035 98.8321C6.69725 99.8735 6.91391 100.732 7.25213 101.542C7.81626 102.895 9.16119 102.768 10.1587 102.51C11.1918 102.244 10.4718 101.289 10.3938 100.594C10.0794 97.7894 7.99197 99.1437 6.36167 98.8321H6.36035Z" fill="#808080"/>
<path d="M71.2009 101.61C68.9021 101.568 67.0207 101.471 65.22 101.515C62.2131 101.589 62.2395 102.992 62.6094 104.092C62.9939 105.232 65.1724 104.855 66.6799 105.032C72.7585 105.745 70.2338 103.142 71.2009 101.61Z" fill="#808080"/>
<path d="M104.313 105.709C103.77 107.484 102.578 108.945 101.93 110.638C101.118 112.759 98.7179 112.478 97.1721 113.656C100.903 114.875 104.253 111.183 104.313 105.709Z" fill="#CFCFCF"/>
<path d="M30.5095 60.8358L30.458 60.2638C25.3042 60.2523 20.2204 61.0231 15.093 61.3001C15.1142 61.5284 15.134 61.758 15.1551 61.9863C20.2733 61.6028 25.3914 61.2193 30.5095 60.8358Z" fill="#CFCFCF"/>
<path d="M113.214 94.3516C113.214 94.9596 113.186 95.4418 113.222 95.9189C113.259 96.4165 113.089 97.263 113.969 96.9963C114.617 96.8 115.88 97.0232 115.662 95.6765C115.596 95.2712 115.534 94.8608 115.408 94.4709C115.111 93.541 116.296 91.7724 114.193 91.8712C112.257 91.9609 113.763 93.6629 113.214 94.3516Z" fill="#CFCFCF"/>
<path d="M127.556 89.3121C127.289 89.3403 126.537 89.0736 126.49 90.075C126.444 91.0764 127.187 90.8045 127.766 90.9674C129.181 91.3636 130.721 91.0969 132.078 91.8123C132.409 91.9867 132.796 92.7342 133.265 92.0265C133.562 91.579 133.861 91.0212 133.639 90.4712C133.401 89.8852 132.694 90.0006 132.353 90.1609C131.216 90.6943 130.346 90.4058 129.485 89.6442C129.045 89.2557 128.449 89.2454 127.556 89.3134V89.3121Z" fill="#CFCFCF"/>
<path d="M145.67 81.5957C146.899 81.8124 147.949 81.992 148.586 82.9693C149.007 83.6183 149.754 83.6195 150.298 83.3733C151.087 83.0155 150.421 82.387 150.264 81.965C149.394 79.6385 147.629 79.4179 145.67 81.5957Z" fill="#CFCFCF"/>
<path d="M98.376 94.3309C102.868 95.3198 103.145 98.9469 104.301 101.954C104.554 97.8234 101.968 92.8522 98.376 94.3309Z" fill="#CFCFCF"/>
<path d="M69.7756 78.0516C69.9619 78.2285 70.0703 78.3991 70.1376 78.385C73.1842 77.7272 76.1515 76.6604 79.3381 76.7297C79.6539 76.7361 79.9036 76.5668 79.8085 76.2399C79.6711 75.7642 79.1624 75.5859 78.8004 75.6988C75.8569 76.6245 72.6927 76.7861 69.7756 78.0503V78.0516Z" fill="#808080"/>
<path d="M146.45 96.1901C148.408 93.0067 148.19 89.4028 145.991 86.9492C146.982 89.9914 147.339 93.0568 146.45 96.1901Z" fill="#CFCFCF"/>
<path d="M117.749 27.6484C117.363 27.6895 116.951 27.792 116.771 28.2305C116.505 28.8806 116.997 29.0755 117.476 29.2345C118.795 29.6756 120.118 30.1064 121.447 30.5218C121.614 30.5731 121.898 30.5667 121.99 30.4667C122.1 30.3487 122.11 29.941 122.077 29.9307C120.491 29.4538 119.482 27.9523 117.748 27.6484H117.749Z" fill="#999999"/>
<path d="M117.002 69.4599C120.05 69.8332 123.074 69.7511 126.079 69.2008C123.035 68.7455 120.001 68.5506 117.002 69.4599Z" fill="#999999"/>
<path d="M117.296 8.50586C116.815 8.52382 116.736 8.7675 116.695 9.05351C116.633 9.47547 116.598 9.91154 117.059 10.136C118.628 10.9004 120.202 11.6494 121.788 12.3805C122.105 12.5267 122.529 12.6113 122.654 12.1406C122.764 11.7264 122.462 11.5737 122.067 11.4852C120.374 11.1018 119.108 10.0449 117.88 8.93423C117.679 8.75339 117.441 8.61103 117.299 8.50714L117.296 8.50586Z" fill="#999999"/>
<path d="M112.809 97.4311C112.809 95.9151 112.819 94.3991 112.805 92.8831C112.799 92.2175 112.303 92.1405 111.779 92.1867C111.487 92.2123 110.882 92.1444 111.142 92.6343C111.953 94.1593 110.948 96.0523 112.809 97.4311Z" fill="#CFCFCF"/>
<path d="M141.757 81.2512C142.141 81.8707 142.404 82.4389 142.802 82.8955C143.214 83.3687 143.1 84.1344 143.803 84.4525C143.851 84.2601 143.888 84.0728 143.945 83.8933C144.233 82.9788 144.973 81.9258 144.724 81.1819C144.189 79.5749 143.026 81.954 142.165 81.0781C142.151 81.0627 142.054 81.123 141.757 81.2499V81.2512Z" fill="#CFCFCF"/>
<path d="M117.546 17.3216C116.828 17.1588 116.708 17.6037 116.727 18.0012C116.807 19.7167 118.511 19.3872 119.483 19.977C119.786 20.1616 120.181 20.0257 120.138 19.5321C119.995 17.9422 118.424 17.9653 117.547 17.3216H117.546Z" fill="#999999"/>
<path d="M127.901 92.0204C126.672 91.7755 125.911 91.1703 125.69 89.9445C125.623 89.5676 125.21 89.247 124.719 89.3406C124.235 89.4342 124.392 89.8663 124.352 90.1741C124.093 92.1807 125.031 92.732 127.901 92.0204Z" fill="#CFCFCF"/>
<path d="M152.469 81.2064C152.273 81.2115 152.078 81.2153 151.882 81.2205C152.01 83.5906 152.14 85.9608 152.269 88.331C152.452 88.3181 152.634 88.3066 152.815 88.2938C153.416 85.8967 152.425 83.5765 152.469 81.2051V81.2064Z" fill="#CFCFCF"/>
<path d="M120.247 33.754C119.966 32.4009 118.637 32.7665 117.753 32.383C117.245 32.1624 116.817 32.256 116.865 32.7819C116.983 34.0901 118.186 33.9592 119.092 34.185C119.547 34.2978 120.087 34.5787 120.247 33.754Z" fill="#999999"/>
<path d="M44.03 31.4777C44.0591 31.6508 44.0882 31.8228 44.1172 31.996C46.4583 31.6329 48.7981 31.2698 51.1391 30.9055L51.0493 30.373C48.7095 30.7412 46.3698 31.1094 44.03 31.4777Z" fill="#CFCFCF"/>
<path d="M107.946 84.3181C107.502 84.4412 106.675 83.977 106.716 84.8927C106.748 85.6097 107.271 86.2022 108.04 86.2663C108.817 86.3317 109.419 85.9034 109.394 85.0761C109.365 84.1386 108.535 84.4182 107.947 84.3181H107.946Z" fill="#CFCFCF"/>
<path d="M96.9636 112.483C97.4431 112.357 98.1724 112.705 98.2715 111.842C98.3812 110.891 97.5938 110.632 96.9477 110.563C96.2343 110.486 95.4337 110.955 95.4535 111.665C95.472 112.311 96.3003 112.448 96.9636 112.483Z" fill="#CFCFCF"/>
<path d="M117.616 101.22C119.769 101.265 121.647 100.554 123.342 99.3535C121.433 99.9756 119.525 100.598 117.616 101.22Z" fill="#CFCFCF"/>
<path d="M93.0793 99.5442C93.3264 99.5814 93.5721 99.6186 93.8192 99.6558C94.0226 97.9295 94.2274 96.2045 94.4309 94.4781C94.2182 94.455 94.0055 94.4332 93.7928 94.4102C93.3687 96.0993 93.987 97.9141 93.0807 99.5442H93.0793Z" fill="#CFCFCF"/>
<path d="M110.319 93.1504C109.787 94.5432 110.262 95.795 111.009 97.2738C111.316 95.6539 111.019 94.3868 110.319 93.1504Z" fill="#CFCFCF"/>
<path d="M73.3453 56.6332C74.2371 56.7448 75.2531 57.5402 75.87 56.2765C75.9889 56.034 76.0748 55.6774 75.7776 55.5478C74.6427 55.0539 74.0389 55.9186 73.344 56.6345L73.3453 56.6332Z" fill="#CFCFCF"/>
<path d="M70.946 100.928C68.922 101.405 66.8914 101.073 64.8529 100.984C62.4827 100.882 61.2844 102.382 61.9173 104.552C62.1696 105.417 62.8566 105.513 63.578 105.509C65.5623 105.5 67.5533 105.538 69.5284 105.394C71.4917 105.249 71.9395 103.869 71.7744 102.151C72.6648 104.424 72.0888 105.492 69.7966 105.981C67.626 106.444 65.4183 106.258 63.2292 106.217C62.0851 106.195 61.0308 105.601 61.2118 104.321C61.4073 102.93 60.9859 100.878 62.9861 100.575C65.5954 100.181 68.2879 100.358 70.946 100.928Z" fill="#606060"/>
<path d="M135.467 43.9398C134.135 43.8539 134.049 43.9462 133.765 44.8799L132.167 50.0114C131.825 51.1375 131.996 51.2273 133.539 51.3299L133.395 51.8006L127.507 51.8596L127.715 51.3453C129.423 51.2453 129.575 51.1119 129.972 49.9537L130.887 47.2642L124.947 46.9179L123.684 49.8627C123.151 51.1196 123.344 51.253 125.314 51.3517L125.066 51.884L117.485 51.9609L117.79 51.3722C119.94 51.253 120.246 51.117 120.842 49.8126L123.664 43.8847C124.184 42.8073 124.058 42.7047 122.186 42.3943L122.423 41.9531L128.59 42.7086L128.407 43.1177C126.75 43.01 126.601 43.1049 126.154 44.1296L125.253 46.2792L131.101 46.6742L131.769 44.6837C132.098 43.7243 132.021 43.6179 130.5 43.3627L130.694 42.9676L135.606 43.5691L135.468 43.9398H135.467Z" fill="black"/>
<path d="M143.555 51.7001L139.779 51.7386L139.88 51.323C140.897 51.2281 140.95 51.0845 140.848 50.5214C140.761 50.0751 140.647 49.5698 140.528 49.0106L137.636 48.9016C137.354 49.3197 136.918 49.8943 136.607 50.4009C136.2 51.0524 136.307 51.2166 137.64 51.3294L137.527 51.7617L133.422 51.8027L133.59 51.341C134.854 51.2089 135.048 51.1178 135.982 49.8956L140.31 44.1035L140.873 44.1061C141.547 47.0393 141.982 48.7348 142.333 50.1828C142.547 51.0909 142.644 51.2153 143.646 51.3115L143.556 51.7001H143.555ZM139.833 45.7054L139.806 45.7029C139.222 46.5712 138.566 47.4882 137.993 48.3398L140.415 48.454L139.833 45.7054Z" fill="black"/>
<path d="M150.277 51.7121H150.132C148.885 51.707 148.539 51.3748 148.104 50.6886C147.815 50.2205 147.515 49.6177 147.258 49.1239C147.063 48.752 146.932 48.6147 146.578 48.5968L146.202 48.5775L146.035 50.2295C145.947 51.1324 146.065 51.2068 146.997 51.3017L146.951 51.6659L143.419 51.7018L143.48 51.3119C144.411 51.2273 144.59 51.1388 144.698 50.2166L145.237 45.9803C145.345 45.1916 145.219 45.1351 144.318 44.971L144.382 44.6465L147.202 44.9915C148.553 45.1569 149.354 45.7726 149.481 46.7306C149.607 47.6887 148.942 48.2235 148.134 48.4326C148.377 48.9225 148.64 49.4022 148.87 49.7998C149.625 51.0721 149.884 51.2632 150.322 51.3979L150.275 51.7108L150.277 51.7121ZM146.634 48.194C147.801 48.262 148.412 47.7233 148.284 46.6652C148.206 46.0137 147.79 45.4301 147.066 45.3468C146.721 45.307 146.561 45.3211 146.512 45.7944L146.256 48.1722L146.634 48.194Z" fill="black"/>
<path d="M155.561 51.5787L153.313 51.6018L153.327 51.2837C153.917 51.2119 153.932 51.1003 153.81 50.6668C153.708 50.3218 153.585 49.9306 153.453 49.4971L151.745 49.433C151.629 49.7562 151.444 50.1974 151.324 50.5834C151.165 51.0772 151.246 51.2016 152.024 51.2876L152.007 51.6146L149.684 51.6377L149.724 51.2927C150.419 51.1939 150.518 51.1259 150.909 50.1999L152.773 45.6392L153.11 45.6289C153.844 47.9439 154.292 49.2714 154.661 50.3987C154.888 51.1041 154.959 51.2003 155.575 51.276L155.562 51.5774L155.561 51.5787ZM152.67 46.9192H152.653C152.407 47.6092 152.126 48.3325 151.888 48.9969L153.324 49.0649L152.67 46.9192Z" fill="black"/>
<path d="M135.809 43.8773C134.477 43.7914 134.392 43.8837 134.107 44.8174L132.509 49.9489C132.167 51.075 132.338 51.1648 133.882 51.2674L133.738 51.7381L127.849 51.7971L128.057 51.2828C129.765 51.1828 129.917 51.0494 130.314 49.8912L131.229 47.2017L125.289 46.8554L124.026 49.8002C123.493 51.0571 123.686 51.1905 125.656 51.2892L125.408 51.8215L117.827 51.8984L118.132 51.3097C120.282 51.1905 120.588 51.0545 121.184 49.7501L124.006 43.8222C124.526 42.7448 124.4 42.6422 122.528 42.3318L122.765 41.8906L128.933 42.6461L128.749 43.0552C127.092 42.9475 126.943 43.0424 126.496 44.0671L125.595 46.2167L131.443 46.6117L132.111 44.6212C132.44 43.6618 132.364 43.5554 130.842 43.3002L131.036 42.9051L135.948 43.5066L135.81 43.8773H135.809Z" fill="#D80505"/>
<path d="M143.897 51.6337L140.121 51.6722L140.222 51.2566C141.239 51.1617 141.292 51.0181 141.19 50.455C141.103 50.0087 140.989 49.5034 140.87 48.9442L137.978 48.8352C137.696 49.2533 137.26 49.8279 136.949 50.3345C136.542 50.986 136.649 51.1502 137.982 51.263L137.869 51.6953L133.764 51.7363L133.932 51.2746C135.196 51.1425 135.39 51.0514 136.324 49.8291L140.652 44.0371L141.215 44.0397C141.889 46.9729 142.324 48.6684 142.675 50.1164C142.889 51.0245 142.986 51.1489 143.988 51.2451L143.898 51.6337H143.897ZM140.175 45.639L140.148 45.6365C139.564 46.5048 138.908 47.4218 138.335 48.2734L140.757 48.3875L140.175 45.639Z" fill="#D80505"/>
<path d="M150.621 51.6476H150.475C149.228 51.6425 148.882 51.3103 148.447 50.6242C148.158 50.156 147.858 49.5532 147.602 49.0594C147.406 48.6875 147.276 48.5503 146.922 48.5323L146.545 48.5131L146.379 50.165C146.29 51.0679 146.409 51.1423 147.34 51.2372L147.294 51.6015L143.763 51.6374L143.823 51.2475C144.755 51.1628 144.933 51.0743 145.042 50.1522L145.581 45.9159C145.689 45.1271 145.562 45.0707 144.661 44.9065L144.726 44.582L147.545 44.927C148.897 45.0925 149.697 45.7081 149.824 46.6662C149.951 47.6243 149.285 48.1591 148.478 48.3681C148.721 48.8581 148.984 49.3378 149.214 49.7354C149.968 51.0077 150.227 51.1988 150.666 51.3334L150.618 51.6464L150.621 51.6476ZM146.977 48.1296C148.145 48.1976 148.755 47.6589 148.627 46.6008C148.549 45.9492 148.133 45.3657 147.409 45.2823C147.064 45.2426 146.904 45.2567 146.855 45.7299L146.599 48.1078L146.977 48.1296Z" fill="#D80505"/>
<path d="M155.904 51.5142L153.657 51.5373L153.67 51.2193C154.261 51.1474 154.275 51.0358 154.154 50.6023C154.052 50.2573 153.929 49.8662 153.797 49.4326L152.089 49.3685C151.972 49.6917 151.787 50.1329 151.667 50.519C151.509 51.0128 151.589 51.1372 152.367 51.2231L152.35 51.5502L150.028 51.5732L150.067 51.2282C150.762 51.1295 150.861 51.0615 151.252 50.1355L153.116 45.5747L153.453 45.5645C154.188 47.8795 154.636 49.2069 155.004 50.3343C155.232 51.0397 155.303 51.1359 155.919 51.2116L155.905 51.513L155.904 51.5142ZM153.013 46.8547H152.996C152.75 47.5447 152.469 48.2681 152.231 48.9325L153.667 49.0004L153.013 46.8547Z" fill="#D80505"/>
</svg>
