<svg width="31" height="128" viewBox="0 0 31 128" fill="none" xmlns="http://www.w3.org/2000/svg">
<path d="M15 17L1 3V127" stroke="black" stroke-width="2"/>
<path d="M14.808 39.8728L14.808 37.5048C15.448 37.6008 16.008 37.6328 16.872 37.6328L25.528 37.6328C26.296 37.6328 26.872 37.6008 27.592 37.5048C27.56 38.1928 27.544 38.6888 27.544 39.5368L27.544 42.8808C27.544 44.4328 27.176 45.5208 26.408 46.2888C25.768 46.9448 24.808 47.2808 23.656 47.2808C22.44 47.2808 21.448 46.9128 20.712 46.2088C19.928 45.4248 19.56 44.3368 19.56 42.8008L19.56 39.7448L16.888 39.7448C16.024 39.7448 15.416 39.7768 14.808 39.8728ZM21.4 39.7448L21.4 42.8008C21.4 44.2728 22.184 45.0728 23.592 45.0728C24.232 45.0728 24.76 44.8968 25.128 44.5448C25.528 44.1768 25.704 43.6488 25.704 42.8008L25.704 39.7448L21.4 39.7448ZM14.808 56.4158L15.848 56.4158C15.24 55.7758 15.016 55.3758 14.84 54.7198C14.712 54.2558 14.648 53.7438 14.648 53.2318C14.648 51.2798 15.656 50.0958 17.336 50.0958C18.456 50.0958 19.464 50.7998 19.928 51.9038C20.36 52.9438 20.52 54.1278 20.568 56.4158L21.384 56.4158C22.312 56.4158 22.792 55.7918 22.792 54.5758C22.792 53.9358 22.616 53.2798 22.328 52.9118C22.104 52.6078 21.88 52.4638 21.304 52.2718L21.672 50.2238C22.6 50.5918 23.016 50.8798 23.448 51.4878C24.024 52.2718 24.264 53.1678 24.264 54.5438C24.264 56.0798 23.992 57.0078 23.32 57.6958C22.808 58.2398 22.2 58.4478 21.112 58.4478L16.808 58.4478C15.96 58.4478 15.528 58.4798 14.808 58.5758L14.808 56.4158ZM18.376 56.4158L19.176 56.4158C19.112 53.3598 18.584 52.1598 17.336 52.1598C16.584 52.1598 16.12 52.7198 16.12 53.6158C16.12 54.4638 16.44 55.2958 16.968 55.8398C17.352 56.2238 17.816 56.4158 18.376 56.4158ZM13.336 61.8844L14.44 63.4844C13.576 64.1084 13.224 64.8124 13.224 65.9644C13.224 67.1964 13.656 68.1404 14.424 68.5884C14.904 68.8604 15.464 68.9724 16.552 69.0044C15.544 68.2044 15.096 67.2604 15.096 65.8684C15.096 63.3244 16.84 61.6924 19.576 61.6924C22.344 61.6924 24.136 63.3724 24.136 65.9644C24.136 67.3884 23.704 68.3324 22.728 69.0204C23.048 68.9884 23.08 68.9884 23.256 68.9884L23.992 68.9884L23.992 71.1324C23.304 71.0524 22.856 71.0204 21.992 71.0204L16.632 71.0204C14.712 71.0204 13.48 70.6044 12.696 69.6764C12.04 68.8764 11.672 67.5484 11.672 65.9004C11.672 64.0284 12.104 62.9724 13.336 61.8844ZM19.528 63.7884C18.584 63.7884 17.8 64.0444 17.32 64.5244C16.888 64.9244 16.6 65.6124 16.6 66.2204C16.6 67.1004 17.112 67.9964 17.864 68.4444C18.36 68.7484 18.952 68.8924 19.688 68.8924C20.712 68.8924 21.512 68.5724 22.056 67.9324C22.424 67.4844 22.632 66.9564 22.632 66.3804C22.632 64.7804 21.432 63.7884 19.528 63.7884ZM18.872 83.3625L18.872 76.4025C17.992 76.4825 17.544 76.6265 17.08 76.9945C16.504 77.4585 16.184 78.1785 16.184 78.9945C16.184 79.7785 16.472 80.4505 16.984 80.9145C17.208 81.1065 17.384 81.2185 17.816 81.3785L17.208 83.2665C16.44 82.8985 16.136 82.6905 15.736 82.2905C14.92 81.4585 14.504 80.3385 14.504 78.9945C14.504 76.1625 16.392 74.3705 19.384 74.3705C22.344 74.3705 24.28 76.1465 24.28 78.8825C24.28 80.7545 23.352 82.2265 21.752 82.8665C20.984 83.1705 20.408 83.2825 19.32 83.3305C19.288 83.3305 19.24 83.3305 18.872 83.3625ZM20.456 76.4505L20.456 81.2825C21.16 81.1705 21.592 80.9785 21.992 80.5785C22.424 80.1465 22.632 79.6025 22.632 78.8505C22.632 77.6025 21.8 76.6905 20.456 76.4505ZM25.624 99.2301L16.888 99.2301C16.024 99.2301 15.464 99.2621 14.808 99.3581L14.808 96.9421C15.48 97.0381 16.024 97.0701 16.888 97.0701L25.624 97.0701L25.624 94.9101C25.624 93.9661 25.592 93.2781 25.512 92.7181L27.656 92.7181C27.576 93.2941 27.544 93.9821 27.544 94.8941L27.544 101.23C27.544 102.382 27.576 102.974 27.656 103.582L25.512 103.582C25.592 102.99 25.624 102.382 25.624 101.23L25.624 99.2301ZM14.504 109.376C14.504 106.448 16.392 104.592 19.384 104.592C22.36 104.592 24.264 106.448 24.264 109.36C24.264 112.256 22.376 114.096 19.416 114.096C16.456 114.096 14.504 112.224 14.504 109.376ZM22.6 109.36C22.6 107.68 21.384 106.656 19.384 106.656C17.416 106.656 16.2 107.68 16.2 109.344C16.2 111.008 17.4 112.032 19.352 112.032C21.416 112.032 22.6 111.056 22.6 109.36ZM23.992 119.423L23.208 119.423C23.032 119.423 22.856 119.423 22.648 119.407C23.768 120.287 24.216 121.231 24.216 122.671C24.216 123.951 23.832 124.975 23.096 125.711C22.232 126.559 21.032 126.975 19.416 126.975C16.472 126.975 14.696 125.359 14.696 122.639C14.696 121.231 15.192 120.175 16.232 119.407C16.04 119.407 16.04 119.407 15.72 119.423C15.608 119.439 15.32 119.439 15.032 119.439L13.816 119.439C12.872 119.439 12.36 119.471 11.688 119.551L11.688 117.295C12.44 117.375 12.984 117.407 13.8 117.407L21.848 117.407C22.776 117.407 23.304 117.375 23.992 117.295L23.992 119.423ZM19.448 124.895C21.336 124.895 22.504 123.903 22.504 122.287C22.504 120.703 21.192 119.503 19.48 119.503C17.656 119.503 16.376 120.687 16.376 122.351C16.376 123.919 17.56 124.895 19.448 124.895Z" fill="black"/>
</svg>
