<svg width="702" height="706" viewBox="0 0 702 706" fill="none" xmlns="http://www.w3.org/2000/svg">
<path d="M358.345 543.882C341.845 511.624 376.345 507.382 391.845 511.623C406.345 511.623 399.845 516.882 456.345 527.882C512.845 538.882 562.153 519.862 583.501 511.623C599.535 492.117 606.223 494.924 607.562 498.766C644.158 466.468 635.212 502.877 626.164 525.119C707.303 504.221 672.644 534.175 645.171 551.765C712.096 570.422 662.387 580.611 629.166 583.373C638.215 609.126 632.126 611.189 627.951 609L609.501 601.248C556.983 616.644 479.371 591.268 447.345 583.373C408.845 573.882 370.845 558.882 358.345 543.882Z" fill="#F0F6F2" stroke="#646464" stroke-width="12.55"/>
<path d="M573 552.096C545.8 544.096 569.667 525.763 585 517.596C506 551.096 428.5 532.263 396.501 517.596C354 506.096 347 537.096 380 552.596C512.5 607.596 580.001 604.096 609.001 595.096C579.801 601.096 582.167 592.596 587.001 587.596C555.4 598.396 562.501 578.429 570.001 567.096C542.001 569.496 560.334 558.096 573 552.096Z" fill="#C2CDD9"/>
<path d="M336.862 465.224L337.168 465.24L337.474 465.227C423.445 461.433 477.601 450.788 510.353 428.108C543.966 404.83 553.922 369.809 554.583 321.781C555.951 222.217 459.785 153.662 343.769 152.067C227.761 150.472 129.524 216.348 128.155 315.919C127.49 364.281 139.066 400.315 172.493 424.849C205.238 448.883 257.903 461.003 336.862 465.224Z" fill="#C2CDD9" stroke="#646464" stroke-width="12.5518"/>
<path d="M208.709 574.948L203.086 572.161L202.595 573.151L202.472 574.248L208.709 574.948ZM208.709 574.948C203.086 572.161 203.087 572.158 203.089 572.154L203.093 572.147L203.101 572.131L203.119 572.095C203.132 572.069 203.148 572.039 203.165 572.005C203.2 571.937 203.245 571.854 203.298 571.756C203.405 571.561 203.549 571.308 203.732 571.006C204.097 570.402 204.622 569.599 205.325 568.668C206.729 566.81 208.863 564.415 211.881 562.093C218.02 557.37 227.505 553.196 241.105 554.04C257.107 555.034 266.874 558.945 272.82 563.248C275.79 565.398 277.722 567.587 278.955 569.415C279.568 570.323 279.998 571.127 280.295 571.773C280.444 572.096 280.559 572.378 280.646 572.614C280.69 572.731 280.727 572.837 280.758 572.931C280.774 572.977 280.788 573.021 280.8 573.061L280.818 573.119L280.826 573.146L280.83 573.159C280.832 573.166 280.834 573.172 274.815 574.948M208.709 574.948C202.472 574.248 202.472 574.249 202.472 574.249L202.472 574.25L202.471 574.254L202.47 574.268L202.464 574.318L202.443 574.512C202.424 574.68 202.397 574.928 202.363 575.246C202.295 575.883 202.197 576.805 202.08 577.954C201.847 580.252 201.535 583.463 201.221 587.12C200.597 594.386 199.95 603.594 199.923 610.906C199.922 611.057 199.921 611.209 199.921 611.361C199.893 618.4 199.865 625.41 201.667 631.678C203.651 638.579 207.718 644.311 215.06 649.205C216.854 650.401 218.996 651.137 220.91 651.639C222.919 652.165 225.162 652.554 227.456 652.849C232.046 653.438 237.29 653.707 242.147 653.813C247.031 653.921 251.655 653.867 255.05 653.787C256.75 653.747 258.15 653.7 259.128 653.663C259.617 653.645 260.002 653.629 260.266 653.617C260.303 653.616 260.338 653.614 260.37 653.613C260.453 653.609 260.521 653.606 260.572 653.604L260.653 653.6L260.676 653.599L260.683 653.598L260.685 653.598C260.686 653.598 260.686 653.598 260.38 647.33M274.815 574.948C281.026 574.052 281.026 574.053 281.026 574.053L281.027 574.054L281.027 574.057L281.029 574.067L281.034 574.105L281.055 574.251C281.073 574.378 281.099 574.563 281.133 574.802C281.2 575.28 281.295 575.972 281.412 576.834C281.645 578.558 281.962 580.967 282.297 583.711C282.962 589.161 283.717 596.083 284.011 601.6C284.291 606.859 284.449 613.491 284.538 618.758C284.582 621.402 284.61 623.723 284.626 625.382C284.631 625.868 284.634 626.297 284.637 626.661C284.913 627.284 285.245 628.085 285.57 628.996C286.251 630.901 287.249 634.21 286.917 637.5C286.446 642.162 283.48 645.311 280.775 647.236C278.057 649.171 274.832 650.449 272.064 651.31C269.228 652.191 266.48 652.75 264.477 653.09C263.464 653.261 262.618 653.38 262.014 653.457C261.711 653.496 261.468 653.524 261.294 653.544C261.207 653.554 261.137 653.561 261.085 653.566L261.021 653.573L261 653.575L260.992 653.576L260.989 653.576C260.987 653.576 260.986 653.576 260.38 647.33M274.815 574.948L281.026 574.052L280.962 573.605L280.834 573.172L274.815 574.948ZM260.38 647.33L260.686 653.598L260.836 653.591L260.986 653.576L260.38 647.33Z" fill="#C2CDD9" stroke="#646464" stroke-width="12.5518"/>
<path d="M466.047 574.948L471.67 572.161L472.161 573.151L472.284 574.248L466.047 574.948ZM466.047 574.948C471.67 572.161 471.669 572.158 471.667 572.154L471.663 572.147L471.655 572.131L471.637 572.095C471.624 572.069 471.608 572.039 471.591 572.005C471.555 571.937 471.511 571.854 471.458 571.756C471.351 571.561 471.207 571.308 471.024 571.006C470.659 570.402 470.134 569.599 469.431 568.668C468.027 566.81 465.893 564.415 462.875 562.093C456.736 557.37 447.251 553.196 433.651 554.04C417.648 555.034 407.882 558.945 401.936 563.248C398.966 565.398 397.034 567.587 395.801 569.415C395.188 570.323 394.758 571.127 394.461 571.773C394.312 572.096 394.197 572.378 394.11 572.614C394.066 572.731 394.029 572.837 393.998 572.931C393.982 572.977 393.968 573.021 393.956 573.061L393.938 573.119L393.93 573.146L393.926 573.159C393.924 573.166 393.922 573.172 399.941 574.948M466.047 574.948C472.284 574.248 472.284 574.249 472.284 574.249L472.284 574.25L472.285 574.254L472.286 574.268L472.292 574.318L472.313 574.512C472.332 574.68 472.359 574.928 472.393 575.246C472.461 575.883 472.559 576.805 472.675 577.954C472.909 580.252 473.221 583.463 473.535 587.12C474.159 594.386 474.805 603.594 474.833 610.906C474.834 611.057 474.834 611.209 474.835 611.361C474.863 618.4 474.89 625.41 473.089 631.678C471.105 638.579 467.037 644.311 459.696 649.205C457.902 650.401 455.76 651.137 453.846 651.639C451.837 652.165 449.594 652.554 447.3 652.849C442.709 653.438 437.466 653.707 432.609 653.813C427.725 653.921 423.101 653.867 419.706 653.787C418.006 653.747 416.606 653.7 415.628 653.663C415.138 653.645 414.754 653.629 414.489 653.617C414.453 653.616 414.418 653.614 414.386 653.613C414.303 653.609 414.235 653.606 414.184 653.604L414.102 653.6L414.08 653.599L414.073 653.598L414.071 653.598C414.07 653.598 414.07 653.598 414.375 647.33M399.941 574.948C393.729 574.052 393.729 574.053 393.729 574.053L393.729 574.054L393.729 574.057L393.727 574.067L393.722 574.105L393.701 574.251C393.683 574.378 393.657 574.563 393.623 574.802C393.556 575.28 393.46 575.972 393.344 576.834C393.11 578.558 392.793 580.967 392.459 583.711C391.794 589.161 391.039 596.083 390.745 601.6C390.465 606.859 390.307 613.491 390.218 618.758C390.173 621.402 390.146 623.723 390.13 625.382C390.125 625.868 390.122 626.297 390.119 626.661C389.843 627.284 389.511 628.085 389.185 628.996C388.505 630.901 387.507 634.21 387.839 637.5C388.31 642.162 391.276 645.311 393.981 647.236C396.699 649.171 399.924 650.449 402.692 651.31C405.528 652.191 408.276 652.75 410.279 653.09C411.291 653.261 412.138 653.38 412.742 653.457C413.045 653.496 413.288 653.524 413.462 653.544C413.549 653.554 413.619 653.561 413.671 653.566L413.735 653.573L413.756 653.575L413.764 653.576L413.767 653.576C413.769 653.576 413.77 653.576 414.375 647.33M399.941 574.948L393.729 574.052L393.794 573.605L393.922 573.172L399.941 574.948ZM414.375 647.33L414.07 653.598L413.92 653.591L413.77 653.576L414.375 647.33Z" fill="#C2CDD9" stroke="#646464" stroke-width="12.5518"/>
<path d="M219.531 430.328L215.837 425.256L215.625 425.41L215.427 425.581L219.531 430.328ZM219.531 430.328C215.427 425.581 215.426 425.582 215.424 425.583L215.421 425.586L215.408 425.597L215.367 425.633C215.332 425.663 215.282 425.707 215.218 425.763C215.089 425.875 214.903 426.039 214.662 426.253C214.181 426.679 213.483 427.304 212.597 428.112C210.825 429.727 208.3 432.076 205.255 435.04C199.172 440.962 190.983 449.366 182.571 459.293C165.997 478.853 147.584 505.434 144.008 531.037C143.091 537.6 142.841 543.291 145.012 548.577C147.177 553.848 151.348 557.733 156.556 561.783C162.8 566.639 171.052 567.94 178.563 566.825C186.119 565.704 193.774 562.028 199.048 555.783C201.916 552.385 203.307 548.081 204.01 545.178C204.383 543.636 204.612 542.271 204.749 541.284C205.24 540.543 205.941 539.488 206.817 538.188C208.637 535.485 211.207 531.727 214.199 527.51C220.228 519.014 227.812 508.884 234.396 501.729C238.643 497.115 242.816 492.91 246.822 488.872C248.265 487.418 249.686 485.986 251.081 484.564C256.24 479.308 261.084 474.154 264.718 469.013C264.828 468.856 264.939 468.699 265.05 468.542C267.76 464.711 270.625 460.661 272.261 456.252C274.123 451.234 274.365 445.97 272.458 439.824C270.484 433.466 267.39 427.819 262.807 423.448C258.178 419.033 252.339 416.217 245.412 415.096C238.188 413.927 230.386 417.06 225.343 419.574C222.627 420.929 220.281 422.33 218.616 423.388C217.78 423.92 217.105 424.372 216.631 424.698C216.393 424.861 216.205 424.992 216.072 425.087C216.005 425.135 215.951 425.173 215.912 425.201L215.863 425.236L215.847 425.248L215.841 425.252L215.839 425.254C215.838 425.255 215.837 425.256 219.531 430.328Z" fill="#C2CDD9" stroke="#646464" stroke-width="12.5518"/>
<path d="M457.797 430.328L461.492 425.256L461.703 425.41L461.901 425.581L457.797 430.328ZM457.797 430.328C461.901 425.581 461.902 425.582 461.904 425.583L461.908 425.586L461.92 425.597L461.961 425.633C461.996 425.663 462.046 425.707 462.11 425.763C462.239 425.875 462.425 426.039 462.666 426.253C463.147 426.679 463.845 427.304 464.731 428.112C466.503 429.727 469.028 432.076 472.073 435.04C478.156 440.962 486.345 449.366 494.757 459.293C511.331 478.853 529.744 505.434 533.32 531.037C534.237 537.6 534.488 543.291 532.316 548.577C530.151 553.848 525.98 557.733 520.772 561.783C514.528 566.639 506.276 567.94 498.765 566.825C491.209 565.704 483.554 562.028 478.281 555.783C475.412 552.385 474.021 548.081 473.319 545.178C472.945 543.636 472.716 542.271 472.579 541.284C472.089 540.543 471.387 539.488 470.511 538.188C468.691 535.485 466.121 531.727 463.129 527.51C457.1 519.014 449.516 508.884 442.932 501.729C438.685 497.115 434.512 492.91 430.506 488.872C429.063 487.418 427.642 485.986 426.247 484.564C421.088 479.308 416.244 474.154 412.61 469.013C412.5 468.856 412.389 468.699 412.278 468.542C409.568 464.711 406.703 460.661 405.067 456.252C403.205 451.234 402.963 445.97 404.87 439.824C406.844 433.466 409.938 427.819 414.522 423.448C419.151 419.033 424.989 416.217 431.916 415.096C439.14 413.927 446.942 417.06 451.985 419.574C454.701 420.929 457.047 422.33 458.712 423.388C459.548 423.92 460.223 424.372 460.697 424.698C460.935 424.861 461.123 424.992 461.257 425.087C461.323 425.135 461.377 425.173 461.416 425.201L461.465 425.236L461.481 425.248L461.487 425.252L461.489 425.254C461.491 425.255 461.492 425.256 457.797 430.328Z" fill="#C2CDD9" stroke="#646464" stroke-width="12.5518"/>
<path d="M203.577 72.6361C205.901 66.4761 213.269 64.1212 218.747 67.7735C233.238 77.4349 259.362 95.3292 276.398 109.78C288.967 120.441 304.201 135.098 314.354 145.094C319.71 150.367 317.788 159.337 310.782 162.057L184.781 210.963C177.287 213.872 169.478 207.615 170.781 199.682C173.862 180.916 178.953 151.635 183.489 133.567C188.447 113.816 197.928 87.6091 203.577 72.6361Z" fill="#646464"/>
<path d="M209.108 88.9643C211.312 82.4689 219.059 79.9765 224.637 83.9684C238.19 93.6674 261.21 110.603 276.439 124.294C287.964 134.655 301.947 148.834 311.349 158.583C316.475 163.899 314.502 172.657 307.626 175.353L196.317 218.997C188.93 221.894 181.161 215.851 182.241 207.991C184.702 190.07 188.754 162.44 192.512 145.364C196.505 127.217 204.209 103.4 209.108 88.9643Z" fill="#C2CDD9"/>
<path d="M86.9863 377.257C80.0242 375.001 77.2288 367.038 81.5376 361.784C86.1296 356.185 91.837 349.508 96.7138 344.655C100.061 341.324 104.218 337.539 108.039 334.164C113.334 329.486 122.174 331.833 125.047 338.573L140.179 374.073C143.276 381.338 137.391 388.62 129.398 387.291C121.779 386.023 113.264 384.498 107.324 383.117C101.069 381.663 93.4529 379.352 86.9863 377.257Z" fill="#646464"/>
<path d="M82.9636 314.292C77.1487 309.624 77.2722 301.093 83.1874 297.786C90.1562 293.889 98.9593 289.196 106.086 286.137C111.184 283.948 117.466 281.601 123.003 279.626C129.572 277.282 136.994 282.698 137.37 289.996L139.659 334.383C140.065 342.259 132.095 346.891 125.06 342.786C117.354 338.29 108.437 332.949 102.479 328.944C96.3194 324.804 88.977 319.12 82.9636 314.292Z" fill="#646464"/>
<path d="M88.414 306.226C88.414 306.226 106.808 295.972 119.358 291.014C130.012 286.804 146.49 281.902 146.49 281.902L150.029 345.793C150.029 345.793 127.295 333.724 116.163 326.643C104.623 319.302 88.414 306.226 88.414 306.226Z" fill="#C2CDD9"/>
<path d="M112.93 423.139C105.334 421.215 101.472 413.335 105.621 408.162C110.479 402.105 116.755 394.758 122.428 389.596C126.441 385.943 131.192 381.253 135.367 377.025C140.335 371.995 150.326 373.915 154.142 380.701L176.025 419.609C179.888 426.477 174.786 433.55 166.578 432.595C156.98 431.479 145.562 430.037 137.828 428.686C130.171 427.348 120.755 425.122 112.93 423.139Z" fill="#646464"/>
<path d="M116.455 413.355C116.455 413.355 130.427 396.596 140.427 387.596C149.356 379.56 158.427 368.096 158.427 368.096L190.824 424.926C190.824 424.926 164.39 422.778 150.98 420.744C137.08 418.635 116.455 413.355 116.455 413.355Z" fill="#C2CDD9"/>
<path d="M88.7618 369.047C88.7618 369.047 102.703 353.344 112.877 344.425C121.513 336.854 135.39 326.563 135.39 326.563L159.428 381.598C159.428 381.598 134.175 379.198 121.429 376.989C108.217 374.7 88.7618 369.047 88.7618 369.047Z" fill="#C2CDD9"/>
<path d="M601.294 378.826C607.633 376.222 609.809 368.813 605.798 363.89C601.067 358.084 594.92 350.832 589.718 345.655C586.371 342.324 582.214 338.539 578.393 335.164C573.097 330.486 564.258 332.833 561.385 339.573L545.669 376.443C542.717 383.368 547.939 390.428 555.597 389.643C563.856 388.797 573.495 387.593 579.926 386.098C586.646 384.537 594.744 381.517 601.294 378.826Z" fill="#646464"/>
<path d="M602.499 315.621C608.63 310.989 608.501 302.089 602.269 298.81C594.935 294.951 585.75 290.346 578.296 287.331C572.589 285.022 565.479 282.536 559.383 280.499C552.838 278.313 545.593 283.643 545.2 290.831L542.742 335.759C542.315 343.551 550.119 348.275 557.16 344.414C565.546 339.815 575.534 334.197 582.115 330.029C588.542 325.959 596.186 320.392 602.499 315.621Z" fill="#646464"/>
<path d="M598.018 307.23C598.018 307.23 579.624 296.976 567.073 292.017C556.419 287.808 539.942 282.906 539.942 282.906L536.402 346.797C536.402 346.797 559.137 334.728 570.269 327.647C581.808 320.306 598.018 307.23 598.018 307.23Z" fill="#C2CDD9"/>
<path d="M575.921 425.551C583.302 423.768 587.542 416.536 584.034 411.446C579.837 405.357 574.053 397.854 567.928 392.602C562.907 388.296 556.039 382.166 550.361 377.054C545.352 372.544 535.729 374.66 531.876 381.137L507.089 422.806C503.08 429.546 507.962 436.435 516.188 435.541C526.57 434.412 539.262 432.915 547.756 431.517C556.461 430.085 567.313 427.629 575.921 425.551Z" fill="#646464"/>
<path d="M569.977 414.359C569.977 414.359 556.004 397.6 546.004 388.6C537.075 380.564 528.004 369.1 528.004 369.1L495.608 425.93C495.608 425.93 522.041 423.782 535.451 421.748C549.351 419.639 569.977 414.359 569.977 414.359Z" fill="#C2CDD9"/>
<path d="M597.67 370.047C597.67 370.047 583.728 354.344 573.555 345.425C564.919 337.854 551.041 327.563 551.041 327.563L527.003 382.598C527.003 382.598 552.257 380.198 565.003 377.989C578.215 375.7 597.67 370.047 597.67 370.047Z" fill="#C2CDD9"/>
<path d="M477.497 72.6361C475.173 66.4761 467.805 64.1212 462.327 67.7735C447.836 77.4349 421.713 95.3292 404.676 109.78C392.107 120.441 376.873 135.098 366.72 145.094C361.365 150.367 363.286 159.337 370.292 162.057L496.293 210.963C503.787 213.872 511.596 207.615 510.293 199.682C507.212 180.916 502.121 151.635 497.585 133.567C492.627 113.816 483.146 87.6091 477.497 72.6361Z" fill="#646464"/>
<path d="M471.967 88.9643C469.762 82.4689 462.015 79.9765 456.437 83.9684C442.884 93.6674 419.864 110.603 404.635 124.294C393.11 134.655 379.127 148.834 369.726 158.583C364.599 163.899 366.573 172.657 373.449 175.353L484.757 218.997C492.144 221.894 499.913 215.851 498.833 207.991C496.373 190.07 492.32 162.44 488.562 145.364C484.569 127.217 476.865 103.4 471.967 88.9643Z" fill="#C2CDD9"/>
<path d="M212.05 437.941L206.888 434.372L206.198 435.369L205.93 436.552L212.05 437.941ZM212.05 437.941C206.888 434.372 206.889 434.37 206.89 434.368L206.893 434.364L206.9 434.354L206.917 434.329L206.966 434.259C207.005 434.204 207.057 434.132 207.122 434.044C207.25 433.867 207.428 433.626 207.654 433.333C208.105 432.747 208.75 431.944 209.569 431.014C211.191 429.174 213.574 426.746 216.559 424.533C222.391 420.208 231.856 415.827 242.368 420.752C275.043 436.059 315.136 442.997 351.797 442.586C388.709 442.173 420.825 434.336 438.258 421.396C442.96 417.906 448.26 418.393 452.32 419.854C456.291 421.283 459.988 423.91 462.941 426.4C465.968 428.952 468.612 431.703 470.473 433.777C471.412 434.823 472.17 435.718 472.701 436.36C472.966 436.681 473.176 436.94 473.323 437.124C473.396 437.216 473.454 437.29 473.496 437.343L473.547 437.407L473.562 437.427L473.568 437.434L473.57 437.437C473.571 437.438 473.572 437.44 468.615 441.288M212.05 437.941C205.93 436.552 205.929 436.552 205.929 436.553L205.929 436.555L205.927 436.562L205.921 436.588L205.9 436.683C205.881 436.766 205.854 436.888 205.818 437.048C205.747 437.366 205.644 437.834 205.512 438.438C205.248 439.647 204.871 441.402 204.415 443.603C203.501 448.003 202.267 454.193 200.98 461.365C198.418 475.654 195.609 494.052 194.768 509.99L194.76 510.143C193.282 538.155 191.839 565.511 206.579 591.733C210.412 598.552 218.582 603.097 227.308 606.353C236.391 609.742 247.65 612.289 259.585 614.196C283.497 618.015 311.1 619.409 331.71 619.409H332.012C358.634 619.41 388.38 619.41 413.475 615.469C426.091 613.487 437.879 610.463 447.677 605.744C457.502 601.012 465.696 594.391 470.445 585.063C484.887 556.694 483.614 537.4 481.652 507.675C481.609 507.031 481.566 506.381 481.523 505.727C480.508 490.284 478.834 473.961 477.419 461.528C476.71 455.304 476.065 450.041 475.597 446.331C475.362 444.476 475.172 443.009 475.04 442.003C474.974 441.501 474.923 441.114 474.888 440.851L474.848 440.552L474.838 440.475L474.835 440.454L474.834 440.449L474.834 440.447C474.834 440.447 474.834 440.447 468.615 441.288M468.615 441.288L473.572 437.44L474.608 438.773L474.834 440.447L468.615 441.288Z" fill="#C2CDD9" stroke="#646464" stroke-width="12.5518"/>
<path d="M548.306 321.696C547.002 416.579 509.23 451.777 337.19 459.401C179.537 450.952 132.965 410.446 134.27 315.562C208.95 380.405 250.843 402.291 337.193 405.792C428.689 409.501 484.251 396.552 548.306 321.696Z" fill="#C2CDD9"/>
<path d="M386.018 355.832C346.895 320.996 317.486 341.317 307.672 355.832C166.949 365.412 194.894 401.265 227.33 415.925C337.513 451.457 433.092 428.262 475.841 412.006C540.114 376.821 442.74 359.897 386.018 355.832Z" fill="#F0F6F2"/>
<path d="M344.737 344.779C343.937 344.832 340.942 344.833 341.693 343.185C342.223 342.023 345.577 342.442 345.317 343.873C345.038 345.406 342.288 344.929 341.295 344.851C339.762 344.731 338.662 344.965 338.559 343.112C338.363 339.581 342.512 340.966 344.827 341.482C345.777 341.693 349.453 342.237 349.664 343.909C349.761 344.671 348.515 345.453 347.925 345.612C346.66 345.953 345.7 345.027 344.519 344.851C343.959 344.768 339.84 345.139 340.443 343.819C341.302 341.94 343.987 340.434 345.878 341.355C346.604 341.709 347.45 341.776 346.838 342.387C345.977 343.249 345.588 344.533 344.9 345.521C343.392 347.685 340.422 344.654 339.302 343.366C337.56 341.363 338.57 340.163 340.824 340.286C342.304 340.367 347.46 339.929 348.251 341.445C348.512 341.945 349.445 345.462 348.994 345.757C347.952 346.439 345.551 345.105 344.773 344.67C343.927 344.198 342.705 343.334 342.092 342.496C340.369 340.14 342.612 342.97 342.128 341.518" stroke="#6D82A1" stroke-width="3.34714" stroke-linecap="round"/>
<path d="M271.928 332.098L256.428 331.098C256.428 331.098 257.927 337.598 264.928 337.598C271.928 337.598 271.928 334.098 271.928 332.098Z" stroke="#646464" stroke-width="12.55"/>
<path d="M414.427 332.598L429.928 331.598C429.928 331.598 428.428 338.098 421.428 338.098C414.427 338.098 414.427 334.598 414.427 332.598Z" stroke="#646464" stroke-width="12.55"/>
<path d="M285.94 444.18C285.94 444.18 341.066 438.369 394.856 444.18C406.394 445.427 418.192 446.417 423.087 452.033C432.433 462.754 417.479 474.964 403.821 481.872C390.469 488.625 369.387 494.41 346.025 494.593C321.798 494.783 302.153 489.096 285.94 481.872C271.718 475.535 256.496 462.857 265.911 452.033C270.956 446.234 285.94 444.18 285.94 444.18Z" fill="black" fill-opacity="0.05"/>
</svg>
