<svg width="449" height="517" viewBox="0 0 449 517" fill="none" xmlns="http://www.w3.org/2000/svg">
<path d="M222.868 321.626L223.174 321.643L223.48 321.629C309.451 317.835 363.607 307.19 396.358 284.51C429.972 261.233 439.928 226.211 440.588 178.183C441.957 78.6193 345.791 10.0642 229.775 8.46937C113.767 6.87464 15.5296 72.7503 14.1608 172.321C13.496 220.684 25.0715 256.717 58.4986 281.251C91.2434 305.285 143.909 317.405 222.868 321.626Z" fill="#B4A38D" stroke="#646464" stroke-width="12.5518"/>
<path d="M94.7146 431.35L89.0914 428.564L88.601 429.553L88.4778 430.651L94.7146 431.35ZM94.7146 431.35C89.0914 428.564 89.0931 428.56 89.0948 428.557L89.0985 428.549L89.1064 428.533L89.1247 428.497C89.1379 428.471 89.1534 428.441 89.171 428.407C89.2063 428.339 89.2506 428.256 89.304 428.158C89.4108 427.963 89.5545 427.71 89.7375 427.408C90.1031 426.804 90.6281 426.001 91.3311 425.07C92.7344 423.212 94.8689 420.818 97.887 418.496C104.026 413.772 113.511 409.599 127.111 410.443C143.113 411.436 152.88 415.347 158.826 419.651C161.796 421.8 163.728 423.989 164.961 425.817C165.574 426.725 166.004 427.53 166.301 428.176C166.45 428.498 166.564 428.781 166.652 429.016C166.696 429.134 166.733 429.24 166.764 429.333C166.779 429.38 166.794 429.423 166.806 429.463L166.824 429.521L166.832 429.548L166.836 429.561C166.838 429.568 166.84 429.574 160.821 431.35M94.7146 431.35C88.4778 430.651 88.4778 430.651 88.4778 430.651L88.4776 430.652L88.4772 430.656L88.4757 430.67L88.47 430.721L88.4487 430.914C88.4301 431.083 88.4032 431.33 88.369 431.648C88.3005 432.285 88.2031 433.207 88.0862 434.357C87.8526 436.654 87.5405 439.865 87.2267 443.522C86.6031 450.789 85.9563 459.996 85.9284 467.308C85.9278 467.46 85.9272 467.611 85.9266 467.763C85.8989 474.802 85.8713 481.813 87.6732 488.081C89.6568 494.981 93.7243 500.713 101.066 505.607C102.86 506.803 105.001 507.54 106.916 508.041C108.924 508.568 111.168 508.956 113.462 509.251C118.052 509.84 123.296 510.109 128.153 510.216C133.036 510.323 137.661 510.269 141.056 510.189C142.756 510.149 144.156 510.103 145.134 510.066C145.623 510.047 146.008 510.031 146.272 510.02C146.309 510.018 146.344 510.017 146.376 510.015C146.459 510.011 146.527 510.008 146.578 510.006L146.659 510.002L146.682 510.001L146.689 510.001L146.691 510.001C146.691 510.001 146.692 510.001 146.386 503.732M160.821 431.35C167.032 430.455 167.032 430.455 167.032 430.455L167.032 430.456L167.033 430.459L167.034 430.47L167.04 430.508L167.061 430.653C167.079 430.78 167.105 430.966 167.138 431.205C167.205 431.683 167.301 432.374 167.418 433.237C167.651 434.96 167.968 437.369 168.303 440.114C168.968 445.563 169.722 452.486 170.016 458.003C170.297 463.261 170.455 469.893 170.544 475.16C170.588 477.805 170.616 480.125 170.632 481.785C170.636 482.27 170.64 482.699 170.643 483.063C170.918 483.686 171.251 484.488 171.576 485.399C172.256 487.303 173.255 490.612 172.922 493.903C172.452 498.564 169.486 501.714 166.781 503.639C164.062 505.573 160.838 506.852 158.07 507.712C155.234 508.593 152.486 509.153 150.482 509.492C149.47 509.663 148.624 509.782 148.02 509.86C147.717 509.898 147.474 509.927 147.3 509.946C147.213 509.956 147.143 509.963 147.091 509.969L147.027 509.975L147.006 509.977L146.998 509.978L146.995 509.979C146.993 509.979 146.992 509.979 146.386 503.732M160.821 431.35L167.032 430.455L166.968 430.008L166.84 429.574L160.821 431.35ZM146.386 503.732L146.692 510.001L146.842 509.993L146.992 509.979L146.386 503.732Z" fill="#B4A38D" stroke="#646464" stroke-width="12.5518"/>
<path d="M352.053 431.35L357.676 428.564L358.167 429.553L358.29 430.651L352.053 431.35ZM352.053 431.35C357.676 428.564 357.674 428.56 357.673 428.557L357.669 428.549L357.661 428.533L357.643 428.497C357.63 428.471 357.614 428.441 357.597 428.407C357.561 428.339 357.517 428.256 357.464 428.158C357.357 427.963 357.213 427.71 357.03 427.408C356.664 426.804 356.139 426.001 355.437 425.07C354.033 423.212 351.899 420.818 348.881 418.496C342.742 413.772 333.257 409.599 319.657 410.443C303.654 411.436 293.887 415.347 287.942 419.651C284.972 421.8 283.04 423.989 281.807 425.817C281.194 426.725 280.764 427.53 280.466 428.176C280.318 428.498 280.203 428.781 280.116 429.016C280.072 429.134 280.035 429.24 280.004 429.333C279.988 429.38 279.974 429.423 279.961 429.463L279.944 429.521L279.935 429.548L279.931 429.561C279.93 429.568 279.928 429.574 285.947 431.35M352.053 431.35C358.29 430.651 358.29 430.651 358.29 430.651L358.29 430.652L358.29 430.656L358.292 430.67L358.298 430.721L358.319 430.914C358.337 431.083 358.364 431.33 358.399 431.648C358.467 432.285 358.564 433.207 358.681 434.357C358.915 436.654 359.227 439.865 359.541 443.522C360.164 450.789 360.811 459.996 360.839 467.308C360.84 467.46 360.84 467.611 360.841 467.763C360.869 474.802 360.896 481.813 359.094 488.081C357.111 494.981 353.043 500.713 345.702 505.607C343.908 506.803 341.766 507.54 339.852 508.041C337.843 508.568 335.599 508.956 333.306 509.251C328.715 509.84 323.472 510.109 318.615 510.216C313.731 510.323 309.107 510.269 305.712 510.189C304.011 510.149 302.612 510.103 301.634 510.066C301.144 510.047 300.76 510.031 300.495 510.02C300.458 510.018 300.424 510.017 300.392 510.015C300.308 510.011 300.241 510.008 300.19 510.006L300.108 510.002L300.086 510.001L300.079 510.001L300.077 510.001C300.076 510.001 300.076 510.001 300.381 503.732M285.947 431.35C279.735 430.455 279.735 430.455 279.735 430.455L279.735 430.456L279.735 430.459L279.733 430.47L279.728 430.508L279.707 430.653C279.689 430.78 279.663 430.966 279.629 431.205C279.562 431.683 279.466 432.374 279.35 433.237C279.116 434.96 278.799 437.369 278.464 440.114C277.8 445.563 277.045 452.486 276.751 458.003C276.471 463.261 276.312 469.893 276.224 475.16C276.179 477.805 276.152 480.125 276.136 481.785C276.131 482.27 276.127 482.699 276.124 483.063C275.849 483.686 275.517 484.488 275.191 485.399C274.511 487.303 273.513 490.612 273.845 493.903C274.316 498.564 277.281 501.714 279.987 503.639C282.705 505.573 285.93 506.852 288.698 507.712C291.534 508.593 294.282 509.153 296.285 509.492C297.297 509.663 298.144 509.782 298.748 509.86C299.05 509.898 299.293 509.927 299.468 509.946C299.555 509.956 299.625 509.963 299.677 509.969L299.74 509.975L299.762 509.977L299.77 509.978L299.773 509.979C299.775 509.979 299.776 509.979 300.381 503.732M285.947 431.35L279.735 430.455L279.8 430.008L279.928 429.574L285.947 431.35ZM300.381 503.732L300.076 510.001L299.925 509.993L299.776 509.979L300.381 503.732Z" fill="#B4A38D" stroke="#646464" stroke-width="12.5518"/>
<path d="M105.537 286.731L101.842 281.658L101.631 281.812L101.433 281.983L105.537 286.731ZM105.537 286.731C101.433 281.983 101.432 281.984 101.43 281.985L101.426 281.989L101.414 281.999L101.373 282.035C101.338 282.065 101.288 282.109 101.224 282.165C101.095 282.278 100.909 282.442 100.668 282.655C100.187 283.082 99.4886 283.707 98.6026 284.514C96.8308 286.13 94.3059 288.479 91.2612 291.442C85.1778 297.364 76.9891 305.768 68.5771 315.695C52.0027 335.255 33.5903 361.836 30.0138 387.439C29.0971 394.002 28.8464 399.693 31.0178 404.98C33.1829 410.251 37.3544 414.135 42.562 418.185C48.8063 423.042 57.0581 424.343 64.5688 423.228C72.125 422.106 79.7799 418.431 85.0534 412.185C87.9216 408.788 89.3127 404.484 90.0155 401.58C90.3888 400.038 90.6178 398.673 90.7549 397.686C91.2454 396.945 91.9469 395.891 92.8229 394.59C94.6433 391.888 97.2129 388.13 100.205 383.912C106.234 375.417 113.818 365.287 120.402 358.132C124.649 353.517 128.822 349.312 132.828 345.275C134.271 343.821 135.692 342.388 137.087 340.967C142.246 335.71 147.09 330.557 150.724 325.415C150.834 325.259 150.945 325.102 151.056 324.945C153.766 321.113 156.631 317.063 158.267 312.654C160.129 307.636 160.371 302.373 158.464 296.226C156.49 289.868 153.396 284.221 148.812 279.85C144.183 275.435 138.345 272.619 131.418 271.498C124.194 270.329 116.392 273.462 111.349 275.977C108.633 277.331 106.287 278.732 104.622 279.791C103.786 280.323 103.111 280.775 102.637 281.1C102.399 281.263 102.211 281.395 102.077 281.49C102.011 281.537 101.957 281.575 101.918 281.603L101.869 281.638L101.853 281.65L101.847 281.654L101.845 281.656C101.843 281.657 101.842 281.658 105.537 286.731Z" fill="#B4A38D" stroke="#646464" stroke-width="12.5518"/>
<path d="M343.802 286.731L347.497 281.658L347.709 281.812L347.907 281.983L343.802 286.731ZM343.802 286.731C347.907 281.983 347.908 281.984 347.91 281.985L347.913 281.989L347.926 281.999L347.967 282.035C348.002 282.065 348.052 282.109 348.116 282.165C348.245 282.278 348.431 282.442 348.672 282.655C349.153 283.082 349.851 283.707 350.737 284.514C352.509 286.13 355.034 288.479 358.079 291.442C364.162 297.364 372.351 305.768 380.763 315.695C397.337 335.255 415.75 361.836 419.326 387.439C420.243 394.002 420.493 399.693 418.322 404.98C416.157 410.251 411.985 414.135 406.778 418.185C400.534 423.042 392.282 424.343 384.771 423.228C377.215 422.106 369.56 418.431 364.286 412.185C361.418 408.788 360.027 404.484 359.324 401.58C358.951 400.038 358.722 398.673 358.585 397.686C358.094 396.945 357.393 395.891 356.517 394.59C354.697 391.888 352.127 388.13 349.135 383.912C343.106 375.417 335.522 365.287 328.938 358.132C324.691 353.517 320.518 349.312 316.512 345.275C315.069 343.821 313.648 342.388 312.253 340.967C307.094 335.71 302.25 330.557 298.616 325.415C298.506 325.259 298.395 325.102 298.284 324.945C295.574 321.113 292.709 317.063 291.073 312.654C289.211 307.636 288.969 302.373 290.876 296.226C292.85 289.868 295.944 284.221 300.527 279.85C305.156 275.435 310.995 272.619 317.922 271.498C325.146 270.329 332.948 273.462 337.991 275.977C340.707 277.331 343.053 278.732 344.718 279.791C345.554 280.323 346.229 280.775 346.703 281.1C346.941 281.263 347.129 281.395 347.262 281.49C347.329 281.537 347.383 281.575 347.422 281.603L347.471 281.638L347.487 281.65L347.493 281.654L347.495 281.656C347.496 281.657 347.497 281.658 343.802 286.731Z" fill="#B4A38D" stroke="#646464" stroke-width="12.5518"/>
<path d="M98.0536 294.343L92.8914 290.774L92.2019 291.772L91.9335 292.954L98.0536 294.343ZM98.0536 294.343C92.8914 290.774 92.8927 290.772 92.8941 290.77L92.8971 290.766L92.9039 290.756L92.9212 290.731L92.9703 290.662C93.0094 290.607 93.0612 290.534 93.1255 290.446C93.2538 290.269 93.4323 290.029 93.6582 289.735C94.1092 289.149 94.7543 288.346 95.5732 287.416C97.1945 285.576 99.5781 283.149 102.563 280.935C108.395 276.61 117.86 272.229 128.372 277.154C161.047 292.461 201.14 299.399 237.801 298.989C274.713 298.576 306.829 290.738 324.262 277.798C328.964 274.308 334.264 274.795 338.324 276.256C342.295 277.686 345.992 280.313 348.945 282.802C351.972 285.354 354.615 288.105 356.477 290.179C357.415 291.225 358.174 292.121 358.705 292.763C358.97 293.084 359.18 293.343 359.327 293.527C359.4 293.619 359.458 293.692 359.5 293.745L359.55 293.809L359.566 293.83L359.572 293.837L359.574 293.84C359.575 293.841 359.576 293.842 354.619 297.69M98.0536 294.343C91.9335 292.954 91.9334 292.954 91.9332 292.955L91.9327 292.957L91.9311 292.964L91.9253 292.99L91.9038 293.086C91.8851 293.169 91.8577 293.291 91.8222 293.45C91.7512 293.769 91.6478 294.237 91.5159 294.841C91.2523 296.049 90.8753 297.804 90.4185 300.005C89.505 304.406 88.2706 310.596 86.9843 317.767C84.4215 332.056 81.6132 350.455 80.7723 366.392L80.7642 366.545C79.2862 394.558 77.8428 421.913 92.5829 448.135C96.416 454.954 104.586 459.499 113.312 462.755C122.395 466.144 133.654 468.692 145.589 470.598C169.5 474.418 197.104 475.812 217.714 475.812H218.016C244.638 475.812 274.384 475.812 299.479 471.871C312.095 469.89 323.883 466.865 333.681 462.147C343.506 457.415 351.7 450.793 356.449 441.465C370.891 413.096 369.618 393.802 367.656 364.077C367.613 363.433 367.57 362.784 367.527 362.13C366.512 346.687 364.838 330.363 363.423 317.93C362.714 311.706 362.069 306.443 361.601 302.733C361.366 300.878 361.176 299.411 361.044 298.406C360.978 297.903 360.927 297.516 360.892 297.253L360.852 296.954L360.842 296.877L360.839 296.857L360.838 296.851L360.838 296.85C360.838 296.849 360.838 296.849 354.619 297.69M354.619 297.69L359.576 293.842L360.611 295.176L360.838 296.849L354.619 297.69Z" fill="#B4A38D" stroke="#646464" stroke-width="12.5518"/>
<path d="M434.312 178.098C433.008 272.982 395.236 308.18 223.196 315.803C65.5429 307.355 18.971 266.848 20.2754 171.965C94.9556 236.807 136.849 258.694 223.199 262.194C314.695 265.904 370.257 252.954 434.312 178.098Z" fill="#B4A38D"/>
<path opacity="0.1" d="M168.107 285.593C168.107 285.593 223.291 278.529 277.139 285.593C288.689 287.108 300.499 288.312 305.399 295.139C314.755 308.173 299.786 323.017 286.113 331.415C272.747 339.625 251.643 346.657 228.256 346.88C204.003 347.111 184.337 340.198 168.107 331.415C153.87 323.711 138.631 308.298 148.057 295.139C153.107 288.089 168.107 285.593 168.107 285.593Z" fill="#646464"/>
<path d="M215.52 212.104C217.298 212.104 222.402 214.697 223.526 213.266C224.166 212.453 225.108 211.92 225.964 211.378C227.019 210.708 227.076 210.165 227.788 209.424C228.441 208.745 228.605 207.954 229.112 207.39C229.606 206.841 230.029 207.604 230.435 208.068C231.181 208.92 232.123 209.143 233.05 209.779C234.672 210.891 236.69 211.755 238.555 212.508C240.216 213.178 241.396 213.33 243.188 213.266C244.704 213.212 245.614 212.166 246.901 211.523" stroke="#676564" stroke-width="6.69428" stroke-linecap="round"/>
<path d="M229.745 201.181C228.944 201.234 225.95 201.235 226.701 199.587C227.231 198.426 230.584 198.844 230.324 200.275C230.046 201.809 227.296 201.332 226.303 201.254C224.77 201.133 223.67 201.367 223.567 199.514C223.371 195.983 227.52 197.368 229.835 197.884C230.785 198.096 234.461 198.64 234.672 200.311C234.769 201.073 233.522 201.855 232.933 202.014C231.668 202.356 230.708 201.43 229.527 201.254C228.967 201.17 224.847 201.542 225.451 200.221C226.31 198.343 228.995 196.836 230.886 197.757C231.612 198.111 232.458 198.178 231.846 198.79C230.984 199.651 230.596 200.936 229.908 201.924C228.4 204.087 225.43 201.056 224.31 199.768C222.568 197.765 223.578 196.565 225.832 196.688C227.312 196.769 232.468 196.332 233.259 197.848C233.52 198.347 234.453 201.864 234.002 202.159C232.959 202.841 230.559 201.507 229.781 201.072C228.935 200.6 227.712 199.737 227.1 198.898C225.377 196.542 227.62 199.373 227.136 197.92" stroke="#B36A60" stroke-width="3.34714" stroke-linecap="round"/>
<path d="M151.766 183.939C146.379 183.939 141.891 180.719 141.891 187.34C141.891 189.991 148.457 197.034 150.23 192.223C153.426 183.548 141.013 181.398 141.013 186.901C141.013 190.43 147.337 193.102 149.736 190.303C153.648 185.739 142.809 182.122 141.891 184.378C140.106 188.758 151.338 197.646 152.534 187.779C153.037 183.634 147.343 184.888 144.743 184.926C129.165 185.155 150.778 202.166 150.778 189.864" stroke="#646464" stroke-width="5.06736" stroke-linecap="round"/>
<path d="M322.686 183.939C317.299 183.939 312.81 180.719 312.81 187.34C312.81 189.991 319.377 197.034 321.15 192.223C324.346 183.548 311.933 181.398 311.933 186.901C311.933 190.43 318.257 193.102 320.656 190.303C324.567 185.739 313.729 182.122 312.81 184.378C311.026 188.758 322.258 197.646 323.454 187.779C323.956 183.634 318.263 184.888 315.663 184.926C300.085 185.155 321.698 202.166 321.698 189.864" stroke="#646464" stroke-width="5.06736" stroke-linecap="round"/>
<path d="M122.154 29.8972L20.6536 118.397C-8.84655 72.8972 14.1313 31.973 36.0175 19.1748C72.2835 -5.30092 108.117 13.4099 122.154 29.8972Z" stroke="#646464" stroke-width="13.13" stroke-linecap="round" stroke-linejoin="round"/>
<path d="M133.983 44.9207L35.2098 126.984C-10.6688 73.3943 18.4147 35.5684 41.487 22.6655C79.7331 -1.98514 119 22.6654 133.983 44.9207Z" fill="#B4A38D"/>
<path d="M326.257 29.8972L427.757 118.397C457.257 72.8972 434.279 31.973 412.393 19.1748C376.127 -5.30092 340.293 13.4099 326.257 29.8972Z" stroke="#646464" stroke-width="13.13" stroke-linecap="round" stroke-linejoin="round"/>
<path d="M314.428 44.9207L413.2 126.984C459.079 73.3943 429.995 35.5684 406.923 22.6655C368.677 -1.98514 329.411 22.6654 314.428 44.9207Z" fill="#B4A38D"/>
</svg>
