<svg width="449" height="517" viewBox="0 0 449 517" fill="none" xmlns="http://www.w3.org/2000/svg">
<path d="M223.435 321.626L223.741 321.643L224.046 321.629C310.018 317.835 364.174 307.19 396.925 284.51C430.539 261.233 440.495 226.211 441.155 178.183C442.524 78.6193 346.358 10.0642 230.341 8.46937C114.334 6.87464 16.096 72.7503 14.7272 172.321C14.0624 220.684 25.6379 256.717 59.065 281.251C91.8099 305.285 144.476 317.405 223.435 321.626Z" fill="#F7FBF8" stroke="#646464" stroke-width="12.5518"/>
<path d="M95.281 431.35L89.6578 428.564L89.1674 429.553L89.0442 430.651L95.281 431.35ZM95.281 431.35C89.6578 428.564 89.6595 428.56 89.6612 428.557L89.6649 428.549L89.6728 428.533L89.6911 428.497C89.7043 428.471 89.7198 428.441 89.7374 428.407C89.7728 428.339 89.817 428.256 89.8704 428.158C89.9772 427.963 90.1209 427.71 90.3039 427.408C90.6696 426.804 91.1945 426.001 91.8975 425.07C93.3008 423.212 95.4353 420.818 98.4534 418.496C104.592 413.772 114.077 409.599 127.677 410.443C143.68 411.436 153.446 415.347 159.392 419.651C162.362 421.8 164.294 423.989 165.527 425.817C166.14 426.725 166.57 427.53 166.868 428.176C167.016 428.498 167.131 428.781 167.218 429.016C167.262 429.134 167.299 429.24 167.33 429.333C167.346 429.38 167.36 429.423 167.373 429.463L167.39 429.521L167.399 429.548L167.403 429.561C167.404 429.568 167.406 429.574 161.387 431.35M95.281 431.35C89.0442 430.651 89.0442 430.651 89.0442 430.651L89.044 430.652L89.0436 430.656L89.0421 430.67L89.0364 430.721L89.0151 430.914C88.9965 431.083 88.9696 431.33 88.9354 431.648C88.8669 432.285 88.7695 433.207 88.6526 434.357C88.419 436.654 88.1069 439.865 87.7931 443.522C87.1695 450.789 86.5227 459.996 86.4948 467.308C86.4942 467.46 86.4936 467.611 86.493 467.763C86.4653 474.802 86.4377 481.813 88.2396 488.081C90.2232 494.981 94.2907 500.713 101.632 505.607C103.426 506.803 105.568 507.54 107.482 508.041C109.491 508.568 111.735 508.956 114.028 509.251C118.619 509.84 123.862 510.109 128.719 510.216C133.603 510.323 138.227 510.269 141.622 510.189C143.322 510.149 144.722 510.103 145.7 510.066C146.19 510.047 146.574 510.031 146.839 510.02C146.876 510.018 146.91 510.017 146.942 510.015C147.026 510.011 147.093 510.008 147.144 510.006L147.226 510.002L147.248 510.001L147.255 510.001L147.257 510.001C147.258 510.001 147.258 510.001 146.953 503.732M161.387 431.35C167.599 430.455 167.599 430.455 167.599 430.455L167.599 430.456L167.599 430.459L167.601 430.47L167.606 430.508L167.627 430.653C167.645 430.78 167.671 430.966 167.705 431.205C167.772 431.683 167.868 432.374 167.984 433.237C168.218 434.96 168.535 437.369 168.87 440.114C169.534 445.563 170.289 452.486 170.583 458.003C170.863 463.261 171.022 469.893 171.11 475.16C171.155 477.805 171.182 480.125 171.198 481.785C171.203 482.27 171.207 482.699 171.21 483.063C171.485 483.686 171.817 484.488 172.143 485.399C172.823 487.303 173.821 490.612 173.489 493.903C173.018 498.564 170.053 501.714 167.347 503.639C164.629 505.573 161.404 506.852 158.636 507.712C155.8 508.593 153.052 509.153 151.049 509.492C150.037 509.663 149.19 509.782 148.586 509.86C148.284 509.898 148.04 509.927 147.866 509.946C147.779 509.956 147.709 509.963 147.657 509.969L147.594 509.975L147.572 509.977L147.564 509.978L147.561 509.979C147.559 509.979 147.558 509.979 146.953 503.732M161.387 431.35L167.599 430.455L167.534 430.008L167.406 429.574L161.387 431.35ZM146.953 503.732L147.258 510.001L147.408 509.993L147.558 509.979L146.953 503.732Z" fill="#F7FBF8" stroke="#646464" stroke-width="12.5518"/>
<path d="M352.619 431.35L358.243 428.564L358.733 429.553L358.856 430.651L352.619 431.35ZM352.619 431.35C358.243 428.564 358.241 428.56 358.239 428.557L358.236 428.549L358.228 428.533L358.209 428.497C358.196 428.471 358.181 428.441 358.163 428.407C358.128 428.339 358.083 428.256 358.03 428.158C357.923 427.963 357.779 427.71 357.596 427.408C357.231 426.804 356.706 426.001 356.003 425.07C354.6 423.212 352.465 420.818 349.447 418.496C343.308 413.772 333.823 409.599 320.223 410.443C304.221 411.436 294.454 415.347 288.508 419.651C285.538 421.8 283.606 423.989 282.373 425.817C281.76 426.725 281.33 427.53 281.033 428.176C280.884 428.498 280.77 428.781 280.682 429.016C280.638 429.134 280.601 429.24 280.57 429.333C280.554 429.38 280.54 429.423 280.528 429.463L280.51 429.521L280.502 429.548L280.498 429.561C280.496 429.568 280.494 429.574 286.513 431.35M352.619 431.35C358.856 430.651 358.856 430.651 358.856 430.651L358.856 430.652L358.857 430.656L358.858 430.67L358.864 430.721L358.885 430.914C358.904 431.083 358.931 431.33 358.965 431.648C359.033 432.285 359.131 433.207 359.248 434.357C359.481 436.654 359.793 439.865 360.107 443.522C360.731 450.789 361.378 459.996 361.406 467.308C361.406 467.46 361.407 467.611 361.407 467.763C361.435 474.802 361.463 481.813 359.661 488.081C357.677 494.981 353.61 500.713 346.268 505.607C344.474 506.803 342.333 507.54 340.418 508.041C338.41 508.568 336.166 508.956 333.872 509.251C329.282 509.84 324.038 510.109 319.181 510.216C314.298 510.323 309.673 510.269 306.278 510.189C304.578 510.149 303.178 510.103 302.2 510.066C301.711 510.047 301.326 510.031 301.062 510.02C301.025 510.018 300.99 510.017 300.958 510.015C300.875 510.011 300.807 510.008 300.756 510.006L300.675 510.002L300.652 510.001L300.645 510.001L300.643 510.001C300.643 510.001 300.642 510.001 300.948 503.732M286.513 431.35C280.302 430.455 280.302 430.455 280.302 430.455L280.302 430.456L280.301 430.459L280.3 430.47L280.294 430.508L280.273 430.653C280.255 430.78 280.229 430.966 280.196 431.205C280.129 431.683 280.033 432.374 279.916 433.237C279.683 434.96 279.366 437.369 279.031 440.114C278.366 445.563 277.612 452.486 277.317 458.003C277.037 463.261 276.879 469.893 276.79 475.16C276.746 477.805 276.718 480.125 276.702 481.785C276.698 482.27 276.694 482.699 276.691 483.063C276.416 483.686 276.083 484.488 275.758 485.399C275.078 487.303 274.079 490.612 274.412 493.903C274.882 498.564 277.848 501.714 280.553 503.639C283.272 505.573 286.496 506.852 289.264 507.712C292.1 508.593 294.848 509.153 296.852 509.492C297.864 509.663 298.71 509.782 299.314 509.86C299.617 509.898 299.86 509.927 300.034 509.946C300.121 509.956 300.191 509.963 300.243 509.969L300.307 509.975L300.328 509.977L300.336 509.978L300.339 509.979C300.341 509.979 300.342 509.979 300.948 503.732M286.513 431.35L280.302 430.455L280.366 430.008L280.494 429.574L286.513 431.35ZM300.948 503.732L300.642 510.001L300.492 509.993L300.342 509.979L300.948 503.732Z" fill="#F7FBF8" stroke="#646464" stroke-width="12.5518"/>
<path d="M106.104 286.731L102.409 281.658L102.197 281.812L101.999 281.983L106.104 286.731ZM106.104 286.731C101.999 281.983 101.998 281.984 101.997 281.985L101.993 281.989L101.981 281.999L101.939 282.035C101.905 282.065 101.855 282.109 101.79 282.165C101.662 282.278 101.475 282.442 101.235 282.655C100.753 283.082 100.055 283.707 99.169 284.514C97.3972 286.13 94.8723 288.479 91.8276 291.442C85.7442 297.364 77.5555 305.768 69.1435 315.695C52.5691 335.255 34.1567 361.836 30.5802 387.439C29.6635 394.002 29.4128 399.693 31.5842 404.98C33.7493 410.251 37.9208 414.135 43.1284 418.185C49.3727 423.042 57.6245 424.343 65.1352 423.228C72.6914 422.106 80.3463 418.431 85.6198 412.185C88.488 408.788 89.8791 404.484 90.5819 401.58C90.9552 400.038 91.1842 398.673 91.3213 397.686C91.8118 396.945 92.5133 395.891 93.3893 394.59C95.2097 391.888 97.7793 388.13 100.772 383.912C106.8 375.417 114.384 365.287 120.969 358.132C125.215 353.517 129.388 349.312 133.394 345.275C134.837 343.821 136.258 342.388 137.653 340.967C142.812 335.71 147.656 330.557 151.29 325.415C151.401 325.259 151.511 325.102 151.623 324.945C154.333 321.113 157.197 317.063 158.833 312.654C160.696 307.636 160.938 302.373 159.03 296.226C157.057 289.868 153.962 284.221 149.379 279.85C144.75 275.435 138.911 272.619 131.984 271.498C124.76 270.329 116.958 273.462 111.915 275.977C109.199 277.331 106.853 278.732 105.188 279.791C104.352 280.323 103.677 280.775 103.203 281.1C102.966 281.263 102.778 281.395 102.644 281.49C102.577 281.537 102.523 281.575 102.484 281.603L102.436 281.638L102.42 281.65L102.413 281.654L102.411 281.656C102.41 281.657 102.409 281.658 106.104 286.731Z" fill="#F7FBF8" stroke="#646464" stroke-width="12.5518"/>
<path d="M344.369 286.731L348.064 281.658L348.275 281.812L348.473 281.983L344.369 286.731ZM344.369 286.731C348.473 281.983 348.475 281.984 348.476 281.985L348.48 281.989L348.492 281.999L348.533 282.035C348.568 282.065 348.618 282.109 348.682 282.165C348.811 282.278 348.997 282.442 349.238 282.655C349.719 283.082 350.418 283.707 351.304 284.514C353.075 286.13 355.6 288.479 358.645 291.442C364.728 297.364 372.917 305.768 381.329 315.695C397.904 335.255 416.316 361.836 419.892 387.439C420.809 394.002 421.06 399.693 418.888 404.98C416.723 410.251 412.552 414.135 407.344 418.185C401.1 423.042 392.848 424.343 385.337 423.228C377.781 422.106 370.126 418.431 364.853 412.185C361.985 408.788 360.594 404.484 359.891 401.58C359.517 400.038 359.288 398.673 359.151 397.686C358.661 396.945 357.959 395.891 357.083 394.59C355.263 391.888 352.693 388.13 349.701 383.912C343.673 375.417 336.089 365.287 329.504 358.132C325.257 353.517 321.084 349.312 317.078 345.275C315.636 343.821 314.214 342.388 312.819 340.967C307.66 335.71 302.816 330.557 299.183 325.415C299.072 325.259 298.961 325.102 298.85 324.945C296.14 321.113 293.276 317.063 291.639 312.654C289.777 307.636 289.535 302.373 291.443 296.226C293.416 289.868 296.511 284.221 301.094 279.85C305.723 275.435 311.562 272.619 318.488 271.498C325.712 270.329 333.515 273.462 338.557 275.977C341.273 277.331 343.62 278.732 345.284 279.791C346.121 280.323 346.795 280.775 347.27 281.1C347.507 281.263 347.695 281.395 347.829 281.49C347.896 281.537 347.949 281.575 347.989 281.603L348.037 281.638L348.053 281.65L348.059 281.654L348.062 281.656C348.063 281.657 348.064 281.658 344.369 286.731Z" fill="#F7FBF8" stroke="#646464" stroke-width="12.5518"/>
<path d="M98.6201 294.343L93.4578 290.774L92.7683 291.772L92.4999 292.954L98.6201 294.343ZM98.6201 294.343C93.4578 290.774 93.4591 290.772 93.4605 290.77L93.4635 290.766L93.4703 290.756L93.4876 290.731L93.5367 290.662C93.5758 290.607 93.6276 290.534 93.6919 290.446C93.8203 290.269 93.9987 290.029 94.2246 289.735C94.6756 289.149 95.3207 288.346 96.1396 287.416C97.7609 285.576 100.144 283.149 103.129 280.935C108.962 276.61 118.426 272.229 128.939 277.154C161.613 292.461 201.706 299.399 238.367 298.989C275.28 298.576 307.395 290.738 324.829 277.798C329.53 274.308 334.831 274.795 338.891 276.256C342.862 277.686 346.559 280.313 349.511 282.802C352.539 285.354 355.182 288.105 357.043 290.179C357.982 291.225 358.741 292.121 359.271 292.763C359.537 293.084 359.746 293.343 359.893 293.527C359.967 293.619 360.025 293.692 360.066 293.745L360.117 293.809L360.133 293.83L360.138 293.837L360.141 293.84C360.142 293.841 360.142 293.842 355.185 297.69M98.6201 294.343C92.4999 292.954 92.4998 292.954 92.4996 292.955L92.4991 292.957L92.4975 292.964L92.4917 292.99L92.4702 293.086C92.4515 293.169 92.4241 293.291 92.3886 293.45C92.3177 293.769 92.2142 294.237 92.0824 294.841C91.8188 296.049 91.4417 297.804 90.9849 300.005C90.0714 304.406 88.837 310.596 87.5507 317.767C84.9879 332.056 82.1796 350.455 81.3387 366.392L81.3306 366.545C79.8526 394.558 78.4092 421.913 93.1493 448.135C96.9824 454.954 105.152 459.499 113.879 462.755C122.962 466.144 134.22 468.692 146.155 470.598C170.067 474.418 197.67 475.812 218.28 475.812H218.582C245.204 475.812 274.95 475.812 300.045 471.871C312.662 469.89 324.45 466.865 334.248 462.147C344.073 457.415 352.266 450.793 357.015 441.465C371.458 413.096 370.184 393.802 368.222 364.077C368.18 363.433 368.137 362.784 368.094 362.13C367.078 346.687 365.405 330.363 363.989 317.93C363.281 311.706 362.635 306.443 362.167 302.733C361.933 300.878 361.743 299.411 361.611 298.406C361.545 297.903 361.493 297.516 361.458 297.253L361.418 296.954L361.408 296.877L361.405 296.857L361.405 296.851L361.404 296.85C361.404 296.849 361.404 296.849 355.185 297.69M355.185 297.69L360.142 293.842L361.178 295.176L361.404 296.849L355.185 297.69Z" fill="#F7FBF8" stroke="#646464" stroke-width="12.5518"/>
<path d="M434.879 178.098C433.574 272.982 395.803 308.18 223.763 315.803C66.1094 307.355 19.5375 266.848 20.8418 171.965C95.5221 236.807 137.415 258.694 223.765 262.194C315.261 265.904 370.824 252.954 434.879 178.098Z" fill="#F7FBF8"/>
<path d="M168.673 285.593C168.673 285.593 223.857 278.529 277.705 285.593C289.255 287.108 301.065 288.312 305.966 295.139C315.322 308.173 300.352 323.017 286.68 331.415C273.313 339.625 252.209 346.657 228.822 346.88C204.569 347.111 184.904 340.198 168.673 331.415C154.436 323.711 139.198 308.298 148.623 295.139C153.673 288.089 168.673 285.593 168.673 285.593Z" fill="#F0F6F2"/>
<path d="M216.084 212.104C217.862 212.104 222.967 214.697 224.091 213.266C224.73 212.453 225.673 211.92 226.528 211.378C227.583 210.708 227.641 210.165 228.352 209.424C229.006 208.745 229.169 207.954 229.676 207.39C230.171 206.841 230.594 207.604 231 208.068C231.745 208.92 232.687 209.143 233.615 209.779C235.236 210.891 237.255 211.755 239.12 212.508C240.78 213.178 241.96 213.33 243.752 213.266C245.269 213.212 246.178 212.166 247.465 211.523" stroke="#676564" stroke-width="6.69428" stroke-linecap="round"/>
<path d="M230.309 201.181C229.509 201.234 226.514 201.235 227.266 199.587C227.795 198.426 231.149 198.844 230.889 200.275C230.61 201.809 227.861 201.332 226.867 201.254C225.334 201.133 224.234 201.367 224.132 199.514C223.935 195.983 228.085 197.368 230.4 197.884C231.349 198.096 235.025 198.64 235.237 200.311C235.333 201.073 234.087 201.855 233.497 202.014C232.232 202.356 231.272 201.43 230.092 201.254C229.532 201.17 225.412 201.542 226.016 200.221C226.874 198.343 229.56 196.836 231.45 197.757C232.177 198.111 233.022 198.178 232.411 198.79C231.549 199.651 231.161 200.936 230.472 201.924C228.964 204.087 225.994 201.056 224.874 199.768C223.133 197.765 224.143 196.565 226.396 196.688C227.876 196.769 233.033 196.332 233.824 197.848C234.084 198.347 235.018 201.864 234.566 202.159C233.524 202.841 231.124 201.507 230.345 201.072C229.5 200.6 228.277 199.737 227.664 198.898C225.941 196.542 228.185 199.373 227.7 197.92" stroke="#EEAAB7" stroke-width="3.34714" stroke-linecap="round"/>
<path d="M152.33 183.939C146.944 183.939 142.455 180.719 142.455 187.34C142.455 189.991 149.022 197.034 150.794 192.223C153.99 183.548 141.577 181.398 141.577 186.901C141.577 190.43 147.901 193.102 150.3 190.303C154.212 185.739 143.374 182.122 142.455 184.378C140.67 188.758 151.903 197.646 153.099 187.779C153.601 183.634 147.908 184.888 145.308 184.926C129.729 185.155 151.343 202.166 151.343 189.864" stroke="#646464" stroke-width="5.06736" stroke-linecap="round"/>
<path d="M323.252 183.939C317.866 183.939 313.377 180.719 313.377 187.34C313.377 189.991 319.944 197.034 321.716 192.223C324.912 183.548 312.499 181.398 312.499 186.901C312.499 190.43 318.823 193.102 321.222 190.303C325.134 185.739 314.296 182.122 313.377 184.378C311.592 188.758 322.824 197.646 324.02 187.779C324.523 183.634 318.829 184.888 316.23 184.926C300.651 185.155 322.265 202.166 322.265 189.864" stroke="#646464" stroke-width="5.06736" stroke-linecap="round"/>
<path d="M122.718 29.8972L21.2181 118.397C-8.2821 72.8972 14.6957 31.973 36.582 19.1748C72.8479 -5.30092 108.681 13.4099 122.718 29.8972Z" stroke="#646464" stroke-width="13.13" stroke-linecap="round" stroke-linejoin="round"/>
<path d="M134.549 44.9207L35.7762 126.984C-10.1024 73.3943 18.9811 35.5684 42.0534 22.6655C80.2995 -1.98514 119.566 22.6654 134.549 44.9207Z" fill="#F7FBF8"/>
<path d="M326.823 29.8972L428.323 118.397C457.823 72.8972 434.845 31.973 412.959 19.1748C376.693 -5.30092 340.86 13.4099 326.823 29.8972Z" stroke="#646464" stroke-width="13.13" stroke-linecap="round" stroke-linejoin="round"/>
<path d="M314.992 44.9207L413.765 126.984C459.643 73.3943 430.56 35.5684 407.488 22.6655C369.242 -1.98514 329.975 22.6654 314.992 44.9207Z" fill="#F7FBF8"/>
</svg>
