<svg preserveAspectRatio="none" overflow="visible" style="display: block;" width="16.7111" height="18.0513" viewBox="0 0 16.7111 18.0513" fill="none" xmlns="http://www.w3.org/2000/svg">
<g id="Icon">
<path id="Vector 19 (Stroke)" d="M8.60551 10.4492C9.18604 10.4492 9.65629 10.9195 9.65629 11.5C9.65629 12.0805 9.18604 12.5508 8.60551 12.5508C5.38385 12.5508 3.75195 13.4174 2.95024 14.2783C2.14159 15.147 2.02359 16.1722 2.13969 16.8115C2.24351 17.3825 1.86492 17.9301 1.29399 18.0342C0.722964 18.138 0.175371 17.7594 0.0713288 17.1885C-0.145766 15.9945 0.0868367 14.2694 1.41117 12.8467C2.74291 11.4161 5.02767 10.4492 8.60551 10.4492Z" fill="#144FEF"/>
<path id="Vector 20 (Stroke)" d="M8.10551 10.4492C7.52498 10.4492 7.05473 10.9195 7.05473 11.5C7.05473 12.0805 7.52498 12.5508 8.10551 12.5508C11.3272 12.5508 12.9591 13.4174 13.7608 14.2783C14.5694 15.147 14.6874 16.1722 14.5713 16.8115C14.4675 17.3825 14.8461 17.9301 15.417 18.0342C15.9881 18.138 16.5356 17.7594 16.6397 17.1885C16.8568 15.9945 16.6242 14.2694 15.2998 12.8467C13.9681 11.4161 11.6833 10.4492 8.10551 10.4492Z" fill="#144FEF"/>
<path id="Ellipse 4 (Stroke)" d="M11.0059 4.5C11.0059 3.17452 9.93099 2.09961 8.60551 2.09961C7.28002 2.09961 6.20512 3.17452 6.20512 4.5C6.20512 5.82548 7.28002 6.90039 8.60551 6.90039V9C6.12023 9 4.10551 6.98528 4.10551 4.5C4.10551 2.01472 6.12023 0 8.60551 0C11.0908 0 13.1055 2.01472 13.1055 4.5C13.1055 6.98528 11.0908 9 8.60551 9V6.90039C9.93099 6.90039 11.0059 5.82548 11.0059 4.5Z" fill="#144FEF"/>
</g>
</svg>
