<svg width="331" height="104" viewBox="0 0 331 104" fill="none" xmlns="http://www.w3.org/2000/svg">
<mask id="path-1-outside-1_1256_4377" maskUnits="userSpaceOnUse" x="3" y="1" width="325" height="101" fill="black">
<rect fill="white" x="3" y="1" width="325" height="101"/>
<path d="M48.6 20.48H21.9V11.58H48.6V20.48ZM21.9 47.18H13V20.48H21.9V47.18ZM57.5 29.38H48.6V20.48H57.5V29.38ZM48.6 56.08H21.9V47.18H48.6V56.08ZM57.5 82.78H48.6V56.08H57.5V82.78ZM21.9 82.78H13V73.88H21.9V82.78ZM48.6 91.68H21.9V82.78H48.6V91.68ZM104.635 91.68H95.7352V20.48H77.9352V11.58H122.435V20.48H104.635V91.68ZM178.47 20.48H151.77V11.58H178.47V20.48ZM151.77 91.68H142.87V20.48H151.77V47.18H178.47V20.48H187.37V91.68H178.47V56.08H151.77V91.68ZM216.706 91.68H207.806V11.58H243.406V20.48H252.306V47.18H243.406V56.08H216.706V91.68ZM216.706 20.48V47.18H243.406V20.48H216.706ZM252.306 91.68H243.406V56.08H252.306V91.68ZM299.441 91.68H290.541V20.48H272.741V11.58H317.241V20.48H299.441V91.68Z"/>
</mask>
<path d="M48.6 20.48V30.48H58.6V20.48H48.6ZM21.9 20.48H11.9V30.48H21.9V20.48ZM21.9 11.58V1.58H11.9V11.58H21.9ZM48.6 11.58H58.6V1.58H48.6V11.58ZM21.9 47.18V57.18H31.9V47.18H21.9ZM13 47.18H3V57.18H13V47.18ZM13 20.48V10.48H3V20.48H13ZM21.9 20.48H31.9V10.48H21.9V20.48ZM57.5 29.38V39.38H67.5V29.38H57.5ZM48.6 29.38H38.6V39.38H48.6V29.38ZM48.6 20.48V10.48H38.6V20.48H48.6ZM57.5 20.48H67.5V10.48H57.5V20.48ZM48.6 56.08V66.08H58.6V56.08H48.6ZM21.9 56.08H11.9V66.08H21.9V56.08ZM21.9 47.18V37.18H11.9V47.18H21.9ZM48.6 47.18H58.6V37.18H48.6V47.18ZM57.5 82.78V92.78H67.5V82.78H57.5ZM48.6 82.78H38.6V92.78H48.6V82.78ZM48.6 56.08V46.08H38.6V56.08H48.6ZM57.5 56.08H67.5V46.08H57.5V56.08ZM21.9 82.78V92.78H31.9V82.78H21.9ZM13 82.78H3V92.78H13V82.78ZM13 73.88V63.88H3V73.88H13ZM21.9 73.88H31.9V63.88H21.9V73.88ZM48.6 91.68V101.68H58.6V91.68H48.6ZM21.9 91.68H11.9V101.68H21.9V91.68ZM21.9 82.78V72.78H11.9V82.78H21.9ZM48.6 82.78H58.6V72.78H48.6V82.78ZM48.6 10.48H21.9V30.48H48.6V10.48ZM31.9 20.48V11.58H11.9V20.48H31.9ZM21.9 21.58H48.6V1.58H21.9V21.58ZM38.6 11.58V20.48H58.6V11.58H38.6ZM21.9 37.18H13V57.18H21.9V37.18ZM23 47.18V20.48H3V47.18H23ZM13 30.48H21.9V10.48H13V30.48ZM11.9 20.48V47.18H31.9V20.48H11.9ZM57.5 19.38H48.6V39.38H57.5V19.38ZM58.6 29.38V20.48H38.6V29.38H58.6ZM48.6 30.48H57.5V10.48H48.6V30.48ZM47.5 20.48V29.38H67.5V20.48H47.5ZM48.6 46.08H21.9V66.08H48.6V46.08ZM31.9 56.08V47.18H11.9V56.08H31.9ZM21.9 57.18H48.6V37.18H21.9V57.18ZM38.6 47.18V56.08H58.6V47.18H38.6ZM57.5 72.78H48.6V92.78H57.5V72.78ZM58.6 82.78V56.08H38.6V82.78H58.6ZM48.6 66.08H57.5V46.08H48.6V66.08ZM47.5 56.08V82.78H67.5V56.08H47.5ZM21.9 72.78H13V92.78H21.9V72.78ZM23 82.78V73.88H3V82.78H23ZM13 83.88H21.9V63.88H13V83.88ZM11.9 73.88V82.78H31.9V73.88H11.9ZM48.6 81.68H21.9V101.68H48.6V81.68ZM31.9 91.68V82.78H11.9V91.68H31.9ZM21.9 92.78H48.6V72.78H21.9V92.78ZM38.6 82.78V91.68H58.6V82.78H38.6ZM104.635 91.68V101.68H114.635V91.68H104.635ZM95.7352 91.68H85.7352V101.68H95.7352V91.68ZM95.7352 20.48H105.735V10.48H95.7352V20.48ZM77.9352 20.48H67.9352V30.48H77.9352V20.48ZM77.9352 11.58V1.58H67.9352V11.58H77.9352ZM122.435 11.58H132.435V1.58H122.435V11.58ZM122.435 20.48V30.48H132.435V20.48H122.435ZM104.635 20.48V10.48H94.6352V20.48H104.635ZM104.635 81.68H95.7352V101.68H104.635V81.68ZM105.735 91.68V20.48H85.7352V91.68H105.735ZM95.7352 10.48H77.9352V30.48H95.7352V10.48ZM87.9352 20.48V11.58H67.9352V20.48H87.9352ZM77.9352 21.58H122.435V1.58H77.9352V21.58ZM112.435 11.58V20.48H132.435V11.58H112.435ZM122.435 10.48H104.635V30.48H122.435V10.48ZM94.6352 20.48V91.68H114.635V20.48H94.6352ZM178.47 20.48V30.48H188.47V20.48H178.47ZM151.77 20.48H141.77V30.48H151.77V20.48ZM151.77 11.58V1.58H141.77V11.58H151.77ZM178.47 11.58H188.47V1.58H178.47V11.58ZM151.77 91.68V101.68H161.77V91.68H151.77ZM142.87 91.68H132.87V101.68H142.87V91.68ZM142.87 20.48V10.48H132.87V20.48H142.87ZM151.77 20.48H161.77V10.48H151.77V20.48ZM151.77 47.18H141.77V57.18H151.77V47.18ZM178.47 47.18V57.18H188.47V47.18H178.47ZM178.47 20.48V10.48H168.47V20.48H178.47ZM187.37 20.48H197.37V10.48H187.37V20.48ZM187.37 91.68V101.68H197.37V91.68H187.37ZM178.47 91.68H168.47V101.68H178.47V91.68ZM178.47 56.08H188.47V46.08H178.47V56.08ZM151.77 56.08V46.08H141.77V56.08H151.77ZM178.47 10.48H151.77V30.48H178.47V10.48ZM161.77 20.48V11.58H141.77V20.48H161.77ZM151.77 21.58H178.47V1.58H151.77V21.58ZM168.47 11.58V20.48H188.47V11.58H168.47ZM151.77 81.68H142.87V101.68H151.77V81.68ZM152.87 91.68V20.48H132.87V91.68H152.87ZM142.87 30.48H151.77V10.48H142.87V30.48ZM141.77 20.48V47.18H161.77V20.48H141.77ZM151.77 57.18H178.47V37.18H151.77V57.18ZM188.47 47.18V20.48H168.47V47.18H188.47ZM178.47 30.48H187.37V10.48H178.47V30.48ZM177.37 20.48V91.68H197.37V20.48H177.37ZM187.37 81.68H178.47V101.68H187.37V81.68ZM188.47 91.68V56.08H168.47V91.68H188.47ZM178.47 46.08H151.77V66.08H178.47V46.08ZM141.77 56.08V91.68H161.77V56.08H141.77ZM216.706 91.68V101.68H226.706V91.68H216.706ZM207.806 91.68H197.806V101.68H207.806V91.68ZM207.806 11.58V1.58H197.806V11.58H207.806ZM243.406 11.58H253.406V1.58H243.406V11.58ZM243.406 20.48H233.406V30.48H243.406V20.48ZM252.306 20.48H262.306V10.48H252.306V20.48ZM252.306 47.18V57.18H262.306V47.18H252.306ZM243.406 47.18V37.18H233.406V47.18H243.406ZM243.406 56.08V66.08H253.406V56.08H243.406ZM216.706 56.08V46.08H206.706V56.08H216.706ZM216.706 20.48V10.48H206.706V20.48H216.706ZM216.706 47.18H206.706V57.18H216.706V47.18ZM243.406 47.18V57.18H253.406V47.18H243.406ZM243.406 20.48H253.406V10.48H243.406V20.48ZM252.306 91.68V101.68H262.306V91.68H252.306ZM243.406 91.68H233.406V101.68H243.406V91.68ZM243.406 56.08V46.08H233.406V56.08H243.406ZM252.306 56.08H262.306V46.08H252.306V56.08ZM216.706 81.68H207.806V101.68H216.706V81.68ZM217.806 91.68V11.58H197.806V91.68H217.806ZM207.806 21.58H243.406V1.58H207.806V21.58ZM233.406 11.58V20.48H253.406V11.58H233.406ZM243.406 30.48H252.306V10.48H243.406V30.48ZM242.306 20.48V47.18H262.306V20.48H242.306ZM252.306 37.18H243.406V57.18H252.306V37.18ZM233.406 47.18V56.08H253.406V47.18H233.406ZM243.406 46.08H216.706V66.08H243.406V46.08ZM206.706 56.08V91.68H226.706V56.08H206.706ZM206.706 20.48V47.18H226.706V20.48H206.706ZM216.706 57.18H243.406V37.18H216.706V57.18ZM253.406 47.18V20.48H233.406V47.18H253.406ZM243.406 10.48H216.706V30.48H243.406V10.48ZM252.306 81.68H243.406V101.68H252.306V81.68ZM253.406 91.68V56.08H233.406V91.68H253.406ZM243.406 66.08H252.306V46.08H243.406V66.08ZM242.306 56.08V91.68H262.306V56.08H242.306ZM299.441 91.68V101.68H309.441V91.68H299.441ZM290.541 91.68H280.541V101.68H290.541V91.68ZM290.541 20.48H300.541V10.48H290.541V20.48ZM272.741 20.48H262.741V30.48H272.741V20.48ZM272.741 11.58V1.58H262.741V11.58H272.741ZM317.241 11.58H327.241V1.58H317.241V11.58ZM317.241 20.48V30.48H327.241V20.48H317.241ZM299.441 20.48V10.48H289.441V20.48H299.441ZM299.441 81.68H290.541V101.68H299.441V81.68ZM300.541 91.68V20.48H280.541V91.68H300.541ZM290.541 10.48H272.741V30.48H290.541V10.48ZM282.741 20.48V11.58H262.741V20.48H282.741ZM272.741 21.58H317.241V1.58H272.741V21.58ZM307.241 11.58V20.48H327.241V11.58H307.241ZM317.241 10.48H299.441V30.48H317.241V10.48ZM289.441 20.48V91.68H309.441V20.48H289.441Z" fill="url(#paint0_linear_1256_4377)" mask="url(#path-1-outside-1_1256_4377)"/>
<defs>
<linearGradient id="paint0_linear_1256_4377" x1="170" y1="3" x2="170" y2="92" gradientUnits="userSpaceOnUse">
<stop offset="0.5849" stop-color="#768C85"/>
<stop offset="0.585" stop-color="#43505F"/>
</linearGradient>
</defs>
</svg>
