<svg width="46" height="27" viewBox="0 0 46 27" fill="none" xmlns="http://www.w3.org/2000/svg">
<mask id="path-1-outside-1_1256_4520" maskUnits="userSpaceOnUse" x="0" y="0" width="46" height="27" fill="black">
<rect fill="white" width="46" height="27"/>
<path d="M22 23.4H4V21.4H12V3.4H14V11.4H20V13.4H14V21.4H22V23.4ZM26 5.4H28V7.4H26V5.4ZM38 7.4H34V15.4H32V7.4H30V5.4H42V7.4H40V9.4H38V7.4ZM26 9.4H30V13.4H28V11.4H24V7.4H26V9.4ZM36 13.4V9.4H38V11.4H42V17.4H40V13.4H36ZM32 17.4H30V21.4H34V23.4H28V17.4H24V15.4H26V13.4H28V15.4H32V17.4ZM36 15.4V17.4H34V15.4H36ZM38 19.4H36V17.4H40V21.4H38V19.4ZM26 23.4H24V19.4H26V23.4ZM36 21.4H34V19.4H36V21.4ZM42 21.4V23.4H40V21.4H42Z"/>
</mask>
<path d="M22 23.4V26.78H25.38V23.4H22ZM4 23.4H0.62V26.78H4V23.4ZM4 21.4V18.02H0.62V21.4H4ZM12 21.4V24.78H15.38V21.4H12ZM12 3.4V0.0199988H8.62V3.4H12ZM14 3.4H17.38V0.0199988H14V3.4ZM14 11.4H10.62V14.78H14V11.4ZM20 11.4H23.38V8.02H20V11.4ZM20 13.4V16.78H23.38V13.4H20ZM14 13.4V10.02H10.62V13.4H14ZM14 21.4H10.62V24.78H14V21.4ZM22 21.4H25.38V18.02H22V21.4ZM22 20.02H4V26.78H22V20.02ZM7.38 23.4V21.4H0.62V23.4H7.38ZM4 24.78H12V18.02H4V24.78ZM15.38 21.4V3.4H8.62V21.4H15.38ZM12 6.78H14V0.0199988H12V6.78ZM10.62 3.4V11.4H17.38V3.4H10.62ZM14 14.78H20V8.02H14V14.78ZM16.62 11.4V13.4H23.38V11.4H16.62ZM20 10.02H14V16.78H20V10.02ZM10.62 13.4V21.4H17.38V13.4H10.62ZM14 24.78H22V18.02H14V24.78ZM18.62 21.4V23.4H25.38V21.4H18.62ZM26 5.4V2.02H22.62V5.4H26ZM28 5.4H31.38V2.02H28V5.4ZM28 7.4V10.78H31.38V7.4H28ZM26 7.4H22.62V10.78H26V7.4ZM38 7.4H41.38V4.02H38V7.4ZM34 7.4V4.02H30.62V7.4H34ZM34 15.4V18.78H37.38V15.4H34ZM32 15.4H28.62V18.78H32V15.4ZM32 7.4H35.38V4.02H32V7.4ZM30 7.4H26.62V10.78H30V7.4ZM30 5.4V2.02H26.62V5.4H30ZM42 5.4H45.38V2.02H42V5.4ZM42 7.4V10.78H45.38V7.4H42ZM40 7.4V4.02H36.62V7.4H40ZM40 9.4V12.78H43.38V9.4H40ZM38 9.4H34.62V12.78H38V9.4ZM26 9.4H22.62V12.78H26V9.4ZM30 9.4H33.38V6.02H30V9.4ZM30 13.4V16.78H33.38V13.4H30ZM28 13.4H24.62V16.78H28V13.4ZM28 11.4H31.38V8.02H28V11.4ZM24 11.4H20.62V14.78H24V11.4ZM24 7.4V4.02H20.62V7.4H24ZM26 7.4H29.38V4.02H26V7.4ZM36 13.4H32.62V16.78H36V13.4ZM36 9.4V6.02H32.62V9.4H36ZM38 9.4H41.38V6.02H38V9.4ZM38 11.4H34.62V14.78H38V11.4ZM42 11.4H45.38V8.02H42V11.4ZM42 17.4V20.78H45.38V17.4H42ZM40 17.4H36.62V20.78H40V17.4ZM40 13.4H43.38V10.02H40V13.4ZM32 17.4V20.78H35.38V17.4H32ZM30 17.4V14.02H26.62V17.4H30ZM30 21.4H26.62V24.78H30V21.4ZM34 21.4H37.38V18.02H34V21.4ZM34 23.4V26.78H37.38V23.4H34ZM28 23.4H24.62V26.78H28V23.4ZM28 17.4H31.38V14.02H28V17.4ZM24 17.4H20.62V20.78H24V17.4ZM24 15.4V12.02H20.62V15.4H24ZM26 15.4V18.78H29.38V15.4H26ZM26 13.4V10.02H22.62V13.4H26ZM28 13.4H31.38V10.02H28V13.4ZM28 15.4H24.62V18.78H28V15.4ZM32 15.4H35.38V12.02H32V15.4ZM36 15.4H39.38V12.02H36V15.4ZM36 17.4V20.78H39.38V17.4H36ZM34 17.4H30.62V20.78H34V17.4ZM34 15.4V12.02H30.62V15.4H34ZM38 19.4H41.38V16.02H38V19.4ZM36 19.4H32.62V22.78H36V19.4ZM36 17.4V14.02H32.62V17.4H36ZM40 17.4H43.38V14.02H40V17.4ZM40 21.4V24.78H43.38V21.4H40ZM38 21.4H34.62V24.78H38V21.4ZM26 23.4V26.78H29.38V23.4H26ZM24 23.4H20.62V26.78H24V23.4ZM24 19.4V16.02H20.62V19.4H24ZM26 19.4H29.38V16.02H26V19.4ZM36 21.4V24.78H39.38V21.4H36ZM34 21.4H30.62V24.78H34V21.4ZM34 19.4V16.02H30.62V19.4H34ZM36 19.4H39.38V16.02H36V19.4ZM42 21.4H45.38V18.02H42V21.4ZM42 23.4V26.78H45.38V23.4H42ZM40 23.4H36.62V26.78H40V23.4ZM40 21.4V18.02H36.62V21.4H40ZM26 8.78H28V2.02H26V8.78ZM24.62 5.4V7.4H31.38V5.4H24.62ZM28 4.02H26V10.78H28V4.02ZM29.38 7.4V5.4H22.62V7.4H29.38ZM38 4.02H34V10.78H38V4.02ZM30.62 7.4V15.4H37.38V7.4H30.62ZM34 12.02H32V18.78H34V12.02ZM35.38 15.4V7.4H28.62V15.4H35.38ZM32 4.02H30V10.78H32V4.02ZM33.38 7.4V5.4H26.62V7.4H33.38ZM30 8.78H42V2.02H30V8.78ZM38.62 5.4V7.4H45.38V5.4H38.62ZM42 4.02H40V10.78H42V4.02ZM36.62 7.4V9.4H43.38V7.4H36.62ZM40 6.02H38V12.78H40V6.02ZM41.38 9.4V7.4H34.62V9.4H41.38ZM26 12.78H30V6.02H26V12.78ZM26.62 9.4V13.4H33.38V9.4H26.62ZM30 10.02H28V16.78H30V10.02ZM31.38 13.4V11.4H24.62V13.4H31.38ZM28 8.02H24V14.78H28V8.02ZM27.38 11.4V7.4H20.62V11.4H27.38ZM24 10.78H26V4.02H24V10.78ZM22.62 7.4V9.4H29.38V7.4H22.62ZM39.38 13.4V9.4H32.62V13.4H39.38ZM36 12.78H38V6.02H36V12.78ZM34.62 9.4V11.4H41.38V9.4H34.62ZM38 14.78H42V8.02H38V14.78ZM38.62 11.4V17.4H45.38V11.4H38.62ZM42 14.02H40V20.78H42V14.02ZM43.38 17.4V13.4H36.62V17.4H43.38ZM40 10.02H36V16.78H40V10.02ZM32 14.02H30V20.78H32V14.02ZM26.62 17.4V21.4H33.38V17.4H26.62ZM30 24.78H34V18.02H30V24.78ZM30.62 21.4V23.4H37.38V21.4H30.62ZM34 20.02H28V26.78H34V20.02ZM31.38 23.4V17.4H24.62V23.4H31.38ZM28 14.02H24V20.78H28V14.02ZM27.38 17.4V15.4H20.62V17.4H27.38ZM24 18.78H26V12.02H24V18.78ZM29.38 15.4V13.4H22.62V15.4H29.38ZM26 16.78H28V10.02H26V16.78ZM24.62 13.4V15.4H31.38V13.4H24.62ZM28 18.78H32V12.02H28V18.78ZM28.62 15.4V17.4H35.38V15.4H28.62ZM32.62 15.4V17.4H39.38V15.4H32.62ZM36 14.02H34V20.78H36V14.02ZM37.38 17.4V15.4H30.62V17.4H37.38ZM34 18.78H36V12.02H34V18.78ZM38 16.02H36V22.78H38V16.02ZM39.38 19.4V17.4H32.62V19.4H39.38ZM36 20.78H40V14.02H36V20.78ZM36.62 17.4V21.4H43.38V17.4H36.62ZM40 18.02H38V24.78H40V18.02ZM41.38 21.4V19.4H34.62V21.4H41.38ZM26 20.02H24V26.78H26V20.02ZM27.38 23.4V19.4H20.62V23.4H27.38ZM24 22.78H26V16.02H24V22.78ZM22.62 19.4V23.4H29.38V19.4H22.62ZM36 18.02H34V24.78H36V18.02ZM37.38 21.4V19.4H30.62V21.4H37.38ZM34 22.78H36V16.02H34V22.78ZM32.62 19.4V21.4H39.38V19.4H32.62ZM38.62 21.4V23.4H45.38V21.4H38.62ZM42 20.02H40V26.78H42V20.02ZM43.38 23.4V21.4H36.62V23.4H43.38ZM40 24.78H42V18.02H40V24.78Z" fill="#EEEFD2" mask="url(#path-1-outside-1_1256_4520)"/>
</svg>
