<svg width="46" height="25" viewBox="0 0 46 25" fill="none" xmlns="http://www.w3.org/2000/svg">
<mask id="path-1-outside-1_1256_4520" maskUnits="userSpaceOnUse" x="0" y="0" width="46" height="25" fill="black">
<rect fill="white" width="46" height="25"/>
<path d="M8 7.4H12V11.4H10V9.4H4V7.4H6V3.4H8V7.4ZM10 5.4V3.4H22V19.4H20V5.4H16V13.4H14V5.4H10ZM8 11.4H10V13.4H8V11.4ZM8 13.4V15.4H10V17.4H8V21.4H6V17.4H4V15.4H6V13.4H8ZM14 17.4H12V13.4H14V17.4ZM12 21.4H10V17.4H12V21.4ZM20 21.4H16V19.4H20V21.4ZM26 3.4H28V5.4H26V3.4ZM38 5.4H34V13.4H32V5.4H30V3.4H42V5.4H40V7.4H38V5.4ZM26 7.4H30V11.4H28V9.4H24V5.4H26V7.4ZM36 11.4V7.4H38V9.4H42V15.4H40V11.4H36ZM32 15.4H30V19.4H34V21.4H28V15.4H24V13.4H26V11.4H28V13.4H32V15.4ZM36 13.4V15.4H34V13.4H36ZM38 17.4H36V15.4H40V19.4H38V17.4ZM26 21.4H24V17.4H26V21.4ZM36 19.4H34V17.4H36V19.4ZM42 19.4V21.4H40V19.4H42Z"/>
</mask>
<path d="M8 7.4H4.62V10.78H8V7.4ZM12 7.4H15.38V4.02H12V7.4ZM12 11.4V14.78H15.38V11.4H12ZM10 11.4H6.62V14.78H10V11.4ZM10 9.4H13.38V6.02H10V9.4ZM4 9.4H0.62V12.78H4V9.4ZM4 7.4V4.02H0.62V7.4H4ZM6 7.4V10.78H9.38V7.4H6ZM6 3.4V0.0199993H2.62V3.4H6ZM8 3.4H11.38V0.0199993H8V3.4ZM10 5.4H6.62V8.78H10V5.4ZM10 3.4V0.0199993H6.62V3.4H10ZM22 3.4H25.38V0.0199993H22V3.4ZM22 19.4V22.78H25.38V19.4H22ZM20 19.4H16.62V22.78H20V19.4ZM20 5.4H23.38V2.02H20V5.4ZM16 5.4V2.02H12.62V5.4H16ZM16 13.4V16.78H19.38V13.4H16ZM14 13.4H10.62V16.78H14V13.4ZM14 5.4H17.38V2.02H14V5.4ZM8 11.4V8.02H4.62V11.4H8ZM10 11.4H13.38V8.02H10V11.4ZM10 13.4V16.78H13.38V13.4H10ZM8 13.4H4.62V16.78H8V13.4ZM8 13.4H11.38V10.02H8V13.4ZM8 15.4H4.62V18.78H8V15.4ZM10 15.4H13.38V12.02H10V15.4ZM10 17.4V20.78H13.38V17.4H10ZM8 17.4V14.02H4.62V17.4H8ZM8 21.4V24.78H11.38V21.4H8ZM6 21.4H2.62V24.78H6V21.4ZM6 17.4H9.38V14.02H6V17.4ZM4 17.4H0.62V20.78H4V17.4ZM4 15.4V12.02H0.62V15.4H4ZM6 15.4V18.78H9.38V15.4H6ZM6 13.4V10.02H2.62V13.4H6ZM14 17.4V20.78H17.38V17.4H14ZM12 17.4H8.62V20.78H12V17.4ZM12 13.4V10.02H8.62V13.4H12ZM14 13.4H17.38V10.02H14V13.4ZM12 21.4V24.78H15.38V21.4H12ZM10 21.4H6.62V24.78H10V21.4ZM10 17.4V14.02H6.62V17.4H10ZM12 17.4H15.38V14.02H12V17.4ZM20 21.4V24.78H23.38V21.4H20ZM16 21.4H12.62V24.78H16V21.4ZM16 19.4V16.02H12.62V19.4H16ZM20 19.4H23.38V16.02H20V19.4ZM8 10.78H12V4.02H8V10.78ZM8.62 7.4V11.4H15.38V7.4H8.62ZM12 8.02H10V14.78H12V8.02ZM13.38 11.4V9.4H6.62V11.4H13.38ZM10 6.02H4V12.78H10V6.02ZM7.38 9.4V7.4H0.62V9.4H7.38ZM4 10.78H6V4.02H4V10.78ZM9.38 7.4V3.4H2.62V7.4H9.38ZM6 6.78H8V0.0199993H6V6.78ZM4.62 3.4V7.4H11.38V3.4H4.62ZM13.38 5.4V3.4H6.62V5.4H13.38ZM10 6.78H22V0.0199993H10V6.78ZM18.62 3.4V19.4H25.38V3.4H18.62ZM22 16.02H20V22.78H22V16.02ZM23.38 19.4V5.4H16.62V19.4H23.38ZM20 2.02H16V8.78H20V2.02ZM12.62 5.4V13.4H19.38V5.4H12.62ZM16 10.02H14V16.78H16V10.02ZM17.38 13.4V5.4H10.62V13.4H17.38ZM14 2.02H10V8.78H14V2.02ZM8 14.78H10V8.02H8V14.78ZM6.62 11.4V13.4H13.38V11.4H6.62ZM10 10.02H8V16.78H10V10.02ZM11.38 13.4V11.4H4.62V13.4H11.38ZM4.62 13.4V15.4H11.38V13.4H4.62ZM8 18.78H10V12.02H8V18.78ZM6.62 15.4V17.4H13.38V15.4H6.62ZM10 14.02H8V20.78H10V14.02ZM4.62 17.4V21.4H11.38V17.4H4.62ZM8 18.02H6V24.78H8V18.02ZM9.38 21.4V17.4H2.62V21.4H9.38ZM6 14.02H4V20.78H6V14.02ZM7.38 17.4V15.4H0.62V17.4H7.38ZM4 18.78H6V12.02H4V18.78ZM9.38 15.4V13.4H2.62V15.4H9.38ZM6 16.78H8V10.02H6V16.78ZM14 14.02H12V20.78H14V14.02ZM15.38 17.4V13.4H8.62V17.4H15.38ZM12 16.78H14V10.02H12V16.78ZM10.62 13.4V17.4H17.38V13.4H10.62ZM12 18.02H10V24.78H12V18.02ZM13.38 21.4V17.4H6.62V21.4H13.38ZM10 20.78H12V14.02H10V20.78ZM8.62 17.4V21.4H15.38V17.4H8.62ZM20 18.02H16V24.78H20V18.02ZM19.38 21.4V19.4H12.62V21.4H19.38ZM16 22.78H20V16.02H16V22.78ZM16.62 19.4V21.4H23.38V19.4H16.62ZM26 3.4V0.0199993H22.62V3.4H26ZM28 3.4H31.38V0.0199993H28V3.4ZM28 5.4V8.78H31.38V5.4H28ZM26 5.4H22.62V8.78H26V5.4ZM38 5.4H41.38V2.02H38V5.4ZM34 5.4V2.02H30.62V5.4H34ZM34 13.4V16.78H37.38V13.4H34ZM32 13.4H28.62V16.78H32V13.4ZM32 5.4H35.38V2.02H32V5.4ZM30 5.4H26.62V8.78H30V5.4ZM30 3.4V0.0199993H26.62V3.4H30ZM42 3.4H45.38V0.0199993H42V3.4ZM42 5.4V8.78H45.38V5.4H42ZM40 5.4V2.02H36.62V5.4H40ZM40 7.4V10.78H43.38V7.4H40ZM38 7.4H34.62V10.78H38V7.4ZM26 7.4H22.62V10.78H26V7.4ZM30 7.4H33.38V4.02H30V7.4ZM30 11.4V14.78H33.38V11.4H30ZM28 11.4H24.62V14.78H28V11.4ZM28 9.4H31.38V6.02H28V9.4ZM24 9.4H20.62V12.78H24V9.4ZM24 5.4V2.02H20.62V5.4H24ZM26 5.4H29.38V2.02H26V5.4ZM36 11.4H32.62V14.78H36V11.4ZM36 7.4V4.02H32.62V7.4H36ZM38 7.4H41.38V4.02H38V7.4ZM38 9.4H34.62V12.78H38V9.4ZM42 9.4H45.38V6.02H42V9.4ZM42 15.4V18.78H45.38V15.4H42ZM40 15.4H36.62V18.78H40V15.4ZM40 11.4H43.38V8.02H40V11.4ZM32 15.4V18.78H35.38V15.4H32ZM30 15.4V12.02H26.62V15.4H30ZM30 19.4H26.62V22.78H30V19.4ZM34 19.4H37.38V16.02H34V19.4ZM34 21.4V24.78H37.38V21.4H34ZM28 21.4H24.62V24.78H28V21.4ZM28 15.4H31.38V12.02H28V15.4ZM24 15.4H20.62V18.78H24V15.4ZM24 13.4V10.02H20.62V13.4H24ZM26 13.4V16.78H29.38V13.4H26ZM26 11.4V8.02H22.62V11.4H26ZM28 11.4H31.38V8.02H28V11.4ZM28 13.4H24.62V16.78H28V13.4ZM32 13.4H35.38V10.02H32V13.4ZM36 13.4H39.38V10.02H36V13.4ZM36 15.4V18.78H39.38V15.4H36ZM34 15.4H30.62V18.78H34V15.4ZM34 13.4V10.02H30.62V13.4H34ZM38 17.4H41.38V14.02H38V17.4ZM36 17.4H32.62V20.78H36V17.4ZM36 15.4V12.02H32.62V15.4H36ZM40 15.4H43.38V12.02H40V15.4ZM40 19.4V22.78H43.38V19.4H40ZM38 19.4H34.62V22.78H38V19.4ZM26 21.4V24.78H29.38V21.4H26ZM24 21.4H20.62V24.78H24V21.4ZM24 17.4V14.02H20.62V17.4H24ZM26 17.4H29.38V14.02H26V17.4ZM36 19.4V22.78H39.38V19.4H36ZM34 19.4H30.62V22.78H34V19.4ZM34 17.4V14.02H30.62V17.4H34ZM36 17.4H39.38V14.02H36V17.4ZM42 19.4H45.38V16.02H42V19.4ZM42 21.4V24.78H45.38V21.4H42ZM40 21.4H36.62V24.78H40V21.4ZM40 19.4V16.02H36.62V19.4H40ZM26 6.78H28V0.0199993H26V6.78ZM24.62 3.4V5.4H31.38V3.4H24.62ZM28 2.02H26V8.78H28V2.02ZM29.38 5.4V3.4H22.62V5.4H29.38ZM38 2.02H34V8.78H38V2.02ZM30.62 5.4V13.4H37.38V5.4H30.62ZM34 10.02H32V16.78H34V10.02ZM35.38 13.4V5.4H28.62V13.4H35.38ZM32 2.02H30V8.78H32V2.02ZM33.38 5.4V3.4H26.62V5.4H33.38ZM30 6.78H42V0.0199993H30V6.78ZM38.62 3.4V5.4H45.38V3.4H38.62ZM42 2.02H40V8.78H42V2.02ZM36.62 5.4V7.4H43.38V5.4H36.62ZM40 4.02H38V10.78H40V4.02ZM41.38 7.4V5.4H34.62V7.4H41.38ZM26 10.78H30V4.02H26V10.78ZM26.62 7.4V11.4H33.38V7.4H26.62ZM30 8.02H28V14.78H30V8.02ZM31.38 11.4V9.4H24.62V11.4H31.38ZM28 6.02H24V12.78H28V6.02ZM27.38 9.4V5.4H20.62V9.4H27.38ZM24 8.78H26V2.02H24V8.78ZM22.62 5.4V7.4H29.38V5.4H22.62ZM39.38 11.4V7.4H32.62V11.4H39.38ZM36 10.78H38V4.02H36V10.78ZM34.62 7.4V9.4H41.38V7.4H34.62ZM38 12.78H42V6.02H38V12.78ZM38.62 9.4V15.4H45.38V9.4H38.62ZM42 12.02H40V18.78H42V12.02ZM43.38 15.4V11.4H36.62V15.4H43.38ZM40 8.02H36V14.78H40V8.02ZM32 12.02H30V18.78H32V12.02ZM26.62 15.4V19.4H33.38V15.4H26.62ZM30 22.78H34V16.02H30V22.78ZM30.62 19.4V21.4H37.38V19.4H30.62ZM34 18.02H28V24.78H34V18.02ZM31.38 21.4V15.4H24.62V21.4H31.38ZM28 12.02H24V18.78H28V12.02ZM27.38 15.4V13.4H20.62V15.4H27.38ZM24 16.78H26V10.02H24V16.78ZM29.38 13.4V11.4H22.62V13.4H29.38ZM26 14.78H28V8.02H26V14.78ZM24.62 11.4V13.4H31.38V11.4H24.62ZM28 16.78H32V10.02H28V16.78ZM28.62 13.4V15.4H35.38V13.4H28.62ZM32.62 13.4V15.4H39.38V13.4H32.62ZM36 12.02H34V18.78H36V12.02ZM37.38 15.4V13.4H30.62V15.4H37.38ZM34 16.78H36V10.02H34V16.78ZM38 14.02H36V20.78H38V14.02ZM39.38 17.4V15.4H32.62V17.4H39.38ZM36 18.78H40V12.02H36V18.78ZM36.62 15.4V19.4H43.38V15.4H36.62ZM40 16.02H38V22.78H40V16.02ZM41.38 19.4V17.4H34.62V19.4H41.38ZM26 18.02H24V24.78H26V18.02ZM27.38 21.4V17.4H20.62V21.4H27.38ZM24 20.78H26V14.02H24V20.78ZM22.62 17.4V21.4H29.38V17.4H22.62ZM36 16.02H34V22.78H36V16.02ZM37.38 19.4V17.4H30.62V19.4H37.38ZM34 20.78H36V14.02H34V20.78ZM32.62 17.4V19.4H39.38V17.4H32.62ZM38.62 19.4V21.4H45.38V19.4H38.62ZM42 18.02H40V24.78H42V18.02ZM43.38 21.4V19.4H36.62V21.4H43.38ZM40 22.78H42V16.02H40V22.78Z" fill="#EEEFD2" mask="url(#path-1-outside-1_1256_4520)"/>
</svg>
