<svg width="46" height="46" viewBox="0 0 46 46" fill="none" xmlns="http://www.w3.org/2000/svg">
<circle cx="3.59375" cy="7.90625" r="0.71875" fill="#FFE14F"/>
<circle cx="6.82812" cy="11.1406" r="1.07812" fill="#FB9C8D"/>
<circle cx="10.0625" cy="15.8125" r="1.4375" fill="#95DCFF"/>
<circle cx="12.6778" cy="3.88601" r="0.71875" transform="rotate(28.3601 12.6778 3.88601)" fill="#95DCFF"/>
<circle cx="14.1475" cy="8.57022" r="1.07812" transform="rotate(28.3601 14.1475 8.57022)" fill="#FFE14F"/>
<circle cx="14.4864" cy="13.2434" r="0.71875" transform="rotate(28.3601 14.4864 13.2434)" fill="#95DCFF"/>
<circle cx="22.5644" cy="2.44908" r="0.71875" transform="rotate(39.3795 22.5644 2.44908)" fill="#FB9C8D"/>
<circle cx="22.4853" cy="8.62674" r="1.07812" transform="rotate(39.3795 22.4853 8.62674)" fill="#95DCFF"/>
<circle cx="22.0194" cy="14.2868" r="1.4375" transform="rotate(39.3795 22.0194 14.2868)" fill="#95DCFF"/>
<circle cx="35.4051" cy="5.01528" r="0.71875" transform="rotate(66.012 35.4051 5.01528)" fill="#FFE14F"/>
<circle cx="32.3361" cy="9.13816" r="1.07812" transform="rotate(66.012 32.3361 9.13816)" fill="#FB9C8D"/>
<circle cx="29.7449" cy="13.0446" r="0.71875" transform="rotate(66.012 29.7449 13.0446)" fill="#95DCFF"/>
<circle cx="43.3272" cy="14.3097" r="0.71875" transform="rotate(105.844 43.3272 14.3097)" fill="#95DCFF"/>
<circle cx="39.8794" cy="15.1823" r="1.07812" transform="rotate(105.844 39.8794 15.1823)" fill="#FFE14F"/>
<circle cx="36.8233" cy="16.5226" r="0.71875" transform="rotate(105.844 36.8233 16.5226)" fill="#95DCFF"/>
<circle cx="42.1101" cy="24.1343" r="0.71875" transform="rotate(131.83 42.1101 24.1343)" fill="#FB9C8D"/>
<circle cx="37.8565" cy="23.8753" r="1.07812" transform="rotate(131.83 37.8565 23.8753)" fill="#95DCFF"/>
<circle cx="33.2312" cy="23.1129" r="0.71875" transform="rotate(131.83 33.2312 23.1129)" fill="#95DCFF"/>
<circle cx="39.5669" cy="32.3498" r="0.71875" transform="rotate(157.233 39.5669 32.3498)" fill="#FFE14F"/>
<circle cx="35.9363" cy="30.9114" r="1.07812" transform="rotate(157.233 35.9363 30.9114)" fill="#FB9C8D"/>
<circle cx="31.1417" cy="27.8538" r="1.4375" transform="rotate(157.233 31.1417 27.8538)" fill="#95DCFF"/>
<circle cx="34.66" cy="40.3651" r="0.71875" transform="rotate(-177.273 34.66 40.3651)" fill="#95DCFF"/>
<circle cx="30.9471" cy="36.112" r="1.07812" transform="rotate(-177.273 30.9471 36.112)" fill="#FFE14F"/>
<circle cx="27.6755" cy="31.693" r="1.4375" transform="rotate(-177.273 27.6755 31.693)" fill="#95DCFF"/>
<circle cx="15.8475" cy="42.1681" r="0.71875" transform="rotate(-125.944 15.8475 42.1681)" fill="#FB9C8D"/>
<circle cx="17.2556" cy="37.5529" r="1.07812" transform="rotate(-125.944 17.2556 37.5529)" fill="#95DCFF"/>
<circle cx="19.1442" cy="32.1955" r="1.4375" transform="rotate(-125.944 19.1442 32.1955)" fill="#FFE14F"/>
<circle cx="6.34843" cy="35.0481" r="0.71875" transform="rotate(-94.4418 6.34843 35.0481)" fill="#FFE14F"/>
<circle cx="9.6203" cy="33.0213" r="1.07812" transform="rotate(-94.4418 9.6203 33.0213)" fill="#FB9C8D"/>
<circle cx="14.0289" cy="29.4379" r="1.4375" transform="rotate(-94.4418 14.0289 29.4379)" fill="#95DCFF"/>
<circle cx="3.93454" cy="26.8245" r="0.71875" transform="rotate(-57.2987 3.93454 26.8245)" fill="#95DCFF"/>
<circle cx="8.66158" cy="25.0991" r="1.07812" transform="rotate(-57.2987 8.66158 25.0991)" fill="#FFE14F"/>
<circle cx="13.3408" cy="25.1175" r="0.71875" transform="rotate(-57.2987 13.3408 25.1175)" fill="#95DCFF"/>
<circle cx="0.880285" cy="18.1313" r="0.71875" transform="rotate(-15 0.880285 18.1313)" fill="#FB9C8D"/>
<circle cx="4.19543" cy="18.5709" r="1.07812" transform="rotate(-15 4.19543 18.5709)" fill="#95DCFF"/>
<circle cx="8.06779" cy="19.5688" r="0.71875" transform="rotate(-15 8.06779 19.5688)" fill="#FFE14F"/>
</svg>
