<svg xmlns="http://www.w3.org/2000/svg" xmlns:xlink="http://www.w3.org/1999/xlink" width="270" height="44" viewBox="0 0 270 44">
  <defs>
    <clipPath id="clip-path">
      <rect id="長方形_109567" data-name="長方形 109567" width="270" height="44" transform="translate(7558 -14736)" fill="none" stroke="#707070" stroke-width="1"/>
    </clipPath>
  </defs>
  <g id="マスクグループ_468" data-name="マスクグループ 468" transform="translate(-7558 14736)" clip-path="url(#clip-path)">
    <g id="グループ_38357" data-name="グループ 38357" transform="translate(4.372 -570.069)">
      <text id="面会について" transform="translate(7635.175 -14138.018)" font-size="20" font-family="YuGothicStd-B, Yu Gothic Std" letter-spacing="0.028em"><tspan x="0" y="0">面会について</tspan></text>
      <g id="グループ_38331" data-name="グループ 38331" transform="translate(7591.175 -14159.514)">
        <path id="パス_80242" data-name="パス 80242" d="M6.381,6.523l1.231-.974L6.635,4.316l1.3-1.031.977,1.233,1.233-.977,1.03,1.3-1.234.977.977,1.233-1.3,1.032L8.642,6.85l-1.232.974ZM16.37,0,4.9,1.54.357,11.678l5.512,2.877L18.044,5.761Z" transform="translate(0.072)" fill="#f4d7c2"/>
        <path id="パス_80243" data-name="パス 80243" d="M13.4,9.766,7.081,14.3l-4.127.373L0,20.234,2.935,24.5l-.724,5.3,4.961-3.363.5-6.217,4.164,4,14.816-.777,2.111-8.169,2.9-2.293-.5-2.426-3.188.374L25.311,6.488,18.87,5.876Z" transform="translate(0 1.192)" fill="#f4d7c2"/>
      </g>
    </g>
  </g>
</svg>
