<svg xmlns="http://www.w3.org/2000/svg" xmlns:xlink="http://www.w3.org/1999/xlink" width="870" height="53" viewBox="0 0 870 53">
  <defs>
    <clipPath id="clip-path">
      <rect id="長方形_109545" data-name="長方形 109545" width="870" height="53" transform="translate(6167 -16697)" fill="none" stroke="#707070" stroke-width="1"/>
    </clipPath>
  </defs>
  <g id="マスクグループ_445" data-name="マスクグループ 445" transform="translate(-6167 16697)" clip-path="url(#clip-path)">
    <path id="パス_140202" data-name="パス 140202" d="M15.45-17.52a1.123,1.123,0,0,0-.42-1.62,1.286,1.286,0,0,0-1.68.45,16.789,16.789,0,0,1-2.55,3.24.372.372,0,0,0,.06.57l.03.03a1.984,1.984,0,0,0,2.4-.12A11.862,11.862,0,0,0,15.45-17.52Zm9.51,6.69a.484.484,0,0,1,.09-.27,1.405,1.405,0,0,0,.48-1.08,1.5,1.5,0,0,0-1.5-1.5,1.483,1.483,0,0,0-1.14.54.37.37,0,0,1-.24.12H6.9a1.485,1.485,0,0,0-1.5,1.5V-.45a1.5,1.5,0,0,0,1.5,1.5H23.46a1.524,1.524,0,0,0,1.5-1.5ZM10.86-.45a.142.142,0,0,1-.15.15H7.92a.142.142,0,0,1-.15-.15v-11.1a.142.142,0,0,1,.15-.15h2.79a.142.142,0,0,1,.15.15Zm6.45-8.49a.161.161,0,0,1-.15.15H14.85a.634.634,0,0,0-.63.63.654.654,0,0,0,.63.63h2.31a.142.142,0,0,1,.15.15v2.22a.161.161,0,0,1-.15.15H14.85a.634.634,0,0,0-.63.63.654.654,0,0,0,.63.63h2.31a.142.142,0,0,1,.15.15V-.45a.142.142,0,0,1-.15.15H13.08a.161.161,0,0,1-.15-.15v-11.1a.161.161,0,0,1,.15-.15h4.08a.142.142,0,0,1,.15.15ZM19.59-.3a.142.142,0,0,1-.15-.15v-11.1a.142.142,0,0,1,.15-.15h2.88a.142.142,0,0,1,.15.15V-.45a.142.142,0,0,1-.15.15Zm5.4-20.04a1.485,1.485,0,0,0,1.5-1.5,1.485,1.485,0,0,0-1.5-1.5,1.485,1.485,0,0,0-1.5,1.5.142.142,0,0,1-.15.15H4.59a.673.673,0,0,0-.66.69.673.673,0,0,0,.69.66Zm35.07,3.42a.366.366,0,0,0-.21-.51,28.329,28.329,0,0,1-10.59-6,1.683,1.683,0,0,0-2.19,0,32.91,32.91,0,0,1-9.9,5.94.34.34,0,0,0-.15.51,1.812,1.812,0,0,0,1.98.54,29.042,29.042,0,0,0,8.97-4.62.181.181,0,0,1,.24,0,24.188,24.188,0,0,0,10.02,4.95A1.5,1.5,0,0,0,60.06-16.92ZM44.88-5.97a1.329,1.329,0,0,0-1.44.99,19.4,19.4,0,0,1-1.38,3.84.165.165,0,0,1-.15.09.916.916,0,0,0-.96.9.935.935,0,0,0,.93.93C44.82.78,48,.75,52.62.54a.161.161,0,0,1,.15.15l-.06.96a1.145,1.145,0,0,0,1.23,1.02c.9-.03,1.29-.96,1.26-2.28-.03-1.08,0-1.53-.09-2.43a1.888,1.888,0,0,0-1.86-1.74c-.39,0-.57.15-.54.87v1.47a.121.121,0,0,1-.12.15c-3.54.18-4.86.27-7.86.27a.115.115,0,0,1-.09-.15,16.668,16.668,0,0,0,1.14-3.39A1.134,1.134,0,0,0,44.88-5.97Zm-1.71-7.65a.679.679,0,0,0,.69.69h7.08a1.5,1.5,0,0,0,1.5-1.5,1.524,1.524,0,0,0-1.5-1.5,1.485,1.485,0,0,0-1.5,1.5.137.137,0,0,1-.15.12H43.86A.7.7,0,0,0,43.17-13.62ZM37.02-8.19a.673.673,0,0,0,.69.66H57.06a1.485,1.485,0,0,0,1.5-1.5,1.5,1.5,0,0,0-1.5-1.5,1.524,1.524,0,0,0-1.5,1.5c0,.09-.03.15-.12.15H37.71A.679.679,0,0,0,37.02-8.19Zm45.45-3.36a1.44,1.44,0,0,0-1.44-1.44h-.09a1.422,1.422,0,0,0-1.44,1.44,1.44,1.44,0,0,0,1.44,1.44h.09A1.46,1.46,0,0,0,82.47-11.55Zm25.59,4.56a1.184,1.184,0,0,0,1.62.27,1.3,1.3,0,0,0,.27-1.68,6.975,6.975,0,0,0-1.8-1.83,1.859,1.859,0,0,0-2.28-.21.408.408,0,0,0-.09.6C106.56-8.94,107.37-7.92,108.06-6.99Zm9.72.03a2.028,2.028,0,0,0,2.34.03,9.323,9.323,0,0,0,2.04-1.89,1.181,1.181,0,0,0-.21-1.62,1.162,1.162,0,0,0-1.56.21,21.937,21.937,0,0,1-2.64,2.64C117.57-7.44,117.48-7.23,117.78-6.96Zm4.95-8.94a1.479,1.479,0,0,0,1.47-1.5,1.5,1.5,0,0,0-1.5-1.5,1.524,1.524,0,0,0-1.5,1.5c0,.09-.03.18-.12.18H104.97a.666.666,0,0,0-.66.66.692.692,0,0,0,.66.69ZM114-23.58a1.2,1.2,0,0,0-1.2,1.2v2.58a1.2,1.2,0,0,0,1.2,1.2,1.2,1.2,0,0,0,1.17-1.2v-2.58A1.2,1.2,0,0,0,114-23.58ZM126.12-1.74a1.5,1.5,0,0,0-1.5-1.5,1.485,1.485,0,0,0-1.5,1.5.161.161,0,0,1-.15.15h-20.4a.666.666,0,0,0-.66.66.673.673,0,0,0,.66.69h22.05A1.524,1.524,0,0,0,126.12-1.74Zm32.94-15.18a.366.366,0,0,0-.21-.51,28.329,28.329,0,0,1-10.59-6,1.683,1.683,0,0,0-2.19,0,32.91,32.91,0,0,1-9.9,5.94.34.34,0,0,0-.15.51,1.812,1.812,0,0,0,1.98.54,29.042,29.042,0,0,0,8.97-4.62.181.181,0,0,1,.24,0,24.188,24.188,0,0,0,10.02,4.95A1.5,1.5,0,0,0,159.06-16.92ZM143.88-5.97a1.329,1.329,0,0,0-1.44.99,19.4,19.4,0,0,1-1.38,3.84.165.165,0,0,1-.15.09.916.916,0,0,0-.96.9.935.935,0,0,0,.93.93c2.94,0,6.12-.03,10.74-.24a.161.161,0,0,1,.15.15l-.06.96a1.145,1.145,0,0,0,1.23,1.02c.9-.03,1.29-.96,1.26-2.28-.03-1.08,0-1.53-.09-2.43a1.888,1.888,0,0,0-1.86-1.74c-.39,0-.57.15-.54.87v1.47a.121.121,0,0,1-.12.15c-3.54.18-4.86.27-7.86.27a.115.115,0,0,1-.09-.15,16.669,16.669,0,0,0,1.14-3.39A1.134,1.134,0,0,0,143.88-5.97Zm-1.71-7.65a.679.679,0,0,0,.69.69h7.08a1.5,1.5,0,0,0,1.5-1.5,1.524,1.524,0,0,0-1.5-1.5,1.485,1.485,0,0,0-1.5,1.5.137.137,0,0,1-.15.12h-5.43A.7.7,0,0,0,142.17-13.62Zm-6.15,5.43a.673.673,0,0,0,.69.66h19.35a1.485,1.485,0,0,0,1.5-1.5,1.5,1.5,0,0,0-1.5-1.5,1.524,1.524,0,0,0-1.5,1.5c0,.09-.03.15-.12.15H136.71A.679.679,0,0,0,136.02-8.19Zm40.44,1.38a.182.182,0,0,0-.18-.3c-1.71.39-2.37.66-3.15.78-.09.03-.15-.03-.18-.12a16.514,16.514,0,0,1-.42-4.53c.09-1.74.15-3.48.39-5.16a1.12,1.12,0,0,0-.99-1.26,1.206,1.206,0,0,0-1.35,1.02,36.749,36.749,0,0,0-.42,5.52,33.507,33.507,0,0,0,1.17,8.4.539.539,0,0,0,.9.24Zm13.35.03c.54-.12,1.11-.51.9-1.65a15.175,15.175,0,0,0-2.19-5.31,2.157,2.157,0,0,0-2.34-1.02l-.27.12a.373.373,0,0,0-.18.54,18.886,18.886,0,0,1,2.58,6.3A1.236,1.236,0,0,0,189.81-6.78ZM207.63-3.6a.185.185,0,0,0-.18-.3,14.463,14.463,0,0,1-2.58.33.137.137,0,0,1-.15-.12V-19.53a1.2,1.2,0,0,0-1.2-1.2,1.2,1.2,0,0,0-1.2,1.2L202.29-.15a.5.5,0,0,0,.78.39A53.839,53.839,0,0,0,207.63-3.6Zm7.02-3.12a.866.866,0,0,0-.9.9c.03,2.91,1.56,4.68,6.3,4.68.57,0,1.26-.06,2.16-.15,1.17-.15,1.56-.63,1.68-1.56l.06-.6a.362.362,0,0,0-.39-.39c-1.14.15-2.58.36-3.54.39-3.45.12-4.32-.93-4.44-2.4A.924.924,0,0,0,214.65-6.72Zm6.69-10.86a.341.341,0,0,1-.24.09l-6.63.03a.8.8,0,0,0-.81.78.807.807,0,0,0,.81.81h5.31c.06,0,.12.09.12.15-.09.36-.54,1.71-.99,3.21-.06.15.15.3.3.18a38.468,38.468,0,0,0,2.73-2.73.249.249,0,0,1,.24-.09.925.925,0,0,0,.3.03,1.5,1.5,0,0,0,1.5-1.5,1.5,1.5,0,0,0-1.5-1.5A1.438,1.438,0,0,0,221.34-17.58Zm28.11,2.97c2.97,0,4.86,1.14,4.86,4.44,0,3.09-2.67,5.37-5.94,6.93a.282.282,0,0,0-.06.48c.57.54,1.68.24,2.4-.06,3.09-1.23,5.91-3.93,5.94-7.26.09-4.41-2.97-6.63-7.59-6.33l-13.59.54a.909.909,0,0,0-.9.93.927.927,0,0,0,.93.9C243.3-14.25,247.56-14.61,249.45-14.61Zm26.01,7.8a.182.182,0,0,0-.18-.3c-1.71.39-2.37.66-3.15.78-.09.03-.15-.03-.18-.12a16.513,16.513,0,0,1-.42-4.53c.09-1.74.15-3.48.39-5.16a1.12,1.12,0,0,0-.99-1.26,1.206,1.206,0,0,0-1.35,1.02,36.751,36.751,0,0,0-.42,5.52,33.507,33.507,0,0,0,1.17,8.4.539.539,0,0,0,.9.24Zm13.35.03c.54-.12,1.11-.51.9-1.65a15.175,15.175,0,0,0-2.19-5.31,2.157,2.157,0,0,0-2.34-1.02l-.27.12a.373.373,0,0,0-.18.54,18.887,18.887,0,0,1,2.58,6.3A1.236,1.236,0,0,0,288.81-6.78Zm20.49-.9A11.229,11.229,0,0,0,312.06.09a1.624,1.624,0,0,0,2.37.51l.54-.33a.313.313,0,0,0,.09-.51c-2.28-2.31-3.66-4.92-3.66-7.59a10.562,10.562,0,0,1,6.39-9.42c.06,0,.09-.03.15-.03h3.39a1.479,1.479,0,0,0,1.5-1.47,1.485,1.485,0,0,0-1.5-1.5,1.491,1.491,0,0,0-1.38.99.226.226,0,0,1-.21.15l-17.16.24a.96.96,0,0,0-.93.96.909.909,0,0,0,.93.9l11.91-.24a.064.064,0,0,1,.03.12A12.084,12.084,0,0,0,309.3-7.68Z" transform="translate(6208 -16668.527)" stroke="#000" stroke-width="1"/>
    <path id="パス_140208" data-name="パス 140208" d="M17.815,0,13.064,20.585l-8.709.4L0,26.128l6.73,7.126,8.71-2.376,4.75-20.19,3.167,5.147-.792,9.9,6.73-13.064-7.126-9.5.4-1.979Z" transform="matrix(0.998, 0.07, -0.07, 0.998, 6169.319, -16696.762)"/>
    <path id="パス_140245" data-name="パス 140245" d="M1470.768,264.073c-3.049,0-3.049-.065-6.1-.065s-3.06.794-6.116.794-3.06-.152-6.116-.152-3.06.121-6.115.121-3.055-.232-6.116-.232-3.049-.559-6.11-.559-3.061.537-6.115.537-3.06-.069-6.121-.069-3.061.336-6.121.336-3.06-.107-6.121-.107-3.061-.266-6.121-.266-3.061.279-6.121.279-3.067-.119-6.127-.119-3.06.065-6.121.065-3.061-.588-6.11-.588-3.06.34-6.121.34-3.055-.472-6.115-.472-3.06.769-6.122.769-3.054.065-6.115.065-3.056-.389-6.115-.389-3.049.409-6.11.409-3.061-.194-6.116-.194-3.049-.5-6.109-.5-3.06-.022-6.115-.022-3.049.226-6.11.226-3.061-.371-6.116-.371-3.049.242-6.11.242-3.061.078-6.116.078-3.049-.016-6.109-.016-3.061.009-6.116.009-3.06.2-6.11.2-3.06.371-6.121.371-3.054-.052-6.115-.052-3.049-.461-6.1-.461-3.049-.21-6.11-.21-3.055.242-6.1.242-3.06.165-6.115.165-3.06-.031-6.12-.031-3.06.3-6.115.3-3.067-.725-6.127-.725-3.061-.087-6.116-.087-3.061.192-6.121.192-3.06.371-6.121.371-3.061.284-6.115.284-3.05-.34-6.11-.34-3.061.043-6.116.043-3.049-.244-6.11-.244c-3.043,0-3.043-.011-6.1-.011-3.043,0-3.043-.045-6.1-.045-3.043,0-3.043-.128-6.1-.128-3.044,0-3.044.11-6.093.11s-3.054.246-6.1.246-3.044-.154-6.1-.154-3.049-.242-6.1-.242-3.044.125-6.1.125-3.05.329-6.094.329-3.049.184-6.093.184-3.043-.326-6.1-.326-3.043.156-6.093.156-3.049-.382-6.093-.382-3.044-.112-6.094-.112-3.044,0-6.087,0-3.055.042-6.1.042-3.044.11-6.093.11-3.044.44-6.088.44-3.054.045-6.1.045-3.049-.1-6.093-.1-3.044.089-6.1.089-3.049-.434-6.1-.434-3.056.259-6.1.259-3.043.163-6.1.163c-3.044,0-3.044.078-6.1.078-3.044,0-3.044.128-6.1.128s-3.055-.418-6.1-.418-3.061-.1-6.115-.1-3.05-.284-6.11-.284-3.06.718-6.12.718-3.061-.136-6.121-.136-3.061-.447-6.121-.447-3.066.36-6.126.36-3.066-.528-6.127-.528-3.066.615-6.132.615-3.06-.127-6.121-.127-3.066.2-6.126.2-3.061.114-6.121.114-3.061-.235-6.121-.235-3.049-.275-6.11-.275-3.06.284-6.121.284-3.055-.621-6.1-.621-3.06.767-6.115.767-3.049-.251-6.11-.251-3.055.139-6.1.139-3.06-.056-6.116-.056-3.049.179-6.11.179-3.055-.787-6.1-.787-3.055.451-6.1.451-3.06-.036-6.116-.036-3.049.347-6.109.347-3.055-.532-6.1-.532-3.06.516-6.121.516-5.082.11-8.154.11-3.06.136-6.132.136-3.066-.311-6.127-.311-3.071-.116-6.132-.116-3.071.279-6.132.279-3.061.5-6.132.5-3.066-.738-6.132-.738-3.066-.043-6.127-.043-3.072.675-6.143.675-3.066.118-6.138.118-3.072-.868-6.138-.868-3.072.811-6.132.811-3.072-.018-6.132-.018-3.061.074-6.115.074-3.06-.429-6.121-.429-3.061.176-6.121.176-3.072-.147-6.138-.147-3.072.081-6.143.081-3.066-.315-6.133-.315-3.061.4-6.126.4-3.06-.27-6.115-.27-3.061-.313-6.121-.313-3.055.488-6.116.488-3.061.011-6.11.011-3.061.061-6.132.061-3.06-.566-6.121-.566c-3.077,0-3.077-.011-6.138-.011-3.083,0-3.083-.038-6.16-.038-3.061,0-3.061.637-6.138.637s-3.066.1-6.132.1-3.061-.418-6.132-.418-.887-.32-3.97-.32-3.072.47-6.138.47-3.077.011-6.149.011c-3.089,0-3.089-.335-6.171-.335s-3.077.083-6.155.083-3.088.033-6.166.033-3.072.17-6.144.17-3.077.043-6.166.043-3.089-.107-6.189-.107-3.094-.069-6.2-.069-3.3.525-5.763-.085c-1.885-.469-.078-.586-.078-1.355s-2.78-1.3-.912-1.767c2.412-.606,3.609.673,6.653.673s3.05-.165,6.093-.165,3.049-.525,6.1-.525,3.044.212,6.088.212,3.049.192,6.1.192,3.055-.154,6.1-.154,3.05-.219,6.093-.219,3.049.275,6.1.275,3.044-.4,6.093-.4,3.055.675,6.1.675,6.3-.134,9.352-.134,3.049-.038,6.1-.038,3.049.06,6.1.06,3.049.192,6.1.192,3.044-.512,6.1-.512c3.044,0,3.044.34,6.093.34s3.05-.333,6.1-.333,3.049-.2,6.1-.2,3.044.606,6.093.606,3.049.159,6.1.159,3.044-.861,6.093-.861,3.055.773,6.1.773,3.049-.1,6.093-.1,3.05-.183,6.1-.183,3.044-.232,6.093-.232,3.044.573,6.093.573,3.044-.022,6.1-.022c3.038,0,3.038-.458,6.093-.458s3.044.053,6.087.053,3.05.2,6.093.2,3.044-.067,6.093-.067,3.044.042,6.087.042,3.049.016,6.093.016,3.044-.011,6.088-.011,3.044-.371,6.093-.371,3.044.432,6.087.432,3.044-.391,6.093-.391,3.044.45,6.088.45,3.038.152,6.082.152,3.044-.592,6.087-.592,3.225-.405,6.262-.405,3.044.154,6.077.154,3.032.215,6.076.215,3.032-.479,6.065-.479,3.044.022,6.076.022,3.033.6,6.071.6,3.038-.657,6.076-.657,3.032.224,6.076.224,3.032-.221,6.066-.221,3.043.005,6.076.005,3.033.32,6.07.32,3.038.061,6.076.061,3.033-.353,6.077-.353,3.033.154,6.065.154,3.043.192,6.071.192,3.038-.461,6.076-.461,3.032-.076,6.076-.076,3.032-.038,6.065-.038,3.044.289,6.076.289,3.033-.112,6.071-.112,3.038.248,6.071.248,3.038.315,6.082.315,3.032-.49,6.065-.49,3.044.009,6.076.009,3.033.443,6.076.443,3.033-.517,6.071-.517,3.033.367,6.071.367,3.038-.356,6.077-.356,3.038.657,6.07.657,3.044.009,6.077.009,3.033-.479,6.077-.479,3.032-.163,6.071-.163,3.038.463,6.076.463,3.033.069,6.07.069,3.038-.568,6.082-.568,3.033-.076,6.076-.076,3.033.2,6.077.2,3.033.15,6.064.15,3.044.2,6.077.2,3.044.138,6.076.138,3.044-.306,6.076-.306,3.043-.15,6.076-.15,3.044.136,6.077.136,3.043.074,6.087.074,3.032-.557,6.076-.557,3.033.266,6.077.266,3.033.161,6.076.161,3.044.313,6.077.313,3.043-.592,6.076-.592,3.044.371,6.088.371,3.033.063,6.076.063,3.044.1,6.076.1,3.045-.409,6.082-.409,3.044.091,6.082.091,3.038-.279,6.081-.279,3.044.221,6.087.221,3.044.25,6.076.25,3.044.295,6.088.295,3.038-.42,6.082-.42,3.038.358,6.088.358,3.044-.387,6.076-.387,3.044-.194,6.088-.194,3.043.022,6.093.022,3.044.071,6.087.071,3.032.49,6.076.49,3.049-.532,6.093-.532,3.044.23,6.082.23c3.055,0,3.055-.127,6.1-.127s3.044.154,6.082.154,3.044-.163,6.088-.163,3.055-.223,6.093-.223,3.044-.125,6.1-.125,3.044.176,6.082.176c3.055,0,3.055-.15,6.1-.15s3.043.832,6.093.832,3.044-.374,6.093-.374,3.044-.228,6.093-.228,3.055.175,6.1.175,3.043-.232,6.093-.232,3.055.257,6.1.257,3.044.291,6.088.291,3.049-.358,6.1-.358,3.05.391,6.1.391,3.055-.04,6.1-.04,3.049-.25,6.1-.25,3.05.179,6.1.179,3.055-.367,6.11-.367,3.049.085,6.1.085,3.055-.337,6.11-.337,3.044.545,6.1.545,3.054-.38,6.1-.38,3.055.28,6.11.28,3.055.324,6.11.324,3.06-.293,6.1-.293c3.06,0,3.06-.362,6.116-.362s3.055-.007,6.11-.007,3.06.463,6.11.463,3.055.072,6.11.072,3.055-.658,6.11-.658,3.049.058,6.1.058,3.056.071,6.11.071,3.055-.183,6.1-.183" transform="translate(5566.233 -16908.795)"/>
  </g>
</svg>
