<svg id="ad601e00-bcc2-4405-acf7-f5d20e3cc268" data-name="レイヤー 1" xmlns="http://www.w3.org/2000/svg" viewBox="0 0 330 60"><defs><style>.ae63e25e-fd30-4426-915b-4ece6ea2770f,.e8738dbf-cb43-4b00-a3dd-cf62ed24a786{fill:#4d4d4d;}.e8738dbf-cb43-4b00-a3dd-cf62ed24a786{fill-rule:evenodd;}.f5624f0e-49f3-4ab6-b9be-48878885026c{fill:none;}</style></defs><title>footer-logo</title><path class="ae63e25e-fd30-4426-915b-4ece6ea2770f" d="M33.39,43.18A4.54,4.54,0,0,0,34,45.8a13.24,13.24,0,0,0,2.16,1.49h-9a8.86,8.86,0,0,0,2.1-1.49,5,5,0,0,0,.51-2.64v-14a4.87,4.87,0,0,0-.58-2.64,8.86,8.86,0,0,0-2-1.49h9.08A12.72,12.72,0,0,0,34,26.52a4.52,4.52,0,0,0-.56,2.62Z"/><path class="ae63e25e-fd30-4426-915b-4ece6ea2770f" d="M24.34,13.9c-1.22,1.28-1,3.71.46,5.52l1.93,2.36.74-.6-1.93-2.37c-1.13-1.4-1.37-3.34-.5-4.25a1.85,1.85,0,0,1,2.27-.15l.43-.85A2.78,2.78,0,0,0,24.34,13.9Z"/><path class="ae63e25e-fd30-4426-915b-4ece6ea2770f" d="M27.59,13.62c-1.23,1.28-1,3.69.45,5.51l1.41,1.72.74-.61-1.4-1.71c-1.15-1.4-1.38-3.35-.51-4.25a1.84,1.84,0,0,1,2.24-.17l.28.21.55-.78L31,13.29l0,0A2.77,2.77,0,0,0,27.59,13.62Z"/><path class="ae63e25e-fd30-4426-915b-4ece6ea2770f" d="M35.61,13.56l.44.85a1.84,1.84,0,0,1,2.26.15c.87.91.64,2.85-.51,4.25l-1.92,2.37.74.6,1.92-2.36c1.49-1.81,1.69-4.24.46-5.52A2.78,2.78,0,0,0,35.61,13.56Z"/><path class="ae63e25e-fd30-4426-915b-4ece6ea2770f" d="M32.38,13.27l0,0-.37.3.56.78.3-.26a1.84,1.84,0,0,1,2.24.17c.87.9.64,2.85-.5,4.25l-1.46,1.69.74.6,1.46-1.69c1.48-1.82,1.67-4.23.46-5.51A2.77,2.77,0,0,0,32.38,13.27Z"/><polygon class="ae63e25e-fd30-4426-915b-4ece6ea2770f" points="32.13 12.29 31.97 11.41 32.01 11.35 33.59 11.82 34.33 11.06 33.59 10.24 32.01 10.7 31.97 10.65 32.44 9.06 31.66 8.34 30.85 9.06 31.32 10.65 31.25 10.7 29.66 10.24 29.04 11.01 29.66 11.82 31.25 11.35 31.32 11.41 31.2 12.29 32.13 12.29"/><path class="ae63e25e-fd30-4426-915b-4ece6ea2770f" d="M27.25,22.78a.3.3,0,1,0,.23.55,12.2,12.2,0,0,1,8.44,0,.29.29,0,0,0,.38-.19.29.29,0,0,0-.19-.38A12.6,12.6,0,0,0,27.25,22.78Z"/><path class="ae63e25e-fd30-4426-915b-4ece6ea2770f" d="M26.89,13.19a.58.58,0,1,1-.57-.57A.57.57,0,0,1,26.89,13.19Z"/><path class="ae63e25e-fd30-4426-915b-4ece6ea2770f" d="M25,13.85a.58.58,0,1,1-.57-.57A.57.57,0,0,1,25,13.85Z"/><path class="ae63e25e-fd30-4426-915b-4ece6ea2770f" d="M24.26,15.46a.58.58,0,1,1-.57-.57A.58.58,0,0,1,24.26,15.46Z"/><path class="ae63e25e-fd30-4426-915b-4ece6ea2770f" d="M24.29,17.32a.58.58,0,1,1-.58-.57A.57.57,0,0,1,24.29,17.32Z"/><path class="ae63e25e-fd30-4426-915b-4ece6ea2770f" d="M25.09,19.08a.58.58,0,1,1-.58-.58A.58.58,0,0,1,25.09,19.08Z"/><path class="ae63e25e-fd30-4426-915b-4ece6ea2770f" d="M26.32,20.55a.58.58,0,1,1-.58-.57A.57.57,0,0,1,26.32,20.55Z"/><path class="ae63e25e-fd30-4426-915b-4ece6ea2770f" d="M36.41,13.19a.58.58,0,1,0,.58-.57A.57.57,0,0,0,36.41,13.19Z"/><path class="ae63e25e-fd30-4426-915b-4ece6ea2770f" d="M38.38,13.85a.58.58,0,1,0,.58-.57A.57.57,0,0,0,38.38,13.85Z"/><path class="ae63e25e-fd30-4426-915b-4ece6ea2770f" d="M39.13,15.46a.57.57,0,1,0,.56-.57A.57.57,0,0,0,39.13,15.46Z"/><path class="ae63e25e-fd30-4426-915b-4ece6ea2770f" d="M39.1,17.32a.57.57,0,0,0,.57.58.58.58,0,1,0,0-1.15A.57.57,0,0,0,39.1,17.32Z"/><path class="ae63e25e-fd30-4426-915b-4ece6ea2770f" d="M38.3,19.08a.58.58,0,1,0,.58-.58A.58.58,0,0,0,38.3,19.08Z"/><path class="ae63e25e-fd30-4426-915b-4ece6ea2770f" d="M37.07,20.55a.57.57,0,0,0,.58.57.57.57,0,1,0,0-1.14A.57.57,0,0,0,37.07,20.55Z"/><path class="ae63e25e-fd30-4426-915b-4ece6ea2770f" d="M34.22,13a.58.58,0,0,0,1.15,0,.58.58,0,1,0-1.15,0Z"/><path class="ae63e25e-fd30-4426-915b-4ece6ea2770f" d="M32.16,13.17a.58.58,0,1,0,.58-.58A.58.58,0,0,0,32.16,13.17Z"/><path class="ae63e25e-fd30-4426-915b-4ece6ea2770f" d="M36,15.05a.58.58,0,0,0,.58.58.58.58,0,0,0,0-1.15A.58.58,0,0,0,36,15.05Z"/><path class="ae63e25e-fd30-4426-915b-4ece6ea2770f" d="M36,16.73a.58.58,0,0,0,.58.57.58.58,0,1,0-.58-.57Z"/><path class="ae63e25e-fd30-4426-915b-4ece6ea2770f" d="M35.3,18.31a.58.58,0,0,0,.57.58.58.58,0,0,0,0-1.16A.58.58,0,0,0,35.3,18.31Z"/><path class="ae63e25e-fd30-4426-915b-4ece6ea2770f" d="M34,20a.58.58,0,0,0,.58.58.57.57,0,0,0,.57-.58.56.56,0,0,0-.57-.57A.57.57,0,0,0,34,20Z"/><path class="ae63e25e-fd30-4426-915b-4ece6ea2770f" d="M29,13.05a.58.58,0,0,1-.58.57.58.58,0,0,1,0-1.15A.58.58,0,0,1,29,13.05Z"/><path class="ae63e25e-fd30-4426-915b-4ece6ea2770f" d="M31.35,13.08a.57.57,0,0,1-.57.58.58.58,0,0,1-.58-.58.57.57,0,0,1,.58-.57A.56.56,0,0,1,31.35,13.08Z"/><path class="ae63e25e-fd30-4426-915b-4ece6ea2770f" d="M27.38,15a.58.58,0,1,1-.57-.57A.57.57,0,0,1,27.38,15Z"/><path class="ae63e25e-fd30-4426-915b-4ece6ea2770f" d="M27.38,16.64a.58.58,0,0,1-1.15,0,.58.58,0,0,1,1.15,0Z"/><path class="ae63e25e-fd30-4426-915b-4ece6ea2770f" d="M28.1,18.23a.58.58,0,1,1-1.16,0,.58.58,0,0,1,1.16,0Z"/><path class="ae63e25e-fd30-4426-915b-4ece6ea2770f" d="M29.35,19.87a.58.58,0,1,1-.57-.57A.57.57,0,0,1,29.35,19.87Z"/><path class="ae63e25e-fd30-4426-915b-4ece6ea2770f" d="M32.12,12.12h-.9a3.7,3.7,0,0,0-.34.72,3.06,3.06,0,0,0,.34.69h.9a4.67,4.67,0,0,0,.34-.69A3.91,3.91,0,0,0,32.12,12.12Z"/><path class="ae63e25e-fd30-4426-915b-4ece6ea2770f" d="M26.49,21.49,27,22.63a13.78,13.78,0,0,1,9.48,0l.41-1.24C30.64,18.25,26.49,21.48,26.49,21.49Zm1,.55a.38.38,0,0,1,0-.75.38.38,0,0,1,0,.75Zm1.25-.42a.37.37,0,0,1-.37-.36.37.37,0,1,1,.74,0A.37.37,0,0,1,28.7,21.62Zm1.49-.25a.37.37,0,0,1,0-.74.37.37,0,0,1,0,.74Zm1.48-.08a.37.37,0,0,1,0-.74.37.37,0,0,1,0,.74Zm1.49.08a.37.37,0,1,1,0-.74.37.37,0,1,1,0,.74Zm1.48.25a.37.37,0,0,1-.37-.36.37.37,0,1,1,.74,0A.37.37,0,0,1,34.64,21.62ZM35.9,22a.38.38,0,1,1,0-.75.38.38,0,0,1,0,.75Z"/><path class="ae63e25e-fd30-4426-915b-4ece6ea2770f" d="M32.14,12.87h-.95a10.54,10.54,0,0,0-.66,4.21,12.78,12.78,0,0,0,.38,3.32h1.55a13.42,13.42,0,0,0,.35-3.32A10.51,10.51,0,0,0,32.14,12.87Zm-.47.68a.37.37,0,0,1,.37.37.38.38,0,0,1-.37.37.37.37,0,0,1-.37-.37A.36.36,0,0,1,31.67,13.55Zm0,1.22a.46.46,0,0,1,0,.92.46.46,0,1,1,0-.92Zm0,5.09a.36.36,0,0,1-.37-.37.37.37,0,0,1,.37-.37.38.38,0,0,1,.37.37A.37.37,0,0,1,31.67,19.86Zm0-1.12a.47.47,0,1,1,.46-.46A.46.46,0,0,1,31.68,18.74Zm0-1.4a.58.58,0,1,1,.58-.58A.58.58,0,0,1,31.68,17.34Z"/><path class="e8738dbf-cb43-4b00-a3dd-cf62ed24a786" d="M51.24,13.44c.32.33.69.47,1.06.79.67.59.87,1.41,2,1.51.2-.11.17-.31.36-.35.6-.12.86.86.31,1a.53.53,0,0,1-.67-.53,1.45,1.45,0,0,1-.62-.14,5,5,0,0,0,.75,1,1.72,1.72,0,0,0,1.3.58c0-.38.79-.62,1-.27a.68.68,0,0,1-.14.67c-.5.36-.83-.5-1.37-.26.37.47,1,1.23,1.73.84-.27-1,1.46-.49.67.22-.41,0-.59-.18-.8.09.2.06.5.42.66.44s.38-.22.63-.13.45.68.08.89a.58.58,0,0,1-.75-.53c-.48-.24-.91-.52-1.38-.76a1.27,1.27,0,0,0,.27.67c.24,0,.46,0,.49.21-.18,0-.33,0-.4-.08a.85.85,0,0,1,.22.67c.17,0,.19-.08.36-.05-.43.14-.7.79-1.2.84s-.82-.29-1.25-.44c.28.34.42.9.89,1s.67-.19,1-.23a4.67,4.67,0,0,1,2.58.53c-.23.1-.51-.07-.81,0-.64.06-1.33.64-2.08.27a1.23,1.23,0,0,0,.8.66c.37.08.81,0,1.2,0a19.5,19.5,0,0,1,2.44.67c-.18.3-1.2.37-1.69.36a5.56,5.56,0,0,1-1.91-.8,3,3,0,0,0,1.47,1.64c-.27.17-.49-.16-.76-.27a3.77,3.77,0,0,1-.84-.27c-.69-.49-.78-2.05-1.68-2.44,0,.68.74,1,.66,1.91.21.21.39.18.44.4s-.16.37-.18.58c-.09,1.16,1.23,1.14,1.69,1.82.24.34.18.69.31,1,.06.15.27.34.27.58-.29-.06-.34-.36-.54-.53-.38-.34-.92-.55-1.15-1.11a2.5,2.5,0,0,0,.36,1.6c.19.25.63.46.75.84a4.11,4.11,0,0,1,0,.72c0,.31.16.66.23,1.06.18,1.14,0,2,.8,2.53a.55.55,0,0,1,.8.44c0,.8-1.36.39-.89-.22a2,2,0,0,0-.49-.58c0,.87.08,2.12.8,2.44.43-.15.9-.09.93.32a.49.49,0,1,1-1-.09c-.15-.14-.3-.28-.45-.4.07.62.12,1.65.93,1.68.53-1,1.45.63.45.58-.32,0-.27-.42-.72-.39.1.2.13.57.27.7s.43.06.53.18c.3.32,0,.95-.39.89a1,1,0,0,1-.36-.36c0-.17.1-.35.09-.49,0-.4-.65-1-.71-1.41-.31.38-.05.63-.18,1.19-.26,1.15-1.7-.5-.31-.49.49-.84,0-2.11,0-3.11-.55.33.11,1.52-.9,1.47-.28.45.17,1,0,1.46-.2-.15-.14-.42-.26-.61-.23-.39-.65-.52-.75-1.07,0-.2.09-.39-.09-.67a3.59,3.59,0,0,0,.09,1.6c.07.16.25.22.39.4s.08.28.14.35.22.12.31.18a2.28,2.28,0,0,1,.62.76c.06.12,0,.24.09.35s.26.17.31.31a2.17,2.17,0,0,1-1.47-.71.71.71,0,0,0,.54.85,2.74,2.74,0,0,1,1.38.57,2.32,2.32,0,0,1,.7,1.24,6.38,6.38,0,0,1-2-1.33c-.06.61.64.88.89,1.38a7.37,7.37,0,0,1,.27,1.47c.06.22.28.42.09.66A3.29,3.29,0,0,1,57,40.19c0-.5,0-1.08-.27-1.42A19,19,0,0,0,56.51,41c-.18,0-.15-.29-.22-.44a2.38,2.38,0,0,0-.13,2.13.79.79,0,0,1,.49.13c.5,1.29-1.58.83-.67-.09,0-.22-.14-.39-.17-.62-.34.71-.84,1.79-.32,2.58.34,0,.83.11.76.58a.47.47,0,0,1-.63.35c-.48-.13-.15-1.07-.48-1.33-.27.42-.43,1.74.14,1.95.39-.49,1.17.23.65.67H55.4a1.23,1.23,0,0,1-.17-.54c-.14,0-.18-.06-.27-.09v.8c.62.06.42,1.2-.22,1a.53.53,0,0,1,0-.94,9.62,9.62,0,0,1-.05-1.59c-.64.17-.42,1.32-1.11,1.29s-.41-1.33.36-.81c.76-.6.81-1.9,1.2-2.88a.54.54,0,0,0-.36.53c-.09.1-.14,0-.22,0,.11.57-.66.75-.93.4.1.4-.4,1-.71,1.33s-.81.53-.62,1.06a2,2,0,0,0,.84,1.07c.25.1.73,0,.75.44a.79.79,0,0,1-.48.63c-.53,0-.26-.47-.36-.8s-.72-.58-.89-.89a4.16,4.16,0,0,0,.18,2.79c.49,0,.73.19.76.4a.49.49,0,0,1-.94.22c0-.17.06-.32.05-.44,0-.29-.21-.41-.27-.71-.14.91-.54,2.2-.13,3.1.85-.18.74,1,0,.89s-.1-1.21-.49-1.59c-.09.18-.22.41-.35.66a4.5,4.5,0,0,0-.36.67c0,.13.1.24.1.36,0,1.11-1.52.12-.63-.36.07,0,.19,0,.27-.09.25-.2.25-.56.44-.75-.35-.13-.51.37-.75.4a.85.85,0,0,1-.45-.23c-.26-.6.66-1,.85-.35.86,0,.8-1,1-1.64-.57,0-.46,1-1.11.93s-.39-.79-.09-.89.47.11.58.09c.76-.14.85-1.58.88-2.44-.12.18-.39.24-.44.48s.13.83-.49.76c-.21.11-.06.58-.18.8a2.84,2.84,0,0,1,.05-2.4c-.68.2-.54.91-.8,1.64s-.81,1.09-1.07,1.73.38,1.3.27,2.09c-.08.6-.51.9-.62,1.51a9.3,9.3,0,0,1-.13-2.31,2.27,2.27,0,0,0-.85,1.51,6.73,6.73,0,0,1,.1.67c-.1.83-1,1.27-1.2,2-.26-.33.13-.72.13-1.11,0-.12-.1-.28-.09-.4,0-.35.29-.62.4-.89-.43.36-1,.56-1.47.93S45,56,44.61,56.35c-.47.55-1.28.45-1.86.93-.21-.32.18-.34.36-.53.41-.44.57-1.2,1.06-1.56-1.11.21-1.4,1.55-2.7,1.69-.42,0-1.1,0-1.46,0,.17-.38.62-.46,1-.76A3.19,3.19,0,0,1,42,55.42c.34-.09.72,0,1.07-.14a3.49,3.49,0,0,1,.66-.26c-.3-.18-.65,0-1-.05-.63,0-1.2-.4-1.82-.44a2.74,2.74,0,0,1,2.76-.22c.17.08.29.26.43.31.65.23,1.17-.23,1.6-.45a2.56,2.56,0,0,1-2.35-.44c.63.1,1.06-.4,1.77-.4.41,0,.79.31,1.21.27.86-.08,1-1.24,1.72-1.64-.44,0-.65.64-1.19.75-.35.07-.67-.05-1,0s-.29.3-.58.32c.18-.46.68-.56.94-.93a9.73,9.73,0,0,1-2.49.48,2.25,2.25,0,0,0-1.46.67c.41.62-.63,1-.89.49-.38.29-.79.26-1.16.57s-.34,1.26-.71,1.73a2.36,2.36,0,0,1-.84.53c-.22.14-.32.34-.62.45a10.52,10.52,0,0,1,1.2-2,5.12,5.12,0,0,0-1.06.4c-.53.31-.61,1-1,1.28a3.78,3.78,0,0,1-1,.31,5.49,5.49,0,0,1-.89.4c0-.4.44-.45.66-.71s.42-.93,1.07-1c-.16-.12-.38.06-.62,0a2.53,2.53,0,0,1-.18.27c-.76.09-1.46-.19-1.82.18a1.74,1.74,0,0,0-.31,1.2c0,.12.25.28.27.44,0,.47-.41.6-.85.53a.55.55,0,0,1-.08-.62c.06-.12.34-.11.44-.27.2-.33,0-.57.13-1A2.86,2.86,0,0,0,32,58a.62.62,0,0,1,0,1,.5.5,0,1,1-.14-1c.06-.27.26-.42.36-.66-.25,0-.36.19-.53.31-.71.48-1.64.59-2,1.38.05.26.18.26.18.44,0,.82-1.41.37-.8-.36.06-.07.24-.06.35-.12.29-.19.37-.51.54-.67-.57,0-.94.22-1.51.22a.62.62,0,0,1-.62.4c-.91-.12.11-1.52.62-.62.3,0,.45-.17.79-.13-.17-.43-1-.18-.84-.85.12-.4.85-.32.93.18a.71.71,0,0,1-.13.26c.4.63,1.45.07,1.91-.17-.4-.37-.9.13-1.34-.18a.85.85,0,0,1-.08-.45c-.28,0-.42.19-.62.09,0-.25.2-.14.35-.22.56-.29.92-.79,1.73-.88a2.69,2.69,0,0,0-1.64-.18c-.38.1-.61.41-1,.44a7.54,7.54,0,0,1-1.15-.18c-.06.94-.62,1.3-1.24,1.73-.22.15-.33.37-.58.41.42-.65.6-1.54,1.15-2a4.44,4.44,0,0,0-1.1.44c-.43.31-.49,1-.94,1.29a2.68,2.68,0,0,1-.57.22c-.46.2-.79.36-1.29.53.07-.41.59-.53.8-.88.1-.15.06-.36.17-.49s.54-.25.76-.4a7,7,0,0,0-1.95.09c-.53.21-.86.72-1.38.8a9.1,9.1,0,0,1-2-.31c.15-.2.34-.12.54-.18a19.52,19.52,0,0,1,1.86-.76c-.75-.37-1.8.3-2.66.18a3.61,3.61,0,0,1-1.33-.7c-.16-.1-.44,0-.44-.32a20.92,20.92,0,0,0,2.26-.13c.65.09,1,.65,1.95.58-.51-.19-.95-.83-1.56-.94-.23,0-.47.15-.7,0,.06-.23.51-.07.7-.18-.14-.24-.34-.64-.66-.75-.14,0-.34,0-.49,0-.63-.09-1.22-.62-1.77-.71.26-.25.71,0,1.06-.09s.9-.29,1.38,0c-.58-.41-.88-1.1-1.64-1.33-.16,0-.07.26-.27.22a.34.34,0,0,1-.09-.31c-.17,0-.39-.12-.48-.09-.53.15-.11,1.36-.67,1.47-.07,0-.61-.07-.67-.36-.08-.47.42-.33.71-.53s.16-.39.35-.58c-.05-.21-.31-.21-.39-.4-.17.05-.37,0-.62.05a3,3,0,0,0-1.43.79c0,.08.14.26.14.31a.73.73,0,0,1-.35.49c-.71.19-.72-.71-.27-.93.12,0,.28,0,.35,0,.26-.07.27-.34.59-.4a5.74,5.74,0,0,0-3,.58c.29,1.5-1.68.3-.49-.18.11,0,.25,0,.36,0,.3,0,.46-.35.71-.35-.44-.22-1.12-.19-1.56-.4-.08.26-.65.28-.84,0-.43-.57.83-1.16.94-.22a3.93,3.93,0,0,1,.8.13c0-.49-.45-.33-.54-.62-.3-1,1.58-.38.67.27.1.69,1.14.6,1.86.53-.12-.27-.46-.26-.8-.35-.87-.24-.09-1.36.4-.8.15.16,0,.43.09.62a1.36,1.36,0,0,0,.71.49c.67.13,1.26-.3,1.86-.23-.11-.19-.37-.24-.57-.35-.44.54-1.28-.33-.67-.71a1.44,1.44,0,0,1-.53-.7c-.41.17-.58.52-1,.52s-.76-.32-1.2-.4c-.18,0-.37.06-.53-.09.11-.22.37,0,.57-.08s.39-.28.63-.36c.44-.14.73.07,1.19,0-.66-.1-1.06-.64-1.68-.57-.38,0-.53.52-.89.76s-1.28.25-1.65.44a2.36,2.36,0,0,1,1.6-1.29,1.58,1.58,0,0,0-1.33.31A3.47,3.47,0,0,1,8.76,50a3.18,3.18,0,0,1-1.6.44c.06-.21.25-.25.41-.4A3.61,3.61,0,0,1,9,48.85c-.61-.22-1.09.34-1.64.4A16.19,16.19,0,0,1,5.3,49c.52-.2.93-.66,1.51-.75.84-.14,1.61.47,2.49.26a21.83,21.83,0,0,0-2.09-.88,5.18,5.18,0,0,1,1.68-.27c.54.08.78.58,1.2.76s1,0,1.56.13A9.55,9.55,0,0,1,10,46.81,1.79,1.79,0,0,0,8.59,46c-.18.14-.19.28-.41.3-.89.1-.57-1.36.23-.93.16.09.11.26.26.49A1.33,1.33,0,0,1,9.3,46a9,9,0,0,0-.94-1.12,1.22,1.22,0,0,0-1.11-.48c-.28.06-.47.75-1,.26,0-.27-.05-.48,0-.62.36-.5.93.38,1.47.23-.4-.45-1-1.22-1.73-.89.18.62-.75.83-.89.35-.23-.8.75-.35,1-.66-.19-.16-.45-.24-.63-.4-.71.61-1.29-.65-.61-.81a.55.55,0,0,1,.61.54l1.43.8c0-.65-.69-.88-.58-1.51-.24-.17-.66-.17-.89-.35.31-.15.54,0,.89,0s.61-.3.93-.27.64.34,1,.44c.07-1.2-1.92-.86-3-.75,0-.21.18-.14.31-.23s.51-.57.8-.61c.45-.08.87.23,1.29.39-.18-.29-.37-.85-.85-.93-.27-.05-.48.12-.79.18a3.93,3.93,0,0,1-2-.22c-.27-.09-.64-.09-.75-.36,1,.42,1.88-.6,2.93-.13-.26-.57-.83-.68-1.51-.67a9.6,9.6,0,0,1-3-.7c.21-.32,1.52-.41,2.13-.27s1,.58,1.42.71A3.28,3.28,0,0,0,3.88,36.2c.25,0,.47.24.67.31.43.17.81.14,1.1.45A9.42,9.42,0,0,1,6.5,38.6a1.48,1.48,0,0,0,.66.62c.11-.45-.37-.65-.53-1s-.1-.87-.27-1.24c.33,0,.3.29.49.4.16-1.11-1.22-1.12-1.69-1.82a3.44,3.44,0,0,1-.26-.67A7.64,7.64,0,0,0,4.63,34c.23,0,.26.25.4.39.41.42,1,.64,1.29,1.24a7.33,7.33,0,0,0-.09-1.06c-.12-.47-.48-.66-.8-1a2.84,2.84,0,0,1-.22-.36A13.18,13.18,0,0,1,5,31.67c0-.11-.11-.22-.13-.35-.08-.5,0-1.05-.13-1.56s-.49-.6-.67-1c-.62.63-1.15-.86-.26-.84.21,0,.29.11.48.36s-.05.26-.09.39c.14.19.29.36.44.54a7.79,7.79,0,0,0-.17-1.87,1.61,1.61,0,0,0-.58-.58c-.31-.1-.95.3-1-.35A.52.52,0,0,1,3.39,26c.51,0,.55.83,1,1-.11-.77-.18-1.59-.93-1.73C3,26.32,2,24.59,3,24.71c.34,0,.16.41.66.35,0-.19-.21-.46-.27-.71-.8.08-.77-1.09-.13-1,.25,0,.59.53.27.8.29.43.45,1,.75,1.42.31-.42,0-1.34.35-1.55s1,.47.54.8c-.07.05-.27,0-.4.08-.54.43-.11,1.71,0,2.4,0,.28-.1.55.09.75,0-.23.26-.44.3-.7,0-.1-.08-.21-.08-.31a.48.48,0,0,1,.66-.49,6.8,6.8,0,0,0,0-1.47c.24.14.16.38.27.58.21.37.63.5.75,1,0,.21,0,.41.09.71.21-.15,0-.37,0-.58s.1-.31.09-.44c-.06-.55-.51-.85-.67-1.29-.69-.29-.89-1.09-1.33-1.64a2.92,2.92,0,0,1,1.51.75c0-.29-.19-.76-.49-.84s-.34,0-.49,0A2.45,2.45,0,0,1,3.7,21.47a7.21,7.21,0,0,1,2.09,1.37c0-.65-.83-1-1-1.73-.1-.34-.06-.73-.14-1.06s-.26-.44-.17-.71c.23,0,.36.31.53.49A2.23,2.23,0,0,1,5.83,21c.13.64-.07,1.45.4,1.9,0-.83.16-1.43.18-2.22.13.06.12.27.17.4A2.29,2.29,0,0,0,6.76,19c-.15-.08-.37,0-.49-.13-.66-.82,1.11-1.23.89-.23,0,.11-.09.16-.26.27.11.18.11.48.22.66.29-.78.87-1.89.22-2.62-.91.12-.84-1-.18-.93s.2,1,.62,1.38c.21-.5.42-1.62-.08-2-.75.68-1.44-1-.18-.66.07.26.16.53.4.62,0-.26.14-.49,0-.75s-.36-.24-.39-.36a.52.52,0,0,1,.66-.7c.28.11.28.79-.05.93a11.84,11.84,0,0,1,.05,1.6c.55-.18.42-1.43,1.15-1.29s.36,1.24-.44.79c-.73.62-.83,1.87-1.16,2.89A.86.86,0,0,0,8.14,18c.11-.11.08.07.22.05,0-.18,0-.26.05-.4.22-.17.65-.27.84,0,.19-.13-.05-.11-.05-.27.29-.34.39-.61.63-.89s.84-.49.8-1.1a1.87,1.87,0,0,0-.89-1.2c-.37-.11-.68,0-.71-.41a.69.69,0,0,1,.44-.62c.48,0,.29.55.36.76.12.42.7.63.93.89A4,4,0,0,0,10.53,12c-.7.2-1-1-.26-1s.22,1.1.71,1.51c.08-1,.49-2.07.18-3.06-.87.11-.84-1.1-.14-1s.1,1.1.49,1.64c.28-.45.46-1,.76-1.42-.32-.43.18-1.13.71-.66.16.46-.07.86-.53.84a7.86,7.86,0,0,0-.36.71c.39.16.45-.33.71-.36a.45.45,0,1,1,0,.89c-.3,0-.37-.47-.8-.27s-.47,1.07-.57,1.6c.52,0,.37-1.08,1.1-.93s.18,1.3-.53.75c-.79.32-.79,1.43-.89,2.44.16,0,.33-.34.49-.48a.5.5,0,0,1,.53-.76c.07-.22,0-.59.14-.75a3,3,0,0,1,0,2.35c.78-.22.53-1.31,1-2,.07-.12.23-.19.31-.31a6.11,6.11,0,0,0,.57-1.11c.22-.54-.36-1.34-.26-2.05.07-.49.49-.91.57-1.41.19.22.07.54.1.8a4,4,0,0,1,.08,1.55c.2-.4.56-.54.71-1s-.07-.94.05-1.46a2.58,2.58,0,0,1,.35-.62,5.4,5.4,0,0,1,.94-1.11c.06.4-.27.71-.27,1.06,0,.15.1.3.09.45,0,.34-.28.55-.36.88.45-.45,1.1-.57,1.51-1.06s.38-1.1.81-1.47,1.21-.4,1.81-.79c0,.33-.31.42-.49.62-.37.43-.53,1-1,1.42,1-.1,1.28-1.31,2.27-1.6a9.79,9.79,0,0,1,1.38,0c.19,0,.35-.21.53,0,0,.25-.24.21-.4.31s-.46.32-.67.49a2.42,2.42,0,0,1-1.11.71,3.48,3.48,0,0,0-1.6.4,6.34,6.34,0,0,0,1.12,0c.57.06,1,.44,1.5.4a3.43,3.43,0,0,0,1-.49c.62-.36,1.24-.51,1.11-1.25C23.67,4.34,24.69,4,25,3.14c.09-.22-.05-.39.22-.58.3.1.07.41.05.58a3.84,3.84,0,0,1-.84,2.35c1.18-.08,1.09-1.62,1.95-2.35.5-.41.93-.55,1.42-1,0,.46-.53.73-.67,1.16-.05.16,0,.35,0,.49-.19.53-.73.54-1.11,1C28,5,27.8,2.64,29.8,2.7c-.06-.32-.21-.29-.23-.5,0-.55.84-.77,1-.3s-.4.45-.53.75c.13.08.43-.2.66,0-.21.43-.84.45-.79,1.15a3.82,3.82,0,0,0,2.17-1.82c-.12-.13-.24-.18-.27-.31-.21-1,1.45-.66.8.22-.43,0-.54.43-.71.76.79-.45,2-.84,2.53-1.69-.67-.69.53-1.22.71-.57.08.27-.17.3-.18.57-.5,0-.56.43-.79.71a9.25,9.25,0,0,0,1.46-.22.68.68,0,0,1,.93-.27c.38.73-.69,1-.93.49a1.9,1.9,0,0,1-.75.13c0,.29.3.35.66.32.34.31,0,1-.4.79a3.46,3.46,0,0,1-.84,1.2,4.23,4.23,0,0,0,1.07-.31c.52-.27.6-.92,1-1.2s1.3-.28,2-.66c0,.44-.58.5-.8.8-.09.11-.08.28-.18.39s-.55.28-.8.49c.62-.07,1.23.18,1.87,0,.44-.09.77-.57,1.24-.67.81-.17,1.28.29,2.17.41-.27.25-.6.16-.92.26a5.36,5.36,0,0,1-1.51.49c.77.44,1.7-.1,2.61,0,.56.08.92.53,1.33.8.18.11.38,0,.44.26-.21.24-.52,0-.7,0-.71,0-1.23.21-1.82,0s-.87-.7-1.6-.66c.2.32.55.38.84.66s.58.87,1,1.2a5.68,5.68,0,0,1,.58.53A8.27,8.27,0,0,1,44.84,5.4c0,.28-.31.2-.49.36s-.3.77-.61,1-.67.15-1.16.36c1,.94,2.14-.89,2.79-1.38-.19.66-.12,1.59-.88,1.68.2.11.37.25.57.36a13.85,13.85,0,0,1,1.2-1.33A4.53,4.53,0,0,1,48,5.67c-.07.26-.32.18-.49.3-.61.51-.65,1.61-1.6,1.78.78.31,1.27-.18,1.74-.57a7.76,7.76,0,0,1,2.53-1.33c0,.44-.31.56-.62.89a3.55,3.55,0,0,1-2.35,1.1,3.49,3.49,0,0,0,2.21.31c-.6.18-1.28.69-1.91.54-.07.3-.56.42-.48.62-.11.11-.35,0-.4,0a5.29,5.29,0,0,1-.31.53c.43.78,2.2-.14,2.48-.53-.59-.82,1.13-1.18.84-.22a.81.81,0,0,1-.35.36c-.06,0-.2-.07-.27-.05-.33.13-.47.41-.66.49.46-.08,1.18-.08,1.86-.17a2.41,2.41,0,0,0,1.2-.5c.08-.16-.17-.57.13-.71a.61.61,0,0,1,.71.31.6.6,0,0,1-.4.63c-.07,0-.23-.06-.31-.05-.29,0-.48.36-.71.4.45.17,1.05.2,1.51.36.4-.43,1.13-.07.89.48-.15.36-1,.3-.93-.26-.33,0-.49-.15-.8-.14-.15.37.41.35.48.53.31.78-1,.91-.83,0,0-.09.14-.11.21-.17-.11-.68-1.22-.71-1.9-.53.26.43,1.16.18,1.24.7a.48.48,0,1,1-.89-.17c-.46-.77-1.76-.39-2.66-.27.18.15.45.21.62.36.45-.57,1.3.32.67.71.3.12.41.44.57.71.37-.27.61-.58,1.11-.54a14.06,14.06,0,0,0,1.64.5c-.17.18-.35,0-.57,0s-.47.33-.76.4a3,3,0,0,1-1.15-.13c.72.21,1.18.73,1.82.61.37-.06.5-.53.84-.75s1.24-.16,1.6-.49A2.07,2.07,0,0,1,52,13.12a1.55,1.55,0,0,0,.93,0c.35-.12.38-.44.58-.75a2.77,2.77,0,0,1,2.18-1.07c0,.2-.2.24-.32.35a3.43,3.43,0,0,1-1.55,1.21c.79.22,1.21-.45,2.13-.36.09,0,.18.07.27.09.45.09,1-.07,1.33.18-.57.2-.95.67-1.6.75s-1.5-.49-2.35-.27a21.87,21.87,0,0,0,2.09.89,5.13,5.13,0,0,1-2,.18c-.33-.13-.53-.52-.89-.66A8.73,8.73,0,0,0,51.24,13.44Zm-18.3-11c.55.22,1.24-.28,1.52.36a.52.52,0,0,0,0-1C34,2,33.27,2,32.94,2.43Zm-1.63.84c.94-.19,1.51.38,2.39.49a2.26,2.26,0,0,1,.22-.44c-.33,0-.42-.32-.48-.62C32.51,2.35,31.92,2.92,31.31,3.27Zm-1.74.4c-.34.18-1.4.26-1.46.71C28.64,4.36,29.44,4.23,29.57,3.67ZM31,4.43c.47.1,1.2.13,1.69.26.13,0,.25.15.36.13.37-.05.5-.49.62-.93-.34-.06-.75-.05-1.07-.13C32.42,4.61,31.41,3.83,31,4.43ZM39.12,5c0-.78-.94-.93-1.6-.93C38.29,4,38.49,5.1,39.12,5Zm-2-.4c-.08-.11-.16-.35-.22-.4-.48-.39-1.11,0-1.73.13-.3.07-.61,0-.8.18,1.4-.33,1.76.57,2.84.66a5.88,5.88,0,0,1-1.24.18c.27.69,1.6.43,1.91-.09A2,2,0,0,1,37.07,4.56ZM54.25,36.47c-.51.7-1.48,1-1.33,2.3.47,0,.61.79.22.94s-.74-.13-.66-.62c0-.17.44-.56.17-.89-.33.45-1.08,1.13-.62,1.82.73-.23.84.88.22.89s-.24-.71-.53-1c-.07.18-.35.41-.36.71s.18.25.18.44a.52.52,0,0,1-.48.49c-.65,0-.51-1,.13-1a5.28,5.28,0,0,1,.53-1.41,4,4,0,0,0-.75.3c-.18.14-.11.3-.32.36a.44.44,0,1,1-.13-.84c.2,0,.22.16.4.26,1.11-.35,1.53-1.4,2.31-2.08-.28,0-.51.17-.8.22-.27.9-1.46-.08-.76-.49.32-.18.66.09.85.27a3.63,3.63,0,0,0,2.22-1.64c-.3-.07-.23.24-.45.26,0-.16.06-.21.05-.35-.4.09-.55-.12-.8-.05s-.25.42-.58.4c-.82,0,0-1.54.58-.71.45-.76.2-1.77.62-2.44.25-.38,1-.82.89-1.46a6.35,6.35,0,0,1-2.36,1.59,3.16,3.16,0,0,1,1.65-2c.24-.1.54-.07.89-.18s.77-.95.75-1.33a2.38,2.38,0,0,1-1.2,1.07c-.22.1-.61.3-.75.09.09-.1.27-.12.36-.23a2.16,2.16,0,0,1,.84-1.33c.27-.19.7-.24.88-.44A.91.91,0,0,0,56,27.19c0,.41-.53.51-.7.8s-.05.56-.32.76a17.39,17.39,0,0,1,.14-2.22c-1,0-.34-1.06-.85-1.51-.08,1-.49,2.16-.13,3.11a.48.48,0,1,1,.13.93c-.7-.07-.14-1.24-.58-1.6A8,8,0,0,1,53,28.79a.55.55,0,0,1-.35.89c-.56,0-.59-1.15.22-1,.05-.29.23-.45.31-.71-.36-.17-.41.26-.66.31-.72.12-.75-1,.17-.8.55.93,1.26-.8,1.11-1.42-.46.19-.37,1.08-1,1-.8-.07-.27-1.46.48-.8.75-.39.8-1.48.85-2.44-.24.09-.31.34-.49.49.53.64-.83,1.12-.89.3a.53.53,0,0,1,.8-.48,2.19,2.19,0,0,0,.62-.89,14.76,14.76,0,0,1,.31-1.9c-.2.05-.15-.16-.31-.14a6.67,6.67,0,0,0-.27.72c0,.23.09.64-.08.7A15.82,15.82,0,0,1,53.36,21c0-.68.55-1.5,0-2,.19.73-.48,1.15-.45,1.6,0,.2.32.42.36.66.13.72-.26,1.34-.31,2-.23-.2-.14-.5-.23-.75-.17-.55-.65-1-.71-1.6-.34,1,.35,1.85.18,2.8-.08.48-.46.8-.66,1.2-.09.17,0,.4-.22.48-.26-.14-.08-.32-.09-.53,0-.54-.21-1.18-.18-1.68.05-.69.77-1.24.49-2a4.53,4.53,0,0,1-.58,1,9.89,9.89,0,0,1-.89.71c-.12.13-.12.39-.35.4A3.12,3.12,0,0,1,51,20.85c.18-.12.49-.13.66-.31a2,2,0,0,0,.27-1.47,2.26,2.26,0,0,1-1.55,1.73c.25-.22.21-.47.26-.84A2.41,2.41,0,0,1,51,19c.18-.27.79-.55.84-.85.13-.73-.41-1.43-.57-2.3-.12.56.15.82.08,1.29s-.41.57-.49.92.12.52-.08.72c-.24-.32-.1-.66-.19-1s-.36-.64-.35-1c0-.61.68-.78.76-1.42a12,12,0,0,0-1.38-2c0,.48.44.82.44,1.19-.62-.57-1.49-.9-1.55-2-.26,0-.47-.06-.53-.26s.07-.26.17-.32A8.16,8.16,0,0,1,47,11.35c-.3-.21-.67-.74-1-.8s-.47.2-.71.09c.14.32.2.77.36.93.62.65,1.37.72,1.51,1.95,0,.47.06.77.09,1.11-.44-.74-1.16-1.19-1.6-1.9-.08,1.06.92,1.55,1,2.52a18.53,18.53,0,0,1-.22,1.87c-.34-.06-.27-.4-.36-.67a14.21,14.21,0,0,1-.67-1.37c-.1-.69.23-1.39-.13-2a6.73,6.73,0,0,1-1.07,2.62,3.51,3.51,0,0,1,0-2c.21-.57.8-.87.94-1.24A2.58,2.58,0,0,0,44.93,11a2.46,2.46,0,0,1-1,2.17c.23-.3,0-.64,0-.93-.11-.92.36-1.28.31-1.91.09,0,.27.06.23-.08a1.16,1.16,0,0,0-.85-1.07c.22.4-.11.83-.09,1.24s.26.44.19.72c-.27-.17-.35-.47-.49-.72a7.63,7.63,0,0,1-.94-1.55c-.6,0-.85-.33-1.46-.31.3.45.73.78,1,1.25a.51.51,0,0,1,.66.57c-.11.57-1,.25-1-.18,0-.11.14-.18.1-.31s-.4-.41-.58-.58c0,.19-.09.17-.09.31a.45.45,0,0,1-.27.8c-.46,0-.65-1,.14-.88.15-.93-.75-1.3-1.25-1.56-.07.42.52.6.58.93a.46.46,0,1,1-.88,0c0-.16.24-.26.25-.39a1.57,1.57,0,0,0-.21-.72,2.56,2.56,0,0,0-.84-.52,2.66,2.66,0,0,0-.89-.41,1.9,1.9,0,0,1,.31.58.49.49,0,1,1,.09,1,.5.5,0,0,1-.22-.94c-.24-.08-.19-.49-.4-.75a4.38,4.38,0,0,0-1.07-.62c-.37-.21-.65-.52-.84-.58s-.31,0-.49,0c-.5-.1-.73-.77-1.11-.8a1,1,0,0,0-.62.27c.51.14.65.51,1,.8s.76.45.75.93a12.21,12.21,0,0,1-3.5-1.47c-.59-.43-1.17-1-2.13-.57,1,.24,1.27,1,1.77,1.64a2.85,2.85,0,0,0,1.11.8,4.25,4.25,0,0,1-2-.67,4.69,4.69,0,0,1-1.29-1c-.16-.19-.2-.47-.4-.63-.51-.39-1.29,0-1.87.19.54.16,1.29.2,1.6.48s.26.92.4,1.38c.06.18.28.23.17.44-.63-.42-1.58-1.78-2.57-1.95a1,1,0,0,0-1.11.44c.67.2,1.08.07,1.51.36s.52.93.9,1.19c.2.15.61.14.66.4a9.06,9.06,0,0,1-2.62-1c-.33-.19-.67-.66-1-.67a2.43,2.43,0,0,0-.84.4c-.3.18-.51.33-.81.49-.51.29-1.54.74-1.59,1.38-.28.14-.49.45-.8.53s-.44-.2-.53.09c1,0,2.36,0,2.53-.8,0-.14-.11-.3-.09-.45a.47.47,0,0,1,.93.09c0,.47-.95.51-1.06,1,.7-.17,1.65-.09,1.73-.89-.92-.62.72-1.53.58-.31a.7.7,0,0,0-.41.58c.22-.14.55-.09.75-.31s.06-.45.32-.54.77.14.71.49a.55.55,0,0,1-.85.23c-.4.3-1,.39-1.41.7.38.33,1.6,0,1.59.63s-1.11.69-.93-.18c-.8-.48-2.16-.1-3.15,0,.28,0,.44.27.76.31s.73,0,.75.4c0,.76-1.2.52-.93-.31a4.27,4.27,0,0,0-2.76-.31c.25.29.48.86.85,1s.77-.11.71.4c0,.26-.4.43-.62.41-.48-.05-.26-.37-.4-.76a1.9,1.9,0,0,0-1.16-.93,2.18,2.18,0,0,0-.52.09,10.21,10.21,0,0,0-2.94,1.19c-.22.16-.51.51-.75.67-.07,0-.24.1-.27.13-.2.27-.08.76-.13,1-.09.38-.53.5-.66.89,1.27-.16,1.09-1.55,1.95-2.09a3.27,3.27,0,0,1,.62-.17c.17-.07.34-.39.67-.23-.38.37-.54.85-1,1.15-.26.18-.64.23-.76.58a1.68,1.68,0,0,0,1.2-.53c.39-.29.94-.89,1.38-1a6.52,6.52,0,0,1,1.73.12,3,3,0,0,0-2,.94,3.74,3.74,0,0,1,2.39.22c.49.25,1,.36,1.07.8-.72-.09-1.32-.11-2-.23-1.09-.19-1.77-1-2.7-.35,1,0,1.35.84,2,1.2.19.1.47,0,.63.18a4.63,4.63,0,0,1-2-.23c-.64-.26-1.12-.91-1.56-.92s-.72.31-1,.53c1.07-.12,1.68.21,1.77,1.06a.39.39,0,0,1,.27.27c-.86-.27-2.29-1.64-3.06-.49,1.29-.29,1.36.44,2,.76.24.11.44,0,.67.22a6,6,0,0,1-2.44-.4c-.14,0-.12.12-.22.13s-.24-.3-.44-.35l-.85.75a3.45,3.45,0,0,0-1.11,1.51c-.17.46-.21.91-.4,1.33-.07.15-.3.22-.18.4a6.07,6.07,0,0,1,1.38-.93c.41-.3.44-1.18.8-1.56s.93-.38,1.42-.58c.17-.06.26-.28.49-.22-.06.32-.39.39-.58.63-.34.42-.44,1.07-.93,1.37,1.2-.2,1.36-1.44,2.53-1.64a9,9,0,0,1,1.69,0,8.59,8.59,0,0,1-1,.76,2.57,2.57,0,0,1-1.29.75,2.64,2.64,0,0,0-1.5.45,6.15,6.15,0,0,1,2.79.44,2.72,2.72,0,0,1-1.95.45c-.64-.07-1.05-.58-1.51-.63a2.13,2.13,0,0,0-1.29.49,2.42,2.42,0,0,1,2.32.49c-.57-.2-.83.24-1.38.31a2.76,2.76,0,0,1-.76,0c-.25,0-.52-.27-.75-.26-.63,0-1.09.92-1.24,1.28.23-.06.34-.29.71-.35s.54.05.8,0,.43-.35.66-.36c-.08.44-.57.51-.8.76s-.18.38-.31.53a1.18,1.18,0,0,1-.27.22c-.43.24-1.35-.13-1.68.18a3.82,3.82,0,0,0-.31.8c-.38.85-.73,1.61-1,2.44a5.81,5.81,0,0,1,.31,1c0-.59.36-.79.57-1.06s.17-.71.54-.81c0,.08-.05.27,0,.27.3-.49,1-.06.8.49-.05.18-.32.23-.4.35a3,3,0,0,0-.13.63c.55-.65,1.55-1.05,1.33-2.31-.7-.09-.48-1.23.26-.89a.58.58,0,0,1,.23.49c0,.26-.5.65-.23,1,.35-.47,1.16-1.21.63-1.87-.58.32-.84-.73-.32-.84.71-.15.35.7.67,1,.12-.25.24-.51.36-.75a.5.5,0,0,1,.22-.89c.62-.08.7.85,0,.93a14.89,14.89,0,0,1-.62,1.46c.34-.18.57-.15.8-.35s.07-.25.22-.31c.7-.3,1,.61.49.8s-.52-.13-.71-.27c-1,.42-1.56,1.38-2.27,2.13.31-.17.51-.11.76-.26s.2-.36.48-.36c.7,0,.64,1.13-.22.89-.16-.05-.15-.22-.35-.31a3.7,3.7,0,0,0-2.18,1.64c.22.15.2-.27.45-.23,0,.16-.07.2-.13.27a2.39,2.39,0,0,0,.88.09c.17-.11.21-.32.36-.36,1.07-.24.28,1.66-.44.72-.34.76-.16,1.8-.58,2.44-.32.47-.91.7-.85,1.37a6.53,6.53,0,0,1,2.31-1.51A3,3,0,0,1,9,30.61a5.18,5.18,0,0,1-1.38.44c-.35.12-.73,1-.71,1.33a2.41,2.41,0,0,1,2-1.24c-.06.18-.29.19-.39.31a2.16,2.16,0,0,1-.85,1.33c-.24.17-.72.22-.89.4s-.28,1.06.14,1.29c.11-.41.62-.52.8-.88s0-.48.22-.63c0,.72,0,1.52-.09,2.22.92,0,.28,1.09.84,1.46,0-1,.54-2.24.05-3.1-.79.21-.74-1.06,0-.89.55.12.09,1.28.48,1.6.26-.46.46-1,.71-1.42a.54.54,0,0,1,.27-.8.5.5,0,1,1-.09,1c-.11.25-.22.51-.35.75.33.13.39-.24.62-.31,1.1-.32.27,1.63-.31.49-.81.08-.82,1-1,1.68.62-.08.38-1.06,1.06-1s.31,1.35-.48.8c-.8.28-.8,1.6-.84,2.48.1-.22.32-.33.44-.53a.55.55,0,0,1,.26-.76c.59-.16.89.72.4.94-.17.08-.44-.08-.58,0-.1.24-.45.41-.57.75a1.92,1.92,0,0,0,.09,1.06,4,4,0,0,1-.09,1.25c0,.16-.13.2-.13.31a1.59,1.59,0,0,0,.31.76C8.86,40.4,9.69,40,9.87,39c0-.18-.12-.4.13-.57.2.91.68,1.54.93,2.39.28-1-.29-1.81-.22-2.62.06-.6.47-1,.72-1.46.07-.15,0-.38.22-.45.15.31,0,.63,0,.94a11.23,11.23,0,0,1,.18,1.24c0,.77-.69,1.34-.54,2.08.26-.36.4-.71.67-1s.61-.51.89-.79c.09-.1.11-.33.31-.31a3,3,0,0,1-1.33,2.48c-.16.1-.47.14-.62.31A1.75,1.75,0,0,0,11,42.59a2.26,2.26,0,0,1,1.51-1.73c0,.18-.16.25-.22.4A6.64,6.64,0,0,1,12,42.64a4.08,4.08,0,0,1-.36.35c-.11.11-.37.19-.44.31-.35.57.19,1.36.31,1.73s0,.58.22.76a2.42,2.42,0,0,0-.13-.89c-.06-.68.42-.86.53-1.42,0-.2-.14-.47.09-.58.07.09,0,.28.09.4A.53.53,0,0,1,13,44,7.69,7.69,0,0,1,14.13,45c-.07-.25.06-.55-.05-.84s-.2-.2-.21-.31a.56.56,0,0,1,.26-.58c.69-.23.88.85.18.94-.06,1.26.79,1.94,1.15,2.92-.09-.29.1-.52,0-.8s-.23-.24-.23-.39a.6.6,0,0,1,.45-.54c.6-.06.7,1-.05,1a2.21,2.21,0,0,0,.94,2.44c0-.32.35-.41.35-.8,0-.15-.21-.31-.17-.53.08-.61.77-.25.88.09,0,.11-.06.25,0,.4s.21.32.31.53a4.3,4.3,0,0,1,.27.62,4.55,4.55,0,0,1-.1,1.91c0-.06.23,0,.36,0,0-.38,0-.81.22-1,.25.86,1,1.27.8,2.49.33.08,1,.43.53.8-.05-.05-.21-.19-.27-.09.56.34,1.22.59,1.78.93-.27-.44-.67-.48-.93-.84s-.13-.55-.27-.89-.46-.42-.53-.71c.24,0,.27.18.45.22.19-1,1.21.17,1.72-.18a6.37,6.37,0,0,1-1-1.1c-.56.06-.82-.37-.67-.72.24-.51,1.36.08.84.63.25.14.33.44.63.53.14-.44-.19-.36-.13-.71A.43.43,0,1,1,22,51c-.37.71.87,1.43,1.24,1.51-.05-.33-.33-.5-.49-.71-.5-.68.63-1.15.76-.49.09.43-.23.42-.27.67-.08.65.78,1.17,1.2,1.29,0-.11-.32-.12-.35-.36a.94.94,0,0,1,.35,0c-.13-.16-.22-.57,0-.71-.63-.39-.81-1.23-1.2-1.86.43,0,.69.36,1,.53a4.18,4.18,0,0,1,1.11.58c.47.45.58,1.31,1.24,1.51a4.48,4.48,0,0,1-.57-1.87c0-.32-.23-.65-.13-.88a3.1,3.1,0,0,1,1.28,2.08c0,.33-.14.73-.09,1.07s.8.94,1.07,1.06A2.16,2.16,0,0,1,27.53,53a1.3,1.3,0,0,1,.1-.8c0,.35.29.45.48.62a2.33,2.33,0,0,1,.76,1.91c.43.66,1.6.59,2.3,1-.09-.28-.38-.28-.53-.35a1.51,1.51,0,0,1-.58-.36c-.2-.21-.2-.53-.4-.8s-.5-.27-.62-.53c.59.07,1.16.56,1.91.62.47.05.92-.13,1.33,0,.62.13,1,.83,1.73.54-.85-.25-1.2-1-1.73-1.56-.12-.13-.36-.13-.35-.36a3.07,3.07,0,0,1,2.17,1.07c.24.29.3.64.53,1s1,.39,1.47.36c-.65-.08-.91-.5-1.24-.89-.2-.23-.56-.44-.45-.75.19,0,.17.22.31.27a2.73,2.73,0,0,1,1.43.39c.21.15.54.81.7.89a1.64,1.64,0,0,0,1,0,6.32,6.32,0,0,1,1.47-.44c-.35-.25-.55,0-.85,0-.47,0-.7-.24-1.11-.41-.15-.06-.38,0-.44-.18-.16,0-.46.08-.49-.09s.3-.08.44-.13c0-.48.57-.56.89-.35.38-.32,1-.38,1.38-.71-.48-.25-1.57.06-1.6-.58a.46.46,0,1,1,.89.18c.85.4,2.14.09,3.14,0-.37-.43-1.52,0-1.5-.76s1.18-.55.93.27c.57.46,2.11.83,2.4-.13a3.23,3.23,0,0,1-.36-.45c-1.16.33-.94-1-.09-.79.46.13.12.83.54,1,.06-.07.09-.3.22-.18s.06.4.13.53c.32.53,1.28.1,1.73,0A8.53,8.53,0,0,0,48,50.85c.18-.14.3-.36.48-.49s.31-.12.36-.18c.21-.26,0-.61.13-1s.61-.5.62-.8c-1.24.1-1.13,1.68-2,2.13a4,4,0,0,1-1.16.36c.28-.27.37-.69.67-1s1-.34,1-.84c-1,.08-1.69,1.49-2.66,1.6a9.12,9.12,0,0,1-1.6-.14,2.8,2.8,0,0,0,1.6-.62c.17-.11.55-.17.35-.35a3.07,3.07,0,0,1-2.39-.27c-.41-.22-.92-.31-1-.76a9.78,9.78,0,0,1,3.46.8,1.59,1.59,0,0,0,1.2-.17c-1.08,0-1.35-1-2.18-1.29-.11,0-.39.12-.44-.13a4.51,4.51,0,0,1,2.62.58c.26.16.4.44.62.52.47.21,1.11-.23,1.29-.48a2.53,2.53,0,0,1-1.29-.09c-.26-.16-.29-.61-.44-.89s-.3-.15-.27-.35c.68.31,2.62,1.69,3,.48-.43,0-.86.11-1.21,0s-.46-.56-.79-.71-.39.05-.58-.22A6.85,6.85,0,0,1,49.9,47c0-.08,0-.16.09-.14s.22.3.4.31.68-.57.89-.76a6.22,6.22,0,0,0,.88-.79,6.39,6.39,0,0,0,.23-.76c.21-.57.38-1.1.61-1.6-.46.45-1.13.52-1.54,1.07-.25.33-.25.81-.49,1.15-.46.65-1.43.69-2.09,1,0-.3.32-.34.49-.53.4-.44.51-1.12,1-1.47-1.15.17-1.37,1.5-2.66,1.65a8.06,8.06,0,0,1-1.56,0A15.61,15.61,0,0,0,47.6,45c.66-.51,1.64-.33,2.39-.84a6.74,6.74,0,0,1-2.79-.49,3.36,3.36,0,0,1,2.12-.4c.81.12,1.09.75,1.83.54.26-.08.71-.24.75-.45a1.88,1.88,0,0,1-.62.18c-.55,0-1.62-.36-1.6-.67.49.22.82-.19,1.2-.26a2.56,2.56,0,0,1,.62,0c.3,0,.65.28,1,.27.69,0,1-.81,1.29-1.29-.28.12-.45.34-.85.4-.24,0-.52-.06-.75,0s-.39.4-.62.31c.16-.4.57-.49.84-.8s.27-.5.53-.66c.51-.32.77,0,1.29,0s.75-.82,1-1.33.38-.93.53-1.33a3.18,3.18,0,0,0,0-1.73c-.24.19-.12.52-.27.75s-.3.19-.39.32-.16.74-.54.79c-.05-.13.13-.24,0-.31-.27.54-1.12,0-.75-.62a2.84,2.84,0,0,1,.35-.13C54.15,36.93,54.28,36.59,54.25,36.47ZM38.67,5.67c-.05.07-.15.08-.26.09-.44-.47-1.1,0-1.51.31a4,4,0,0,0,2.62.84.66.66,0,0,1,.53-.53A4.86,4.86,0,0,1,38.67,5.67ZM40,7.31c-.14,0-.22-.18-.41-.22a1.48,1.48,0,0,0-.7,0c.94.39,1.61,1.28,2.84,1.24-.26-.41,0-1.12-.31-1.38s-.66-.2-.93-.44A.48.48,0,0,1,40,7.31Zm-20.11.31c-.53-.06-.76-.39-1.11-.53a1.27,1.27,0,0,0-1.06.14c-.18.06-.46.09-.49.3a2.81,2.81,0,0,1,.62-.18A2.44,2.44,0,0,1,19.46,8c-.35-.13-.6.08-.85.17a2.46,2.46,0,0,1-1,.18c-.32,0-.68-.28-1.07-.26-.65,0-1.18,1.06-1.55,1.42-.06,0-.27.12-.18.27.51-.23.64-.71,1.29-.8.22,0,.49,0,.75,0s.42-.41.67-.32c-.18.41-.83.57-.89.93a14.78,14.78,0,0,1,1.64-.49c.59-.07,1.37,0,1.65-.26-.14,0-.14-.1-.14-.23.44-.3.68-.79,1.2-1A5,5,0,0,1,19.85,7.62Zm22.73.93c.6-.43,0-1.08-.58-1.15C42.21,7.77,42.59,8,42.58,8.55Zm1.59.27c.56.41,1.66.27,2,.89a1.68,1.68,0,0,0,.27-.45A1.64,1.64,0,0,1,45,8.77c-.15-.14-.27-.41-.4-.48a5.28,5.28,0,0,0-1.06-.22C43.8,8.25,44.16,8.36,44.17,8.82Zm1.6-.35c.3,0,.4.22.67.26-.06-.22.14-.18.13-.35A8,8,0,0,0,45.37,8C45.4,8.25,46,8.16,45.77,8.47Zm1.34,2.44c-.1,0-.29-.19-.36-.1.41.24.69.58,1.11.8,0-.07.13-.07.18-.13a.38.38,0,0,1-.31-.57,2,2,0,0,0-.8-.36C47,10.66,47.2,10.73,47.11,10.91Zm4.83,4.34a1.76,1.76,0,0,1,0-.48c-.56-.25-1-.29-1.29-.8s-.44-.86-.89-.89C50.51,13.76,50.48,15.26,51.94,15.25ZM11,15.43c.16-.37.76-.48.8-.93,0-.17-.08-.24-.13-.4s0-.41-.13-.53A2.15,2.15,0,0,0,11,15.43Zm42,.62c.22.32.42.64.58.89-.35-.05-.47-.33-.8-.4.21.78.59,1.4.84,2.13a9.4,9.4,0,0,1,2.26.4c-.33-1-1.16-1.5-1.77-2.22.19.29,0,.49.13.71s.31.17.36.36a.5.5,0,0,1-.71.62c-.39-.19-.16-1,.22-.93a3.45,3.45,0,0,0-1.47-2.4C52.53,15.66,52.87,15.8,53.05,16.05Zm-.44,4.09c-.09-.42-.1-1.14.22-1.29-.21-.27-.36-.59-.58-.84C52.38,18.68,52.19,19.9,52.61,20.14ZM8.23,18.36c-.14.28.23.8.27,1.16.18-.44.84-.55.62-1.25C8.77,18.53,8.39,18,8.23,18.36Zm-.45.49a4.28,4.28,0,0,0-.66,1.82c.22,0,.36-.14.58-.18A2.47,2.47,0,0,1,7.78,18.85Zm46.16.36c.07.81.86.9,1.82.84-.14-.34.1-.54.26-.71A2.12,2.12,0,0,1,53.94,19.21Zm-47,2c-.16.49.45,1,.26,1.59.1-.77,1.16-1.42.58-2.17C7.47,20.9,7,20.93,6.9,21.25ZM54.69,25.6c.54-.1.67.22.8.53.71-.29.62-1,.32-1.68-.42,0-.53-.43-.41-.85a7.57,7.57,0,0,0-.89-.8A4,4,0,0,0,54.69,25.6ZM7.16,26.7c.09.06.2-.1.27-.17a2.78,2.78,0,0,0,1.11-2c-.1,0-.34-.35-.36-.18C8.32,25.59,7.32,25.72,7.16,26.7Zm1.25-.26A1.94,1.94,0,0,1,7.12,28c-.06.88.22,1.56.17,2.54C8,30,7.53,28.84,7.83,28s1.07-1,1.33-1.59A1.37,1.37,0,0,0,8.41,26.44Zm-3.11,1A3.16,3.16,0,0,0,4.9,29a3.48,3.48,0,0,0,.26,1.2c.29-.44.92-.53.81-1.37.14-.16.68-.88.66-1.07s-.53-.33-.71-.63A.5.5,0,0,1,5.3,27.42Zm51.35,3.9c.26-.52.3-1.27.71-1.64a2.41,2.41,0,0,1-.71-1.28C56.42,29.38,56,30.51,56.65,31.32Zm-51.22.22a6.43,6.43,0,0,0,.27-1.69C5.37,30.32,4.94,31,5.43,31.54Zm51.7.31c.38-.38.84-1.14.31-1.69C57.28,30.6,57.28,31.37,57.13,31.85ZM5.52,32a2.65,2.65,0,0,1,.75,1.33c.18-1,.63-2.16,0-3C6,30.91,6,31.63,5.52,32Zm49.58,1.6a2.67,2.67,0,0,1-.68.88c-.21.22-.71.56-.61.76s.45,0,.66,0a5.22,5.22,0,0,1,.27-.84c.25-.4,1-.6,1.07-.84a3.6,3.6,0,0,0-.05-1.07c0-.46-.22-1-.27-1.42C55.06,31.69,55.33,32.86,55.1,33.59ZM57,32.26c-.05.1,0,.42,0,.57s-.2.12-.27.22a4.28,4.28,0,0,0-.44.94c.06.32.59.23.71.52a.69.69,0,0,1,.66-.26,3.36,3.36,0,0,0,.13-2.8C57.74,31.74,57.1,31.86,57,32.26Zm-2.54,4.21c-.13.48-.11.88.27,1-.21-1.34,1-1.45.93-2.54C55.54,35.37,54.6,35.87,54.42,36.47ZM6.81,36.2c0,.35.27.72.31,1.07.44,0,.46.38.4.84a6.05,6.05,0,0,0,.8.71,6.23,6.23,0,0,0,0-.76c.14,0,.09.07.14,0,.24-.56-.12-1.4-.27-1.9-.55.08-.68-.25-.84-.54C7.15,35.82,6.85,35.85,6.81,36.2ZM55.1,41c.39-.23.9-.36.92-.8,0-.24-.22-.46-.26-.76s.07-.42,0-.71C55.65,39.61,54.67,40.11,55.1,41Zm-45.45.49c-.08.23-.49.43-.49.62,0,.42.6.5.93.75s.28.53.54.76c-.19-.72.06-1.37-.14-1.95s-.87-.91-.84-1.43C9.64,40.84,9.8,41.12,9.65,41.53ZM55.1,42.77c0,.16.21-.12.21-.13a15.1,15.1,0,0,0,.5-1.6,1.61,1.61,0,0,0-.63.18C55.3,41.69,55.42,42.43,55.1,42.77ZM6.85,42.33c.26,1.18,1.23,1.64,1.82,2.48.15-.58-.93-1.47-.13-1.69a.5.5,0,0,1,.53.18A8.19,8.19,0,0,0,8.54,42c-.46,0-.95,0-1.38-.14C7.2,42.15,7,42.19,6.85,42.33Zm46.91,1.1c.29-.18.59,0,.8,0,.19-.35-.08-.88-.14-1.28C54.22,42.59,53.63,42.65,53.76,43.43Zm-45,.76a2.42,2.42,0,0,0,.13.66,4.16,4.16,0,0,0,1.33,1.65c.14-.52-.22-.69-.53-.89,0-.38-.24-.55-.44-.84.11-.09.24.08.35.13a5.08,5.08,0,0,0-.48-1.6C9.35,43.82,8.82,43.93,8.76,44.19Zm3.73,0c0,.22.16.22.13.44.39,0,.4.28.8.14C13.17,44.47,13.06,44.06,12.49,44.19ZM12,46.27c0,.22.27.46.35.59a6.39,6.39,0,0,0,1,1.37,11.43,11.43,0,0,0-.48-1.11c.66.47,1.49.78,1.5,1.91.39,0,.74.3.45.66.82.35,1.48,1.1,2.39,1.2-.37-.71-1.28-.9-1.73-1.55-.23-.34-.23-.75-.49-1.15-.36.44-.84,0-.84-.32,0-.71,1.22-.52,1.33.05a1.6,1.6,0,0,0-.22-.67c-.2-.4-.6-1-1.2-.93-.16,0-.24.22-.4.22a.54.54,0,0,1-.48-.22c-.29-.71.92-.92.92-.22.28,0,.42.27.63.17-.33-.58-.61-1.37-1.46-1.28a.54.54,0,0,1-.76.44C12.25,45.72,11.94,45.91,12,46.27Zm-.58.76a3.17,3.17,0,0,1,.8.49c.35.4.41,1.13,1,1.07-.43-.33-.57-.94-.85-1.43,0,0-.34-.48-.35-.48-.4-.31-1-.1-1.47-.45C10.36,46.85,11,46.85,11.38,47ZM51.1,47c-.11.39.24.76.18,1.16a2.32,2.32,0,0,0,.62-2C51.81,46.61,51.21,46.66,51.1,47ZM17.59,50.67a9.4,9.4,0,0,1-.22-2.53C16.31,48.64,17,50.12,17.59,50.67Zm3.55,1.38c.11.26-.39.35-.17.44.44.22.68.27.84.71s-.06,1.12.58,1.29c.36.09,1,.22,1.37.27s.49-.07.67,0,.3.18.49.17a2.53,2.53,0,0,0,1-.48c-.82-.36-1.28-1.06-2.67-.85a.48.48,0,0,1-.93.18c-.21-1,1.13-.22,1.69-.44C23,52.93,22.5,52.06,21.14,52.05Zm4,1.1a5.71,5.71,0,0,1,1.46.31C26.4,53,25.11,52.25,25.14,53.15Zm16.37.27c0-.42,1-.45.8-.71-.89,0-1.89.13-2,.8,0,.2.21.39,0,.62C40.74,54,41,53.6,41.51,53.42Zm-2.7.36c.36.14.62.84,1.15.53a.54.54,0,0,1-.54-.44c0-.5,1-.55,1.07-1C39.74,53,38.77,53.06,38.81,53.78Zm-19.62.44c.86-.06,1.31.65,2.13.22C20.77,54.19,19.79,53.78,19.19,54.22Zm8.88.62c-.42-.22-.85-.66-1.56-.44C27.1,54.52,27.58,55.66,28.07,54.84ZM21.81,55c.14.25.39.15.66.18a2.69,2.69,0,0,1,.89.31c.28.18.62.8.8.89.6.29,1.28-.24,1.87-.4.21-.06.38.11.48-.18-.61.1-1.47.29-1.78-.22-.32.16-.44-.08-.61-.13s-.35.1-.45-.09.29-.07.31-.22C23.34,55,22.34,54.37,21.81,55Zm-.45.22c.38.25.33.77.62,1a2.31,2.31,0,0,0,1.43.28A2.89,2.89,0,0,1,21.63,55C21.58,55.12,21.44,55.12,21.36,55.19Zm10.13.14c.07.43.86.53,1.45.4.27-.06.58-.32.85-.4s.3,0,.4-.14C33.32,54.92,32.33,55.43,31.49,55.33Zm0,1.16a2.43,2.43,0,0,1-.93.57c.09,0,0,.16,0,.22,1.18.38,1.73-.38,2.54-.79a3.74,3.74,0,0,0-.76-.05C32.27,57,31.63,56.68,31.44,56.49Z"/><path class="ae63e25e-fd30-4426-915b-4ece6ea2770f" d="M82.38,40.13a12.54,12.54,0,0,1-4-9.74,12.77,12.77,0,0,1,3.69-8.93c2-2,4.93-3.52,10-3.52a28,28,0,0,1,4.75.4,29,29,0,0,0,3.35.46c.36.06.43.21.43.36s-.09.66-.17,1.86-.08,2.89-.1,3.4-.08.66-.31.66-.23-.2-.23-.66a4.56,4.56,0,0,0-1.39-3.37,11.09,11.09,0,0,0-6.57-1.89c-4.35,0-6.38,1.3-7.52,2.4-2.42,2.3-3,5.23-3,8.57a11.84,11.84,0,0,0,11.87,12c2.43,0,4.39-.25,5.69-1.6a6.49,6.49,0,0,0,1.23-2.78c0-.36.13-.46.31-.46s.22.2.22.46A29,29,0,0,1,99.92,42c-.18.61-.23.66-.84.92a17.82,17.82,0,0,1-5.88.76C88.25,43.65,84.94,42.43,82.38,40.13Z"/><path class="ae63e25e-fd30-4426-915b-4ece6ea2770f" d="M112.18,22.66c.36-.92.48-1.1.67-1.1s.4.41.69,1.05c.54,1.17,5.16,12.68,6.93,16.91,1.07,2.5,1.84,2.86,2.45,3.06a4.1,4.1,0,0,0,1.16.16c.18,0,.36,0,.36.23s-.31.23-.66.23-2.57,0-4.55-.06c-.58,0-1,0-1-.2s0-.15.19-.2a.53.53,0,0,0,.23-.77l-2.57-6.38c-.07-.15-.1-.15-.27-.15h-6.67a.28.28,0,0,0-.27.2l-1.64,4.49A5.28,5.28,0,0,0,106.8,42c0,.56.51.77,1,.77h.3c.24,0,.29.1.29.23s-.17.23-.42.23c-.69,0-2.29-.11-2.59-.11s-1.75.11-3,.11c-.36,0-.53-.06-.53-.23a.24.24,0,0,1,.25-.23c.21,0,.64,0,.87-.06,1.31-.17,1.85-1.14,2.41-2.55Zm3.21,11.61c.13,0,.13-.06.08-.21l-2.83-7.63q-.27-.64-.51,0l-2.69,7.63c0,.15,0,.21.1.21Z"/><path class="ae63e25e-fd30-4426-915b-4ece6ea2770f" d="M128.24,30.18c0-4.33,0-5.12-.08-6s-.19-1.4-1.16-1.53c-.23,0-.71-.05-1-.05a.31.31,0,0,1-.24-.25c0-.16.14-.21.46-.21,1.3,0,3.12.05,3.28.05.56,0,6.82,0,7.48,0a9.63,9.63,0,0,0,1.32-.13c.18-.05.28-.17.42-.17s.16.12.16.25-.1.54-.23,1.33c0,.25-.07,1.53-.12,1.84,0,.12-.13.3-.26.3s-.23-.15-.23-.36a3.37,3.37,0,0,0-.25-1,2.25,2.25,0,0,0-2-.81l-4.73-.08c-.17,0-.24.08-.24.28v7.63c0,.15,0,.25.21.25l4,0a11,11,0,0,0,1.31-.05,1.73,1.73,0,0,0,1.33-.49c.14-.15.24-.28.34-.28s.17.11.17.21a9.09,9.09,0,0,0-.27,1.55c0,.54-.08,1.66-.08,1.87s-.05.56-.27.56-.19-.13-.19-.26a4.41,4.41,0,0,0-.21-1c-.11-.41-.59-.76-1.47-.87-.71-.1-4.15-.1-4.62-.1-.19,0-.21.1-.21.28v2.25c0,2.73,0,4.92.14,6,.1.82.26,1.33,1.05,1.46a10.42,10.42,0,0,0,1.32.13.21.21,0,0,1,.21.23c0,.12-.11.23-.45.23-1.61,0-3.47-.11-3.61-.11s-2,.11-2.85.11c-.31,0-.43-.06-.43-.23s.05-.23.18-.23c.28,0,.65-.11.89-.13.56-.1.66-.64.78-1.46.15-1.17.15-3.36.15-6Z"/><path class="ae63e25e-fd30-4426-915b-4ece6ea2770f" d="M145.78,30.18c0-4.33,0-5.12-.05-6s-.23-1.4-1.16-1.53c-.26,0-.74-.05-1-.05a.32.32,0,0,1-.22-.25c0-.16.14-.21.45-.21,1.31,0,3.19.05,3.35.05s6.24,0,6.9,0a11.24,11.24,0,0,0,1.29-.18c.17,0,.28-.12.41-.12s.13.12.13.25-.16.54-.23,1.33c0,.25-.09,1.53-.14,1.84-.07.12-.17.3-.27.3s-.24-.15-.24-.36a3.83,3.83,0,0,0-.17-1c-.2-.43-.5-.61-2.08-.81-.47-.08-3.82-.11-4.13-.11-.15,0-.15.11-.15.31v7.55c0,.21,0,.31.15.31.33,0,4.13,0,4.8-.08s1.12-.07,1.41-.38.33-.36.43-.36.16.05.16.21-.16.63-.23,1.55c0,.54-.12,1.61-.12,1.81s-.07.51-.29.51-.18-.1-.18-.25a2.93,2.93,0,0,0-.11-.92c-.1-.41-.37-.71-1.5-.87-.77-.1-3.86-.1-4.35-.1-.17,0-.17.1-.17.21v2.32c0,.94-.08,4.18,0,4.72.05,1.89.58,2.24,3.4,2.24a10.27,10.27,0,0,0,2.91-.28,2.16,2.16,0,0,0,1.28-2c.1-.31.18-.41.3-.41s.21.23.21.41a19.39,19.39,0,0,1-.39,2.7c-.2.74-.48.74-1.62.74-2.15,0-3.84-.07-5-.13s-2,0-2.43,0c-.06,0-.61,0-1.26,0s-1.2.06-1.66.06c-.25,0-.46-.06-.46-.23a.23.23,0,0,1,.26-.23c.23,0,.61-.11.84-.13.6-.1.65-.64.78-1.46.15-1.17.15-3.36.15-6Zm9-12.45c.14.26,0,.36-.15.36a5.4,5.4,0,0,0-1,0,21.39,21.39,0,0,0-5,1.38,1.73,1.73,0,0,1-.51.18.21.21,0,0,1-.15-.21c0-.1.07-.15.23-.28,1.17-.82,4.22-2.63,4.46-2.75.56-.36.74-.44.92-.44s.18.08.33.28S154.39,17.07,154.76,17.73Z"/><path class="ae63e25e-fd30-4426-915b-4ece6ea2770f" d="M174.53,30.18c0-4.33,0-5.12-.07-6s-.25-1.4-1.16-1.53c-.23,0-.74-.05-1-.05-.1,0-.22-.15-.22-.25s.12-.21.46-.21c1.3,0,3.18.05,3.33.05.33,0,2.18-.05,3.88-.05,2.89,0,8.17-.28,11.57,3.17a9.73,9.73,0,0,1,2.83,7.09A11.07,11.07,0,0,1,191,40.21c-1.22,1.3-3.81,3.24-8.73,3.24-1.27,0-2.81-.1-4-.18s-2.25-.18-2.39-.18-.59,0-1.17,0-1.29.06-1.73.06-.48-.06-.48-.23a.23.23,0,0,1,.23-.23,3.68,3.68,0,0,0,.89-.13c.56-.13.61-.64.77-1.46a58.78,58.78,0,0,0,.16-6Zm2.62,3c0,3,0,5.57,0,6.08a4.81,4.81,0,0,0,.36,2c.33.53,1.35,1.12,4.77,1.12a9.49,9.49,0,0,0,6.76-2.55c1.5-1.38,2.25-4,2.25-6.61a9.56,9.56,0,0,0-2.71-7c-2.71-2.75-5.89-3.11-9.35-3.11a7.6,7.6,0,0,0-1.72.18.48.48,0,0,0-.38.54Z"/><path class="ae63e25e-fd30-4426-915b-4ece6ea2770f" d="M201.05,30.18c0-4.33,0-5.12-.05-6s-.24-1.4-1.18-1.53c-.23,0-.74-.05-1-.05a.29.29,0,0,1-.23-.25c0-.16.12-.21.47-.21,1.27,0,3.17.05,3.3.05s6.24,0,6.93,0c.53-.05,1.07-.13,1.31-.18s.24-.12.37-.12.14.12.14.25a13.18,13.18,0,0,0-.21,1.33c-.06.25-.11,1.53-.17,1.84-.05.12-.13.3-.27.3s-.23-.15-.23-.36a2.73,2.73,0,0,0-.18-1c-.18-.43-.46-.61-2.08-.81-.48-.08-3.81-.11-4.13-.11s-.19.11-.19.31v7.55c0,.21,0,.31.19.31.37,0,4.13,0,4.81-.08s1.12-.07,1.4-.38.34-.36.44-.36.16.05.16.21a13.9,13.9,0,0,0-.21,1.55c-.08.54-.13,1.61-.13,1.81s-.08.51-.28.51-.21-.1-.21-.25a3.21,3.21,0,0,0-.1-.92c-.1-.41-.38-.71-1.49-.87-.79-.1-3.88-.1-4.36-.1-.2,0-.22.1-.22.21v2.32c0,.94,0,4.18,0,4.72.09,1.89.61,2.24,3.46,2.24a9.93,9.93,0,0,0,2.87-.28,2.17,2.17,0,0,0,1.34-2c0-.31.14-.41.3-.41s.18.23.18.41a21.58,21.58,0,0,1-.41,2.7c-.18.74-.47.74-1.57.74-2.18,0-3.87-.07-5.05-.13s-1.95,0-2.41,0c0,0-.61,0-1.22,0s-1.22.06-1.67.06S199,43.14,199,43a.21.21,0,0,1,.24-.23c.27,0,.61-.11.88-.13.56-.1.61-.64.74-1.46a58.78,58.78,0,0,0,.16-6Z"/><path class="ae63e25e-fd30-4426-915b-4ece6ea2770f" d="M230.55,27.91c0-5.13,0-6-.05-7.06s-.35-1.69-1.42-1.89a7.9,7.9,0,0,0-1.12-.1c-.14,0-.27-.06-.27-.21s.18-.25.54-.25c.77,0,1.62,0,2.34.05l1.36.05c.67,0,7.3,0,8.07-.05a5.08,5.08,0,0,0,1.44-.11,2.54,2.54,0,0,1,.46-.2c.13,0,.21.13.21.31s-.18.61-.26,1.53c0,.33-.1,1.76-.18,2.14,0,.18-.1.36-.28.36s-.2-.15-.2-.36a3.92,3.92,0,0,0-.31-1.27,2.48,2.48,0,0,0-2.24-1l-5-.12c-.2,0-.28.12-.28.38v9c0,.21,0,.31.21.31l4.2-.05h1.48c.79-.08,1.22-.18,1.52-.62.1-.15.2-.3.34-.3s.19.1.19.25-.19.77-.28,1.84c-.07.66-.15,2-.15,2.19s0,.62-.22.62-.21-.13-.21-.28a5.62,5.62,0,0,0-.21-1.2,2,2,0,0,0-1.72-1.18c-.79-.1-4.36-.1-4.94-.1-.15,0-.21.05-.21.31v2.8c0,3.14,0,5.72.16,7.1.09,1,.3,1.68,1.26,1.81a13.83,13.83,0,0,0,1.5.13c.18,0,.23.1.23.2s-.13.26-.5.26c-1.81,0-3.87-.11-4-.11s-2.24.11-3.23.11c-.35,0-.54-.06-.54-.26s.12-.2.27-.2a4.38,4.38,0,0,0,1-.13c.68-.13.84-.84,1-1.81.17-1.38.17-4,.17-7.1Z"/><path class="ae63e25e-fd30-4426-915b-4ece6ea2770f" d="M251.83,35.16c0,4.11.08,5.79.6,6.27s1.58.64,3.83.64c1.5,0,2.79,0,3.49-.84a3.58,3.58,0,0,0,.69-1.58c0-.18.14-.36.29-.36s.2.13.2.44a16.93,16.93,0,0,1-.44,2.78c-.19.63-.27.76-1.84.76-2,0-3.66,0-5-.13s-2.31,0-3.18,0c-.1,0-.61,0-1.18,0s-1.2.06-1.67.06c-.27,0-.44-.06-.44-.23a.21.21,0,0,1,.24-.23,3.82,3.82,0,0,0,.86-.13c.57-.13.65-.64.78-1.46.15-1.17.15-3.36.15-6V30.18c0-4.33,0-5.12-.05-6s-.23-1.4-1.2-1.53c-.24,0-.73-.05-1-.05a.32.32,0,0,1-.25-.25c0-.16.15-.21.46-.21,1.31,0,3.12.05,3.26.05s2.33-.05,3.21-.05c.28,0,.46.05.46.21s-.13.2-.26.2-.61,0-.94.08c-.83.15-1,.58-1.09,1.55s0,1.69,0,6Z"/><path class="ae63e25e-fd30-4426-915b-4ece6ea2770f" d="M266.76,30.18c0-4.33,0-5.12-.07-6s-.25-1.4-1.15-1.53c-.24,0-.73-.05-1-.05-.1,0-.2-.15-.2-.25s.1-.21.44-.21c1.3,0,3.18.05,3.34.05s6.25,0,6.89,0a11.16,11.16,0,0,0,1.3-.18c.14,0,.28-.12.41-.12s.13.12.13.25-.15.54-.23,1.33c0,.25-.1,1.53-.17,1.84,0,.12-.14.3-.24.3s-.23-.15-.23-.36a3.53,3.53,0,0,0-.18-1c-.2-.43-.49-.61-2.08-.81-.48-.08-3.84-.11-4.16-.11-.12,0-.15.11-.15.31v7.55c0,.21,0,.31.15.31.38,0,4.16,0,4.81-.08s1.13-.07,1.43-.38.33-.36.41-.36.15.05.15.21a15.29,15.29,0,0,0-.2,1.55c-.05.54-.13,1.61-.13,1.81s-.05.51-.28.51-.18-.1-.18-.25a2.7,2.7,0,0,0-.12-.92c-.08-.41-.36-.71-1.47-.87-.82-.1-3.88-.1-4.39-.1-.15,0-.18.1-.18.21v2.32c0,.94,0,4.18,0,4.72.08,1.89.58,2.24,3.45,2.24a10,10,0,0,0,2.87-.28,2.15,2.15,0,0,0,1.31-2c.09-.31.14-.41.29-.41s.22.23.22.41a23.3,23.3,0,0,1-.4,2.7c-.21.74-.51.74-1.6.74-2.18,0-3.88-.07-5-.13s-2,0-2.4,0c-.06,0-.61,0-1.22,0s-1.23.06-1.69.06c-.29,0-.48-.06-.48-.23a.24.24,0,0,1,.24-.23c.27,0,.64-.11.88-.13.56-.1.61-.64.77-1.46a58.78,58.78,0,0,0,.16-6Z"/><path class="ae63e25e-fd30-4426-915b-4ece6ea2770f" d="M283.35,30.18c0-4.33,0-5.12-.05-6s-.23-1.4-1.18-1.53c-.24,0-.72-.05-1-.05a.33.33,0,0,1-.23-.25c0-.16.15-.21.46-.21,1.31,0,3,.05,3.34.05s2-.05,2.92-.05c.3,0,.48.05.48.21a.32.32,0,0,1-.25.25,4.39,4.39,0,0,0-.74.05c-.75.13-.91.61-1,1.53s-.05,1.69-.05,6v3.88c0,4,.88,5.72,2.15,6.84a5.58,5.58,0,0,0,4.28,1.53,6,6,0,0,0,4.47-2c1.33-1.58,1.63-3.9,1.63-6.74V30.18c0-4.33,0-5.12-.08-6s-.19-1.4-1.12-1.53c-.24,0-.73-.05-1-.05-.1,0-.22-.15-.22-.25s.14-.21.46-.21c1.29,0,3,.05,3.13.05s1.57-.05,2.42-.05c.33,0,.48.05.48.21s-.1.25-.22.25a4.16,4.16,0,0,0-.73.05c-.8.15-1,.61-1,1.53s-.05,1.69-.05,6v3c0,3-.39,6.43-2.67,8.4a8.76,8.76,0,0,1-6.07,2c-.93,0-4,0-6-2-1.42-1.3-2.54-3.24-2.54-7.32Z"/><path class="ae63e25e-fd30-4426-915b-4ece6ea2770f" d="M308.86,30.18c0-4.33,0-5.12-.08-6s-.24-1.4-1.17-1.53c-.24,0-.73-.05-1-.05a.31.31,0,0,1-.25-.25c0-.16.14-.21.46-.21,1.32,0,3.27.05,3.42.05s2.72-.05,3.61-.05c1.84,0,3.91.15,5.4,1.2a4.92,4.92,0,0,1,2,3.8c0,2.07-.82,4.08-3.52,6.38,2.34,3,4.37,5.46,6,7.2,1.54,1.58,2.47,1.83,3.2,1.93a4.77,4.77,0,0,0,1,.11.24.24,0,0,1,.25.23c0,.17-.15.23-.66.23h-1.82a5.7,5.7,0,0,1-3.1-.57c-1.23-.66-2.29-2-3.92-4.08-1.21-1.53-2.51-3.31-3.14-4.08a.39.39,0,0,0-.38-.15l-3.66-.08c-.12,0-.19.08-.19.23v.66c0,2.71,0,4.85.13,6,.11.82.24,1.33,1.13,1.46a9.4,9.4,0,0,0,1.28.13c.21,0,.24.12.24.23s-.14.23-.46.23c-1.57,0-3.42-.11-3.55-.11s-2,.11-2.84.11c-.28,0-.47-.06-.47-.23a.22.22,0,0,1,.24-.23,4.16,4.16,0,0,0,.88-.13c.56-.13.61-.64.75-1.46a52.28,52.28,0,0,0,.18-6Zm2.49,2.35a.45.45,0,0,0,.19.36,9.14,9.14,0,0,0,3.18.43,3.68,3.68,0,0,0,2.15-.48c1-.67,1.74-2.15,1.74-4.29,0-3.47-1.89-5.46-5-5.46a14.82,14.82,0,0,0-2,.15.35.35,0,0,0-.24.36Z"/><rect class="f5624f0e-49f3-4ab6-b9be-48878885026c" width="330" height="60"/></svg>