<svg id="f7a99ec7-c8a0-49d9-ae50-287a655298b7" data-name="レイヤー 1" xmlns="http://www.w3.org/2000/svg" viewBox="0 0 197.32 21.86"><defs><style>.abb69908-0946-4a55-b14a-f83565f2fa1c{fill:#4d4d4d;}</style></defs><title>logo</title><path class="abb69908-0946-4a55-b14a-f83565f2fa1c" d="M3.14,19.08A9.9,9.9,0,0,1,0,11.38a10.11,10.11,0,0,1,2.91-7c1.54-1.57,3.9-2.78,7.89-2.78a21.81,21.81,0,0,1,3.75.32,22.07,22.07,0,0,0,2.65.37c.28,0,.33.16.33.28S17.46,3,17.4,4s-.06,2.28-.08,2.68-.06.52-.24.52S16.9,7,16.9,6.67A3.63,3.63,0,0,0,15.8,4a8.75,8.75,0,0,0-5.19-1.49c-3.44,0-5,1-5.94,1.89C2.76,6.23,2.32,8.54,2.32,11.18a9.35,9.35,0,0,0,9.37,9.47c1.92,0,3.46-.2,4.49-1.27a5.1,5.1,0,0,0,1-2.19c0-.28.1-.36.24-.36s.17.16.17.36A23.11,23.11,0,0,1,17,20.53c-.14.49-.18.53-.67.73a14.09,14.09,0,0,1-4.64.6C7.78,21.86,5.17,20.9,3.14,19.08Z"/><path class="abb69908-0946-4a55-b14a-f83565f2fa1c" d="M26.68,5.28c.28-.73.38-.87.53-.87s.32.33.55.83c.42.93,4.07,10,5.47,13.36.85,2,1.45,2.26,1.93,2.42a3.36,3.36,0,0,0,.92.12c.14,0,.28,0,.28.18s-.24.18-.52.18-2,0-3.59,0c-.46,0-.79,0-.79-.16s0-.12.15-.16a.41.41,0,0,0,.18-.61l-2-5c-.06-.13-.08-.13-.21-.13H24.28a.21.21,0,0,0-.21.17l-1.3,3.54a4.2,4.2,0,0,0-.34,1.45c0,.45.4.61.75.61h.24c.19,0,.23.08.23.18s-.13.18-.34.18c-.54,0-1.8-.08-2-.08s-1.38.08-2.33.08c-.28,0-.42,0-.42-.18a.2.2,0,0,1,.2-.18l.69,0c1-.14,1.46-.91,1.9-2Zm2.54,9.17c.1,0,.1,0,.06-.16L27,8.26c-.14-.34-.27-.34-.4,0l-2.13,6c0,.12,0,.16.08.16Z"/><path class="abb69908-0946-4a55-b14a-f83565f2fa1c" d="M39.37,11.22c0-3.42,0-4.05-.07-4.75s-.15-1.11-.91-1.21c-.18,0-.57,0-.78,0a.25.25,0,0,1-.19-.2c0-.12.11-.16.36-.16,1,0,2.47,0,2.59,0,.45,0,5.39,0,5.92,0a8,8,0,0,0,1-.1c.15,0,.23-.14.34-.14s.13.1.13.2-.08.42-.18,1c0,.21-.06,1.21-.1,1.46,0,.1-.1.24-.21.24s-.18-.12-.18-.29a2.57,2.57,0,0,0-.2-.8,1.75,1.75,0,0,0-1.56-.65L41.62,5.8c-.13,0-.19.06-.19.23v6c0,.12,0,.2.17.2l3.12,0a8.53,8.53,0,0,0,1,0c.53,0,.84-.12,1.05-.38s.19-.22.27-.22.13.08.13.16A7.6,7.6,0,0,0,47,13c0,.42-.06,1.31-.06,1.47s0,.44-.21.44-.15-.1-.15-.2a3.67,3.67,0,0,0-.17-.81c-.08-.32-.47-.6-1.16-.68s-3.28-.08-3.65-.08c-.15,0-.17.08-.17.22v1.77c0,2.16,0,3.89.11,4.78.08.64.21,1.05.84,1.15a7.23,7.23,0,0,0,1,.1.17.17,0,0,1,.18.18c0,.1-.09.18-.37.18-1.27,0-2.74-.08-2.85-.08s-1.56.08-2.24.08c-.25,0-.35,0-.35-.18s0-.18.14-.18a6.75,6.75,0,0,0,.71-.1c.44-.08.52-.51.61-1.15a45.37,45.37,0,0,0,.13-4.78Z"/><path class="abb69908-0946-4a55-b14a-f83565f2fa1c" d="M53.22,11.22c0-3.42,0-4.05,0-4.75S53,5.36,52.26,5.26c-.2,0-.58,0-.81,0a.25.25,0,0,1-.17-.2c0-.12.11-.16.36-.16,1,0,2.52,0,2.65,0s4.92,0,5.45,0a9,9,0,0,0,1-.14c.14,0,.23-.1.33-.1s.1.1.1.2-.12.42-.18,1c0,.21-.07,1.21-.11,1.46,0,.1-.14.24-.22.24s-.19-.12-.19-.29a3.11,3.11,0,0,0-.13-.8c-.16-.34-.39-.48-1.64-.65-.37-.06-3-.08-3.26-.08s-.13.08-.13.25v6c0,.16,0,.24.13.24s3.26,0,3.78-.06.89-.06,1.12-.3.26-.28.34-.28.13,0,.13.16-.13.5-.19,1.23c0,.42-.09,1.27-.09,1.43s-.06.4-.23.4-.14-.08-.14-.2a2.29,2.29,0,0,0-.09-.73c-.08-.32-.29-.56-1.18-.68-.61-.08-3-.08-3.43-.08-.15,0-.15.08-.15.16v1.83c0,.75-.06,3.31,0,3.73,0,1.49.47,1.77,2.69,1.77a8.13,8.13,0,0,0,2.3-.22,1.68,1.68,0,0,0,1-1.55c.08-.24.14-.32.24-.32s.16.18.16.32a15.66,15.66,0,0,1-.3,2.14c-.16.58-.38.58-1.28.58-1.7,0-3-.06-3.94-.1s-1.56,0-1.91,0c0,0-.49,0-1,0s-.95,0-1.31,0c-.2,0-.36,0-.36-.18a.18.18,0,0,1,.2-.18c.18,0,.48-.08.66-.1.48-.08.52-.51.62-1.15.12-.93.12-2.66.12-4.78Zm7.09-9.83c.11.2,0,.28-.12.28a4.12,4.12,0,0,0-.75,0,16.85,16.85,0,0,0-3.95,1.09,1.49,1.49,0,0,1-.41.14A.16.16,0,0,1,55,2.74c0-.08.06-.12.18-.22.93-.65,3.34-2.08,3.53-2.18.44-.28.58-.34.72-.34s.15.06.27.22S60,.87,60.31,1.39Z"/><path class="abb69908-0946-4a55-b14a-f83565f2fa1c" d="M75.93,11.22c0-3.42,0-4.05-.06-4.75S75.68,5.36,75,5.26c-.18,0-.58,0-.8,0S74,5.1,74,5s.09-.16.37-.16c1,0,2.51,0,2.63,0s1.72,0,3.06,0c2.29,0,6.46-.23,9.14,2.5A7.67,7.67,0,0,1,91.41,13,8.76,8.76,0,0,1,89,19.14c-1,1-3,2.56-6.91,2.56-1,0-2.21-.08-3.18-.14s-1.77-.14-1.88-.14-.47,0-.93,0-1,0-1.36,0-.38,0-.38-.18a.18.18,0,0,1,.18-.18,2.69,2.69,0,0,0,.7-.1c.45-.1.49-.51.61-1.15a45.37,45.37,0,0,0,.13-4.78ZM78,13.6c0,2.34,0,4.39,0,4.8A3.51,3.51,0,0,0,78.3,20c.26.42,1.06.89,3.76.89a7.49,7.49,0,0,0,5.34-2,7.36,7.36,0,0,0,1.78-5.22A7.54,7.54,0,0,0,87,8.12c-2.15-2.18-4.65-2.46-7.38-2.46a5.91,5.91,0,0,0-1.36.14.38.38,0,0,0-.31.43Z"/><path class="abb69908-0946-4a55-b14a-f83565f2fa1c" d="M96.88,11.22c0-3.42,0-4.05,0-4.75s-.19-1.11-.93-1.21c-.18,0-.59,0-.78,0a.23.23,0,0,1-.18-.2c0-.12.1-.16.37-.16,1,0,2.51,0,2.61,0s4.93,0,5.47,0,.85-.1,1-.14.19-.1.29-.1.11.1.11.2a9.52,9.52,0,0,0-.17,1c0,.21-.08,1.21-.13,1.46,0,.1-.1.24-.21.24s-.18-.12-.18-.29a2.24,2.24,0,0,0-.14-.8c-.14-.34-.36-.48-1.64-.65-.39-.06-3-.08-3.27-.08s-.15.08-.15.25v6c0,.16,0,.24.15.24s3.27,0,3.8-.06.89-.06,1.11-.3.26-.28.34-.28.13,0,.13.16A10.91,10.91,0,0,0,104.3,13c-.06.42-.1,1.27-.1,1.43s-.06.4-.22.4-.16-.08-.16-.2a2.57,2.57,0,0,0-.08-.73c-.08-.32-.31-.56-1.18-.68-.63-.08-3.07-.08-3.45-.08-.15,0-.17.08-.17.16v1.83c0,.75,0,3.31,0,3.73.07,1.49.48,1.77,2.73,1.77a7.89,7.89,0,0,0,2.27-.22A1.71,1.71,0,0,0,105,18.84c0-.24.11-.32.24-.32s.14.18.14.32a18,18,0,0,1-.32,2.14c-.14.58-.38.58-1.24.58-1.73,0-3.07-.06-4-.1s-1.54,0-1.91,0c0,0-.48,0-1,0s-1,0-1.32,0-.37,0-.37-.18a.17.17,0,0,1,.19-.18c.22,0,.49-.08.7-.1.44-.08.48-.51.58-1.15a42.14,42.14,0,0,0,.14-4.78Z"/><path class="abb69908-0946-4a55-b14a-f83565f2fa1c" d="M120.17,9.43c0-4,0-4.77,0-5.58s-.27-1.33-1.12-1.49a6.13,6.13,0,0,0-.89-.08c-.11,0-.21,0-.21-.16s.14-.21.43-.21c.61,0,1.28,0,1.85,0l1.07.05c.53,0,5.77,0,6.37-.05a4.34,4.34,0,0,0,1.14-.08,1.94,1.94,0,0,1,.37-.16c.1,0,.16.1.16.24s-.14.49-.2,1.21c0,.27-.08,1.39-.14,1.7,0,.14-.09.28-.23.28s-.16-.12-.16-.28a3.08,3.08,0,0,0-.24-1A2,2,0,0,0,126.56,3l-4-.1c-.15,0-.22.1-.22.3v7.14c0,.16,0,.24.17.24l3.31,0H127c.62-.06,1-.14,1.2-.48.08-.13.16-.25.27-.25s.15.08.15.21-.15.6-.22,1.45c-.06.52-.12,1.55-.12,1.73s0,.48-.17.48-.17-.1-.17-.22a4.59,4.59,0,0,0-.16-.95,1.58,1.58,0,0,0-1.36-.92c-.63-.08-3.45-.08-3.9-.08-.12,0-.17,0-.17.24V14c0,2.48,0,4.52.13,5.61.07.76.23,1.33,1,1.43a9.83,9.83,0,0,0,1.18.1c.14,0,.18.08.18.16s-.1.2-.39.2c-1.43,0-3-.08-3.19-.08s-1.77.08-2.55.08c-.27,0-.42,0-.42-.2a.19.19,0,0,1,.21-.16,3.18,3.18,0,0,0,.77-.1c.54-.1.67-.67.77-1.43.13-1.09.13-3.13.13-5.61Z"/><path class="abb69908-0946-4a55-b14a-f83565f2fa1c" d="M137,15.15c0,3.25.06,4.58.47,5s1.25.5,3,.5c1.18,0,2.2,0,2.75-.66a2.83,2.83,0,0,0,.55-1.25c0-.14.11-.28.23-.28s.16.1.16.34a13.48,13.48,0,0,1-.35,2.2c-.16.5-.22.6-1.45.6-1.63,0-2.9,0-4-.1s-1.83,0-2.51,0c-.08,0-.49,0-.94,0s-.95,0-1.32,0c-.21,0-.34,0-.34-.18a.17.17,0,0,1,.19-.18,2.72,2.72,0,0,0,.67-.1c.46-.1.52-.51.62-1.15.12-.93.12-2.66.12-4.78V11.22c0-3.42,0-4.05,0-4.75s-.18-1.11-1-1.21l-.75,0A.27.27,0,0,1,133,5c0-.12.13-.16.37-.16,1,0,2.47,0,2.58,0s1.83,0,2.53,0c.22,0,.36,0,.36.16a.2.2,0,0,1-.2.16c-.14,0-.49,0-.75.06-.65.12-.78.46-.85,1.23s0,1.33,0,4.75Z"/><path class="abb69908-0946-4a55-b14a-f83565f2fa1c" d="M148.77,11.22c0-3.42,0-4.05-.06-4.75s-.19-1.11-.9-1.21c-.2,0-.58,0-.81,0s-.16-.12-.16-.2.08-.16.35-.16c1,0,2.51,0,2.64,0s4.94,0,5.44,0a9.18,9.18,0,0,0,1-.14c.11,0,.22-.1.32-.1s.1.1.1.2-.12.42-.18,1c0,.21-.08,1.21-.13,1.46,0,.1-.11.24-.19.24s-.18-.12-.18-.29a2.8,2.8,0,0,0-.14-.8c-.16-.34-.4-.48-1.65-.65-.38-.06-3-.08-3.28-.08-.1,0-.12.08-.12.25v6c0,.16,0,.24.12.24.29,0,3.28,0,3.8-.06s.88-.06,1.13-.3.26-.28.32-.28.12,0,.12.16a12.29,12.29,0,0,0-.16,1.23c0,.42-.1,1.27-.1,1.43s0,.4-.22.4-.15-.08-.15-.2a2.08,2.08,0,0,0-.1-.73c-.06-.32-.28-.56-1.15-.68-.65-.08-3.07-.08-3.47-.08-.12,0-.14.08-.14.16v1.83c0,.75,0,3.31,0,3.73.06,1.49.45,1.77,2.72,1.77a8,8,0,0,0,2.27-.22,1.68,1.68,0,0,0,1-1.55c.07-.24.11-.32.24-.32s.17.18.17.32A18,18,0,0,1,157,21c-.17.58-.4.58-1.26.58-1.73,0-3.07-.06-4-.1s-1.57,0-1.9,0c-.05,0-.48,0-1,0s-1,0-1.33,0-.38,0-.38-.18a.2.2,0,0,1,.19-.18c.21,0,.51-.08.7-.1.44-.08.48-.51.6-1.15a45.37,45.37,0,0,0,.13-4.78Z"/><path class="abb69908-0946-4a55-b14a-f83565f2fa1c" d="M161.87,11.22c0-3.42,0-4.05,0-4.75s-.18-1.11-.93-1.21c-.19,0-.57,0-.79,0a.26.26,0,0,1-.18-.2c0-.12.12-.16.36-.16,1,0,2.41,0,2.64,0s1.6,0,2.31,0c.24,0,.38,0,.38.16a.26.26,0,0,1-.2.2,3.58,3.58,0,0,0-.59,0c-.59.1-.71.48-.78,1.21s0,1.33,0,4.75v3.07c0,3.18.69,4.51,1.69,5.4a4.41,4.41,0,0,0,3.38,1.21,4.69,4.69,0,0,0,3.53-1.58c1.06-1.25,1.29-3.08,1.29-5.32V11.22c0-3.42,0-4.05-.06-4.75s-.15-1.11-.89-1.21c-.19,0-.57,0-.8,0S172,5.1,172,5s.11-.16.36-.16c1,0,2.34,0,2.47,0s1.24,0,1.91,0c.26,0,.38,0,.38.16a.21.21,0,0,1-.18.2,3.2,3.2,0,0,0-.57,0c-.64.12-.77.48-.81,1.21s0,1.33,0,4.75v2.34c0,2.4-.3,5.08-2.1,6.63a6.94,6.94,0,0,1-4.8,1.59,7,7,0,0,1-4.72-1.55c-1.12-1-2-2.56-2-5.78Z"/><path class="abb69908-0946-4a55-b14a-f83565f2fa1c" d="M182,11.22c0-3.42,0-4.05-.06-4.75s-.19-1.11-.93-1.21c-.19,0-.57,0-.78,0a.25.25,0,0,1-.19-.2c0-.12.11-.16.36-.16,1,0,2.58,0,2.7,0l2.85,0a7.55,7.55,0,0,1,4.26.94,3.88,3.88,0,0,1,1.57,3c0,1.63-.66,3.22-2.79,5,1.85,2.34,3.45,4.32,4.77,5.69a4.13,4.13,0,0,0,2.53,1.53,4,4,0,0,0,.8.08.2.2,0,0,1,.21.18c0,.14-.12.18-.53.18h-1.44a4.58,4.58,0,0,1-2.45-.44,12,12,0,0,1-3.09-3.23c-1-1.21-2-2.62-2.48-3.22a.32.32,0,0,0-.3-.12l-2.89-.06c-.09,0-.15.06-.15.18v.52c0,2.14,0,3.83.1,4.76.09.64.19,1.05.89,1.15a6.85,6.85,0,0,0,1,.1c.17,0,.19.1.19.18s-.11.18-.36.18c-1.24,0-2.7-.08-2.8-.08s-1.56.08-2.25.08c-.22,0-.37,0-.37-.18a.18.18,0,0,1,.19-.18,3.1,3.1,0,0,0,.7-.1c.44-.1.48-.51.59-1.15a42.14,42.14,0,0,0,.14-4.78Zm2,1.86a.36.36,0,0,0,.15.28,7.13,7.13,0,0,0,2.51.34,2.94,2.94,0,0,0,1.7-.38,3.92,3.92,0,0,0,1.37-3.39c0-2.74-1.49-4.31-3.94-4.31a11.6,11.6,0,0,0-1.6.12A.28.28,0,0,0,184,6Z"/></svg>