<svg id="b357e432-80fc-40ea-afb5-8b2cc93671af" data-name="レイヤー 1" xmlns="http://www.w3.org/2000/svg" viewBox="0 0 114 126"><defs><style>.a3cb3981-0f42-4677-b75d-92f8793512be,.b1b2f890-45c8-4b8a-88cf-4a7393aa723b{fill:#998675;}.a3cb3981-0f42-4677-b75d-92f8793512be{fill-rule:evenodd;}.bbb27e62-b08b-4457-b57a-7244f24f052b{fill:none;}</style></defs><title>concept-logo</title><path class="b1b2f890-45c8-4b8a-88cf-4a7393aa723b" d="M61.85,80.74c0,2.19.35,4.14,1.06,4.9a24.56,24.56,0,0,0,4,2.79H50s3.12-1.66,3.93-2.78c.67-.92,1-2.82,1-4.94V54.47a9.31,9.31,0,0,0-1.08-4.95C53,48.41,50,46.75,50,46.75H67a24,24,0,0,0-4.09,2.8c-.71.75-1.06,2.7-1.06,4.9Z"/><path class="b1b2f890-45c8-4b8a-88cf-4a7393aa723b" d="M44.92,25.93c-2.29,2.39-1.91,6.93.85,10.32l3.61,4.43,1.38-1.13-3.6-4.43c-2.12-2.62-2.56-6.26-.94-8,1-1,2.57-1.14,4.24-.29l.81-1.59C48.9,24.05,46.47,24.31,44.92,25.93Z"/><path class="b1b2f890-45c8-4b8a-88cf-4a7393aa723b" d="M51,25.39c-2.29,2.41-1.91,6.92.85,10.33l2.63,3.21,1.38-1.14L53.23,34.6c-2.14-2.63-2.57-6.28-.95-8,1-1,2.55-1.14,4.2-.31l.53.38,1-1.46-.63-.47-.06,0C55,23.53,52.53,23.77,51,25.39Z"/><path class="b1b2f890-45c8-4b8a-88cf-4a7393aa723b" d="M66,25.28l.82,1.59c1.66-.85,3.24-.75,4.24.29,1.62,1.7,1.19,5.34-.95,8l-3.6,4.43,1.38,1.13,3.6-4.43c2.77-3.39,3.15-7.93.86-10.32C70.81,24.31,68.38,24.07,66,25.28Z"/><path class="b1b2f890-45c8-4b8a-88cf-4a7393aa723b" d="M60,24.74l-.07,0-.7.56,1.05,1.47s.45-.4.57-.48c1.64-.83,3.22-.72,4.19.31,1.62,1.69,1.19,5.34-1,8l-2.72,3.14,1.38,1.13,2.74-3.15c2.76-3.41,3.13-7.92.85-10.33C64.76,23.77,62.32,23.53,60,24.74Z"/><polygon class="b1b2f890-45c8-4b8a-88cf-4a7393aa723b" points="59.5 22.9 59.2 21.25 59.27 21.15 62.23 22.03 63.6 20.61 62.23 19.06 59.27 19.93 59.2 19.84 60.07 16.86 58.61 15.52 57.09 16.86 57.97 19.84 57.85 19.93 54.87 19.06 53.7 20.5 54.87 22.03 57.85 21.15 57.97 21.25 57.76 22.9 59.5 22.9"/><path class="b1b2f890-45c8-4b8a-88cf-4a7393aa723b" d="M50.35,42.55a.57.57,0,0,0-.31.73.59.59,0,0,0,.75.3c1.18-.49,7.28-2.81,15.8,0a.58.58,0,0,0,.72-.36.55.55,0,0,0-.36-.71C58.26,39.64,52.11,41.82,50.35,42.55Z"/><path class="b1b2f890-45c8-4b8a-88cf-4a7393aa723b" d="M49.68,24.59a1.08,1.08,0,1,1-1.07-1.07A1.07,1.07,0,0,1,49.68,24.59Z"/><path class="b1b2f890-45c8-4b8a-88cf-4a7393aa723b" d="M46.14,25.82a1.07,1.07,0,1,1-1.07-1.07A1.07,1.07,0,0,1,46.14,25.82Z"/><path class="b1b2f890-45c8-4b8a-88cf-4a7393aa723b" d="M44.76,28.85a1.08,1.08,0,1,1-1.07-1.08A1.07,1.07,0,0,1,44.76,28.85Z"/><path class="b1b2f890-45c8-4b8a-88cf-4a7393aa723b" d="M44.82,32.33a1.08,1.08,0,0,1-2.16,0,1.08,1.08,0,0,1,2.16,0Z"/><path class="b1b2f890-45c8-4b8a-88cf-4a7393aa723b" d="M46.31,35.62a1.09,1.09,0,1,1-1.08-1.09A1.08,1.08,0,0,1,46.31,35.62Z"/><path class="b1b2f890-45c8-4b8a-88cf-4a7393aa723b" d="M48.61,38.37a1.08,1.08,0,1,1-2.16,0,1.08,1.08,0,0,1,2.16,0Z"/><path class="b1b2f890-45c8-4b8a-88cf-4a7393aa723b" d="M67.51,24.59a1.08,1.08,0,1,0,2.16,0,1.08,1.08,0,0,0-2.16,0Z"/><path class="b1b2f890-45c8-4b8a-88cf-4a7393aa723b" d="M71.2,25.82a1.08,1.08,0,1,0,1.09-1.07A1.07,1.07,0,0,0,71.2,25.82Z"/><path class="b1b2f890-45c8-4b8a-88cf-4a7393aa723b" d="M72.59,28.85a1.06,1.06,0,0,0,1.06,1.07,1.08,1.08,0,1,0-1.06-1.07Z"/><path class="b1b2f890-45c8-4b8a-88cf-4a7393aa723b" d="M72.54,32.33A1.06,1.06,0,0,0,73.6,33.4a1.07,1.07,0,1,0-1.06-1.07Z"/><path class="b1b2f890-45c8-4b8a-88cf-4a7393aa723b" d="M71.05,35.62a1.08,1.08,0,1,0,1.07-1.09A1.07,1.07,0,0,0,71.05,35.62Z"/><path class="b1b2f890-45c8-4b8a-88cf-4a7393aa723b" d="M68.74,38.37a1.09,1.09,0,1,0,1.08-1.06A1.08,1.08,0,0,0,68.74,38.37Z"/><path class="b1b2f890-45c8-4b8a-88cf-4a7393aa723b" d="M63.41,24.29a1.08,1.08,0,1,0,1.08-1.07A1.07,1.07,0,0,0,63.41,24.29Z"/><path class="b1b2f890-45c8-4b8a-88cf-4a7393aa723b" d="M59.55,24.55a1.08,1.08,0,1,0,1.08-1.08A1.08,1.08,0,0,0,59.55,24.55Z"/><path class="b1b2f890-45c8-4b8a-88cf-4a7393aa723b" d="M66.75,28.08A1.08,1.08,0,1,0,67.82,27,1.08,1.08,0,0,0,66.75,28.08Z"/><path class="b1b2f890-45c8-4b8a-88cf-4a7393aa723b" d="M66.75,31.21a1.08,1.08,0,1,0,1.07-1.07A1.06,1.06,0,0,0,66.75,31.21Z"/><path class="b1b2f890-45c8-4b8a-88cf-4a7393aa723b" d="M65.42,34.17A1.07,1.07,0,1,0,66.5,33.1,1.08,1.08,0,0,0,65.42,34.17Z"/><path class="b1b2f890-45c8-4b8a-88cf-4a7393aa723b" d="M63.05,37.25a1.08,1.08,0,0,0,2.16,0,1.08,1.08,0,0,0-2.16,0Z"/><path class="b1b2f890-45c8-4b8a-88cf-4a7393aa723b" d="M53.7,24.33a1.08,1.08,0,0,1-1.08,1.07,1.08,1.08,0,0,1,0-2.15A1.08,1.08,0,0,1,53.7,24.33Z"/><path class="b1b2f890-45c8-4b8a-88cf-4a7393aa723b" d="M58,24.39A1.06,1.06,0,0,1,57,25.46a1.07,1.07,0,1,1,0-2.14A1.06,1.06,0,0,1,58,24.39Z"/><path class="b1b2f890-45c8-4b8a-88cf-4a7393aa723b" d="M50.61,27.93a1.09,1.09,0,1,1-1.08-1.08A1.08,1.08,0,0,1,50.61,27.93Z"/><path class="b1b2f890-45c8-4b8a-88cf-4a7393aa723b" d="M50.61,31A1.09,1.09,0,1,1,49.53,30,1.08,1.08,0,0,1,50.61,31Z"/><path class="b1b2f890-45c8-4b8a-88cf-4a7393aa723b" d="M51.94,34A1.08,1.08,0,1,1,50.87,33,1.06,1.06,0,0,1,51.94,34Z"/><path class="b1b2f890-45c8-4b8a-88cf-4a7393aa723b" d="M54.3,37.1A1.08,1.08,0,1,1,53.22,36,1.08,1.08,0,0,1,54.3,37.1Z"/><path class="b1b2f890-45c8-4b8a-88cf-4a7393aa723b" d="M59.47,22.6l-1.69,0a7,7,0,0,0-.63,1.34,6.72,6.72,0,0,0,.63,1.29l1.69,0a6.84,6.84,0,0,0,.64-1.3A6.77,6.77,0,0,0,59.47,22.6Z"/><path class="b1b2f890-45c8-4b8a-88cf-4a7393aa723b" d="M48.94,40.13l.85,2.13c-.26.1,7.35-3.48,17.76-.06l.76-2.32C56.71,34.07,48.94,40.1,48.94,40.13Zm1.79,1a.7.7,0,1,1,.7-.71A.7.7,0,0,1,50.73,41.16Zm2.34-.78a.69.69,0,0,1-.69-.68.7.7,0,1,1,1.39,0A.69.69,0,0,1,53.07,40.38Zm2.78-.47a.7.7,0,1,1,.7-.7A.7.7,0,0,1,55.85,39.91Zm2.79-.15a.69.69,0,0,1-.7-.69.7.7,0,1,1,1.39,0A.69.69,0,0,1,58.64,39.76Zm2.78.15a.7.7,0,1,1,.69-.7A.7.7,0,0,1,61.42,39.91Zm2.77.47a.68.68,0,0,1-.69-.68.7.7,0,0,1,.69-.71.72.72,0,0,1,.7.71A.7.7,0,0,1,64.19,40.38Zm2.35.78a.7.7,0,1,1,.69-.71A.7.7,0,0,1,66.54,41.16Z"/><path class="b1b2f890-45c8-4b8a-88cf-4a7393aa723b" d="M59.52,24h-1.8c-.72,1.39-1.22,4.4-1.22,7.9a23.64,23.64,0,0,0,.72,6.22h2.9a25.93,25.93,0,0,0,.64-6.22C60.76,28.38,60.25,25.37,59.52,24Zm-.88,1.28a.69.69,0,0,1,.69.69.7.7,0,1,1-1.39,0A.69.69,0,0,1,58.64,25.26Zm0,2.3a.85.85,0,0,1,.86.86.87.87,0,0,1-1.73,0A.86.86,0,0,1,58.66,27.56Zm0,9.53a.7.7,0,0,1,0-1.4.7.7,0,0,1,0,1.4Zm0-2.11a.87.87,0,1,1,.86-.86A.86.86,0,0,1,58.66,35Zm0-2.61a1.09,1.09,0,1,1,1.08-1.09A1.09,1.09,0,0,1,58.65,32.37Z"/><path class="a3cb3981-0f42-4677-b75d-92f8793512be" d="M95.26,25.06c.61.63,1.3.88,2,1.49,1.26,1.1,1.64,2.62,3.74,2.82.37-.21.31-.59.66-.67,1.13-.21,1.62,1.62.59,1.92a1,1,0,0,1-1.25-1,2.73,2.73,0,0,1-1.17-.25,9.45,9.45,0,0,0,1.41,1.91,3.23,3.23,0,0,0,2.42,1.08c.08-.71,1.48-1.17,1.83-.5a1.31,1.31,0,0,1-.26,1.25c-.94.68-1.56-.94-2.56-.49.68.89,2,2.3,3.23,1.57-.52-1.84,2.73-.91,1.25.42-.76.06-1.11-.34-1.5.16.38.12.94.79,1.25.83s.69-.41,1.16-.24.85,1.26.16,1.66a1.09,1.09,0,0,1-1.41-1c-.89-.44-1.71-1-2.58-1.41a2.56,2.56,0,0,0,.5,1.25c.45,0,.86,0,.92.4-.33,0-.61,0-.75-.16a1.59,1.59,0,0,1,.42,1.25c.31.06.35-.14.67-.09-.8.26-1.32,1.49-2.25,1.58s-1.54-.54-2.33-.83c.52.64.78,1.69,1.67,1.83.6.1,1.24-.34,1.82-.42a8.58,8.58,0,0,1,4.83,1c-.42.18-.94-.13-1.51-.09-1.21.12-2.5,1.2-3.9.5a2.31,2.31,0,0,0,1.49,1.25,21.11,21.11,0,0,0,2.25,0c1.78.18,3.23,1,4.57,1.24-.34.58-2.24.71-3.16.68-1.51-.07-2.51-1.07-3.57-1.5a5.5,5.5,0,0,0,2.74,3.07c-.5.34-.91-.29-1.42-.5a7.61,7.61,0,0,1-1.57-.5c-1.29-.91-1.47-3.84-3.15-4.57,0,1.27,1.4,1.87,1.24,3.58.39.38.73.33.83.74s-.3.7-.34,1.09c-.16,2.18,2.3,2.14,3.16,3.4.46.65.35,1.3.59,1.91.11.27.51.62.51,1.08-.55-.11-.64-.68-1-1-.73-.65-1.73-1-2.16-2.08a4.57,4.57,0,0,0,.67,3c.35.46,1.18.86,1.4,1.57a8,8,0,0,1,.09,1.33c.07.59.28,1.25.41,2,.35,2.14.09,3.75,1.5,4.74a1,1,0,0,1,1.5.82c0,1.51-2.54.73-1.67-.4a3.44,3.44,0,0,0-.91-1.09c.07,1.63.14,4,1.49,4.57.82-.29,1.69-.17,1.76.59a.92.92,0,1,1-1.83-.17c-.28-.25-.55-.52-.84-.75.13,1.18.22,3.09,1.75,3.16,1-2,2.71,1.17.83,1.08-.6,0-.5-.8-1.34-.74.19.39.24,1.08.51,1.32s.79.11,1,.34c.55.59.06,1.77-.74,1.66a1.74,1.74,0,0,1-.67-.66c-.09-.33.2-.66.16-.92-.06-.76-1.21-1.83-1.31-2.66-.58.72-.11,1.2-.35,2.24-.48,2.15-3.17-.94-.58-.91.93-1.59,0-4-.08-5.82-1,.61.22,2.84-1.67,2.74-.53.84.31,1.89,0,2.74-.37-.29-.26-.78-.49-1.15-.43-.73-1.21-1-1.41-2-.07-.38.17-.73-.17-1.25a6.71,6.71,0,0,0,.17,3c.14.3.48.4.74.75.15.19.13.52.26.66s.42.22.58.34a4,4,0,0,1,1.15,1.41c.11.23,0,.45.17.67s.49.31.59.57a4,4,0,0,1-2.75-1.32,1.3,1.3,0,0,0,1,1.58,5.12,5.12,0,0,1,2.58,1.07,4.37,4.37,0,0,1,1.31,2.33c-1.34-.75-2.89-1.32-3.82-2.49-.11,1.14,1.21,1.64,1.67,2.57a14.58,14.58,0,0,1,.51,2.75c.09.42.51.79.15,1.24-1.23-1.2-2.36-2-2.57-4.07-.1-1,.06-2-.5-2.66a33,33,0,0,0-.43,4.16c-.33-.08-.27-.56-.41-.83a4.46,4.46,0,0,0-.24,4,1.37,1.37,0,0,1,.91.25c1,2.41-3,1.56-1.24-.16-.08-.42-.26-.74-.33-1.17-.62,1.32-1.56,3.34-.59,4.82.64,0,1.55.21,1.42,1.08a.87.87,0,0,1-1.17.66c-.92-.24-.28-2-.92-2.49-.49.79-.79,3.27.27,3.67.73-.92,2.2.42,1.23,1.24h-1a2.27,2.27,0,0,1-.33-1c-.26,0-.33-.11-.5-.17V88c1.16.1.77,2.23-.42,1.91a1,1,0,0,1,0-1.74,17.93,17.93,0,0,1-.08-3c-1.2.32-.8,2.47-2.08,2.41s-.77-2.48.66-1.51c1.43-1.12,1.53-3.56,2.24-5.39a1,1,0,0,0-.67,1c-.16.17-.26,0-.4-.09.21,1.08-1.23,1.4-1.74.75.19.75-.76,1.87-1.34,2.49-.38.41-1.51,1-1.16,2a3.75,3.75,0,0,0,1.58,2c.46.19,1.36,0,1.41.83a1.48,1.48,0,0,1-.91,1.17c-1,0-.48-.88-.67-1.5-.23-.78-1.35-1.08-1.67-1.66-.37,1.76-.47,3.9.35,5.23.91-.07,1.35.35,1.41.75a.91.91,0,0,1-1.76.41c-.09-.31.11-.6.09-.82,0-.54-.38-.77-.49-1.34-.27,1.72-1,4.12-.26,5.82,1.59-.35,1.4,1.91.08,1.66-1.13-.21-.19-2.28-.91-3-.17.35-.42.77-.66,1.25a7.68,7.68,0,0,0-.66,1.25c-.06.23.17.44.17.67,0,2.09-2.84.23-1.17-.67.12-.07.34-.06.5-.17.48-.38.48-1,.83-1.41-.66-.24-1,.7-1.42.75a1.5,1.5,0,0,1-.83-.42c-.5-1.13,1.23-1.82,1.59-.66,1.61-.07,1.5-1.82,1.9-3.08-1.06.09-.85,1.94-2.07,1.74-1-.15-.73-1.47-.17-1.65s.88.19,1.08.16c1.44-.26,1.6-3,1.66-4.57-.22.33-.73.45-.83.91s.25,1.55-.91,1.41c-.4.21-.12,1.1-.33,1.5-.76-.85-.5-3.73.08-4.49-1.28.37-1,1.7-1.49,3.08-.39,1.1-1.52,2-2,3.24s.69,2.42.5,3.9c-.15,1.12-1,1.69-1.17,2.82,0-1.41-.55-2.79-.25-4.31a4.24,4.24,0,0,0-1.57,2.82c0,.42.22.81.17,1.25-.17,1.56-1.9,2.39-2.25,3.65-.48-.62.24-1.34.25-2.06,0-.24-.19-.53-.17-.76,0-.66.55-1.16.76-1.66-.81.67-1.93,1-2.76,1.74-.62.55-.75,2-1.41,2.74-.9,1-2.41.85-3.49,1.75-.39-.59.34-.63.67-1,.76-.83,1.06-2.25,2-2.92-2.08.39-2.63,2.89-5.06,3.16-.79.1-2.06,0-2.74.09.32-.71,1.17-.87,1.83-1.42a5.67,5.67,0,0,1,2-1.4c.63-.18,1.34-.07,2-.26a6.18,6.18,0,0,1,1.24-.5c-.56-.32-1.21,0-1.82-.08-1.18-.1-2.24-.76-3.4-.84,1.3-1.16,3.7-1.11,5.15-.4.32.15.55.48.82.57,1.22.44,2.18-.42,3-.83a4.79,4.79,0,0,1-4.41-.83c1.18.18,2-.75,3.32-.75.76,0,1.47.58,2.25.5,1.63-.14,1.82-2.32,3.24-3.07-.83,0-1.23,1.2-2.24,1.41-.65.14-1.25-.09-1.83.08s-.55.57-1.09.59c.33-.85,1.28-1,1.76-1.75a18.17,18.17,0,0,1-4.67.92,4.16,4.16,0,0,0-2.73,1.24c.77,1.17-1.17,1.91-1.66.92-.72.55-1.48.5-2.16,1.07s-.64,2.36-1.34,3.25a4.67,4.67,0,0,1-1.57,1c-.41.26-.61.63-1.16.83A19.92,19.92,0,0,1,73,102.9a9.2,9.2,0,0,0-2,.76c-1,.58-1.13,1.87-1.92,2.4a7.87,7.87,0,0,1-1.82.58,11,11,0,0,1-1.67.75c0-.75.82-.84,1.24-1.33.62-.7.79-1.75,2-1.91-.31-.24-.71.11-1.17,0a3.39,3.39,0,0,1-.34.5c-1.42.16-2.72-.36-3.39.33a3.2,3.2,0,0,0-.58,2.24c0,.24.46.53.49.83.07.88-.77,1.12-1.58,1a1,1,0,0,1-.16-1.16c.12-.23.65-.21.82-.5.39-.63,0-1.08.26-1.91a5.34,5.34,0,0,0-4,3.06,1.16,1.16,0,0,1-.09,1.85.94.94,0,1,1-.25-1.85c.11-.5.47-.79.67-1.24-.47,0-.67.37-1,.59-1.32.89-3.06,1.11-3.73,2.57.08.49.33.5.33.83,0,1.53-2.63.69-1.5-.66.12-.15.45-.12.67-.24.52-.35.68-1,1-1.25-1.06,0-1.76.41-2.83.41-.25.44-.58.83-1.16.74-1.71-.22.2-2.83,1.16-1.15.57,0,.84-.33,1.49-.25-.33-.8-2-.33-1.58-1.59.22-.75,1.59-.59,1.74.34a1.45,1.45,0,0,1-.24.5c.74,1.17,2.71.13,3.57-.34-.74-.68-1.69.25-2.5-.33a1.38,1.38,0,0,1-.15-.83c-.52-.07-.79.35-1.17.16,0-.47.38-.26.67-.41,1-.54,1.71-1.47,3.23-1.66a5.22,5.22,0,0,0-3.07-.33c-.71.19-1.14.77-1.83.82a14,14,0,0,1-2.16-.32c-.12,1.75-1.15,2.42-2.32,3.24-.41.27-.62.68-1.08.75.79-1.21,1.11-2.87,2.15-3.83a7.94,7.94,0,0,0-2.06.83c-.81.57-.92,1.83-1.76,2.41a5.22,5.22,0,0,1-1.07.41c-.86.37-1.48.68-2.42,1,.14-.77,1.1-1,1.5-1.66.18-.27.11-.67.33-.91s1-.46,1.41-.75c-1.56.12-2.53-.27-3.65.16s-1.61,1.36-2.57,1.5c-1.19.19-2.49-.47-3.75-.58.27-.38.63-.22,1-.33,1.2-.34,2.17-1.19,3.49-1.42-1.42-.7-3.38.55-5,.34a6.5,6.5,0,0,1-2.49-1.33c-.3-.17-.83,0-.84-.58,1.59.27,3-.41,4.24-.25s1.88,1.21,3.66,1.08c-1-.36-1.78-1.55-2.92-1.75-.44-.07-.89.27-1.32-.08.12-.43,1-.13,1.32-.33-.27-.46-.64-1.22-1.24-1.41-.26-.09-.63,0-.92,0-1.19-.17-2.28-1.17-3.32-1.33.49-.47,1.33-.07,2-.17s1.67-.55,2.58,0c-1.09-.77-1.66-2-3.08-2.49-.3,0-.12.49-.5.42a.62.62,0,0,1-.16-.59c-.34,0-.74-.22-.91-.17-1,.29-.2,2.54-1.25,2.75-.13,0-1.15-.12-1.25-.67-.16-.89.78-.62,1.32-1s.3-.72.67-1.08c-.11-.39-.59-.4-.74-.74-.32.09-.7,0-1.17.08a5.37,5.37,0,0,0-2.66,1.49c0,.14.25.49.25.58a1.37,1.37,0,0,1-.66.92c-1.32.34-1.35-1.34-.51-1.74.24-.11.53,0,.68,0,.48-.14.5-.65,1.08-.75-1.93,0-4.41.14-5.66,1.08.55,2.81-3.15.56-.91-.33.2-.08.46,0,.67,0,.55-.1.86-.66,1.33-.66-.83-.41-2.09-.36-2.92-.75-.16.48-1.23.53-1.58.08-.81-1.07,1.56-2.19,1.75-.42a6.9,6.9,0,0,1,1.51.25c.06-.92-.85-.62-1-1.16-.56-2,3-.73,1.25.5.2,1.29,2.14,1.12,3.49,1-.24-.51-.87-.5-1.51-.67-1.61-.44-.16-2.55.76-1.49.27.3,0,.8.16,1.16a2.45,2.45,0,0,0,1.34.91c1.24.25,2.36-.55,3.48-.41-.21-.37-.69-.47-1.07-.67-.82,1-2.4-.62-1.25-1.32a2.75,2.75,0,0,1-1-1.33c-.77.33-1.09,1-1.91,1-.65,0-1.42-.61-2.24-.75-.35-.05-.69.11-1-.16.22-.43.7-.1,1.08-.17s.71-.52,1.16-.67c.83-.26,1.39.13,2.24.09-1.23-.21-2-1.21-3.15-1.09-.72.08-1,1-1.67,1.43-.93.61-2.4.48-3.08.82a4.47,4.47,0,0,1,3-2.41,3,3,0,0,0-2.49.58,6.63,6.63,0,0,1-1.58,2.08,6,6,0,0,1-3,.83c.11-.39.47-.47.76-.74a6.54,6.54,0,0,1,2.73-2.17c-1.13-.42-2,.64-3.07.75s-2.63-.45-3.91-.5c1-.38,1.74-1.23,2.83-1.42,1.57-.25,3,.88,4.66.5A40.59,40.59,0,0,0,12.84,89a9.77,9.77,0,0,1,3.15-.5c1,.15,1.45,1.09,2.25,1.41s1.86,0,2.9.24a17.8,17.8,0,0,1-3.08-2.65A3.36,3.36,0,0,0,15.42,86c-.34.25-.35.53-.76.57-1.67.18-1.07-2.55.42-1.74.3.17.2.47.49.92a2.48,2.48,0,0,1,1.18.25A16.56,16.56,0,0,0,15,83.87,2.27,2.27,0,0,0,12.91,83c-.52.13-.88,1.4-1.9.5.05-.51-.1-.91.08-1.17.67-.93,1.73.71,2.75.43-.76-.85-1.83-2.28-3.25-1.67.34,1.17-1.41,1.56-1.66.67-.43-1.5,1.4-.66,1.83-1.25-.36-.29-.84-.44-1.17-.75-1.34,1.16-2.42-1.21-1.16-1.5a1,1,0,0,1,1.16,1l2.67,1.5c0-1.22-1.3-1.64-1.08-2.83-.46-.32-1.25-.31-1.67-.66.57-.27,1,.09,1.67,0s1.14-.55,1.73-.5c.79,0,1.2.65,1.91.83.14-2.26-3.6-1.62-5.56-1.41,0-.38.34-.25.59-.42.5-.35,1-1.07,1.49-1.16.85-.14,1.62.44,2.41.74-.34-.54-.69-1.59-1.58-1.74-.52-.09-.91.22-1.49.34a7.39,7.39,0,0,1-3.75-.42c-.51-.17-1.21-.17-1.41-.67C7.37,73.6,9,71.69,11,72.57c-.48-1.07-1.56-1.26-2.83-1.24-2,0-4-.86-5.56-1.33.4-.59,2.84-.77,4-.5s1.91,1.09,2.65,1.33a6.08,6.08,0,0,0-2.65-3.16c.45-.07.88.44,1.24.58.82.33,1.53.26,2.07.84.76.78,1,2.16,1.58,3.07a2.78,2.78,0,0,0,1.25,1.16c.2-.84-.7-1.22-1-1.9s-.2-1.64-.51-2.33c.61,0,.56.55.92.75.28-2.08-2.29-2.09-3.17-3.41a6.09,6.09,0,0,1-.48-1.25c-.16-.51-.25-1-.51-1.66.43.06.49.49.75.74.77.78,1.9,1.21,2.42,2.33a14.3,14.3,0,0,0-.17-2c-.23-.87-.9-1.23-1.5-1.82a4.89,4.89,0,0,1-.42-.67,23.6,23.6,0,0,1-.33-2.92,6.88,6.88,0,0,1-.24-.65c-.16-.95,0-2-.25-2.92-.2-.73-.92-1.13-1.25-1.82-1.16,1.18-2.16-1.61-.5-1.57.4,0,.55.21.91.66.08.38-.1.5-.16.74a11.49,11.49,0,0,0,.82,1,15,15,0,0,0-.33-3.49,3.09,3.09,0,0,0-1.08-1.08c-.57-.18-1.77.55-1.82-.67a1,1,0,0,1,.82-.91c1-.08,1,1.55,1.92,1.9-.21-1.44-.34-3-1.74-3.23-.94,2-2.82-1.21-.83-1,.63.06.29.76,1.24.66.08-.36-.39-.87-.5-1.33-1.5.14-1.46-2.05-.25-1.91.47.05,1.1,1,.5,1.49.55.81.84,1.88,1.41,2.66.58-.79-.06-2.51.66-2.9.89-.49,1.83.88,1,1.49-.12.1-.5,0-.74.16-1,.8-.21,3.19-.08,4.5,0,.52-.18,1,.16,1.4,0-.43.5-.82.57-1.32,0-.19-.15-.38-.15-.58a.92.92,0,0,1,1.24-.92c.24-.68-.11-1.76-.08-2.74.45.25.29.71.51,1.07.39.71,1.19.94,1.4,1.92.09.39-.08.77.17,1.33.39-.28,0-.69,0-1.08s.19-.58.17-.83c-.11-1-1-1.58-1.25-2.41-1.3-.55-1.67-2-2.49-3.07a5.44,5.44,0,0,1,2.82,1.41c0-.56-.35-1.44-.91-1.58-.31-.08-.65,0-.92-.09a4.61,4.61,0,0,1-3.24-3.4c1.35.81,3,1.36,3.9,2.58,0-1.22-1.55-1.94-1.9-3.25-.18-.64-.12-1.37-.26-2s-.49-.82-.32-1.33c.43,0,.67.58,1,.92a4.13,4.13,0,0,1,1.59,2.24c.24,1.21-.13,2.73.75,3.57-.06-1.55.3-2.68.33-4.15.25.11.22.49.33.74a4.33,4.33,0,0,0,.33-3.9c-.29-.14-.69,0-.91-.25-1.25-1.52,2.07-2.28,1.66-.41-.05.2-.17.29-.49.5.21.33.19.9.41,1.24.54-1.48,1.64-3.55.41-4.91-1.71.21-1.57-1.84-.33-1.74s.37,1.95,1.16,2.57c.4-.93.78-3-.16-3.65-1.39,1.27-2.69-1.83-.34-1.25.15.5.3,1,.76,1.17,0-.49.25-.93.08-1.41-.11-.3-.68-.45-.74-.67a1,1,0,0,1,1.24-1.32c.52.21.52,1.48-.09,1.74a24.24,24.24,0,0,1,.09,3c1-.34.79-2.67,2.15-2.42,1.13.21.67,2.33-.82,1.49-1.37,1.16-1.55,3.49-2.17,5.41.29-.3.64-.54.66-1.09.21-.2.16.13.42.09-.06-.34.08-.47.09-.75.42-.31,1.23-.5,1.58,0,.35-.23-.09-.2-.09-.5.54-.64.73-1.15,1.17-1.66s1.58-.92,1.49-2.07a3.5,3.5,0,0,0-1.66-2.25c-.69-.19-1.26,0-1.33-.75a1.31,1.31,0,0,1,.83-1.17c.9,0,.54,1,.67,1.42.23.8,1.31,1.18,1.75,1.67.27-1.91.49-3.8-.43-5.16-1.32.37-1.88-1.87-.49-1.82s.41,2.05,1.32,2.82c.16-1.88.92-3.87.34-5.73-1.63.21-1.57-2.05-.25-1.83s.18,2.06.91,3.07c.53-.84.86-1.86,1.42-2.65-.6-.82.35-2.13,1.32-1.25.31.87-.12,1.62-1,1.58A12.57,12.57,0,0,0,22,17.9c.73.31.84-.61,1.32-.66a.83.83,0,1,1,0,1.66c-.56,0-.69-.89-1.5-.5s-.88,2-1.06,3c1-.08.7-2,2.06-1.74s.34,2.43-1,1.41c-1.47.6-1.48,2.66-1.66,4.57.31,0,.62-.65.93-.91a.93.93,0,0,1,1-1.41c.14-.43,0-1.12.26-1.42a5.71,5.71,0,0,1-.09,4.41c1.45-.41,1-2.46,1.84-3.83.13-.23.43-.36.57-.58a11.61,11.61,0,0,0,1.08-2.07c.4-1-.69-2.51-.49-3.83.13-.94.9-1.72,1.06-2.66.37.42.12,1,.18,1.5a7.79,7.79,0,0,1,.17,2.91c.35-.74,1-1,1.33-1.83s-.15-1.76.07-2.74A4.9,4.9,0,0,1,28.7,12a10.91,10.91,0,0,1,1.75-2.08c.11.76-.49,1.34-.5,2,0,.27.18.54.17.83-.05.64-.53,1-.67,1.65.84-.85,2.05-1.07,2.83-2s.69-2.07,1.5-2.75,2.27-.76,3.4-1.49c0,.62-.59.78-.92,1.16-.69.8-1,2-1.83,2.66,1.94-.2,2.4-2.45,4.25-3a17.26,17.26,0,0,1,2.58-.09c.36,0,.65-.4,1-.08-.07.46-.46.39-.76.58s-.85.59-1.25.91a4.69,4.69,0,0,1-2.07,1.34c-1.08.21-2.11.06-3,.75a12.67,12.67,0,0,0,2.08.08c1.08.12,1.91.82,2.82.75a6.51,6.51,0,0,0,1.83-.92c1.17-.66,2.32-.95,2.09-2.33-.35-2,1.57-2.67,2.15-4.24.16-.41-.09-.73.41-1.07.56.17.13.76.1,1.07-.21,1.59-.55,3.57-1.59,4.41,2.21-.15,2-3,3.66-4.41.93-.77,1.74-1,2.65-1.82-.07.85-1,1.36-1.25,2.15-.09.31,0,.66-.08.92C49.71,8,48.7,8,48,8.85c3.71.35,3.41-4,7.15-3.9-.12-.6-.4-.54-.43-.93-.05-1,1.58-1.45,1.84-.57s-.76.84-1,1.41c.25.14.8-.38,1.25-.08-.4.81-1.59.85-1.49,2.16a7.17,7.17,0,0,0,4.06-3.41c-.22-.24-.44-.34-.5-.58-.4-1.82,2.7-1.24,1.5.42-.81.09-1,.8-1.33,1.41C60.5,4,62.79,3.22,63.76,1.62,62.5.33,64.75-.66,65.09.54c.15.51-.31.57-.33,1.08-1,0-1.06.81-1.49,1.33A17.09,17.09,0,0,0,66,2.53,1.28,1.28,0,0,1,67.76,2c.7,1.37-1.3,1.89-1.75.92a3.65,3.65,0,0,1-1.4.25c.06.54.56.65,1.23.58.63.59.06,1.85-.75,1.49a6.41,6.41,0,0,1-1.57,2.25,8,8,0,0,0,2-.58c1-.51,1.13-1.73,1.91-2.24,1-.7,2.43-.53,3.65-1.25C71,4.28,70,4.39,69.59,5c-.17.2-.16.53-.34.74-.41.45-1,.51-1.49.91,1.16-.13,2.29.34,3.48.1.83-.18,1.45-1.07,2.33-1.26,1.52-.32,2.41.54,4.07.76-.5.47-1.13.31-1.74.5a10.16,10.16,0,0,1-2.82.9c1.45.83,3.19-.17,4.9.09,1,.15,1.72,1,2.48,1.5.33.2.71.07.83.49-.4.44-1,0-1.32,0-1.33-.1-2.29.39-3.41,0-.83-.29-1.62-1.32-3-1.25.39.61,1,.71,1.58,1.25.75.73,1.08,1.63,1.91,2.25a8.15,8.15,0,0,1,1.08,1A15,15,0,0,1,83.3,10c-.09.53-.6.38-.92.67-.52.47-.58,1.44-1.16,1.91s-1.24.28-2.17.67c1.93,1.76,4-1.66,5.23-2.58-.36,1.25-.22,3-1.65,3.15.38.2.7.46,1.08.67A28,28,0,0,1,86,12a8.22,8.22,0,0,1,3.24-1.5c-.14.48-.61.33-.91.57-1.15,1-1.23,3-3,3.33,1.45.57,2.37-.34,3.25-1.08a14.87,14.87,0,0,1,4.73-2.49c0,.84-.57,1.07-1.16,1.67a6.64,6.64,0,0,1-4.4,2.07,6.58,6.58,0,0,0,4.15.58c-1.13.33-2.39,1.29-3.57,1-.14.58-1.06.8-.92,1.17-.19.21-.64-.07-.74.07a9.4,9.4,0,0,1-.58,1c.8,1.45,4.11-.27,4.64-1-1.11-1.54,2.13-2.2,1.58-.41a1.47,1.47,0,0,1-.66.67c-.12,0-.37-.13-.5-.09-.63.24-.88.77-1.25.92.87-.16,2.22-.14,3.5-.33a4.44,4.44,0,0,0,2.24-.92c.14-.31-.33-1.07.25-1.33a1.15,1.15,0,0,1,1.33.58,1.12,1.12,0,0,1-.76,1.17c-.13.05-.44-.11-.57-.09-.56.08-.91.68-1.33.75.84.32,1.95.38,2.83.67.73-.8,2.11-.12,1.66.9-.29.67-1.88.56-1.75-.49-.61,0-.9-.27-1.5-.25-.27.68.78.64.91,1,.58,1.46-2,1.71-1.56,0,.06-.16.26-.22.4-.32-.21-1.28-2.29-1.32-3.56-1,.48.8,2.17.35,2.32,1.32.21,1.42-2.27,1.34-1.67-.32-.85-1.44-3.3-.74-5-.5.34.27.84.38,1.17.67.84-1.08,2.43.6,1.25,1.32.56.23.77.82,1.07,1.33.68-.51,1.15-1.08,2.08-1,.75.07,2,.91,3.07.93-.32.33-.66,0-1.08.07s-.87.62-1.42.75a5,5,0,0,1-2.15-.25c1.35.41,2.21,1.38,3.41,1.16.69-.11.93-1,1.58-1.41.86-.55,2.31-.29,3-.92a3.88,3.88,0,0,1-2.82,2.49,3,3,0,0,0,1.75-.08c.64-.22.7-.81,1.07-1.41a5.25,5.25,0,0,1,4.08-2c.08.37-.37.45-.58.66-.78.81-1.6,1.94-2.92,2.25,1.48.43,2.27-.83,4-.67a4.91,4.91,0,0,1,.5.17c.85.17,1.85-.13,2.49.33-1.06.38-1.79,1.27-3,1.41-1.39.17-2.82-.92-4.4-.5,1.32.54,2.47,1.23,3.9,1.67-1.05.14-2.79.71-3.74.33-.62-.25-1-1-1.66-1.24A17.36,17.36,0,0,0,95.26,25.06ZM61,4.45c1,.41,2.32-.52,2.83.66a1,1,0,0,0,.09-1.83C62.93,3.63,61.63,3.7,61,4.45ZM58,6c1.77-.36,2.84.7,4.48.92a4.39,4.39,0,0,1,.42-.84c-.63-.06-.79-.59-.91-1.15C60.21,4.3,59.09,5.36,58,6Zm-3.25.75c-.64.33-2.61.48-2.73,1.33C53,8.07,54.45,7.82,54.7,6.77Zm2.65,1.42c.9.19,2.26.24,3.18.5.23.06.45.27.66.24.7-.1.93-.92,1.16-1.74-.63-.11-1.4-.1-2-.25C60,8.53,58.15,7.07,57.35,8.19Zm15.22,1c0-1.47-1.76-1.74-3-1.75C71,7.45,71.4,9.44,72.57,9.19Zm-3.82-.76c-.15-.21-.3-.65-.41-.74-.91-.73-2.08,0-3.25.25-.56.12-1.14-.1-1.49.32,2.61-.62,3.28,1.07,5.32,1.25a11,11,0,0,1-2.33.33c.5,1.3,3,.8,3.57-.16A3.9,3.9,0,0,1,68.75,8.43Zm32.16,59.74c-1,1.31-2.77,1.78-2.5,4.32.88,0,1.14,1.46.42,1.75s-1.39-.24-1.24-1.17c0-.31.83-1,.31-1.65-.6.83-2,2.11-1.15,3.39,1.37-.42,1.58,1.65.42,1.67s-.46-1.32-1-1.83c-.13.35-.65.78-.67,1.34,0,.28.34.46.34.82a1,1,0,0,1-.91.92c-1.21,0-1-1.89.24-1.83,0-.91.7-1.78,1-2.66a8.19,8.19,0,0,0-1.41.57c-.33.26-.2.57-.58.68a.84.84,0,1,1-.25-1.58c.37,0,.4.3.74.5,2.08-.67,2.87-2.63,4.33-3.91-.53.1-1,.32-1.5.41-.5,1.68-2.74-.15-1.42-.91.59-.34,1.24.16,1.58.5,2.07-.35,3.08-1.74,4.16-3.07-.56-.12-.43.45-.83.5-.07-.31.1-.41.08-.67-.74.18-1-.22-1.5-.08s-.47.79-1.07.75c-1.55-.11,0-2.9,1.07-1.33.84-1.44.38-3.32,1.17-4.57.46-.73,1.85-1.55,1.66-2.74-1,1.46-2.82,2.11-4.41,3a5.94,5.94,0,0,1,3.08-3.66c.46-.19,1-.13,1.67-.33s1.43-1.79,1.41-2.5a4.36,4.36,0,0,1-2.26,2c-.4.19-1.14.57-1.4.16.18-.17.51-.21.67-.41a4.11,4.11,0,0,1,1.58-2.5c.5-.35,1.3-.45,1.66-.82a1.71,1.71,0,0,0-.25-2.41c-.11.76-1,.94-1.32,1.49s-.09,1.05-.59,1.42c.19-1.26-.1-3,.25-4.16-1.79,0-.63-2-1.58-2.82-.16,1.9-.92,4-.25,5.82a.89.89,0,1,1,.25,1.74c-1.31-.13-.27-2.32-1.09-3A15.51,15.51,0,0,1,98.5,53.8a1,1,0,0,1-.66,1.66c-1,0-1.11-2.15.41-1.91.09-.55.43-.84.58-1.32-.69-.32-.77.49-1.24.57-1.35.22-1.4-1.93.31-1.49,1,1.73,2.37-1.5,2.09-2.67-.87.37-.69,2-1.83,1.92-1.48-.14-.5-2.74.92-1.5,1.39-.72,1.48-2.77,1.58-4.56-.44.17-.57.64-.91.91,1,1.2-1.55,2.11-1.67.57a1,1,0,0,1,1.49-.91,4.15,4.15,0,0,0,1.17-1.65c.28-1.11.15-2.53.57-3.58-.37.1-.26-.28-.57-.25a10.54,10.54,0,0,0-.5,1.34c-.06.44.16,1.2-.17,1.32-.12-1-.78-1.83-.83-3s1-2.79-.07-3.74c.34,1.37-.9,2.16-.84,3,0,.38.59.79.67,1.25.23,1.34-.48,2.51-.59,3.73-.43-.38-.27-1-.42-1.41-.33-1-1.23-1.79-1.33-3-.63,1.79.66,3.45.33,5.23-.14.9-.86,1.5-1.24,2.25-.16.33,0,.74-.41.91-.49-.28-.15-.61-.17-1,0-1-.38-2.2-.33-3.16.09-1.28,1.44-2.31.91-3.73a8.73,8.73,0,0,1-1.08,1.91c-.47.57-1.17.83-1.66,1.33-.23.23-.23.72-.66.75a5.81,5.81,0,0,1,2.41-4.65c.34-.21.92-.24,1.25-.58a3.79,3.79,0,0,0,.49-2.75,4.19,4.19,0,0,1-2.9,3.24c.47-.41.39-.87.49-1.58a5,5,0,0,1,.67-1.74c.35-.51,1.48-1,1.57-1.58.25-1.37-.75-2.68-1.07-4.32-.21,1.05.29,1.53.16,2.41-.1.7-.77,1.09-.91,1.74-.1.44.21,1-.16,1.34-.44-.61-.17-1.23-.35-1.92s-.68-1.2-.65-1.82c0-1.15,1.26-1.46,1.41-2.67a22.28,22.28,0,0,0-2.58-3.64c.06.9.82,1.54.83,2.24-1.16-1.09-2.8-1.69-2.91-3.83-.48,0-.88-.12-1-.5.12-.18.13-.47.33-.58a14.38,14.38,0,0,1-2.16-1.25c-.57-.4-1.25-1.38-1.91-1.49-.37-.07-.87.37-1.33.17a7.63,7.63,0,0,0,.67,1.74c1.16,1.21,2.58,1.34,2.82,3.65.08.87.13,1.45.17,2.09-.81-1.39-2.16-2.23-3-3.58-.14,2,1.72,2.92,1.91,4.73A30.55,30.55,0,0,1,86.2,32c-.62-.12-.49-.76-.67-1.25-.3-.88-1.12-1.79-1.25-2.57-.19-1.29.43-2.6-.24-3.75a12.57,12.57,0,0,1-2,4.91,6.61,6.61,0,0,1,0-3.83c.38-1.05,1.49-1.62,1.75-2.32a4.7,4.7,0,0,0-.33-2.75c.08,1.69-.78,3.54-1.83,4.07.43-.57.07-1.19,0-1.74-.22-1.73.67-2.4.58-3.57.16,0,.5.11.42-.16a2.18,2.18,0,0,0-1.58-2c.4.76-.22,1.56-.17,2.33,0,.52.48.82.34,1.33-.5-.3-.65-.87-.92-1.33a15.5,15.5,0,0,1-1.75-2.91c-1.13,0-1.6-.62-2.73-.58.56.84,1.37,1.45,1.91,2.33A1,1,0,0,1,79,19.24c-.22,1.06-1.81.47-1.83-.34,0-.2.24-.34.17-.58s-.75-.76-1.08-1.08c.1.35-.17.32-.16.58a.85.85,0,0,1-.51,1.5c-.87,0-1.21-1.84.26-1.66.29-1.74-1.41-2.42-2.34-2.91-.13.78,1,1.11,1.09,1.74a.86.86,0,1,1-1.66,0c0-.3.46-.48.48-.74A2.76,2.76,0,0,0,73,14.41a4.7,4.7,0,0,0-1.57-1,4.59,4.59,0,0,0-1.66-.75,3.44,3.44,0,0,1,.58,1.09.92.92,0,1,1,.17,1.82.94.94,0,0,1-.41-1.75c-.46-.15-.36-.91-.76-1.4a7.22,7.22,0,0,0-2-1.17,18.63,18.63,0,0,0-1.57-1.08c-.24-.08-.57.07-.91,0-.93-.2-1.37-1.44-2.08-1.49a1.77,1.77,0,0,0-1.16.5c1,.26,1.22.94,1.91,1.49s1.42.84,1.4,1.75c-2.24-.73-4.79-1.46-6.55-2.75-1.11-.81-2.18-1.93-4-1.09,1.79.47,2.38,1.85,3.32,3.09a5.35,5.35,0,0,0,2.08,1.49A8.3,8.3,0,0,1,56,11.93a9,9,0,0,1-2.41-1.83c-.29-.35-.38-.88-.75-1.17-1-.73-2.42-.07-3.49.34,1,.31,2.41.39,3,.91s.48,1.73.75,2.58c.11.34.53.42.32.83-1.19-.79-3-3.34-4.81-3.66a2,2,0,0,0-2.08.83c1.25.37,2,.12,2.83.67s1,1.74,1.67,2.24c.38.27,1.15.25,1.24.74a17.17,17.17,0,0,1-4.9-1.82c-.61-.36-1.26-1.23-1.91-1.25a4.79,4.79,0,0,0-1.58.74c-.56.34-.95.62-1.5.92-1,.54-2.89,1.4-3,2.58-.54.26-.93.84-1.51,1-.35.08-.82-.37-1,.17,1.78-.09,4.41,0,4.73-1.5.06-.26-.2-.57-.16-.84a.88.88,0,0,1,1.74.17c0,.88-1.77.95-2,1.83,1.31-.31,3.09-.17,3.23-1.66-1.71-1.17,1.36-2.86,1.09-.59a1.29,1.29,0,0,0-.76,1.09c.41-.26,1-.17,1.41-.59s.1-.83.58-1a1,1,0,0,1,1.34.91,1,1,0,0,1-1.59.42c-.76.56-1.91.74-2.65,1.32.71.61,3-.08,3,1.18,0,1-2.08,1.29-1.75-.35-1.49-.88-4-.18-5.89,0,.51,0,.82.52,1.41.59s1.38-.1,1.41.75c.05,1.42-2.24,1-1.74-.59a8,8,0,0,0-5.16-.57c.46.55.89,1.6,1.59,1.82s1.44-.21,1.32.74c-.06.48-.74.8-1.16.76-.9-.08-.49-.67-.75-1.41A3.52,3.52,0,0,0,34,17.5a5.05,5.05,0,0,0-1,.16,18.89,18.89,0,0,0-5.49,2.23c-.42.3-1,1-1.42,1.25-.11.09-.44.2-.5.25-.38.5-.14,1.43-.24,1.83-.17.72-1,.94-1.24,1.67,2.39-.31,2.05-2.9,3.65-3.91.35-.22.73-.16,1.16-.33s.65-.71,1.25-.42c-.7.69-1,1.6-1.83,2.16-.48.33-1.19.43-1.41,1.08a3.12,3.12,0,0,0,2.24-1c.73-.54,1.76-1.65,2.58-1.82a11.81,11.81,0,0,1,3.24.24,5.57,5.57,0,0,0-3.82,1.75,7.09,7.09,0,0,1,4.49.42c.91.47,1.81.66,2,1.5-1.35-.17-2.47-.21-3.66-.43-2-.36-3.32-1.9-5.07-.66,1.87,0,2.53,1.57,3.74,2.24.35.2.88,0,1.16.34a8.87,8.87,0,0,1-3.65-.42c-1.18-.49-2.08-1.72-2.9-1.74a3.62,3.62,0,0,0-1.92,1c2-.23,3.14.39,3.32,2a.69.69,0,0,1,.5.5c-1.61-.5-4.28-3.06-5.73-.92,2.41-.54,2.56.84,3.74,1.42.44.21.81,0,1.24.42a11.35,11.35,0,0,1-4.57-.75c-.26-.05-.22.22-.41.25-.32-.18-.44-.57-.82-.67-.49.43-1,.9-1.58,1.41A6.45,6.45,0,0,0,19,31.37c-.33.86-.39,1.71-.74,2.49-.13.27-.58.41-.34.75.64-.83,1.71-1.13,2.57-1.75S21.3,30.66,22,30s1.73-.71,2.65-1.08c.32-.12.49-.54.92-.42-.1.6-.74.73-1.08,1.17-.63.79-.83,2-1.75,2.57,2.24-.37,2.54-2.69,4.74-3.06A15,15,0,0,1,30.62,29a16.75,16.75,0,0,1-1.92,1.41,4.85,4.85,0,0,1-2.42,1.41,4.86,4.86,0,0,0-2.81.83c2.13-.3,3.61.41,5.23.83a5.07,5.07,0,0,1-3.65.84c-1.2-.13-2-1.08-2.83-1.17a4,4,0,0,0-2.41.92c1.26-.54,3.86,0,4.33.9-1.06-.37-1.55.46-2.58.59a5.62,5.62,0,0,1-1.42,0c-.48-.07-1-.51-1.41-.49-1.18,0-2,1.73-2.32,2.4.44-.12.64-.54,1.33-.66.46-.09,1,.11,1.49,0s.81-.65,1.24-.66c-.15.82-1.06.94-1.49,1.41-.26.28-.33.71-.58,1a2.53,2.53,0,0,1-.5.42c-.8.45-2.54-.24-3.15.33-.25.24-.39,1.07-.58,1.49-.72,1.61-1.37,3-1.91,4.58a11.55,11.55,0,0,1,.58,1.91c-.07-1.1.67-1.48,1.07-2s.32-1.33,1-1.51c0,.15-.11.5.07.5.56-.9,1.81-.1,1.5.92-.09.33-.61.42-.75.67s-.15.87-.25,1.16c1-1.2,2.91-2,2.49-4.32-1.31-.18-.88-2.3.5-1.67a1.12,1.12,0,0,1,.42.92c0,.48-.93,1.21-.42,1.92.65-.88,2.17-2.28,1.17-3.5-1.08.6-1.58-1.37-.59-1.58,1.33-.27.64,1.31,1.25,1.83.23-.46.45-1,.67-1.41a.93.93,0,0,1,.41-1.66c1.17-.14,1.32,1.6,0,1.74a24.23,24.23,0,0,1-1.16,2.74c.63-.35,1.08-.29,1.51-.66.15-.16.12-.47.4-.59,1.31-.54,1.84,1.16.92,1.5-.69.26-1-.24-1.32-.5-2,.8-2.92,2.59-4.26,4,.57-.32,1-.21,1.42-.49s.38-.67.91-.67c1.3,0,1.19,2.12-.41,1.66-.31-.09-.29-.41-.67-.58a7,7,0,0,0-4.07,3.07c.41.29.37-.49.83-.42,0,.3-.13.37-.24.5a4.46,4.46,0,0,0,1.65.17c.32-.2.39-.59.67-.67,2-.46.52,3.1-.82,1.34-.64,1.43-.31,3.37-1.09,4.57-.59.88-1.69,1.31-1.58,2.57,1-1.35,2.75-2,4.32-2.83a5.42,5.42,0,0,1-2.23,3.16,10.21,10.21,0,0,1-2.59.84c-.65.22-1.35,1.9-1.32,2.49A4.49,4.49,0,0,1,16,58.2c-.12.33-.54.35-.74.59a4.06,4.06,0,0,1-1.59,2.49c-.45.31-1.34.4-1.66.75-.46.51-.53,2,.26,2.4.2-.76,1.15-1,1.49-1.65.19-.39-.09-.9.42-1.17-.1,1.34,0,2.84-.17,4.15,1.73,0,.53,2,1.57,2.74,0-1.91,1-4.2.09-5.82-1.47.4-1.39-2,0-1.65,1,.23.18,2.39.91,3,.47-.87.85-1.81,1.33-2.66a1,1,0,0,1,.5-1.5.93.93,0,1,1-.16,1.83c-.21.48-.42,1-.67,1.42.63.23.74-.46,1.16-.58,2.07-.61.5,3-.58.9-1.51.16-1.52,1.81-1.82,3.16,1.15-.16.7-2,2-1.83s.57,2.53-.91,1.5c-1.5.53-1.49,3-1.57,4.66.2-.43.59-.62.83-1a1,1,0,0,1,.49-1.41c1.11-.3,1.66,1.34.75,1.75-.33.16-.84-.15-1.09,0-.19.45-.84.78-1.07,1.41a3.9,3.9,0,0,0,.16,2A7.22,7.22,0,0,1,15.74,76c-.07.3-.25.37-.25.57A2.75,2.75,0,0,0,16.08,78c-.16-2.44,1.4-3.29,1.74-5.16.06-.34-.22-.74.24-1.07.37,1.7,1.28,2.88,1.75,4.48.52-1.78-.55-3.39-.41-4.9.1-1.13.86-1.8,1.34-2.74.13-.28-.06-.71.4-.84.29.57,0,1.17.09,1.75a20.07,20.07,0,0,1,.33,2.33c-.06,1.44-1.3,2.51-1,3.9.48-.68.74-1.33,1.24-1.92s1.14-1,1.67-1.48c.17-.18.21-.61.59-.58a5.67,5.67,0,0,1-2.5,4.65c-.3.18-.88.27-1.17.58A3.3,3.3,0,0,0,20,79.64,4.23,4.23,0,0,1,22.8,76.4c.05.34-.31.47-.42.75-.3.85-.17,1.83-.64,2.57-.13.17-.46.46-.67.67s-.7.35-.84.58c-.65,1.06.36,2.53.58,3.24.16.52,0,1.07.42,1.41A4.27,4.27,0,0,0,21,84c-.12-1.27.79-1.6,1-2.66.06-.38-.27-.88.16-1.08.14.16.09.52.17.75a1,1,0,0,1,1.32,1.25,13.15,13.15,0,0,1,2.16,2c-.13-.47.11-1-.08-1.59-.1-.28-.39-.36-.41-.57A1.08,1.08,0,0,1,25.79,81c1.3-.45,1.65,1.58.33,1.75-.09,2.36,1.5,3.63,2.17,5.48-.17-.55.19-1,.08-1.5-.07-.35-.41-.45-.41-.74a1.08,1.08,0,0,1,.83-1c1.13-.12,1.31,1.77-.09,1.83-.35,2.23.38,3.8,1.75,4.56,0-.6.66-.77.66-1.5,0-.27-.39-.58-.32-1,.14-1.14,1.45-.46,1.65.17.08.21-.12.48-.08.75s.4.61.58,1a6.69,6.69,0,0,1,.51,1.16,8.49,8.49,0,0,1-.18,3.58c0-.12.42.08.67,0,.05-.71,0-1.51.42-1.83.45,1.61,1.93,2.37,1.48,4.65.62.16,1.95.81,1,1.5-.09-.09-.4-.35-.5-.17,1,.65,2.28,1.11,3.33,1.75-.51-.83-1.25-.9-1.75-1.58-.36-.51-.24-1-.5-1.67s-.86-.78-1-1.32c.45,0,.5.33.83.41.37-1.77,2.27.32,3.24-.33a11.21,11.21,0,0,1-1.82-2.07c-1,.11-1.54-.7-1.26-1.33.45-1,2.54.14,1.58,1.16.46.27.61.84,1.17,1,.27-.82-.36-.67-.25-1.32a.81.81,0,1,1,.67,1c-.7,1.32,1.62,2.67,2.31,2.82-.09-.61-.62-.93-.91-1.32-1-1.27,1.17-2.16,1.42-.92.16.8-.44.78-.51,1.25-.14,1.21,1.47,2.19,2.25,2.42-.08-.21-.6-.23-.66-.67a1.67,1.67,0,0,1,.66.07c-.24-.3-.42-1.07,0-1.32-1.18-.73-1.51-2.31-2.25-3.49.81,0,1.29.67,1.92,1a7.78,7.78,0,0,1,2.08,1.09c.88.84,1.08,2.45,2.32,2.82a8,8,0,0,1-1.07-3.49c0-.6-.43-1.22-.25-1.66a5.76,5.76,0,0,1,2.4,3.91c.08.61-.27,1.36-.17,2,.15.89,1.51,1.76,2,2a4,4,0,0,1-1.25-2.74,2.32,2.32,0,0,1,.17-1.49c.08.66.55.85.91,1.16a4.36,4.36,0,0,1,1.42,3.58c.8,1.23,3,1.1,4.31,1.82-.18-.54-.71-.54-1-.67a2.78,2.78,0,0,1-1.09-.66c-.38-.41-.38-1-.75-1.5s-.94-.51-1.15-1c1.09.13,2.16,1,3.57,1.15.88.09,1.72-.24,2.49-.07,1.15.24,1.94,1.55,3.24,1-1.6-.45-2.25-1.88-3.24-2.92-.23-.23-.69-.24-.67-.66a5.76,5.76,0,0,1,4.08,2c.44.53.54,1.2,1,1.82s1.84.73,2.74.68c-1.22-.16-1.7-1-2.31-1.68-.38-.43-1-.82-.85-1.41.35,0,.32.41.58.5a5.33,5.33,0,0,1,2.67.74c.4.29,1,1.51,1.33,1.67a2.9,2.9,0,0,0,1.82,0,11.33,11.33,0,0,1,2.75-.82c-.64-.47-1,0-1.58.08-.88,0-1.32-.44-2.08-.76-.28-.11-.71.07-.83-.33-.3,0-.86.14-.92-.17.13-.23.56-.16.84-.24,0-.9,1-1,1.66-.67.7-.6,1.9-.7,2.57-1.32-.89-.46-2.94.1-3-1.08a.86.86,0,1,1,1.65.32c1.61.76,4,.18,5.9,0-.7-.8-2.86,0-2.82-1.41s2.2-1,1.75.5c1.05.86,3.94,1.55,4.48-.24a7.05,7.05,0,0,1-.67-.84c-2.17.61-1.76-2-.16-1.49.85.24.21,1.56,1,1.91.13-.13.17-.56.41-.33s.11.75.24,1c.61,1,2.41.18,3.25-.08a15.58,15.58,0,0,0,4.65-2.08c.35-.26.57-.67.91-.91.18-.14.58-.22.67-.34.39-.48.05-1.14.25-1.91s1.15-.94,1.16-1.49c-2.32.18-2.12,3.14-3.81,4a7.21,7.21,0,0,1-2.17.67c.53-.5.7-1.28,1.25-1.82s1.82-.64,1.83-1.58c-2,.14-3.17,2.79-5,3a17.06,17.06,0,0,1-3-.26,5.2,5.2,0,0,0,3-1.15c.33-.22,1-.33.67-.67a5.76,5.76,0,0,1-4.49-.5c-.76-.41-1.72-.58-1.83-1.42a18.22,18.22,0,0,1,6.48,1.5,2.91,2.91,0,0,0,2.24-.33c-2,0-2.51-1.95-4.07-2.41-.22-.06-.74.23-.82-.25a8.66,8.66,0,0,1,4.89,1.09c.48.3.76.82,1.17,1,.88.38,2.08-.44,2.41-.91a4.44,4.44,0,0,1-2.41-.18c-.49-.28-.54-1.13-.83-1.65-.18-.32-.55-.28-.5-.67,1.27.59,4.9,3.18,5.57.92-.8-.08-1.61.2-2.25-.08s-.87-1.06-1.49-1.34c-.46-.2-.73.09-1.08-.41a13.47,13.47,0,0,1,4.74.84c0-.14,0-.3.16-.26s.42.56.75.58S95,87.05,95.34,86.7A11.49,11.49,0,0,0,97,85.21a12.25,12.25,0,0,0,.43-1.42c.4-1.07.71-2.06,1.15-3-.86.83-2.13,1-2.89,2-.47.62-.47,1.52-.92,2.17-.86,1.21-2.67,1.29-3.91,1.9,0-.55.6-.65.92-1,.74-.82,1-2.11,1.91-2.75-2.16.32-2.57,2.81-5,3.09a15.59,15.59,0,0,1-2.91,0,31.41,31.41,0,0,0,2.67-2c1.24-1,3.07-.62,4.48-1.59a12.54,12.54,0,0,1-5.23-.9,6.22,6.22,0,0,1,4-.75c1.5.21,2,1.4,3.41,1,.49-.15,1.33-.45,1.4-.84a3.23,3.23,0,0,1-1.16.34c-1,0-3-.67-3-1.25.91.41,1.53-.35,2.24-.5a4.54,4.54,0,0,1,1.16-.08c.56,0,1.23.51,1.91.5,1.3,0,1.91-1.52,2.41-2.41-.51.21-.84.64-1.57.75a13.45,13.45,0,0,0-1.42,0c-.52.12-.72.74-1.16.57.3-.74,1.07-.91,1.58-1.49.35-.4.51-.94,1-1.25,1-.58,1.43,0,2.41-.08s1.39-1.54,1.83-2.49.72-1.74,1-2.49a6,6,0,0,0,0-3.25c-.45.36-.23,1-.5,1.42-.16.25-.56.34-.74.58-.37.5-.28,1.39-1,1.49-.11-.25.25-.45,0-.57-.5,1-2.09,0-1.42-1.17.23-.08.43-.18.67-.25C100.71,69,101,68.39,100.91,68.17ZM71.74,10.51a.63.63,0,0,1-.5.17c-.81-.87-2,0-2.82.58,1.43.73,2.51,1.8,4.91,1.58a1.25,1.25,0,0,1,1-1A8.74,8.74,0,0,1,71.74,10.51Zm2.41,3.08c-.26,0-.42-.34-.76-.42a2.83,2.83,0,0,0-1.31.09c1.75.73,3,2.4,5.3,2.32-.47-.77-.08-2.09-.56-2.58-.24-.22-1.24-.38-1.75-.82C75.47,13.06,74.94,13.64,74.15,13.59Zm-37.64.57c-1-.12-1.43-.73-2.08-1a2.42,2.42,0,0,0-2,.25c-.33.13-.85.19-.91.58a4.12,4.12,0,0,1,1.16-.33,4.55,4.55,0,0,1,3.08,1.16c-.65-.23-1.12.16-1.59.33a4.52,4.52,0,0,1-1.82.33c-.6,0-1.26-.52-2-.49-1.23,0-2.22,2-2.91,2.66-.12.1-.51.23-.34.5.95-.41,1.21-1.32,2.42-1.5a13.24,13.24,0,0,0,1.41,0c.42-.11.78-.75,1.25-.58-.33.76-1.55,1.06-1.67,1.74a24.12,24.12,0,0,1,3.07-.92c1.11-.13,2.57.06,3.09-.49-.27,0-.27-.18-.26-.42.82-.57,1.27-1.49,2.25-1.9A9.35,9.35,0,0,1,36.51,14.16Zm42.54,1.75c1.12-.8-.07-2-1.07-2.15C78.36,14.44,79.07,14.82,79.05,15.91Zm3,.5c1,.77,3.09.51,3.74,1.66a2.87,2.87,0,0,0,.5-.83,3,3,0,0,1-2.74-.92c-.29-.27-.51-.77-.75-.91a10.69,10.69,0,0,0-2-.41C81.34,15.35,82,15.55,82,16.41Zm3-.66c.56,0,.73.42,1.24.5-.11-.42.26-.35.25-.67a17.47,17.47,0,0,0-2.25-.67C84.34,15.35,85.39,15.17,85,15.75Zm2.49,4.57c-.18-.06-.54-.35-.67-.18.76.44,1.3,1.09,2.08,1.5,0-.14.25-.14.33-.25a.72.72,0,0,1-.58-1.07,3.77,3.77,0,0,0-1.49-.67C87.38,19.85,87.72,20,87.53,20.32Zm9.06,8.13a2.77,2.77,0,0,1-.09-.9c-1-.48-1.92-.55-2.41-1.5-.39-.75-.82-1.6-1.66-1.67C93.9,25.66,93.85,28.46,96.59,28.45ZM20,28.79c.28-.7,1.41-.91,1.49-1.74,0-.33-.15-.45-.24-.75s0-.78-.25-1A4,4,0,0,0,20,28.79ZM98.66,30c.42.6.79,1.19,1.09,1.67-.66-.1-.88-.63-1.5-.75.39,1.45,1.11,2.61,1.57,4a17.25,17.25,0,0,1,4.24.74c-.63-1.85-2.19-2.81-3.32-4.15.35.54.07.92.25,1.32.07.18.58.33.66.67a1,1,0,0,1-1.33,1.17c-.73-.36-.29-1.84.42-1.75A6.45,6.45,0,0,0,98,28.38C97.69,29.22,98.33,29.48,98.66,30Zm-.82,7.65c-.18-.79-.19-2.13.41-2.41-.39-.5-.67-1.11-1.08-1.58C97.41,34.87,97.05,37.16,97.84,37.6ZM14.75,34.27c-.26.53.43,1.5.5,2.17.33-.82,1.58-1,1.16-2.33C15.76,34.59,15.05,33.65,14.75,34.27Zm-.84.92a8,8,0,0,0-1.24,3.4c.4-.06.67-.26,1.08-.33A4.64,4.64,0,0,1,13.91,35.19Zm86.41.67c.14,1.51,1.62,1.69,3.41,1.57-.25-.63.19-1,.49-1.33C103,37,101.23,36.32,100.32,35.86ZM12.26,39.68c-.3.91.83,2,.49,3,.18-1.46,2.18-2.67,1.09-4.08C13.32,39,12.43,39.09,12.26,39.68Zm89.48,8.14c1-.18,1.24.42,1.49,1,1.32-.53,1.16-1.82.59-3.15-.77,0-1-.79-.75-1.58a18.39,18.39,0,0,0-1.67-1.5A7.28,7.28,0,0,0,101.74,47.82Zm-89,2.07c.16.12.37-.2.5-.33,1-1.06,2.08-1.91,2.08-3.82-.18-.08-.64-.64-.67-.33C14.93,47.81,13,48,12.75,49.89Zm2.33-.5a3.6,3.6,0,0,1-2.41,3c-.12,1.65.4,2.91.32,4.74,1.26-1,.44-3.24,1-4.74.51-1.31,2-1.78,2.49-3A2.81,2.81,0,0,0,15.08,49.39ZM9.26,51.23a5.91,5.91,0,0,0-.74,3A6.33,6.33,0,0,0,9,56.45c.55-.82,1.72-1,1.52-2.57a6.56,6.56,0,0,0,1.24-2c-.07-.58-1-.61-1.33-1.16A1,1,0,0,1,9.26,51.23Zm96.13,7.31c.5-1,.57-2.38,1.34-3.08a4.54,4.54,0,0,1-1.34-2.4C105,54.9,104.19,57,105.39,58.54ZM9.51,59a11.37,11.37,0,0,0,.5-3.16C9.39,56.66,8.58,57.85,9.51,59Zm96.79.58c.71-.72,1.57-2.13.59-3.16C106.58,57.19,106.58,58.63,106.3,59.53Zm-96.63.26a5,5,0,0,1,1.42,2.49c.33-1.91,1.17-4.05-.08-5.58C10.6,57.76,10.49,59.12,9.67,59.79Zm92.82,3a5,5,0,0,1-1.26,1.65c-.4.41-1.33,1.06-1.16,1.42.26.18.86,0,1.24.08a10.76,10.76,0,0,1,.51-1.57c.47-.75,1.83-1.12,2-1.58a6.91,6.91,0,0,0-.09-2c-.1-.86-.4-1.85-.5-2.66C102.42,59.22,102.93,61.42,102.49,62.78ZM106,60.29c-.08.2.08.79,0,1.07s-.38.23-.5.42a7.55,7.55,0,0,0-.83,1.74c.12.62,1.1.44,1.33,1a1.25,1.25,0,0,1,1.23-.5,6.32,6.32,0,0,0,.26-5.23C107.45,59.32,106.25,59.54,106,60.29Zm-4.75,7.88c-.24.9-.2,1.66.51,1.83-.41-2.51,1.94-2.71,1.74-4.74C103.33,66.13,101.56,67.06,101.23,68.17Zm-89.14-.5c-.09.66.5,1.35.58,2,.82.08.87.72.74,1.58a12.63,12.63,0,0,0,1.51,1.32c0-.52.14-.85.07-1.41.26,0,.17.13.26-.07.46-1.07-.21-2.63-.5-3.58-1,.17-1.28-.45-1.58-1C12.73,67,12.17,67,12.09,67.67Zm90.4,9.06c.74-.43,1.68-.67,1.73-1.5,0-.44-.42-.85-.49-1.42s.14-.78,0-1.32C103.53,74.05,101.7,75,102.49,76.73Zm-85.09.92c-.15.43-.91.81-.91,1.16,0,.78,1.12.94,1.75,1.41s.51,1,1,1.41c-.35-1.34.13-2.56-.25-3.65-.28-.81-1.63-1.7-1.58-2.67C17.38,76.35,17.68,76.88,17.4,77.65ZM102.49,80c0,.3.4-.23.41-.25a26.41,26.41,0,0,0,.92-3c-.53,0-.77.23-1.16.33C102.87,78,103.11,79.33,102.49,80Zm-90.32-.83c.48,2.22,2.29,3.09,3.4,4.65.28-1.09-1.73-2.76-.24-3.15a.91.91,0,0,1,1,.33,16.37,16.37,0,0,0-1-2.49c-.85-.09-1.78-.1-2.58-.26C12.82,78.8,12.41,78.89,12.17,79.14ZM100,81.21c.54-.33,1.1,0,1.5,0,.35-.66-.16-1.65-.26-2.4C100.85,79.64,99.75,79.75,100,81.21ZM15.74,82.62A4.34,4.34,0,0,0,16,83.87,7.62,7.62,0,0,0,18.48,87c.25-1-.43-1.29-1-1.67,0-.71-.45-1-.82-1.57.2-.16.45.15.66.25a9.29,9.29,0,0,0-.91-3C16.85,81.94,15.85,82.13,15.74,82.62Zm7,0c0,.43.31.41.24.84.74,0,.75.52,1.51.25C24,83.15,23.8,82.38,22.72,82.62Zm-1,3.91c0,.4.5.85.64,1.09a11.31,11.31,0,0,0,1.92,2.56,21.66,21.66,0,0,0-.91-2.07c1.24.89,2.8,1.46,2.82,3.58.73.08,1.38.57.83,1.24,1.54.65,2.78,2,4.49,2.24-.7-1.33-2.4-1.69-3.24-2.9-.43-.63-.43-1.41-.92-2.16-.67.83-1.58,0-1.58-.59,0-1.33,2.29-1,2.5.09a3.46,3.46,0,0,0-.41-1.25c-.39-.76-1.14-1.9-2.26-1.74-.3,0-.44.4-.74.41a1,1,0,0,1-.9-.41c-.55-1.33,1.73-1.72,1.73-.41.52-.06.78.5,1.17.32-.61-1.1-1.14-2.56-2.74-2.41a1,1,0,0,1-1.42.84C22.28,85.49,21.69,85.84,21.74,86.53ZM20.65,88a6.2,6.2,0,0,1,1.49.91c.66.76.77,2.12,1.84,2-.81-.61-1.07-1.76-1.6-2.66,0-.08-.63-.9-.64-.91-.75-.58-1.93-.18-2.76-.83C18.73,87.6,19.91,87.61,20.65,88ZM95,88c-.21.73.45,1.42.33,2.16a4.29,4.29,0,0,0,1.16-3.65C96.35,87.17,95.21,87.26,95,88ZM32.28,94.76A17.24,17.24,0,0,1,31.86,90C29.88,91,31.15,93.73,32.28,94.76Zm6.65,2.58c.18.49-.74.66-.34.82.83.43,1.28.51,1.58,1.33.4,1.11-.11,2.1,1.09,2.42a24.24,24.24,0,0,0,2.57.5c.47,0,.91-.13,1.24-.08s.57.33.92.32a4.58,4.58,0,0,0,1.91-.91c-1.54-.66-2.4-2-5-1.58a.9.9,0,0,1-1.73.33c-.41-1.92,2.11-.41,3.16-.83C42.41,99,41.47,97.36,38.93,97.34Zm7.47,2.07a10.44,10.44,0,0,1,2.74.58C48.77,99.16,46.34,97.73,46.4,99.41Zm30.66.5c0-.79,1.77-.85,1.49-1.33-1.67,0-3.54.24-3.82,1.5-.08.37.39.73,0,1.16C75.62,100.91,76.18,100.24,77.06,99.91Zm-5.06.67c.67.27,1.17,1.57,2.15,1a1,1,0,0,1-1-.84c0-.92,1.81-1,2-1.82C73.74,99.07,71.93,99.24,72,100.58Zm-36.73.83c1.6-.12,2.45,1.21,4,.41C38.23,101.35,36.39,100.58,35.27,101.41Zm16.62,1.16c-.79-.41-1.59-1.24-2.91-.83C50.07,102,51,104.1,51.89,102.57Zm-11.72.25c.26.47.73.26,1.24.33a5,5,0,0,1,1.67.58c.52.33,1.15,1.49,1.5,1.66,1.12.55,2.39-.44,3.49-.74.39-.11.72.2.91-.34-1.15.18-2.76.55-3.34-.41-.59.3-.82-.15-1.15-.24s-.65.18-.83-.18c.07-.27.53-.12.58-.41C43,102.86,41.17,101.7,40.17,102.82Zm-.83.41c.7.47.6,1.44,1.16,1.91a4.3,4.3,0,0,0,2.67.51c-1.7-.33-2.5-1.57-3.34-2.75C39.74,103.08,39.48,103.09,39.34,103.23Zm18.95.25c.13.81,1.62,1,2.73.75.5-.11,1.08-.59,1.58-.75s.57,0,.76-.25C61.72,102.72,59.87,103.68,58.29,103.48Zm-.09,2.17a4.42,4.42,0,0,1-1.75,1.07c.18,0,0,.3.09.42,2.2.71,3.24-.71,4.74-1.49a7.07,7.07,0,0,0-1.41-.09C59.76,106.55,58.55,106,58.2,105.65Z"/><path class="b1b2f890-45c8-4b8a-88cf-4a7393aa723b" d="M13.81,123.75a4.57,4.57,0,0,1-1.44-3.54A4.69,4.69,0,0,1,13.7,117a4.77,4.77,0,0,1,3.63-1.27,9.17,9.17,0,0,1,1.72.15c.45.07.84.14,1.21.16.13,0,.16.08.16.13s0,.24-.06.68,0,1,0,1.23,0,.24-.11.24-.08-.08-.08-.24a1.67,1.67,0,0,0-.51-1.22,4,4,0,0,0-2.38-.69,3.64,3.64,0,0,0-2.73.87,4,4,0,0,0-1.08,3.11,4.29,4.29,0,0,0,4.3,4.35,2.72,2.72,0,0,0,2.07-.58,2.52,2.52,0,0,0,.45-1c0-.13,0-.17.11-.17s.08.08.08.17a10.59,10.59,0,0,1-.27,1.53c-.06.23-.08.25-.3.34a6.57,6.57,0,0,1-2.14.28A5.51,5.51,0,0,1,13.81,123.75Z"/><path class="b1b2f890-45c8-4b8a-88cf-4a7393aa723b" d="M24.62,117.41c.13-.33.17-.4.24-.4s.15.15.25.38c.2.43,1.87,4.6,2.52,6.14.39.9.66,1,.88,1.11a1.78,1.78,0,0,0,.43,0c.06,0,.13,0,.13.09s-.12.08-.25.08-.93,0-1.64,0c-.22,0-.37,0-.37-.07s0-.06.07-.08.16-.11.08-.28L26,122.1s0,0-.09,0H23.52a.09.09,0,0,0-.1.07l-.6,1.63a1.91,1.91,0,0,0-.15.66c0,.21.18.28.34.28h.11c.09,0,.11,0,.11.09s-.06.08-.16.08-.82,0-.94,0-.63,0-1.06,0c-.13,0-.2,0-.2-.08a.1.1,0,0,1,.09-.09l.32,0c.47-.06.67-.41.87-.92Zm1.17,4.21s0,0,0-.07l-1-2.77c-.07-.16-.13-.16-.19,0l-1,2.77s0,.07,0,.07Z"/><path class="b1b2f890-45c8-4b8a-88cf-4a7393aa723b" d="M30.44,120.14c0-1.57,0-1.86,0-2.18s-.07-.51-.42-.56l-.36,0a.11.11,0,0,1-.09-.09c0-.06.05-.07.17-.07h1.19c.2,0,2.47,0,2.71,0a2.51,2.51,0,0,0,.48,0c.06,0,.1-.07.15-.07s.06,0,.06.1,0,.19-.08.48c0,.09,0,.55,0,.66s0,.11-.09.11-.08,0-.08-.13a1.14,1.14,0,0,0-.1-.37.8.8,0,0,0-.71-.29l-1.72,0c-.06,0-.09,0-.09.1v2.77s0,.09.08.09h1.44a3.54,3.54,0,0,0,.47,0c.24,0,.39,0,.48-.17s.09-.1.13-.1.06,0,.06.07a3.4,3.4,0,0,0-.1.56c0,.2,0,.61,0,.68s0,.2-.09.2-.07,0-.07-.09a1.76,1.76,0,0,0-.08-.37c0-.15-.21-.28-.53-.31s-1.51,0-1.68,0-.08,0-.08.1v.82c0,1,0,1.78.05,2.19s.1.48.39.53l.47,0a.08.08,0,0,1,.08.09s0,.08-.16.08c-.59,0-1.26,0-1.31,0s-.72,0-1,0c-.11,0-.15,0-.15-.08s0-.09.06-.09a3.31,3.31,0,0,0,.33,0c.2,0,.24-.24.28-.53s.05-1.22.05-2.19Z"/><path class="b1b2f890-45c8-4b8a-88cf-4a7393aa723b" d="M36.81,120.14c0-1.57,0-1.86,0-2.18s-.09-.51-.42-.56l-.37,0a.11.11,0,0,1-.08-.09c0-.06,0-.07.16-.07H37.3c.06,0,2.26,0,2.5,0a2.88,2.88,0,0,0,.47-.06c.06,0,.1,0,.15,0s0,0,0,.1-.05.19-.08.48c0,.09,0,.55-.05.66s-.06.11-.1.11-.09,0-.09-.13a1.55,1.55,0,0,0-.06-.37c-.07-.15-.18-.22-.75-.29-.17,0-1.39,0-1.5,0s-.06,0-.06.11v2.74c0,.08,0,.11.06.11s1.5,0,1.74,0,.41,0,.51-.13.12-.13.16-.13.06,0,.06.07-.06.23-.09.56,0,.59,0,.66,0,.19-.11.19-.06,0-.06-.1a1.05,1.05,0,0,0,0-.33c0-.15-.14-.26-.54-.31s-1.41,0-1.58,0-.07,0-.07.07v.85c0,.34,0,1.51,0,1.71,0,.68.22.81,1.24.81a3.74,3.74,0,0,0,1.05-.1.79.79,0,0,0,.47-.71c0-.11.06-.15.11-.15s.07.08.07.15a6.53,6.53,0,0,1-.14,1c-.07.27-.17.27-.59.27-.78,0-1.39,0-1.8,0l-.88,0s-.23,0-.46,0l-.6,0c-.1,0-.17,0-.17-.08a.09.09,0,0,1,.09-.09,2.91,2.91,0,0,0,.31,0c.22,0,.23-.24.28-.53a20.69,20.69,0,0,0,.06-2.19Zm3.25-4.52c0,.1,0,.13-.05.13a1.78,1.78,0,0,0-.35,0,8.38,8.38,0,0,0-1.81.5.64.64,0,0,1-.19.07s0,0,0-.08,0,0,.08-.1c.43-.29,1.53-1,1.62-1s.27-.15.33-.15.07,0,.12.1S39.93,115.38,40.06,115.62Z"/><path class="b1b2f890-45c8-4b8a-88cf-4a7393aa723b" d="M47.24,120.14c0-1.57,0-1.86,0-2.18s-.09-.51-.42-.56l-.37,0a.1.1,0,0,1-.08-.09c0-.06,0-.07.17-.07h2.61c1.05,0,3-.11,4.2,1.14a3.53,3.53,0,0,1,1,2.58,4,4,0,0,1-1.14,2.84A4.13,4.13,0,0,1,50,125c-.45,0-1,0-1.46-.06s-.81-.07-.86-.07l-.43,0-.62,0c-.11,0-.18,0-.18-.08a.09.09,0,0,1,.08-.09,1.66,1.66,0,0,0,.33,0c.2-.05.22-.24.28-.53a20.69,20.69,0,0,0,.06-2.19Zm.94,1.09c0,1.07,0,2,0,2.2a1.8,1.8,0,0,0,.13.73c.12.19.49.4,1.73.4a3.46,3.46,0,0,0,2.46-.92,3.38,3.38,0,0,0,.81-2.4,3.48,3.48,0,0,0-1-2.53A4.35,4.35,0,0,0,49,117.59a2.68,2.68,0,0,0-.63.06c-.1,0-.14.08-.14.19Z"/><path class="b1b2f890-45c8-4b8a-88cf-4a7393aa723b" d="M56.85,120.14c0-1.57,0-1.86,0-2.18s-.09-.51-.43-.56l-.36,0a.1.1,0,0,1-.08-.09c0-.06,0-.07.17-.07h1.2c.08,0,2.26,0,2.51,0a3.05,3.05,0,0,0,.47-.06s.09,0,.14,0,0,0,0,.1a4.25,4.25,0,0,0-.08.48c0,.09,0,.55-.06.66s0,.11-.1.11-.08,0-.08-.13a1.16,1.16,0,0,0-.06-.37c-.07-.15-.17-.22-.76-.29-.17,0-1.38,0-1.5,0s-.07,0-.07.11v2.74c0,.08,0,.11.07.11s1.5,0,1.75,0,.4,0,.51-.13.12-.13.15-.13.06,0,.06.07a5.06,5.06,0,0,0-.08.56c0,.2,0,.59,0,.66s0,.19-.1.19-.08,0-.08-.1a1.39,1.39,0,0,0,0-.33c0-.15-.14-.26-.55-.31s-1.4,0-1.58,0-.08,0-.08.07v.85c0,.34,0,1.51,0,1.71,0,.68.23.81,1.26.81a3.67,3.67,0,0,0,1-.1.78.78,0,0,0,.48-.71c0-.11.05-.15.11-.15s.07.08.07.15a8.49,8.49,0,0,1-.15,1c-.06.27-.17.27-.57.27-.79,0-1.4,0-1.83,0s-.71,0-.87,0-.23,0-.45,0l-.6,0c-.12,0-.17,0-.17-.08a.08.08,0,0,1,.09-.09c.09,0,.22,0,.32,0s.22-.24.26-.53a20.69,20.69,0,0,0,.06-2.19Z"/><path class="b1b2f890-45c8-4b8a-88cf-4a7393aa723b" d="M67.55,119.32c0-1.86,0-2.2,0-2.57s-.12-.61-.51-.68a2.59,2.59,0,0,0-.41,0s-.09,0-.09-.07.06-.1.19-.1c.28,0,.59,0,.85,0l.49,0c.25,0,2.65,0,2.93,0a2.39,2.39,0,0,0,.52,0c.07,0,.13-.08.17-.08s.07,0,.07.11-.06.22-.09.56c0,.12,0,.64-.06.78s0,.12-.11.12-.07,0-.07-.12a1.42,1.42,0,0,0-.11-.47.89.89,0,0,0-.81-.37l-1.83,0c-.07,0-.1,0-.1.13v3.28c0,.07,0,.11.07.11l1.53,0h.53c.29,0,.45-.06.55-.22s.08-.11.13-.11.07,0,.07.09-.07.28-.1.67-.06.71-.06.79,0,.23-.08.23a.09.09,0,0,1-.08-.1,1.82,1.82,0,0,0-.07-.44.72.72,0,0,0-.62-.43c-.29,0-1.59,0-1.8,0,0,0-.07,0-.07.11v1c0,1.14,0,2.07.06,2.57s.1.61.45.66l.55,0a.07.07,0,0,1,.08.08s0,.09-.18.09c-.66,0-1.4,0-1.47,0s-.81,0-1.17,0c-.12,0-.19,0-.19-.09a.09.09,0,0,1,.09-.08,2,2,0,0,0,.36,0c.25-.05.31-.31.35-.66s.06-1.43.06-2.57Z"/><path class="b1b2f890-45c8-4b8a-88cf-4a7393aa723b" d="M75.27,121.94c0,1.49,0,2.1.22,2.28s.57.23,1.39.23c.54,0,1,0,1.26-.3a1.21,1.21,0,0,0,.25-.58c0-.06,0-.13.11-.13s.07,0,.07.16a5.92,5.92,0,0,1-.16,1c-.07.23-.1.28-.66.28-.75,0-1.33,0-1.82,0l-1.15,0s-.22,0-.43,0l-.61,0c-.09,0-.15,0-.15-.08s0-.09.08-.09a1.65,1.65,0,0,0,.31,0c.21-.05.24-.24.29-.53s0-1.22,0-2.19v-1.79c0-1.57,0-1.86,0-2.18s-.08-.51-.43-.56l-.35,0a.11.11,0,0,1-.09-.09c0-.06,0-.07.16-.07h2.35c.1,0,.17,0,.17.07s0,.07-.1.07l-.34,0c-.3.06-.36.21-.39.57s0,.61,0,2.18Z"/><path class="b1b2f890-45c8-4b8a-88cf-4a7393aa723b" d="M80.69,120.14c0-1.57,0-1.86,0-2.18s-.09-.51-.42-.56l-.37,0s-.07,0-.07-.09,0-.07.16-.07h1.21c.07,0,2.27,0,2.5,0a2.58,2.58,0,0,0,.47-.06c.06,0,.11,0,.15,0s0,0,0,.1a4.25,4.25,0,0,0-.08.48c0,.09,0,.55-.06.66s-.06.11-.09.11-.09,0-.09-.13A1.16,1.16,0,0,0,84,118c-.07-.15-.18-.22-.76-.29-.17,0-1.39,0-1.5,0s-.06,0-.06.11v2.74c0,.08,0,.11.06.11s1.5,0,1.74,0,.41,0,.52-.13.12-.13.15-.13,0,0,0,.07,0,.23-.07.56,0,.59,0,.66,0,.19-.1.19-.06,0-.06-.1a.85.85,0,0,0,0-.33c0-.15-.13-.26-.53-.31s-1.41,0-1.59,0a.06.06,0,0,0-.07.07v.85c0,.34,0,1.51,0,1.71,0,.68.21.81,1.25.81a3.67,3.67,0,0,0,1-.1.78.78,0,0,0,.48-.71c0-.11,0-.15.1-.15s.08.08.08.15-.09.77-.14,1-.19.27-.58.27c-.79,0-1.41,0-1.83,0s-.71,0-.87,0-.22,0-.44,0l-.61,0c-.11,0-.18,0-.18-.08a.1.1,0,0,1,.09-.09,3.11,3.11,0,0,0,.32,0c.2,0,.22-.24.28-.53a20.69,20.69,0,0,0,.06-2.19Z"/><path class="b1b2f890-45c8-4b8a-88cf-4a7393aa723b" d="M86.7,120.14c0-1.57,0-1.86,0-2.18s-.08-.51-.42-.56l-.37,0a.12.12,0,0,1-.08-.09c0-.06.06-.07.17-.07h2.27c.11,0,.17,0,.17.07a.11.11,0,0,1-.09.09,1.53,1.53,0,0,0-.27,0c-.27,0-.33.22-.36.56s0,.61,0,2.18v1.41c0,1.46.32,2.07.78,2.48a2.05,2.05,0,0,0,1.56.55,2.16,2.16,0,0,0,1.62-.72,3.75,3.75,0,0,0,.59-2.44v-1.28c0-1.57,0-1.86,0-2.18s-.07-.51-.41-.56l-.37,0a.11.11,0,0,1-.08-.09c0-.06,0-.07.17-.07h2c.12,0,.18,0,.18.07a.1.1,0,0,1-.08.09,1.42,1.42,0,0,0-.27,0c-.29.06-.35.22-.37.56s0,.61,0,2.18v1.07a4,4,0,0,1-1,3.05,3.69,3.69,0,0,1-4.38,0,3.29,3.29,0,0,1-.92-2.66Z"/><path class="b1b2f890-45c8-4b8a-88cf-4a7393aa723b" d="M96,120.14c0-1.57,0-1.86,0-2.18s-.09-.51-.43-.56l-.36,0a.12.12,0,0,1-.09-.09c0-.06.06-.07.17-.07h2.55a3.44,3.44,0,0,1,2,.43,1.77,1.77,0,0,1,.71,1.38,3,3,0,0,1-1.27,2.31,33.84,33.84,0,0,0,2.19,2.61,1.89,1.89,0,0,0,1.16.71,2.27,2.27,0,0,0,.37,0,.1.1,0,0,1,.09.09c0,.06-.06.08-.24.08h-.66a2.2,2.2,0,0,1-1.13-.2,5.85,5.85,0,0,1-1.42-1.49c-.44-.55-.91-1.2-1.13-1.48a.17.17,0,0,0-.14,0l-1.33,0a.07.07,0,0,0-.07.08v.24c0,1,0,1.76,0,2.19s.08.48.41.53l.46,0c.08,0,.09,0,.09.09s-.05.08-.17.08c-.57,0-1.24,0-1.29,0s-.71,0-1,0c-.1,0-.17,0-.17-.08a.09.09,0,0,1,.09-.09l.32,0c.2-.05.22-.24.27-.53a17.75,17.75,0,0,0,.07-2.19Zm.9.85a.17.17,0,0,0,.07.13,3.27,3.27,0,0,0,1.15.16,1.32,1.32,0,0,0,.78-.18,1.81,1.81,0,0,0,.63-1.55,1.74,1.74,0,0,0-1.81-2,5.1,5.1,0,0,0-.73.05.14.14,0,0,0-.09.13Z"/><rect class="bbb27e62-b08b-4457-b57a-7244f24f052b" width="114" height="126"/></svg>