<svg width="224" height="183" viewBox="0 0 224 183" fill="none" xmlns="http://www.w3.org/2000/svg">
<path fill-rule="evenodd" clip-rule="evenodd" d="M94.111 21.1012C111.15 0.567139 153.873 -1.56071 175.138 30.6841C176.05 32.0673 177.911 32.4491 179.294 31.5369C180.677 30.6248 181.059 28.764 180.147 27.3809C156.705 -8.16498 109.152 -6.42126 89.4936 17.2698C88.4356 18.5448 88.6115 20.4361 89.8866 21.4942C91.1616 22.5522 93.0529 22.3763 94.111 21.1012ZM65.7751 24.6259C34.7166 20.8529 17.6329 40.2619 17.6329 56.2724C17.6329 57.9292 16.2898 59.2724 14.6329 59.2724C12.9761 59.2724 11.6329 57.9292 11.6329 56.2724C11.6329 35.9271 32.6362 14.5561 66.4987 18.6697C68.1434 18.8695 69.3148 20.3648 69.115 22.0095C68.9152 23.6543 67.4199 24.8257 65.7751 24.6259ZM201.324 129.709C204.072 124.882 205.484 120.242 205.45 116.398C205.436 114.741 206.767 113.386 208.424 113.372C210.081 113.357 211.436 114.689 211.45 116.346C211.496 121.59 209.61 127.281 206.538 132.677C203.447 138.106 199.05 143.424 193.804 147.958C183.377 156.972 169.123 163.26 154.642 160.434C153.016 160.116 151.955 158.541 152.273 156.914C152.59 155.288 154.165 154.227 155.792 154.545C167.842 156.897 180.285 151.714 189.881 143.419C194.647 139.299 198.594 134.503 201.324 129.709ZM11.8687 110.618C7.71413 105.611 5.79164 99.9883 6.01798 94.8378C6.24218 89.736 8.5744 84.9069 13.3198 81.3043C14.6395 80.3025 14.8971 78.4205 13.8953 77.1009C12.8935 75.7812 11.0115 75.5236 9.69186 76.5254C3.52919 81.2039 0.326476 87.6861 0.0237641 94.5744C-0.27681 101.414 2.2818 108.46 7.25119 114.45C8.30916 115.725 10.2005 115.901 11.4756 114.843C12.7507 113.785 12.9267 111.893 11.8687 110.618ZM215.185 61.7707C211.973 52.2841 204.797 45.08 193.367 41.3143C191.793 40.7958 190.938 39.0998 191.456 37.5262C191.975 35.9525 193.671 35.0971 195.245 35.6156C208.296 39.9157 216.996 48.4111 220.868 59.8464C224.699 71.1615 223.68 84.9719 218.189 99.8574C217.615 101.412 215.89 102.207 214.336 101.634C212.781 101.06 211.986 99.3352 212.56 97.7807C217.75 83.7113 218.438 71.3775 215.185 61.7707ZM52.11 157.845C65.8621 162.73 82.1402 162.039 95.8789 157.251C97.4435 156.706 99.1538 157.532 99.699 159.097C100.244 160.661 99.4179 162.372 97.8533 162.917C83.0268 168.084 65.3297 168.908 50.1017 163.499C34.7437 158.043 21.9521 146.242 17.4076 126.506C17.0358 124.892 18.0434 123.281 19.658 122.91C21.2726 122.538 22.8828 123.545 23.2546 125.16C27.2945 142.705 38.4878 153.006 52.11 157.845ZM121.777 159.546C121.24 157.979 119.534 157.144 117.966 157.681C116.399 158.218 115.564 159.924 116.101 161.492C116.707 163.259 117.423 165.92 117.852 168.77C118.287 171.656 118.393 174.51 117.941 176.767C117.725 177.844 117.989 178.798 118.292 179.455C118.605 180.132 119.059 180.719 119.563 181.18C120.057 181.63 120.736 182.085 121.574 182.314C122.446 182.554 123.647 182.574 124.767 181.846C128.035 179.724 131.748 176.748 134.49 173.153C137.226 169.567 139.239 165.028 138.339 159.991C138.048 158.36 136.49 157.274 134.859 157.566C133.227 157.857 132.141 159.415 132.433 161.046C132.923 163.792 131.908 166.646 129.72 169.513C128.203 171.502 126.238 173.335 124.195 174.908C124.322 172.54 124.121 170.101 123.785 167.876C123.298 164.643 122.492 161.63 121.777 159.546Z" fill="url(#paint0_linear_1_58)"/>
<defs>
<linearGradient id="paint0_linear_1_58" x1="111.581" y1="0" x2="111.581" y2="182.463" gradientUnits="userSpaceOnUse">
<stop stop-color="#965393"/>
<stop offset="1" stop-color="#EDCBEC"/>
</linearGradient>
</defs>
</svg>
