<?xml version="1.0" encoding="UTF-8" standalone="no"?>
<!DOCTYPE svg PUBLIC "-//W3C//DTD SVG 1.1//EN" "http://www.w3.org/Graphics/SVG/1.1/DTD/svg11.dtd">
<svg xmlns="http://www.w3.org/2000/svg" version="1.1" viewBox="0.00 0.00 331.00 137.00">
<g stroke-width="2.00" fill="none" stroke-linecap="butt">
<path stroke="#b28cb1" vector-effect="non-scaling-stroke" d="
  M 41.78 72.72
  L 43.61 73.57"
/>
<path stroke="#f1e8ef" vector-effect="non-scaling-stroke" d="
  M 43.61 73.57
  L 6.56 90.29
  A 0.55 0.55 0.0 0 0 6.48 91.24
  L 25.53 104.31
  A 1.26 1.26 0.0 0 1 26.07 105.56
  L 22.41 129.07
  Q 22.31 129.68 22.89 129.47
  C 24.76 128.78 26.86 127.31 28.19 126.71
  Q 45.45 118.97 62.61 110.99
  C 70.02 107.54 71.92 103.27 69.46 95.50
  Q 64.73 80.55 59.79 65.53
  A 0.68 0.68 0.0 0 0 58.57 65.39
  Q 58.18 66.03 57.64 65.86"
/>
<path stroke="#b28cb1" vector-effect="non-scaling-stroke" d="
  M 57.64 65.86
  C 60.47 61.48 58.76 56.26 53.74 55.66
  C 49.61 55.17 41.38 60.32 38.14 58.07"
/>
<path stroke="#f1e8ef" vector-effect="non-scaling-stroke" d="
  M 38.14 58.07
  Q 43.50 57.24 48.51 55.49
  C 52.03 54.27 54.97 53.84 57.55 56.44
  Q 60.17 59.07 61.52 63.37
  Q 64.93 74.26 68.22 84.84
  A 0.69 0.69 0.0 0 0 69.08 85.30
  C 109.61 73.03 151.38 64.14 193.73 61.66
  C 234.28 59.28 274.52 61.32 314.57 67.92
  A 0.49 0.49 0.0 0 0 315.09 67.23
  L 305.50 46.61
  A 0.75 0.75 0.0 0 1 305.64 45.77
  L 321.69 28.98
  A 0.33 0.32 -62.9 0 0 321.52 28.44
  C 278.38 20.00 233.49 20.18 190.50 22.35
  C 153.35 24.22 116.80 30.69 80.50 39.91
  Q 60.36 45.03 40.06 53.42
  Q 38.81 53.93 37.91 54.89
  Q 36.27 56.62 37.86 57.72"
/>
<path stroke="#b28cb1" vector-effect="non-scaling-stroke" d="
  M 37.86 57.72
  Q 36.78 58.34 36.58 58.29"
/>
<path stroke="#c1a4c1" vector-effect="non-scaling-stroke" d="
  M 38.14 58.07
  Q 38.30 57.80 37.86 57.72"
/>
<path stroke="#c1a4c1" vector-effect="non-scaling-stroke" d="
  M 57.64 65.86
  Q 54.12 69.61 48.61 71.33
  Q 45.81 72.20 43.61 73.57"
/>
<path stroke="#c1a4c1" vector-effect="non-scaling-stroke" d="
  M 240.5955 36.7270
  A 1.82 0.91 108.4 0 0 242.0335 35.2872
  A 1.82 0.91 108.4 0 0 241.7445 33.2730
  A 1.82 0.91 108.4 0 0 240.3065 34.7128
  A 1.82 0.91 108.4 0 0 240.5955 36.7270"
/>
<path stroke="#c1a4c1" vector-effect="non-scaling-stroke" d="
  M 144.73 57.39
  A 0.95 0.95 0.0 0 1 143.34 56.48
  L 144.61 38.62
  A 0.70 0.69 89.3 0 0 143.85 37.87
  L 143.60 37.90
  A 0.56 0.55 -1.3 0 0 143.10 38.41
  Q 142.37 47.07 141.83 55.24
  Q 141.71 56.98 142.46 58.06
  A 2.13 2.12 62.2 0 0 144.96 58.84
  Q 147.39 57.91 148.69 55.67
  Q 149.03 55.09 148.45 54.76
  L 148.18 54.60
  A 0.47 0.47 0.0 0 0 147.54 54.76
  Q 146.52 56.48 144.73 57.39"
/>
<path stroke="#c1a4c1" vector-effect="non-scaling-stroke" d="
  M 226.62 39.57
  L 228.29 40.44
  Q 228.74 40.68 228.99 40.23
  Q 229.21 39.84 229.01 39.46
  C 228.17 37.81 226.19 37.67 224.65 38.55
  Q 220.18 41.08 220.06 46.23
  C 219.92 51.90 226.74 51.48 226.30 48.61
  A 0.60 0.59 -17.2 0 0 225.45 48.17
  L 224.15 48.81
  A 1.76 1.76 0.0 0 1 221.62 47.42
  Q 221.06 42.17 225.64 39.59
  Q 226.13 39.31 226.62 39.57"
/>
<path stroke="#c1a4c1" vector-effect="non-scaling-stroke" d="
  M 248.70 48.98
  A 1.63 1.63 0.0 0 1 246.73 47.36
  C 246.78 44.40 248.88 37.53 252.94 40.11
  A 0.73 0.73 0.0 0 0 254.04 39.30
  Q 253.74 38.19 252.24 38.05
  C 244.30 37.33 242.49 53.55 250.19 50.23
  Q 250.97 49.89 250.97 49.24
  Q 250.97 48.51 250.26 48.66
  L 248.70 48.98"
/>
<path stroke="#c1a4c1" vector-effect="non-scaling-stroke" d="
  M 255.15 38.43
  C 253.87 42.38 251.18 54.74 247.41 55.68
  Q 244.59 56.39 244.32 53.17
  Q 244.28 52.71 243.83 52.82
  L 243.10 53.01
  A 0.83 0.83 0.0 0 0 242.63 54.30
  Q 245.98 58.91 249.83 56.12
  C 252.71 54.04 254.71 45.13 256.53 39.07
  A 0.69 0.69 0.0 0 0 256.21 38.27
  L 255.93 38.12
  Q 255.36 37.80 255.15 38.43"
/>
<path stroke="#c1a4c1" vector-effect="non-scaling-stroke" d="
  M 211.2365 39.2647
  A 0.75 0.75 0.0 0 0 210.6886 38.3565
  L 210.5915 38.3325
  A 0.75 0.75 0.0 0 0 209.6833 38.8804
  L 204.8835 58.2753
  A 0.75 0.75 0.0 0 0 205.4314 59.1835
  L 205.5285 59.2075
  A 0.75 0.75 0.0 0 0 206.4367 58.6596
  L 211.2365 39.2647"
/>
<path stroke="#c1a4c1" vector-effect="non-scaling-stroke" d="
  M 215.92 40.58
  C 217.58 43.75 214.93 51.21 210.15 49.05
  A 0.38 0.37 21.4 0 0 209.65 49.26
  L 209.54 49.59
  Q 209.33 50.18 209.89 50.45
  C 216.74 53.76 221.37 39.26 215.01 38.25
  Q 213.13 37.96 211.93 39.67
  A 0.63 0.63 0.0 0 0 211.99 40.48
  L 212.24 40.73
  A 0.40 0.40 0.0 0 0 212.81 40.74
  Q 214.91 38.66 215.92 40.58"
/>
<path stroke="#c1a4c1" vector-effect="non-scaling-stroke" d="
  M 228.70 48.63
  L 231.87 39.02
  A 0.41 0.40 -66.0 0 0 231.70 38.56
  L 231.48 38.42
  Q 230.67 37.92 230.34 38.80
  C 229.22 41.72 227.11 46.23 227.23 49.28
  A 1.88 1.87 87.3 0 0 229.21 51.09
  Q 231.99 50.92 233.90 48.88
  A 0.53 0.53 0.0 0 0 233.89 48.13
  L 233.64 47.88
  A 0.69 0.68 44.1 0 0 232.68 47.89
  Q 231.34 49.26 229.40 49.48
  A 0.66 0.65 -84.5 0 1 228.70 48.63"
/>
<path stroke="#c1a4c1" vector-effect="non-scaling-stroke" d="
  M 238.47 49.99
  A 0.87 0.86 -0.2 0 1 237.38 48.91
  L 240.31 39.38
  A 0.35 0.35 0.0 0 0 240.07 38.94
  L 239.78 38.86
  Q 239.11 38.67 238.85 39.31
  Q 237.25 43.25 236.13 47.55
  C 234.66 53.20 240.35 51.79 242.62 49.49
  Q 243.11 49.00 242.71 48.43
  L 242.51 48.15
  A 0.44 0.43 -38.4 0 0 241.86 48.08
  Q 240.36 49.39 238.47 49.99"
/>
<path stroke="#c1a4c1" vector-effect="non-scaling-stroke" d="
  M 262.1608 40.3164
  A 0.77 0.77 0.0 0 0 261.6920 39.3335
  L 261.6543 39.3202
  A 0.77 0.77 0.0 0 0 260.6714 39.7890
  L 256.7992 50.7236
  A 0.77 0.77 0.0 0 0 257.2680 51.7065
  L 257.3057 51.7198
  A 0.77 0.77 0.0 0 0 258.2886 51.2510
  L 262.1608 40.3164"
/>
<path stroke="#c1a4c1" vector-effect="non-scaling-stroke" d="
  M 192.68 41.40
  A 1.05 1.05 0.0 0 1 193.94 42.77
  C 192.95 45.55 191.45 49.10 192.23 51.87
  Q 192.37 52.36 192.86 52.46
  Q 193.04 52.49 193.19 52.41
  Q 193.57 52.20 193.58 51.76
  Q 193.58 48.22 195.25 43.77
  Q 195.78 42.34 195.06 40.50
  Q 194.88 40.03 194.42 39.82
  C 193.32 39.30 190.69 39.53 190.74 41.37
  Q 190.76 41.92 191.30 41.78
  L 192.68 41.40"
/>
<path stroke="#c1a4c1" vector-effect="non-scaling-stroke" d="
  M 200.11 50.59
  Q 198.69 50.37 199.23 49.04
  C 200.21 46.65 201.29 43.44 201.00 40.87
  Q 200.94 40.36 200.50 40.10
  Q 198.21 38.74 196.77 39.96
  Q 194.49 41.90 197.48 41.71
  Q 197.65 41.70 198.51 41.29
  A 0.74 0.74 0.0 0 1 199.56 42.06
  C 199.16 44.78 197.30 48.26 197.67 50.71
  A 2.13 2.12 79.1 0 0 200.24 52.46
  Q 202.85 51.86 204.64 49.79
  A 0.51 0.50 -50.5 0 0 204.58 49.07
  L 204.27 48.82
  A 0.47 0.46 -49.1 0 0 203.63 48.87
  Q 201.83 50.85 200.11 50.59"
/>
<path stroke="#c1a4c1" vector-effect="non-scaling-stroke" d="
  M 264.86 41.19
  A 1.18 1.18 0.0 0 1 266.39 42.70
  L 263.83 49.60
  A 2.10 2.10 0.0 0 0 265.56 52.41
  Q 268.84 52.79 270.98 50.33
  Q 271.53 49.70 270.83 49.26
  L 270.58 49.10
  A 0.51 0.50 -50.6 0 0 269.96 49.17
  Q 268.62 50.45 266.77 50.93
  A 1.12 1.12 0.0 0 1 265.45 49.43
  C 266.39 47.10 268.37 43.12 267.94 40.74
  Q 267.83 40.15 267.28 39.92
  Q 265.17 39.04 263.26 40.24
  A 0.75 0.73 -27.1 0 0 262.96 41.13
  L 263.07 41.39
  A 0.45 0.44 68.9 0 0 263.64 41.65
  L 264.86 41.19"
/>
<path stroke="#c1a4c1" vector-effect="non-scaling-stroke" d="
  M 189.9246 40.8108
  A 0.79 0.79 0.0 0 0 189.3559 39.8492
  L 189.3171 39.8392
  A 0.79 0.79 0.0 0 0 188.3555 40.4080
  L 185.5154 51.4692
  A 0.79 0.79 0.0 0 0 186.0841 52.4308
  L 186.1229 52.4408
  A 0.79 0.79 0.0 0 0 187.0845 51.8720
  L 189.9246 40.8108"
/>
<path stroke="#c1a4c1" vector-effect="non-scaling-stroke" d="
  M 175.61 42.65
  Q 175.76 42.77 176.22 43.03
  Q 176.57 43.22 176.82 43.16
  Q 177.22 43.05 177.31 42.55
  Q 177.39 42.10 177.07 41.76
  Q 175.30 39.90 173.18 41.14
  Q 168.53 43.87 169.05 50.00
  C 169.37 53.71 173.34 55.17 175.52 51.95
  A 0.46 0.46 0.0 0 0 175.56 51.51
  Q 175.48 51.35 175.41 51.17
  A 0.32 0.32 0.0 0 0 174.95 51.02
  L 173.24 52.05
  A 1.63 1.63 0.0 0 1 170.82 51.07
  Q 169.50 46.03 173.31 42.83
  A 1.96 1.67 -44.8 0 1 175.61 42.65"
/>
<path stroke="#c1a4c1" vector-effect="non-scaling-stroke" d="
  M 177.84 51.16
  L 180.04 41.43
  A 0.45 0.44 13.3 0 0 179.70 40.89
  L 179.31 40.82
  A 0.74 0.73 12.4 0 0 178.44 41.37
  L 176.16 51.09
  A 1.89 1.88 6.6 0 0 178.00 53.40
  Q 181.18 53.38 183.05 50.66
  Q 183.31 50.29 182.95 50.01
  L 182.70 49.81
  A 0.45 0.44 40.3 0 0 182.11 49.85
  Q 180.65 51.30 178.71 51.95
  Q 177.57 52.33 177.84 51.16"
/>
<path stroke="#c1a4c1" vector-effect="non-scaling-stroke" d="
  M 162.98 44.65
  Q 163.05 45.25 162.87 45.49
  Q 161.50 47.36 163.69 46.62
  Q 164.14 46.47 164.47 45.65
  C 165.30 43.58 163.31 42.14 161.37 42.61
  C 157.08 43.64 154.48 51.96 158.23 54.85
  C 160.77 56.81 164.69 54.45 166.62 52.26
  Q 167.07 51.74 166.53 51.31
  L 166.30 51.13
  A 0.52 0.51 -52.8 0 0 165.56 51.24
  C 163.90 53.63 158.66 55.91 158.12 51.64
  Q 157.48 46.67 161.56 43.99
  A 0.92 0.92 0.0 0 1 162.98 44.65"
/>
<path stroke="#c1a4c1" vector-effect="non-scaling-stroke" d="
  M 116.8245 49.5594
  A 1.81 0.99 96.2 0 0 118.0042 47.8669
  A 1.81 0.99 96.2 0 0 117.2155 45.9606
  A 1.81 0.99 96.2 0 0 116.0358 47.6531
  A 1.81 0.99 96.2 0 0 116.8245 49.5594"
/>
<path stroke="#c1a4c1" vector-effect="non-scaling-stroke" d="
  M 135.52 59.20
  A 0.92 0.92 0.0 0 1 133.92 58.54
  L 134.26 48.90
  Q 134.28 48.32 133.70 48.31
  L 133.30 48.31
  A 0.44 0.44 0.0 0 0 132.86 48.72
  C 132.51 53.17 131.56 58.13 133.42 60.68
  A 0.97 0.95 66.9 0 0 134.34 61.06
  Q 137.61 60.59 139.04 57.53
  Q 139.28 57.01 138.78 56.72
  L 138.51 56.55
  A 0.49 0.49 0.0 0 0 137.90 56.64
  L 135.52 59.20"
/>
<path stroke="#c1a4c1" vector-effect="non-scaling-stroke" d="
  M 96.87 48.78
  C 92.75 49.55 86.02 50.82 83.14 54.09
  A 0.88 0.87 45.3 0 0 83.14 55.24
  L 83.33 55.46
  A 0.49 0.48 43.3 0 0 84.08 55.44
  C 86.64 52.17 91.68 51.54 96.88 50.27
  Q 97.59 50.10 97.44 49.39
  L 97.38 49.12
  A 0.44 0.44 0.0 0 0 96.87 48.78"
/>
<path stroke="#c1a4c1" vector-effect="non-scaling-stroke" d="
  M 130.29 50.77
  Q 130.82 51.21 130.94 51.16
  Q 133.42 49.99 130.79 49.21
  C 124.99 47.51 122.28 59.24 127.23 61.87
  Q 129.63 63.15 132.10 60.10
  A 0.27 0.26 -37.8 0 0 132.14 59.82
  L 131.92 59.37
  Q 131.56 58.64 131.01 59.24
  C 125.98 64.72 123.99 53.08 129.43 50.65
  A 0.84 0.83 -36.7 0 1 130.29 50.77"
/>
<path stroke="#c1a4c1" vector-effect="non-scaling-stroke" d="
  M 100.83 52.97
  Q 101.51 53.09 101.64 53.77
  Q 102.91 60.20 99.67 65.83
  A 0.70 0.70 0.0 0 0 99.92 66.78
  L 100.23 66.96
  A 0.39 0.38 30.3 0 0 100.75 66.83
  Q 104.26 61.02 103.40 54.71
  C 103.08 52.38 101.88 50.25 99.18 51.61
  A 1.90 1.90 0.0 0 0 98.22 53.90
  Q 98.95 56.18 100.44 55.91
  Q 102.00 55.61 100.67 54.74
  Q 99.91 54.23 99.97 53.30
  A 0.42 0.42 0.0 0 1 100.46 52.91
  L 100.83 52.97"
/>
<path stroke="#c1a4c1" vector-effect="non-scaling-stroke" d="
  M 117.34 62.44
  L 117.46 52.37
  A 0.46 0.45 5.0 0 0 117.07 51.91
  L 116.70 51.86
  A 0.71 0.70 -85.7 0 0 115.90 52.55
  L 115.70 62.67
  A 2.02 2.01 -6.7 0 0 118.22 64.65
  Q 121.29 63.86 122.53 61.01
  A 0.66 0.65 -62.8 0 0 122.28 60.21
  L 122.03 60.06
  A 0.52 0.51 30.4 0 0 121.31 60.24
  Q 120.22 62.13 118.24 63.03
  A 0.64 0.63 -11.5 0 1 117.34 62.44"
/>
<path stroke="#c1a4c1" vector-effect="non-scaling-stroke" d="
  M 91.8788 53.4275
  A 0.67 0.67 0.0 0 0 91.2065 52.7598
  L 91.0865 52.7603
  A 0.67 0.67 0.0 0 0 90.4188 53.4326
  L 90.4812 71.2925
  A 0.67 0.67 0.0 0 0 91.1535 71.9602
  L 91.2735 71.9597
  A 0.67 0.67 0.0 0 0 91.9412 71.2874
  L 91.8788 53.4275"
/>
<path stroke="#c1a4c1" vector-effect="non-scaling-stroke" d="
  M 109.25 65.26
  A 0.88 0.88 0.0 0 1 107.86 64.42
  C 108.27 61.51 109.56 55.36 105.38 54.94
  A 1.24 1.24 0.0 0 0 104.27 55.42
  L 104.11 55.64
  A 0.30 0.29 23.7 0 0 104.30 56.11
  C 108.17 56.87 106.55 62.00 106.30 64.92
  A 2.04 2.04 0.0 0 0 109.04 67.01
  Q 111.96 65.93 113.14 63.09
  A 0.39 0.39 0.0 0 0 112.96 62.58
  L 112.61 62.41
  A 0.54 0.53 31.5 0 0 111.92 62.57
  Q 110.82 64.13 109.25 65.26"
/>
</g>
<path fill="#e2d0de" d="
  M 41.78 72.72
  L 43.61 73.57
  L 6.56 90.29
  A 0.55 0.55 0.0 0 0 6.48 91.24
  L 25.53 104.31
  A 1.26 1.26 0.0 0 1 26.07 105.56
  L 22.41 129.07
  Q 22.31 129.68 22.89 129.47
  C 24.76 128.78 26.86 127.31 28.19 126.71
  Q 45.45 118.97 62.61 110.99
  C 70.02 107.54 71.92 103.27 69.46 95.50
  Q 64.73 80.55 59.79 65.53
  A 0.68 0.68 0.0 0 0 58.57 65.39
  Q 58.18 66.03 57.64 65.86
  C 60.47 61.48 58.76 56.26 53.74 55.66
  C 49.61 55.17 41.38 60.32 38.14 58.07
  Q 43.50 57.24 48.51 55.49
  C 52.03 54.27 54.97 53.84 57.55 56.44
  Q 60.17 59.07 61.52 63.37
  Q 64.93 74.26 68.22 84.84
  A 0.69 0.69 0.0 0 0 69.08 85.30
  C 109.61 73.03 151.38 64.14 193.73 61.66
  C 234.28 59.28 274.52 61.32 314.57 67.92
  A 0.49 0.49 0.0 0 0 315.09 67.23
  L 305.50 46.61
  A 0.75 0.75 0.0 0 1 305.64 45.77
  L 321.69 28.98
  A 0.33 0.32 -62.9 0 0 321.52 28.44
  C 278.38 20.00 233.49 20.18 190.50 22.35
  C 153.35 24.22 116.80 30.69 80.50 39.91
  Q 60.36 45.03 40.06 53.42
  Q 38.81 53.93 37.91 54.89
  Q 36.27 56.62 37.86 57.72
  Q 36.78 58.34 36.58 58.29
  C 30.78 52.93 45.14 49.43 47.28 48.48
  C 58.03 43.72 70.37 40.42 81.75 37.51
  C 109.90 30.33 139.00 24.64 167.95 22.07
  C 220.56 17.39 275.54 17.27 324.25 26.97
  A 1.02 1.02 0.0 0 1 324.78 28.68
  L 308.30 45.89
  Q 307.68 46.54 308.06 47.36
  L 318.44 69.78
  Q 318.74 70.41 318.05 70.32
  Q 307.03 68.83 296.09 67.36
  Q 242.86 60.18 189.25 63.86
  Q 130.44 67.90 69.47 87.51
  A 0.49 0.49 0.0 0 0 69.15 88.13
  C 72.55 98.14 76.03 106.81 63.95 112.43
  Q 51.38 118.28 38.85 124.19
  C 34.00 126.48 27.79 129.00 22.35 131.64
  A 0.84 0.84 0.0 0 0 21.87 132.31
  L 21.64 134.25
  Q 21.58 134.81 21.28 134.34
  Q 19.94 132.30 20.26 130.25
  Q 22.16 118.20 24.02 106.15
  Q 24.10 105.64 23.66 105.34
  L 3.47 91.55
  A 0.72 0.72 0.0 0 1 3.47 90.36
  Q 5.51 88.98 7.44 87.99
  Q 24.18 79.43 41.78 72.72
  Z"
/>
<path fill="#ffffff" d="
  M 38.14 58.07
  Q 38.30 57.80 37.86 57.72
  Q 36.27 56.62 37.91 54.89
  Q 38.81 53.93 40.06 53.42
  Q 60.36 45.03 80.50 39.91
  C 116.80 30.69 153.35 24.22 190.50 22.35
  C 233.49 20.18 278.38 20.00 321.52 28.44
  A 0.33 0.32 -62.9 0 1 321.69 28.98
  L 305.64 45.77
  A 0.75 0.75 0.0 0 0 305.50 46.61
  L 315.09 67.23
  A 0.49 0.49 0.0 0 1 314.57 67.92
  C 274.52 61.32 234.28 59.28 193.73 61.66
  C 151.38 64.14 109.61 73.03 69.08 85.30
  A 0.69 0.69 0.0 0 1 68.22 84.84
  Q 64.93 74.26 61.52 63.37
  Q 60.17 59.07 57.55 56.44
  C 54.97 53.84 52.03 54.27 48.51 55.49
  Q 43.50 57.24 38.14 58.07
  Z
  M 240.5955 36.7270
  A 1.82 0.91 108.4 0 0 242.0335 35.2872
  A 1.82 0.91 108.4 0 0 241.7445 33.2730
  A 1.82 0.91 108.4 0 0 240.3065 34.7128
  A 1.82 0.91 108.4 0 0 240.5955 36.7270
  Z
  M 144.73 57.39
  A 0.95 0.95 0.0 0 1 143.34 56.48
  L 144.61 38.62
  A 0.70 0.69 89.3 0 0 143.85 37.87
  L 143.60 37.90
  A 0.56 0.55 -1.3 0 0 143.10 38.41
  Q 142.37 47.07 141.83 55.24
  Q 141.71 56.98 142.46 58.06
  A 2.13 2.12 62.2 0 0 144.96 58.84
  Q 147.39 57.91 148.69 55.67
  Q 149.03 55.09 148.45 54.76
  L 148.18 54.60
  A 0.47 0.47 0.0 0 0 147.54 54.76
  Q 146.52 56.48 144.73 57.39
  Z
  M 226.62 39.57
  L 228.29 40.44
  Q 228.74 40.68 228.99 40.23
  Q 229.21 39.84 229.01 39.46
  C 228.17 37.81 226.19 37.67 224.65 38.55
  Q 220.18 41.08 220.06 46.23
  C 219.92 51.90 226.74 51.48 226.30 48.61
  A 0.60 0.59 -17.2 0 0 225.45 48.17
  L 224.15 48.81
  A 1.76 1.76 0.0 0 1 221.62 47.42
  Q 221.06 42.17 225.64 39.59
  Q 226.13 39.31 226.62 39.57
  Z
  M 248.70 48.98
  A 1.63 1.63 0.0 0 1 246.73 47.36
  C 246.78 44.40 248.88 37.53 252.94 40.11
  A 0.73 0.73 0.0 0 0 254.04 39.30
  Q 253.74 38.19 252.24 38.05
  C 244.30 37.33 242.49 53.55 250.19 50.23
  Q 250.97 49.89 250.97 49.24
  Q 250.97 48.51 250.26 48.66
  L 248.70 48.98
  Z
  M 255.15 38.43
  C 253.87 42.38 251.18 54.74 247.41 55.68
  Q 244.59 56.39 244.32 53.17
  Q 244.28 52.71 243.83 52.82
  L 243.10 53.01
  A 0.83 0.83 0.0 0 0 242.63 54.30
  Q 245.98 58.91 249.83 56.12
  C 252.71 54.04 254.71 45.13 256.53 39.07
  A 0.69 0.69 0.0 0 0 256.21 38.27
  L 255.93 38.12
  Q 255.36 37.80 255.15 38.43
  Z
  M 211.2365 39.2647
  A 0.75 0.75 0.0 0 0 210.6886 38.3565
  L 210.5915 38.3325
  A 0.75 0.75 0.0 0 0 209.6833 38.8804
  L 204.8835 58.2753
  A 0.75 0.75 0.0 0 0 205.4314 59.1835
  L 205.5285 59.2075
  A 0.75 0.75 0.0 0 0 206.4367 58.6596
  L 211.2365 39.2647
  Z
  M 215.92 40.58
  C 217.58 43.75 214.93 51.21 210.15 49.05
  A 0.38 0.37 21.4 0 0 209.65 49.26
  L 209.54 49.59
  Q 209.33 50.18 209.89 50.45
  C 216.74 53.76 221.37 39.26 215.01 38.25
  Q 213.13 37.96 211.93 39.67
  A 0.63 0.63 0.0 0 0 211.99 40.48
  L 212.24 40.73
  A 0.40 0.40 0.0 0 0 212.81 40.74
  Q 214.91 38.66 215.92 40.58
  Z
  M 228.70 48.63
  L 231.87 39.02
  A 0.41 0.40 -66.0 0 0 231.70 38.56
  L 231.48 38.42
  Q 230.67 37.92 230.34 38.80
  C 229.22 41.72 227.11 46.23 227.23 49.28
  A 1.88 1.87 87.3 0 0 229.21 51.09
  Q 231.99 50.92 233.90 48.88
  A 0.53 0.53 0.0 0 0 233.89 48.13
  L 233.64 47.88
  A 0.69 0.68 44.1 0 0 232.68 47.89
  Q 231.34 49.26 229.40 49.48
  A 0.66 0.65 -84.5 0 1 228.70 48.63
  Z
  M 238.47 49.99
  A 0.87 0.86 -0.2 0 1 237.38 48.91
  L 240.31 39.38
  A 0.35 0.35 0.0 0 0 240.07 38.94
  L 239.78 38.86
  Q 239.11 38.67 238.85 39.31
  Q 237.25 43.25 236.13 47.55
  C 234.66 53.20 240.35 51.79 242.62 49.49
  Q 243.11 49.00 242.71 48.43
  L 242.51 48.15
  A 0.44 0.43 -38.4 0 0 241.86 48.08
  Q 240.36 49.39 238.47 49.99
  Z
  M 262.1608 40.3164
  A 0.77 0.77 0.0 0 0 261.6920 39.3335
  L 261.6543 39.3202
  A 0.77 0.77 0.0 0 0 260.6714 39.7890
  L 256.7992 50.7236
  A 0.77 0.77 0.0 0 0 257.2680 51.7065
  L 257.3057 51.7198
  A 0.77 0.77 0.0 0 0 258.2886 51.2510
  L 262.1608 40.3164
  Z
  M 192.68 41.40
  A 1.05 1.05 0.0 0 1 193.94 42.77
  C 192.95 45.55 191.45 49.10 192.23 51.87
  Q 192.37 52.36 192.86 52.46
  Q 193.04 52.49 193.19 52.41
  Q 193.57 52.20 193.58 51.76
  Q 193.58 48.22 195.25 43.77
  Q 195.78 42.34 195.06 40.50
  Q 194.88 40.03 194.42 39.82
  C 193.32 39.30 190.69 39.53 190.74 41.37
  Q 190.76 41.92 191.30 41.78
  L 192.68 41.40
  Z
  M 200.11 50.59
  Q 198.69 50.37 199.23 49.04
  C 200.21 46.65 201.29 43.44 201.00 40.87
  Q 200.94 40.36 200.50 40.10
  Q 198.21 38.74 196.77 39.96
  Q 194.49 41.90 197.48 41.71
  Q 197.65 41.70 198.51 41.29
  A 0.74 0.74 0.0 0 1 199.56 42.06
  C 199.16 44.78 197.30 48.26 197.67 50.71
  A 2.13 2.12 79.1 0 0 200.24 52.46
  Q 202.85 51.86 204.64 49.79
  A 0.51 0.50 -50.5 0 0 204.58 49.07
  L 204.27 48.82
  A 0.47 0.46 -49.1 0 0 203.63 48.87
  Q 201.83 50.85 200.11 50.59
  Z
  M 264.86 41.19
  A 1.18 1.18 0.0 0 1 266.39 42.70
  L 263.83 49.60
  A 2.10 2.10 0.0 0 0 265.56 52.41
  Q 268.84 52.79 270.98 50.33
  Q 271.53 49.70 270.83 49.26
  L 270.58 49.10
  A 0.51 0.50 -50.6 0 0 269.96 49.17
  Q 268.62 50.45 266.77 50.93
  A 1.12 1.12 0.0 0 1 265.45 49.43
  C 266.39 47.10 268.37 43.12 267.94 40.74
  Q 267.83 40.15 267.28 39.92
  Q 265.17 39.04 263.26 40.24
  A 0.75 0.73 -27.1 0 0 262.96 41.13
  L 263.07 41.39
  A 0.45 0.44 68.9 0 0 263.64 41.65
  L 264.86 41.19
  Z
  M 189.9246 40.8108
  A 0.79 0.79 0.0 0 0 189.3559 39.8492
  L 189.3171 39.8392
  A 0.79 0.79 0.0 0 0 188.3555 40.4080
  L 185.5154 51.4692
  A 0.79 0.79 0.0 0 0 186.0841 52.4308
  L 186.1229 52.4408
  A 0.79 0.79 0.0 0 0 187.0845 51.8720
  L 189.9246 40.8108
  Z
  M 175.61 42.65
  Q 175.76 42.77 176.22 43.03
  Q 176.57 43.22 176.82 43.16
  Q 177.22 43.05 177.31 42.55
  Q 177.39 42.10 177.07 41.76
  Q 175.30 39.90 173.18 41.14
  Q 168.53 43.87 169.05 50.00
  C 169.37 53.71 173.34 55.17 175.52 51.95
  A 0.46 0.46 0.0 0 0 175.56 51.51
  Q 175.48 51.35 175.41 51.17
  A 0.32 0.32 0.0 0 0 174.95 51.02
  L 173.24 52.05
  A 1.63 1.63 0.0 0 1 170.82 51.07
  Q 169.50 46.03 173.31 42.83
  A 1.96 1.67 -44.8 0 1 175.61 42.65
  Z
  M 177.84 51.16
  L 180.04 41.43
  A 0.45 0.44 13.3 0 0 179.70 40.89
  L 179.31 40.82
  A 0.74 0.73 12.4 0 0 178.44 41.37
  L 176.16 51.09
  A 1.89 1.88 6.6 0 0 178.00 53.40
  Q 181.18 53.38 183.05 50.66
  Q 183.31 50.29 182.95 50.01
  L 182.70 49.81
  A 0.45 0.44 40.3 0 0 182.11 49.85
  Q 180.65 51.30 178.71 51.95
  Q 177.57 52.33 177.84 51.16
  Z
  M 162.98 44.65
  Q 163.05 45.25 162.87 45.49
  Q 161.50 47.36 163.69 46.62
  Q 164.14 46.47 164.47 45.65
  C 165.30 43.58 163.31 42.14 161.37 42.61
  C 157.08 43.64 154.48 51.96 158.23 54.85
  C 160.77 56.81 164.69 54.45 166.62 52.26
  Q 167.07 51.74 166.53 51.31
  L 166.30 51.13
  A 0.52 0.51 -52.8 0 0 165.56 51.24
  C 163.90 53.63 158.66 55.91 158.12 51.64
  Q 157.48 46.67 161.56 43.99
  A 0.92 0.92 0.0 0 1 162.98 44.65
  Z
  M 116.8245 49.5594
  A 1.81 0.99 96.2 0 0 118.0042 47.8669
  A 1.81 0.99 96.2 0 0 117.2155 45.9606
  A 1.81 0.99 96.2 0 0 116.0358 47.6531
  A 1.81 0.99 96.2 0 0 116.8245 49.5594
  Z
  M 135.52 59.20
  A 0.92 0.92 0.0 0 1 133.92 58.54
  L 134.26 48.90
  Q 134.28 48.32 133.70 48.31
  L 133.30 48.31
  A 0.44 0.44 0.0 0 0 132.86 48.72
  C 132.51 53.17 131.56 58.13 133.42 60.68
  A 0.97 0.95 66.9 0 0 134.34 61.06
  Q 137.61 60.59 139.04 57.53
  Q 139.28 57.01 138.78 56.72
  L 138.51 56.55
  A 0.49 0.49 0.0 0 0 137.90 56.64
  L 135.52 59.20
  Z
  M 96.87 48.78
  C 92.75 49.55 86.02 50.82 83.14 54.09
  A 0.88 0.87 45.3 0 0 83.14 55.24
  L 83.33 55.46
  A 0.49 0.48 43.3 0 0 84.08 55.44
  C 86.64 52.17 91.68 51.54 96.88 50.27
  Q 97.59 50.10 97.44 49.39
  L 97.38 49.12
  A 0.44 0.44 0.0 0 0 96.87 48.78
  Z
  M 130.29 50.77
  Q 130.82 51.21 130.94 51.16
  Q 133.42 49.99 130.79 49.21
  C 124.99 47.51 122.28 59.24 127.23 61.87
  Q 129.63 63.15 132.10 60.10
  A 0.27 0.26 -37.8 0 0 132.14 59.82
  L 131.92 59.37
  Q 131.56 58.64 131.01 59.24
  C 125.98 64.72 123.99 53.08 129.43 50.65
  A 0.84 0.83 -36.7 0 1 130.29 50.77
  Z
  M 100.83 52.97
  Q 101.51 53.09 101.64 53.77
  Q 102.91 60.20 99.67 65.83
  A 0.70 0.70 0.0 0 0 99.92 66.78
  L 100.23 66.96
  A 0.39 0.38 30.3 0 0 100.75 66.83
  Q 104.26 61.02 103.40 54.71
  C 103.08 52.38 101.88 50.25 99.18 51.61
  A 1.90 1.90 0.0 0 0 98.22 53.90
  Q 98.95 56.18 100.44 55.91
  Q 102.00 55.61 100.67 54.74
  Q 99.91 54.23 99.97 53.30
  A 0.42 0.42 0.0 0 1 100.46 52.91
  L 100.83 52.97
  Z
  M 117.34 62.44
  L 117.46 52.37
  A 0.46 0.45 5.0 0 0 117.07 51.91
  L 116.70 51.86
  A 0.71 0.70 -85.7 0 0 115.90 52.55
  L 115.70 62.67
  A 2.02 2.01 -6.7 0 0 118.22 64.65
  Q 121.29 63.86 122.53 61.01
  A 0.66 0.65 -62.8 0 0 122.28 60.21
  L 122.03 60.06
  A 0.52 0.51 30.4 0 0 121.31 60.24
  Q 120.22 62.13 118.24 63.03
  A 0.64 0.63 -11.5 0 1 117.34 62.44
  Z
  M 91.8788 53.4275
  A 0.67 0.67 0.0 0 0 91.2065 52.7598
  L 91.0865 52.7603
  A 0.67 0.67 0.0 0 0 90.4188 53.4326
  L 90.4812 71.2925
  A 0.67 0.67 0.0 0 0 91.1535 71.9602
  L 91.2735 71.9597
  A 0.67 0.67 0.0 0 0 91.9412 71.2874
  L 91.8788 53.4275
  Z
  M 109.25 65.26
  A 0.88 0.88 0.0 0 1 107.86 64.42
  C 108.27 61.51 109.56 55.36 105.38 54.94
  A 1.24 1.24 0.0 0 0 104.27 55.42
  L 104.11 55.64
  A 0.30 0.29 23.7 0 0 104.30 56.11
  C 108.17 56.87 106.55 62.00 106.30 64.92
  A 2.04 2.04 0.0 0 0 109.04 67.01
  Q 111.96 65.93 113.14 63.09
  A 0.39 0.39 0.0 0 0 112.96 62.58
  L 112.61 62.41
  A 0.54 0.53 31.5 0 0 111.92 62.57
  Q 110.82 64.13 109.25 65.26
  Z"
/>
<ellipse fill="#824883" cx="0.00" cy="0.00" transform="translate(45.70,31.04) rotate(95.2)" rx="1.21" ry="0.67"/>
<ellipse fill="#824883" cx="0.00" cy="0.00" transform="translate(30.94,33.11) rotate(58.1)" rx="1.23" ry="0.70"/>
<ellipse fill="#824883" cx="0.00" cy="0.00" transform="translate(44.86,38.24) rotate(97.5)" rx="5.39" ry="0.72"/>
<ellipse fill="#824883" cx="0.00" cy="0.00" transform="translate(241.17,35.00) rotate(108.4)" rx="1.82" ry="0.91"/>
<rect fill="#824883" x="-0.59" y="-5.22" transform="translate(33.81,39.85) rotate(-22.7)" width="1.18" height="10.44" rx="0.57"/>
<rect fill="#824883" x="-0.64" y="-3.61" transform="translate(39.40,39.69) rotate(-7.9)" width="1.28" height="7.22" rx="0.37"/>
<path fill="#824883" d="
  M 144.73 57.39
  Q 146.52 56.48 147.54 54.76
  A 0.47 0.47 0.0 0 1 148.18 54.60
  L 148.45 54.76
  Q 149.03 55.09 148.69 55.67
  Q 147.39 57.91 144.96 58.84
  A 2.13 2.12 62.2 0 1 142.46 58.06
  Q 141.71 56.98 141.83 55.24
  Q 142.37 47.07 143.10 38.41
  A 0.56 0.55 -1.3 0 1 143.60 37.90
  L 143.85 37.87
  A 0.70 0.69 89.3 0 1 144.61 38.62
  L 143.34 56.48
  A 0.95 0.95 0.0 0 0 144.73 57.39
  Z"
/>
<path fill="#824883" d="
  M 225.64 39.59
  Q 221.06 42.17 221.62 47.42
  A 1.76 1.76 0.0 0 0 224.15 48.81
  L 225.45 48.17
  A 0.60 0.59 -17.2 0 1 226.30 48.61
  C 226.74 51.48 219.92 51.90 220.06 46.23
  Q 220.18 41.08 224.65 38.55
  C 226.19 37.67 228.17 37.81 229.01 39.46
  Q 229.21 39.84 228.99 40.23
  Q 228.74 40.68 228.29 40.44
  L 226.62 39.57
  Q 226.13 39.31 225.64 39.59
  Z"
/>
<path fill="#824883" d="
  M 248.70 48.98
  L 250.26 48.66
  Q 250.97 48.51 250.97 49.24
  Q 250.97 49.89 250.19 50.23
  C 242.49 53.55 244.30 37.33 252.24 38.05
  Q 253.74 38.19 254.04 39.30
  A 0.73 0.73 0.0 0 1 252.94 40.11
  C 248.88 37.53 246.78 44.40 246.73 47.36
  A 1.63 1.63 0.0 0 0 248.70 48.98
  Z"
/>
<path fill="#824883" d="
  M 255.15 38.43
  Q 255.36 37.80 255.93 38.12
  L 256.21 38.27
  A 0.69 0.69 0.0 0 1 256.53 39.07
  C 254.71 45.13 252.71 54.04 249.83 56.12
  Q 245.98 58.91 242.63 54.30
  A 0.83 0.83 0.0 0 1 243.10 53.01
  L 243.83 52.82
  Q 244.28 52.71 244.32 53.17
  Q 244.59 56.39 247.41 55.68
  C 251.18 54.74 253.87 42.38 255.15 38.43
  Z"
/>
<rect fill="#824883" x="-0.80" y="-10.74" transform="translate(208.06,48.77) rotate(13.9)" width="1.60" height="21.48" rx="0.75"/>
<path fill="#824883" d="
  M 215.92 40.58
  Q 214.91 38.66 212.81 40.74
  A 0.40 0.40 0.0 0 1 212.24 40.73
  L 211.99 40.48
  A 0.63 0.63 0.0 0 1 211.93 39.67
  Q 213.13 37.96 215.01 38.25
  C 221.37 39.26 216.74 53.76 209.89 50.45
  Q 209.33 50.18 209.54 49.59
  L 209.65 49.26
  A 0.38 0.37 21.4 0 1 210.15 49.05
  C 214.93 51.21 217.58 43.75 215.92 40.58
  Z"
/>
<path fill="#824883" d="
  M 228.70 48.63
  A 0.66 0.65 -84.5 0 0 229.40 49.48
  Q 231.34 49.26 232.68 47.89
  A 0.69 0.68 44.1 0 1 233.64 47.88
  L 233.89 48.13
  A 0.53 0.53 0.0 0 1 233.90 48.88
  Q 231.99 50.92 229.21 51.09
  A 1.88 1.87 87.3 0 1 227.23 49.28
  C 227.11 46.23 229.22 41.72 230.34 38.80
  Q 230.67 37.92 231.48 38.42
  L 231.70 38.56
  A 0.41 0.40 -66.0 0 1 231.87 39.02
  L 228.70 48.63
  Z"
/>
<path fill="#824883" d="
  M 238.47 49.99
  Q 240.36 49.39 241.86 48.08
  A 0.44 0.43 -38.4 0 1 242.51 48.15
  L 242.71 48.43
  Q 243.11 49.00 242.62 49.49
  C 240.35 51.79 234.66 53.20 236.13 47.55
  Q 237.25 43.25 238.85 39.31
  Q 239.11 38.67 239.78 38.86
  L 240.07 38.94
  A 0.35 0.35 0.0 0 1 240.31 39.38
  L 237.38 48.91
  A 0.87 0.86 -0.2 0 0 238.47 49.99
  Z"
/>
<rect fill="#824883" x="-0.79" y="-6.57" transform="translate(259.48,45.52) rotate(19.5)" width="1.58" height="13.14" rx="0.77"/>
<path fill="#824883" d="
  M 192.68 41.40
  L 191.30 41.78
  Q 190.76 41.92 190.74 41.37
  C 190.69 39.53 193.32 39.30 194.42 39.82
  Q 194.88 40.03 195.06 40.50
  Q 195.78 42.34 195.25 43.77
  Q 193.58 48.22 193.58 51.76
  Q 193.57 52.20 193.19 52.41
  Q 193.04 52.49 192.86 52.46
  Q 192.37 52.36 192.23 51.87
  C 191.45 49.10 192.95 45.55 193.94 42.77
  A 1.05 1.05 0.0 0 0 192.68 41.40
  Z"
/>
<path fill="#824883" d="
  M 200.11 50.59
  Q 201.83 50.85 203.63 48.87
  A 0.47 0.46 -49.1 0 1 204.27 48.82
  L 204.58 49.07
  A 0.51 0.50 -50.5 0 1 204.64 49.79
  Q 202.85 51.86 200.24 52.46
  A 2.13 2.12 79.1 0 1 197.67 50.71
  C 197.30 48.26 199.16 44.78 199.56 42.06
  A 0.74 0.74 0.0 0 0 198.51 41.29
  Q 197.65 41.70 197.48 41.71
  Q 194.49 41.90 196.77 39.96
  Q 198.21 38.74 200.50 40.10
  Q 200.94 40.36 201.00 40.87
  C 201.29 43.44 200.21 46.65 199.23 49.04
  Q 198.69 50.37 200.11 50.59
  Z"
/>
<path fill="#824883" d="
  M 264.86 41.19
  L 263.64 41.65
  A 0.45 0.44 68.9 0 1 263.07 41.39
  L 262.96 41.13
  A 0.75 0.73 -27.1 0 1 263.26 40.24
  Q 265.17 39.04 267.28 39.92
  Q 267.83 40.15 267.94 40.74
  C 268.37 43.12 266.39 47.10 265.45 49.43
  A 1.12 1.12 0.0 0 0 266.77 50.93
  Q 268.62 50.45 269.96 49.17
  A 0.51 0.50 -50.6 0 1 270.58 49.10
  L 270.83 49.26
  Q 271.53 49.70 270.98 50.33
  Q 268.84 52.79 265.56 52.41
  A 2.10 2.10 0.0 0 1 263.83 49.60
  L 266.39 42.70
  A 1.18 1.18 0.0 0 0 264.86 41.19
  Z"
/>
<rect fill="#824883" x="-0.81" y="-6.50" transform="translate(187.72,46.14) rotate(14.4)" width="1.62" height="13.00" rx="0.79"/>
<path fill="#824883" d="
  M 26.98 41.05
  A 0.10 0.10 0.0 0 1 27.00 40.91
  L 27.13 40.81
  A 1.33 0.84 52.0 0 1 28.61 41.34
  L 31.82 45.46
  A 1.33 0.84 52.0 0 1 31.98 47.02
  L 31.85 47.12
  A 0.10 0.10 0.0 0 1 31.71 47.10
  L 26.98 41.05
  Z"
/>
<path fill="#824883" d="
  M 175.61 42.65
  A 1.96 1.67 -44.8 0 0 173.31 42.83
  Q 169.50 46.03 170.82 51.07
  A 1.63 1.63 0.0 0 0 173.24 52.05
  L 174.95 51.02
  A 0.32 0.32 0.0 0 1 175.41 51.17
  Q 175.48 51.35 175.56 51.51
  A 0.46 0.46 0.0 0 1 175.52 51.95
  C 173.34 55.17 169.37 53.71 169.05 50.00
  Q 168.53 43.87 173.18 41.14
  Q 175.30 39.90 177.07 41.76
  Q 177.39 42.10 177.31 42.55
  Q 177.22 43.05 176.82 43.16
  Q 176.57 43.22 176.22 43.03
  Q 175.76 42.77 175.61 42.65
  Z"
/>
<path fill="#824883" d="
  M 178.71 51.95
  Q 180.65 51.30 182.11 49.85
  A 0.45 0.44 40.3 0 1 182.70 49.81
  L 182.95 50.01
  Q 183.31 50.29 183.05 50.66
  Q 181.18 53.38 178.00 53.40
  A 1.89 1.88 6.6 0 1 176.16 51.09
  L 178.44 41.37
  A 0.74 0.73 12.4 0 1 179.31 40.82
  L 179.70 40.89
  A 0.45 0.44 13.3 0 1 180.04 41.43
  L 177.84 51.16
  Q 177.57 52.33 178.71 51.95
  Z"
/>
<path fill="#824883" d="
  M 19.73 43.10
  Q 18.33 42.99 18.04 41.51
  A 0.34 0.34 0.0 0 1 18.53 41.14
  Q 19.45 41.62 20.08 42.47
  A 0.40 0.39 -16.3 0 1 19.73 43.10
  Z"
/>
<path fill="#824883" d="
  M 162.98 44.65
  A 0.92 0.92 0.0 0 0 161.56 43.99
  Q 157.48 46.67 158.12 51.64
  C 158.66 55.91 163.90 53.63 165.56 51.24
  A 0.52 0.51 -52.8 0 1 166.30 51.13
  L 166.53 51.31
  Q 167.07 51.74 166.62 52.26
  C 164.69 54.45 160.77 56.81 158.23 54.85
  C 154.48 51.96 157.08 43.64 161.37 42.61
  C 163.31 42.14 165.30 43.58 164.47 45.65
  Q 164.14 46.47 163.69 46.62
  Q 161.50 47.36 162.87 45.49
  Q 163.05 45.25 162.98 44.65
  Z"
/>
<rect fill="#824883" x="-5.09" y="-0.55" transform="translate(24.93,46.61) rotate(37.4)" width="10.18" height="1.10" rx="0.26"/>
<ellipse fill="#824883" cx="0.00" cy="0.00" transform="translate(117.02,47.76) rotate(96.2)" rx="1.81" ry="0.99"/>
<path fill="#824883" d="
  M 135.52 59.20
  L 137.90 56.64
  A 0.49 0.49 0.0 0 1 138.51 56.55
  L 138.78 56.72
  Q 139.28 57.01 139.04 57.53
  Q 137.61 60.59 134.34 61.06
  A 0.97 0.95 66.9 0 1 133.42 60.68
  C 131.56 58.13 132.51 53.17 132.86 48.72
  A 0.44 0.44 0.0 0 1 133.30 48.31
  L 133.70 48.31
  Q 134.28 48.32 134.26 48.90
  L 133.92 58.54
  A 0.92 0.92 0.0 0 0 135.52 59.20
  Z"
/>
<path fill="#824883" d="
  M 83.14 54.09
  C 86.02 50.82 92.75 49.55 96.87 48.78
  A 0.44 0.44 0.0 0 1 97.38 49.12
  L 97.44 49.39
  Q 97.59 50.10 96.88 50.27
  C 91.68 51.54 86.64 52.17 84.08 55.44
  A 0.49 0.48 43.3 0 1 83.33 55.46
  L 83.14 55.24
  A 0.88 0.87 45.3 0 1 83.14 54.09
  Z"
/>
<path fill="#824883" d="
  M 129.43 50.65
  C 123.99 53.08 125.98 64.72 131.01 59.24
  Q 131.56 58.64 131.92 59.37
  L 132.14 59.82
  A 0.27 0.26 -37.8 0 1 132.10 60.10
  Q 129.63 63.15 127.23 61.87
  C 122.28 59.24 124.99 47.51 130.79 49.21
  Q 133.42 49.99 130.94 51.16
  Q 130.82 51.21 130.29 50.77
  A 0.84 0.83 -36.7 0 0 129.43 50.65
  Z"
/>
<rect fill="#824883" x="-3.72" y="-0.63" transform="translate(23.46,52.03) rotate(22.9)" width="7.44" height="1.26" rx="0.55"/>
<path fill="#824883" d="
  M 99.97 53.30
  Q 99.91 54.23 100.67 54.74
  Q 102.00 55.61 100.44 55.91
  Q 98.95 56.18 98.22 53.90
  A 1.90 1.90 0.0 0 1 99.18 51.61
  C 101.88 50.25 103.08 52.38 103.40 54.71
  Q 104.26 61.02 100.75 66.83
  A 0.39 0.38 30.3 0 1 100.23 66.96
  L 99.92 66.78
  A 0.70 0.70 0.0 0 1 99.67 65.83
  Q 102.91 60.20 101.64 53.77
  Q 101.51 53.09 100.83 52.97
  L 100.46 52.91
  A 0.42 0.42 0.0 0 0 99.97 53.30
  Z"
/>
<path fill="#824883" d="
  M 118.24 63.03
  Q 120.22 62.13 121.31 60.24
  A 0.52 0.51 30.4 0 1 122.03 60.06
  L 122.28 60.21
  A 0.66 0.65 -62.8 0 1 122.53 61.01
  Q 121.29 63.86 118.22 64.65
  A 2.02 2.01 -6.7 0 1 115.70 62.67
  L 115.90 52.55
  A 0.71 0.70 -85.7 0 1 116.70 51.86
  L 117.07 51.91
  A 0.46 0.45 5.0 0 1 117.46 52.37
  L 117.34 62.44
  A 0.64 0.63 -11.5 0 0 118.24 63.03
  Z"
/>
<rect fill="#824883" x="-0.73" y="-9.60" transform="translate(91.18,62.36) rotate(-0.2)" width="1.46" height="19.20" rx="0.67"/>
<path fill="#824883" d="
  M 109.25 65.26
  Q 110.82 64.13 111.92 62.57
  A 0.54 0.53 31.5 0 1 112.61 62.41
  L 112.96 62.58
  A 0.39 0.39 0.0 0 1 113.14 63.09
  Q 111.96 65.93 109.04 67.01
  A 2.04 2.04 0.0 0 1 106.30 64.92
  C 106.55 62.00 108.17 56.87 104.30 56.11
  A 0.30 0.29 23.7 0 1 104.11 55.64
  L 104.27 55.42
  A 1.24 1.24 0.0 0 1 105.38 54.94
  C 109.56 55.36 108.27 61.51 107.86 64.42
  A 0.88 0.88 0.0 0 0 109.25 65.26
  Z"
/>
<path fill="#824883" d="
  M 14.69 55.77
  A 0.48 0.48 0.0 0 1 14.58 56.59
  Q 13.60 56.98 12.59 56.65
  A 0.73 0.72 51.1 0 1 12.74 55.24
  Q 13.87 55.13 14.69 55.77
  Z"
/>
<rect fill="#824883" x="-5.10" y="-0.66" transform="translate(20.79,56.96) rotate(7.4)" width="10.20" height="1.32" rx="0.63"/>
<path fill="#824883" d="
  M 57.64 65.86
  Q 54.12 69.61 48.61 71.33
  Q 45.81 72.20 43.61 73.57
  L 41.78 72.72
  Q 41.88 72.57 41.92 72.41
  Q 41.97 72.27 41.91 72.09
  Q 39.56 64.88 36.58 58.29
  Q 36.78 58.34 37.86 57.72
  Q 38.30 57.80 38.14 58.07
  C 41.38 60.32 49.61 55.17 53.74 55.66
  C 58.76 56.26 60.47 61.48 57.64 65.86
  Z"
/>
<rect fill="#824883" x="-3.75" y="-0.63" transform="translate(22.13,62.38) rotate(-7.3)" width="7.50" height="1.26" rx="0.57"/>
<path fill="#ffffff" d="
  M 43.61 73.57
  Q 45.81 72.20 48.61 71.33
  Q 54.12 69.61 57.64 65.86
  Q 58.18 66.03 58.57 65.39
  A 0.68 0.68 0.0 0 1 59.79 65.53
  Q 64.73 80.55 69.46 95.50
  C 71.92 103.27 70.02 107.54 62.61 110.99
  Q 45.45 118.97 28.19 126.71
  C 26.86 127.31 24.76 128.78 22.89 129.47
  Q 22.31 129.68 22.41 129.07
  L 26.07 105.56
  A 1.26 1.26 0.0 0 0 25.53 104.31
  L 6.48 91.24
  A 0.55 0.55 0.0 0 1 6.56 90.29
  L 43.61 73.57
  Z"
/>
<path fill="#824883" d="
  M 26.66 66.88
  L 14.72 71.54
  Q 14.28 71.71 14.29 71.24
  Q 14.30 70.94 14.65 70.64
  C 15.47 69.93 16.30 70.13 17.11 69.72
  Q 21.72 67.43 26.40 65.47
  Q 26.76 65.32 26.88 65.69
  L 27.02 66.13
  Q 27.19 66.67 26.66 66.88
  Z"
/>
</svg>
