<?xml version="1.0" encoding="UTF-8" standalone="no"?>
<!DOCTYPE svg PUBLIC "-//W3C//DTD SVG 1.1//EN" "http://www.w3.org/Graphics/SVG/1.1/DTD/svg11.dtd">
<svg xmlns="http://www.w3.org/2000/svg" version="1.1" viewBox="0.00 0.00 176.00 162.00">
<path fill="#680c80" d="
  M 21.73 120.68
  Q 14.73 122.14 7.73 123.62
  Q 6.61 123.86 5.62 123.64
  A 0.58 0.57 31.1 0 1 5.37 122.64
  C 7.48 120.86 9.16 116.20 10.45 113.69
  Q 10.68 113.23 11.12 112.97
  Q 11.68 112.64 11.54 111.95
  Q 11.44 111.44 11.85 111.12
  C 12.95 110.27 13.39 109.28 13.06 107.82
  C 10.95 98.62 10.58 89.40 10.57 80.00
  Q 10.56 70.35 11.67 66.23
  Q 13.11 60.84 14.67 55.50
  A 0.92 0.90 -5.7 0 1 15.14 54.94
  Q 15.63 54.70 15.56 54.20
  Q 15.48 53.70 15.70 53.24
  Q 20.27 43.65 23.68 39.70
  Q 31.10 31.06 33.64 29.38
  Q 35.87 27.89 37.89 26.12
  C 39.60 24.62 41.45 23.98 43.32 22.64
  C 46.15 20.62 49.69 19.03 53.02 17.86
  C 54.67 17.29 56.08 16.34 57.72 15.92
  C 61.39 14.98 65.03 13.64 68.69 13.08
  C 72.68 12.46 76.26 11.86 80.51 11.78
  C 83.42 11.73 86.40 11.42 89.17 11.63
  C 100.24 12.47 110.36 14.92 120.52 19.41
  A 1.07 0.03 9.0 0 0 121.47 19.59
  Q 121.93 19.67 122.07 20.21
  A 0.55 0.54 72.5 0 0 122.79 20.59
  Q 123.73 20.23 124.11 21.10
  A 1.26 1.26 0.0 0 0 124.79 21.78
  Q 131.02 24.38 135.26 28.22
  Q 135.91 28.80 136.42 29.06
  A 1.25 0.13 24.3 0 1 137.04 29.42
  C 147.13 37.68 154.49 46.55 159.61 58.53
  Q 169.01 80.56 161.79 103.13
  Q 161.30 104.65 160.19 107.09
  Q 159.31 109.03 158.53 111.04
  C 157.11 114.68 155.15 116.10 153.72 118.85
  Q 153.27 119.72 153.27 119.72
  C 152.07 120.71 151.99 121.93 151.02 122.93
  C 145.55 128.54 140.63 133.98 133.73 137.96
  C 130.82 139.65 128.40 141.29 125.16 142.57
  C 122.89 143.47 120.71 144.62 118.52 145.36
  Q 96.65 152.72 73.77 148.27
  Q 70.56 147.64 62.25 145.15
  Q 61.67 144.97 59.87 144.11
  C 58.74 143.57 57.55 143.48 56.52 143.06
  Q 42.18 137.12 38.53 134.40
  Q 36.23 132.68 33.76 131.17
  C 29.84 128.77 25.53 125.12 22.54 120.99
  A 0.80 0.79 65.3 0 0 21.73 120.68
  Z
  M 155.79 111.40
  Q 156.34 110.82 156.52 110.09
  C 157.18 107.26 159.04 105.00 159.80 102.07
  Q 160.45 99.55 161.09 97.03
  C 163.59 87.29 163.01 76.55 160.40 66.92
  Q 159.93 65.17 158.95 62.97
  Q 158.10 61.04 157.29 59.10
  Q 154.14 51.51 149.27 44.96
  C 146.60 41.36 143.00 37.94 139.63 34.62
  C 136.69 31.70 133.08 29.40 129.73 26.78
  Q 129.36 26.49 128.89 26.55
  Q 128.35 26.62 128.13 26.20
  Q 127.93 25.82 127.56 25.60
  Q 112.93 17.06 96.10 14.87
  Q 93.64 14.55 91.19 14.17
  Q 88.79 13.81 86.28 13.91
  C 82.59 14.06 78.87 13.74 75.22 14.38
  C 71.73 14.99 68.30 15.25 65.00 16.16
  Q 62.34 16.90 59.67 17.62
  C 57.42 18.22 55.42 19.31 53.22 20.16
  C 48.81 21.86 45.10 24.08 41.18 26.44
  C 39.54 27.43 38.07 28.97 36.73 29.97
  Q 29.30 35.54 24.15 43.32
  C 22.02 46.54 19.93 49.14 18.40 52.76
  Q 18.35 52.88 18.38 53.00
  L 18.51 53.52
  A 0.29 0.29 0.0 0 1 18.29 53.87
  Q 17.31 54.07 17.50 55.09
  A 1.09 1.06 -33.8 0 1 17.33 55.89
  Q 16.36 57.32 15.93 58.98
  C 14.92 62.89 13.68 66.81 13.32 70.75
  Q 11.87 86.99 14.52 104.00
  Q 14.93 106.65 15.63 108.42
  A 1.01 0.99 47.7 0 1 15.60 109.22
  L 13.62 113.27
  Q 13.40 113.72 12.97 113.97
  Q 12.55 114.20 12.48 114.66
  Q 12.44 114.90 12.33 115.11
  L 9.42 120.48
  Q 9.02 121.22 9.84 121.03
  L 22.63 118.04
  A 0.67 0.65 -26.1 0 1 23.30 118.26
  C 25.49 120.90 27.25 124.00 30.30 125.72
  C 31.47 126.38 32.08 127.12 32.98 128.01
  C 34.03 129.04 35.29 129.12 36.34 130.37
  A 1.52 1.49 -9.9 0 0 37.05 130.86
  C 38.60 131.37 39.54 132.59 40.82 133.22
  C 45.42 135.47 50.02 138.10 54.82 139.86
  C 59.78 141.67 64.76 143.79 71.73 145.51
  C 80.97 147.79 91.86 148.31 101.28 147.05
  Q 109.87 145.90 118.11 143.18
  C 120.29 142.46 122.45 141.14 124.76 140.29
  C 127.81 139.15 130.12 137.56 133.07 135.84
  Q 143.03 130.07 151.69 118.25
  Q 151.93 117.93 152.05 117.31
  Q 152.16 116.72 152.63 116.36
  Q 153.91 115.38 154.27 113.79
  A 0.96 0.95 -5.0 0 1 154.84 113.12
  Q 155.53 112.84 155.50 112.20
  Q 155.47 111.73 155.79 111.40
  Z"
/>
<path fill="#680c80" d="
  M 35.29 46.07
  Q 35.91 44.48 37.52 43.99
  Q 38.63 43.65 38.52 44.81
  L 38.40 46.16
  Q 38.35 46.70 38.88 46.84
  C 40.71 47.33 43.14 47.39 43.09 49.99
  Q 42.99 54.98 41.63 58.95
  A 2.61 2.60 11.1 0 1 39.00 60.71
  Q 35.40 60.50 31.49 59.26
  C 28.30 58.24 30.88 50.08 31.54 47.90
  Q 31.68 47.41 32.06 47.07
  Q 33.28 45.98 34.85 46.30
  Q 35.17 46.37 35.29 46.07
  Z
  M 33.58 49.87
  L 40.65 51.25
  A 0.23 0.23 0.0 0 0 40.92 51.06
  L 40.99 50.71
  A 3.09 1.63 11.0 0 0 38.27 48.52
  L 36.82 48.24
  A 3.09 1.63 11.0 0 0 33.47 49.25
  L 33.40 49.60
  A 0.23 0.23 0.0 0 0 33.58 49.87
  Z
  M 40.6622 53.9444
  A 0.80 0.80 0.0 0 0 40.0262 53.0087
  L 33.5235 51.7682
  A 0.80 0.80 0.0 0 0 32.5878 52.4041
  L 32.4978 52.8756
  A 0.80 0.80 0.0 0 0 33.1338 53.8113
  L 39.6365 55.0518
  A 0.80 0.80 0.0 0 0 40.5722 54.4159
  L 40.6622 53.9444
  Z
  M 39.6801 57.6695
  A 0.66 0.66 0.0 0 0 39.1635 56.8921
  L 32.7918 55.6073
  A 0.66 0.66 0.0 0 0 32.0143 56.1239
  L 31.8799 56.7905
  A 0.66 0.66 0.0 0 0 32.3965 57.5679
  L 38.7682 58.8527
  A 0.66 0.66 0.0 0 0 39.5457 58.3361
  L 39.6801 57.6695
  Z"
/>
<path fill="#680c80" d="
  M 56.47 49.98
  Q 55.56 50.09 54.72 49.77
  A 0.71 0.71 0.0 0 1 54.29 48.94
  L 54.39 48.56
  A 1.11 1.10 -73.6 0 1 55.82 47.78
  L 58.51 48.69
  Q 59.08 48.88 59.29 49.44
  Q 60.57 52.95 63.24 55.53
  A 0.70 0.70 0.0 0 1 63.23 56.56
  L 62.37 57.34
  Q 61.82 57.84 61.33 57.30
  Q 58.64 54.37 57.42 50.60
  Q 57.19 49.90 56.47 49.98
  Z"
/>
<path fill="#680c80" d="
  M 51.13 53.63
  C 54.12 54.40 60.43 53.93 59.43 58.94
  C 58.96 61.27 57.18 65.02 54.00 64.09
  Q 50.69 63.13 53.77 61.59
  Q 53.94 61.51 54.76 61.86
  A 0.89 0.87 31.9 0 0 55.78 61.63
  Q 57.22 59.95 57.17 57.70
  Q 57.16 57.20 56.69 57.02
  L 55.14 56.41
  A 0.67 0.66 21.3 0 0 54.27 56.79
  Q 52.38 61.73 47.24 62.70
  A 0.93 0.92 -14.9 0 1 46.19 62.10
  L 46.11 61.85
  A 0.52 0.52 0.0 0 1 46.46 61.17
  Q 50.02 60.14 51.91 56.97
  A 0.67 0.67 0.0 0 0 51.48 55.97
  Q 49.98 55.65 49.94 54.04
  A 0.28 0.27 -28.0 0 0 49.44 53.89
  Q 48.69 54.90 47.43 55.00
  A 1.11 1.10 30.2 0 1 46.87 52.90
  Q 49.71 51.56 51.79 49.20
  Q 52.39 48.53 53.15 49.00
  L 53.61 49.28
  Q 54.32 49.72 53.72 50.31
  L 50.96 53.00
  Q 50.48 53.47 51.13 53.63
  Z"
/>
<path fill="#680c80" d="
  M 74.54 55.70
  Q 73.03 57.78 72.36 60.29
  Q 72.23 60.80 71.87 61.18
  C 70.53 62.59 68.30 65.70 66.22 63.03
  C 64.67 61.04 64.45 58.86 65.93 56.68
  Q 69.95 50.73 76.88 54.13
  Q 80.45 55.89 79.97 60.50
  Q 79.45 65.49 73.31 66.19
  Q 72.14 66.33 72.11 65.15
  L 72.10 64.84
  A 0.60 0.59 -4.3 0 1 72.62 64.24
  C 77.83 63.62 79.95 58.13 75.32 55.52
  Q 74.86 55.26 74.54 55.70
  Z
  M 71.33 55.13
  C 68.23 55.39 66.65 58.71 67.46 61.55
  A 0.55 0.55 0.0 0 0 68.34 61.82
  Q 71.26 59.43 71.91 55.75
  A 0.54 0.53 2.4 0 0 71.33 55.13
  Z"
/>
<path fill="#680c80" d="
  M 94.19 60.83
  A 0.68 0.68 0.0 0 1 93.71 59.99
  L 93.82 59.59
  A 2.20 1.54 -74.7 0 1 95.89 57.87
  L 96.14 57.94
  A 2.20 1.54 -74.7 0 1 97.05 60.47
  L 96.93 60.88
  A 0.68 0.68 0.0 0 1 96.10 61.35
  L 94.19 60.83
  Z
  M 94.97 59.24
  Q 94.94 59.63 95.06 60.00
  A 0.48 0.47 66.1 0 0 95.75 60.27
  Q 96.19 60.01 96.25 59.46
  Q 96.30 58.94 95.81 58.78
  Q 95.66 58.74 95.51 58.74
  Q 95.01 58.74 94.97 59.24
  Z"
/>
<path fill="#680c80" d="
  M 86.76 59.27
  Q 90.66 58.04 93.09 61.37
  Q 95.28 64.37 97.47 66.66
  A 1.38 1.38 0.0 0 1 97.59 68.41
  L 97.30 68.81
  A 0.74 0.74 0.0 0 1 96.08 68.79
  Q 94.96 67.06 91.12 62.88
  C 88.05 59.55 86.68 62.28 83.47 62.73
  A 0.89 0.89 0.0 0 1 82.52 61.53
  C 83.13 59.96 85.60 59.63 86.76 59.27
  Z"
/>
<path fill="#680c80" d="
  M 126.71 71.47
  L 119.84 74.65
  A 0.62 0.59 38.1 0 1 119.44 74.69
  Q 118.10 74.39 118.26 73.34
  A 0.93 0.92 78.9 0 1 118.68 72.71
  C 120.72 71.45 123.13 71.08 124.88 69.82
  Q 126.70 68.51 127.99 66.97
  A 0.83 0.83 0.0 0 0 127.33 65.61
  Q 124.47 65.69 122.06 64.19
  Q 121.55 63.88 121.81 63.34
  Q 122.38 62.19 123.52 62.50
  C 125.94 63.17 130.38 63.21 130.98 66.26
  Q 131.07 66.72 130.78 67.10
  L 129.53 68.75
  A 1.99 1.98 -46.1 0 0 129.57 71.21
  L 132.57 74.86
  Q 132.79 75.14 132.57 75.43
  L 131.42 76.92
  A 0.23 0.22 -7.6 0 1 131.06 76.92
  L 127.26 71.61
  Q 127.04 71.31 126.71 71.47
  Z"
/>
<rect fill="#680c80" x="-6.60" y="-1.13" transform="translate(108.49,65.97) rotate(10.2)" width="13.20" height="2.26" rx="0.81"/>
<path fill="#680c80" d="
  M 144.98 69.00
  L 138.48 69.00
  Q 137.57 69.00 137.68 68.10
  L 137.72 67.80
  A 1.20 1.19 4.2 0 1 138.94 66.75
  L 150.80 67.08
  A 0.87 0.87 0.0 0 1 151.60 68.23
  Q 151.24 69.31 149.99 69.24
  Q 149.48 69.21 149.03 69.45
  C 146.65 70.72 144.55 71.34 144.66 74.53
  C 144.73 76.79 146.77 78.27 148.65 79.17
  Q 149.01 79.34 149.01 79.74
  Q 149.01 79.90 149.01 80.07
  Q 149.01 80.46 148.62 80.47
  L 146.92 80.55
  A 0.88 0.86 69.0 0 1 146.20 80.22
  C 145.48 79.33 144.51 79.06 143.86 78.30
  C 141.27 75.23 142.58 72.25 145.20 69.52
  Q 145.70 69.00 144.98 69.00
  Z"
/>
<ellipse fill="#680c80" cx="0.00" cy="0.00" transform="translate(152.38,71.43) rotate(48.6)" rx="1.68" ry="0.71"/>
<path fill="#680c80" d="
  M 151.46 72.65
  Q 151.65 73.19 151.39 73.78
  A 0.48 0.48 0.0 0 1 150.56 73.87
  L 149.18 72.04
  A 0.39 0.39 0.0 0 1 149.45 71.42
  Q 150.96 71.28 151.46 72.65
  Z"
/>
<rect fill="#680c80" x="-1.34" y="-3.12" transform="translate(26.48,76.18) rotate(-37.7)" width="2.68" height="6.24" rx="1.28"/>
<path fill="#680c80" d="
  M 34.79 80.19
  Q 34.28 79.43 33.55 78.88
  Q 33.05 78.51 33.33 77.95
  L 33.53 77.55
  A 0.46 0.45 15.2 0 0 33.15 76.89
  Q 31.71 76.82 30.69 75.87
  Q 30.27 75.47 30.72 75.10
  L 31.24 74.68
  Q 31.64 74.35 32.15 74.46
  C 34.38 74.93 39.84 75.26 41.47 76.48
  A 1.71 1.71 0.0 0 1 41.21 79.39
  L 38.49 80.75
  A 0.30 0.30 0.0 0 0 38.59 81.31
  C 41.34 81.64 42.97 82.17 42.74 85.39
  Q 42.47 89.16 41.35 92.85
  A 1.89 1.85 -7.3 0 1 40.52 93.90
  Q 38.07 95.34 36.54 93.24
  Q 36.26 92.86 35.86 93.11
  Q 34.66 93.87 33.64 92.88
  A 0.85 0.85 0.0 0 1 33.40 92.06
  Q 33.71 90.80 33.33 89.58
  A 0.87 0.86 81.2 0 0 32.51 88.97
  L 31.80 88.98
  Q 31.30 88.98 31.03 89.41
  Q 30.47 90.33 30.46 91.34
  A 1.36 1.36 0.0 0 1 28.85 92.67
  L 28.50 92.60
  A 0.89 0.88 -81.6 0 1 27.79 91.63
  Q 28.24 87.68 29.31 83.22
  Q 30.31 79.03 34.47 80.59
  Q 35.25 80.88 34.79 80.19
  Z
  M 36.24 77.48
  L 35.88 77.37
  Q 35.54 77.27 35.65 77.61
  Q 36.19 79.29 37.84 78.74
  A 0.52 0.51 -30.4 0 0 38.06 77.90
  Q 37.44 77.23 36.59 77.48
  Q 36.41 77.53 36.24 77.48
  Z
  M 32.51 83.62
  L 34.42 83.81
  A 0.46 0.46 0.0 0 0 34.84 83.63
  Q 35.15 83.21 34.96 82.86
  Q 34.81 82.58 34.34 82.47
  Q 33.04 82.18 32.28 82.98
  A 0.38 0.38 0.0 0 0 32.51 83.62
  Z
  M 39.67 85.05
  A 0.40 0.40 0.0 0 0 40.11 84.46
  Q 39.46 83.29 37.98 83.41
  Q 37.31 83.46 37.65 84.33
  Q 37.76 84.63 39.67 85.05
  Z
  M 33.98 86.18
  L 32.30 85.41
  Q 31.77 85.16 31.60 85.72
  Q 31.39 86.40 32.21 86.78
  Q 33.26 87.28 33.99 86.91
  Q 34.75 86.53 33.98 86.18
  Z
  M 37.04 87.95
  C 37.91 88.05 38.52 88.00 39.41 88.28
  Q 39.96 88.45 39.94 87.87
  Q 39.93 87.39 39.38 87.11
  Q 38.34 86.56 37.63 86.50
  Q 37.00 86.45 36.81 87.06
  L 36.69 87.41
  Q 36.54 87.89 37.04 87.95
  Z
  M 36.57 92.46
  C 37.41 91.77 37.75 91.80 38.70 91.43
  Q 39.00 91.32 39.00 91.00
  Q 38.99 90.86 38.99 90.71
  A 0.55 0.54 -84.5 0 0 38.54 90.16
  L 36.92 89.87
  Q 36.45 89.78 36.30 90.23
  Q 35.97 91.19 35.99 92.20
  Q 36.00 92.92 36.57 92.46
  Z"
/>
<path fill="#680c80" d="
  M 23.65 93.46
  Q 22.38 94.15 20.90 94.33
  A 1.21 1.21 0.0 0 1 19.80 92.38
  Q 20.77 91.16 22.39 91.25
  Q 22.99 91.28 23.11 90.68
  L 24.13 85.65
  A 1.24 1.23 11.0 0 0 23.14 84.19
  Q 22.12 84.00 21.54 83.20
  A 0.70 0.69 -33.1 0 1 21.76 82.19
  L 22.63 81.68
  Q 23.09 81.41 23.59 81.63
  L 26.33 82.83
  Q 26.79 83.03 26.74 83.52
  Q 26.69 83.98 26.77 84.43
  Q 26.85 84.93 26.77 85.43
  L 25.87 90.85
  A 0.83 0.82 -62.8 0 0 26.10 91.57
  Q 27.70 93.16 31.00 93.99
  Q 35.78 95.20 41.21 95.66
  A 1.02 1.02 0.0 0 1 42.12 96.90
  L 41.97 97.52
  Q 41.74 98.52 40.73 98.37
  Q 34.95 97.51 29.60 96.23
  C 27.54 95.74 26.18 94.79 24.56 93.54
  Q 24.13 93.20 23.65 93.46
  Z"
/>
<path fill="#680c80" d="
  M 52.85 93.67
  A 0.89 0.89 0.0 0 0 54.27 93.74
  Q 55.39 92.41 56.91 91.52
  Q 57.38 91.25 57.75 91.65
  C 58.45 92.40 58.54 93.13 57.89 94.00
  C 56.99 95.22 56.28 96.47 54.72 96.86
  C 47.50 98.70 48.69 86.98 49.89 82.74
  A 0.87 0.87 0.0 0 1 51.27 82.29
  L 51.55 82.51
  A 2.32 2.32 0.0 0 1 52.38 84.83
  C 51.76 87.59 51.14 91.17 52.85 93.67
  Z"
/>
<path fill="#680c80" d="
  M 85.19 89.75
  C 86.88 88.74 87.73 86.42 88.87 85.02
  Q 89.26 84.55 89.81 84.81
  Q 90.27 85.04 90.80 85.06
  Q 91.59 85.09 91.26 85.81
  L 89.53 89.47
  Q 89.37 89.82 89.75 89.87
  L 95.64 90.72
  A 1.24 1.24 0.0 0 1 95.93 93.09
  Q 95.41 93.30 94.97 93.32
  Q 94.49 93.35 94.29 93.78
  L 91.65 99.24
  Q 91.41 99.73 90.96 100.02
  Q 89.52 100.97 90.83 102.66
  Q 92.16 104.38 93.67 105.57
  A 1.53 1.53 0.0 0 1 92.21 108.21
  L 91.26 107.87
  A 0.30 0.25 -4.7 0 1 91.12 107.77
  L 88.36 103.97
  Q 88.02 103.51 87.51 103.77
  L 82.30 106.36
  Q 81.74 106.63 81.35 106.15
  L 80.94 105.63
  Q 80.63 105.25 80.14 105.21
  Q 78.57 105.10 77.18 105.60
  A 1.44 1.44 0.0 0 1 75.72 103.18
  Q 76.27 102.68 77.00 102.75
  A 1.30 1.29 11.1 0 0 78.39 101.82
  L 80.00 96.35
  Q 80.17 95.75 79.60 95.52
  L 79.18 95.35
  Q 78.51 95.08 78.24 95.75
  Q 76.37 100.45 73.25 104.43
  A 0.54 0.53 37.9 0 1 72.49 104.52
  L 71.64 103.85
  Q 71.17 103.48 71.37 102.91
  C 72.08 100.89 73.58 99.56 74.35 97.95
  Q 76.22 94.05 76.57 89.79
  Q 76.64 89.02 75.86 89.01
  Q 74.43 89.00 74.03 87.74
  Q 73.86 87.20 74.33 86.91
  Q 75.98 85.89 77.29 87.01
  A 0.77 0.77 0.0 0 0 78.56 86.49
  Q 78.74 84.57 79.81 83.06
  A 0.73 0.73 0.0 0 1 80.70 82.81
  Q 81.53 83.19 81.83 83.91
  C 82.21 84.80 81.61 85.63 81.46 86.62
  Q 81.36 87.26 81.95 87.54
  Q 82.83 87.95 83.79 88.06
  A 1.07 1.07 0.0 0 1 84.68 88.75
  Q 84.81 89.09 84.74 89.44
  Q 84.62 90.10 85.19 89.75
  Z
  M 79.93 92.43
  Q 80.60 92.44 81.04 92.88
  A 0.76 0.76 0.0 0 0 82.12 92.89
  L 84.00 91.02
  Q 84.68 90.34 83.73 90.46
  Q 82.15 90.66 80.71 89.96
  A 0.91 0.91 0.0 0 0 79.42 90.58
  L 79.21 91.52
  Q 79.02 92.41 79.93 92.43
  Z
  M 91.59 93.33
  A 0.38 0.38 0.0 0 0 91.32 92.79
  L 88.83 92.30
  A 0.38 0.38 0.0 0 0 88.38 92.70
  L 88.72 97.55
  A 0.38 0.38 0.0 0 0 89.44 97.69
  L 91.59 93.33
  Z
  M 81.19 101.58
  Q 80.79 102.62 80.41 103.74
  Q 80.12 104.60 80.91 104.15
  L 86.00 101.30
  Q 86.51 101.02 86.43 100.44
  L 85.58 93.88
  Q 85.56 93.72 85.40 93.78
  L 83.34 94.56
  Q 83.10 94.65 83.06 94.90
  Q 82.51 98.20 81.19 101.58
  Z"
/>
<path fill="#680c80" d="
  M 67.29 95.13
  L 66.80 95.09
  A 1.66 1.66 0.0 0 1 65.33 93.71
  Q 64.79 90.50 62.47 88.19
  A 1.13 1.12 -49.1 0 1 62.37 86.71
  L 62.86 86.06
  A 0.71 0.71 0.0 0 1 63.89 85.94
  Q 67.59 89.03 68.56 93.73
  Q 68.88 95.29 67.29 95.13
  Z"
/>
<path fill="#680c80" d="
  M 110.1916 94.6721
  A 3.08 3.08 0.0 0 1 106.5594 97.0762
  L 103.8940 96.5339
  A 3.08 3.08 0.0 0 1 101.4899 92.9017
  L 101.9484 90.6479
  A 3.08 3.08 0.0 0 1 105.5806 88.2438
  L 108.2460 88.7861
  A 3.08 3.08 0.0 0 1 110.6501 92.4183
  L 110.1916 94.6721
  Z
  M 104.80 91.42
  L 107.52 92.00
  A 0.47 0.47 0.0 0 0 108.06 91.37
  Q 107.84 90.79 106.98 90.59
  Q 105.42 90.22 104.71 91.17
  Q 104.56 91.37 104.80 91.42
  Z
  M 107.6394 94.5258
  A 1.86 0.72 10.4 0 0 105.9400 93.4818
  A 1.86 0.72 10.4 0 0 103.9806 93.8542
  A 1.86 0.72 10.4 0 0 105.6800 94.8982
  A 1.86 0.72 10.4 0 0 107.6394 94.5258
  Z"
/>
<path fill="#680c80" d="
  M 112.52 104.38
  Q 112.22 104.18 111.86 104.26
  Q 111.30 104.38 111.11 103.83
  C 110.21 101.25 111.44 98.36 111.88 95.88
  A 2.09 2.08 2.5 0 1 113.75 94.17
  Q 114.99 94.05 115.89 93.23
  A 0.41 0.41 0.0 0 0 115.61 92.51
  Q 113.73 92.52 112.29 91.83
  Q 111.63 91.51 111.50 90.98
  Q 111.35 90.35 111.98 89.96
  Q 112.42 89.70 112.92 89.79
  L 122.69 91.61
  Q 123.75 91.80 123.22 92.74
  L 122.89 93.33
  A 0.99 0.99 0.0 0 1 121.71 93.79
  Q 119.69 93.12 118.57 93.60
  Q 117.30 94.14 118.58 94.64
  L 120.27 95.31
  A 1.57 1.56 11.4 0 1 121.25 96.77
  Q 121.21 101.40 119.01 105.39
  Q 118.74 105.87 118.19 105.81
  L 117.71 105.76
  Q 117.04 105.68 117.43 106.23
  C 118.37 107.57 119.74 106.97 119.96 109.35
  Q 120.01 109.91 119.46 109.98
  L 119.02 110.05
  A 0.35 0.34 -22.5 0 0 118.79 110.60
  Q 119.04 110.95 119.40 111.15
  Q 119.82 111.40 119.76 111.88
  Q 119.60 113.23 118.24 113.03
  C 111.51 112.05 105.04 111.29 101.32 106.44
  A 0.60 0.60 0.0 0 0 100.25 106.69
  C 99.98 108.02 98.86 110.16 97.12 109.08
  Q 96.63 108.78 96.80 108.24
  Q 97.57 105.79 99.12 103.77
  Q 99.41 103.40 99.50 102.93
  Q 99.74 101.56 100.75 100.56
  A 0.58 0.58 0.0 0 1 101.48 100.50
  L 102.81 101.43
  A 0.38 0.38 0.0 0 1 102.84 102.02
  Q 101.84 102.91 101.99 104.25
  A 0.42 0.41 62.3 0 0 102.71 104.48
  Q 103.59 103.46 103.52 102.11
  Q 103.50 101.66 103.74 101.28
  Q 104.00 100.87 103.78 100.49
  Q 103.61 100.20 103.13 100.08
  Q 101.17 99.57 99.40 98.97
  A 0.66 0.65 -63.9 0 1 99.07 97.99
  L 99.31 97.64
  Q 99.79 96.92 100.64 97.08
  L 109.30 98.74
  Q 110.18 98.91 110.14 99.81
  L 110.12 100.30
  Q 110.08 101.21 109.19 101.06
  L 106.87 100.66
  Q 106.31 100.57 106.23 101.13
  L 106.10 102.03
  Q 106.02 102.56 106.55 102.52
  Q 107.79 102.43 108.86 103.24
  Q 109.24 103.53 109.12 103.99
  L 109.01 104.42
  Q 108.86 104.96 108.30 105.00
  Q 107.37 105.07 106.51 104.73
  A 0.73 0.73 0.0 0 0 105.51 105.31
  L 105.40 106.23
  Q 105.30 106.99 105.99 107.31
  L 108.34 108.43
  Q 108.80 108.64 108.77 108.14
  C 108.66 106.10 110.84 105.39 112.43 104.94
  Q 113.08 104.75 112.52 104.38
  Z
  M 118.8152 97.4246
  A 2.35 0.57 12.4 0 0 116.6424 96.3633
  A 2.35 0.57 12.4 0 0 114.2248 96.4154
  A 2.35 0.57 12.4 0 0 116.3976 97.4767
  A 2.35 0.57 12.4 0 0 118.8152 97.4246
  Z
  M 118.0071 100.1159
  A 0.52 0.52 0.0 0 0 117.5864 99.5128
  L 114.2981 98.9271
  A 0.52 0.52 0.0 0 0 113.6950 99.3478
  L 113.6529 99.5841
  A 0.52 0.52 0.0 0 0 114.0736 100.1872
  L 117.3619 100.7729
  A 0.52 0.52 0.0 0 0 117.9650 100.3522
  L 118.0071 100.1159
  Z
  M 113.44 102.20
  C 114.33 103.24 116.20 104.01 117.45 103.29
  A 0.33 0.33 0.0 0 0 117.36 102.68
  L 113.70 101.79
  Q 112.94 101.61 113.44 102.20
  Z
  M 114.02 105.29
  Q 113.79 105.10 113.52 105.07
  Q 112.94 105.02 113.39 105.40
  Q 113.79 105.74 114.05 106.25
  A 0.64 0.64 0.0 0 1 113.76 107.10
  L 111.31 108.31
  Q 109.83 109.04 111.46 109.29
  L 117.23 110.18
  Q 118.32 110.35 117.52 109.59
  Q 115.32 107.48 115.63 105.77
  Q 115.73 105.21 115.16 105.27
  Q 114.96 105.29 114.80 105.37
  Q 114.38 105.58 114.02 105.29
  Z"
/>
<path fill="#680c80" d="
  M 139.10 94.69
  A 0.74 0.74 0.0 0 1 139.70 95.55
  L 138.70 101.02
  A 9.10 0.92 -79.7 0 1 136.17 109.81
  L 134.58 109.52
  A 9.10 0.92 -79.7 0 1 135.30 100.40
  L 136.29 94.93
  A 0.74 0.74 0.0 0 1 137.15 94.34
  L 139.10 94.69
  Z"
/>
<circle fill="#680c80" cx="134.59" cy="113.80" r="2.03"/>
</svg>
