<?xml version="1.0" encoding="UTF-8" standalone="no"?>
<!DOCTYPE svg PUBLIC "-//W3C//DTD SVG 1.1//EN" "http://www.w3.org/Graphics/SVG/1.1/DTD/svg11.dtd">
<svg xmlns="http://www.w3.org/2000/svg" version="1.1" viewBox="0.00 0.00 192.00 190.00">
<g stroke-width="2.00" fill="none" stroke-linecap="butt">
<path stroke="#ffc850" vector-effect="non-scaling-stroke" d="
  M 191.08 0.00
  Q 185.11 6.40 179.04 12.30
  Q 178.74 12.59 178.96 12.94"
/>
<path stroke="#ffc850" vector-effect="non-scaling-stroke" d="
  M 15.90 173.97
  Q 6.85 182.65 1.11 188.60
  Q 0.90 188.82 1.22 189.48"
/>
<path stroke="#aa837a" vector-effect="non-scaling-stroke" d="
  M 130.30 23.61
  Q 129.89 23.47 129.46 23.53
  Q 128.95 23.61 128.74 24.08
  C 128.47 24.69 128.68 25.39 129.17 25.90
  Q 132.33 29.14 135.51 32.26
  Q 136.54 33.26 137.57 32.26
  L 137.79 32.05
  A 0.98 0.98 0.0 0 0 137.80 30.65
  C 135.73 28.60 130.28 24.59 134.36 21.57
  Q 135.34 20.85 134.39 20.09
  L 134.12 19.88
  A 1.26 1.25 41.7 0 0 132.45 19.97
  Q 131.10 21.33 130.89 23.24
  Q 130.83 23.79 130.30 23.61"
/>
<path stroke="#aa837a" vector-effect="non-scaling-stroke" d="
  M 124.43 37.52
  L 128.45 33.55
  Q 129.26 32.75 128.65 31.80
  C 126.31 28.09 120.42 30.11 119.49 33.76
  C 118.57 37.35 120.93 40.27 124.04 41.85
  C 127.80 43.76 131.54 39.39 131.93 35.96
  Q 132.08 34.58 130.69 34.46
  L 130.39 34.44
  A 0.87 0.87 0.0 0 0 129.45 35.41
  Q 129.69 37.62 128.00 39.05
  A 2.64 2.62 -55.0 0 1 125.40 39.52
  L 124.82 39.32
  Q 123.20 38.74 124.43 37.52"
/>
<path stroke="#aa837a" vector-effect="non-scaling-stroke" d="
  M 110.13 42.67
  L 109.31 43.53
  Q 108.88 43.98 109.31 44.44
  L 109.93 45.10
  A 0.54 0.53 48.5 0 0 110.67 45.15
  L 111.72 44.30
  Q 112.17 43.93 112.58 44.35
  L 118.34 50.10
  A 1.02 1.01 44.8 0 0 119.77 50.10
  L 120.02 49.85
  A 1.27 1.27 0.0 0 0 120.02 48.05
  L 114.34 42.37
  Q 113.93 41.96 114.35 41.56
  L 115.24 40.74
  Q 117.55 38.59 114.33 38.61
  Q 113.71 38.62 112.89 39.94
  A 0.58 0.57 39.1 0 1 111.98 40.03
  L 110.41 38.36
  Q 109.87 37.79 110.39 37.19
  L 111.33 36.11
  Q 111.63 35.77 111.57 35.32
  Q 111.38 33.80 110.07 34.35
  Q 107.13 35.57 107.56 38.91
  Q 107.62 39.35 107.93 39.66
  L 110.13 41.92
  Q 110.49 42.29 110.13 42.67"
/>
<path stroke="#aa837a" vector-effect="non-scaling-stroke" d="
  M 102.14 50.66
  L 101.31 51.52
  Q 100.87 51.98 101.31 52.43
  L 101.89 53.06
  A 0.64 0.63 47.4 0 0 102.76 53.10
  L 103.71 52.30
  Q 104.16 51.92 104.58 52.34
  L 110.35 58.10
  A 1.00 1.00 0.0 0 0 111.77 58.10
  L 112.02 57.85
  A 1.27 1.26 -45.2 0 0 112.02 56.06
  L 106.34 50.37
  Q 105.93 49.96 106.35 49.57
  L 107.76 48.25
  A 0.82 0.81 -22.8 0 0 108.01 47.64
  Q 108.00 47.03 107.53 46.76
  C 106.57 46.21 105.38 47.16 104.89 47.92
  A 0.59 0.58 39.3 0 1 103.97 48.01
  L 102.48 46.44
  Q 101.86 45.79 102.45 45.12
  L 103.40 44.03
  A 0.99 0.97 -38.4 0 0 103.54 42.93
  Q 103.39 42.64 103.17 42.42
  A 0.77 0.76 55.9 0 0 102.32 42.25
  Q 99.43 43.50 99.47 46.55
  Q 99.48 47.23 99.96 47.71
  L 102.13 49.91
  Q 102.50 50.28 102.14 50.66"
/>
<path stroke="#aa837a" vector-effect="non-scaling-stroke" d="
  M 103.4789 66.8489
  A 6.37 5.87 42.2 0 0 102.7030 58.2215
  A 6.37 5.87 42.2 0 0 94.0411 58.2911
  A 6.37 5.87 42.2 0 0 94.8170 66.9185
  A 6.37 5.87 42.2 0 0 103.4789 66.8489"
/>
<path stroke="#aa837a" vector-effect="non-scaling-stroke" d="
  M 77.5900 68.8213
  A 1.36 1.36 0.0 0 0 75.6667 68.8180
  L 75.6100 68.8744
  A 1.36 1.36 0.0 0 0 75.6066 70.7978
  L 86.3500 81.5787
  A 1.36 1.36 0.0 0 0 88.2733 81.5820
  L 88.3300 81.5256
  A 1.36 1.36 0.0 0 0 88.3334 79.6022
  L 77.5900 68.8213"
/>
<path stroke="#aa837a" vector-effect="non-scaling-stroke" d="
  M 76.29 83.59
  Q 75.15 83.94 73.89 85.87
  C 69.89 91.93 78.24 95.38 80.93 88.08
  Q 81.12 87.58 81.64 87.55
  Q 83.81 87.42 83.99 85.16
  Q 84.04 84.57 83.47 84.73
  L 82.56 84.98
  Q 82.08 85.11 81.72 84.75
  C 79.99 83.03 77.36 79.65 75.00 79.06
  Q 74.48 78.93 74.01 79.18
  Q 70.54 80.99 69.08 84.62
  Q 68.64 85.71 69.73 86.14
  L 69.99 86.25
  A 0.93 0.92 20.5 0 0 71.20 85.70
  Q 71.97 83.51 73.74 82.05
  Q 74.48 81.44 75.26 81.99
  L 76.41 82.83
  Q 77.12 83.33 76.29 83.59"
/>
<path stroke="#aa837a" vector-effect="non-scaling-stroke" d="
  M 61.95 87.00
  A 1.69 1.69 0.0 0 0 60.26 85.31
  A 1.69 1.69 0.0 0 0 58.57 87.00
  A 1.69 1.69 0.0 0 0 60.26 88.69
  A 1.69 1.69 0.0 0 0 61.95 87.00"
/>
<path stroke="#aa837a" vector-effect="non-scaling-stroke" d="
  M 71.6678 98.1697
  A 1.22 1.22 0.0 0 0 71.6647 96.4444
  L 64.8505 89.6539
  A 1.22 1.22 0.0 0 0 63.1252 89.6569
  L 63.0122 89.7703
  A 1.22 1.22 0.0 0 0 63.0153 91.4956
  L 69.8295 98.2861
  A 1.22 1.22 0.0 0 0 71.5548 98.2831
  L 71.6678 98.1697"
/>
<path stroke="#aa837a" vector-effect="non-scaling-stroke" d="
  M 63.50 102.25
  C 61.98 109.82 51.00 100.43 58.87 97.86
  Q 59.60 97.63 59.83 97.25
  Q 60.18 96.68 59.92 95.98
  A 0.78 0.78 0.0 0 0 59.24 95.48
  C 54.37 95.23 52.15 100.96 54.82 104.72
  C 58.07 109.27 65.21 108.51 66.01 102.42
  A 0.81 0.81 0.0 0 0 65.24 101.50
  L 64.51 101.46
  Q 63.67 101.42 63.50 102.25"
/>
<path stroke="#aa837a" vector-effect="non-scaling-stroke" d="
  M 47.73 114.20
  L 51.99 110.01
  Q 53.90 108.14 51.47 107.03
  L 50.00 106.37
  A 4.18 4.18 0.0 0 0 45.55 107.01
  Q 41.27 110.71 44.07 114.90
  C 47.81 120.49 54.90 118.92 55.65 112.27
  A 1.31 1.30 -66.9 0 0 55.19 111.12
  Q 53.55 109.77 53.20 111.84
  C 52.67 114.99 51.69 116.72 47.98 115.34
  A 0.69 0.69 0.0 0 1 47.73 114.20"
/>
<path stroke="#aa837a" vector-effect="non-scaling-stroke" d="
  M 40.09 128.63
  C 45.24 128.55 45.37 121.66 42.47 118.78
  C 39.41 115.74 32.85 116.25 32.63 121.41
  Q 32.61 121.83 32.19 121.78
  L 31.66 121.70
  A 1.24 1.24 0.0 0 0 30.62 123.80
  L 40.95 134.15
  Q 41.87 135.07 42.80 134.17
  L 43.08 133.90
  A 1.04 1.04 0.0 0 0 43.11 132.43
  L 39.89 129.09
  Q 39.45 128.64 40.09 128.63"
/>
<path stroke="#aa837a" vector-effect="non-scaling-stroke" d="
  M 24.23 132.89
  Q 23.59 131.81 24.85 130.82
  Q 25.73 130.13 26.76 129.66
  Q 27.32 129.41 27.47 129.06
  Q 27.72 128.47 27.36 127.88
  A 0.90 0.88 71.6 0 0 26.52 127.45
  C 23.11 127.76 19.68 132.36 22.67 135.30
  C 25.64 138.23 27.78 133.37 30.28 133.61
  Q 30.97 133.68 31.27 134.33
  C 32.06 136.06 29.25 137.56 27.94 137.81
  Q 26.79 138.04 26.99 139.19
  L 27.06 139.57
  Q 27.22 140.49 28.13 140.27
  Q 32.80 139.17 33.89 135.54
  Q 34.83 132.42 32.16 131.36
  C 29.93 130.47 27.55 131.91 25.73 133.20
  A 1.04 1.04 0.0 0 1 24.23 132.89"
/>
<path stroke="#aa837a" vector-effect="non-scaling-stroke" d="
  M 122.38 36.65
  L 125.93 33.10
  A 0.17 0.17 0.0 0 0 125.93 32.86
  L 125.86 32.79
  A 2.55 2.40 -45.0 0 0 122.36 32.90
  L 122.18 33.08
  A 2.55 2.40 -45.0 0 0 122.07 36.58
  L 122.14 36.65
  A 0.17 0.17 0.0 0 0 122.38 36.65"
/>
<path stroke="#aa837a" vector-effect="non-scaling-stroke" d="
  M 101.6595 65.2068
  A 3.94 3.17 42.4 0 0 100.8875 60.2091
  A 3.94 3.17 42.4 0 0 95.8405 59.8932
  A 3.94 3.17 42.4 0 0 96.6125 64.8909
  A 3.94 3.17 42.4 0 0 101.6595 65.2068"
/>
<path stroke="#aa837a" vector-effect="non-scaling-stroke" d="
  M 75.7922 89.6432
  A 2.66 1.58 121.7 0 0 78.5343 88.2102
  A 2.66 1.58 121.7 0 0 78.5878 85.1168
  A 2.66 1.58 121.7 0 0 75.8457 86.5498
  A 2.66 1.58 121.7 0 0 75.7922 89.6432"
/>
<path stroke="#aa837a" vector-effect="non-scaling-stroke" d="
  M 46.13 112.88
  L 49.71 109.36
  A 0.18 0.18 0.0 0 0 49.71 109.10
  L 49.65 109.04
  A 2.55 2.41 -44.5 0 0 46.14 109.11
  L 45.94 109.30
  A 2.55 2.41 -44.5 0 0 45.81 112.81
  L 45.87 112.87
  A 0.18 0.18 0.0 0 0 46.13 112.88"
/>
<path stroke="#aa837a" vector-effect="non-scaling-stroke" d="
  M 40.9847 125.9626
  A 3.98 3.31 46.2 0 0 40.6190 120.7990
  A 3.98 3.31 46.2 0 0 35.4753 120.2174
  A 3.98 3.31 46.2 0 0 35.8410 125.3810
  A 3.98 3.31 46.2 0 0 40.9847 125.9626"
/>
</g>
<path fill="#ffe09f" d="
  M 119.55 0.00
  L 191.08 0.00
  Q 185.11 6.40 179.04 12.30
  Q 178.74 12.59 178.96 12.94
  Q 178.38 12.94 178.16 13.16
  Q 120.47 70.18 15.90 173.97
  Q 6.85 182.65 1.11 188.60
  Q 0.90 188.82 1.22 189.48
  Q 0.62 189.79 0.00 189.64
  L 0.00 119.79
  L 119.55 0.00
  Z
  M 130.30 23.61
  Q 129.89 23.47 129.46 23.53
  Q 128.95 23.61 128.74 24.08
  C 128.47 24.69 128.68 25.39 129.17 25.90
  Q 132.33 29.14 135.51 32.26
  Q 136.54 33.26 137.57 32.26
  L 137.79 32.05
  A 0.98 0.98 0.0 0 0 137.80 30.65
  C 135.73 28.60 130.28 24.59 134.36 21.57
  Q 135.34 20.85 134.39 20.09
  L 134.12 19.88
  A 1.26 1.25 41.7 0 0 132.45 19.97
  Q 131.10 21.33 130.89 23.24
  Q 130.83 23.79 130.30 23.61
  Z
  M 124.43 37.52
  L 128.45 33.55
  Q 129.26 32.75 128.65 31.80
  C 126.31 28.09 120.42 30.11 119.49 33.76
  C 118.57 37.35 120.93 40.27 124.04 41.85
  C 127.80 43.76 131.54 39.39 131.93 35.96
  Q 132.08 34.58 130.69 34.46
  L 130.39 34.44
  A 0.87 0.87 0.0 0 0 129.45 35.41
  Q 129.69 37.62 128.00 39.05
  A 2.64 2.62 -55.0 0 1 125.40 39.52
  L 124.82 39.32
  Q 123.20 38.74 124.43 37.52
  Z
  M 110.13 42.67
  L 109.31 43.53
  Q 108.88 43.98 109.31 44.44
  L 109.93 45.10
  A 0.54 0.53 48.5 0 0 110.67 45.15
  L 111.72 44.30
  Q 112.17 43.93 112.58 44.35
  L 118.34 50.10
  A 1.02 1.01 44.8 0 0 119.77 50.10
  L 120.02 49.85
  A 1.27 1.27 0.0 0 0 120.02 48.05
  L 114.34 42.37
  Q 113.93 41.96 114.35 41.56
  L 115.24 40.74
  Q 117.55 38.59 114.33 38.61
  Q 113.71 38.62 112.89 39.94
  A 0.58 0.57 39.1 0 1 111.98 40.03
  L 110.41 38.36
  Q 109.87 37.79 110.39 37.19
  L 111.33 36.11
  Q 111.63 35.77 111.57 35.32
  Q 111.38 33.80 110.07 34.35
  Q 107.13 35.57 107.56 38.91
  Q 107.62 39.35 107.93 39.66
  L 110.13 41.92
  Q 110.49 42.29 110.13 42.67
  Z
  M 102.14 50.66
  L 101.31 51.52
  Q 100.87 51.98 101.31 52.43
  L 101.89 53.06
  A 0.64 0.63 47.4 0 0 102.76 53.10
  L 103.71 52.30
  Q 104.16 51.92 104.58 52.34
  L 110.35 58.10
  A 1.00 1.00 0.0 0 0 111.77 58.10
  L 112.02 57.85
  A 1.27 1.26 -45.2 0 0 112.02 56.06
  L 106.34 50.37
  Q 105.93 49.96 106.35 49.57
  L 107.76 48.25
  A 0.82 0.81 -22.8 0 0 108.01 47.64
  Q 108.00 47.03 107.53 46.76
  C 106.57 46.21 105.38 47.16 104.89 47.92
  A 0.59 0.58 39.3 0 1 103.97 48.01
  L 102.48 46.44
  Q 101.86 45.79 102.45 45.12
  L 103.40 44.03
  A 0.99 0.97 -38.4 0 0 103.54 42.93
  Q 103.39 42.64 103.17 42.42
  A 0.77 0.76 55.9 0 0 102.32 42.25
  Q 99.43 43.50 99.47 46.55
  Q 99.48 47.23 99.96 47.71
  L 102.13 49.91
  Q 102.50 50.28 102.14 50.66
  Z
  M 103.4789 66.8489
  A 6.37 5.87 42.2 0 0 102.7030 58.2215
  A 6.37 5.87 42.2 0 0 94.0411 58.2911
  A 6.37 5.87 42.2 0 0 94.8170 66.9185
  A 6.37 5.87 42.2 0 0 103.4789 66.8489
  Z
  M 77.5900 68.8213
  A 1.36 1.36 0.0 0 0 75.6667 68.8180
  L 75.6100 68.8744
  A 1.36 1.36 0.0 0 0 75.6066 70.7978
  L 86.3500 81.5787
  A 1.36 1.36 0.0 0 0 88.2733 81.5820
  L 88.3300 81.5256
  A 1.36 1.36 0.0 0 0 88.3334 79.6022
  L 77.5900 68.8213
  Z
  M 76.29 83.59
  Q 75.15 83.94 73.89 85.87
  C 69.89 91.93 78.24 95.38 80.93 88.08
  Q 81.12 87.58 81.64 87.55
  Q 83.81 87.42 83.99 85.16
  Q 84.04 84.57 83.47 84.73
  L 82.56 84.98
  Q 82.08 85.11 81.72 84.75
  C 79.99 83.03 77.36 79.65 75.00 79.06
  Q 74.48 78.93 74.01 79.18
  Q 70.54 80.99 69.08 84.62
  Q 68.64 85.71 69.73 86.14
  L 69.99 86.25
  A 0.93 0.92 20.5 0 0 71.20 85.70
  Q 71.97 83.51 73.74 82.05
  Q 74.48 81.44 75.26 81.99
  L 76.41 82.83
  Q 77.12 83.33 76.29 83.59
  Z
  M 61.95 87.00
  A 1.69 1.69 0.0 0 0 60.26 85.31
  A 1.69 1.69 0.0 0 0 58.57 87.00
  A 1.69 1.69 0.0 0 0 60.26 88.69
  A 1.69 1.69 0.0 0 0 61.95 87.00
  Z
  M 71.6678 98.1697
  A 1.22 1.22 0.0 0 0 71.6647 96.4444
  L 64.8505 89.6539
  A 1.22 1.22 0.0 0 0 63.1252 89.6569
  L 63.0122 89.7703
  A 1.22 1.22 0.0 0 0 63.0153 91.4956
  L 69.8295 98.2861
  A 1.22 1.22 0.0 0 0 71.5548 98.2831
  L 71.6678 98.1697
  Z
  M 63.50 102.25
  C 61.98 109.82 51.00 100.43 58.87 97.86
  Q 59.60 97.63 59.83 97.25
  Q 60.18 96.68 59.92 95.98
  A 0.78 0.78 0.0 0 0 59.24 95.48
  C 54.37 95.23 52.15 100.96 54.82 104.72
  C 58.07 109.27 65.21 108.51 66.01 102.42
  A 0.81 0.81 0.0 0 0 65.24 101.50
  L 64.51 101.46
  Q 63.67 101.42 63.50 102.25
  Z
  M 47.73 114.20
  L 51.99 110.01
  Q 53.90 108.14 51.47 107.03
  L 50.00 106.37
  A 4.18 4.18 0.0 0 0 45.55 107.01
  Q 41.27 110.71 44.07 114.90
  C 47.81 120.49 54.90 118.92 55.65 112.27
  A 1.31 1.30 -66.9 0 0 55.19 111.12
  Q 53.55 109.77 53.20 111.84
  C 52.67 114.99 51.69 116.72 47.98 115.34
  A 0.69 0.69 0.0 0 1 47.73 114.20
  Z
  M 40.09 128.63
  C 45.24 128.55 45.37 121.66 42.47 118.78
  C 39.41 115.74 32.85 116.25 32.63 121.41
  Q 32.61 121.83 32.19 121.78
  L 31.66 121.70
  A 1.24 1.24 0.0 0 0 30.62 123.80
  L 40.95 134.15
  Q 41.87 135.07 42.80 134.17
  L 43.08 133.90
  A 1.04 1.04 0.0 0 0 43.11 132.43
  L 39.89 129.09
  Q 39.45 128.64 40.09 128.63
  Z
  M 24.23 132.89
  Q 23.59 131.81 24.85 130.82
  Q 25.73 130.13 26.76 129.66
  Q 27.32 129.41 27.47 129.06
  Q 27.72 128.47 27.36 127.88
  A 0.90 0.88 71.6 0 0 26.52 127.45
  C 23.11 127.76 19.68 132.36 22.67 135.30
  C 25.64 138.23 27.78 133.37 30.28 133.61
  Q 30.97 133.68 31.27 134.33
  C 32.06 136.06 29.25 137.56 27.94 137.81
  Q 26.79 138.04 26.99 139.19
  L 27.06 139.57
  Q 27.22 140.49 28.13 140.27
  Q 32.80 139.17 33.89 135.54
  Q 34.83 132.42 32.16 131.36
  C 29.93 130.47 27.55 131.91 25.73 133.20
  A 1.04 1.04 0.0 0 1 24.23 132.89
  Z"
/>
<path fill="#ffb000" d="
  M 191.08 0.00
  L 191.73 0.00
  L 191.70 12.39
  Q 191.70 12.95 191.14 12.95
  L 178.96 12.94
  Q 178.74 12.59 179.04 12.30
  Q 185.11 6.40 191.08 0.00
  Z"
/>
<path fill="#542555" d="
  M 130.89 23.24
  Q 131.10 21.33 132.45 19.97
  A 1.26 1.25 41.7 0 1 134.12 19.88
  L 134.39 20.09
  Q 135.34 20.85 134.36 21.57
  C 130.28 24.59 135.73 28.60 137.80 30.65
  A 0.98 0.98 0.0 0 1 137.79 32.05
  L 137.57 32.26
  Q 136.54 33.26 135.51 32.26
  Q 132.33 29.14 129.17 25.90
  C 128.68 25.39 128.47 24.69 128.74 24.08
  Q 128.95 23.61 129.46 23.53
  Q 129.89 23.47 130.30 23.61
  Q 130.83 23.79 130.89 23.24
  Z"
/>
<path fill="#542555" d="
  M 124.43 37.52
  Q 123.20 38.74 124.82 39.32
  L 125.40 39.52
  A 2.64 2.62 -55.0 0 0 128.00 39.05
  Q 129.69 37.62 129.45 35.41
  A 0.87 0.87 0.0 0 1 130.39 34.44
  L 130.69 34.46
  Q 132.08 34.58 131.93 35.96
  C 131.54 39.39 127.80 43.76 124.04 41.85
  C 120.93 40.27 118.57 37.35 119.49 33.76
  C 120.42 30.11 126.31 28.09 128.65 31.80
  Q 129.26 32.75 128.45 33.55
  L 124.43 37.52
  Z
  M 122.38 36.65
  L 125.93 33.10
  A 0.17 0.17 0.0 0 0 125.93 32.86
  L 125.86 32.79
  A 2.55 2.40 -45.0 0 0 122.36 32.90
  L 122.18 33.08
  A 2.55 2.40 -45.0 0 0 122.07 36.58
  L 122.14 36.65
  A 0.17 0.17 0.0 0 0 122.38 36.65
  Z"
/>
<path fill="#ffe09f" d="
  M 122.38 36.65
  A 0.17 0.17 0.0 0 1 122.14 36.65
  L 122.07 36.58
  A 2.55 2.40 -45.0 0 1 122.18 33.08
  L 122.36 32.90
  A 2.55 2.40 -45.0 0 1 125.86 32.79
  L 125.93 32.86
  A 0.17 0.17 0.0 0 1 125.93 33.10
  L 122.38 36.65
  Z"
/>
<path fill="#542555" d="
  M 110.13 41.92
  L 107.93 39.66
  Q 107.62 39.35 107.56 38.91
  Q 107.13 35.57 110.07 34.35
  Q 111.38 33.80 111.57 35.32
  Q 111.63 35.77 111.33 36.11
  L 110.39 37.19
  Q 109.87 37.79 110.41 38.36
  L 111.98 40.03
  A 0.58 0.57 39.1 0 0 112.89 39.94
  Q 113.71 38.62 114.33 38.61
  Q 117.55 38.59 115.24 40.74
  L 114.35 41.56
  Q 113.93 41.96 114.34 42.37
  L 120.02 48.05
  A 1.27 1.27 0.0 0 1 120.02 49.85
  L 119.77 50.10
  A 1.02 1.01 44.8 0 1 118.34 50.10
  L 112.58 44.35
  Q 112.17 43.93 111.72 44.30
  L 110.67 45.15
  A 0.54 0.53 48.5 0 1 109.93 45.10
  L 109.31 44.44
  Q 108.88 43.98 109.31 43.53
  L 110.13 42.67
  Q 110.49 42.29 110.13 41.92
  Z"
/>
<path fill="#542555" d="
  M 102.13 49.91
  L 99.96 47.71
  Q 99.48 47.23 99.47 46.55
  Q 99.43 43.50 102.32 42.25
  A 0.77 0.76 55.9 0 1 103.17 42.42
  Q 103.39 42.64 103.54 42.93
  A 0.99 0.97 -38.4 0 1 103.40 44.03
  L 102.45 45.12
  Q 101.86 45.79 102.48 46.44
  L 103.97 48.01
  A 0.59 0.58 39.3 0 0 104.89 47.92
  C 105.38 47.16 106.57 46.21 107.53 46.76
  Q 108.00 47.03 108.01 47.64
  A 0.82 0.81 -22.8 0 1 107.76 48.25
  L 106.35 49.57
  Q 105.93 49.96 106.34 50.37
  L 112.02 56.06
  A 1.27 1.26 -45.2 0 1 112.02 57.85
  L 111.77 58.10
  A 1.00 1.00 0.0 0 1 110.35 58.10
  L 104.58 52.34
  Q 104.16 51.92 103.71 52.30
  L 102.76 53.10
  A 0.64 0.63 47.4 0 1 101.89 53.06
  L 101.31 52.43
  Q 100.87 51.98 101.31 51.52
  L 102.14 50.66
  Q 102.50 50.28 102.13 49.91
  Z"
/>
<path fill="#542555" d="
  M 103.4789 66.8489
  A 6.37 5.87 42.2 0 1 94.8170 66.9185
  A 6.37 5.87 42.2 0 1 94.0411 58.2911
  A 6.37 5.87 42.2 0 1 102.7030 58.2215
  A 6.37 5.87 42.2 0 1 103.4789 66.8489
  Z
  M 101.6595 65.2068
  A 3.94 3.17 42.4 0 0 100.8875 60.2091
  A 3.94 3.17 42.4 0 0 95.8405 59.8932
  A 3.94 3.17 42.4 0 0 96.6125 64.8909
  A 3.94 3.17 42.4 0 0 101.6595 65.2068
  Z"
/>
<ellipse fill="#ffe09f" cx="0.00" cy="0.00" transform="translate(98.75,62.55) rotate(42.4)" rx="3.94" ry="3.17"/>
<rect fill="#542555" x="-1.40" y="-8.97" transform="translate(81.97,75.20) rotate(-44.9)" width="2.80" height="17.94" rx="1.36"/>
<path fill="#542555" d="
  M 76.29 83.59
  Q 77.12 83.33 76.41 82.83
  L 75.26 81.99
  Q 74.48 81.44 73.74 82.05
  Q 71.97 83.51 71.20 85.70
  A 0.93 0.92 20.5 0 1 69.99 86.25
  L 69.73 86.14
  Q 68.64 85.71 69.08 84.62
  Q 70.54 80.99 74.01 79.18
  Q 74.48 78.93 75.00 79.06
  C 77.36 79.65 79.99 83.03 81.72 84.75
  Q 82.08 85.11 82.56 84.98
  L 83.47 84.73
  Q 84.04 84.57 83.99 85.16
  Q 83.81 87.42 81.64 87.55
  Q 81.12 87.58 80.93 88.08
  C 78.24 95.38 69.89 91.93 73.89 85.87
  Q 75.15 83.94 76.29 83.59
  Z
  M 75.7922 89.6432
  A 2.66 1.58 121.7 0 0 78.5343 88.2102
  A 2.66 1.58 121.7 0 0 78.5878 85.1168
  A 2.66 1.58 121.7 0 0 75.8457 86.5498
  A 2.66 1.58 121.7 0 0 75.7922 89.6432
  Z"
/>
<ellipse fill="#ffe09f" cx="0.00" cy="0.00" transform="translate(77.19,87.38) rotate(121.7)" rx="2.66" ry="1.58"/>
<circle fill="#542555" cx="60.26" cy="87.00" r="1.69"/>
<rect fill="#542555" x="-6.03" y="-1.30" transform="translate(67.34,93.97) rotate(44.9)" width="12.06" height="2.60" rx="1.22"/>
<path fill="#542555" d="
  M 58.87 97.86
  C 51.00 100.43 61.98 109.82 63.50 102.25
  Q 63.67 101.42 64.51 101.46
  L 65.24 101.50
  A 0.81 0.81 0.0 0 1 66.01 102.42
  C 65.21 108.51 58.07 109.27 54.82 104.72
  C 52.15 100.96 54.37 95.23 59.24 95.48
  A 0.78 0.78 0.0 0 1 59.92 95.98
  Q 60.18 96.68 59.83 97.25
  Q 59.60 97.63 58.87 97.86
  Z"
/>
<path fill="#542555" d="
  M 47.73 114.20
  A 0.69 0.69 0.0 0 0 47.98 115.34
  C 51.69 116.72 52.67 114.99 53.20 111.84
  Q 53.55 109.77 55.19 111.12
  A 1.31 1.30 -66.9 0 1 55.65 112.27
  C 54.90 118.92 47.81 120.49 44.07 114.90
  Q 41.27 110.71 45.55 107.01
  A 4.18 4.18 0.0 0 1 50.00 106.37
  L 51.47 107.03
  Q 53.90 108.14 51.99 110.01
  L 47.73 114.20
  Z
  M 46.13 112.88
  L 49.71 109.36
  A 0.18 0.18 0.0 0 0 49.71 109.10
  L 49.65 109.04
  A 2.55 2.41 -44.5 0 0 46.14 109.11
  L 45.94 109.30
  A 2.55 2.41 -44.5 0 0 45.81 112.81
  L 45.87 112.87
  A 0.18 0.18 0.0 0 0 46.13 112.88
  Z"
/>
<path fill="#ffe09f" d="
  M 46.13 112.88
  A 0.18 0.18 0.0 0 1 45.87 112.87
  L 45.81 112.81
  A 2.55 2.41 -44.5 0 1 45.94 109.30
  L 46.14 109.11
  A 2.55 2.41 -44.5 0 1 49.65 109.04
  L 49.71 109.10
  A 0.18 0.18 0.0 0 1 49.71 109.36
  L 46.13 112.88
  Z"
/>
<path fill="#542555" d="
  M 40.09 128.63
  Q 39.45 128.64 39.89 129.09
  L 43.11 132.43
  A 1.04 1.04 0.0 0 1 43.08 133.90
  L 42.80 134.17
  Q 41.87 135.07 40.95 134.15
  L 30.62 123.80
  A 1.24 1.24 0.0 0 1 31.66 121.70
  L 32.19 121.78
  Q 32.61 121.83 32.63 121.41
  C 32.85 116.25 39.41 115.74 42.47 118.78
  C 45.37 121.66 45.24 128.55 40.09 128.63
  Z
  M 40.9847 125.9626
  A 3.98 3.31 46.2 0 0 40.6190 120.7990
  A 3.98 3.31 46.2 0 0 35.4753 120.2174
  A 3.98 3.31 46.2 0 0 35.8410 125.3810
  A 3.98 3.31 46.2 0 0 40.9847 125.9626
  Z"
/>
<ellipse fill="#ffe09f" cx="0.00" cy="0.00" transform="translate(38.23,123.09) rotate(46.2)" rx="3.98" ry="3.31"/>
<path fill="#542555" d="
  M 24.23 132.89
  A 1.04 1.04 0.0 0 0 25.73 133.20
  C 27.55 131.91 29.93 130.47 32.16 131.36
  Q 34.83 132.42 33.89 135.54
  Q 32.80 139.17 28.13 140.27
  Q 27.22 140.49 27.06 139.57
  L 26.99 139.19
  Q 26.79 138.04 27.94 137.81
  C 29.25 137.56 32.06 136.06 31.27 134.33
  Q 30.97 133.68 30.28 133.61
  C 27.78 133.37 25.64 138.23 22.67 135.30
  C 19.68 132.36 23.11 127.76 26.52 127.45
  A 0.90 0.88 71.6 0 1 27.36 127.88
  Q 27.72 128.47 27.47 129.06
  Q 27.32 129.41 26.76 129.66
  Q 25.73 130.13 24.85 130.82
  Q 23.59 131.81 24.23 132.89
  Z"
/>
<path fill="#ffb000" d="
  M 15.90 173.97
  L 15.95 188.95
  Q 15.95 189.49 15.42 189.49
  L 1.22 189.48
  Q 0.90 188.82 1.11 188.60
  Q 6.85 182.65 15.90 173.97
  Z"
/>
</svg>
