<svg xmlns="http://www.w3.org/2000/svg" xmlns:xlink="http://www.w3.org/1999/xlink" width="478.828" height="168.771" viewBox="0 0 478.828 168.771">
  <defs>
    <clipPath id="clip-path">
      <rect id="長方形_49521" data-name="長方形 49521" width="478.827" height="110.823" fill="#fff"/>
    </clipPath>
  </defs>
  <g id="グループ_38560" data-name="グループ 38560" transform="translate(-18461 18936.41)">
    <path id="パス_276063" data-name="パス 276063" d="M18.575-17.475H6.275a17.724,17.724,0,0,1-2.825-.15v2a18.458,18.458,0,0,1,2.8-.15H18.975a20.259,20.259,0,0,1-4.375,8.9A20.075,20.075,0,0,1,5.45-1.2,4.947,4.947,0,0,1,6.675.525a23.2,23.2,0,0,0,9.1-5.925c2.275-2.375,3.875-5.5,5.1-9.95l.05-.15a2.946,2.946,0,0,0,.875.125,2.849,2.849,0,0,0,2.85-2.85,2.838,2.838,0,0,0-2.825-2.825,2.849,2.849,0,0,0-2.85,2.85,2.649,2.649,0,0,0,.1.725ZM21.825-20A1.782,1.782,0,0,1,23.6-18.225a1.787,1.787,0,0,1-1.775,1.8,1.793,1.793,0,0,1-1.8-1.8A1.787,1.787,0,0,1,21.825-20ZM36.85-17a16.66,16.66,0,0,1,2.6-.125h8.4a16.66,16.66,0,0,1,2.6.125v-1.925a11.472,11.472,0,0,1-2.625.175h-8.35a11.472,11.472,0,0,1-2.625-.175ZM34.7-11.25a23.013,23.013,0,0,1,2.9-.125H50.65a15.4,15.4,0,0,1-4.05,6.55,17.16,17.16,0,0,1-7.425,3.8A5.438,5.438,0,0,1,40.25.7c6.475-2.175,9.925-5.375,12.05-11.2a7.251,7.251,0,0,1,.7-1.575l-.925-1.075a4.221,4.221,0,0,1-1.625.175H37.625a17.988,17.988,0,0,1-2.925-.15Zm47.375-8.6A20.985,20.985,0,0,1,77.3-15.125,35.2,35.2,0,0,1,64.325-8.65,5.788,5.788,0,0,1,65.3-6.975a39.081,39.081,0,0,0,9.65-4.375v9.5A13.031,13.031,0,0,1,74.8.75h2.175A16.608,16.608,0,0,1,76.85-1.9V-12.55a44.03,44.03,0,0,0,5.85-5.025,5.659,5.659,0,0,1,1.1-1.05ZM99.3-18.175a2.763,2.763,0,0,1,.025.4,19.828,19.828,0,0,1-.25,2.35A28.952,28.952,0,0,1,96.5-6.75,16.07,16.07,0,0,1,92.875-1.8a5.473,5.473,0,0,1,1.6,1.3c3.525-3.675,5.55-8.475,6.6-15.6a9.077,9.077,0,0,1,.325-1.7Zm7.175.375a10.867,10.867,0,0,1,.325,1.65c.975,6.4,3.475,12.175,6.8,15.7a5.406,5.406,0,0,1,1.55-1.4c-2.425-2.225-4.475-5.925-5.675-10.325a30.211,30.211,0,0,1-1.15-6Zm3.25-1.075A18.858,18.858,0,0,1,112.2-14.85l1.275-.725a18.522,18.522,0,0,0-2.5-3.925ZM112.6-20.15a19.591,19.591,0,0,1,2.475,3.975l1.25-.675a19.161,19.161,0,0,0-2.5-3.95Zm15.975,2.45a26.29,26.29,0,0,1,6.15,3.3l1.025-1.675a36.967,36.967,0,0,0-6.2-3.15ZM126.6-11.725A27.758,27.758,0,0,1,132.975-8.3l.975-1.675a38.136,38.136,0,0,0-6.35-3.275ZM127.45.25a5.868,5.868,0,0,1,.975-.275c.5-.1.95-.2,1.35-.275A28.556,28.556,0,0,0,136.1-2.45c4.4-2.175,7.45-5.575,9.625-10.775a7.538,7.538,0,0,1-1.55-1.325,18.616,18.616,0,0,1-3,5.6,16.466,16.466,0,0,1-7.5,5.575,21.62,21.62,0,0,1-6.725,1.55Zm28.975-8.825a27.31,27.31,0,0,1,3.1-.1h14.5a28.6,28.6,0,0,1,3.05.1V-10.6a19.718,19.718,0,0,1-3.025.125H159.525a17.685,17.685,0,0,1-3.1-.15Zm40.5-7h-6.1a16.072,16.072,0,0,1-2.9-.15v1.9a19.435,19.435,0,0,1,2.875-.125h6.125V-1.475a13.911,13.911,0,0,1-.15,2.625h2.05A15.1,15.1,0,0,1,198.7-1.5V-13.95h6.35a19.435,19.435,0,0,1,2.875.125v-1.9a16.4,16.4,0,0,1-2.925.15h-6.3V-17.2a14.406,14.406,0,0,1,.125-2.6h-2.05a11.165,11.165,0,0,1,.15,2.55Zm-5.4,3.925a12.764,12.764,0,0,1-.875,3.4,15.951,15.951,0,0,1-3.675,6.15,5.543,5.543,0,0,1,1.65,1.075A22.326,22.326,0,0,0,193-9.65l.125-.55.15-.5a2.991,2.991,0,0,1,.15-.425Zm10.675.5c.175.4.4.95.625,1.625a29.984,29.984,0,0,0,4.35,8.6A5.4,5.4,0,0,1,208.75-2.1a22.213,22.213,0,0,1-3.875-6.7,17.851,17.851,0,0,1-.925-2.825Zm4.5-10.7a2.844,2.844,0,0,0-2.85,2.825,2.849,2.849,0,0,0,2.85,2.85,2.844,2.844,0,0,0,2.825-2.85A2.806,2.806,0,0,0,206.7-21.85Zm0,1.05a1.782,1.782,0,0,1,1.775,1.775,1.787,1.787,0,0,1-1.775,1.8,1.793,1.793,0,0,1-1.8-1.8A1.787,1.787,0,0,1,206.7-20.8Zm15.925,1.5a14.7,14.7,0,0,1,.1,2.1v6.675a15.157,15.157,0,0,1-.1,2.1H224.7a13.24,13.24,0,0,1-.1-2.075v-6.725a13.659,13.659,0,0,1,.1-2.075Zm11.05,0a13.9,13.9,0,0,1,.1,2.2v2.825a31.085,31.085,0,0,1-.35,6.375,7.458,7.458,0,0,1-4,5.275,14.556,14.556,0,0,1-4.75,1.7A4.781,4.781,0,0,1,225.725.8a19.682,19.682,0,0,0,4.55-1.8,9.5,9.5,0,0,0,4.75-5.55c.45-1.45.625-3.65.625-7.625v-2.95a11.16,11.16,0,0,1,.125-2.175Zm19.9,1.6a26.29,26.29,0,0,1,6.15,3.3l1.025-1.675a36.967,36.967,0,0,0-6.2-3.15ZM251.6-11.725A27.758,27.758,0,0,1,257.975-8.3l.975-1.675a38.136,38.136,0,0,0-6.35-3.275ZM252.45.25a5.868,5.868,0,0,1,.975-.275c.5-.1.95-.2,1.35-.275A28.556,28.556,0,0,0,261.1-2.45c4.4-2.175,7.45-5.575,9.625-10.775a7.538,7.538,0,0,1-1.55-1.325,18.615,18.615,0,0,1-3,5.6,16.466,16.466,0,0,1-7.5,5.575,21.62,21.62,0,0,1-6.725,1.55Zm28.975-8.825a27.311,27.311,0,0,1,3.1-.1h14.5a28.6,28.6,0,0,1,3.05.1V-10.6a19.719,19.719,0,0,1-3.025.125H284.525a17.685,17.685,0,0,1-3.1-.15Z" transform="translate(18461 -18768.939)" fill="#fff" stroke="#fff" stroke-width="0.3"/>
    <g id="グループ_38559" data-name="グループ 38559" transform="translate(18461 -18936.41)">
      <g id="グループ_36265" data-name="グループ 36265" transform="translate(0 0)" clip-path="url(#clip-path)">
        <path id="パス_223922" data-name="パス 223922" d="M239.78,0h4.976a3.146,3.146,0,0,1,2.564,1.323l23.619,31.429a1.377,1.377,0,0,1-1.12,2.177H264.38a3.907,3.907,0,0,1-3.2-1.672l-3.615-5.182a3.982,3.982,0,0,0-3.29-1.7l-24.157.13a4.243,4.243,0,0,0-3.489,1.86l-3.36,4.948a3.691,3.691,0,0,1-3.055,1.62h-5.4a1.282,1.282,0,0,1-1.049-2.017l23.23-31.461A3.4,3.4,0,0,1,239.78,0m11.543,18.584L243.6,8.443a1.6,1.6,0,0,0-2.6,0L233.175,18.7a.99.99,0,0,0,.807,1.565l16.5-.042a1.033,1.033,0,0,0,.837-1.636" transform="translate(56.468 0.001)" fill="#fff"/>
        <path id="パス_223923" data-name="パス 223923" d="M326.84,33.682a1.247,1.247,0,0,1-1.248,1.248H286.971a31.984,31.984,0,0,1-5.331-.373,8.647,8.647,0,0,1-3.479-1.286,5.02,5.02,0,0,1-1.9-2.539,12.345,12.345,0,0,1-.573-4.061V8.258a12.35,12.35,0,0,1,.573-4.061,5.03,5.03,0,0,1,1.9-2.539A8.684,8.684,0,0,1,281.64.372,32.274,32.274,0,0,1,286.971,0h38.621a1.247,1.247,0,0,1,1.248,1.248V3.743a1.246,1.246,0,0,1-1.248,1.247H286.92a2.494,2.494,0,0,0-2.495,2.495V27.445a2.5,2.5,0,0,0,2.495,2.495h38.672a1.247,1.247,0,0,1,1.248,1.248Z" transform="translate(72.907 0.001)" fill="#fff"/>
        <path id="パス_223924" data-name="パス 223924" d="M133.844,0h3.743a2.494,2.494,0,0,1,2.495,2.495V32.433a2.5,2.5,0,0,1-2.495,2.5h-3.743a2.5,2.5,0,0,1-2.495-2.5V2.495A2.494,2.494,0,0,1,133.844,0" transform="translate(34.735 0.001)" fill="#fff"/>
        <path id="パス_223925" data-name="パス 223925" d="M162.053,0h5.015a5,5,0,0,1,3.967,1.959l17.217,22.52a2.12,2.12,0,0,0,3.439-.1L206.682,2.2A5,5,0,0,1,210.818,0h4.9a1.246,1.246,0,0,1,1.015,1.971L194.617,32.845a4.993,4.993,0,0,1-4.058,2.084H188.3a5,5,0,0,1-3.991-1.992L161.056,1.994a1.246,1.246,0,0,1,1-1.994" transform="translate(42.525 0.001)" fill="#fff"/>
        <path id="パス_223926" data-name="パス 223926" d="M65.027,3.078A2.952,2.952,0,0,1,67.983.13h41.431c3.491,0,6.933-.549,8.42.8,1.6,1.454,1.6,3.518,1.6,5.948v7.76c0,2.429-.577,3.93-1.357,4.684a3.8,3.8,0,0,1-2.151.918.859.859,0,0,0-.644,1.271L117,24.53l4.943,9.148a.861.861,0,0,1-.76,1.271h-6.031a2.392,2.392,0,0,1-2.118-1.28l-6.528-12.455a2.561,2.561,0,0,0-2.268-1.369H75.809a2.043,2.043,0,0,0-2.046,2.04V33.058a1.9,1.9,0,0,1-1.9,1.892H66.83a1.8,1.8,0,0,1-1.8-1.8Zm8.736,3.465v6.633a2.153,2.153,0,0,0,2.156,2.15h33.528a2.015,2.015,0,0,0,1.928-2.019l-.02-6.82a1.944,1.944,0,0,0-1.911-2.074H75.9a2.134,2.134,0,0,0-2.137,2.131" transform="translate(17.196 0.006)" fill="#fff"/>
        <path id="パス_223927" data-name="パス 223927" d="M0,2.9A2.881,2.881,0,0,1,2.882.02H45.133q5.28,0,7.743,1.557t2.464,5.212v7.785q0,3.655-2.464,5.212t-7.743,1.557H10.865a2.133,2.133,0,0,0-2.133,2.133v8.592a2.881,2.881,0,0,1-2.882,2.882H2.882A2.881,2.881,0,0,1,0,32.068ZM8.732,7.143V14.22a2.133,2.133,0,0,0,2.133,2.133H40.381a9.47,9.47,0,0,0,3.607-.508,2.209,2.209,0,0,0,1.144-2.267V7.785a2.21,2.21,0,0,0-1.144-2.267,9.47,9.47,0,0,0-3.607-.508H10.865A2.133,2.133,0,0,0,8.732,7.143" transform="translate(0 0.006)" fill="#fff"/>
        <path id="パス_223928" data-name="パス 223928" d="M363.62,13.952l15.27-12.746A5,5,0,0,1,382.144,0H389a1.245,1.245,0,0,1,.789,2.21L367.417,18.919a1.246,1.246,0,0,0-.458.965V32.437a2.493,2.493,0,0,1-2.495,2.492h-3.743a2.494,2.494,0,0,1-2.495-2.492V19.883a1.245,1.245,0,0,0-.458-.965L335.392,2.21a1.246,1.246,0,0,1,.79-2.21h6.861A5,5,0,0,1,346.3,1.206l15.268,12.746Z" transform="translate(88.573 0.001)" fill="#fff"/>
        <path id="パス_223929" data-name="パス 223929" d="M269.659,93.7a1.248,1.248,0,0,1-1.248,1.248H229.79a31.985,31.985,0,0,1-5.331-.373,8.653,8.653,0,0,1-3.48-1.286,5.011,5.011,0,0,1-1.894-2.539,12.312,12.312,0,0,1-.573-4.061V68.278a12.317,12.317,0,0,1,.573-4.061,5.021,5.021,0,0,1,1.894-2.539,8.691,8.691,0,0,1,3.48-1.286,32.275,32.275,0,0,1,5.331-.372h38.621a1.248,1.248,0,0,1,1.248,1.248v2.495a1.247,1.247,0,0,1-1.248,1.247H229.738a2.5,2.5,0,0,0-2.495,2.495V87.465a2.5,2.5,0,0,0,2.495,2.495h38.673a1.248,1.248,0,0,1,1.248,1.248Z" transform="translate(57.786 15.873)" fill="#fff"/>
        <path id="パス_223930" data-name="パス 223930" d="M306.438,73.972l15.27-12.746a4.994,4.994,0,0,1,3.253-1.206h6.862a1.245,1.245,0,0,1,.789,2.21L310.235,78.939a1.245,1.245,0,0,0-.458.965V92.457a2.493,2.493,0,0,1-2.495,2.492H303.54a2.494,2.494,0,0,1-2.495-2.492V79.9a1.245,1.245,0,0,0-.458-.965L278.21,62.23a1.246,1.246,0,0,1,.79-2.21h6.861a5,5,0,0,1,3.255,1.206l15.268,12.746Z" transform="translate(73.451 15.873)" fill="#fff"/>
        <path id="パス_223931" data-name="パス 223931" d="M184.373,91.206V93.7a1.248,1.248,0,0,1-1.248,1.248H144.118a31.986,31.986,0,0,1-5.331-.373,8.649,8.649,0,0,1-3.48-1.288,5.021,5.021,0,0,1-1.894-2.54,12.383,12.383,0,0,1-.573-4.066V62.515a2.494,2.494,0,0,1,2.495-2.495h3.743a2.5,2.5,0,0,1,2.495,2.495V87.464a2.5,2.5,0,0,0,2.495,2.495h39.056a1.248,1.248,0,0,1,1.248,1.248" transform="translate(35.13 15.873)" fill="#fff"/>
        <path id="パス_223932" data-name="パス 223932" d="M193.371,60.02h3.743a2.494,2.494,0,0,1,2.495,2.495V92.453a2.5,2.5,0,0,1-2.495,2.5h-3.743a2.5,2.5,0,0,1-2.495-2.5V62.515a2.494,2.494,0,0,1,2.495-2.495" transform="translate(50.477 15.873)" fill="#fff"/>
        <path id="パス_223933" data-name="パス 223933" d="M65.551,64.251a5.174,5.174,0,0,1,1.844-2.539,8.067,8.067,0,0,1,3.41-1.32,31.931,31.931,0,0,1,5.346-.372h32.906a31.973,31.973,0,0,1,5.346.372,8.087,8.087,0,0,1,3.41,1.32,4.922,4.922,0,0,1,1.8,2.539,13.5,13.5,0,0,1,.507,4.027V86.691a13.5,13.5,0,0,1-.507,4.027,4.912,4.912,0,0,1-1.8,2.539,8.054,8.054,0,0,1-3.41,1.32,31.838,31.838,0,0,1-5.346.372H76.151a31.8,31.8,0,0,1-5.346-.372,8.034,8.034,0,0,1-3.41-1.32,5.163,5.163,0,0,1-1.844-2.539A12.415,12.415,0,0,1,65,86.691V68.278a12.421,12.421,0,0,1,.554-4.027m46.144,21.606V68.632a2.528,2.528,0,0,0-2.531-2.524H76.216a2.792,2.792,0,0,0-2.8,2.788v17.1A2.871,2.871,0,0,0,76.3,88.861h32.385a3.009,3.009,0,0,0,3.013-3" transform="translate(17.188 15.873)" fill="#fff"/>
        <path id="パス_223934" data-name="パス 223934" d="M0,62.9A2.881,2.881,0,0,1,2.882,60.02H45.133q5.28,0,7.743,1.557t2.464,5.212v7.785q0,3.655-2.464,5.212t-7.743,1.557H10.865a2.133,2.133,0,0,0-2.133,2.133v8.592a2.881,2.881,0,0,1-2.882,2.882H2.882A2.881,2.881,0,0,1,0,92.068Zm8.732,4.241V74.22a2.133,2.133,0,0,0,2.133,2.133H40.381a9.47,9.47,0,0,0,3.607-.508,2.209,2.209,0,0,0,1.144-2.267V67.785a2.21,2.21,0,0,0-1.144-2.267,9.47,9.47,0,0,0-3.607-.508H10.865a2.133,2.133,0,0,0-2.133,2.133" transform="translate(0 15.873)" fill="#fff"/>
      </g>
    </g>
  </g>
</svg>
