<svg width="36" height="33" viewBox="0 0 36 33" fill="none" xmlns="http://www.w3.org/2000/svg">
<line y1="-1" x2="29.908" y2="-1" transform="matrix(0.76821 0.640198 -0.76821 0.640198 5.14307 2)" stroke="white" stroke-width="2"/>
<line opacity="0.9" y1="-1" x2="29.908" y2="-1" transform="matrix(0.76821 -0.640198 0.76821 0.640198 6.85303 21.1465)" stroke="white" stroke-width="2"/>
<path d="M6.4 31.3128C6.3 31.3861 6.14333 31.4761 5.93 31.5828C5.71667 31.6895 5.46333 31.7828 5.17 31.8628C4.88333 31.9361 4.56333 31.9695 4.21 31.9628C3.64333 31.9561 3.13333 31.8561 2.68 31.6628C2.22667 31.4628 1.84333 31.1961 1.53 30.8628C1.21667 30.5228 0.973333 30.1361 0.8 29.7028C0.633333 29.2628 0.55 28.7961 0.55 28.3028C0.55 27.7495 0.636667 27.2428 0.81 26.7828C0.983333 26.3228 1.23 25.9261 1.55 25.5928C1.87 25.2528 2.25 24.9895 2.69 24.8028C3.13 24.6161 3.61 24.5228 4.13 24.5228C4.59 24.5228 5 24.5861 5.36 24.7128C5.72667 24.8328 6.03333 24.9695 6.28 25.1228L5.82 26.2228C5.63333 26.0895 5.4 25.9595 5.12 25.8328C4.84 25.7061 4.52333 25.6428 4.17 25.6428C3.85 25.6428 3.54333 25.7095 3.25 25.8428C2.95667 25.9695 2.7 26.1528 2.48 26.3928C2.26 26.6261 2.08333 26.8995 1.95 27.2128C1.82333 27.5261 1.76 27.8661 1.76 28.2328C1.76 28.6128 1.81667 28.9628 1.93 29.2828C2.05 29.5961 2.21667 29.8695 2.43 30.1028C2.65 30.3361 2.91 30.5195 3.21 30.6528C3.51667 30.7795 3.85667 30.8428 4.23 30.8428C4.61 30.8428 4.94 30.7861 5.22 30.6728C5.50667 30.5528 5.73667 30.4195 5.91 30.2728L6.4 31.3128ZM7.95313 24.6028H9.12313V30.7628H12.7131V31.8828H7.95313V24.6028ZM13.6359 28.2528C13.6359 27.7461 13.7326 27.2695 13.9259 26.8228C14.1193 26.3761 14.3859 25.9795 14.7259 25.6328C15.0659 25.2861 15.4593 25.0161 15.9059 24.8228C16.3593 24.6228 16.8426 24.5228 17.3559 24.5228C17.8626 24.5228 18.3393 24.6228 18.7859 24.8228C19.2393 25.0161 19.6359 25.2861 19.9759 25.6328C20.3226 25.9795 20.5926 26.3761 20.7859 26.8228C20.9859 27.2695 21.0859 27.7461 21.0859 28.2528C21.0859 28.7661 20.9859 29.2461 20.7859 29.6928C20.5926 30.1395 20.3226 30.5361 19.9759 30.8828C19.6359 31.2228 19.2393 31.4895 18.7859 31.6828C18.3393 31.8695 17.8626 31.9628 17.3559 31.9628C16.8359 31.9628 16.3526 31.8695 15.9059 31.6828C15.4593 31.4895 15.0659 31.2261 14.7259 30.8928C14.3859 30.5528 14.1193 30.1595 13.9259 29.7128C13.7326 29.2595 13.6359 28.7728 13.6359 28.2528ZM14.8359 28.2528C14.8359 28.6128 14.8993 28.9495 15.0259 29.2628C15.1593 29.5761 15.3426 29.8528 15.5759 30.0928C15.8093 30.3261 16.0793 30.5095 16.3859 30.6428C16.6926 30.7761 17.0259 30.8428 17.3859 30.8428C17.7326 30.8428 18.0559 30.7761 18.3559 30.6428C18.6626 30.5095 18.9293 30.3261 19.1559 30.0928C19.3826 29.8528 19.5593 29.5761 19.6859 29.2628C19.8193 28.9495 19.8859 28.6128 19.8859 28.2528C19.8859 27.8861 19.8193 27.5461 19.6859 27.2328C19.5526 26.9195 19.3726 26.6428 19.1459 26.4028C18.9193 26.1628 18.6526 25.9761 18.3459 25.8428C18.0393 25.7095 17.7093 25.6428 17.3559 25.6428C17.0026 25.6428 16.6726 25.7095 16.3659 25.8428C16.0593 25.9761 15.7893 26.1628 15.5559 26.4028C15.3293 26.6428 15.1526 26.9228 15.0259 27.2428C14.8993 27.5561 14.8359 27.8928 14.8359 28.2528ZM26.4606 26.0828C26.2006 25.9495 25.924 25.8361 25.6306 25.7428C25.3373 25.6428 25.0573 25.5928 24.7906 25.5928C24.4306 25.5928 24.144 25.6728 23.9306 25.8328C23.724 25.9928 23.6206 26.2128 23.6206 26.4928C23.6206 26.6928 23.694 26.8695 23.8406 27.0228C23.9873 27.1695 24.174 27.2995 24.4006 27.4128C24.6273 27.5195 24.8673 27.6228 25.1206 27.7228C25.3406 27.8028 25.5573 27.8995 25.7706 28.0128C25.9906 28.1195 26.1873 28.2528 26.3606 28.4128C26.534 28.5728 26.6706 28.7728 26.7706 29.0128C26.8773 29.2461 26.9306 29.5361 26.9306 29.8828C26.9306 30.2628 26.834 30.6128 26.6406 30.9328C26.4473 31.2461 26.1706 31.4961 25.8106 31.6828C25.4506 31.8695 25.0106 31.9628 24.4906 31.9628C24.1906 31.9628 23.894 31.9295 23.6006 31.8628C23.314 31.7961 23.0406 31.7061 22.7806 31.5928C22.5206 31.4728 22.2806 31.3395 22.0606 31.1928L22.5806 30.2828C22.7406 30.4028 22.924 30.5128 23.1306 30.6128C23.3373 30.7128 23.5506 30.7928 23.7706 30.8528C23.9906 30.9061 24.1973 30.9328 24.3906 30.9328C24.5973 30.9328 24.8006 30.8995 25.0006 30.8328C25.2073 30.7661 25.3773 30.6561 25.5106 30.5028C25.6506 30.3495 25.7206 30.1461 25.7206 29.8928C25.7206 29.6861 25.6606 29.5095 25.5406 29.3628C25.4206 29.2161 25.264 29.0895 25.0706 28.9828C24.884 28.8695 24.6773 28.7695 24.4506 28.6828C24.224 28.5961 23.9906 28.4995 23.7506 28.3928C23.5173 28.2861 23.3006 28.1561 23.1006 28.0028C22.9006 27.8428 22.7373 27.6495 22.6106 27.4228C22.484 27.1961 22.4206 26.9161 22.4206 26.5828C22.4206 26.1828 22.514 25.8361 22.7006 25.5428C22.8873 25.2495 23.144 25.0161 23.4706 24.8428C23.804 24.6695 24.1873 24.5761 24.6206 24.5628C25.134 24.5628 25.5706 24.6261 25.9306 24.7528C26.2973 24.8728 26.6206 25.0195 26.9006 25.1928L26.4606 26.0828ZM28.4609 24.6028H33.2909V25.7228H29.6309V27.6628H32.8909V28.7928H29.6309V30.7628H33.4309V31.8828H28.4609V24.6028Z" fill="white"/>
</svg>
