<svg width="33" height="32" viewBox="0 0 33 32" fill="none" xmlns="http://www.w3.org/2000/svg">
<path d="M1.52133 27.3701V19.8301H1.53133L5.45133 25.3801L4.95133 25.2701L8.85133 19.8301H8.87133V27.3701H7.71133V22.4601L7.79133 23.0601L5.16133 26.7801H5.14133L2.45133 23.0601L2.65133 22.5101V27.3701H1.52133ZM10.927 20.0901H15.757V21.2101H12.097V23.1501H15.357V24.2801H12.097V26.2501H15.897V27.3701H10.927V20.0901ZM23.9691 27.6301L18.3791 22.2101L18.7191 22.3501L18.7491 27.3701H17.5691V19.8401H17.6191L23.1291 25.2601L22.8591 25.1801L22.8391 20.0901H23.9991V27.6301H23.9691ZM27.1166 24.7501C27.1166 25.0368 27.1899 25.3001 27.3366 25.5401C27.4899 25.7735 27.6899 25.9635 27.9366 26.1101C28.1832 26.2501 28.4599 26.3201 28.7666 26.3201C29.0866 26.3201 29.3732 26.2501 29.6266 26.1101C29.8799 25.9635 30.0799 25.7735 30.2266 25.5401C30.3732 25.3001 30.4466 25.0368 30.4466 24.7501V20.0901H31.5966V24.7801C31.5966 25.3068 31.4699 25.7735 31.2166 26.1801C30.9632 26.5801 30.6232 26.8935 30.1966 27.1201C29.7699 27.3401 29.2932 27.4501 28.7666 27.4501C28.2466 27.4501 27.7732 27.3401 27.3466 27.1201C26.9199 26.8935 26.5799 26.5801 26.3266 26.1801C26.0799 25.7735 25.9566 25.3068 25.9566 24.7801V20.0901H27.1166V24.7501Z" fill="#D4AB37"/>
<line x1="4.24316" y1="1" x2="28.2432" y2="1" stroke="#D4AB37" stroke-width="2"/>
<line x1="4.24316" y1="10.4814" x2="28.2432" y2="10.4814" stroke="#D4AB37" stroke-width="2"/>
</svg>
