<svg width="203" height="122" viewBox="0 0 203 122" fill="none" xmlns="http://www.w3.org/2000/svg">
<g id="Group 308">
<g id="Union">
<mask id="path-1-outside-1_124_1047" maskUnits="userSpaceOnUse" x="0.75" y="0.858398" width="202" height="121" fill="black">
<rect fill="white" x="0.75" y="0.858398" width="202" height="121"/>
<path fill-rule="evenodd" clip-rule="evenodd" d="M101.75 1.8584C156.978 1.8584 201.75 7.45484 201.75 14.3584V108.358C201.75 115.262 156.978 120.858 101.75 120.858C46.5215 120.858 1.75 115.262 1.75 108.358V14.3584C1.75 7.45484 46.5215 1.8584 101.75 1.8584Z"/>
</mask>
<path fill-rule="evenodd" clip-rule="evenodd" d="M101.75 1.8584C156.978 1.8584 201.75 7.45484 201.75 14.3584V108.358C201.75 115.262 156.978 120.858 101.75 120.858C46.5215 120.858 1.75 115.262 1.75 108.358V14.3584C1.75 7.45484 46.5215 1.8584 101.75 1.8584Z" fill="white"/>
<path d="M202.75 14.3584C202.75 12.9265 201.613 11.8248 200.24 10.9858C198.798 10.1051 196.736 9.2908 194.175 8.53384C189.037 7.01549 181.652 5.66072 172.585 4.52729C154.436 2.25865 129.392 0.858398 101.75 0.858398V2.8584C129.336 2.8584 154.293 4.25636 172.337 6.51184C181.366 7.64046 188.625 8.97922 193.608 10.4518C196.107 11.1903 197.975 11.9459 199.197 12.6926C200.488 13.4811 200.75 14.0644 200.75 14.3584H202.75ZM202.75 108.358V14.3584H200.75V108.358H202.75ZM200.75 108.358C200.75 108.652 200.488 109.236 199.197 110.024C197.975 110.771 196.107 111.526 193.608 112.265C188.625 113.738 181.366 115.076 172.337 116.205C154.293 118.46 129.336 119.858 101.75 119.858V121.858C129.392 121.858 154.436 120.458 172.585 118.19C181.652 117.056 189.037 115.701 194.175 114.183C196.736 113.426 198.798 112.612 200.24 111.731C201.613 110.892 202.75 109.79 202.75 108.358H200.75ZM101.75 119.858C74.1638 119.858 49.2072 118.46 31.1634 116.205C22.1344 115.076 14.8748 113.738 9.89191 112.265C7.39299 111.526 5.52526 110.771 4.30294 110.024C3.01215 109.236 2.75 108.652 2.75 108.358H0.75C0.75 109.79 1.88696 110.892 3.26035 111.731C4.70221 112.612 6.76372 113.426 9.32508 114.183C14.4627 115.701 21.8478 117.056 30.9153 118.19C49.0643 120.458 74.1077 121.858 101.75 121.858V119.858ZM0.75 14.3584V108.358H2.75V14.3584H0.75ZM101.75 0.858398C74.1077 0.858398 49.0643 2.25865 30.9153 4.52729C21.8478 5.66072 14.4627 7.01549 9.32508 8.53384C6.76372 9.2908 4.70221 10.1051 3.26035 10.9858C1.88696 11.8248 0.75 12.9265 0.75 14.3584H2.75C2.75 14.0644 3.01215 13.4811 4.30294 12.6926C5.52526 11.9459 7.39299 11.1903 9.89191 10.4518C14.8748 8.97922 22.1344 7.64046 31.1634 6.51184C49.2072 4.25636 74.1638 2.8584 101.75 2.8584V0.858398Z" fill="#CCCCCC" mask="url(#path-1-outside-1_124_1047)"/>
</g>
<path id="Ellipse 6" d="M101.75 27.3584C129.378 27.3584 154.4 25.9587 172.523 23.6934C181.581 22.5611 188.934 21.2104 194.033 19.7035C196.579 18.9511 198.592 18.1515 199.979 17.3043C201.332 16.4779 202.25 15.5058 202.25 14.3584C202.25 13.211 201.332 12.2389 199.979 11.4125C198.592 10.5653 196.579 9.76569 194.033 9.01334C188.934 7.50642 181.581 6.15566 172.523 5.02342C154.4 2.75808 129.378 1.3584 101.75 1.3584C74.1217 1.3584 49.1001 2.75808 30.9773 5.02342C21.9194 6.15566 14.5658 7.50642 9.46679 9.01334C6.92104 9.76569 4.90797 10.5653 3.521 11.4125C2.16826 12.2389 1.25 13.211 1.25 14.3584C1.25 15.5058 2.16826 16.4779 3.521 17.3043C4.90797 18.1515 6.92104 18.9511 9.46679 19.7035C14.5658 21.2104 21.9194 22.5611 30.9773 23.6934C49.1001 25.9587 74.1217 27.3584 101.75 27.3584Z" stroke="#CCCCCC"/>
<path id="Union_2" fill-rule="evenodd" clip-rule="evenodd" d="M201.75 45.3584H1.75V108.358C1.75 115.262 46.5215 120.858 101.75 120.858C156.978 120.858 201.75 115.262 201.75 108.358V45.3584Z" fill="#EEF7F7"/>
<path id="Ellipse 7" d="M101.75 58.3584C129.378 58.3584 154.4 56.9587 172.523 54.6934C181.581 53.5611 188.934 52.2104 194.033 50.7035C196.579 49.9511 198.592 49.1515 199.979 48.3043C201.332 47.4779 202.25 46.5058 202.25 45.3584C202.25 44.211 201.332 43.2389 199.979 42.4125C198.592 41.5653 196.579 40.7657 194.033 40.0133C188.934 38.5064 181.581 37.1557 172.523 36.0234C154.4 33.7581 129.378 32.3584 101.75 32.3584C74.1217 32.3584 49.1001 33.7581 30.9773 36.0234C21.9194 37.1557 14.5658 38.5064 9.46679 40.0133C6.92104 40.7657 4.90797 41.5653 3.521 42.4125C2.16826 43.2389 1.25 44.211 1.25 45.3584C1.25 46.5058 2.16826 47.4779 3.521 48.3043C4.90797 49.1515 6.92104 49.9511 9.46679 50.7035C14.5658 52.2104 21.9194 53.5611 30.9773 54.6934C49.1001 56.9587 74.1217 58.3584 101.75 58.3584Z" fill="#EEF7F7" stroke="#CCCCCC"/>
<path id="Subtract" fill-rule="evenodd" clip-rule="evenodd" d="M1.75 77.8584V108.211V108.211C1.75021 115.196 46.5217 120.858 101.75 120.858C156.978 120.858 201.75 115.196 201.75 108.211V77.8584C201.75 84.8432 156.978 90.5055 101.75 90.5055C46.5215 90.5055 1.75 84.8432 1.75 77.8584Z" fill="#B0D4D6"/>
<circle id="Ellipse 9" cx="11.25" cy="104.358" r="3.5" fill="#D9D9D9"/>
<circle id="Ellipse 10" cx="44.25" cy="98.3584" r="3.5" fill="#D9D9D9"/>
<circle id="Ellipse 24" cx="126.25" cy="101.358" r="4.5" fill="#D9D9D9"/>
<circle id="Ellipse 25" cx="89.25" cy="101.358" r="4.5" fill="#D9D9D9"/>
<circle id="Ellipse 17" cx="96.25" cy="113.358" r="5.5" fill="#D9D9D9"/>
<circle id="Ellipse 18" cx="66.25" cy="102.358" r="5.5" fill="#EBEBEB"/>
<circle id="Ellipse 22" cx="22.25" cy="95.3584" r="4.5" fill="#EBEBEB"/>
<circle id="Ellipse 23" cx="153.25" cy="113.358" r="4.5" fill="#EBEBEB"/>
<circle id="Ellipse 19" cx="31.25" cy="108.358" r="5.5" fill="#999999"/>
<circle id="Ellipse 26" cx="49.25" cy="112.358" r="4.5" fill="#999999"/>
<circle id="Ellipse 27" cx="195.25" cy="95.3584" r="4.5" fill="#999999"/>
<circle id="Ellipse 20" cx="137.25" cy="108.358" r="5.5" fill="#999999"/>
<circle id="Ellipse 21" cx="174.25" cy="96.3584" r="5.5" fill="#EBEBEB"/>
<circle id="Ellipse 11" cx="76.25" cy="114.358" r="3.5" fill="#999999"/>
<circle id="Ellipse 12" cx="111.25" cy="104.358" r="3.5" fill="#999999"/>
<circle id="Ellipse 13" cx="118.25" cy="114.358" r="3.5" fill="#EBEBEB"/>
<circle id="Ellipse 14" cx="154.25" cy="100.358" r="3.5" fill="#D9D9D9"/>
<circle id="Ellipse 15" cx="169.25" cy="111.358" r="3.5" fill="#999999"/>
<circle id="Ellipse 16" cx="187.25" cy="107.358" r="3.5" fill="#EBEBEB"/>
</g>
</svg>
