<svg width="128" height="40" viewBox="0 0 128 40" fill="none" xmlns="http://www.w3.org/2000/svg">
<g id="header_logo 1">
<path id="Vector" opacity="0.6" d="M38.1866 37.1772C27.7419 37.5375 20.8896 30.1501 20.8896 22.2222C20.8896 14.2943 27.0101 7.38739 39.5172 7.56757C44.7063 7.62763 49.6959 10.1502 52.5565 13.6336C49.2302 8.22823 42.8436 4.92492 35.5256 4.92492C24.7482 4.86486 16.6318 12.4324 16.6318 22.2222C16.6318 31.952 24.6816 39.5796 35.5256 39.5796C42.8436 39.5796 49.2302 36.2763 52.5565 30.8709C49.6959 34.2943 43.3758 36.997 38.1866 37.1772Z" fill="url(#paint0_linear_124_894)" stroke="#F18F69" stroke-width="0.5"/>
<path id="Vector_2" d="M45.9038 28.048C46.7021 27.5075 47.7 27.1471 47.3009 25.9459C47.3674 27.3273 44.9724 27.4474 43.7084 28.1081C44.1075 27.3874 45.9703 27.4474 46.1699 26.7267C45.9038 26.6066 45.8373 26.9069 45.5711 27.0871C44.9724 27.3273 44.1076 27.3273 43.7749 27.6877C43.7084 27.8679 43.5753 27.988 43.6419 28.2883C43.0431 28.5285 42.8435 28.9489 42.5109 29.3093C42.4444 30.2102 41.513 30.6306 41.646 31.6517C41.8456 31.5315 41.9121 31.2913 42.1117 31.1712C41.9787 31.3514 41.8456 31.5315 41.7126 31.7718C38.7854 35.015 34.4611 37.0571 29.4716 36.997C17.0975 36.9369 10.8439 30.2703 10.8439 22.3423C10.8439 16.8769 14.2368 11.8919 20.0912 9.36937C20.5569 9.24925 21.0226 9.06907 21.4883 8.82883C23.8167 8.04805 26.4778 7.62763 29.4716 7.62763C34.6607 7.68769 39.6502 10.2102 42.5774 13.6937C39.2511 8.28829 32.8645 4.98499 25.5465 4.98499C25.0808 4.98499 24.6151 4.98499 24.1494 5.04505C24.1494 4.44444 24.0163 3.78378 23.6837 3.06306C21.4883 -1.5015 14.9021 0.960961 11.8419 5.82583C10.1787 2.82282 8.98118 1.08108 4.92303 3.36336C1.66319 5.22523 3.25985 9.36937 5.32219 9.54955C7.18495 8.94895 8.44897 6.72673 5.98746 5.22523C8.38244 2.1021 10.7774 4.92493 9.97909 7.26727C9.11424 9.54955 7.58411 12.7327 7.0519 15.015C6.58621 16.997 6.45315 19.4595 6.78579 21.5616C6.78579 21.8018 6.78579 22.042 6.78579 22.2823C6.78579 23.7838 6.98537 25.2252 7.31801 26.5465C6.3201 24.5045 5.05608 23.1832 0.79834 22.4024C3.19332 25.3453 4.1247 29.1892 8.64855 30.03C11.6423 35.7958 17.9624 39.6396 25.613 39.6396C32.5983 39.6396 38.3197 36.9369 41.7791 32.012C42.2448 31.7117 43.6419 31.8919 44.041 31.2913C43.8414 31.1712 43.1762 31.6517 42.8435 31.4715C43.7084 31.1712 44.8393 30.9309 44.7063 29.9099C45.1055 29.6697 45.9703 29.4294 46.2364 29.8499C46.436 29.6096 45.9038 29.4895 45.7707 29.3093C46.1699 29.3093 46.9682 29.4294 46.7686 29.9099C47.3674 29.5495 46.1034 28.5285 45.1055 29.0691C45.5711 28.7688 46.6356 28.5886 46.8352 29.0691C46.9682 28.6486 46.1699 28.4685 45.9038 28.2883C46.5025 28.1682 47.0347 28.048 47.6335 27.8078C47.3674 27.5676 46.3695 28.048 45.9038 28.048ZM15.5008 3.42342C16.9644 2.46246 20.6234 1.14114 20.7565 3.66366C20.8896 5.76577 18.428 5.34535 17.2306 6.42643C13.1059 8.16817 9.84604 11.2312 8.04981 15.0751C9.11424 10.5706 11.7088 6.00601 15.5008 3.42342ZM42.3778 29.6096C42.6439 29.1892 43.4423 28.6486 44.041 28.6486C43.4423 28.8288 42.9766 29.6096 42.3778 29.6096ZM43.0431 30.7508C43.5088 30.5706 43.8414 29.97 44.3737 30.0901C44.1741 30.3904 43.6419 30.8709 43.0431 30.7508Z" fill="url(#paint1_linear_124_894)" stroke="#F3D08E" stroke-width="0.5"/>
<g id="Group">
<path id="Vector_3" d="M57.4795 15.1952C58.8766 15.1952 60.0741 15.8559 60.1406 15.8559C60.2072 15.8559 60.2737 15.7357 60.3402 15.7357C60.4067 15.7357 60.4733 15.7958 60.4733 15.8559C60.4733 16.4565 60.6063 17.0571 60.6063 17.1772C60.6729 17.4174 60.5398 17.4174 60.5398 17.4174C60.4733 17.4174 60.4067 17.3574 60.3402 17.2973C59.7415 16.2763 58.8101 15.6156 57.4795 15.6156C55.7498 15.6156 54.5523 16.6967 54.5523 18.3183C54.5523 20 55.4837 21.6216 57.9452 21.6216C59.2093 21.6216 60.0076 20.7808 60.4067 20.2402C60.4733 20.1802 60.4733 20.1802 60.5398 20.1802C60.6063 20.1802 60.6063 20.2402 60.6063 20.3003C60.6063 20.5405 60.4733 21.021 60.4067 21.2012C60.4067 21.2613 60.3402 21.3213 60.2737 21.3814C59.4088 21.7417 58.677 22.042 57.6126 22.042C54.4858 22.042 53.4879 20.3003 53.4879 18.8589C53.5544 16.8769 54.885 15.1952 57.4795 15.1952Z" fill="white"/>
<path id="Vector_4" d="M62.0034 15.2553C62.0699 15.2553 62.203 15.2553 62.2695 15.2553C62.5356 15.2553 62.7352 15.3153 63.1344 15.3153C63.6666 15.3153 63.9992 15.2553 64.1988 15.2553C64.3319 15.2553 64.3984 15.2553 64.3984 15.3754C64.3984 15.7958 63.6001 15.2553 63.5335 16.3964C63.5335 16.997 63.467 20.1802 63.467 20.3003V20.6607C63.467 20.961 63.5335 21.3213 63.7331 21.3814C63.9327 21.4414 63.9992 21.4414 64.1988 21.4414C67.4586 21.4414 67.126 20.5405 67.3921 20.5405C67.4586 20.5405 67.5252 20.6006 67.5252 20.7207C67.5252 21.2613 66.7268 21.9219 66.3277 21.9219C64.9971 21.9219 64.1323 21.8018 63.467 21.8018C62.9348 21.8018 62.6687 21.8619 62.203 21.8619C62.0034 21.8619 61.8704 21.8018 61.8704 21.7417C61.8704 21.6216 62.0034 21.6216 62.0034 21.6216C62.0699 21.6216 62.1365 21.6216 62.2695 21.5015C62.4691 21.3213 62.6022 21.0811 62.6022 19.6997V18.5586C62.6022 18.0781 62.6022 17.5375 62.6022 16.9369C62.6022 16.6967 62.6022 16.3964 62.6022 16.0961C62.6022 15.7357 62.203 15.5556 61.7373 15.4955C61.6043 15.4955 61.6042 15.4354 61.6042 15.3754C61.6708 15.2553 61.8704 15.2553 62.0034 15.2553Z" fill="white"/>
<path id="Vector_5" d="M68.1239 21.6216C68.7226 21.4414 68.6561 21.2613 71.7163 15.3754C71.7829 15.1952 71.8494 15.1351 72.049 15.1351C72.2486 15.1351 72.1155 15.1351 72.7808 16.6366C73.2465 17.7177 74.7101 20.7207 74.7766 20.9009C75.3088 21.8619 75.9075 21.4414 75.9075 21.7417C75.9075 21.8018 75.9075 21.8619 75.6414 21.8619C75.3753 21.8619 74.9762 21.8018 74.7101 21.8018C74.3109 21.8018 74.0448 21.8619 73.7787 21.8619C73.3795 21.8619 73.313 21.8619 73.313 21.7417C73.313 21.5616 73.8452 21.6817 73.8452 21.3213C73.8452 21.021 73.3795 19.8799 73.1799 19.5796C73.1134 19.5195 73.1134 19.3994 72.7808 19.3994C72.5812 19.3994 72.182 19.3994 71.5168 19.3994H70.9845C70.3193 19.3994 70.3193 19.4595 70.1862 19.6396C69.787 20.3604 69.5209 20.8408 69.5209 21.0811C69.5209 21.7417 70.2527 21.4414 70.2527 21.7417C70.2527 21.8018 70.2527 21.8619 70.0532 21.8619C69.9201 21.8619 69.5875 21.8619 69.1883 21.8619C68.7891 21.8619 68.523 21.9219 68.3234 21.9219C68.1239 21.9219 68.0573 21.9219 68.0573 21.8018C67.9908 21.6817 68.0573 21.6216 68.1239 21.6216ZM71.1176 18.9189H71.4502C71.9159 18.9189 72.4481 18.9189 72.4481 18.9189C72.7142 18.9189 72.8473 18.8589 72.8473 18.7988C72.8473 18.6787 71.9159 16.6366 71.7163 16.6366C71.5833 16.6366 70.6519 18.6787 70.6519 18.7988C70.5854 18.8589 70.6519 18.9189 71.1176 18.9189Z" fill="white"/>
<path id="Vector_6" d="M76.7059 15.2553C76.972 15.2553 77.3047 15.3153 77.8369 15.3153C78.3026 15.3153 78.103 15.3153 78.7683 15.3153C78.8348 15.3153 79.0344 15.3153 79.0344 15.4354C79.0344 15.4955 78.8348 15.5556 78.5687 15.6757C78.3026 15.7958 78.2361 16.3964 78.2361 16.7568C78.2361 18.9189 78.2361 19.3393 78.2361 20.1802C78.2361 20.7207 78.3026 21.021 78.5022 21.3213C78.7017 21.5616 78.9013 21.6216 78.9679 21.6216H79.1674C79.3005 21.6216 79.367 21.6817 79.367 21.7417C79.367 21.8619 79.3005 21.9219 79.1009 21.9219C78.5687 21.9219 78.4356 21.8619 78.103 21.8619C77.5708 21.8619 77.3712 21.9219 76.972 21.9219C76.5729 21.9219 76.5063 21.8619 76.5063 21.8018C76.5063 21.5616 77.1051 21.8018 77.2381 21.2012C77.2381 21.1411 77.3712 19.3393 77.3712 18.7387V18.1982C77.3712 17.958 77.3712 17.5976 77.3712 17.1772V16.7568C77.3712 16.5165 77.3712 16.2763 77.3047 16.0961C77.2381 15.7357 76.839 15.6156 76.5063 15.6156C76.3068 15.6156 76.3068 15.4955 76.3068 15.4955C76.4398 15.3153 76.4398 15.2553 76.7059 15.2553Z" fill="white"/>
<path id="Vector_7" d="M80.1653 15.2553H81.895C82.3607 15.2553 82.5603 15.2553 82.8929 15.2553C84.0904 15.2553 85.1549 15.7958 85.1549 16.8168C85.1549 18.1982 83.8908 18.4384 83.8908 18.6186C83.8908 18.7387 85.4875 20.8408 85.9532 21.2012C86.0197 21.2613 86.3524 21.6216 86.8846 21.6216C86.9511 21.6216 87.0176 21.6817 87.0176 21.7417C87.0176 21.9219 87.0176 21.982 86.2858 21.982C86.2858 21.982 85.7536 21.982 85.421 21.7417C84.8888 21.4414 84.0904 20.3003 83.5582 19.5195C83.159 18.8589 82.8929 18.7988 82.8264 18.7988H82.6268H82.0281C81.895 18.7988 81.8285 18.7988 81.8285 19.4595C81.8285 20.7808 81.8285 20.6607 81.8285 20.7808C81.8285 21.9219 83.0925 21.5015 83.0925 21.8018C83.0925 21.9219 83.026 21.9219 82.8929 21.9219C82.8264 21.9219 81.4959 21.8619 81.4293 21.8619C80.9637 21.8619 80.4314 21.9219 80.2984 21.9219C80.1653 21.9219 80.0988 21.9219 80.0988 21.8018C80.0988 21.5015 80.9637 21.8619 80.9637 20.8408C80.9637 20.2402 80.9637 18.9189 80.9637 17.8979C80.9637 16.9369 80.9637 16.5766 80.9637 16.3363C80.9637 15.3153 79.9657 15.6757 79.9657 15.4354C79.8992 15.2553 79.9657 15.2553 80.1653 15.2553ZM81.8285 18.3183C81.9616 18.3784 82.0946 18.3784 82.2942 18.3784H82.4273H82.6934C83.9574 18.3784 84.29 17.7177 84.29 17.1171C84.29 16.4565 83.7578 15.6156 82.2942 15.6156C81.762 15.6156 81.762 15.7958 81.762 16.6366V16.8769C81.762 18.0781 81.762 18.2583 81.8285 18.3183Z" fill="white"/>
<path id="Vector_8" d="M93.8034 15.1952C95.2005 15.1952 96.398 15.8559 96.4645 15.8559C96.531 15.8559 96.5975 15.7357 96.6641 15.7357C96.7306 15.7357 96.7971 15.7958 96.7971 15.8559C96.7971 16.4565 96.9302 17.0571 96.9302 17.1772C96.9302 17.2973 96.8637 17.3574 96.7971 17.3574C96.7306 17.3574 96.6641 17.2973 96.5975 17.2372C95.9988 16.2162 95.0674 15.5556 93.7369 15.5556C92.0072 15.5556 90.8097 16.6366 90.8097 18.2583C90.8097 19.9399 91.7411 21.5616 94.2026 21.5616C95.4666 21.5616 96.2649 20.7207 96.6641 20.1802C96.7306 20.1201 96.7306 20.1201 96.7971 20.1201C96.8637 20.1201 96.8637 20.1802 96.8637 20.2402C96.8637 20.4805 96.7306 20.961 96.6641 21.1411C96.6641 21.2012 96.5975 21.2613 96.531 21.3213C95.6662 21.6817 94.9344 21.982 93.8699 21.982C90.7432 21.982 89.7452 20.2402 89.7452 18.7988C89.8783 16.8769 91.2088 15.1952 93.8034 15.1952Z" fill="white"/>
<path id="Vector_9" d="M98.2607 15.2553C98.3273 15.2553 98.4603 15.2553 98.5269 15.2553C98.793 15.2553 98.9925 15.3153 99.3917 15.3153C99.9239 15.3153 100.257 15.2553 100.456 15.2553C100.589 15.2553 100.656 15.2553 100.656 15.3754C100.656 15.7958 99.8574 15.2553 99.7909 16.3964C99.7909 16.997 99.7243 20.1802 99.7243 20.3003V20.6607C99.7243 20.961 99.7909 21.3213 99.9904 21.3814C100.19 21.4414 100.257 21.4414 100.456 21.4414C103.716 21.4414 103.383 20.5405 103.649 20.5405C103.716 20.5405 103.782 20.6006 103.782 20.7207C103.782 21.2613 102.984 21.9219 102.585 21.9219C101.254 21.9219 100.39 21.8018 99.7243 21.8018C99.1256 21.8018 98.926 21.8619 98.4603 21.8619C98.2607 21.8619 98.1942 21.8018 98.1942 21.7417C98.1942 21.6216 98.3273 21.6216 98.3273 21.6216C98.3938 21.6216 98.4603 21.6216 98.5934 21.5015C98.793 21.3213 98.926 21.0811 98.926 19.6997V18.5586C98.926 18.0781 98.926 17.5375 98.926 16.9369C98.926 16.6967 98.926 16.3964 98.926 16.0961C98.926 15.7357 98.5268 15.5556 98.0612 15.4955C97.9281 15.4955 97.9281 15.4354 97.9281 15.3754C97.9946 15.2553 98.1942 15.2553 98.2607 15.2553Z" fill="white"/>
<path id="Vector_10" d="M104.581 15.2553C104.847 15.2553 105.18 15.3153 105.712 15.3153C106.177 15.3153 105.978 15.3153 106.643 15.3153C106.71 15.3153 106.909 15.3153 106.909 15.4354C106.909 15.4955 106.71 15.5556 106.444 15.6757C106.177 15.7958 106.111 16.3964 106.111 16.7568C106.111 18.9189 106.111 19.3393 106.111 20.1802C106.111 20.7207 106.177 21.021 106.377 21.3213C106.577 21.5616 106.776 21.6216 106.843 21.6216H107.042C107.175 21.6216 107.242 21.6817 107.242 21.7417C107.242 21.8619 107.175 21.9219 106.976 21.9219C106.444 21.9219 106.311 21.8619 105.978 21.8619C105.446 21.8619 105.246 21.9219 104.847 21.9219C104.448 21.9219 104.381 21.8619 104.381 21.8018C104.381 21.5616 104.98 21.8018 105.113 21.2012C105.113 21.1411 105.246 19.3393 105.246 18.7387V18.1982C105.246 17.958 105.246 17.5976 105.246 17.1772V16.7568C105.246 16.5165 105.246 16.2763 105.18 16.0961C105.113 15.7357 104.714 15.6156 104.381 15.6156C104.182 15.6156 104.182 15.4955 104.182 15.4955C104.315 15.3153 104.315 15.2553 104.581 15.2553Z" fill="white"/>
<path id="Vector_11" d="M108.04 15.2553C108.173 15.2553 108.306 15.2553 108.439 15.2553C108.705 15.2553 108.772 15.2553 108.972 15.2553C109.105 15.2553 109.304 15.3153 109.304 15.4354C109.371 15.4955 109.637 15.7958 109.969 16.0961C111.034 17.3574 113.096 19.4595 113.695 20.0601C113.961 20.3604 114.094 20.4805 114.161 20.4805C114.227 20.4805 114.294 20.1802 114.294 19.8799V18.7988C114.294 17.3574 114.294 17.1171 114.294 16.8769V16.8168C114.294 15.4955 113.762 15.6757 113.296 15.5556C113.163 15.4955 113.096 15.4354 113.096 15.3754C113.096 15.3153 113.096 15.2553 113.296 15.2553C113.429 15.2553 114.161 15.2553 114.294 15.2553C114.693 15.2553 115.026 15.2553 115.225 15.2553C115.425 15.2553 115.558 15.2553 115.558 15.4354C115.558 15.5556 115.225 15.6156 115.225 15.6156C115.159 15.6757 114.892 15.8559 114.892 16.6366V16.997C114.892 18.3183 114.759 20.6607 114.759 21.6216V21.8018C114.759 21.9219 114.759 22.042 114.626 22.042C114.56 22.042 114.493 21.982 114.493 21.982C109.903 17.2372 109.77 17.0571 109.703 17.0571C109.637 17.0571 109.57 17.2973 109.57 17.7177C109.57 19.2192 109.504 20.3003 109.504 20.7207C109.504 21.9219 110.502 21.5015 110.502 21.8018C110.502 21.9219 110.435 21.982 110.369 21.982C110.103 21.982 110.169 21.982 109.238 21.982C109.038 21.982 108.705 21.982 108.373 21.982C108.24 21.982 108.173 21.982 108.173 21.8619C108.173 21.6216 108.705 21.9219 108.905 21.1411C108.972 20.8408 109.171 18.018 109.171 17.2973C109.171 16.2162 108.839 15.7357 108.107 15.6757C107.974 15.6757 107.974 15.5556 107.974 15.5556C107.774 15.3754 107.841 15.2553 108.04 15.2553Z" fill="white"/>
<path id="Vector_12" d="M116.356 15.2553C116.622 15.2553 116.955 15.3153 117.487 15.3153C117.953 15.3153 117.753 15.3153 118.418 15.3153C118.485 15.3153 118.685 15.3153 118.685 15.4354C118.685 15.4955 118.485 15.5556 118.219 15.6757C117.953 15.7958 117.886 16.3964 117.886 16.7568C117.886 18.9189 117.886 19.3393 117.886 20.1802C117.886 20.7207 117.953 21.021 118.152 21.3213C118.352 21.5616 118.551 21.6216 118.618 21.6216H118.818C118.951 21.6216 119.017 21.6817 119.017 21.7417C119.017 21.8619 118.951 21.9219 118.751 21.9219C118.219 21.9219 118.086 21.8619 117.753 21.8619C117.221 21.8619 117.021 21.9219 116.622 21.9219C116.223 21.9219 116.156 21.8619 116.156 21.8018C116.156 21.5616 116.755 21.8018 116.888 21.2012C116.888 21.1411 117.021 19.3393 117.021 18.7387V18.1982C117.021 17.958 117.021 17.5976 117.021 17.1772V16.7568C117.021 16.5165 117.021 16.2763 116.955 16.0961C116.888 15.7357 116.489 15.6156 116.156 15.6156C115.957 15.6156 115.957 15.4955 115.957 15.4955C116.023 15.3153 116.09 15.2553 116.356 15.2553Z" fill="white"/>
<path id="Vector_13" d="M123.674 15.1952C125.071 15.1952 126.269 15.8559 126.335 15.8559C126.402 15.8559 126.468 15.7357 126.535 15.7357C126.601 15.7357 126.668 15.7958 126.668 15.8559C126.668 16.4565 126.801 17.0571 126.801 17.1772C126.801 17.2973 126.734 17.3574 126.668 17.3574C126.601 17.3574 126.535 17.2973 126.468 17.2372C125.87 16.2162 124.938 15.5556 123.608 15.5556C121.878 15.5556 120.68 16.6366 120.68 18.2583C120.68 19.9399 121.612 21.5616 124.073 21.5616C125.337 21.5616 126.136 20.7207 126.535 20.1802C126.601 20.1201 126.601 20.1201 126.668 20.1201C126.734 20.1201 126.734 20.1802 126.734 20.2402C126.734 20.4805 126.601 20.961 126.535 21.1411C126.535 21.2012 126.468 21.2613 126.402 21.3213C125.537 21.6817 124.805 21.982 123.741 21.982C120.614 21.982 119.616 20.2402 119.616 18.7988C119.749 16.8769 121.08 15.1952 123.674 15.1952Z" fill="white"/>
</g>
<path id="Vector_14" d="M54.0867 25.3453H126.867" stroke="#F8E4A6" stroke-miterlimit="10"/>
<g id="Group_2">
<path id="Vector_15" d="M43.9079 13.9339H44.174L43.8414 15.1351H44.9058L44.8393 15.4354H43.7749L43.2427 17.3574C43.1761 17.5375 43.2427 17.6577 43.3092 17.7177C43.3757 17.7778 43.4422 17.8378 43.5753 17.8378C43.7084 17.8378 43.9079 17.7778 44.041 17.6577C44.174 17.5375 44.3071 17.2973 44.4402 16.997H44.7063C44.5732 17.4174 44.4402 17.7177 44.174 17.8979C43.9079 18.0781 43.6418 18.1982 43.3757 18.1982C43.1096 18.1982 42.91 18.1381 42.777 18.018C42.5774 17.8378 42.5774 17.6577 42.6439 17.4174L43.1761 15.4354H42.5774L42.6439 15.1952C42.91 15.1351 43.1096 15.0751 43.3092 14.8949C43.5753 14.6547 43.7749 14.3544 43.9079 13.9339Z" fill="white"/>
<path id="Vector_16" d="M45.9038 13.3934L47.1678 13.3333L46.5691 15.6757C46.7686 15.4955 47.0347 15.3153 47.2343 15.1952C47.4339 15.0751 47.7 15.015 47.8996 15.015C48.0992 15.015 48.2988 15.0751 48.4318 15.1351C48.5649 15.1952 48.6314 15.3153 48.6979 15.4955C48.7645 15.6757 48.7645 15.9159 48.6979 16.1562L48.3653 17.5976C48.3653 17.7177 48.3653 17.7778 48.3653 17.7778C48.4318 17.8378 48.4983 17.8378 48.5649 17.8378H48.831L48.7645 18.0781H46.9682L47.0347 17.8378H47.2343C47.3674 17.8378 47.5004 17.8378 47.567 17.7778C47.6335 17.7177 47.7 17.6577 47.7 17.5976L48.0327 16.1562C48.0992 15.9159 48.0992 15.7357 47.9661 15.5556C47.8996 15.4354 47.7 15.3754 47.5004 15.3754C47.3674 15.3754 47.1678 15.4354 47.0347 15.4955C46.9017 15.5556 46.7021 15.6757 46.5691 15.8559C46.436 16.036 46.3695 16.1562 46.3029 16.3363L45.9703 17.5375C45.9703 17.6577 45.9703 17.7177 45.9703 17.7778C46.0368 17.8378 46.1034 17.8378 46.1699 17.8378H46.5691L46.5025 18.0781H44.7728L44.8394 17.8378H45.0389C45.172 17.8378 45.305 17.8378 45.3716 17.7778C45.4381 17.7177 45.5046 17.6577 45.5046 17.5375L46.436 13.994C46.436 13.8739 46.436 13.7538 46.3695 13.6937C46.3029 13.6336 46.2364 13.5736 46.0368 13.5736H45.7707L45.9038 13.3934Z" fill="white"/>
</g>
<g id="Group_3">
<path id="Vector_17" d="M76.5063 33.033L76.5728 33.2733C76.3067 33.4535 76.0406 33.5736 75.841 33.5736C75.6414 33.5736 75.5084 33.5135 75.3753 33.4535C75.2423 33.3333 75.1757 33.2132 75.1757 32.973C74.8431 33.2132 74.577 33.3934 74.3774 33.4535C74.1778 33.5135 73.9117 33.5736 73.6456 33.5736C73.2464 33.5736 72.9803 33.5135 72.7808 33.3333C72.5812 33.1532 72.5812 32.973 72.6477 32.7327C72.7142 32.3724 73.0469 32.0721 73.5791 31.8318C74.1113 31.5916 74.7766 31.4114 75.5749 31.3514L75.708 30.8108C75.7745 30.6306 75.7079 30.4505 75.5749 30.3303C75.4418 30.2102 75.2423 30.1502 74.9761 30.1502C74.71 30.1502 74.5105 30.2102 74.3109 30.2703C74.1778 30.3303 74.1113 30.3904 74.0448 30.4505C74.0448 30.5105 74.0448 30.5706 74.1113 30.6306C74.1778 30.7508 74.1778 30.8108 74.1778 30.8709C74.1778 30.991 74.1113 31.0511 73.9782 31.1712C73.9117 31.2312 73.7787 31.2913 73.6456 31.2913C73.5126 31.2913 73.3795 31.2312 73.313 31.1712C73.2464 31.1111 73.2464 30.991 73.2464 30.8709C73.313 30.6306 73.5126 30.3904 73.9117 30.2102C74.2444 30.03 74.71 29.9099 75.2423 29.9099C75.7079 29.9099 76.0406 30.03 76.2402 30.2102C76.4397 30.3904 76.5063 30.6306 76.4398 30.8709L75.9075 32.7928C75.841 32.973 75.841 33.0931 75.9075 33.1532C75.9741 33.2132 76.0406 33.2733 76.1071 33.2733C76.2402 33.1532 76.3732 33.0931 76.5063 33.033ZM75.5084 31.5315C74.7766 31.5916 74.2444 31.7718 73.9117 31.952C73.6456 32.1321 73.5126 32.3123 73.446 32.6126C73.3795 32.7928 73.446 32.973 73.5126 33.0931C73.5791 33.2132 73.7121 33.2733 73.9117 33.2733C74.2444 33.2733 74.577 33.1532 74.8431 32.9129C75.1092 32.6727 75.3088 32.4324 75.4418 32.0721L75.5084 31.5315Z" fill="white"/>
<path id="Vector_18" d="M77.9033 29.9099L79.2339 29.8499C79.2339 30.0901 79.2339 30.3303 79.1673 30.6306C79.4334 30.3904 79.633 30.2102 79.9656 30.03C80.2318 29.9099 80.4979 29.8499 80.8305 29.8499C81.0966 29.8499 81.2962 29.9099 81.4293 29.97C81.5623 30.0901 81.6954 30.2102 81.7619 30.3904C81.8284 30.5706 81.8284 30.8108 81.7619 31.0511L81.2962 32.7928C81.2962 32.9129 81.2962 33.033 81.2962 33.0931C81.3627 33.1532 81.4292 33.1532 81.6288 33.1532H81.8949L81.8284 33.4535H79.7661L79.8326 33.1532H80.0322C80.2318 33.1532 80.3648 33.1532 80.4313 33.0931C80.4979 33.033 80.5644 32.973 80.6309 32.8529L81.0301 31.3514C81.0966 31.0511 81.0966 30.7508 81.0301 30.6306C80.9636 30.3904 80.6975 30.2703 80.4313 30.2703C80.0987 30.2703 79.8326 30.3904 79.5665 30.6306C79.3004 30.8709 79.1008 31.1712 79.0343 31.5315L78.7016 32.8529C78.6351 32.973 78.7016 33.0931 78.7016 33.1532C78.7682 33.2132 78.8347 33.2132 79.0343 33.2132H79.3004L79.2339 33.5135H77.1715L77.238 33.2132H77.5041C77.6372 33.2132 77.7703 33.2132 77.8368 33.1532C77.9033 33.0931 77.9698 33.033 77.9698 32.973L78.5021 30.6306C78.5686 30.4505 78.5021 30.3904 78.4355 30.2703C78.369 30.2102 78.2359 30.1502 78.1029 30.1502H77.9033V29.9099Z" fill="white"/>
<path id="Vector_19" d="M83.159 29.9099L84.4896 29.8499C84.4896 30.0901 84.4896 30.3303 84.4231 30.6306C84.6892 30.3904 84.8888 30.2102 85.2214 30.03C85.4875 29.9099 85.7536 29.8499 86.0862 29.8499C86.3523 29.8499 86.5519 29.9099 86.685 29.97C86.818 30.0901 86.9511 30.2102 87.0176 30.3904C87.0842 30.5706 87.0842 30.8108 87.0176 31.0511L86.5519 32.7928C86.5519 32.9129 86.5519 33.033 86.5519 33.0931C86.6185 33.1532 86.685 33.1532 86.8846 33.1532H87.1507L87.0841 33.4535H85.0218L85.0883 33.1532H85.2879C85.4875 33.1532 85.6206 33.1532 85.6871 33.0931C85.7536 33.033 85.8201 32.973 85.8867 32.8529L86.2858 31.3514C86.3523 31.0511 86.3523 30.7508 86.2858 30.6306C86.2193 30.3904 85.9532 30.2703 85.6871 30.2703C85.3544 30.2703 85.0883 30.3904 84.8222 30.6306C84.5561 30.8709 84.3565 31.1712 84.29 31.5315L83.9574 32.8529C83.8908 32.973 83.9574 33.0931 83.9574 33.1532C84.0239 33.2132 84.0904 33.2132 84.29 33.2132H84.5561L84.4896 33.5135H82.4272L82.4938 33.2132H82.7599C82.8929 33.2132 83.026 33.2132 83.0925 33.1532C83.159 33.0931 83.2256 33.033 83.2256 32.973L83.8243 30.6907C83.8908 30.5105 83.8243 30.4505 83.7578 30.3303C83.6913 30.2703 83.5582 30.2102 83.4252 30.2102H83.2256L83.159 29.9099Z" fill="white"/>
<path id="Vector_20" d="M88.2816 29.9099L89.8783 29.8499L89.0799 32.8529C89.0799 32.9129 89.0799 32.973 89.0799 33.033C89.1465 33.0931 89.213 33.0931 89.2795 33.0931H89.7452L89.6787 33.3934H87.4833L87.5498 33.0931H87.949C88.082 33.0931 88.1486 33.0931 88.2151 33.033C88.2816 32.973 88.3481 32.9129 88.3481 32.7928L88.9469 30.5706C89.0134 30.4505 88.9469 30.3303 88.8804 30.2703C88.8138 30.2102 88.6808 30.1502 88.4812 30.1502H88.1485L88.2816 29.9099ZM89.9448 27.8078C90.0778 27.8078 90.1444 27.8679 90.2109 27.9279C90.2774 27.988 90.2774 28.1081 90.2774 28.2282C90.2774 28.3483 90.1444 28.4685 90.0778 28.5285C89.9448 28.5886 89.8117 28.6486 89.7452 28.6486C89.6121 28.6486 89.5456 28.5886 89.4791 28.5285C89.4126 28.4685 89.4126 28.3483 89.4126 28.2282C89.4126 28.1081 89.5456 27.988 89.6121 27.9279C89.6787 27.8679 89.8117 27.8078 89.9448 27.8078Z" fill="white"/>
<path id="Vector_21" d="M90.8761 29.9099H92.8054L92.7389 30.1502C92.4727 30.1502 92.3397 30.1502 92.2066 30.2102C92.1401 30.2703 92.0736 30.2703 92.0736 30.3904C92.0736 30.4505 92.0736 30.5105 92.0736 30.5706L92.5393 32.6727L94.0029 30.6306C94.0029 30.5706 94.0694 30.5706 94.0694 30.5105C94.1359 30.3303 93.9363 30.2102 93.5372 30.1502L93.6037 29.9099H95.2004L95.1338 30.1502C94.9343 30.1502 94.8012 30.2102 94.7347 30.2703C94.6016 30.3303 94.5351 30.4505 94.4686 30.5105L92.2732 33.5135H92.0736L91.3418 30.4505C91.3418 30.3303 91.2753 30.2703 91.2087 30.2102C91.1422 30.1502 91.0092 30.1502 90.8761 30.1502V29.9099Z" fill="white"/>
<path id="Vector_22" d="M98.8594 31.7117H96.0653C95.9322 32.2523 95.9322 32.6126 96.1318 32.8529C96.3314 33.0931 96.5975 33.2132 96.9301 33.2132C97.4624 33.2132 97.9946 32.9129 98.4603 32.3724L98.7264 32.4925C98.1276 33.2132 97.4624 33.5736 96.664 33.5736C96.1318 33.5736 95.7327 33.3934 95.4665 33.033C95.2004 32.6727 95.1339 32.2523 95.267 31.7117C95.4 31.1111 95.7327 30.6907 96.1318 30.3303C96.5975 29.97 97.0632 29.7898 97.5954 29.7898C97.9946 29.7898 98.2607 29.8499 98.5268 30.03C98.7264 30.2102 98.926 30.4505 98.926 30.8108C98.926 31.0511 98.926 31.3514 98.8594 31.7117ZM96.1318 31.4114H97.795C97.8615 31.4114 97.9946 31.3514 98.0611 31.2913C98.1276 31.2312 98.1942 31.1111 98.1942 30.991C98.2607 30.6907 98.2607 30.4505 98.0611 30.2703C97.9281 30.0901 97.7285 29.97 97.4624 29.97C97.1963 29.97 96.9302 30.0901 96.664 30.3303C96.4645 30.6306 96.2649 30.9309 96.1318 31.4114Z" fill="white"/>
<path id="Vector_23" d="M99.8573 29.9099L101.254 29.8499L100.855 31.2913C101.121 30.8108 101.387 30.4505 101.654 30.2102C101.92 29.97 102.252 29.8499 102.518 29.8499C102.718 29.8499 102.851 29.9099 102.984 30.03C103.051 30.1502 103.117 30.3303 103.051 30.5105C102.984 30.6907 102.918 30.8108 102.851 30.8709C102.718 30.9309 102.651 30.991 102.518 30.991C102.385 30.991 102.319 30.9309 102.252 30.8709C102.186 30.8108 102.186 30.6907 102.186 30.5706C102.186 30.5105 102.252 30.3904 102.319 30.3303C102.385 30.2703 102.385 30.2102 102.385 30.2102C102.385 30.1502 102.385 30.1502 102.319 30.1502C102.186 30.1502 102.053 30.2102 101.853 30.3303C101.587 30.5105 101.387 30.7508 101.188 31.0511C100.922 31.5315 100.722 31.8919 100.656 32.1321L100.456 32.9129C100.456 32.973 100.456 33.0931 100.523 33.0931C100.589 33.1532 100.656 33.1532 100.855 33.1532H101.321L101.254 33.4535H98.8594L98.9259 33.1532H99.3251C99.4581 33.1532 99.5912 33.1532 99.6577 33.0931C99.7242 33.033 99.7908 32.973 99.7908 32.9129L100.389 30.6907C100.456 30.5105 100.456 30.3904 100.389 30.3303C100.323 30.2703 100.256 30.2102 100.057 30.2102H99.7908L99.8573 29.9099Z" fill="white"/>
<path id="Vector_24" d="M103.583 32.0721C103.649 32.4925 103.782 32.7928 103.916 32.973C104.115 33.1532 104.381 33.2132 104.647 33.2132C104.98 33.2132 105.18 33.1532 105.379 33.033C105.579 32.9129 105.712 32.7928 105.712 32.5526C105.712 32.4324 105.712 32.3724 105.712 32.2523C105.645 32.1922 105.579 32.1321 105.512 32.0721C105.446 32.012 105.18 31.952 104.714 31.8919C104.315 31.8318 104.049 31.7117 103.916 31.6517C103.782 31.5916 103.649 31.4715 103.583 31.2913C103.516 31.1712 103.516 30.991 103.583 30.8108C103.649 30.5706 103.782 30.3303 104.049 30.0901C104.381 29.8499 104.78 29.6697 105.18 29.6697C105.512 29.6697 105.778 29.7898 106.044 29.97L106.377 29.7297H106.577L106.377 30.991H106.111C106.111 30.6306 105.978 30.3904 105.845 30.2102C105.645 30.03 105.446 29.97 105.113 29.97C104.847 29.97 104.647 30.03 104.448 30.1502C104.248 30.2703 104.182 30.3904 104.115 30.5706C104.049 30.6907 104.115 30.8709 104.248 30.9309C104.381 31.0511 104.581 31.1111 104.98 31.1712C105.446 31.2312 105.712 31.2913 105.845 31.3514C106.044 31.4114 106.177 31.5315 106.31 31.7117C106.377 31.8919 106.377 32.0721 106.377 32.3123C106.31 32.6126 106.111 32.9129 105.778 33.0931C105.446 33.3333 105.046 33.3934 104.647 33.3934C104.248 33.3934 103.916 33.2733 103.649 33.033L103.25 33.3333H103.051L103.317 31.952H103.583V32.0721Z" fill="white"/>
<path id="Vector_25" d="M110.967 33.033L111.034 33.2733C110.768 33.4535 110.502 33.5736 110.302 33.5736C110.102 33.5736 109.969 33.5135 109.836 33.4535C109.703 33.3333 109.637 33.2132 109.637 32.973C109.304 33.2132 109.038 33.3934 108.838 33.4535C108.639 33.5135 108.373 33.5736 108.107 33.5736C107.708 33.5736 107.441 33.5135 107.242 33.3333C107.042 33.1532 107.042 32.973 107.109 32.7327C107.175 32.3724 107.508 32.0721 108.04 31.8318C108.572 31.5916 109.238 31.4114 110.036 31.3514L110.169 30.8108C110.236 30.6306 110.169 30.4505 110.036 30.3303C109.903 30.2102 109.703 30.1502 109.437 30.1502C109.171 30.1502 108.972 30.2102 108.772 30.2703C108.639 30.3303 108.572 30.3904 108.506 30.4505C108.506 30.5105 108.506 30.5706 108.572 30.6306C108.639 30.7508 108.639 30.8108 108.639 30.8709C108.639 30.991 108.572 31.0511 108.439 31.1712C108.373 31.2312 108.24 31.2913 108.107 31.2913C107.974 31.2913 107.841 31.2312 107.774 31.1712C107.708 31.1111 107.707 30.991 107.707 30.8709C107.774 30.6306 107.974 30.3904 108.373 30.2102C108.705 30.03 109.171 29.9099 109.703 29.9099C110.169 29.9099 110.502 30.03 110.701 30.2102C110.901 30.3904 110.967 30.6306 110.901 30.8709L110.369 32.7928C110.302 32.973 110.302 33.0931 110.369 33.1532C110.435 33.2132 110.502 33.2733 110.568 33.2733C110.701 33.1532 110.834 33.0931 110.967 33.033ZM109.969 31.5315C109.238 31.5916 108.705 31.7718 108.373 31.952C108.107 32.1321 107.974 32.3123 107.907 32.6126C107.841 32.7928 107.907 32.973 107.974 33.0931C108.04 33.2132 108.173 33.2733 108.373 33.2733C108.705 33.2733 109.038 33.1532 109.304 32.9129C109.57 32.6727 109.77 32.4324 109.903 32.0721L109.969 31.5315Z" fill="white"/>
<path id="Vector_26" d="M112.298 29.9099L113.695 29.8499L113.296 31.2913C113.562 30.8108 113.828 30.4505 114.094 30.2102C114.36 29.97 114.693 29.8499 114.959 29.8499C115.159 29.8499 115.292 29.9099 115.425 30.03C115.491 30.1502 115.558 30.3303 115.491 30.5105C115.425 30.6907 115.358 30.8108 115.292 30.8709C115.159 30.9309 115.092 30.991 114.959 30.991C114.826 30.991 114.759 30.9309 114.693 30.8709C114.626 30.8108 114.626 30.6907 114.626 30.5706C114.626 30.5105 114.693 30.3904 114.759 30.3303C114.826 30.2703 114.826 30.2102 114.826 30.2102C114.826 30.1502 114.826 30.1502 114.759 30.1502C114.626 30.1502 114.493 30.2102 114.294 30.3303C114.028 30.5105 113.828 30.7508 113.629 31.0511C113.362 31.5315 113.163 31.8919 113.096 32.1321L112.897 32.9129C112.897 32.973 112.897 33.0931 112.963 33.0931C113.03 33.1532 113.096 33.1532 113.296 33.1532H113.762L113.695 33.4535H111.3L111.367 33.1532H111.766C111.899 33.1532 112.032 33.1532 112.098 33.0931C112.165 33.033 112.231 32.973 112.231 32.9129L112.83 30.6907C112.897 30.5105 112.897 30.3904 112.83 30.3303C112.764 30.2703 112.697 30.2102 112.498 30.2102H112.165L112.298 29.9099Z" fill="white"/>
<path id="Vector_27" d="M116.09 29.9099H117.953L117.886 30.1502H117.687C117.554 30.1502 117.42 30.1502 117.354 30.2102C117.287 30.2703 117.221 30.3303 117.221 30.3904C117.221 30.4505 117.221 30.4505 117.221 30.5105L117.753 32.6126L119.017 30.8709C119.084 30.7508 119.15 30.6306 119.217 30.5105C119.217 30.3904 119.217 30.3303 119.15 30.2703C119.084 30.2102 118.951 30.2102 118.685 30.1502L118.751 29.9099H120.348L120.281 30.1502C119.949 30.1502 119.749 30.3303 119.549 30.5105L117.287 33.5736C116.888 34.1141 116.556 34.4144 116.29 34.6547C115.957 34.8348 115.691 34.955 115.425 34.955C115.225 34.955 115.092 34.8949 114.959 34.7748C114.826 34.6547 114.826 34.5345 114.892 34.4144C114.892 34.2943 114.959 34.2342 115.092 34.1141C115.159 34.0541 115.292 33.994 115.425 33.994C115.558 33.994 115.624 34.0541 115.691 34.1141C115.757 34.1742 115.757 34.2342 115.757 34.3544C115.757 34.3544 115.757 34.4144 115.691 34.4745C115.691 34.5345 115.624 34.5345 115.624 34.5345C115.624 34.5946 115.624 34.6547 115.757 34.6547C115.824 34.6547 115.957 34.6547 116.09 34.5345C116.223 34.4745 116.356 34.3544 116.489 34.2342C116.622 34.1141 116.888 33.8138 117.221 33.3333L116.489 30.4505C116.489 30.3303 116.423 30.2703 116.356 30.2102C116.29 30.1502 116.156 30.1502 116.023 30.0901L116.09 29.9099Z" fill="white"/>
</g>
<path id="Vector_28" d="M66.0615 28.4084H66.2611L65.995 29.3694H66.8598L66.7933 29.6096H65.9285L65.5293 31.1111C65.4628 31.2312 65.5293 31.3514 65.5293 31.4114C65.5958 31.4715 65.6623 31.5315 65.7954 31.5315C65.9285 31.5315 66.0615 31.4715 66.128 31.3514C66.2611 31.2312 66.3276 31.051 66.3941 30.8108H66.5937C66.5272 31.1111 66.3941 31.3514 66.1946 31.5315C65.995 31.7117 65.7954 31.7718 65.5958 31.7718C65.3962 31.7718 65.1967 31.7117 65.1301 31.5916C65.0636 31.4715 64.9971 31.3514 65.0636 31.1712L65.4628 29.6096H64.9971L65.0636 29.4294C65.2632 29.3694 65.4628 29.3093 65.5958 29.1892C65.7954 29.009 65.995 28.7688 66.0615 28.4084Z" fill="white"/>
<path id="Vector_29" d="M67.5917 28.048L68.5896 27.988L68.1239 29.7898C68.3235 29.6096 68.4565 29.4895 68.6561 29.4294C68.8557 29.3694 68.9887 29.3093 69.1883 29.3093C69.3214 29.3093 69.5209 29.3694 69.5875 29.4294C69.654 29.4895 69.7205 29.6096 69.7871 29.7297C69.8536 29.8499 69.7871 30.03 69.7871 30.2102L69.5209 31.2913C69.5209 31.3514 69.5209 31.4114 69.5209 31.4715C69.5209 31.5315 69.5875 31.5315 69.7205 31.5315H69.9201L69.8536 31.7117H68.4565L68.523 31.5315H68.6561C68.7891 31.5315 68.8557 31.5315 68.9222 31.4715C68.9887 31.4114 68.9887 31.4114 69.0553 31.2913L69.3214 30.2102C69.3879 30.03 69.3879 29.8499 69.2548 29.7297C69.1883 29.6096 69.0553 29.5496 68.9222 29.5496C68.7891 29.5496 68.6561 29.6096 68.523 29.6697C68.39 29.7297 68.2569 29.8499 68.1904 29.97C68.1239 30.0901 67.9908 30.2102 67.9908 30.3904L67.7247 31.3514C67.7247 31.4114 67.7247 31.4715 67.7247 31.5315C67.7247 31.5916 67.7912 31.5916 67.9243 31.5916H68.1239L68.0574 31.7718H66.6603L66.7268 31.5916H66.8599C66.9929 31.5916 67.0594 31.5916 67.126 31.5315C67.1925 31.4715 67.1925 31.4114 67.259 31.3514L67.9908 28.5886C67.9908 28.4685 67.9908 28.4084 67.9908 28.3483C67.9243 28.2883 67.8578 28.2883 67.7912 28.2883H67.5917V28.048Z" fill="white"/>
<g id="Group_4">
<path id="Vector_30" d="M25.0142 26.4865C24.7481 27.6877 24.6816 28.2883 26.1452 28.4084C26.3447 28.4084 27.0765 28.4685 27.3426 28.4685L27.1431 29.0691H19.8251L19.9581 28.4685C20.1577 28.4685 20.823 28.4084 21.0226 28.4084C22.5527 28.2282 22.7523 28.1081 23.1514 26.4865L24.8811 18.4384C25.1473 17.1772 25.0142 17.1171 23.6171 17.1171C23.351 17.1171 22.9519 17.1171 22.6857 17.1171L22.8188 16.5165C24.3489 16.3363 26.0121 15.9159 27.4092 15.3754L25.0142 26.4865Z" fill="white"/>
</g>
<g id="Group_5">
<path id="Vector_31" d="M57.8121 32.4324C57.679 32.9129 57.679 33.1532 58.2778 33.2132C58.3443 33.2132 58.6104 33.2132 58.7435 33.2733L58.6769 33.5135H55.7498L55.8163 33.2733C55.8828 33.2733 56.1489 33.2733 56.2154 33.2733C56.8142 33.2132 56.8807 33.1532 57.0803 32.4925L57.7456 29.3093C57.8786 28.8288 57.8121 28.7688 57.2134 28.7688C57.1468 28.7688 56.9472 28.7688 56.8142 28.7688L56.8807 28.5285C57.4795 28.4685 58.1447 28.2883 58.6769 28.1081L57.8121 32.4324Z" fill="white"/>
</g>
<path id="Vector_32" d="M36.5235 26.4865C36.2574 27.6877 36.1908 28.2883 37.6544 28.4084C37.854 28.4084 38.5858 28.4685 38.8519 28.4685L38.6523 29.0691H31.3344L31.4674 28.4685C31.667 28.4685 32.3323 28.4084 32.5318 28.4084C34.062 28.2282 34.2615 28.1081 34.6607 26.4865L36.3904 18.4384C36.6565 17.1772 36.5235 17.1171 35.1264 17.1171C34.8603 17.1171 34.4611 17.1171 34.195 17.1171L34.3281 16.5165C35.8582 16.3363 37.5214 15.9159 38.9185 15.3754L36.5235 26.4865Z" fill="white"/>
<path id="Vector_33" d="M62.4691 32.4324C62.336 32.9129 62.336 33.1532 62.9348 33.2132C63.0013 33.2132 63.2674 33.2132 63.4005 33.2733L63.3339 33.5135H60.4067L60.4733 33.2733C60.5398 33.2733 60.8059 33.2733 60.8724 33.2733C61.4712 33.2132 61.5377 33.1532 61.7373 32.4925L62.4026 29.3093C62.5356 28.8288 62.4691 28.7688 61.8703 28.7688C61.8038 28.7688 61.6042 28.7688 61.4712 28.7688L61.5377 28.5285C62.1364 28.4685 62.8017 28.2883 63.3339 28.1081L62.4691 32.4324Z" fill="white"/>
</g>
<defs>
<linearGradient id="paint0_linear_124_894" x1="34.5942" y1="39.5435" x2="34.5942" y2="4.88847" gradientUnits="userSpaceOnUse">
<stop stop-color="#EFB59A"/>
<stop offset="0.4835" stop-color="#F8C9B1"/>
<stop offset="0.5901" stop-color="#F8C7AE"/>
<stop offset="1" stop-color="#F7BFA4"/>
</linearGradient>
<linearGradient id="paint1_linear_124_894" x1="47.0876" y1="28.5917" x2="1.04015" y2="10.027" gradientUnits="userSpaceOnUse">
<stop stop-color="#EEC782"/>
<stop offset="0.175" stop-color="#F0CC87"/>
<stop offset="0.3494" stop-color="#F7D997"/>
<stop offset="0.4835" stop-color="#FFE9AC"/>
<stop offset="0.4958" stop-color="#FEE7A6"/>
<stop offset="0.5585" stop-color="#F8DB8B"/>
<stop offset="0.6289" stop-color="#F4D276"/>
<stop offset="0.7101" stop-color="#F1CC67"/>
<stop offset="0.812" stop-color="#EFC85F"/>
<stop offset="1" stop-color="#EEC75C"/>
</linearGradient>
</defs>
</svg>
