<?xml version="1.0" encoding="utf-8"?>
<!-- Generator: Adobe Illustrator 27.3.1, SVG Export Plug-In . SVG Version: 6.00 Build 0)  -->
<svg version="1.1" id="レイヤー_1" xmlns="http://www.w3.org/2000/svg" xmlns:xlink="http://www.w3.org/1999/xlink" x="0px"
	 y="0px" viewBox="0 0 191.2 66.6" style="enable-background:new 0 0 191.2 66.6;" xml:space="preserve">
<style type="text/css">
	.st0{opacity:0.6;fill:url(#SVGID_1_);stroke:#F18F69;stroke-width:0.5;enable-background:new    ;}
	.st1{fill:url(#SVGID_00000183935449259751867140000003564018427811786381_);stroke:#F3D08E;stroke-width:0.5;}
	.st2{fill:#1F1E1D;}
	.st3{fill:none;stroke:#F8E4A6;stroke-miterlimit:10;}
</style>
<linearGradient id="SVGID_1_" gradientUnits="userSpaceOnUse" x1="52" y1="839.7297" x2="52" y2="782.0291" gradientTransform="matrix(1 0 0 1 0 -773.8898)">
	<stop  offset="0" style="stop-color:#EFB59A"/>
	<stop  offset="0.4835" style="stop-color:#F8C9B1"/>
	<stop  offset="0.5901" style="stop-color:#F8C7AE"/>
	<stop  offset="1" style="stop-color:#F7BFA4"/>
</linearGradient>
<path class="st0" d="M57.4,61.9c-15.7,0.6-26-11.7-26-24.9s9.2-24.7,28-24.4c7.8,0.1,15.3,4.3,19.6,10.1c-5-9-14.6-14.5-25.6-14.5
	C37.2,8.1,25,20.7,25,37c0,16.2,12.1,28.9,28.4,28.9c11,0,20.6-5.5,25.6-14.5C74.7,57.1,65.2,61.6,57.4,61.9z"/>
<linearGradient id="SVGID_00000111157053866381491160000007967557787400725136_" gradientUnits="userSpaceOnUse" x1="70.7794" y1="821.4949" x2="-0.2741" y2="795.6334" gradientTransform="matrix(1 0 0 1 0 -773.8898)">
	<stop  offset="0" style="stop-color:#EEC782"/>
	<stop  offset="0.175" style="stop-color:#F0CC87"/>
	<stop  offset="0.3494" style="stop-color:#F7D997"/>
	<stop  offset="0.4835" style="stop-color:#FFE9AC"/>
	<stop  offset="0.4958" style="stop-color:#FEE7A6"/>
	<stop  offset="0.5585" style="stop-color:#F8DB8B"/>
	<stop  offset="0.6289" style="stop-color:#F4D276"/>
	<stop  offset="0.7101" style="stop-color:#F1CC67"/>
	<stop  offset="0.812" style="stop-color:#EFC85F"/>
	<stop  offset="1" style="stop-color:#EEC75C"/>
</linearGradient>
<path style="fill:url(#SVGID_00000111157053866381491160000007967557787400725136_);stroke:#F3D08E;stroke-width:0.5;" d="M69,46.7
	c1.2-0.9,2.7-1.5,2.1-3.5c0.1,2.3-3.5,2.5-5.4,3.6c0.6-1.2,3.4-1.1,3.7-2.3c-0.4-0.2-0.5,0.3-0.9,0.6c-0.9,0.4-2.2,0.4-2.7,1
	c-0.1,0.3-0.3,0.5-0.2,1c-0.9,0.4-1.2,1.1-1.7,1.7c-0.1,1.5-1.5,2.2-1.3,3.9c0.3-0.2,0.4-0.6,0.7-0.8c-0.2,0.3-0.4,0.6-0.6,1
	c-4.4,5.4-10.9,8.8-18.4,8.7c-18.6-0.1-28-11.2-28-24.4c0-9.1,5.1-17.4,13.9-21.6c0.7-0.2,1.4-0.5,2.1-0.9c3.5-1.3,7.5-2,12-2
	C52.1,12.8,59.6,17,64,22.8c-5-9-14.6-14.5-25.6-14.5c-0.7,0-1.4,0-2.1,0.1c0-1-0.2-2.1-0.7-3.3c-3.3-7.6-13.2-3.5-17.8,4.6
	c-2.5-5-4.3-7.9-10.4-4.1C2.5,8.7,4.9,15.6,8,15.9c2.8-1,4.7-4.7,1-7.2c3.6-5.2,7.2-0.5,6,3.4c-1.3,3.8-3.6,9.1-4.4,12.9
	c-0.7,3.3-0.9,7.4-0.4,10.9c0,0.4,0,0.8,0,1.2c0,2.5,0.3,4.9,0.8,7.1c-1.5-3.4-3.4-5.6-9.8-6.9C4.8,42.2,6.2,48.6,13,50
	c4.5,9.6,14,16,25.5,16c10.5,0,19.1-4.5,24.3-12.7l0,0c0.7-0.5,2.8-0.2,3.4-1.2c-0.3-0.2-1.3,0.6-1.8,0.3c1.3-0.5,3-0.9,2.8-2.6
	c0.6-0.4,1.9-0.8,2.3-0.1c0.3-0.4-0.5-0.6-0.7-0.9c0.6,0,1.8,0.2,1.5,1c0.9-0.6-1-2.3-2.5-1.4c0.7-0.5,2.3-0.8,2.6,0
	c0.2-0.7-1-1-1.4-1.3c0.9-0.2,1.7-0.4,2.6-0.8C71.2,45.9,69.7,46.7,69,46.7z M23.3,5.7c2.2-1.6,7.7-3.8,7.9,0.4
	c0.2,3.5-3.5,2.8-5.3,4.6c-6.2,2.9-11.1,8-13.8,14.4C13.7,17.6,17.6,10,23.3,5.7z M63.7,49.3c0.4-0.7,1.6-1.6,2.5-1.6
	C65.3,48,64.6,49.3,63.7,49.3z M64.7,51.2c0.7-0.3,1.2-1.3,2-1.1C66.4,50.6,65.6,51.4,64.7,51.2z"/>
<g>
	<path class="st2" d="M86.4,25.3c2.1,0,3.9,1.1,4,1.1s0.2-0.2,0.3-0.2c0.1,0,0.2,0.1,0.2,0.2c0,1,0.2,2,0.2,2.2C91.2,29,91,29,91,29
		c-0.1,0-0.2-0.1-0.3-0.2c-0.9-1.7-2.3-2.8-4.3-2.8c-2.6,0-4.4,1.8-4.4,4.5c0,2.8,1.4,5.5,5.1,5.5c1.9,0,3.1-1.4,3.7-2.3
		c0.1-0.1,0.1-0.1,0.2-0.1s0.1,0.1,0.1,0.2c0,0.4-0.2,1.2-0.3,1.5c0,0.1-0.1,0.2-0.2,0.3c-1.3,0.6-2.4,1.1-4,1.1
		c-4.7,0-6.2-2.9-6.2-5.3C80.5,28.1,82.5,25.3,86.4,25.3z"/>
	<path class="st2" d="M93.2,25.4c0.1,0,0.3,0,0.4,0c0.4,0,0.7,0.1,1.3,0.1c0.8,0,1.3-0.1,1.6-0.1c0.2,0,0.3,0,0.3,0.2
		c0,0.7-1.2-0.2-1.3,1.7c0,1-0.1,6.3-0.1,6.5v0.6c0,0.5,0.1,1.1,0.4,1.2c0.3,0.1,0.4,0.1,0.7,0.1c4.9,0,4.4-1.5,4.8-1.5
		c0.1,0,0.2,0.1,0.2,0.3c0,0.9-1.2,2-1.8,2c-2,0-3.3-0.2-4.3-0.2c-0.8,0-1.2,0.1-1.9,0.1c-0.3,0-0.5-0.1-0.5-0.2
		c0-0.2,0.2-0.2,0.2-0.2c0.1,0,0.2,0,0.4-0.2c0.3-0.3,0.5-0.7,0.5-3v-1.9c0-0.8,0-1.7,0-2.7c0-0.4,0-0.9,0-1.4c0-0.6-0.6-0.9-1.3-1
		c-0.2,0-0.2-0.1-0.2-0.2C92.7,25.4,93,25.4,93.2,25.4z"/>
	<path class="st2" d="M102.4,36c0.9-0.3,0.8-0.6,5.4-10.4c0.1-0.3,0.2-0.4,0.5-0.4s0.1,0,1.1,2.5c0.7,1.8,2.9,6.8,3,7.1
		c0.8,1.6,1.7,0.9,1.7,1.4c0,0.1,0,0.2-0.4,0.2s-1-0.1-1.4-0.1c-0.6,0-1,0.1-1.4,0.1c-0.6,0-0.7,0-0.7-0.2c0-0.3,0.8-0.1,0.8-0.7
		c0-0.5-0.7-2.4-1-2.9c-0.1-0.1-0.1-0.3-0.6-0.3c-0.3,0-0.9,0-1.9,0h-0.8c-1,0-1,0.1-1.2,0.4c-0.6,1.2-1,2-1,2.4
		c0,1.1,1.1,0.6,1.1,1.1c0,0.1,0,0.2-0.3,0.2c-0.2,0-0.7,0-1.3,0c-0.6,0-1,0.1-1.3,0.1s-0.4,0-0.4-0.2C102.2,36.1,102.3,36,102.4,36
		z M106.9,31.5h0.5c0.7,0,1.5,0,1.5,0c0.4,0,0.6-0.1,0.6-0.2c0-0.2-1.4-3.6-1.7-3.6c-0.2,0-1.6,3.4-1.6,3.6
		C106.1,31.4,106.2,31.5,106.9,31.5z"/>
	<path class="st2" d="M115.3,25.4c0.4,0,0.9,0.1,1.7,0.1c0.7,0,0.4,0,1.4,0c0.1,0,0.4,0,0.4,0.2c0,0.1-0.3,0.2-0.7,0.4
		c-0.4,0.2-0.5,1.2-0.5,1.8c0,3.6,0,4.3,0,5.7c0,0.9,0.1,1.4,0.4,1.9c0.3,0.4,0.6,0.5,0.7,0.5h0.3c0.2,0,0.3,0.1,0.3,0.2
		c0,0.2-0.1,0.3-0.4,0.3c-0.8,0-1-0.1-1.5-0.1c-0.8,0-1.1,0.1-1.7,0.1s-0.7-0.1-0.7-0.2c0-0.4,0.9,0,1.1-1c0-0.1,0.2-3.1,0.2-4.1
		v-0.9c0-0.4,0-1,0-1.7v-0.7c0-0.4,0-0.8-0.1-1.1c-0.1-0.6-0.7-0.8-1.2-0.8c-0.3,0-0.3-0.2-0.3-0.2
		C114.9,25.5,114.9,25.4,115.3,25.4z"/>
	<path class="st2" d="M120.5,25.4h2.6c0.7,0,1,0,1.5,0c1.8,0,3.4,0.9,3.4,2.6c0,2.3-1.9,2.7-1.9,3c0,0.2,2.4,3.7,3.1,4.3
		c0.1,0.1,0.6,0.7,1.4,0.7c0.1,0,0.2,0.1,0.2,0.2c0,0.3,0,0.4-1.1,0.4c0,0-0.8,0-1.3-0.4c-0.8-0.5-2-2.4-2.8-3.7
		c-0.6-1.1-1-1.2-1.1-1.2h-0.3h-0.9c-0.2,0-0.3,0-0.3,1.1c0,2.2,0,2,0,2.2c0,1.9,1.9,1.2,1.9,1.7c0,0.2-0.1,0.2-0.3,0.2
		c-0.1,0-2.1-0.1-2.2-0.1c-0.7,0-1.5,0.1-1.7,0.1s-0.3,0-0.3-0.2c0-0.5,1.3,0.1,1.3-1.6c0-1,0-3.2,0-4.9c0-1.6,0-2.2,0-2.6
		c0-1.7-1.5-1.1-1.5-1.5C120.1,25.4,120.2,25.4,120.5,25.4z M123,30.5c0.2,0.1,0.4,0.1,0.7,0.1h0.2h0.4c1.9,0,2.4-1.1,2.4-2.1
		c0-1.1-0.8-2.5-3-2.5c-0.8,0-0.8,0.3-0.8,1.7v0.4C122.9,30.1,122.9,30.4,123,30.5z"/>
	<path class="st2" d="M141,25.3c2.1,0,3.9,1.1,4,1.1s0.2-0.2,0.3-0.2s0.2,0.1,0.2,0.2c0,1,0.2,2,0.2,2.2s-0.1,0.3-0.2,0.3
		c-0.1,0-0.2-0.1-0.3-0.2c-0.9-1.7-2.3-2.8-4.3-2.8c-2.6,0-4.4,1.8-4.4,4.5c0,2.8,1.4,5.5,5.1,5.5c1.9,0,3.1-1.4,3.7-2.3
		c0.1-0.1,0.1-0.1,0.2-0.1c0.1,0,0.1,0.1,0.1,0.2c0,0.4-0.2,1.2-0.3,1.5c0,0.1-0.1,0.2-0.2,0.3c-1.3,0.6-2.4,1.1-4,1.1
		c-4.7,0-6.2-2.9-6.2-5.3C135.1,28.1,137.1,25.3,141,25.3z"/>
	<path class="st2" d="M147.7,25.4c0.1,0,0.3,0,0.4,0c0.4,0,0.7,0.1,1.3,0.1c0.8,0,1.3-0.1,1.6-0.1c0.2,0,0.3,0,0.3,0.2
		c0,0.7-1.2-0.2-1.3,1.7c0,1-0.1,6.3-0.1,6.5v0.6c0,0.5,0.1,1.1,0.4,1.2c0.3,0.1,0.4,0.1,0.7,0.1c4.9,0,4.4-1.5,4.8-1.5
		c0.1,0,0.2,0.1,0.2,0.3c0,0.9-1.2,2-1.8,2c-2,0-3.3-0.2-4.3-0.2c-0.9,0-1.2,0.1-1.9,0.1c-0.3,0-0.4-0.1-0.4-0.2
		c0-0.2,0.2-0.2,0.2-0.2c0.1,0,0.2,0,0.4-0.2c0.3-0.3,0.5-0.7,0.5-3v-1.9c0-0.8,0-1.7,0-2.7c0-0.4,0-0.9,0-1.4c0-0.6-0.6-0.9-1.3-1
		c-0.2,0-0.2-0.1-0.2-0.2C147.3,25.4,147.6,25.4,147.7,25.4z"/>
	<path class="st2" d="M157.2,25.4c0.4,0,0.9,0.1,1.7,0.1c0.7,0,0.4,0,1.4,0c0.1,0,0.4,0,0.4,0.2c0,0.1-0.3,0.2-0.7,0.4
		c-0.4,0.2-0.5,1.2-0.5,1.8c0,3.6,0,4.3,0,5.7c0,0.9,0.1,1.4,0.4,1.9c0.3,0.4,0.6,0.5,0.7,0.5h0.3c0.2,0,0.3,0.1,0.3,0.2
		c0,0.2-0.1,0.3-0.4,0.3c-0.8,0-1-0.1-1.5-0.1c-0.8,0-1.1,0.1-1.7,0.1c-0.6,0-0.7-0.1-0.7-0.2c0-0.4,0.9,0,1.1-1
		c0-0.1,0.2-3.1,0.2-4.1v-0.9c0-0.4,0-1,0-1.7v-0.7c0-0.4,0-0.8-0.1-1.1c-0.1-0.6-0.7-0.8-1.2-0.8c-0.3,0-0.3-0.2-0.3-0.2
		C156.8,25.5,156.8,25.4,157.2,25.4z"/>
	<path class="st2" d="M162.4,25.4c0.2,0,0.4,0,0.6,0c0.4,0,0.5,0,0.8,0c0.2,0,0.5,0.1,0.5,0.3c0.1,0.1,0.5,0.6,1,1.1
		c1.6,2.1,4.7,5.6,5.6,6.6c0.4,0.5,0.6,0.7,0.7,0.7c0.1,0,0.2-0.5,0.2-1v-1.8c0-2.4,0-2.8,0-3.2V28c0-2.2-0.8-1.9-1.5-2.1
		c-0.2-0.1-0.3-0.2-0.3-0.3c0-0.1,0-0.2,0.3-0.2c0.2,0,1.3,0,1.5,0c0.6,0,1.1,0,1.4,0c0.3,0,0.5,0,0.5,0.3c0,0.2-0.5,0.3-0.5,0.3
		c-0.1,0.1-0.5,0.4-0.5,1.7v0.6c0,2.2-0.2,6.1-0.2,7.7v0.3c0,0.2,0,0.4-0.2,0.4c-0.1,0-0.2-0.1-0.2-0.1c-6.9-7.9-7.1-8.2-7.2-8.2
		c-0.1,0-0.2,0.4-0.2,1.1c0,2.5-0.1,4.3-0.1,5c0,2,1.5,1.3,1.5,1.8c0,0.2-0.1,0.3-0.2,0.3c-0.4,0-0.3,0-1.7,0c-0.3,0-0.8,0-1.3,0
		c-0.2,0-0.3,0-0.3-0.2c0-0.4,0.8,0.1,1.1-1.2c0.1-0.5,0.4-5.2,0.4-6.4c0-1.8-0.5-2.6-1.6-2.7c-0.2,0-0.2-0.2-0.2-0.2
		C162,25.6,162.1,25.4,162.4,25.4z"/>
	<path class="st2" d="M174.9,25.4c0.4,0,0.9,0.1,1.7,0.1c0.7,0,0.4,0,1.4,0c0.1,0,0.4,0,0.4,0.2c0,0.1-0.3,0.2-0.7,0.4
		c-0.4,0.2-0.5,1.2-0.5,1.8c0,3.6,0,4.3,0,5.7c0,0.9,0.1,1.4,0.4,1.9c0.3,0.4,0.6,0.5,0.7,0.5h0.3c0.2,0,0.3,0.1,0.3,0.2
		c0,0.2-0.1,0.3-0.4,0.3c-0.8,0-1-0.1-1.5-0.1c-0.8,0-1.1,0.1-1.7,0.1c-0.6,0-0.7-0.1-0.7-0.2c0-0.4,0.9,0,1.1-1
		c0-0.1,0.2-3.1,0.2-4.1v-0.9c0-0.4,0-1,0-1.7v-0.7c0-0.4,0-0.8-0.1-1.1c-0.1-0.6-0.7-0.8-1.2-0.8c-0.3,0-0.3-0.2-0.3-0.2
		C174.4,25.5,174.5,25.4,174.9,25.4z"/>
	<path class="st2" d="M185.9,25.3c2.1,0,3.9,1.1,4,1.1s0.2-0.2,0.3-0.2s0.2,0.1,0.2,0.2c0,1,0.2,2,0.2,2.2s-0.1,0.3-0.2,0.3
		c-0.1,0-0.2-0.1-0.3-0.2c-0.9-1.7-2.3-2.8-4.3-2.8c-2.6,0-4.4,1.8-4.4,4.5c0,2.8,1.4,5.5,5.1,5.5c1.9,0,3.1-1.4,3.7-2.3
		c0.1-0.1,0.1-0.1,0.2-0.1c0.1,0,0.1,0.1,0.1,0.2c0,0.4-0.2,1.2-0.3,1.5c0,0.1-0.1,0.2-0.2,0.3c-1.3,0.6-2.4,1.1-4,1.1
		c-4.7,0-6.2-2.9-6.2-5.3C180,28.1,182,25.3,185.9,25.3z"/>
</g>
<line class="st3" x1="81.3" y1="42.2" x2="190.7" y2="42.2"/>
<g>
	<path d="M66,23.2h0.4l-0.5,2h1.6l-0.1,0.5h-1.6L65,28.9c-0.1,0.3,0,0.5,0.1,0.6s0.2,0.2,0.4,0.2c0.2,0,0.5-0.1,0.7-0.3
		c0.2-0.2,0.4-0.6,0.6-1.1h0.4c-0.2,0.7-0.4,1.2-0.8,1.5s-0.8,0.5-1.2,0.5c-0.4,0-0.7-0.1-0.9-0.3c-0.3-0.3-0.3-0.6-0.2-1l0.8-3.3
		H64l0.1-0.4c0.4-0.1,0.7-0.2,1-0.5C65.5,24.4,65.8,23.9,66,23.2z"/>
	<path d="M69,22.3l1.9-0.1L70,26.1c0.3-0.3,0.7-0.6,1-0.8c0.3-0.2,0.7-0.3,1-0.3s0.6,0.1,0.8,0.2c0.2,0.1,0.3,0.3,0.4,0.6
		c0.1,0.3,0.1,0.7,0,1.1l-0.5,2.4c0,0.2,0,0.3,0,0.3c0.1,0.1,0.2,0.1,0.3,0.1h0.4l-0.1,0.4h-2.7l0.1-0.4H71c0.2,0,0.4,0,0.5-0.1
		s0.2-0.2,0.2-0.3l0.5-2.4c0.1-0.4,0.1-0.7-0.1-1c-0.1-0.2-0.4-0.3-0.7-0.3c-0.2,0-0.5,0.1-0.7,0.2s-0.5,0.3-0.7,0.6
		c-0.2,0.3-0.3,0.5-0.4,0.8l-0.5,2c0,0.2,0,0.3,0,0.4c0.1,0.1,0.2,0.1,0.3,0.1H70l-0.1,0.4h-2.6l0.1-0.4h0.3c0.2,0,0.4,0,0.5-0.1
		s0.2-0.2,0.2-0.4l1.4-5.9c0-0.2,0-0.4-0.1-0.5s-0.2-0.2-0.5-0.2h-0.4L69,22.3z"/>
</g>
<g>
	<path d="M115,55l0.1,0.4c-0.4,0.3-0.8,0.5-1.1,0.5c-0.3,0-0.5-0.1-0.7-0.2c-0.2-0.2-0.3-0.4-0.3-0.8c-0.5,0.4-0.9,0.7-1.2,0.8
		c-0.3,0.1-0.7,0.2-1.1,0.2c-0.6,0-1-0.1-1.3-0.4c-0.3-0.3-0.3-0.6-0.2-1c0.1-0.6,0.6-1.1,1.4-1.5s1.8-0.7,3-0.8l0.2-0.9
		c0.1-0.3,0-0.6-0.2-0.8s-0.5-0.3-0.9-0.3s-0.7,0.1-1,0.2c-0.2,0.1-0.3,0.2-0.4,0.3c0,0.1,0,0.2,0.1,0.3c0.1,0.2,0.1,0.3,0.1,0.4
		c0,0.2-0.1,0.3-0.3,0.5c-0.1,0.1-0.3,0.2-0.5,0.2s-0.4-0.1-0.5-0.2c-0.1-0.1-0.1-0.3-0.1-0.5c0.1-0.4,0.4-0.8,1-1.1
		c0.5-0.3,1.2-0.5,2-0.5c0.7,0,1.2,0.2,1.5,0.5s0.4,0.7,0.3,1.1l-0.8,3.2c-0.1,0.3-0.1,0.5,0,0.6s0.2,0.2,0.3,0.2
		C114.6,55.2,114.8,55.1,115,55z M113.5,52.5c-1.1,0.1-1.9,0.4-2.4,0.7c-0.4,0.3-0.6,0.6-0.7,1.1c-0.1,0.3,0,0.6,0.1,0.8
		s0.3,0.3,0.6,0.3c0.5,0,1-0.2,1.4-0.6c0.4-0.4,0.7-0.8,0.9-1.4L113.5,52.5z"/>
	<path d="M117.1,49.8l2-0.1c0,0.4,0,0.8-0.1,1.3c0.4-0.4,0.7-0.7,1.2-1c0.4-0.2,0.8-0.3,1.3-0.3c0.4,0,0.7,0.1,0.9,0.2
		c0.2,0.2,0.4,0.4,0.5,0.7s0.1,0.7,0,1.1l-0.7,2.9c0,0.2,0,0.4,0,0.5c0.1,0.1,0.2,0.1,0.5,0.1h0.4l-0.1,0.5h-3.1l0.1-0.5h0.3
		c0.3,0,0.5,0,0.6-0.1s0.2-0.2,0.3-0.4l0.6-2.5c0.1-0.5,0.1-1,0-1.2c-0.1-0.4-0.5-0.6-0.9-0.6c-0.5,0-0.9,0.2-1.3,0.6
		c-0.4,0.4-0.7,0.9-0.8,1.5l-0.5,2.2c-0.1,0.2,0,0.4,0,0.5c0.1,0.1,0.2,0.1,0.5,0.1h0.4l-0.1,0.5H116l0.1-0.5h0.4
		c0.2,0,0.4,0,0.5-0.1s0.2-0.2,0.2-0.3L118,51c0.1-0.3,0-0.4-0.1-0.6c-0.1-0.1-0.3-0.2-0.5-0.2h-0.3V49.8z"/>
	<path d="M125,49.8l2-0.1c0,0.4,0,0.8-0.1,1.3c0.4-0.4,0.7-0.7,1.2-1c0.4-0.2,0.8-0.3,1.3-0.3c0.4,0,0.7,0.1,0.9,0.2
		c0.2,0.2,0.4,0.4,0.5,0.7s0.1,0.7,0,1.1l-0.7,2.9c0,0.2,0,0.4,0,0.5c0.1,0.1,0.2,0.1,0.5,0.1h0.4l-0.1,0.5h-3.1l0.1-0.5h0.3
		c0.3,0,0.5,0,0.6-0.1s0.2-0.2,0.3-0.4l0.6-2.5c0.1-0.5,0.1-1,0-1.2c-0.1-0.4-0.5-0.6-0.9-0.6c-0.5,0-0.9,0.2-1.3,0.6
		c-0.4,0.4-0.7,0.9-0.8,1.5l-0.5,2.2c-0.1,0.2,0,0.4,0,0.5c0.1,0.1,0.2,0.1,0.5,0.1h0.4l-0.1,0.5h-3.1l0.1-0.5h0.4
		c0.2,0,0.4,0,0.5-0.1s0.2-0.2,0.2-0.3l0.9-3.8c0.1-0.3,0-0.4-0.1-0.6c-0.1-0.1-0.3-0.2-0.5-0.2h-0.3L125,49.8z"/>
	<path d="M132.7,49.8l2.4-0.1l-1.2,5c0,0.1,0,0.2,0,0.3c0.1,0.1,0.2,0.1,0.3,0.1h0.7l-0.1,0.5h-3.3l0.1-0.5h0.6c0.2,0,0.3,0,0.4-0.1
		c0.1-0.1,0.2-0.2,0.2-0.4l0.9-3.7c0.1-0.2,0-0.4-0.1-0.5s-0.3-0.2-0.6-0.2h-0.5L132.7,49.8z M135.2,46.3c0.2,0,0.3,0.1,0.4,0.2
		c0.1,0.1,0.1,0.3,0.1,0.5s-0.2,0.4-0.3,0.5c-0.2,0.1-0.4,0.2-0.5,0.2c-0.2,0-0.3-0.1-0.4-0.2c-0.1-0.1-0.1-0.3-0.1-0.5
		s0.2-0.4,0.3-0.5S135,46.3,135.2,46.3z"/>
	<path d="M136.6,49.8h2.9l-0.1,0.4c-0.4,0-0.6,0-0.8,0.1c-0.1,0.1-0.2,0.1-0.2,0.3c0,0.1,0,0.2,0,0.3l0.7,3.5l2.2-3.4
		c0-0.1,0.1-0.1,0.1-0.2c0.1-0.3-0.2-0.5-0.8-0.6l0.1-0.4h2.4l-0.1,0.4c-0.3,0-0.5,0.1-0.6,0.2c-0.2,0.1-0.3,0.3-0.4,0.4l-3.3,5
		h-0.3l-1.1-5.1c0-0.2-0.1-0.3-0.2-0.4c-0.1-0.1-0.3-0.1-0.5-0.1L136.6,49.8z"/>
	<path d="M148.6,52.8h-4.2c-0.2,0.9-0.2,1.5,0.1,1.9s0.7,0.6,1.2,0.6c0.8,0,1.6-0.5,2.3-1.4l0.4,0.2c-0.9,1.2-1.9,1.8-3.1,1.8
		c-0.8,0-1.4-0.3-1.8-0.9c-0.4-0.6-0.5-1.3-0.3-2.2c0.2-1,0.7-1.7,1.3-2.3c0.7-0.6,1.4-0.9,2.2-0.9c0.6,0,1,0.1,1.4,0.4
		c0.3,0.3,0.6,0.7,0.6,1.3C148.7,51.7,148.7,52.2,148.6,52.8z M144.5,52.3h2.5c0.1,0,0.3-0.1,0.4-0.2c0.1-0.1,0.2-0.3,0.2-0.5
		c0.1-0.5,0.1-0.9-0.2-1.2c-0.2-0.3-0.5-0.5-0.9-0.5s-0.8,0.2-1.2,0.6C145,51,144.7,51.5,144.5,52.3z"/>
	<path d="M150.1,49.8l2.1-0.1l-0.6,2.4c0.4-0.8,0.8-1.4,1.2-1.8c0.4-0.4,0.9-0.6,1.3-0.6c0.3,0,0.5,0.1,0.7,0.3
		c0.1,0.2,0.2,0.5,0.1,0.8c-0.1,0.3-0.2,0.5-0.3,0.6c-0.2,0.1-0.3,0.2-0.5,0.2s-0.3-0.1-0.4-0.2c-0.1-0.1-0.1-0.3-0.1-0.5
		c0-0.1,0.1-0.3,0.2-0.4c0.1-0.1,0.1-0.2,0.1-0.2c0-0.1,0-0.1-0.1-0.1c-0.2,0-0.4,0.1-0.7,0.3c-0.4,0.3-0.7,0.7-1,1.2
		c-0.4,0.8-0.7,1.4-0.8,1.8l-0.3,1.3c0,0.1,0,0.3,0.1,0.3c0.1,0.1,0.2,0.1,0.5,0.1h0.7l-0.1,0.5h-3.6l0.1-0.5h0.6
		c0.2,0,0.4,0,0.5-0.1s0.2-0.2,0.2-0.3l0.9-3.7c0.1-0.3,0.1-0.5,0-0.6s-0.2-0.2-0.5-0.2H150L150.1,49.8z"/>
	<path d="M155.7,53.4c0.1,0.7,0.3,1.2,0.5,1.5c0.3,0.3,0.7,0.4,1.1,0.4c0.5,0,0.8-0.1,1.1-0.3s0.5-0.4,0.5-0.8c0-0.2,0-0.3,0-0.5
		c-0.1-0.1-0.2-0.2-0.3-0.3s-0.5-0.2-1.2-0.3c-0.6-0.1-1-0.3-1.2-0.4c-0.2-0.1-0.4-0.3-0.5-0.6c-0.1-0.2-0.1-0.5,0-0.8
		c0.1-0.4,0.3-0.8,0.7-1.2c0.5-0.4,1.1-0.7,1.7-0.7c0.5,0,0.9,0.2,1.3,0.5l0.5-0.4h0.3l-0.3,2.1h-0.4c0-0.6-0.2-1-0.4-1.3
		c-0.3-0.3-0.6-0.4-1.1-0.4c-0.4,0-0.7,0.1-1,0.3s-0.4,0.4-0.5,0.7c-0.1,0.2,0,0.5,0.2,0.6c0.2,0.2,0.5,0.3,1.1,0.4
		c0.7,0.1,1.1,0.2,1.3,0.3c0.3,0.1,0.5,0.3,0.7,0.6c0.1,0.3,0.1,0.6,0.1,1c-0.1,0.5-0.4,1-0.9,1.3c-0.5,0.4-1.1,0.5-1.7,0.5
		c-0.6,0-1.1-0.2-1.5-0.6l-0.6,0.5h-0.3l0.4-2.3h0.4L155.7,53.4L155.7,53.4z"/>
	<path d="M166.8,55l0.1,0.4c-0.4,0.3-0.8,0.5-1.1,0.5s-0.5-0.1-0.7-0.2c-0.2-0.2-0.3-0.4-0.3-0.8c-0.5,0.4-0.9,0.7-1.2,0.8
		s-0.7,0.2-1.1,0.2c-0.6,0-1-0.1-1.3-0.4c-0.3-0.3-0.3-0.6-0.2-1c0.1-0.6,0.6-1.1,1.4-1.5c0.8-0.4,1.8-0.7,3-0.8l0.2-0.9
		c0.1-0.3,0-0.6-0.2-0.8s-0.5-0.3-0.9-0.3s-0.7,0.1-1,0.2c-0.2,0.1-0.3,0.2-0.4,0.3c0,0.1,0,0.2,0.1,0.3c0.1,0.2,0.1,0.3,0.1,0.4
		c0,0.2-0.1,0.3-0.3,0.5c-0.1,0.1-0.3,0.2-0.5,0.2s-0.4-0.1-0.5-0.2c-0.1-0.1-0.1-0.3-0.1-0.5c0.1-0.4,0.4-0.8,1-1.1
		c0.5-0.3,1.2-0.5,2-0.5c0.7,0,1.2,0.2,1.5,0.5s0.4,0.7,0.3,1.1l-0.8,3.2c-0.1,0.3-0.1,0.5,0,0.6s0.2,0.2,0.3,0.2
		C166.4,55.2,166.6,55.1,166.8,55z M165.3,52.5c-1.1,0.1-1.9,0.4-2.4,0.7c-0.4,0.3-0.6,0.6-0.7,1.1c-0.1,0.3,0,0.6,0.1,0.8
		s0.3,0.3,0.6,0.3c0.5,0,1-0.2,1.4-0.6c0.4-0.4,0.7-0.8,0.9-1.4L165.3,52.5z"/>
	<path d="M168.8,49.8l2.1-0.1l-0.6,2.4c0.4-0.8,0.8-1.4,1.2-1.8c0.4-0.4,0.9-0.6,1.3-0.6c0.3,0,0.5,0.1,0.7,0.3
		c0.1,0.2,0.2,0.5,0.1,0.8c-0.1,0.3-0.2,0.5-0.3,0.6c-0.2,0.1-0.3,0.2-0.5,0.2s-0.3-0.1-0.4-0.2c-0.1-0.1-0.1-0.3-0.1-0.5
		c0-0.1,0.1-0.3,0.2-0.4c0.1-0.1,0.1-0.2,0.1-0.2c0-0.1,0-0.1-0.1-0.1c-0.2,0-0.4,0.1-0.7,0.3c-0.4,0.3-0.7,0.7-1,1.2
		c-0.4,0.8-0.7,1.4-0.8,1.8l-0.3,1.3c0,0.1,0,0.3,0.1,0.3c0.1,0.1,0.2,0.1,0.5,0.1h0.7l-0.1,0.5h-3.6l0.1-0.5h0.6
		c0.2,0,0.4,0,0.5-0.1s0.2-0.2,0.2-0.3l0.9-3.7c0.1-0.3,0.1-0.5,0-0.6s-0.2-0.2-0.5-0.2h-0.5L168.8,49.8z"/>
	<path d="M174.5,49.8h2.8l-0.1,0.4h-0.3c-0.2,0-0.4,0-0.5,0.1s-0.2,0.2-0.2,0.3s0,0.1,0,0.2l0.8,3.5l1.9-2.9
		c0.1-0.2,0.2-0.4,0.3-0.6c0-0.2,0-0.3-0.1-0.4c-0.1-0.1-0.3-0.1-0.7-0.2l0.1-0.4h2.4l-0.1,0.4c-0.5,0-0.8,0.3-1.1,0.6l-3.4,5.1
		c-0.6,0.9-1.1,1.4-1.5,1.8c-0.5,0.3-0.9,0.5-1.3,0.5c-0.3,0-0.5-0.1-0.7-0.3s-0.2-0.4-0.1-0.6c0-0.2,0.1-0.3,0.3-0.5
		c0.1-0.1,0.3-0.2,0.5-0.2s0.3,0.1,0.4,0.2c0.1,0.1,0.1,0.2,0.1,0.4c0,0,0,0.1-0.1,0.2c0,0.1-0.1,0.1-0.1,0.1c0,0.1,0,0.2,0.2,0.2
		c0.1,0,0.3,0,0.5-0.2c0.2-0.1,0.4-0.3,0.6-0.5c0.2-0.2,0.6-0.7,1.1-1.5l-1.1-4.8c0-0.2-0.1-0.3-0.2-0.4c-0.1-0.1-0.3-0.1-0.5-0.2
		L174.5,49.8z"/>
</g>
<path d="M99.3,47.3h0.3l-0.4,1.6h1.3l-0.1,0.4h-1.3l-0.6,2.5c-0.1,0.2,0,0.4,0,0.5c0.1,0.1,0.2,0.2,0.4,0.2c0.2,0,0.4-0.1,0.5-0.3
	c0.2-0.2,0.3-0.5,0.4-0.9h0.3c-0.1,0.5-0.3,0.9-0.6,1.2c-0.3,0.3-0.6,0.4-0.9,0.4s-0.6-0.1-0.7-0.3s-0.2-0.4-0.1-0.7l0.6-2.6h-0.7
	l0.1-0.3c0.3-0.1,0.6-0.2,0.8-0.4C98.9,48.3,99.2,47.9,99.3,47.3z"/>
<path d="M101.6,46.7l1.5-0.1l-0.7,3c0.3-0.3,0.5-0.5,0.8-0.6s0.5-0.2,0.8-0.2c0.2,0,0.5,0.1,0.6,0.2c0.1,0.1,0.2,0.3,0.3,0.5
	c0.1,0.2,0,0.5,0,0.8l-0.4,1.8c0,0.1,0,0.2,0,0.3s0.1,0.1,0.3,0.1h0.3l-0.1,0.3h-2.1l0.1-0.3h0.2c0.2,0,0.3,0,0.4-0.1
	s0.1-0.1,0.2-0.3l0.4-1.8c0.1-0.3,0.1-0.6-0.1-0.8c-0.1-0.2-0.3-0.3-0.5-0.3s-0.4,0.1-0.6,0.2c-0.2,0.1-0.4,0.3-0.5,0.5
	s-0.3,0.4-0.3,0.7l-0.4,1.6c0,0.1,0,0.2,0,0.3s0.1,0.1,0.3,0.1h0.3l-0.1,0.3h-2.1l0.1-0.3h0.2c0.2,0,0.3,0,0.4-0.1s0.1-0.2,0.2-0.3
	l1.1-4.6c0-0.2,0-0.3,0-0.4c-0.1-0.1-0.2-0.1-0.3-0.1h-0.3L101.6,46.7z"/>
<g>
	<path d="M37.6,44.1c-0.4,2-0.5,3,1.7,3.2c0.3,0,1.4,0.1,1.8,0.1l-0.3,1h-11l0.2-1c0.3,0,1.3-0.1,1.6-0.1c2.3-0.3,2.6-0.5,3.2-3.2
		l2.6-13.4c0.4-2.1,0.2-2.2-1.9-2.2c-0.4,0-1,0-1.4,0l0.2-1c2.3-0.3,4.8-1,6.9-1.9L37.6,44.1z"/>
</g>
<g>
	<path d="M86.9,54c-0.2,0.8-0.2,1.2,0.7,1.3c0.1,0,0.5,0,0.7,0.1l-0.1,0.4h-4.4l0.1-0.4c0.1,0,0.5,0,0.6,0c0.9-0.1,1-0.2,1.3-1.3
		l1-5.3c0.2-0.8,0.1-0.9-0.8-0.9c-0.1,0-0.4,0-0.6,0l0.1-0.4c0.9-0.1,1.9-0.4,2.7-0.7L86.9,54z"/>
</g>
<path d="M54.9,44.1c-0.4,2-0.5,3,1.7,3.2c0.3,0,1.4,0.1,1.8,0.1l-0.3,1h-11l0.2-1c0.3,0,1.3-0.1,1.6-0.1c2.3-0.3,2.6-0.5,3.2-3.2
	l2.6-13.4c0.4-2.1,0.2-2.2-1.9-2.2c-0.4,0-1,0-1.4,0l0.2-1c2.3-0.3,4.8-1,6.9-1.9L54.9,44.1z"/>
<path d="M93.9,54c-0.2,0.8-0.2,1.2,0.7,1.3c0.1,0,0.5,0,0.7,0.1l-0.1,0.4h-4.4l0.1-0.4c0.1,0,0.5,0,0.6,0c0.9-0.1,1-0.2,1.3-1.3
	l1-5.3c0.2-0.8,0.1-0.9-0.8-0.9c-0.1,0-0.4,0-0.6,0l0.1-0.4c0.9-0.1,1.9-0.4,2.7-0.7L93.9,54z"/>
</svg>
