<svg width="358" height="352" fill="none" xmlns="http://www.w3.org/2000/svg"><circle cx="179" cy="193" r="149.5" stroke="#333"/><circle cx="179" cy="193" r="109.5" stroke="#333"/><circle cx="179" cy="193" r="73.5" stroke="#333"/><path d="M215.5 193.5c0 19.876-16.335 36-36.5 36s-36.5-16.124-36.5-36 16.335-36 36.5-36 36.5 16.124 36.5 36ZM178 44v149.5M320 146l-142 47.006M36.5 146 178 193.006M178.349 193.163 89.385 313.311M178 193.163l88.964 120.148" stroke="#333"/><path d="M214 180.5 178 44 37.5 146.5l53 165.5H265l-51-131.5Z" fill="#D4D4D4" fill-opacity=".7"/><path d="M176.552 13.992h-4.32c0 4.104 0 9.192-.048 10.944-.048 1.416-.912 2.328-2.496 2.448-.432.024-1.44.048-2.52.048-1.296 0-2.664-.024-3.144-.048-1.632-.072-2.376-1.032-2.4-2.424 0-.912-.024-2.64-.024-4.632 0-1.992.024-4.296.024-6.336h-4.2c-.408 0-.6-.312-.6-.6 0-.312.192-.6.6-.6l4.2.024V8.952c0-.408.336-.6.672-.6s.672.192.672.576c0 .744-.024 2.16-.024 3.888h7.944c0-1.656-.024-3.048-.024-3.84 0-.384.336-.576.672-.576s.672.192.672.576l.024 3.84 4.32-.024c.432 0 .648.312.648.6 0 .312-.216.6-.648.6Zm-5.664 0h-7.944c0 1.56-.024 3.264-.024 4.848h7.992c0-1.584-.024-3.288-.024-4.848Zm.024 6h-7.992c0 2.064 0 3.816.024 4.632.024.936.36 1.464 1.392 1.56.384.024 1.632.048 2.808.048 2.856 0 3.648-.024 3.72-1.584.024-.792.048-2.544.048-4.656Zm22.416-5.592c.216.408.456.792.672 1.2.504.912 1.032 1.824 1.488 2.712a19.66 19.66 0 0 1 1.08 2.376c.264.72.36 1.224.36 1.584 0 .672-.312.888-.6.888-.24 0-.552-.12-.912-.432-1.152-.912-4.176-1.464-5.952-1.464-2.52 0-3.48 1.344-3.48 2.184 0 1.368 2.28 2.328 4.8 2.328.408 0 .816 0 1.224-.048h.144c.576 0 .84.336.84.696 0 .384-.312.792-.912.792h-.216c-4.632 0-7.176-1.728-7.176-3.672 0-1.2 1.128-3.36 4.896-3.36 1.848 0 3.792.456 5.28.72.072.024.144.024.192.024.072 0 .12-.024.12-.12 0-.216-.408-1.8-2.616-5.448-.144-.24-.264-.456-.384-.696-.072.024-1.944.456-2.904.456-2.496 0-4.512-2.232-4.512-2.808 0-.336.312-.6.672-.6.216 0 .456.096.624.312 1.296 1.608 2.592 1.92 3.456 1.92.192 0 .792-.024 2.064-.336-1.2-2.16-1.44-2.856-1.44-3.096 0-.384.288-.6.624-.6.312 0 .672.216.792.672.192.72.648 1.68 1.2 2.712a31.623 31.623 0 0 0 1.8-.6 1.32 1.32 0 0 1 .384-.072c.456 0 .696.312.696.648 0 .48-.264.624-2.304 1.128ZM54.976 343.504c-2.04-.048-3.072-1.128-3.12-2.76a220.984 220.984 0 0 1-.072-5.832c0-2.64.024-5.328.072-7.752.024-1.368 1.152-2.448 2.904-2.472 2.04-.048 4.104-.048 6.216-.048s4.272 0 6.504.048c1.536.024 2.76 1.08 2.784 2.664.048 2.4.072 4.992.072 7.56 0 1.992-.024 3.96-.072 5.76-.048 1.632-1.224 2.784-2.832 2.832a175.8 175.8 0 0 1-6.24.096c-2.112 0-4.224-.024-6.216-.096Zm13.992-3.192c.048-1.8.072-3.864.072-5.904 0-2.304-.024-4.632-.072-6.624-.024-1.344-.744-1.968-2.064-1.992-1.68-.024-3.528-.048-5.352-.048-2.232 0-4.44.024-6.288.048-1.464.024-2.112.744-2.136 1.992a303.452 303.452 0 0 0-.072 6.768c0 2.064.024 4.104.072 5.832.048 1.368.744 1.944 2.376 1.992 1.704.048 3.552.072 5.448.072 1.92 0 3.888-.024 5.856-.072 1.464-.024 2.112-.816 2.16-2.064Zm-2.376-9.408h-5.016l-.024 2.88c.6 0 1.2.024 1.632.048 1.176.048 1.92.696 1.944 1.584.024.528.048 1.104.048 1.68 0 .48-.024.936-.048 1.344-.048.816-.648 1.56-2.064 1.656-.552.024-1.368.048-2.184.048-2.616 0-3.984-.048-4.032-1.68 0-.504-.024-1.008-.024-1.512s.024-1.008.024-1.464c.048-1.704 1.656-1.704 3.528-1.704l-.024-2.88h-4.848c-.36 0-.552-.264-.552-.552 0-.264.192-.528.552-.528l4.848.024-.024-2.28c0-.384.312-.576.624-.576s.624.192.624.576v2.28l5.016-.024c.36 0 .552.264.552.528 0 .288-.192.552-.552.552Zm-2.688 7.176c.024-.312.024-.768.024-1.224 0-.456 0-.888-.024-1.128-.048-.888-.576-.936-2.904-.936-2.952 0-2.952 0-2.952 2.208 0 2.064.024 2.088 2.52 2.088.888 0 1.872 0 2.28-.024.648-.024 1.032-.408 1.056-.984Zm23.424-7.68c.216.408.456.792.672 1.2.504.912 1.032 1.824 1.488 2.712a19.66 19.66 0 0 1 1.08 2.376c.264.72.36 1.224.36 1.584 0 .672-.312.888-.6.888-.24 0-.552-.12-.912-.432-1.152-.912-4.176-1.464-5.952-1.464-2.52 0-3.48 1.344-3.48 2.184 0 1.368 2.28 2.328 4.8 2.328.408 0 .816 0 1.224-.048h.144c.576 0 .84.336.84.696 0 .384-.312.792-.912.792h-.216c-4.632 0-7.176-1.728-7.176-3.672 0-1.2 1.128-3.36 4.896-3.36 1.848 0 3.792.456 5.28.72a.596.596 0 0 0 .192.024c.072 0 .12-.024.12-.12 0-.216-.408-1.8-2.616-5.448-.144-.24-.264-.456-.384-.696-.072.024-1.944.456-2.904.456-2.496 0-4.512-2.232-4.512-2.808 0-.336.312-.6.672-.6.216 0 .456.096.624.312 1.296 1.608 2.592 1.92 3.456 1.92.192 0 .792-.024 2.064-.336-1.2-2.16-1.44-2.856-1.44-3.096 0-.384.288-.6.624-.6.312 0 .672.216.792.672.192.72.648 1.68 1.2 2.712a31.623 31.623 0 0 0 1.8-.6 1.32 1.32 0 0 1 .384-.072c.456 0 .696.312.696.648 0 .48-.264.624-2.304 1.128ZM278.216 331.312l-8.352-.048c1.128 5.352 5.088 9.504 9.144 11.064a.63.63 0 0 1 .432.624c0 .408-.312.84-.792.84-1.224 0-7.728-4.104-9.504-10.896-2.112 8.4-9.288 11.16-9.72 11.16-.432 0-.72-.36-.72-.744 0-.216.12-.456.408-.576 5.808-2.472 8.28-6.816 9.048-11.472l-8.424.048c-.408 0-.624-.312-.624-.624 0-.288.216-.6.624-.6h8.592c.048-.36.096-1.128.096-2.808 0-.936 0-1.968-.024-2.568v-.024c0-.408.36-.624.72-.624.384 0 .744.216.744.672 0 2.136-.168 4.944-.216 5.352h8.568c.432 0 .624.312.624.6 0 .312-.192.624-.624.624Zm17.952 3.384a12.22 12.22 0 0 1-1.848.144c-1.8 0-4.68-.528-4.68-2.232 0-.48.288-.96.84-1.368 1.368-.912 1.368-.912 1.368-1.08 0-.72-3.12-1.704-3.936-1.872-.408-.072-.6-.336-.6-.576 0-.288.24-.576.72-.576.576 0 5.496 1.632 5.496 3.216 0 .504-.552.744-.864.816-.024 0-1.728.672-1.728 1.344 0 .768 2.064 1.104 3.312 1.104.216 0 .84 0 1.536-.12-.936-2.736-2.136-5.736-3.624-8.088a.649.649 0 0 1-.12-.384c0-.336.336-.552.696-.552.264 0 .576.12.744.456 1.416 2.784 2.496 5.568 3.408 8.304.6-.168 1.152-.36 1.632-.552a.942.942 0 0 1 .336-.072c.384 0 .6.312.6.648 0 .384 0 .672-2.16 1.224.096.312.216.624.312.936.288.912.648 1.608.888 2.28.168.504.24.888.24 1.2 0 .624-.288.864-.672.864-.24 0-.528-.096-.792-.264-.192-.12-2.592-.72-4.632-.72-3.096 0-3.576 1.488-3.576 1.8 0 1.032 1.8 2.136 4.584 2.136.384 0 .744-.024 1.032-.072h.168c.48 0 .744.288.744.624 0 .384-.288.768-1.176.768-4.44 0-6.648-1.752-6.648-3.36 0-1.08 1.128-3 4.944-3 1.296 0 2.592.192 3.672.312.12.024.24.024.336.024.24 0 .36-.072.36-.264 0-.048 0-.168-.912-3.048Zm23.16-4.296c.216.408.456.792.672 1.2.504.912 1.032 1.824 1.488 2.712a19.66 19.66 0 0 1 1.08 2.376c.264.72.36 1.224.36 1.584 0 .672-.312.888-.6.888-.24 0-.552-.12-.912-.432-1.152-.912-4.176-1.464-5.952-1.464-2.52 0-3.48 1.344-3.48 2.184 0 1.368 2.28 2.328 4.8 2.328.408 0 .816 0 1.224-.048h.144c.576 0 .84.336.84.696 0 .384-.312.792-.912.792h-.216c-4.632 0-7.176-1.728-7.176-3.672 0-1.2 1.128-3.36 4.896-3.36 1.848 0 3.792.456 5.28.72.072.024.144.024.192.024.072 0 .12-.024.12-.12 0-.216-.408-1.8-2.616-5.448-.144-.24-.264-.456-.384-.696-.072.024-1.944.456-2.904.456-2.496 0-4.512-2.232-4.512-2.808 0-.336.312-.6.672-.6.216 0 .456.096.624.312 1.296 1.608 2.592 1.92 3.456 1.92.192 0 .792-.024 2.064-.336-1.2-2.16-1.44-2.856-1.44-3.096 0-.384.288-.6.624-.6.312 0 .672.216.792.672.192.72.648 1.68 1.2 2.712a31.623 31.623 0 0 0 1.8-.6 1.32 1.32 0 0 1 .384-.072c.456 0 .696.312.696.648 0 .48-.264.624-2.304 1.128ZM18.312 118.552c-.048 1.656-1.104 2.784-2.952 2.856-1.056.048-2.184.048-3.288.048-1.104 0-2.184 0-3.168-.048-1.896-.072-3-1.08-3.048-2.736a237.99 237.99 0 0 1-.072-6.432c0-2.16.024-4.344.072-5.976.048-1.512 1.008-2.616 2.952-2.688.912-.024 2.256-.048 3.6-.048 1.08 0 2.16.024 3 .048 1.8.072 2.856 1.128 2.904 2.688.048 1.488.072 3.768.072 6.024 0 2.496-.024 4.968-.072 6.264Zm-11.256-7.344h10.008c0-1.824-.024-3.504-.072-4.584-.048-1.152-.432-1.848-1.944-1.896a83.908 83.908 0 0 0-2.88-.048c-1.128 0-2.304.024-3.048.048-1.32.048-1.944.624-1.992 1.896a117.373 117.373 0 0 0-.072 4.584Zm10.008 1.2H7.056c0 2.304 0 4.584.048 5.856.048 1.344.672 1.896 2.232 1.944.552.024 1.632.024 2.712.024 1.104 0 2.232 0 2.856-.024 1.512-.048 2.04-.72 2.088-2.064.048-1.32.072-3.528.072-5.736ZM5.352 149.704v-5.976c-1.056.384-2.928 1.032-3.192 1.032-.408 0-.624-.312-.624-.624 0-.24.144-.504.48-.6 1.08-.312 2.232-.624 3.336-1.008l-.024-4.656H2.4c-.36 0-.552-.288-.552-.576 0-.264.192-.552.552-.552h2.928v-4.584c0-.432.312-.648.624-.648s.624.216.624.648v4.584h2.376c.384 0 .552.288.552.552 0 .288-.168.576-.552.576H6.576v4.2a29.526 29.526 0 0 0 2.28-.984.445.445 0 0 1 .168-.048c.288 0 .552.312.552.624 0 .384-.36.6-3 1.632v3.552c0 .384 0 2.064.024 2.928v.048c0 1.344-.72 2.28-2.544 2.28-.912 0-1.92-.072-1.92-.768 0-.336.216-.648.576-.648h.096c.456.072.888.144 1.248.144.744 0 1.272-.24 1.296-1.128Zm16.584-9.624H9.864c-.384 0-.576-.264-.576-.552 0-.264.192-.528.576-.528l5.208.024-.024-3.048h-3.96c-.384 0-.576-.264-.576-.552 0-.264.192-.528.576-.528l3.96.024v-2.64c0-.384.312-.576.648-.576.312 0 .648.192.648.576l-.024 2.64 4.32-.024c.36 0 .552.264.552.528 0 .288-.192.552-.552.552h-4.32v3.048l5.616-.024c.36 0 .528.264.528.528 0 .288-.168.552-.528.552Zm-4.32 9.432-.024-5.304-7.728.024a.548.548 0 0 1-.576-.552c0-.288.192-.552.576-.552l7.728.024-.024-1.656c0-.384.312-.552.624-.552s.624.168.624.552v1.656l3.288-.024c.36 0 .528.264.528.552 0 .264-.168.552-.528.552l-3.288-.024.024 3.024.072 2.4v.144c0 1.128-.504 2.472-3.12 2.472-2.352 0-2.376-.48-2.376-.816 0-.312.216-.624.6-.624h.12c.696.12 1.32.216 1.848.216 1.008 0 1.632-.36 1.632-1.512Zm-2.88-.624c-.144 0-.336-.096-.48-.288-.744-.984-2.136-1.776-2.76-2.064-.192-.096-.288-.24-.288-.384 0-.288.288-.576.624-.576.552 0 3.504 1.656 3.504 2.616 0 .384-.264.696-.6.696ZM8.76 168.52c-.768.264-1.44.384-2.04.384-.48 0-1.872-.072-1.872-.864 0-.312.24-.624.648-.624.144 0 .288.024.432.096.288.096.6.168.96.168.648 0 1.368-.192 2.04-.504.528-4.08.576-4.44 1.32-4.44.336 0 .672.192.672.576 0 .048-.024.096-.024.144-.216 1.032-.48 1.992-.648 3a34.798 34.798 0 0 0 1.632-1.152c.216-.168.408-.24.6-.24.336 0 .576.264.576.6 0 .24-.144.528-.48.768a23.022 23.022 0 0 1-2.52 1.536c-.288 2.376-.864 6.24-.936 8.208 1.992-2.736 4.584-4.128 6.648-4.128.288 0 4.056.168 4.056 3.12 0 4.224-6.864 6.768-8.592 6.768-.528 0-.792-.312-.792-.624s.24-.6.696-.672c4.848-.72 7.344-3.816 7.344-5.424 0-1.704-2.136-2.016-2.856-2.016-2.232 0-4.68 2.112-5.928 4.056-.24.36-.384.768-.816.936a.664.664 0 0 1-.312.072.782.782 0 0 1-.792-.792c0-.312.096-1.728.984-8.952ZM339.088 121.6l.576.024c1.008.024 1.728.648 1.752 1.608.024 1.944.048 4.248.048 6.6 0 1.656-.024 3.36-.024 4.968 0 1.056-.744 1.848-1.92 1.944-.528.048-1.248.072-1.992.072-.72 0-1.464-.024-2.04-.048-.936-.048-1.872-.648-1.896-1.848a263.248 263.248 0 0 1-.048-4.536c0-2.472.024-5.016.048-7.08 0-.984.696-1.608 1.776-1.68.168 0 .312-.024.504-.024-.024-.912-.024-1.944-.024-2.784l-2.28.024a.548.548 0 0 1-.576-.552c0-.288.192-.552.576-.552h8.064c.384 0 .552.264.552.552 0 .264-.168.552-.552.552l-2.448-.024c-.048.936-.072 1.872-.096 2.784Zm8.832 12.648c-1.848 1.944-4.56 3.24-5.28 3.24a.619.619 0 0 1-.624-.624c0-.24.144-.456.408-.528 1.872-.528 3.48-1.656 4.728-2.976a11.441 11.441 0 0 1-1.728-3.096c-.024.024-2.112 3.264-2.88 3.264-.312 0-.624-.264-.624-.576 0-.12.072-.264.216-.408 1.896-1.752 3.216-3.936 4.128-6.168a.51.51 0 0 1 .48-.312c.288 0 .576.192.576.528 0 .096 0 .096-.504 1.176.96-.024 2.28-.024 2.64-.048h.12c1.032 0 1.488.432 1.488 1.128 0 1.08-1.512 3.504-2.448 4.608 1.104 1.056 2.592 1.896 4.608 2.376a.562.562 0 0 1 .456.576c0 .336-.24.696-.648.696-.216 0-2.832-.48-5.112-2.856Zm1.512-12.696v.024c0 .504-.072 2.352-.072 2.568 0 .624.072.936 1.152.936.912 0 1.656-.144 1.704-1.056 0-.336.264-.48.528-.48.288 0 .576.168.576.48 0 1.776-1.488 2.064-2.736 2.064-1.872 0-2.304-.576-2.304-1.8 0-.192.048-1.848.072-2.568l-1.776.192c0 .048-.024.096-.024.144-.432 3.192-3.096 4.872-3.672 4.872-.36 0-.6-.312-.6-.6a.46.46 0 0 1 .264-.432c1.44-.672 2.76-2.088 2.928-3.864-.936.096-2.352.216-2.64.216-.36 0-.528-.264-.528-.552 0-.264.168-.552.504-.552l1.752-.072c.48-1.008 1.128-2.616 1.44-3.768.072-.288.288-.408.528-.408.336 0 .696.24.696.576 0 .48-1.008 2.616-1.512 3.528a69.409 69.409 0 0 0 4.896-.576c-.456-.504-.912-.96-1.32-1.296-.144-.12-.192-.24-.192-.36 0-.264.288-.504.6-.504.648 0 3.48 2.952 3.48 3.792 0 .384-.312.696-.648.696-.168 0-.36-.096-.48-.336-.216-.384-.48-.792-.744-1.152l-1.872.288Zm-14.808 9.912h5.736c0-.984.024-1.968.024-2.928-.192.024-.432.024-.648.024-1.392 0-1.68-.576-1.68-1.92 0-1.248 0-2.64.024-4.152h-1.2c0 3.24-.264 6.048-2.28 7.176 0 .6.024 1.2.024 1.8Zm5.712 1.032h-5.688c.024.36.024.744.024 1.104v1.032c0 .504.384 1.032 1.104 1.056a49.98 49.98 0 0 0 1.896.048c1.656 0 2.592 0 2.64-1.152.024-.648.024-1.368.024-2.088Zm7.488.096c1.416-1.752 1.968-3.264 1.968-3.528 0-.264-.216-.384-.528-.384h-.072c-.144 0-1.776.024-2.88.048-.072.144-.144.312-.24.456.336 1.104.864 2.304 1.752 3.408Zm-8.448-10.08h-.384c0 .624-.024 1.224-.024 1.824 0 2.976.024 3.24.792 3.24.192 0 .48 0 .672-.024 0-1.008 0-3-.048-4.08-.024-.696-.408-.936-1.008-.96Zm-3.432 0h-.312c-.696.024-.96.456-.984 1.008a163.16 163.16 0 0 0-.072 5.136c1.224-1.008 1.368-3.192 1.368-5.448v-.696Zm.936-.936h1.224c0-.888.024-1.8.048-2.76h-1.248c-.024.84-.024 1.8-.024 2.76Zm8.64 45.336.024-3.624.096-5.208c-2.4 4.056-6.696 7.752-7.44 7.752-.36 0-.696-.312-.696-.648 0-.168.096-.336.312-.48a22.712 22.712 0 0 0 7.32-7.8l-4.56.048c-.36 0-.552-.288-.552-.576 0-.264.192-.552.552-.552l4.968.024v-3.744l-4.152.024a.542.542 0 0 1-.552-.552c0-.288.192-.552.552-.552l4.152.024-.024-3.72c0-.384.312-.576.624-.576s.624.192.624.576v3.72l4.68-.024c.384 0 .552.288.552.552 0 .288-.168.552-.528.552l-4.704-.024v3.744l5.736-.024c.36 0 .552.288.552.552 0 .288-.192.576-.552.576l-5.448-.048c1.704 3 4.224 5.544 6.576 7.248.192.144.264.312.264.48 0 .336-.36.696-.744.696-.816 0-4.512-3.96-6.456-7.224l.072 5.16v3.648c0 .384-.312.552-.624.552s-.624-.168-.624-.552Zm-11.688-6.96c0-1.224-.024-2.904-.024-4.56 0-1.68.024-3.336.024-4.488.048-1.872 1.632-1.896 2.4-1.896.48 0 .984 0 1.512.024 1.176.048 1.728.864 1.752 1.848.024.912.048 2.112.048 3.408 0 1.968-.024 4.128-.048 5.64-.048 1.992-1.776 2.016-2.88 2.016-1.608 0-2.736-.216-2.784-1.992Zm4.488-.264c.048-.84.048-1.944.048-3.144 0-1.944-.024-4.056-.048-5.304 0-1.08-.816-1.128-1.488-1.128-1.104 0-1.8.144-1.8 1.128-.024 1.2-.024 3.096-.024 4.896 0 1.344 0 2.64.024 3.576.024.768.24 1.104 1.632 1.104 1.128 0 1.632-.144 1.656-1.128Z" fill="#534646"/></svg>