<svg width="358" height="352" viewBox="0 0 358 352" fill="none" xmlns="http://www.w3.org/2000/svg">
<circle cx="179" cy="193" r="149.5" stroke="#333333"/>
<circle cx="179" cy="193" r="109.5" stroke="#333333"/>
<circle cx="179" cy="193" r="73.5" stroke="#333333"/>
<path d="M215.5 193.5C215.5 213.376 199.165 229.5 179 229.5C158.835 229.5 142.5 213.376 142.5 193.5C142.5 173.624 158.835 157.5 179 157.5C199.165 157.5 215.5 173.624 215.5 193.5Z" stroke="#333333"/>
<path d="M178 44V193.5" stroke="#333333"/>
<path d="M320 146L178 193.006" stroke="#333333"/>
<path d="M36.5 146L178 193.006" stroke="#333333"/>
<path d="M178.349 193.163L89.3849 313.311" stroke="#333333"/>
<path d="M178 193.163L266.964 313.311" stroke="#333333"/>
<path d="M109.5 170.5L177 84L230 121.5L283 159L242.5 282.5L135.5 250L109.5 170.5Z" fill="#D4D4D4" fill-opacity="0.7"/>
<path d="M176.552 13.992H172.232C172.232 18.096 172.232 23.184 172.184 24.936C172.136 26.352 171.272 27.264 169.688 27.384C169.256 27.408 168.248 27.432 167.168 27.432C165.872 27.432 164.504 27.408 164.024 27.384C162.392 27.312 161.648 26.352 161.624 24.96C161.624 24.048 161.6 22.32 161.6 20.328C161.6 18.336 161.624 16.032 161.624 13.992H157.424C157.016 13.992 156.824 13.68 156.824 13.392C156.824 13.08 157.016 12.792 157.424 12.792L161.624 12.816V8.952C161.624 8.544 161.96 8.352 162.296 8.352C162.632 8.352 162.968 8.544 162.968 8.928C162.968 9.672 162.944 11.088 162.944 12.816H170.888C170.888 11.16 170.864 9.768 170.864 8.976C170.864 8.592 171.2 8.4 171.536 8.4C171.872 8.4 172.208 8.592 172.208 8.976L172.232 12.816L176.552 12.792C176.984 12.792 177.2 13.104 177.2 13.392C177.2 13.704 176.984 13.992 176.552 13.992ZM170.888 13.992H162.944C162.944 15.552 162.92 17.256 162.92 18.84H170.912C170.912 17.256 170.888 15.552 170.888 13.992ZM170.912 19.992H162.92C162.92 22.056 162.92 23.808 162.944 24.624C162.968 25.56 163.304 26.088 164.336 26.184C164.72 26.208 165.968 26.232 167.144 26.232C170 26.232 170.792 26.208 170.864 24.648C170.888 23.856 170.912 22.104 170.912 19.992ZM193.328 14.4C193.544 14.808 193.784 15.192 194 15.6C194.504 16.512 195.032 17.424 195.488 18.312C195.944 19.176 196.304 19.968 196.568 20.688C196.832 21.408 196.928 21.912 196.928 22.272C196.928 22.944 196.616 23.16 196.328 23.16C196.088 23.16 195.776 23.04 195.416 22.728C194.264 21.816 191.24 21.264 189.464 21.264C186.944 21.264 185.984 22.608 185.984 23.448C185.984 24.816 188.264 25.776 190.784 25.776C191.192 25.776 191.6 25.776 192.008 25.728C192.056 25.728 192.104 25.728 192.152 25.728C192.728 25.728 192.992 26.064 192.992 26.424C192.992 26.808 192.68 27.216 192.08 27.216C192.008 27.216 191.936 27.216 191.864 27.216C187.232 27.216 184.688 25.488 184.688 23.544C184.688 22.344 185.816 20.184 189.584 20.184C191.432 20.184 193.376 20.64 194.864 20.904C194.936 20.928 195.008 20.928 195.056 20.928C195.128 20.928 195.176 20.904 195.176 20.808C195.176 20.592 194.768 19.008 192.56 15.36C192.416 15.12 192.296 14.904 192.176 14.664C192.104 14.688 190.232 15.12 189.272 15.12C186.776 15.12 184.76 12.888 184.76 12.312C184.76 11.976 185.072 11.712 185.432 11.712C185.648 11.712 185.888 11.808 186.056 12.024C187.352 13.632 188.648 13.944 189.512 13.944C189.704 13.944 190.304 13.92 191.576 13.608C190.376 11.448 190.136 10.752 190.136 10.512C190.136 10.128 190.424 9.912 190.76 9.912C191.072 9.912 191.432 10.128 191.552 10.584C191.744 11.304 192.2 12.264 192.752 13.296C193.376 13.104 193.976 12.912 194.552 12.696C194.696 12.648 194.84 12.624 194.936 12.624C195.392 12.624 195.632 12.936 195.632 13.272C195.632 13.752 195.368 13.896 193.328 14.4Z" fill="#534646"/>
<path d="M54.976 343.504C52.936 343.456 51.904 342.376 51.856 340.744C51.808 338.968 51.784 336.952 51.784 334.912C51.784 332.272 51.808 329.584 51.856 327.16C51.88 325.792 53.008 324.712 54.76 324.688C56.8 324.64 58.864 324.64 60.976 324.64C63.088 324.64 65.248 324.64 67.48 324.688C69.016 324.712 70.24 325.768 70.264 327.352C70.312 329.752 70.336 332.344 70.336 334.912C70.336 336.904 70.312 338.872 70.264 340.672C70.216 342.304 69.04 343.456 67.432 343.504C65.44 343.576 63.304 343.6 61.192 343.6C59.08 343.6 56.968 343.576 54.976 343.504ZM68.968 340.312C69.016 338.512 69.04 336.448 69.04 334.408C69.04 332.104 69.016 329.776 68.968 327.784C68.944 326.44 68.224 325.816 66.904 325.792C65.224 325.768 63.376 325.744 61.552 325.744C59.32 325.744 57.112 325.768 55.264 325.792C53.8 325.816 53.152 326.536 53.128 327.784C53.08 329.872 53.056 332.248 53.056 334.552C53.056 336.616 53.08 338.656 53.128 340.384C53.176 341.752 53.872 342.328 55.504 342.376C57.208 342.424 59.056 342.448 60.952 342.448C62.872 342.448 64.84 342.424 66.808 342.376C68.272 342.352 68.92 341.56 68.968 340.312ZM66.592 330.904H61.576L61.552 333.784C62.152 333.784 62.752 333.808 63.184 333.832C64.36 333.88 65.104 334.528 65.128 335.416C65.152 335.944 65.176 336.52 65.176 337.096C65.176 337.576 65.152 338.032 65.128 338.44C65.08 339.256 64.48 340 63.064 340.096C62.512 340.12 61.696 340.144 60.88 340.144C58.264 340.144 56.896 340.096 56.848 338.464C56.848 337.96 56.824 337.456 56.824 336.952C56.824 336.448 56.848 335.944 56.848 335.488C56.896 333.784 58.504 333.784 60.376 333.784L60.352 330.904H55.504C55.144 330.904 54.952 330.64 54.952 330.352C54.952 330.088 55.144 329.824 55.504 329.824L60.352 329.848L60.328 327.568C60.328 327.184 60.64 326.992 60.952 326.992C61.264 326.992 61.576 327.184 61.576 327.568V329.848L66.592 329.824C66.952 329.824 67.144 330.088 67.144 330.352C67.144 330.64 66.952 330.904 66.592 330.904ZM63.904 338.08C63.928 337.768 63.928 337.312 63.928 336.856C63.928 336.4 63.928 335.968 63.904 335.728C63.856 334.84 63.328 334.792 61 334.792C58.048 334.792 58.048 334.792 58.048 337C58.048 339.064 58.072 339.088 60.568 339.088C61.456 339.088 62.44 339.088 62.848 339.064C63.496 339.04 63.88 338.656 63.904 338.08ZM87.328 330.4C87.544 330.808 87.784 331.192 88 331.6C88.504 332.512 89.032 333.424 89.488 334.312C89.944 335.176 90.304 335.968 90.568 336.688C90.832 337.408 90.928 337.912 90.928 338.272C90.928 338.944 90.616 339.16 90.328 339.16C90.088 339.16 89.776 339.04 89.416 338.728C88.264 337.816 85.24 337.264 83.464 337.264C80.944 337.264 79.984 338.608 79.984 339.448C79.984 340.816 82.264 341.776 84.784 341.776C85.192 341.776 85.6 341.776 86.008 341.728C86.056 341.728 86.104 341.728 86.152 341.728C86.728 341.728 86.992 342.064 86.992 342.424C86.992 342.808 86.68 343.216 86.08 343.216C86.008 343.216 85.936 343.216 85.864 343.216C81.232 343.216 78.688 341.488 78.688 339.544C78.688 338.344 79.816 336.184 83.584 336.184C85.432 336.184 87.376 336.64 88.864 336.904C88.936 336.928 89.008 336.928 89.056 336.928C89.128 336.928 89.176 336.904 89.176 336.808C89.176 336.592 88.768 335.008 86.56 331.36C86.416 331.12 86.296 330.904 86.176 330.664C86.104 330.688 84.232 331.12 83.272 331.12C80.776 331.12 78.76 328.888 78.76 328.312C78.76 327.976 79.072 327.712 79.432 327.712C79.648 327.712 79.888 327.808 80.056 328.024C81.352 329.632 82.648 329.944 83.512 329.944C83.704 329.944 84.304 329.92 85.576 329.608C84.376 327.448 84.136 326.752 84.136 326.512C84.136 326.128 84.424 325.912 84.76 325.912C85.072 325.912 85.432 326.128 85.552 326.584C85.744 327.304 86.2 328.264 86.752 329.296C87.376 329.104 87.976 328.912 88.552 328.696C88.696 328.648 88.84 328.624 88.936 328.624C89.392 328.624 89.632 328.936 89.632 329.272C89.632 329.752 89.368 329.896 87.328 330.4Z" fill="#534646"/>
<path d="M278.216 331.312L269.864 331.264C270.992 336.616 274.952 340.768 279.008 342.328C279.32 342.448 279.44 342.688 279.44 342.952C279.44 343.36 279.128 343.792 278.648 343.792C277.424 343.792 270.92 339.688 269.144 332.896C267.032 341.296 259.856 344.056 259.424 344.056C258.992 344.056 258.704 343.696 258.704 343.312C258.704 343.096 258.824 342.856 259.112 342.736C264.92 340.264 267.392 335.92 268.16 331.264L259.736 331.312C259.328 331.312 259.112 331 259.112 330.688C259.112 330.4 259.328 330.088 259.736 330.088H268.328C268.376 329.728 268.424 328.96 268.424 327.28C268.424 326.344 268.424 325.312 268.4 324.712V324.688C268.4 324.28 268.76 324.064 269.12 324.064C269.504 324.064 269.864 324.28 269.864 324.736C269.864 326.872 269.696 329.68 269.648 330.088H278.216C278.648 330.088 278.84 330.4 278.84 330.688C278.84 331 278.648 331.312 278.216 331.312ZM296.168 334.696C295.544 334.792 294.92 334.84 294.32 334.84C292.52 334.84 289.64 334.312 289.64 332.608C289.64 332.128 289.928 331.648 290.48 331.24C291.848 330.328 291.848 330.328 291.848 330.16C291.848 329.44 288.728 328.456 287.912 328.288C287.504 328.216 287.312 327.952 287.312 327.712C287.312 327.424 287.552 327.136 288.032 327.136C288.608 327.136 293.528 328.768 293.528 330.352C293.528 330.856 292.976 331.096 292.664 331.168C292.64 331.168 290.936 331.84 290.936 332.512C290.936 333.28 293 333.616 294.248 333.616C294.464 333.616 295.088 333.616 295.784 333.496C294.848 330.76 293.648 327.76 292.16 325.408C292.064 325.264 292.04 325.144 292.04 325.024C292.04 324.688 292.376 324.472 292.736 324.472C293 324.472 293.312 324.592 293.48 324.928C294.896 327.712 295.976 330.496 296.888 333.232C297.488 333.064 298.04 332.872 298.52 332.68C298.64 332.632 298.76 332.608 298.856 332.608C299.24 332.608 299.456 332.92 299.456 333.256C299.456 333.64 299.456 333.928 297.296 334.48C297.392 334.792 297.512 335.104 297.608 335.416C297.896 336.328 298.256 337.024 298.496 337.696C298.664 338.2 298.736 338.584 298.736 338.896C298.736 339.52 298.448 339.76 298.064 339.76C297.824 339.76 297.536 339.664 297.272 339.496C297.08 339.376 294.68 338.776 292.64 338.776C289.544 338.776 289.064 340.264 289.064 340.576C289.064 341.608 290.864 342.712 293.648 342.712C294.032 342.712 294.392 342.688 294.68 342.64C294.728 342.64 294.776 342.64 294.848 342.64C295.328 342.64 295.592 342.928 295.592 343.264C295.592 343.648 295.304 344.032 294.416 344.032C289.976 344.032 287.768 342.28 287.768 340.672C287.768 339.592 288.896 337.672 292.712 337.672C294.008 337.672 295.304 337.864 296.384 337.984C296.504 338.008 296.624 338.008 296.72 338.008C296.96 338.008 297.08 337.936 297.08 337.744C297.08 337.696 297.08 337.576 296.168 334.696ZM319.328 330.4C319.544 330.808 319.784 331.192 320 331.6C320.504 332.512 321.032 333.424 321.488 334.312C321.944 335.176 322.304 335.968 322.568 336.688C322.832 337.408 322.928 337.912 322.928 338.272C322.928 338.944 322.616 339.16 322.328 339.16C322.088 339.16 321.776 339.04 321.416 338.728C320.264 337.816 317.24 337.264 315.464 337.264C312.944 337.264 311.984 338.608 311.984 339.448C311.984 340.816 314.264 341.776 316.784 341.776C317.192 341.776 317.6 341.776 318.008 341.728C318.056 341.728 318.104 341.728 318.152 341.728C318.728 341.728 318.992 342.064 318.992 342.424C318.992 342.808 318.68 343.216 318.08 343.216C318.008 343.216 317.936 343.216 317.864 343.216C313.232 343.216 310.688 341.488 310.688 339.544C310.688 338.344 311.816 336.184 315.584 336.184C317.432 336.184 319.376 336.64 320.864 336.904C320.936 336.928 321.008 336.928 321.056 336.928C321.128 336.928 321.176 336.904 321.176 336.808C321.176 336.592 320.768 335.008 318.56 331.36C318.416 331.12 318.296 330.904 318.176 330.664C318.104 330.688 316.232 331.12 315.272 331.12C312.776 331.12 310.76 328.888 310.76 328.312C310.76 327.976 311.072 327.712 311.432 327.712C311.648 327.712 311.888 327.808 312.056 328.024C313.352 329.632 314.648 329.944 315.512 329.944C315.704 329.944 316.304 329.92 317.576 329.608C316.376 327.448 316.136 326.752 316.136 326.512C316.136 326.128 316.424 325.912 316.76 325.912C317.072 325.912 317.432 326.128 317.552 326.584C317.744 327.304 318.2 328.264 318.752 329.296C319.376 329.104 319.976 328.912 320.552 328.696C320.696 328.648 320.84 328.624 320.936 328.624C321.392 328.624 321.632 328.936 321.632 329.272C321.632 329.752 321.368 329.896 319.328 330.4Z" fill="#534646"/>
<path d="M18.312 118.552C18.264 120.208 17.208 121.336 15.36 121.408C14.304 121.456 13.176 121.456 12.072 121.456C10.968 121.456 9.888 121.456 8.904 121.408C7.008 121.336 5.904 120.328 5.856 118.672C5.808 117.088 5.784 114.664 5.784 112.24C5.784 110.08 5.808 107.896 5.856 106.264C5.904 104.752 6.864 103.648 8.808 103.576C9.72 103.552 11.064 103.528 12.408 103.528C13.488 103.528 14.568 103.552 15.408 103.576C17.208 103.648 18.264 104.704 18.312 106.264C18.36 107.752 18.384 110.032 18.384 112.288C18.384 114.784 18.36 117.256 18.312 118.552ZM7.056 111.208H17.064C17.064 109.384 17.04 107.704 16.992 106.624C16.944 105.472 16.56 104.776 15.048 104.728C14.424 104.704 13.296 104.68 12.168 104.68C11.04 104.68 9.864 104.704 9.12 104.728C7.8 104.776 7.176 105.352 7.128 106.624C7.08 107.728 7.056 109.408 7.056 111.208ZM17.064 112.408H7.056C7.056 114.712 7.056 116.992 7.104 118.264C7.152 119.608 7.776 120.16 9.336 120.208C9.888 120.232 10.968 120.232 12.048 120.232C13.152 120.232 14.28 120.232 14.904 120.208C16.416 120.16 16.944 119.488 16.992 118.144C17.04 116.824 17.064 114.616 17.064 112.408ZM5.352 149.704V143.728C4.296 144.112 2.424 144.76 2.16 144.76C1.752 144.76 1.536 144.448 1.536 144.136C1.536 143.896 1.68 143.632 2.016 143.536C3.096 143.224 4.248 142.912 5.352 142.528L5.328 137.872H2.4C2.04 137.872 1.848 137.584 1.848 137.296C1.848 137.032 2.04 136.744 2.4 136.744H5.328V132.16C5.328 131.728 5.64 131.512 5.952 131.512C6.264 131.512 6.576 131.728 6.576 132.16V136.744H8.952C9.336 136.744 9.504 137.032 9.504 137.296C9.504 137.584 9.336 137.872 8.952 137.872H6.576V142.072C7.392 141.76 8.16 141.424 8.856 141.088C8.904 141.064 8.976 141.04 9.024 141.04C9.312 141.04 9.576 141.352 9.576 141.664C9.576 142.048 9.216 142.264 6.576 143.296V146.848C6.576 147.232 6.576 148.912 6.6 149.776V149.824C6.6 151.168 5.88 152.104 4.056 152.104C3.144 152.104 2.136 152.032 2.136 151.336C2.136 151 2.352 150.688 2.712 150.688H2.808C3.264 150.76 3.696 150.832 4.056 150.832C4.8 150.832 5.328 150.592 5.352 149.704ZM21.936 140.08H9.864C9.48 140.08 9.288 139.816 9.288 139.528C9.288 139.264 9.48 139 9.864 139L15.072 139.024L15.048 135.976H11.088C10.704 135.976 10.512 135.712 10.512 135.424C10.512 135.16 10.704 134.896 11.088 134.896L15.048 134.92V132.28C15.048 131.896 15.36 131.704 15.696 131.704C16.008 131.704 16.344 131.896 16.344 132.28L16.32 134.92L20.64 134.896C21 134.896 21.192 135.16 21.192 135.424C21.192 135.712 21 135.976 20.64 135.976H16.32V139.024L21.936 139C22.296 139 22.464 139.264 22.464 139.528C22.464 139.816 22.296 140.08 21.936 140.08ZM17.616 149.512L17.592 144.208L9.864 144.232C9.48 144.232 9.288 143.944 9.288 143.68C9.288 143.392 9.48 143.128 9.864 143.128L17.592 143.152L17.568 141.496C17.568 141.112 17.88 140.944 18.192 140.944C18.504 140.944 18.816 141.112 18.816 141.496V143.152L22.104 143.128C22.464 143.128 22.632 143.392 22.632 143.68C22.632 143.944 22.464 144.232 22.104 144.232L18.816 144.208L18.84 147.232L18.912 149.632V149.776C18.912 150.904 18.408 152.248 15.792 152.248C13.44 152.248 13.416 151.768 13.416 151.432C13.416 151.12 13.632 150.808 14.016 150.808H14.136C14.832 150.928 15.456 151.024 15.984 151.024C16.992 151.024 17.616 150.664 17.616 149.512ZM14.736 148.888C14.592 148.888 14.4 148.792 14.256 148.6C13.512 147.616 12.12 146.824 11.496 146.536C11.304 146.44 11.208 146.296 11.208 146.152C11.208 145.864 11.496 145.576 11.832 145.576C12.384 145.576 15.336 147.232 15.336 148.192C15.336 148.576 15.072 148.888 14.736 148.888ZM8.76 168.52C7.992 168.784 7.32 168.904 6.72 168.904C6.24 168.904 4.848 168.832 4.848 168.04C4.848 167.728 5.088 167.416 5.496 167.416C5.64 167.416 5.784 167.44 5.928 167.512C6.216 167.608 6.528 167.68 6.888 167.68C7.536 167.68 8.256 167.488 8.928 167.176C9.456 163.096 9.504 162.736 10.248 162.736C10.584 162.736 10.92 162.928 10.92 163.312C10.92 163.36 10.896 163.408 10.896 163.456C10.68 164.488 10.416 165.448 10.248 166.456C10.752 166.12 11.544 165.568 11.88 165.304C12.096 165.136 12.288 165.064 12.48 165.064C12.816 165.064 13.056 165.328 13.056 165.664C13.056 165.904 12.912 166.192 12.576 166.432C11.64 167.08 10.8 167.584 10.056 167.968C9.768 170.344 9.192 174.208 9.12 176.176C11.112 173.44 13.704 172.048 15.768 172.048C16.056 172.048 19.824 172.216 19.824 175.168C19.824 179.392 12.96 181.936 11.232 181.936C10.704 181.936 10.44 181.624 10.44 181.312C10.44 181 10.68 180.712 11.136 180.64C15.984 179.92 18.48 176.824 18.48 175.216C18.48 173.512 16.344 173.2 15.624 173.2C13.392 173.2 10.944 175.312 9.696 177.256C9.456 177.616 9.312 178.024 8.88 178.192C8.784 178.24 8.688 178.264 8.568 178.264C8.184 178.264 7.776 177.976 7.776 177.472C7.776 177.16 7.872 175.744 8.76 168.52Z" fill="#534646"/>
<path d="M339.088 121.6L339.664 121.624C340.672 121.648 341.392 122.272 341.416 123.232C341.44 125.176 341.464 127.48 341.464 129.832C341.464 131.488 341.44 133.192 341.44 134.8C341.44 135.856 340.696 136.648 339.52 136.744C338.992 136.792 338.272 136.816 337.528 136.816C336.808 136.816 336.064 136.792 335.488 136.768C334.552 136.72 333.616 136.12 333.592 134.92C333.568 133.528 333.544 131.968 333.544 130.384C333.544 127.912 333.568 125.368 333.592 123.304C333.592 122.32 334.288 121.696 335.368 121.624C335.536 121.624 335.68 121.6 335.872 121.6C335.848 120.688 335.848 119.656 335.848 118.816L333.568 118.84C333.184 118.84 332.992 118.552 332.992 118.288C332.992 118 333.184 117.736 333.568 117.736H341.632C342.016 117.736 342.184 118 342.184 118.288C342.184 118.552 342.016 118.84 341.632 118.84L339.184 118.816C339.136 119.752 339.112 120.688 339.088 121.6ZM347.92 134.248C346.072 136.192 343.36 137.488 342.64 137.488C342.256 137.488 342.016 137.176 342.016 136.864C342.016 136.624 342.16 136.408 342.424 136.336C344.296 135.808 345.904 134.68 347.152 133.36C346.36 132.352 345.808 131.296 345.424 130.264C345.4 130.288 343.312 133.528 342.544 133.528C342.232 133.528 341.92 133.264 341.92 132.952C341.92 132.832 341.992 132.688 342.136 132.544C344.032 130.792 345.352 128.608 346.264 126.376C346.36 126.16 346.552 126.064 346.744 126.064C347.032 126.064 347.32 126.256 347.32 126.592C347.32 126.688 347.32 126.688 346.816 127.768C347.776 127.744 349.096 127.744 349.456 127.72H349.576C350.608 127.72 351.064 128.152 351.064 128.848C351.064 129.928 349.552 132.352 348.616 133.456C349.72 134.512 351.208 135.352 353.224 135.832C353.536 135.904 353.68 136.144 353.68 136.408C353.68 136.744 353.44 137.104 353.032 137.104C352.816 137.104 350.2 136.624 347.92 134.248ZM349.432 121.552V121.576C349.432 122.08 349.36 123.928 349.36 124.144C349.36 124.768 349.432 125.08 350.512 125.08C351.424 125.08 352.168 124.936 352.216 124.024C352.216 123.688 352.48 123.544 352.744 123.544C353.032 123.544 353.32 123.712 353.32 124.024C353.32 125.8 351.832 126.088 350.584 126.088C348.712 126.088 348.28 125.512 348.28 124.288C348.28 124.096 348.328 122.44 348.352 121.72L346.576 121.912C346.576 121.96 346.552 122.008 346.552 122.056C346.12 125.248 343.456 126.928 342.88 126.928C342.52 126.928 342.28 126.616 342.28 126.328C342.28 126.16 342.352 125.992 342.544 125.896C343.984 125.224 345.304 123.808 345.472 122.032C344.536 122.128 343.12 122.248 342.832 122.248C342.472 122.248 342.304 121.984 342.304 121.696C342.304 121.432 342.472 121.144 342.808 121.144L344.56 121.072C345.04 120.064 345.688 118.456 346 117.304C346.072 117.016 346.288 116.896 346.528 116.896C346.864 116.896 347.224 117.136 347.224 117.472C347.224 117.952 346.216 120.088 345.712 121C347.488 120.856 349.216 120.64 350.608 120.424C350.152 119.92 349.696 119.464 349.288 119.128C349.144 119.008 349.096 118.888 349.096 118.768C349.096 118.504 349.384 118.264 349.696 118.264C350.344 118.264 353.176 121.216 353.176 122.056C353.176 122.44 352.864 122.752 352.528 122.752C352.36 122.752 352.168 122.656 352.048 122.416C351.832 122.032 351.568 121.624 351.304 121.264L349.432 121.552ZM334.624 131.464H340.36C340.36 130.48 340.384 129.496 340.384 128.536C340.192 128.56 339.952 128.56 339.736 128.56C338.344 128.56 338.056 127.984 338.056 126.64C338.056 125.392 338.056 124 338.08 122.488H336.88C336.88 125.728 336.616 128.536 334.6 129.664C334.6 130.264 334.624 130.864 334.624 131.464ZM340.336 132.496H334.648C334.672 132.856 334.672 133.24 334.672 133.6V134.632C334.672 135.136 335.056 135.664 335.776 135.688C336.4 135.712 337.048 135.736 337.672 135.736C339.328 135.736 340.264 135.736 340.312 134.584C340.336 133.936 340.336 133.216 340.336 132.496ZM347.824 132.592C349.24 130.84 349.792 129.328 349.792 129.064C349.792 128.8 349.576 128.68 349.264 128.68H349.192C349.048 128.68 347.416 128.704 346.312 128.728C346.24 128.872 346.168 129.04 346.072 129.184C346.408 130.288 346.936 131.488 347.824 132.592ZM339.376 122.512H338.992C338.992 123.136 338.968 123.736 338.968 124.336C338.968 127.312 338.992 127.576 339.76 127.576C339.952 127.576 340.24 127.576 340.432 127.552C340.432 126.544 340.432 124.552 340.384 123.472C340.36 122.776 339.976 122.536 339.376 122.512ZM335.944 122.512H335.632C334.936 122.536 334.672 122.968 334.648 123.52C334.6 124.96 334.576 126.808 334.576 128.656C335.8 127.648 335.944 125.464 335.944 123.208V122.512ZM336.88 121.576H338.104C338.104 120.688 338.128 119.776 338.152 118.816H336.904C336.88 119.656 336.88 120.616 336.88 121.576ZM345.52 166.912L345.544 163.288L345.64 158.08C343.24 162.136 338.944 165.832 338.2 165.832C337.84 165.832 337.504 165.52 337.504 165.184C337.504 165.016 337.6 164.848 337.816 164.704C340.624 162.88 343.288 160.192 345.136 156.904L340.576 156.952C340.216 156.952 340.024 156.664 340.024 156.376C340.024 156.112 340.216 155.824 340.576 155.824L345.544 155.848V152.104L341.392 152.128C341.032 152.128 340.84 151.84 340.84 151.576C340.84 151.288 341.032 151.024 341.392 151.024L345.544 151.048L345.52 147.328C345.52 146.944 345.832 146.752 346.144 146.752C346.456 146.752 346.768 146.944 346.768 147.328V151.048L351.448 151.024C351.832 151.024 352 151.312 352 151.576C352 151.864 351.832 152.128 351.472 152.128L346.768 152.104V155.848L352.504 155.824C352.864 155.824 353.056 156.112 353.056 156.376C353.056 156.664 352.864 156.952 352.504 156.952L347.056 156.904C348.76 159.904 351.28 162.448 353.632 164.152C353.824 164.296 353.896 164.464 353.896 164.632C353.896 164.968 353.536 165.328 353.152 165.328C352.336 165.328 348.64 161.368 346.696 158.104L346.768 163.264V166.912C346.768 167.296 346.456 167.464 346.144 167.464C345.832 167.464 345.52 167.296 345.52 166.912ZM333.832 159.952C333.832 158.728 333.808 157.048 333.808 155.392C333.808 153.712 333.832 152.056 333.832 150.904C333.88 149.032 335.464 149.008 336.232 149.008C336.712 149.008 337.216 149.008 337.744 149.032C338.92 149.08 339.472 149.896 339.496 150.88C339.52 151.792 339.544 152.992 339.544 154.288C339.544 156.256 339.52 158.416 339.496 159.928C339.448 161.92 337.72 161.944 336.616 161.944C335.008 161.944 333.88 161.728 333.832 159.952ZM338.32 159.688C338.368 158.848 338.368 157.744 338.368 156.544C338.368 154.6 338.344 152.488 338.32 151.24C338.32 150.16 337.504 150.112 336.832 150.112C335.728 150.112 335.032 150.256 335.032 151.24C335.008 152.44 335.008 154.336 335.008 156.136C335.008 157.48 335.008 158.776 335.032 159.712C335.056 160.48 335.272 160.816 336.664 160.816C337.792 160.816 338.296 160.672 338.32 159.688Z" fill="#534646"/>
</svg>
