<svg width="94" height="5" viewBox="0 0 94 5" fill="none" xmlns="http://www.w3.org/2000/svg">
<path d="M1 2.5C4.06667 0.5 7.13333 0.5 10.2 2.5C13.2667 4.5 16.3333 4.5 19.4 2.5C22.4667 0.5 25.5333 0.5 28.6 2.5C31.6667 4.5 34.7333 4.5 37.8 2.5C40.8667 0.5 43.9333 0.5 47 2.5C50.0667 4.5 53.1333 4.5 56.2 2.5C59.2667 0.5 62.3333 0.5 65.4 2.5C68.4667 4.5 71.5333 4.5 74.6 2.5C77.6667 0.5 80.7333 0.5 83.8 2.5C86.8667 4.5 89.9333 4.5 93 2.5" stroke="#EB6D6D" stroke-width="2" stroke-linejoin="round" stroke-dasharray="1 4"/>
</svg>
