<svg width="299" height="59" viewBox="0 0 299 59" fill="none" xmlns="http://www.w3.org/2000/svg">
<g clip-path="url(#clip0_159_2897)">
<path d="M86.0471 35.6503C85.2387 35.6503 84.3168 36.3677 83.2233 37.844C78.7545 43.9913 73.1884 49.238 66.8122 53.3132C65.3084 54.2563 63.5953 54.8033 61.829 54.9044C57.8231 54.9044 57.8231 50.1 57.8231 47.2286C57.8344 44.6797 58.0194 42.1347 58.3768 39.6116C61.1618 36.4181 74.5665 20.7357 77.8747 10.9925C78.2526 9.92629 78.4482 8.80299 78.4533 7.6703C78.5365 6.74292 78.4375 5.80799 78.1619 4.91952C77.8864 4.03106 77.4398 3.20662 76.8479 2.49362C76.256 1.78061 75.5305 1.19328 74.7132 0.76532C73.896 0.337359 73.0031 0.0771459 72.086 0C71.108 0.0367481 70.1474 0.272669 69.2617 0.693849C68.376 1.11503 67.5833 1.71281 66.9312 2.45121C62.3772 6.98666 55.9987 21.9462 53.9556 36.7767C53.8781 36.8776 53.8006 36.9757 53.7203 37.0821C50.7304 41.2842 43.6156 48.9598 37.2427 51.68C36.0207 52.2364 34.7056 52.5538 33.3669 52.6156C30.7812 52.6156 30.3964 49.4781 30.3964 47.6068C30.8108 41.5651 32.306 35.6495 34.8092 30.1484C35.0198 29.7035 35.1519 29.2247 35.1996 28.7337C35.2153 28.4609 35.1737 28.1879 35.0777 27.9325C34.9817 27.677 34.8335 27.445 34.6426 27.2516C34.4518 27.0582 34.2227 26.908 33.9704 26.8105C33.7181 26.713 33.4483 26.6705 33.1787 26.686C32.1876 26.686 30.5293 27.263 28.1955 29.972C25.3662 26.0192 22.3182 24.0163 19.1345 24.0163C12.2882 24.0163 -0.03125 42.3599 -0.03125 48.6546C0.224608 50.492 1.10023 52.1832 2.4473 53.4421C3.79437 54.7011 5.53007 55.4503 7.36042 55.5627C8.21626 55.5668 9.06051 55.3621 9.82156 54.9659C16.391 51.6043 24.3502 41.6565 26.5538 38.7991C26.2377 40.7016 26.0739 42.627 26.0638 44.5561C25.9142 47.1939 26.4426 49.8257 27.5975 52.1953C28.155 53.6261 29.1137 54.8608 30.3557 55.7473C31.5977 56.6338 33.0688 57.1333 34.5878 57.1846C35.8483 57.18 37.0946 56.9151 38.2504 56.4059C43.6737 54.2937 49.7476 47.968 53.3383 43.4858C53.3078 44.2618 53.2857 45.0323 53.2857 45.7971C53.2857 54.1845 56.8043 58.9974 62.9391 58.9974C64.7241 58.9625 66.4841 58.5672 68.1161 57.8347C75.1534 54.8764 84.0345 43.1358 86.5842 39.2615C87.0256 38.6729 87.2718 37.958 87.2874 37.2192C87.315 36.278 86.7974 35.6503 86.0471 35.6503ZM59.9991 31.4315C61.6103 25.4645 62.7675 21.3327 64.4119 16.6124C66.5353 10.4241 68.9632 6.52722 72.0527 4.33374C72.4424 4.00543 72.9301 3.81989 73.437 3.80711C74.0958 3.80711 74.4281 4.40095 74.4281 5.57473C74.3259 7.25911 73.9167 8.90994 73.221 10.4436C69.8035 18.0306 65.352 25.0951 59.9963 31.4315H59.9991ZM25.6707 32.9919C20.5621 39.4669 14.8024 45.3873 8.48441 50.6575C7.71038 51.2984 6.77797 51.7129 5.78797 51.8564C5.54158 51.8564 4.79688 51.8564 4.79688 50.4698C4.79688 48.0381 7.30504 42.5921 10.76 37.5188C14.5638 31.9328 18.3649 28.4396 20.671 28.3975C22.977 28.3555 24.7848 31.213 25.6707 32.9919Z" fill="#63686A"/>
<path d="M159.201 27.4085C160.308 27.1703 160.441 26.5316 160.452 26.2711C160.486 25.2878 158.919 23.9795 157.659 23.9375C157.063 23.9545 156.485 24.1493 155.998 24.4976C152.92 26.4586 148.039 33.0895 143.319 39.4963C140.676 43.2531 137.844 46.8707 134.836 50.3349C133.934 51.3322 132.818 52.4723 132.209 52.4527C131.038 52.4135 130.603 51.0519 130.711 47.7715C130.987 42.2212 132.277 36.7711 134.518 31.6974C134.795 31.1952 135.111 30.7165 135.465 30.2659C135.761 29.9754 135.934 29.5794 135.946 29.1621C135.993 27.7334 133.97 26.6661 132.123 26.6045C131.174 26.5528 130.238 26.8513 129.49 27.4447C126.259 31.1223 123.406 35.1226 120.975 39.3841C118.223 43.8903 115.243 48.2498 112.047 52.4445C110.826 53.8872 110.028 54.7665 109.043 54.7329C108.27 54.7077 107.991 53.6881 108.071 51.2144C108.668 44.426 110.247 37.7633 112.758 31.4396C113.025 30.7936 113.378 30.1878 113.807 29.6384C114.063 29.4204 114.273 29.1523 114.424 28.8505C114.575 28.5488 114.665 28.2193 114.688 27.8817C114.612 27.1771 114.269 26.5298 113.731 26.0762C113.193 25.6225 112.501 25.3979 111.803 25.45C111.191 25.4112 110.58 25.5307 110.026 25.7968C109.473 26.0629 108.995 26.4671 108.639 26.9714C106.798 29.5263 103.525 40.6784 103.265 48.5727C103.207 50.0673 103.318 51.5639 103.597 53.0327C103.771 54.4685 104.436 55.7973 105.478 56.7881C106.519 57.779 107.871 58.3693 109.298 58.4562C110.351 58.4521 111.392 58.232 112.359 57.8092C113.326 57.3865 114.198 56.7697 114.923 55.9965C118.052 51.9717 120.927 47.752 123.533 43.3622C124.759 41.4348 126.024 39.4404 127.173 37.6811C126.622 40.4272 126.284 43.2129 126.163 46.0124C125.946 47.9187 126.147 49.8496 126.752 51.6682C127.176 53.0436 127.983 54.2663 129.076 55.1894C130.169 56.1126 131.502 56.6972 132.915 56.8733C133.882 56.8751 134.84 56.673 135.726 56.28C136.612 55.8869 137.407 55.3116 138.061 54.5903C140.917 51.1758 143.573 47.5951 146.015 43.8666C149.389 38.7606 153.057 33.86 157 29.1901C157.6 28.4447 158.351 27.8373 159.201 27.4085Z" fill="#63686A"/>
<path d="M295.375 24.9746C291.971 25.519 288.838 27.1819 286.461 29.7064C284.158 31.8383 282.095 34.2195 280.307 36.8077C281.117 34.5195 282.126 32.3088 283.324 30.2019C283.487 29.9693 283.567 29.6882 283.551 29.4038C283.551 28.2608 282.267 27.6443 281.06 27.6443C280.63 27.5909 280.195 27.6649 279.807 27.8574C279.418 28.0499 279.094 28.3528 278.873 28.7287C278.136 30.2527 277.12 32.7487 276.051 35.5725C275.32 36.0778 274.688 36.7172 274.188 37.4577C269.282 43.4308 263.421 48.5299 256.85 52.5432C255.201 53.3599 253.408 53.8361 251.576 53.9439C248.135 53.9439 246.911 50.5204 246.911 47.3156C246.92 45.9339 247.095 44.5587 247.434 43.2202C252.293 42.185 256.837 39.9869 260.684 36.8104C261.52 36.1754 262.205 35.3602 262.69 34.4235C263.175 33.4868 263.448 32.4521 263.488 31.3954C263.464 29.5203 262.717 27.7293 261.407 26.4033C260.096 25.0774 258.326 24.3215 256.473 24.2968C254.802 24.337 253.181 24.8823 251.82 25.8627C248.168 28.5698 245.347 32.2659 243.68 36.5249C243.295 36.863 242.944 37.2383 242.631 37.6455C239.387 41.7943 227.557 53.1902 218.134 53.1902C215.564 53.1902 214.316 51.4899 214.316 47.991C214.316 41.1528 219.421 28.7845 219.991 27.4258C223.589 26.9011 227.217 26.6205 230.852 26.5856C231.971 26.5311 233.092 26.6252 234.187 26.8657C234.543 26.9715 234.909 27.0372 235.278 27.0616C235.487 27.0836 235.698 27.0582 235.896 26.9871C236.094 26.916 236.274 26.8012 236.423 26.6509C236.571 26.5006 236.685 26.3188 236.755 26.1185C236.825 25.9182 236.85 25.7045 236.829 25.493C236.805 25.0422 236.671 24.6042 236.437 24.2196C236.204 23.8349 235.878 23.5158 235.491 23.2911C233.409 22.5077 231.18 22.2034 228.966 22.4003C227.408 22.4003 224.941 22.4617 221.89 22.7447C222.699 20.8313 223.352 19.3133 223.886 18.0778C224.816 16.1586 225.582 14.1623 226.176 12.1109C226.333 11.4044 226.399 10.6802 226.372 9.95649C226.372 7.21953 225.226 5.52734 224.157 5.52734C223.327 5.52734 222.923 6.38453 222.618 7.30899L222.065 9.02634C221.494 10.7604 220.437 13.1612 219.216 15.9402C218.23 18.1813 217.118 20.7026 215.999 23.4676L214.667 23.63C212.284 23.9101 210.401 24.1512 209.537 24.3081C208.848 24.515 208.248 24.9522 207.835 25.5484C207.422 26.1446 207.221 26.8647 207.265 27.5913C207.265 28.6615 207.799 29.3504 208.627 29.3504C208.876 29.3599 209.124 29.324 209.36 29.2441C210.927 28.8555 212.514 28.5589 214.114 28.356C213.892 28.9583 213.668 29.5576 213.444 30.1571C212.613 32.3534 211.821 34.4994 211.165 36.6312C210.796 37.0205 210.452 37.4332 210.135 37.8667C207.146 42.0688 200.031 49.7444 193.658 52.4646C192.436 53.0213 191.121 53.3387 189.782 53.4002C187.196 53.4002 186.812 50.2628 186.812 48.3914C187.226 42.3515 188.721 36.438 191.224 30.9388C191.436 30.4913 191.57 30.0095 191.618 29.5156C191.633 29.2429 191.592 28.97 191.496 28.7147C191.4 28.4594 191.251 28.2277 191.061 28.0345C190.87 27.8414 190.64 27.6912 190.388 27.5941C190.136 27.4969 189.866 27.4547 189.597 27.4706C188.605 27.4706 186.947 28.048 184.613 30.7569C181.784 26.8042 178.736 24.8009 175.552 24.8009C168.706 24.8009 156.387 43.1445 156.387 49.4392C156.643 51.2766 157.518 52.9681 158.865 54.2271C160.212 55.486 161.948 56.2349 163.778 56.3473C164.633 56.3511 165.477 56.1467 166.237 55.7509C172.806 52.3892 180.765 42.4415 182.969 39.5841C182.653 41.4875 182.489 43.4134 182.479 45.3435C182.329 47.9813 182.858 50.6135 184.013 52.983C184.57 54.4136 185.528 55.6482 186.769 56.5347C188.011 57.4212 189.482 57.9208 191 57.9723C192.261 57.9674 193.507 57.7022 194.663 57.1933C200.031 55.1035 206.036 48.8872 209.64 44.4106C209.618 44.8084 209.604 45.2062 209.604 45.6068C209.49 48.6738 210.58 51.6621 212.635 53.919C214.691 56.1758 217.545 57.5182 220.575 57.6529C225.806 57.1577 230.748 55.0005 234.694 51.49C237.321 49.3738 239.744 47.0109 241.931 44.4332C241.931 44.6013 241.911 44.7722 241.911 44.9403C241.911 52.3192 246.463 57.4737 252.985 57.4737C255.185 57.4506 257.36 56.9917 259.386 56.1233C264.537 53.4698 269.068 49.7324 272.674 45.1616C272.029 47.1477 271.484 48.9463 271.126 50.3246C270.881 51.2136 270.722 52.1244 270.65 53.0446C270.64 53.955 270.937 54.842 271.49 55.5601C272.043 56.2781 272.821 56.7848 273.696 56.9973C274.125 56.9973 274.886 56.7986 275.149 55.4735C275.351 54.4794 275.629 53.5023 275.979 52.5514C278.784 45.0581 283.239 38.3105 289.008 32.8214C290.802 30.8849 293.217 29.6558 295.824 29.3531C296.273 29.316 296.725 29.3752 297.15 29.5269C297.471 29.6762 297.823 29.7472 298.177 29.7341C298.661 29.7341 298.974 29.3058 298.974 28.6419C298.936 27.6858 298.546 26.7786 297.879 26.0997C297.213 25.4208 296.32 25.0194 295.375 24.9746ZM248.885 38.7015C251.277 32.9082 255.33 28.1094 257.885 28.1094C258.14 28.1068 258.394 28.1558 258.63 28.2534C258.866 28.351 259.081 28.4955 259.261 28.6781C259.442 28.8607 259.584 29.0778 259.681 29.3169C259.777 29.556 259.826 29.812 259.823 30.0703C259.66 31.2057 259.079 32.2367 258.195 32.9558C255.448 35.41 252.296 37.3567 248.882 38.7069L248.885 38.7015ZM182.064 33.7737C176.955 40.2481 171.196 46.1677 164.877 51.4366C164.104 52.078 163.171 52.4926 162.181 52.6356C161.935 52.6356 161.19 52.6356 161.19 51.2489C161.19 48.8201 163.698 43.3713 167.153 38.298C170.957 32.712 174.758 29.2159 177.064 29.1767C179.37 29.1375 181.164 32.0034 182.061 33.7823L182.064 33.7737Z" fill="#63686A"/>
</g>
<defs>
<clipPath id="clip0_159_2897">
<rect width="299" height="59" fill="white"/>
</clipPath>
</defs>
</svg>
