<svg width="105" height="182" viewBox="0 0 105 182" fill="none" xmlns="http://www.w3.org/2000/svg">
<g style="mix-blend-mode:multiply">
<path d="M49.4609 181.51C37.5816 181.51 27.2917 178.414 18.5914 172.224C10.0583 165.866 3.86767 156.58 0.0194376 144.366L24.6147 136.084C25.4513 138.426 26.7898 141.187 28.6302 144.366C30.4707 147.378 33.0641 150.055 36.4104 152.397C39.7566 154.739 43.9395 155.911 48.959 155.911C57.492 155.911 64.2682 153.819 69.2877 149.636C74.3071 145.453 76.8168 138.426 76.8168 128.555C76.8168 119.687 74.3071 112.576 69.2877 107.222C64.2682 101.868 57.0737 99.1909 47.7041 99.1909H35.1555V74.5957H47.7041C56.0698 74.5957 62.2605 72.1696 66.276 67.3175C70.2916 62.2981 72.2993 56.1911 72.2993 48.9966C72.2993 40.6308 69.8733 34.7748 65.0212 31.4285C60.3363 27.9149 54.9823 26.1581 48.959 26.1581C44.6088 26.1581 40.9279 27.413 37.9162 29.9227C34.9045 32.2651 32.3948 35.0258 30.387 38.2048C28.5466 41.2164 27.2081 43.8935 26.3715 46.2359L2.02721 36.448C6.37739 25.0706 12.7353 16.2866 21.1011 10.0959C29.6341 3.73798 39.0874 0.558999 49.4609 0.558999C59.6671 0.558999 68.5348 2.56677 76.0639 6.58232C83.7604 10.4306 89.7001 15.8683 93.8829 22.8955C98.2331 29.9227 100.408 38.2048 100.408 47.7417C100.408 56.4421 98.0658 64.3059 93.381 71.3331C88.8635 78.193 83.0911 83.2124 76.0639 86.3914C84.4296 89.5704 91.2059 95.0081 96.3926 102.705C101.747 110.401 104.424 119.352 104.424 129.559C104.424 145.453 99.5716 158.086 89.8674 167.455C80.3304 176.825 66.8616 181.51 49.4609 181.51Z" fill="#F4F3F3"/>
</g>
</svg>
