<svg width="100" height="178" viewBox="0 0 100 178" fill="none" xmlns="http://www.w3.org/2000/svg">
<g style="mix-blend-mode:multiply">
<path d="M0.0272124 178V169.718C0.0272124 157.671 3.12253 145.959 9.31317 134.582C15.6711 123.204 26.2119 110.489 40.9356 96.4341C46.1224 91.4147 51.0582 86.3953 55.743 81.3758C60.4278 76.1891 64.276 71.1696 67.2877 66.3175C70.2993 61.2981 71.8888 56.5296 72.0561 52.0121C72.2235 43.3118 70.2157 36.8701 66.0328 32.6873C62.0173 28.5044 56.2449 26.413 48.7158 26.413C41.5212 26.413 36.1672 29.0064 32.6536 34.1931C29.14 39.3799 27.3831 46.658 27.3831 56.0277H0.780128C0.780128 38.627 5.21396 25.0745 14.0816 15.3702C22.9493 5.66598 34.494 0.813857 48.7158 0.813857C58.42 0.813857 67.0367 2.82163 74.5659 6.83718C82.2623 10.8527 88.2857 16.7087 92.6358 24.4052C96.986 32.1017 98.9938 41.555 98.6592 52.765C98.4918 60.6288 96.6514 67.907 93.1378 74.5996C89.6242 81.2922 84.9394 87.8174 79.0834 94.1754C73.3947 100.366 66.8694 106.975 59.5075 114.002C51.8111 121.531 44.9512 128.726 38.9279 135.586C33.0718 142.446 29.6419 148.385 28.638 153.405H95.6475V178H0.0272124Z" fill="#F4F3F3"/>
</g>
</svg>
