<?xml version="1.0" encoding="UTF-8"?>
<svg id="_レイヤー_2" data-name="レイヤー 2" xmlns="http://www.w3.org/2000/svg" viewBox="0 0 147.57 68.47">
  <defs>
    <style>
      .cls-1 {
        fill: #ed6388;
      }

      .cls-2 {
        fill: #fff;
        stroke: #fff;
        stroke-miterlimit: 10;
        stroke-width: 10px;
      }
    </style>
  </defs>
  <g id="_レイヤー_4" data-name="レイヤー 4">
    <g>
      <g>
        <path class="cls-2" d="M44.41,50.89l4.49,3.59c2.12,1.67,2.76,2.25,2.76,3.85,0,2.05-2.18,5.13-5.26,5.13-.9,0-1.67-.38-2.82-1.54l-7.57-7.44c-2.25.77-4.69,1.09-7.25,1.09-14.31,0-23.75-8.02-23.75-25.29S14.43,5,28.75,5s23.75,8.02,23.75,25.29c0,9.63-2.89,16.37-8.09,20.6ZM39.85,30.35c0-13.03-5.33-17.26-11.1-17.26h-.06c-5.71,0-11.04,4.24-11.04,17.26s5.33,17.26,11.1,17.26,11.04-4.3,11.04-17.26h.06Z"/>
        <path class="cls-2" d="M87.95,55.37c-2.5,0-4.05-.8-6.35-2.8h-.2c-1.9,1.35-4.95,2.85-10.35,2.85-8.05,0-11.8-4.1-11.8-9.7,0-4.8,2.85-8.05,7.75-10.6-1.7-2.6-3.2-5.2-3.2-8.45,0-4.35,3.05-8.05,11-8.05,5.9,0,10.65,2.35,10.65,7.65,0,4.2-2.4,6.9-7.4,9.7,1.7,2.2,3.65,4.4,5.75,6.45.8-1.55,1.3-3.75,1.6-5.05.45-1.9,1.3-3.05,3.65-3.05s3.5,1.2,3.45,3.15c-.1,3.4-1.7,7.2-3.65,9.6,1.75,1.3,3.7,2.95,3.7,4.75,0,1.1-.75,3.55-4.6,3.55ZM70.95,40.52c-1.45,1.05-2.55,2.65-2.55,4.8,0,2.3,2.05,4.55,4.3,4.55,1.65,0,3.55-.8,4.5-1.8-1.85-1.95-4.55-5.2-6.25-7.55ZM74.9,23.57c-1.6,0-2.55.9-2.55,2.85v.05c0,1.35,1.1,3.5,2.05,4.9,1.95-1.2,3.3-3.05,3.3-4.9,0-1.65-1-2.9-2.8-2.9Z"/>
        <path class="cls-2" d="M136.35,55.06c-3.66,0-5.71-1.6-6.1-3.21l-2.05-8.86h-14.18l-1.93,8.28c-.58,2.37-3.21,3.79-5.78,3.79-4.88,0-6.74-2.12-6.74-4.68,0-.58.19-1.09.32-1.6l11.3-38.31c1.16-3.85,4.75-4.88,9.88-4.88,4.81,0,8.66,1.03,9.82,4.88l11.23,37.93c.13.51.45,1.41.45,1.99,0,2.76-2.57,4.68-6.23,4.68ZM123.83,25.34c-.83-3.4-1.16-5.71-2.31-10.01h-.9c-1.03,4.49-1.54,6.74-2.31,10.01l-2.31,9.56h10.2l-2.37-9.56Z"/>
      </g>
      <g>
        <path class="cls-1" d="M44.41,50.89l4.49,3.59c2.12,1.67,2.76,2.25,2.76,3.85,0,2.05-2.18,5.13-5.26,5.13-.9,0-1.67-.38-2.82-1.54l-7.57-7.44c-2.25.77-4.69,1.09-7.25,1.09-14.31,0-23.75-8.02-23.75-25.29S14.43,5,28.75,5s23.75,8.02,23.75,25.29c0,9.63-2.89,16.37-8.09,20.6ZM39.85,30.35c0-13.03-5.33-17.26-11.1-17.26h-.06c-5.71,0-11.04,4.24-11.04,17.26s5.33,17.26,11.1,17.26,11.04-4.3,11.04-17.26h.06Z"/>
        <path class="cls-1" d="M87.95,55.37c-2.5,0-4.05-.8-6.35-2.8h-.2c-1.9,1.35-4.95,2.85-10.35,2.85-8.05,0-11.8-4.1-11.8-9.7,0-4.8,2.85-8.05,7.75-10.6-1.7-2.6-3.2-5.2-3.2-8.45,0-4.35,3.05-8.05,11-8.05,5.9,0,10.65,2.35,10.65,7.65,0,4.2-2.4,6.9-7.4,9.7,1.7,2.2,3.65,4.4,5.75,6.45.8-1.55,1.3-3.75,1.6-5.05.45-1.9,1.3-3.05,3.65-3.05s3.5,1.2,3.45,3.15c-.1,3.4-1.7,7.2-3.65,9.6,1.75,1.3,3.7,2.95,3.7,4.75,0,1.1-.75,3.55-4.6,3.55ZM70.95,40.52c-1.45,1.05-2.55,2.65-2.55,4.8,0,2.3,2.05,4.55,4.3,4.55,1.65,0,3.55-.8,4.5-1.8-1.85-1.95-4.55-5.2-6.25-7.55ZM74.9,23.57c-1.6,0-2.55.9-2.55,2.85v.05c0,1.35,1.1,3.5,2.05,4.9,1.95-1.2,3.3-3.05,3.3-4.9,0-1.65-1-2.9-2.8-2.9Z"/>
        <path class="cls-1" d="M136.35,55.06c-3.66,0-5.71-1.6-6.1-3.21l-2.05-8.86h-14.18l-1.93,8.28c-.58,2.37-3.21,3.79-5.78,3.79-4.88,0-6.74-2.12-6.74-4.68,0-.58.19-1.09.32-1.6l11.3-38.31c1.16-3.85,4.75-4.88,9.88-4.88,4.81,0,8.66,1.03,9.82,4.88l11.23,37.93c.13.51.45,1.41.45,1.99,0,2.76-2.57,4.68-6.23,4.68ZM123.83,25.34c-.83-3.4-1.16-5.71-2.31-10.01h-.9c-1.03,4.49-1.54,6.74-2.31,10.01l-2.31,9.56h10.2l-2.37-9.56Z"/>
      </g>
    </g>
  </g>
</svg>