<?xml version="1.0" encoding="UTF-8"?>
<svg id="_レイヤー_2" data-name="レイヤー 2" xmlns="http://www.w3.org/2000/svg" viewBox="0 0 26.16 26.4">
  <defs>
    <style>
      .cls-1 {
        fill: #4e4e4e;
      }
    </style>
  </defs>
  <g id="_レイヤー_4" data-name="レイヤー 4">
    <g>
      <path class="cls-1" d="M13.23,22.77c2.25.6,4.68,1.17,6.57,1.53l-.75,2.1c-2.85-.75-5.85-1.68-8.22-2.49-.48-.18-.87-.33-1.29-.33-5.22-.15-9.54-4.14-9.54-11.58S4.2,0,9.99,0s9.6,4.62,9.6,11.58c0,6.06-2.61,9.78-6.36,11.07v.12ZM2.61,11.94c0,4.89,2.64,9.57,7.14,9.57s7.23-4.59,7.23-9.81c0-4.62-2.22-9.63-7.08-9.63S2.61,7.11,2.61,11.94Z"/>
      <path class="cls-1" d="M22.59,21.69c0-1.14.75-1.95,1.8-1.95s1.77.81,1.77,1.95c0,1.08-.69,1.89-1.8,1.89s-1.77-.9-1.77-1.89Z"/>
    </g>
  </g>
</svg>